%TF.GenerationSoftware,KiCad,Pcbnew,9.0.0*%
%TF.CreationDate,2026-01-11T16:58:41-05:00*%
%TF.ProjectId,Tiny4FSK,54696e79-3446-4534-9b2e-6b696361645f,rev?*%
%TF.SameCoordinates,Original*%
%TF.FileFunction,Paste,Top*%
%TF.FilePolarity,Positive*%
%FSLAX46Y46*%
G04 Gerber Fmt 4.6, Leading zero omitted, Abs format (unit mm)*
G04 Created by KiCad (PCBNEW 9.0.0) date 2026-01-11 16:58:41*
%MOMM*%
%LPD*%
G01*
G04 APERTURE LIST*
G04 Aperture macros list*
%AMRoundRect*
0 Rectangle with rounded corners*
0 $1 Rounding radius*
0 $2 $3 $4 $5 $6 $7 $8 $9 X,Y pos of 4 corners*
0 Add a 4 corners polygon primitive as box body*
4,1,4,$2,$3,$4,$5,$6,$7,$8,$9,$2,$3,0*
0 Add four circle primitives for the rounded corners*
1,1,$1+$1,$2,$3*
1,1,$1+$1,$4,$5*
1,1,$1+$1,$6,$7*
1,1,$1+$1,$8,$9*
0 Add four rect primitives between the rounded corners*
20,1,$1+$1,$2,$3,$4,$5,0*
20,1,$1+$1,$4,$5,$6,$7,0*
20,1,$1+$1,$6,$7,$8,$9,0*
20,1,$1+$1,$8,$9,$2,$3,0*%
%AMFreePoly0*
4,1,9,3.862500,-0.866500,0.737500,-0.866500,0.737500,-0.450000,-0.737500,-0.450000,-0.737500,0.450000,0.737500,0.450000,0.737500,0.866500,3.862500,0.866500,3.862500,-0.866500,3.862500,-0.866500,$1*%
G04 Aperture macros list end*
%ADD10RoundRect,0.155000X-0.155000X0.212500X-0.155000X-0.212500X0.155000X-0.212500X0.155000X0.212500X0*%
%ADD11RoundRect,0.160000X-0.160000X0.222500X-0.160000X-0.222500X0.160000X-0.222500X0.160000X0.222500X0*%
%ADD12RoundRect,0.155000X0.155000X-0.212500X0.155000X0.212500X-0.155000X0.212500X-0.155000X-0.212500X0*%
%ADD13R,1.200000X1.400000*%
%ADD14RoundRect,0.150000X-0.150000X-0.425000X0.150000X-0.425000X0.150000X0.425000X-0.150000X0.425000X0*%
%ADD15RoundRect,0.075000X-0.075000X-0.500000X0.075000X-0.500000X0.075000X0.500000X-0.075000X0.500000X0*%
%ADD16O,1.000000X2.100000*%
%ADD17O,1.000000X1.800000*%
%ADD18RoundRect,0.237500X0.237500X-0.250000X0.237500X0.250000X-0.237500X0.250000X-0.237500X-0.250000X0*%
%ADD19RoundRect,0.160000X-0.197500X-0.160000X0.197500X-0.160000X0.197500X0.160000X-0.197500X0.160000X0*%
%ADD20RoundRect,0.155000X0.259862X-0.040659X-0.040659X0.259862X-0.259862X0.040659X0.040659X-0.259862X0*%
%ADD21RoundRect,0.155000X0.212500X0.155000X-0.212500X0.155000X-0.212500X-0.155000X0.212500X-0.155000X0*%
%ADD22RoundRect,0.237500X-0.237500X0.300000X-0.237500X-0.300000X0.237500X-0.300000X0.237500X0.300000X0*%
%ADD23RoundRect,0.160000X0.044194X0.270468X-0.270468X-0.044194X-0.044194X-0.270468X0.270468X0.044194X0*%
%ADD24RoundRect,0.225000X-0.425000X-0.225000X0.425000X-0.225000X0.425000X0.225000X-0.425000X0.225000X0*%
%ADD25FreePoly0,0.000000*%
%ADD26RoundRect,0.160000X0.197500X0.160000X-0.197500X0.160000X-0.197500X-0.160000X0.197500X-0.160000X0*%
%ADD27RoundRect,0.249999X0.290001X0.290001X-0.290001X0.290001X-0.290001X-0.290001X0.290001X-0.290001X0*%
%ADD28RoundRect,0.062500X0.350000X0.062500X-0.350000X0.062500X-0.350000X-0.062500X0.350000X-0.062500X0*%
%ADD29RoundRect,0.062500X0.062500X0.350000X-0.062500X0.350000X-0.062500X-0.350000X0.062500X-0.350000X0*%
%ADD30R,0.800000X1.800000*%
%ADD31RoundRect,0.160000X-0.160000X0.197500X-0.160000X-0.197500X0.160000X-0.197500X0.160000X0.197500X0*%
%ADD32RoundRect,0.160000X0.160000X-0.197500X0.160000X0.197500X-0.160000X0.197500X-0.160000X-0.197500X0*%
%ADD33RoundRect,0.155000X-0.212500X-0.155000X0.212500X-0.155000X0.212500X0.155000X-0.212500X0.155000X0*%
%ADD34RoundRect,0.250000X-0.450000X0.325000X-0.450000X-0.325000X0.450000X-0.325000X0.450000X0.325000X0*%
%ADD35R,0.230000X0.230000*%
%ADD36O,0.230000X0.800000*%
%ADD37R,1.050000X0.680000*%
%ADD38R,0.500000X0.260000*%
%ADD39RoundRect,0.160000X0.222500X0.160000X-0.222500X0.160000X-0.222500X-0.160000X0.222500X-0.160000X0*%
%ADD40R,0.500000X0.350000*%
%ADD41RoundRect,0.237500X-0.300000X-0.237500X0.300000X-0.237500X0.300000X0.237500X-0.300000X0.237500X0*%
%ADD42R,1.140000X3.050000*%
%ADD43R,0.825000X0.630000*%
%ADD44RoundRect,0.075000X-0.662500X-0.075000X0.662500X-0.075000X0.662500X0.075000X-0.662500X0.075000X0*%
%ADD45RoundRect,0.075000X-0.075000X-0.662500X0.075000X-0.662500X0.075000X0.662500X-0.075000X0.662500X0*%
%ADD46R,1.168400X2.209800*%
%ADD47R,0.800000X1.000000*%
%ADD48R,1.500000X0.700000*%
%ADD49R,1.000000X1.500000*%
G04 APERTURE END LIST*
D10*
%TO.C,C13*%
X157995000Y-58047500D03*
X157995000Y-59182500D03*
%TD*%
D11*
%TO.C,L5*%
X156000000Y-95826250D03*
X156000000Y-96971250D03*
%TD*%
D12*
%TO.C,C11*%
X150305218Y-77249421D03*
X150305218Y-76114421D03*
%TD*%
D13*
%TO.C,U4*%
X142950000Y-77090000D03*
X142950000Y-79290000D03*
X144650000Y-79290000D03*
X144650000Y-77090000D03*
%TD*%
D14*
%TO.C,J7*%
X129476776Y-100330139D03*
X130276776Y-100330139D03*
D15*
X131426776Y-100330139D03*
X132426776Y-100330139D03*
X132926776Y-100330139D03*
X133926776Y-100330139D03*
D14*
X135076776Y-100330139D03*
X135876776Y-100330139D03*
X135876776Y-100330139D03*
X135076776Y-100330139D03*
D15*
X134426776Y-100330139D03*
X133426776Y-100330139D03*
X131926776Y-100330139D03*
X130926776Y-100330139D03*
D14*
X130276776Y-100330139D03*
X129476776Y-100330139D03*
D16*
X128356776Y-100905139D03*
D17*
X128356776Y-105085139D03*
D16*
X136996776Y-100905139D03*
D17*
X136996776Y-105085139D03*
%TD*%
D18*
%TO.C,FB1*%
X127865000Y-98277500D03*
X127865000Y-96452500D03*
%TD*%
D19*
%TO.C,R5*%
X145146049Y-74644619D03*
X146341049Y-74644619D03*
%TD*%
D10*
%TO.C,C16*%
X157200000Y-87632500D03*
X157200000Y-88767500D03*
%TD*%
D20*
%TO.C,C3*%
X145841283Y-59241283D03*
X145038717Y-58438717D03*
%TD*%
D10*
%TO.C,C19*%
X135871627Y-97465116D03*
X135871627Y-98600116D03*
%TD*%
D21*
%TO.C,C20*%
X154985655Y-95216644D03*
X153850655Y-95216644D03*
%TD*%
D22*
%TO.C,C7*%
X149145000Y-68892500D03*
X149145000Y-70617500D03*
%TD*%
D11*
%TO.C,L7*%
X156000000Y-100898750D03*
X156000000Y-102043750D03*
%TD*%
D23*
%TO.C,L1*%
X151425834Y-38530583D03*
X150616196Y-39340221D03*
%TD*%
D24*
%TO.C,U7*%
X131885000Y-91146687D03*
X131885000Y-94146687D03*
D25*
X131972500Y-92646687D03*
%TD*%
D26*
%TO.C,R2*%
X143469572Y-54041843D03*
X142274572Y-54041843D03*
%TD*%
D12*
%TO.C,C14*%
X157600000Y-86467500D03*
X157600000Y-85332500D03*
%TD*%
D10*
%TO.C,C6*%
X150395000Y-68937500D03*
X150395000Y-70072500D03*
%TD*%
D27*
%TO.C,U6*%
X153125000Y-92625000D03*
X153125000Y-91375000D03*
X151875000Y-92625000D03*
X151875000Y-91375000D03*
D28*
X154437500Y-93000000D03*
X154437500Y-92500000D03*
X154437500Y-92000000D03*
X154437500Y-91500000D03*
X154437500Y-91000000D03*
D29*
X153500000Y-90062500D03*
X153000000Y-90062500D03*
X152500000Y-90062500D03*
X152000000Y-90062500D03*
X151500000Y-90062500D03*
D28*
X150562500Y-91000000D03*
X150562500Y-91500000D03*
X150562500Y-92000000D03*
X150562500Y-92500000D03*
X150562500Y-93000000D03*
D29*
X151500000Y-93937500D03*
X152000000Y-93937500D03*
X152500000Y-93937500D03*
X153000000Y-93937500D03*
X153500000Y-93937500D03*
%TD*%
D21*
%TO.C,C2*%
X143462061Y-55018579D03*
X142327061Y-55018579D03*
%TD*%
D12*
%TO.C,C30*%
X141500000Y-78667500D03*
X141500000Y-77532500D03*
%TD*%
D23*
%TO.C,L8*%
X153639819Y-40978550D03*
X152830181Y-41788188D03*
%TD*%
D12*
%TO.C,C18*%
X129931512Y-93827500D03*
X129931512Y-92692500D03*
%TD*%
D30*
%TO.C,U2*%
X147602759Y-61121296D03*
X148702759Y-61121296D03*
X149802759Y-61121296D03*
X150902759Y-61121296D03*
X152002759Y-61121296D03*
X153102759Y-61121296D03*
X154202759Y-61121296D03*
X155302759Y-61121296D03*
X156402759Y-61121296D03*
X156402759Y-51806296D03*
X155302759Y-51806296D03*
X154202759Y-51806296D03*
X153102759Y-51806296D03*
X152002759Y-51806296D03*
X150902759Y-51806296D03*
X149802759Y-51806296D03*
X148702759Y-51806296D03*
X147602759Y-51806296D03*
%TD*%
D31*
%TO.C,R12*%
X132945858Y-97460119D03*
X132945858Y-98655119D03*
%TD*%
D32*
%TO.C,R9*%
X157010000Y-83087500D03*
X157010000Y-81892500D03*
%TD*%
D19*
%TO.C,R3*%
X152376835Y-72431865D03*
X153571835Y-72431865D03*
%TD*%
D33*
%TO.C,C21*%
X148707280Y-96023279D03*
X149842280Y-96023279D03*
%TD*%
D21*
%TO.C,C25*%
X131064592Y-98186046D03*
X129929592Y-98186046D03*
%TD*%
D34*
%TO.C,D1*%
X143750000Y-105225000D03*
X143750000Y-107275000D03*
%TD*%
D31*
%TO.C,R1*%
X144509334Y-50991849D03*
X144509334Y-52186849D03*
%TD*%
D34*
%TO.C,D3*%
X147750000Y-105225000D03*
X147750000Y-107275000D03*
%TD*%
D35*
%TO.C,U3*%
X154635000Y-67995000D03*
D36*
X154635000Y-68280000D03*
D35*
X154135000Y-67995000D03*
D36*
X154135000Y-68280000D03*
D35*
X153635000Y-67995000D03*
D36*
X153635000Y-68280000D03*
D35*
X153135000Y-67995000D03*
D36*
X153135000Y-68280000D03*
D35*
X152635000Y-67995000D03*
D36*
X152635000Y-68280000D03*
X152635000Y-71230000D03*
D35*
X152635000Y-71515000D03*
D36*
X153135000Y-71230000D03*
D35*
X153135000Y-71515000D03*
D36*
X153635000Y-71230000D03*
D35*
X153635000Y-71515000D03*
D36*
X154135000Y-71230000D03*
D35*
X154135000Y-71515000D03*
D36*
X154635000Y-71230000D03*
D35*
X154635000Y-71515000D03*
D37*
X154270000Y-69305000D03*
X153000000Y-69305000D03*
D38*
X155265000Y-69505000D03*
X152005000Y-69505000D03*
X155265000Y-70005000D03*
X152005000Y-70005000D03*
D37*
X154270000Y-70205000D03*
X153000000Y-70205000D03*
%TD*%
D32*
%TO.C,R8*%
X157000000Y-80847500D03*
X157000000Y-79652500D03*
%TD*%
D21*
%TO.C,C12*%
X144206099Y-80800000D03*
X143071099Y-80800000D03*
%TD*%
D39*
%TO.C,L3*%
X157089522Y-89867029D03*
X155944522Y-89867029D03*
%TD*%
D32*
%TO.C,R13*%
X145709462Y-103762515D03*
X145709462Y-102567515D03*
%TD*%
D33*
%TO.C,C23*%
X154532500Y-88200000D03*
X155667500Y-88200000D03*
%TD*%
D31*
%TO.C,R15*%
X142110000Y-105212500D03*
X142110000Y-106407500D03*
%TD*%
D20*
%TO.C,C28*%
X152126283Y-40984652D03*
X151323717Y-40182086D03*
%TD*%
D33*
%TO.C,C22*%
X131814767Y-95648838D03*
X132949767Y-95648838D03*
%TD*%
D31*
%TO.C,R10*%
X134017676Y-97450171D03*
X134017676Y-98645171D03*
%TD*%
D32*
%TO.C,R11*%
X136931918Y-98643080D03*
X136931918Y-97448080D03*
%TD*%
D10*
%TO.C,C1*%
X144502577Y-53272997D03*
X144502577Y-54407997D03*
%TD*%
D33*
%TO.C,C26*%
X146182500Y-93200000D03*
X147317500Y-93200000D03*
%TD*%
D40*
%TO.C,U1*%
X141385220Y-53079470D03*
X141385220Y-52429470D03*
X141385220Y-51779470D03*
X141385220Y-51129470D03*
X143435220Y-51129470D03*
X143435220Y-51779470D03*
X143435220Y-52429470D03*
X143435220Y-53079470D03*
%TD*%
D34*
%TO.C,D2*%
X145750000Y-105225000D03*
X145750000Y-107275000D03*
%TD*%
D41*
%TO.C,C4*%
X154532500Y-65255000D03*
X156257500Y-65255000D03*
%TD*%
D21*
%TO.C,C24*%
X154977500Y-97621250D03*
X153842500Y-97621250D03*
%TD*%
%TO.C,C29*%
X151262500Y-73315000D03*
X150127500Y-73315000D03*
%TD*%
D42*
%TO.C,L2*%
X151895000Y-65005000D03*
X149735000Y-65005000D03*
%TD*%
D12*
%TO.C,C10*%
X155050000Y-78617500D03*
X155050000Y-77482500D03*
%TD*%
D11*
%TO.C,L6*%
X156000000Y-98326250D03*
X156000000Y-99471250D03*
%TD*%
D43*
%TO.C,U8*%
X146205696Y-94216174D03*
X146205696Y-96036174D03*
X147435696Y-96036174D03*
X147435696Y-94216174D03*
%TD*%
D26*
%TO.C,R6*%
X146342157Y-75600000D03*
X145147157Y-75600000D03*
%TD*%
D19*
%TO.C,R7*%
X152277171Y-77296768D03*
X153472171Y-77296768D03*
%TD*%
D10*
%TO.C,C8*%
X156395000Y-69187500D03*
X156395000Y-70322500D03*
%TD*%
D32*
%TO.C,R14*%
X147789462Y-103772515D03*
X147789462Y-102577515D03*
%TD*%
D12*
%TO.C,C17*%
X127920231Y-93264638D03*
X127920231Y-92129638D03*
%TD*%
D44*
%TO.C,U5*%
X146587500Y-80250000D03*
X146587500Y-80750000D03*
X146587500Y-81250000D03*
X146587500Y-81750000D03*
X146587500Y-82250000D03*
X146587500Y-82750000D03*
X146587500Y-83250000D03*
X146587500Y-83750000D03*
X146587500Y-84250000D03*
X146587500Y-84750000D03*
X146587500Y-85250000D03*
X146587500Y-85750000D03*
D45*
X148000000Y-87162500D03*
X148500000Y-87162500D03*
X149000000Y-87162500D03*
X149500000Y-87162500D03*
X150000000Y-87162500D03*
X150500000Y-87162500D03*
X151000000Y-87162500D03*
X151500000Y-87162500D03*
X152000000Y-87162500D03*
X152500000Y-87162500D03*
X153000000Y-87162500D03*
X153500000Y-87162500D03*
D44*
X154912500Y-85750000D03*
X154912500Y-85250000D03*
X154912500Y-84750000D03*
X154912500Y-84250000D03*
X154912500Y-83750000D03*
X154912500Y-83250000D03*
X154912500Y-82750000D03*
X154912500Y-82250000D03*
X154912500Y-81750000D03*
X154912500Y-81250000D03*
X154912500Y-80750000D03*
X154912500Y-80250000D03*
D45*
X153500000Y-78837500D03*
X153000000Y-78837500D03*
X152500000Y-78837500D03*
X152000000Y-78837500D03*
X151500000Y-78837500D03*
X151000000Y-78837500D03*
X150500000Y-78837500D03*
X150000000Y-78837500D03*
X149500000Y-78837500D03*
X149000000Y-78837500D03*
X148500000Y-78837500D03*
X148000000Y-78837500D03*
%TD*%
D46*
%TO.C,AE1*%
X148561783Y-39057652D03*
X141830783Y-39057652D03*
%TD*%
D47*
%TO.C,SW1*%
X143299224Y-66100085D03*
X141089224Y-66100085D03*
X143299224Y-73400085D03*
X141089224Y-73400085D03*
D48*
X143949224Y-67500085D03*
X143949224Y-70500085D03*
X143949224Y-72000085D03*
%TD*%
D33*
%TO.C,C9*%
X148114421Y-77333145D03*
X149249421Y-77333145D03*
%TD*%
%TO.C,C5*%
X155327500Y-66505000D03*
X156462500Y-66505000D03*
%TD*%
D19*
%TO.C,R4*%
X154637648Y-72439291D03*
X155832648Y-72439291D03*
%TD*%
D49*
%TO.C,SW2*%
X142420000Y-102800000D03*
X142420000Y-95300000D03*
%TD*%
D11*
%TO.C,L4*%
X156000000Y-93326250D03*
X156000000Y-94471250D03*
%TD*%
D21*
%TO.C,C27*%
X154980910Y-100215963D03*
X153845910Y-100215963D03*
%TD*%
D10*
%TO.C,C15*%
X156000000Y-90903750D03*
X156000000Y-92038750D03*
%TD*%
M02*
