%TF.GenerationSoftware,KiCad,Pcbnew,8.0.8*%
%TF.CreationDate,2025-05-28T20:16:54-04:00*%
%TF.ProjectId,Tiny4FSK,54696e79-3446-4534-9b2e-6b696361645f,rev?*%
%TF.SameCoordinates,Original*%
%TF.FileFunction,Copper,L2,Inr*%
%TF.FilePolarity,Positive*%
%FSLAX46Y46*%
G04 Gerber Fmt 4.6, Leading zero omitted, Abs format (unit mm)*
G04 Created by KiCad (PCBNEW 8.0.8) date 2025-05-28 20:16:54*
%MOMM*%
%LPD*%
G01*
G04 APERTURE LIST*
%TA.AperFunction,ComponentPad*%
%ADD10O,1.000000X2.100000*%
%TD*%
%TA.AperFunction,ComponentPad*%
%ADD11O,1.000000X1.800000*%
%TD*%
%TA.AperFunction,ComponentPad*%
%ADD12R,1.700000X1.700000*%
%TD*%
%TA.AperFunction,ComponentPad*%
%ADD13O,1.700000X1.700000*%
%TD*%
%TA.AperFunction,HeatsinkPad*%
%ADD14C,0.500000*%
%TD*%
%TA.AperFunction,ComponentPad*%
%ADD15C,0.600000*%
%TD*%
%TA.AperFunction,ComponentPad*%
%ADD16C,2.000000*%
%TD*%
%TA.AperFunction,ViaPad*%
%ADD17C,0.800000*%
%TD*%
%TA.AperFunction,ViaPad*%
%ADD18C,0.600000*%
%TD*%
G04 APERTURE END LIST*
D10*
%TO.N,Net-(J7-SHIELD)*%
%TO.C,J7*%
X128356776Y-100905139D03*
D11*
X128356776Y-105085139D03*
D10*
X136996776Y-100905139D03*
D11*
X136996776Y-105085139D03*
%TD*%
D12*
%TO.N,D+*%
%TO.C,J4*%
X142250000Y-84210000D03*
D13*
%TO.N,D-*%
X142250000Y-86750000D03*
%TO.N,+3.3V*%
X142250000Y-89290000D03*
%TO.N,Earth*%
X142250000Y-91830000D03*
%TD*%
D12*
%TO.N,+3.3V*%
%TO.C,J3*%
X160380000Y-82590000D03*
D13*
%TO.N,SDA*%
X160380000Y-85130000D03*
%TO.N,SCL*%
X160380000Y-87670000D03*
%TO.N,Earth*%
X160380000Y-90210000D03*
%TD*%
D14*
%TO.N,Earth*%
%TO.C,U6*%
X153500000Y-93000000D03*
X153500000Y-91000000D03*
X151500000Y-93000000D03*
X151500000Y-91000000D03*
%TD*%
D12*
%TO.N,+BATT*%
%TO.C,J1*%
X142294431Y-63452157D03*
D13*
%TO.N,Earth*%
X142294431Y-60912157D03*
%TO.N,+3.3V*%
X142294431Y-58372157D03*
%TD*%
D15*
%TO.N,Earth*%
%TO.C,U3*%
X154385000Y-69255000D03*
X152885000Y-69255000D03*
X153635000Y-69755000D03*
X154385000Y-70255000D03*
X152885000Y-70255000D03*
%TD*%
D16*
%TO.N,Net-(AE2-RF)*%
%TO.C,AE2*%
X153911023Y-105665790D03*
%TO.N,Earth*%
X150696023Y-105665790D03*
X157126023Y-105665790D03*
%TD*%
D12*
%TO.N,D38*%
%TO.C,J2*%
X160400000Y-58580000D03*
D13*
%TO.N,Earth*%
X160400000Y-61120000D03*
%TO.N,D12*%
X160400000Y-63660000D03*
%TO.N,Earth*%
X160400000Y-66200000D03*
%TO.N,D13*%
X160400000Y-68740000D03*
%TO.N,Earth*%
X160400000Y-71280000D03*
%TO.N,A1*%
X160400000Y-73820000D03*
%TO.N,Earth*%
X160400000Y-76360000D03*
%TO.N,A2*%
X160400000Y-78900000D03*
%TD*%
D12*
%TO.N,D+*%
%TO.C,J5*%
X136241300Y-87746215D03*
D13*
%TO.N,D-*%
X133701300Y-87746215D03*
%TO.N,+3.3V*%
X131161300Y-87746215D03*
%TO.N,Earth*%
X128621300Y-87746215D03*
%TD*%
D12*
%TO.N,+3.3V*%
%TO.C,J6*%
X160380000Y-94065000D03*
D13*
%TO.N,MOSI*%
X160380000Y-96605000D03*
%TO.N,MISO*%
X160380000Y-99145000D03*
%TO.N,SCK*%
X160380000Y-101685000D03*
%TO.N,Earth*%
X160380000Y-104225000D03*
%TD*%
D17*
%TO.N,Earth*%
X150300000Y-98400000D03*
X151477985Y-84722259D03*
X147900000Y-100000000D03*
X157000000Y-67750000D03*
X156000000Y-43828369D03*
X152900000Y-73500000D03*
X156510000Y-48038570D03*
X157064640Y-91282624D03*
X156500000Y-45904284D03*
X148400000Y-70600000D03*
X154100761Y-73460013D03*
X140750000Y-64750000D03*
X155000000Y-54200000D03*
X148700000Y-72100000D03*
X146750000Y-60500000D03*
X160950000Y-37748369D03*
X150000000Y-49500000D03*
X130250000Y-103750000D03*
D18*
X130900000Y-95656687D03*
D17*
X160950000Y-39852246D03*
X156120000Y-37748369D03*
X157398495Y-66500000D03*
X153500000Y-38928369D03*
X143000000Y-98500000D03*
X128750000Y-91000000D03*
X156500000Y-46900000D03*
X153900000Y-44100000D03*
X145750000Y-71500000D03*
X156500000Y-49034284D03*
X154400000Y-40228369D03*
D18*
X127750000Y-89500000D03*
D17*
X152770000Y-95230000D03*
X156510000Y-44771225D03*
X140750000Y-57000000D03*
X152900000Y-37728369D03*
X147060000Y-44470000D03*
X152200000Y-42828369D03*
X154600000Y-45100000D03*
X131500000Y-103750000D03*
X129156247Y-97211402D03*
X155100000Y-76500000D03*
X160950000Y-54267139D03*
X156640503Y-72436099D03*
X157398495Y-63363147D03*
X140750000Y-50000000D03*
X154600000Y-42328369D03*
X156500000Y-54250000D03*
X158010000Y-51812856D03*
X142250000Y-69750000D03*
X144060000Y-44470000D03*
X142060000Y-47830000D03*
X158010000Y-54878214D03*
X155300000Y-43128369D03*
X152700000Y-100200000D03*
X143000000Y-99750000D03*
X153000000Y-40028369D03*
X157100000Y-57200000D03*
X141000000Y-71250000D03*
X141200000Y-75200000D03*
X145750000Y-72750000D03*
X141150000Y-94370000D03*
X154600000Y-46100000D03*
D18*
X137250000Y-89500000D03*
D17*
X154700000Y-57800000D03*
X151300000Y-76100000D03*
X157040000Y-95310000D03*
X158010000Y-53856428D03*
X150300000Y-75100000D03*
X141000000Y-80478020D03*
X141060000Y-47270000D03*
X157040000Y-93270000D03*
X150300000Y-40528369D03*
X158010000Y-52834642D03*
X150200000Y-72100000D03*
X148100000Y-44500000D03*
X156300000Y-64000000D03*
X143060000Y-47210000D03*
X151000000Y-49500000D03*
X141250000Y-55000000D03*
X160950000Y-41876123D03*
X157064640Y-92302624D03*
X157398495Y-65454381D03*
X135750000Y-102750000D03*
X157040000Y-94290000D03*
X155800000Y-62800000D03*
X156895000Y-71250000D03*
X153200000Y-43400000D03*
D18*
X137250000Y-90750000D03*
D17*
X160950000Y-50219385D03*
X148800000Y-73300000D03*
X146750000Y-50250000D03*
X157730000Y-37748369D03*
X141900000Y-107600000D03*
X149000000Y-49500000D03*
X141000000Y-68250000D03*
X151700000Y-102600000D03*
X154600000Y-49460000D03*
X148020000Y-49500000D03*
X151223609Y-77300468D03*
X143700000Y-56500000D03*
X154250000Y-79250000D03*
X132750000Y-103750000D03*
X152300000Y-39328369D03*
X146200000Y-97100000D03*
X135257753Y-94120555D03*
X160950000Y-48195508D03*
X154600000Y-47400000D03*
X141500000Y-79600000D03*
X156500000Y-50030000D03*
X131930000Y-96900000D03*
X152910000Y-97595000D03*
X154600000Y-48460000D03*
X153720000Y-98820000D03*
X156300000Y-87600000D03*
X151700000Y-101100000D03*
X157398495Y-64408764D03*
X152000000Y-49500000D03*
X145305310Y-81505781D03*
X150400000Y-38128369D03*
X146060000Y-44470000D03*
X153600000Y-53600000D03*
X153200000Y-49500000D03*
X151200000Y-42100000D03*
X140300000Y-107650000D03*
X129192696Y-95552010D03*
X161000000Y-46100000D03*
X156100000Y-59500000D03*
X154510000Y-37728369D03*
X159340000Y-37748369D03*
X160950000Y-52243262D03*
D18*
X137750000Y-96000000D03*
D17*
X158010000Y-55900000D03*
X135250000Y-103750000D03*
X146025000Y-92300000D03*
X154770000Y-98810000D03*
X157190000Y-97230000D03*
X148173772Y-76314833D03*
X134000000Y-103750000D03*
X160950000Y-43900000D03*
X145060000Y-44470000D03*
X150300000Y-41428369D03*
X129500000Y-102750000D03*
%TO.N,+3.3V*%
X154377605Y-64069111D03*
X149200000Y-76300000D03*
X153607500Y-65255000D03*
X156700000Y-86467500D03*
X146800000Y-99300000D03*
X148568663Y-106320748D03*
X154357500Y-63000000D03*
X153390002Y-88978107D03*
X154357500Y-66505000D03*
X144390000Y-55280000D03*
X141848000Y-76730000D03*
X130000000Y-94600000D03*
X144307081Y-81600000D03*
X153500000Y-76400000D03*
X157475000Y-81300000D03*
X150615305Y-85270000D03*
X154750000Y-59500000D03*
X151400000Y-71900000D03*
X147100000Y-92300000D03*
X158700000Y-88767500D03*
%TO.N,GPIO1*%
X146597024Y-88127670D03*
X148088612Y-90479669D03*
%TO.N,RF_RST*%
X145575000Y-89646586D03*
X140950000Y-87890000D03*
X143304168Y-82785832D03*
X149040055Y-90787500D03*
%TO.N,SCK*%
X148778661Y-91930002D03*
%TO.N,MISO*%
X149087390Y-92887767D03*
X152475000Y-84800000D03*
%TO.N,MOSI*%
X145575000Y-90800000D03*
X157490000Y-100360000D03*
%TO.N,RF_SS*%
X150775000Y-93720000D03*
X156297591Y-85220260D03*
%TO.N,SDA*%
X157090636Y-83775330D03*
%TO.N,SCL*%
X141746063Y-49911322D03*
X157806556Y-60385147D03*
X157000000Y-79337500D03*
%TO.N,SWDIO*%
X147822340Y-82874802D03*
%TO.N,SWCLK*%
X148696470Y-82389104D03*
%TO.N,nRST*%
X147820789Y-83897149D03*
X142600000Y-93900000D03*
%TO.N,A1*%
X145174927Y-83163304D03*
%TO.N,A2*%
X145319484Y-84285581D03*
%TO.N,D+*%
X133052482Y-101849196D03*
%TO.N,D-*%
X132000000Y-102050000D03*
%TO.N,SUCCESS*%
X145125000Y-88750000D03*
X144725178Y-106221176D03*
%TO.N,ERROR*%
X144312775Y-108469464D03*
X148900000Y-104300000D03*
X151640000Y-95480000D03*
X154562653Y-87037347D03*
%TO.N,SDN*%
X155052263Y-94223043D03*
X155703538Y-86383424D03*
%TO.N,D13*%
X153675001Y-82823388D03*
%TO.N,D12*%
X157363639Y-75173639D03*
%TO.N,+BATT*%
X147000000Y-58750000D03*
X147000000Y-57700000D03*
X144025000Y-74699191D03*
%TO.N,TXD*%
X151460304Y-81504999D03*
X151509790Y-54809991D03*
%TO.N,RXD*%
X150340626Y-54300000D03*
X152406925Y-81827358D03*
%TO.N,GPS_EN*%
X142200000Y-82000000D03*
X153500000Y-58250000D03*
%TO.N,USB*%
X128600000Y-98333575D03*
X131870000Y-98150000D03*
%TO.N,D38*%
X152300000Y-82824750D03*
%TD*%
%TA.AperFunction,Conductor*%
%TO.N,Earth*%
G36*
X161793039Y-36919685D02*
G01*
X161838794Y-36972489D01*
X161850000Y-37024000D01*
X161850000Y-107976000D01*
X161830315Y-108043039D01*
X161777511Y-108088794D01*
X161726000Y-108100000D01*
X145250000Y-108100000D01*
X145250000Y-113076000D01*
X145230315Y-113143039D01*
X145177511Y-113188794D01*
X145126000Y-113200000D01*
X140424000Y-113200000D01*
X140356961Y-113180315D01*
X140311206Y-113127511D01*
X140300000Y-113076000D01*
X140300000Y-110482072D01*
X141539804Y-110482072D01*
X141539804Y-110671045D01*
X141569363Y-110857677D01*
X141627758Y-111037395D01*
X141713544Y-111205758D01*
X141824614Y-111358632D01*
X141958231Y-111492249D01*
X142111105Y-111603319D01*
X142190651Y-111643849D01*
X142279467Y-111689104D01*
X142279469Y-111689104D01*
X142279472Y-111689106D01*
X142375801Y-111720405D01*
X142459185Y-111747499D01*
X142645818Y-111777059D01*
X142645823Y-111777059D01*
X142834790Y-111777059D01*
X143021422Y-111747499D01*
X143201136Y-111689106D01*
X143369503Y-111603319D01*
X143522377Y-111492249D01*
X143655994Y-111358632D01*
X143767064Y-111205758D01*
X143852851Y-111037391D01*
X143911244Y-110857677D01*
X143940804Y-110671045D01*
X143940804Y-110482072D01*
X143911244Y-110295440D01*
X143852849Y-110115722D01*
X143767063Y-109947359D01*
X143655994Y-109794486D01*
X143522377Y-109660869D01*
X143369503Y-109549799D01*
X143201140Y-109464013D01*
X143021422Y-109405618D01*
X142834790Y-109376059D01*
X142834785Y-109376059D01*
X142645823Y-109376059D01*
X142645818Y-109376059D01*
X142459185Y-109405618D01*
X142279467Y-109464013D01*
X142111104Y-109549799D01*
X142023883Y-109613169D01*
X141958231Y-109660869D01*
X141958229Y-109660871D01*
X141958228Y-109660871D01*
X141824616Y-109794483D01*
X141824616Y-109794484D01*
X141824614Y-109794486D01*
X141776914Y-109860138D01*
X141713544Y-109947359D01*
X141627758Y-110115722D01*
X141569363Y-110295440D01*
X141539804Y-110482072D01*
X140300000Y-110482072D01*
X140300000Y-108469462D01*
X143707093Y-108469462D01*
X143707093Y-108469465D01*
X143727730Y-108626224D01*
X143727731Y-108626226D01*
X143788239Y-108772305D01*
X143884493Y-108897746D01*
X144009934Y-108994000D01*
X144156013Y-109054508D01*
X144234394Y-109064827D01*
X144312774Y-109075146D01*
X144312775Y-109075146D01*
X144312776Y-109075146D01*
X144365029Y-109068266D01*
X144469537Y-109054508D01*
X144615616Y-108994000D01*
X144741057Y-108897746D01*
X144837311Y-108772305D01*
X144897819Y-108626226D01*
X144918457Y-108469464D01*
X144897819Y-108312702D01*
X144837311Y-108166623D01*
X144741057Y-108041182D01*
X144615616Y-107944928D01*
X144469537Y-107884420D01*
X144469535Y-107884419D01*
X144312776Y-107863782D01*
X144312774Y-107863782D01*
X144156014Y-107884419D01*
X144156012Y-107884420D01*
X144009935Y-107944927D01*
X143884493Y-108041182D01*
X143788238Y-108166624D01*
X143727731Y-108312701D01*
X143727730Y-108312703D01*
X143707093Y-108469462D01*
X140300000Y-108469462D01*
X140300000Y-108450000D01*
X126874000Y-108450000D01*
X126806961Y-108430315D01*
X126761206Y-108377511D01*
X126750000Y-108326000D01*
X126750000Y-105554134D01*
X127656275Y-105554134D01*
X127683194Y-105689461D01*
X127683197Y-105689471D01*
X127735997Y-105816943D01*
X127736004Y-105816956D01*
X127812661Y-105931680D01*
X127812664Y-105931684D01*
X127910230Y-106029250D01*
X127910234Y-106029253D01*
X128024958Y-106105910D01*
X128024971Y-106105917D01*
X128152443Y-106158717D01*
X128152448Y-106158719D01*
X128152452Y-106158719D01*
X128152453Y-106158720D01*
X128287780Y-106185639D01*
X128287783Y-106185639D01*
X128425771Y-106185639D01*
X128534630Y-106163985D01*
X128561104Y-106158719D01*
X128688587Y-106105914D01*
X128803318Y-106029253D01*
X128900890Y-105931681D01*
X128977551Y-105816950D01*
X129030356Y-105689467D01*
X129057276Y-105554134D01*
X136296275Y-105554134D01*
X136323194Y-105689461D01*
X136323197Y-105689471D01*
X136375997Y-105816943D01*
X136376004Y-105816956D01*
X136452661Y-105931680D01*
X136452664Y-105931684D01*
X136550230Y-106029250D01*
X136550234Y-106029253D01*
X136664958Y-106105910D01*
X136664971Y-106105917D01*
X136792443Y-106158717D01*
X136792448Y-106158719D01*
X136792452Y-106158719D01*
X136792453Y-106158720D01*
X136927780Y-106185639D01*
X136927783Y-106185639D01*
X137065771Y-106185639D01*
X137174630Y-106163985D01*
X137201104Y-106158719D01*
X137328587Y-106105914D01*
X137443318Y-106029253D01*
X137540890Y-105931681D01*
X137617551Y-105816950D01*
X137670356Y-105689467D01*
X137697276Y-105554132D01*
X137697276Y-104616146D01*
X137697276Y-104616143D01*
X137670357Y-104480816D01*
X137670356Y-104480815D01*
X137670356Y-104480811D01*
X137660394Y-104456760D01*
X137617554Y-104353334D01*
X137617547Y-104353321D01*
X137540890Y-104238597D01*
X137540887Y-104238593D01*
X137443321Y-104141027D01*
X137443317Y-104141024D01*
X137328593Y-104064367D01*
X137328580Y-104064360D01*
X137201108Y-104011560D01*
X137201098Y-104011557D01*
X137065771Y-103984639D01*
X137065769Y-103984639D01*
X136927783Y-103984639D01*
X136927781Y-103984639D01*
X136792453Y-104011557D01*
X136792443Y-104011560D01*
X136664971Y-104064360D01*
X136664958Y-104064367D01*
X136550234Y-104141024D01*
X136550230Y-104141027D01*
X136452664Y-104238593D01*
X136452661Y-104238597D01*
X136376004Y-104353321D01*
X136375997Y-104353334D01*
X136323197Y-104480806D01*
X136323194Y-104480816D01*
X136296276Y-104616143D01*
X136296276Y-104616146D01*
X136296276Y-105554132D01*
X136296276Y-105554134D01*
X136296275Y-105554134D01*
X129057276Y-105554134D01*
X129057276Y-105554132D01*
X129057276Y-104616146D01*
X129057276Y-104616143D01*
X129030357Y-104480816D01*
X129030356Y-104480815D01*
X129030356Y-104480811D01*
X129020394Y-104456760D01*
X128977554Y-104353334D01*
X128977547Y-104353321D01*
X128900890Y-104238597D01*
X128900887Y-104238593D01*
X128803321Y-104141027D01*
X128803317Y-104141024D01*
X128688593Y-104064367D01*
X128688580Y-104064360D01*
X128561108Y-104011560D01*
X128561098Y-104011557D01*
X128425771Y-103984639D01*
X128425769Y-103984639D01*
X128287783Y-103984639D01*
X128287781Y-103984639D01*
X128152453Y-104011557D01*
X128152443Y-104011560D01*
X128024971Y-104064360D01*
X128024958Y-104064367D01*
X127910234Y-104141024D01*
X127910230Y-104141027D01*
X127812664Y-104238593D01*
X127812661Y-104238597D01*
X127736004Y-104353321D01*
X127735997Y-104353334D01*
X127683197Y-104480806D01*
X127683194Y-104480816D01*
X127656276Y-104616143D01*
X127656276Y-104616146D01*
X127656276Y-105554132D01*
X127656276Y-105554134D01*
X127656275Y-105554134D01*
X126750000Y-105554134D01*
X126750000Y-101524134D01*
X127656275Y-101524134D01*
X127683194Y-101659461D01*
X127683197Y-101659471D01*
X127735997Y-101786943D01*
X127736004Y-101786956D01*
X127812661Y-101901680D01*
X127812664Y-101901684D01*
X127910230Y-101999250D01*
X127910234Y-101999253D01*
X128024958Y-102075910D01*
X128024971Y-102075917D01*
X128152443Y-102128717D01*
X128152448Y-102128719D01*
X128152452Y-102128719D01*
X128152453Y-102128720D01*
X128287780Y-102155639D01*
X128287783Y-102155639D01*
X128425771Y-102155639D01*
X128516817Y-102137528D01*
X128561104Y-102128719D01*
X128688587Y-102075914D01*
X128727373Y-102049998D01*
X131394318Y-102049998D01*
X131394318Y-102050001D01*
X131414955Y-102206760D01*
X131414956Y-102206762D01*
X131444247Y-102277478D01*
X131475464Y-102352841D01*
X131571718Y-102478282D01*
X131697159Y-102574536D01*
X131843238Y-102635044D01*
X131921619Y-102645363D01*
X131999999Y-102655682D01*
X132000000Y-102655682D01*
X132000001Y-102655682D01*
X132052254Y-102648802D01*
X132156762Y-102635044D01*
X132302841Y-102574536D01*
X132428282Y-102478282D01*
X132522383Y-102355646D01*
X132578808Y-102314445D01*
X132648554Y-102310290D01*
X132696244Y-102332759D01*
X132749639Y-102373731D01*
X132749640Y-102373731D01*
X132749641Y-102373732D01*
X132895720Y-102434240D01*
X132974101Y-102444559D01*
X133052481Y-102454878D01*
X133052482Y-102454878D01*
X133052483Y-102454878D01*
X133104736Y-102447998D01*
X133209244Y-102434240D01*
X133355323Y-102373732D01*
X133480764Y-102277478D01*
X133577018Y-102152037D01*
X133637526Y-102005958D01*
X133658164Y-101849196D01*
X133651903Y-101801642D01*
X133637526Y-101692435D01*
X133637526Y-101692434D01*
X133577018Y-101546355D01*
X133480764Y-101420914D01*
X133387201Y-101349121D01*
X135141276Y-101349121D01*
X135141276Y-101461157D01*
X135170273Y-101569376D01*
X135226291Y-101666402D01*
X135305513Y-101745624D01*
X135402539Y-101801642D01*
X135510758Y-101830639D01*
X135510760Y-101830639D01*
X135622792Y-101830639D01*
X135622794Y-101830639D01*
X135731013Y-101801642D01*
X135828039Y-101745624D01*
X135907261Y-101666402D01*
X135963279Y-101569376D01*
X135975401Y-101524134D01*
X136296275Y-101524134D01*
X136323194Y-101659461D01*
X136323197Y-101659471D01*
X136375997Y-101786943D01*
X136376004Y-101786956D01*
X136452661Y-101901680D01*
X136452664Y-101901684D01*
X136550230Y-101999250D01*
X136550234Y-101999253D01*
X136664958Y-102075910D01*
X136664971Y-102075917D01*
X136792443Y-102128717D01*
X136792448Y-102128719D01*
X136792452Y-102128719D01*
X136792453Y-102128720D01*
X136927780Y-102155639D01*
X136927783Y-102155639D01*
X137065771Y-102155639D01*
X137156817Y-102137528D01*
X137201104Y-102128719D01*
X137328587Y-102075914D01*
X137443318Y-101999253D01*
X137540890Y-101901681D01*
X137617551Y-101786950D01*
X137670356Y-101659467D01*
X137688276Y-101569378D01*
X137697276Y-101524134D01*
X137697276Y-100286143D01*
X137670357Y-100150816D01*
X137670356Y-100150815D01*
X137670356Y-100150811D01*
X137631565Y-100057160D01*
X137617554Y-100023334D01*
X137617547Y-100023321D01*
X137540890Y-99908597D01*
X137540887Y-99908593D01*
X137443321Y-99811027D01*
X137443317Y-99811024D01*
X137328593Y-99734367D01*
X137328580Y-99734360D01*
X137201108Y-99681560D01*
X137201098Y-99681557D01*
X137065771Y-99654639D01*
X137065769Y-99654639D01*
X136927783Y-99654639D01*
X136927781Y-99654639D01*
X136792453Y-99681557D01*
X136792443Y-99681560D01*
X136664971Y-99734360D01*
X136664958Y-99734367D01*
X136550234Y-99811024D01*
X136550230Y-99811027D01*
X136452664Y-99908593D01*
X136452661Y-99908597D01*
X136376004Y-100023321D01*
X136375997Y-100023334D01*
X136323197Y-100150806D01*
X136323194Y-100150816D01*
X136296276Y-100286143D01*
X136296276Y-100286146D01*
X136296276Y-101524132D01*
X136296276Y-101524134D01*
X136296275Y-101524134D01*
X135975401Y-101524134D01*
X135992276Y-101461157D01*
X135992276Y-101349121D01*
X135963279Y-101240902D01*
X135907261Y-101143876D01*
X135828039Y-101064654D01*
X135731013Y-101008636D01*
X135622794Y-100979639D01*
X135510758Y-100979639D01*
X135402539Y-101008636D01*
X135402536Y-101008637D01*
X135305516Y-101064652D01*
X135305510Y-101064656D01*
X135226293Y-101143873D01*
X135226289Y-101143879D01*
X135170274Y-101240899D01*
X135170273Y-101240902D01*
X135141276Y-101349121D01*
X133387201Y-101349121D01*
X133355323Y-101324660D01*
X133250022Y-101281043D01*
X133209244Y-101264152D01*
X133209242Y-101264151D01*
X133052483Y-101243514D01*
X133052481Y-101243514D01*
X132895721Y-101264151D01*
X132895719Y-101264152D01*
X132749642Y-101324659D01*
X132717760Y-101349123D01*
X132624200Y-101420914D01*
X132590406Y-101464956D01*
X132530100Y-101543548D01*
X132473672Y-101584750D01*
X132403926Y-101588905D01*
X132356240Y-101566438D01*
X132302841Y-101525464D01*
X132299630Y-101524134D01*
X132156762Y-101464956D01*
X132156760Y-101464955D01*
X132000001Y-101444318D01*
X131999999Y-101444318D01*
X131843239Y-101464955D01*
X131843237Y-101464956D01*
X131697160Y-101525463D01*
X131571718Y-101621718D01*
X131475463Y-101747160D01*
X131414956Y-101893237D01*
X131414955Y-101893239D01*
X131394318Y-102049998D01*
X128727373Y-102049998D01*
X128803318Y-101999253D01*
X128900890Y-101901681D01*
X128977551Y-101786950D01*
X129030356Y-101659467D01*
X129048276Y-101569378D01*
X129057276Y-101524134D01*
X129057276Y-101349121D01*
X129361276Y-101349121D01*
X129361276Y-101461157D01*
X129390273Y-101569376D01*
X129446291Y-101666402D01*
X129525513Y-101745624D01*
X129622539Y-101801642D01*
X129730758Y-101830639D01*
X129730760Y-101830639D01*
X129842792Y-101830639D01*
X129842794Y-101830639D01*
X129951013Y-101801642D01*
X130048039Y-101745624D01*
X130127261Y-101666402D01*
X130183279Y-101569376D01*
X130212276Y-101461157D01*
X130212276Y-101349121D01*
X130183279Y-101240902D01*
X130127261Y-101143876D01*
X130048039Y-101064654D01*
X129951013Y-101008636D01*
X129842794Y-100979639D01*
X129730758Y-100979639D01*
X129622539Y-101008636D01*
X129622536Y-101008637D01*
X129525516Y-101064652D01*
X129525510Y-101064656D01*
X129446293Y-101143873D01*
X129446289Y-101143879D01*
X129390274Y-101240899D01*
X129390273Y-101240902D01*
X129361276Y-101349121D01*
X129057276Y-101349121D01*
X129057276Y-100286143D01*
X129030357Y-100150816D01*
X129030356Y-100150815D01*
X129030356Y-100150811D01*
X128991565Y-100057160D01*
X128977554Y-100023334D01*
X128977547Y-100023321D01*
X128900890Y-99908597D01*
X128900887Y-99908593D01*
X128803321Y-99811027D01*
X128803317Y-99811024D01*
X128688593Y-99734367D01*
X128688580Y-99734360D01*
X128561108Y-99681560D01*
X128561098Y-99681557D01*
X128425771Y-99654639D01*
X128425769Y-99654639D01*
X128287783Y-99654639D01*
X128287781Y-99654639D01*
X128152453Y-99681557D01*
X128152443Y-99681560D01*
X128024971Y-99734360D01*
X128024958Y-99734367D01*
X127910234Y-99811024D01*
X127910230Y-99811027D01*
X127812664Y-99908593D01*
X127812661Y-99908597D01*
X127736004Y-100023321D01*
X127735997Y-100023334D01*
X127683197Y-100150806D01*
X127683194Y-100150816D01*
X127656276Y-100286143D01*
X127656276Y-100286146D01*
X127656276Y-101524132D01*
X127656276Y-101524134D01*
X127656275Y-101524134D01*
X126750000Y-101524134D01*
X126750000Y-98333573D01*
X127994318Y-98333573D01*
X127994318Y-98333576D01*
X128014955Y-98490335D01*
X128014956Y-98490337D01*
X128043209Y-98558547D01*
X128075464Y-98636416D01*
X128171718Y-98761857D01*
X128297159Y-98858111D01*
X128443238Y-98918619D01*
X128521619Y-98928938D01*
X128599999Y-98939257D01*
X128600000Y-98939257D01*
X128600001Y-98939257D01*
X128652254Y-98932377D01*
X128756762Y-98918619D01*
X128902841Y-98858111D01*
X129028282Y-98761857D01*
X129124536Y-98636416D01*
X129185044Y-98490337D01*
X129205682Y-98333575D01*
X129185044Y-98176813D01*
X129173937Y-98149998D01*
X131264318Y-98149998D01*
X131264318Y-98150001D01*
X131284955Y-98306760D01*
X131284956Y-98306762D01*
X131345464Y-98452841D01*
X131441718Y-98578282D01*
X131567159Y-98674536D01*
X131713238Y-98735044D01*
X131758828Y-98741046D01*
X131869999Y-98755682D01*
X131870000Y-98755682D01*
X131870001Y-98755682D01*
X131922254Y-98748802D01*
X132026762Y-98735044D01*
X132172841Y-98674536D01*
X132298282Y-98578282D01*
X132394536Y-98452841D01*
X132455044Y-98306762D01*
X132475682Y-98150000D01*
X132470376Y-98109700D01*
X132455044Y-97993239D01*
X132455044Y-97993238D01*
X132394536Y-97847159D01*
X132298282Y-97721718D01*
X132172841Y-97625464D01*
X132063641Y-97580232D01*
X132026762Y-97564956D01*
X132026760Y-97564955D01*
X131870001Y-97544318D01*
X131869999Y-97544318D01*
X131713239Y-97564955D01*
X131713237Y-97564956D01*
X131567160Y-97625463D01*
X131441718Y-97721718D01*
X131345463Y-97847160D01*
X131284956Y-97993237D01*
X131284955Y-97993239D01*
X131264318Y-98149998D01*
X129173937Y-98149998D01*
X129124536Y-98030734D01*
X129028282Y-97905293D01*
X128902841Y-97809039D01*
X128756762Y-97748531D01*
X128756760Y-97748530D01*
X128600001Y-97727893D01*
X128599999Y-97727893D01*
X128443239Y-97748530D01*
X128443237Y-97748531D01*
X128297160Y-97809038D01*
X128171718Y-97905293D01*
X128075463Y-98030735D01*
X128014956Y-98176812D01*
X128014955Y-98176814D01*
X127994318Y-98333573D01*
X126750000Y-98333573D01*
X126750000Y-94599998D01*
X129394318Y-94599998D01*
X129394318Y-94600001D01*
X129414955Y-94756760D01*
X129414956Y-94756762D01*
X129472197Y-94894955D01*
X129475464Y-94902841D01*
X129571718Y-95028282D01*
X129697159Y-95124536D01*
X129843238Y-95185044D01*
X129921619Y-95195363D01*
X129999999Y-95205682D01*
X130000000Y-95205682D01*
X130000001Y-95205682D01*
X130052254Y-95198802D01*
X130156762Y-95185044D01*
X130302841Y-95124536D01*
X130428282Y-95028282D01*
X130524536Y-94902841D01*
X130585044Y-94756762D01*
X130605682Y-94600000D01*
X130595924Y-94525884D01*
X130585044Y-94443239D01*
X130585044Y-94443238D01*
X130524536Y-94297159D01*
X130428282Y-94171718D01*
X130302841Y-94075464D01*
X130280671Y-94066281D01*
X130156762Y-94014956D01*
X130156760Y-94014955D01*
X130000001Y-93994318D01*
X129999999Y-93994318D01*
X129843239Y-94014955D01*
X129843237Y-94014956D01*
X129697160Y-94075463D01*
X129571718Y-94171718D01*
X129475463Y-94297160D01*
X129414956Y-94443237D01*
X129414955Y-94443239D01*
X129394318Y-94599998D01*
X126750000Y-94599998D01*
X126750000Y-87746215D01*
X130105717Y-87746215D01*
X130125999Y-87952147D01*
X130140515Y-88000000D01*
X130186068Y-88150169D01*
X130283615Y-88332665D01*
X130283617Y-88332667D01*
X130414889Y-88492625D01*
X130511509Y-88571917D01*
X130574850Y-88623900D01*
X130757346Y-88721447D01*
X130955366Y-88781515D01*
X130955365Y-88781515D01*
X130973829Y-88783333D01*
X131161300Y-88801798D01*
X131367234Y-88781515D01*
X131565254Y-88721447D01*
X131747750Y-88623900D01*
X131907710Y-88492625D01*
X132038985Y-88332665D01*
X132136532Y-88150169D01*
X132196600Y-87952149D01*
X132216883Y-87746215D01*
X132645717Y-87746215D01*
X132665999Y-87952147D01*
X132680515Y-88000000D01*
X132726068Y-88150169D01*
X132823615Y-88332665D01*
X132823617Y-88332667D01*
X132954889Y-88492625D01*
X133051509Y-88571917D01*
X133114850Y-88623900D01*
X133297346Y-88721447D01*
X133495366Y-88781515D01*
X133495365Y-88781515D01*
X133513829Y-88783333D01*
X133701300Y-88801798D01*
X133907234Y-88781515D01*
X134105254Y-88721447D01*
X134287750Y-88623900D01*
X134447710Y-88492625D01*
X134578985Y-88332665D01*
X134676532Y-88150169D01*
X134736600Y-87952149D01*
X134756883Y-87746215D01*
X134736600Y-87540281D01*
X134676532Y-87342261D01*
X134578985Y-87159765D01*
X134478520Y-87037347D01*
X134447710Y-86999804D01*
X134297421Y-86876467D01*
X134297415Y-86876462D01*
X135190800Y-86876462D01*
X135190800Y-88615967D01*
X135202431Y-88674444D01*
X135202432Y-88674445D01*
X135246747Y-88740767D01*
X135313069Y-88785082D01*
X135313070Y-88785083D01*
X135371547Y-88796714D01*
X135371550Y-88796715D01*
X135371552Y-88796715D01*
X137111050Y-88796715D01*
X137111051Y-88796714D01*
X137125868Y-88793767D01*
X137169529Y-88785083D01*
X137169529Y-88785082D01*
X137169531Y-88785082D01*
X137235852Y-88740767D01*
X137280167Y-88674446D01*
X137280167Y-88674444D01*
X137280168Y-88674444D01*
X137291799Y-88615967D01*
X137291800Y-88615965D01*
X137291800Y-88000000D01*
X138250000Y-88000000D01*
X138250000Y-106200000D01*
X140250000Y-106950000D01*
X140250000Y-106949999D01*
X140250000Y-106221174D01*
X144119496Y-106221174D01*
X144119496Y-106221177D01*
X144140133Y-106377936D01*
X144140134Y-106377938D01*
X144200642Y-106524017D01*
X144296896Y-106649458D01*
X144422337Y-106745712D01*
X144568416Y-106806220D01*
X144646797Y-106816539D01*
X144725177Y-106826858D01*
X144725178Y-106826858D01*
X144725179Y-106826858D01*
X144777432Y-106819978D01*
X144881940Y-106806220D01*
X145028019Y-106745712D01*
X145153460Y-106649458D01*
X145249714Y-106524017D01*
X145310222Y-106377938D01*
X145317751Y-106320746D01*
X147962981Y-106320746D01*
X147962981Y-106320749D01*
X147983618Y-106477508D01*
X147983619Y-106477510D01*
X148044127Y-106623589D01*
X148140381Y-106749030D01*
X148265822Y-106845284D01*
X148411901Y-106905792D01*
X148490282Y-106916111D01*
X148568662Y-106926430D01*
X148568663Y-106926430D01*
X148568664Y-106926430D01*
X148620917Y-106919550D01*
X148725425Y-106905792D01*
X148871504Y-106845284D01*
X148996945Y-106749030D01*
X149093199Y-106623589D01*
X149153707Y-106477510D01*
X149174345Y-106320748D01*
X149153707Y-106163986D01*
X149093199Y-106017907D01*
X148996945Y-105892466D01*
X148871504Y-105796212D01*
X148725425Y-105735704D01*
X148725423Y-105735703D01*
X148568664Y-105715066D01*
X148568662Y-105715066D01*
X148411902Y-105735703D01*
X148411900Y-105735704D01*
X148265823Y-105796211D01*
X148140381Y-105892466D01*
X148044126Y-106017908D01*
X147983619Y-106163985D01*
X147983618Y-106163987D01*
X147962981Y-106320746D01*
X145317751Y-106320746D01*
X145330860Y-106221176D01*
X145326181Y-106185639D01*
X145310222Y-106064415D01*
X145310222Y-106064414D01*
X145249714Y-105918335D01*
X145153460Y-105792894D01*
X145028019Y-105696640D01*
X145010687Y-105689461D01*
X144953538Y-105665789D01*
X152705380Y-105665789D01*
X152705380Y-105665790D01*
X152725907Y-105887325D01*
X152725908Y-105887327D01*
X152786792Y-106101313D01*
X152786798Y-106101328D01*
X152885961Y-106300473D01*
X152885966Y-106300481D01*
X153020043Y-106478028D01*
X153184460Y-106627913D01*
X153184462Y-106627915D01*
X153373618Y-106745035D01*
X153373619Y-106745035D01*
X153373622Y-106745037D01*
X153581083Y-106825408D01*
X153799780Y-106866290D01*
X153799782Y-106866290D01*
X154022264Y-106866290D01*
X154022266Y-106866290D01*
X154240963Y-106825408D01*
X154448424Y-106745037D01*
X154637585Y-106627914D01*
X154802004Y-106478026D01*
X154936081Y-106300479D01*
X155035252Y-106101318D01*
X155096138Y-105887326D01*
X155116666Y-105665790D01*
X155112005Y-105615494D01*
X155096138Y-105444254D01*
X155096137Y-105444252D01*
X155035253Y-105230266D01*
X155035252Y-105230262D01*
X155035247Y-105230251D01*
X154936084Y-105031106D01*
X154936079Y-105031098D01*
X154802002Y-104853551D01*
X154637585Y-104703666D01*
X154637583Y-104703664D01*
X154448427Y-104586544D01*
X154448421Y-104586542D01*
X154240963Y-104506172D01*
X154022266Y-104465290D01*
X153799780Y-104465290D01*
X153581083Y-104506172D01*
X153449887Y-104556997D01*
X153373624Y-104586542D01*
X153373618Y-104586544D01*
X153184462Y-104703664D01*
X153184460Y-104703666D01*
X153020043Y-104853551D01*
X152885966Y-105031098D01*
X152885961Y-105031106D01*
X152786798Y-105230251D01*
X152786792Y-105230266D01*
X152725908Y-105444252D01*
X152725907Y-105444254D01*
X152705380Y-105665789D01*
X144953538Y-105665789D01*
X144881940Y-105636132D01*
X144881938Y-105636131D01*
X144725179Y-105615494D01*
X144725177Y-105615494D01*
X144568417Y-105636131D01*
X144568415Y-105636132D01*
X144422338Y-105696639D01*
X144296896Y-105792894D01*
X144200641Y-105918336D01*
X144140134Y-106064413D01*
X144140133Y-106064415D01*
X144119496Y-106221174D01*
X140250000Y-106221174D01*
X140250000Y-104299998D01*
X148294318Y-104299998D01*
X148294318Y-104300001D01*
X148314955Y-104456760D01*
X148314956Y-104456762D01*
X148368713Y-104586544D01*
X148375464Y-104602841D01*
X148471718Y-104728282D01*
X148597159Y-104824536D01*
X148743238Y-104885044D01*
X148821619Y-104895363D01*
X148899999Y-104905682D01*
X148900000Y-104905682D01*
X148900001Y-104905682D01*
X148952254Y-104898802D01*
X149056762Y-104885044D01*
X149202841Y-104824536D01*
X149328282Y-104728282D01*
X149424536Y-104602841D01*
X149485044Y-104456762D01*
X149505682Y-104300000D01*
X149485044Y-104143238D01*
X149424536Y-103997159D01*
X149328282Y-103871718D01*
X149202841Y-103775464D01*
X149056762Y-103714956D01*
X149056760Y-103714955D01*
X148900001Y-103694318D01*
X148899999Y-103694318D01*
X148743239Y-103714955D01*
X148743237Y-103714956D01*
X148597160Y-103775463D01*
X148471718Y-103871718D01*
X148375463Y-103997160D01*
X148314956Y-104143237D01*
X148314955Y-104143239D01*
X148294318Y-104299998D01*
X140250000Y-104299998D01*
X140250000Y-101685000D01*
X159324417Y-101685000D01*
X159344699Y-101890932D01*
X159347960Y-101901681D01*
X159404768Y-102088954D01*
X159502315Y-102271450D01*
X159507262Y-102277478D01*
X159633589Y-102431410D01*
X159690704Y-102478282D01*
X159793550Y-102562685D01*
X159976046Y-102660232D01*
X160174066Y-102720300D01*
X160174065Y-102720300D01*
X160192529Y-102722118D01*
X160380000Y-102740583D01*
X160585934Y-102720300D01*
X160783954Y-102660232D01*
X160966450Y-102562685D01*
X161126410Y-102431410D01*
X161257685Y-102271450D01*
X161355232Y-102088954D01*
X161415300Y-101890934D01*
X161435583Y-101685000D01*
X161415300Y-101479066D01*
X161355232Y-101281046D01*
X161257685Y-101098550D01*
X161131707Y-100945044D01*
X161126410Y-100938589D01*
X160966452Y-100807317D01*
X160966453Y-100807317D01*
X160966450Y-100807315D01*
X160783954Y-100709768D01*
X160585934Y-100649700D01*
X160585932Y-100649699D01*
X160585934Y-100649699D01*
X160380000Y-100629417D01*
X160174067Y-100649699D01*
X159976043Y-100709769D01*
X159865898Y-100768643D01*
X159793550Y-100807315D01*
X159793548Y-100807316D01*
X159793547Y-100807317D01*
X159633589Y-100938589D01*
X159502317Y-101098547D01*
X159404769Y-101281043D01*
X159344699Y-101479067D01*
X159324417Y-101685000D01*
X140250000Y-101685000D01*
X140250000Y-100359998D01*
X156884318Y-100359998D01*
X156884318Y-100360001D01*
X156904955Y-100516760D01*
X156904956Y-100516762D01*
X156965464Y-100662841D01*
X157061718Y-100788282D01*
X157187159Y-100884536D01*
X157333238Y-100945044D01*
X157411619Y-100955363D01*
X157489999Y-100965682D01*
X157490000Y-100965682D01*
X157490001Y-100965682D01*
X157542254Y-100958802D01*
X157646762Y-100945044D01*
X157792841Y-100884536D01*
X157918282Y-100788282D01*
X158014536Y-100662841D01*
X158075044Y-100516762D01*
X158095682Y-100360000D01*
X158075044Y-100203238D01*
X158014536Y-100057159D01*
X157918282Y-99931718D01*
X157792841Y-99835464D01*
X157646762Y-99774956D01*
X157646760Y-99774955D01*
X157490001Y-99754318D01*
X157489999Y-99754318D01*
X157333239Y-99774955D01*
X157333237Y-99774956D01*
X157187160Y-99835463D01*
X157061718Y-99931718D01*
X156965463Y-100057160D01*
X156904956Y-100203237D01*
X156904955Y-100203239D01*
X156884318Y-100359998D01*
X140250000Y-100359998D01*
X140250000Y-99299998D01*
X146194318Y-99299998D01*
X146194318Y-99300001D01*
X146214955Y-99456760D01*
X146214956Y-99456762D01*
X146275464Y-99602841D01*
X146371718Y-99728282D01*
X146497159Y-99824536D01*
X146643238Y-99885044D01*
X146691593Y-99891410D01*
X146799999Y-99905682D01*
X146800000Y-99905682D01*
X146800001Y-99905682D01*
X146852254Y-99898802D01*
X146956762Y-99885044D01*
X147102841Y-99824536D01*
X147228282Y-99728282D01*
X147324536Y-99602841D01*
X147385044Y-99456762D01*
X147405682Y-99300000D01*
X147385276Y-99145000D01*
X159324417Y-99145000D01*
X159344699Y-99350932D01*
X159344700Y-99350934D01*
X159404768Y-99548954D01*
X159502315Y-99731450D01*
X159504709Y-99734367D01*
X159633589Y-99891410D01*
X159730209Y-99970702D01*
X159793550Y-100022685D01*
X159976046Y-100120232D01*
X160174066Y-100180300D01*
X160174065Y-100180300D01*
X160192529Y-100182118D01*
X160380000Y-100200583D01*
X160585934Y-100180300D01*
X160783954Y-100120232D01*
X160966450Y-100022685D01*
X161126410Y-99891410D01*
X161257685Y-99731450D01*
X161355232Y-99548954D01*
X161415300Y-99350934D01*
X161435583Y-99145000D01*
X161415300Y-98939066D01*
X161355232Y-98741046D01*
X161257685Y-98558550D01*
X161201703Y-98490335D01*
X161126410Y-98398589D01*
X160966452Y-98267317D01*
X160966453Y-98267317D01*
X160966450Y-98267315D01*
X160783954Y-98169768D01*
X160585934Y-98109700D01*
X160585932Y-98109699D01*
X160585934Y-98109699D01*
X160380000Y-98089417D01*
X160174067Y-98109699D01*
X159976043Y-98169769D01*
X159865898Y-98228643D01*
X159793550Y-98267315D01*
X159793548Y-98267316D01*
X159793547Y-98267317D01*
X159633589Y-98398589D01*
X159502317Y-98558547D01*
X159502315Y-98558550D01*
X159491768Y-98578282D01*
X159404769Y-98741043D01*
X159344699Y-98939067D01*
X159324417Y-99145000D01*
X147385276Y-99145000D01*
X147385044Y-99143238D01*
X147324536Y-98997159D01*
X147228282Y-98871718D01*
X147102841Y-98775464D01*
X147069988Y-98761856D01*
X146956762Y-98714956D01*
X146956760Y-98714955D01*
X146800001Y-98694318D01*
X146799999Y-98694318D01*
X146643239Y-98714955D01*
X146643237Y-98714956D01*
X146497160Y-98775463D01*
X146371718Y-98871718D01*
X146275463Y-98997160D01*
X146214956Y-99143237D01*
X146214955Y-99143239D01*
X146194318Y-99299998D01*
X140250000Y-99299998D01*
X140250000Y-96605000D01*
X159324417Y-96605000D01*
X159344699Y-96810932D01*
X159344700Y-96810934D01*
X159404768Y-97008954D01*
X159502315Y-97191450D01*
X159502317Y-97191452D01*
X159633589Y-97351410D01*
X159730209Y-97430702D01*
X159793550Y-97482685D01*
X159976046Y-97580232D01*
X160174066Y-97640300D01*
X160174065Y-97640300D01*
X160192529Y-97642118D01*
X160380000Y-97660583D01*
X160585934Y-97640300D01*
X160783954Y-97580232D01*
X160966450Y-97482685D01*
X161126410Y-97351410D01*
X161257685Y-97191450D01*
X161355232Y-97008954D01*
X161415300Y-96810934D01*
X161435583Y-96605000D01*
X161415300Y-96399066D01*
X161355232Y-96201046D01*
X161257685Y-96018550D01*
X161167191Y-95908282D01*
X161126410Y-95858589D01*
X160966452Y-95727317D01*
X160966453Y-95727317D01*
X160966450Y-95727315D01*
X160783954Y-95629768D01*
X160585934Y-95569700D01*
X160585932Y-95569699D01*
X160585934Y-95569699D01*
X160380000Y-95549417D01*
X160174067Y-95569699D01*
X159976043Y-95629769D01*
X159865898Y-95688643D01*
X159793550Y-95727315D01*
X159793548Y-95727316D01*
X159793547Y-95727317D01*
X159633589Y-95858589D01*
X159502317Y-96018547D01*
X159404769Y-96201043D01*
X159344699Y-96399067D01*
X159324417Y-96605000D01*
X140250000Y-96605000D01*
X140250000Y-96600000D01*
X145500000Y-96600000D01*
X150400000Y-96600000D01*
X150400000Y-95479998D01*
X151034318Y-95479998D01*
X151034318Y-95480001D01*
X151054955Y-95636760D01*
X151054956Y-95636762D01*
X151115464Y-95782841D01*
X151211718Y-95908282D01*
X151337159Y-96004536D01*
X151483238Y-96065044D01*
X151561619Y-96075363D01*
X151639999Y-96085682D01*
X151640000Y-96085682D01*
X151640001Y-96085682D01*
X151692254Y-96078802D01*
X151796762Y-96065044D01*
X151942841Y-96004536D01*
X152068282Y-95908282D01*
X152164536Y-95782841D01*
X152225044Y-95636762D01*
X152245682Y-95480000D01*
X152225044Y-95323238D01*
X152164536Y-95177159D01*
X152068282Y-95051718D01*
X151942841Y-94955464D01*
X151892828Y-94934748D01*
X151796762Y-94894956D01*
X151796760Y-94894955D01*
X151640001Y-94874318D01*
X151639999Y-94874318D01*
X151483239Y-94894955D01*
X151483237Y-94894956D01*
X151337160Y-94955463D01*
X151211718Y-95051718D01*
X151115463Y-95177160D01*
X151054956Y-95323237D01*
X151054955Y-95323239D01*
X151034318Y-95479998D01*
X150400000Y-95479998D01*
X150400000Y-95400000D01*
X148224000Y-95400000D01*
X148156961Y-95380315D01*
X148111206Y-95327511D01*
X148100000Y-95276000D01*
X148100000Y-93719998D01*
X150169318Y-93719998D01*
X150169318Y-93720001D01*
X150189955Y-93876760D01*
X150189956Y-93876762D01*
X150247197Y-94014955D01*
X150250464Y-94022841D01*
X150346718Y-94148282D01*
X150472159Y-94244536D01*
X150618238Y-94305044D01*
X150696619Y-94315363D01*
X150774999Y-94325682D01*
X150775000Y-94325682D01*
X150775001Y-94325682D01*
X150827254Y-94318802D01*
X150931762Y-94305044D01*
X151077841Y-94244536D01*
X151105854Y-94223041D01*
X154446581Y-94223041D01*
X154446581Y-94223044D01*
X154467218Y-94379803D01*
X154467219Y-94379805D01*
X154527727Y-94525884D01*
X154623981Y-94651325D01*
X154749422Y-94747579D01*
X154895501Y-94808087D01*
X154973882Y-94818406D01*
X155052262Y-94828725D01*
X155052263Y-94828725D01*
X155052264Y-94828725D01*
X155104517Y-94821845D01*
X155209025Y-94808087D01*
X155355104Y-94747579D01*
X155480545Y-94651325D01*
X155576799Y-94525884D01*
X155637307Y-94379805D01*
X155657945Y-94223043D01*
X155655285Y-94202841D01*
X155637307Y-94066282D01*
X155637307Y-94066281D01*
X155576799Y-93920202D01*
X155480545Y-93794761D01*
X155355104Y-93698507D01*
X155209025Y-93637999D01*
X155209023Y-93637998D01*
X155052264Y-93617361D01*
X155052262Y-93617361D01*
X154895502Y-93637998D01*
X154895500Y-93637999D01*
X154749423Y-93698506D01*
X154623981Y-93794761D01*
X154527726Y-93920203D01*
X154467219Y-94066280D01*
X154467218Y-94066282D01*
X154446581Y-94223041D01*
X151105854Y-94223041D01*
X151203282Y-94148282D01*
X151299536Y-94022841D01*
X151360044Y-93876762D01*
X151380682Y-93720000D01*
X151377852Y-93698507D01*
X151360044Y-93563239D01*
X151360044Y-93563238D01*
X151299536Y-93417159D01*
X151203282Y-93291718D01*
X151077841Y-93195464D01*
X151077329Y-93195252D01*
X151077317Y-93195247D01*
X159329500Y-93195247D01*
X159329500Y-94934752D01*
X159341131Y-94993229D01*
X159341132Y-94993230D01*
X159385447Y-95059552D01*
X159451769Y-95103867D01*
X159451770Y-95103868D01*
X159510247Y-95115499D01*
X159510250Y-95115500D01*
X159510252Y-95115500D01*
X161249750Y-95115500D01*
X161249751Y-95115499D01*
X161264568Y-95112552D01*
X161308229Y-95103868D01*
X161308229Y-95103867D01*
X161308231Y-95103867D01*
X161374552Y-95059552D01*
X161418867Y-94993231D01*
X161418867Y-94993229D01*
X161418868Y-94993229D01*
X161430499Y-94934752D01*
X161430500Y-94934750D01*
X161430500Y-93195249D01*
X161430499Y-93195247D01*
X161418868Y-93136770D01*
X161418867Y-93136769D01*
X161374552Y-93070447D01*
X161308230Y-93026132D01*
X161308229Y-93026131D01*
X161249752Y-93014500D01*
X161249748Y-93014500D01*
X159510252Y-93014500D01*
X159510247Y-93014500D01*
X159451770Y-93026131D01*
X159451769Y-93026132D01*
X159385447Y-93070447D01*
X159341132Y-93136769D01*
X159341131Y-93136770D01*
X159329500Y-93195247D01*
X151077317Y-93195247D01*
X150931762Y-93134956D01*
X150931760Y-93134955D01*
X150775001Y-93114318D01*
X150774999Y-93114318D01*
X150618239Y-93134955D01*
X150618237Y-93134956D01*
X150472160Y-93195463D01*
X150346718Y-93291718D01*
X150250463Y-93417160D01*
X150189956Y-93563237D01*
X150189955Y-93563239D01*
X150169318Y-93719998D01*
X148100000Y-93719998D01*
X148100000Y-93600000D01*
X145500000Y-93600000D01*
X145500000Y-96600000D01*
X140250000Y-96600000D01*
X140250000Y-93899998D01*
X141994318Y-93899998D01*
X141994318Y-93900001D01*
X142014955Y-94056760D01*
X142014956Y-94056762D01*
X142075464Y-94202841D01*
X142171718Y-94328282D01*
X142297159Y-94424536D01*
X142443238Y-94485044D01*
X142521619Y-94495363D01*
X142599999Y-94505682D01*
X142600000Y-94505682D01*
X142600001Y-94505682D01*
X142652254Y-94498802D01*
X142756762Y-94485044D01*
X142902841Y-94424536D01*
X143028282Y-94328282D01*
X143124536Y-94202841D01*
X143185044Y-94056762D01*
X143205682Y-93900000D01*
X143202622Y-93876760D01*
X143185044Y-93743239D01*
X143185044Y-93743238D01*
X143124536Y-93597159D01*
X143028282Y-93471718D01*
X142902841Y-93375464D01*
X142756762Y-93314956D01*
X142756760Y-93314955D01*
X142600001Y-93294318D01*
X142599999Y-93294318D01*
X142443239Y-93314955D01*
X142443237Y-93314956D01*
X142297160Y-93375463D01*
X142171718Y-93471718D01*
X142075463Y-93597160D01*
X142014956Y-93743237D01*
X142014955Y-93743239D01*
X141994318Y-93899998D01*
X140250000Y-93899998D01*
X140250000Y-92299998D01*
X146494318Y-92299998D01*
X146494318Y-92300001D01*
X146514955Y-92456760D01*
X146514956Y-92456762D01*
X146575464Y-92602841D01*
X146671718Y-92728282D01*
X146797159Y-92824536D01*
X146943238Y-92885044D01*
X147021619Y-92895363D01*
X147099999Y-92905682D01*
X147100000Y-92905682D01*
X147100001Y-92905682D01*
X147152254Y-92898802D01*
X147256762Y-92885044D01*
X147402841Y-92824536D01*
X147528282Y-92728282D01*
X147624536Y-92602841D01*
X147685044Y-92456762D01*
X147705682Y-92300000D01*
X147685044Y-92143238D01*
X147624536Y-91997159D01*
X147528282Y-91871718D01*
X147402841Y-91775464D01*
X147397474Y-91773241D01*
X147256762Y-91714956D01*
X147256760Y-91714955D01*
X147100001Y-91694318D01*
X147099999Y-91694318D01*
X146943239Y-91714955D01*
X146943237Y-91714956D01*
X146797160Y-91775463D01*
X146671718Y-91871718D01*
X146575463Y-91997160D01*
X146514956Y-92143237D01*
X146514955Y-92143239D01*
X146494318Y-92299998D01*
X140250000Y-92299998D01*
X140250000Y-89290000D01*
X141194417Y-89290000D01*
X141214699Y-89495932D01*
X141235090Y-89563151D01*
X141274768Y-89693954D01*
X141372315Y-89876450D01*
X141372317Y-89876452D01*
X141503589Y-90036410D01*
X141600209Y-90115702D01*
X141663550Y-90167685D01*
X141846046Y-90265232D01*
X142044066Y-90325300D01*
X142044065Y-90325300D01*
X142062529Y-90327118D01*
X142250000Y-90345583D01*
X142455934Y-90325300D01*
X142653954Y-90265232D01*
X142836450Y-90167685D01*
X142996410Y-90036410D01*
X143127685Y-89876450D01*
X143225232Y-89693954D01*
X143285300Y-89495934D01*
X143305583Y-89290000D01*
X143285300Y-89084066D01*
X143225232Y-88886046D01*
X143152512Y-88749998D01*
X144519318Y-88749998D01*
X144519318Y-88750001D01*
X144539955Y-88906760D01*
X144539956Y-88906762D01*
X144569508Y-88978108D01*
X144600464Y-89052841D01*
X144696718Y-89178282D01*
X144822159Y-89274536D01*
X144822160Y-89274536D01*
X144822161Y-89274537D01*
X144926936Y-89317936D01*
X144981340Y-89361777D01*
X145003405Y-89428071D01*
X144994048Y-89479943D01*
X144989957Y-89489820D01*
X144989955Y-89489825D01*
X144969318Y-89646584D01*
X144969318Y-89646587D01*
X144989955Y-89803346D01*
X144989956Y-89803348D01*
X145050464Y-89949427D01*
X145146718Y-90074868D01*
X145211944Y-90124918D01*
X145253146Y-90181345D01*
X145257301Y-90251091D01*
X145223088Y-90312012D01*
X145211949Y-90321664D01*
X145146721Y-90371716D01*
X145146718Y-90371718D01*
X145050463Y-90497160D01*
X144989956Y-90643237D01*
X144989955Y-90643239D01*
X144969318Y-90799998D01*
X144969318Y-90800001D01*
X144989955Y-90956760D01*
X144989956Y-90956762D01*
X145050464Y-91102841D01*
X145146718Y-91228282D01*
X145272159Y-91324536D01*
X145418238Y-91385044D01*
X145471105Y-91392004D01*
X145574999Y-91405682D01*
X145575000Y-91405682D01*
X145575001Y-91405682D01*
X145627254Y-91398802D01*
X145731762Y-91385044D01*
X145877841Y-91324536D01*
X146003282Y-91228282D01*
X146099536Y-91102841D01*
X146160044Y-90956762D01*
X146180682Y-90800000D01*
X146179036Y-90787501D01*
X146160044Y-90643239D01*
X146160044Y-90643238D01*
X146099536Y-90497159D01*
X146086114Y-90479667D01*
X147482930Y-90479667D01*
X147482930Y-90479670D01*
X147503567Y-90636429D01*
X147503568Y-90636431D01*
X147564076Y-90782510D01*
X147660330Y-90907951D01*
X147785771Y-91004205D01*
X147931850Y-91064713D01*
X148010231Y-91075032D01*
X148088611Y-91085351D01*
X148088612Y-91085351D01*
X148088613Y-91085351D01*
X148140866Y-91078471D01*
X148245374Y-91064713D01*
X148352336Y-91020407D01*
X148421803Y-91012939D01*
X148484283Y-91044214D01*
X148511430Y-91083312D01*
X148511453Y-91083299D01*
X148511608Y-91083568D01*
X148514346Y-91087511D01*
X148515516Y-91090336D01*
X148515516Y-91090337D01*
X148515518Y-91090339D01*
X148515519Y-91090341D01*
X148591055Y-91188781D01*
X148616248Y-91253949D01*
X148602210Y-91322394D01*
X148553396Y-91372383D01*
X148540132Y-91378827D01*
X148475820Y-91405466D01*
X148350379Y-91501720D01*
X148254124Y-91627162D01*
X148193617Y-91773239D01*
X148193616Y-91773241D01*
X148172979Y-91930000D01*
X148172979Y-91930003D01*
X148193616Y-92086762D01*
X148193617Y-92086763D01*
X148193617Y-92086764D01*
X148254125Y-92232843D01*
X148350379Y-92358284D01*
X148475820Y-92454538D01*
X148481643Y-92456950D01*
X148536047Y-92500788D01*
X148558114Y-92567082D01*
X148548754Y-92618964D01*
X148502347Y-92731001D01*
X148502345Y-92731006D01*
X148481708Y-92887765D01*
X148481708Y-92887768D01*
X148502345Y-93044527D01*
X148502346Y-93044529D01*
X148540553Y-93136770D01*
X148562854Y-93190608D01*
X148659108Y-93316049D01*
X148784549Y-93412303D01*
X148930628Y-93472811D01*
X149009009Y-93483130D01*
X149087389Y-93493449D01*
X149087390Y-93493449D01*
X149087391Y-93493449D01*
X149139644Y-93486569D01*
X149244152Y-93472811D01*
X149390231Y-93412303D01*
X149515672Y-93316049D01*
X149611926Y-93190608D01*
X149672434Y-93044529D01*
X149686192Y-92940021D01*
X149693072Y-92887768D01*
X149693072Y-92887765D01*
X149672434Y-92731006D01*
X149672434Y-92731005D01*
X149611926Y-92584926D01*
X149515672Y-92459485D01*
X149515670Y-92459484D01*
X149515670Y-92459483D01*
X149390231Y-92363231D01*
X149390228Y-92363229D01*
X149384404Y-92360817D01*
X149330001Y-92316976D01*
X149307936Y-92250681D01*
X149317295Y-92198806D01*
X149363705Y-92086764D01*
X149384343Y-91930002D01*
X149363705Y-91773240D01*
X149303197Y-91627161D01*
X149227659Y-91528718D01*
X149202467Y-91463553D01*
X149216505Y-91395108D01*
X149265319Y-91345118D01*
X149278563Y-91338683D01*
X149342896Y-91312036D01*
X149468337Y-91215782D01*
X149564591Y-91090341D01*
X149625099Y-90944262D01*
X149645737Y-90787500D01*
X149625099Y-90630738D01*
X149564591Y-90484659D01*
X149468337Y-90359218D01*
X149342896Y-90262964D01*
X149196817Y-90202456D01*
X149196815Y-90202455D01*
X149040056Y-90181818D01*
X149040054Y-90181818D01*
X148883294Y-90202455D01*
X148883289Y-90202457D01*
X148776331Y-90246760D01*
X148706861Y-90254229D01*
X148644382Y-90222953D01*
X148617239Y-90183859D01*
X148617216Y-90183873D01*
X148617051Y-90183588D01*
X148614318Y-90179651D01*
X148613150Y-90176832D01*
X148613149Y-90176831D01*
X148613148Y-90176828D01*
X148516894Y-90051387D01*
X148391453Y-89955133D01*
X148245374Y-89894625D01*
X148245372Y-89894624D01*
X148088613Y-89873987D01*
X148088611Y-89873987D01*
X147931851Y-89894624D01*
X147931849Y-89894625D01*
X147785772Y-89955132D01*
X147660330Y-90051387D01*
X147564075Y-90176829D01*
X147503568Y-90322906D01*
X147503567Y-90322908D01*
X147482930Y-90479667D01*
X146086114Y-90479667D01*
X146003282Y-90371718D01*
X146003280Y-90371717D01*
X146003280Y-90371716D01*
X145969221Y-90345582D01*
X145938055Y-90321667D01*
X145896853Y-90265241D01*
X145892698Y-90195495D01*
X145926910Y-90134575D01*
X145938050Y-90124921D01*
X146003282Y-90074868D01*
X146099536Y-89949427D01*
X146160044Y-89803348D01*
X146180682Y-89646586D01*
X146160044Y-89489824D01*
X146099536Y-89343745D01*
X146003282Y-89218304D01*
X145877841Y-89122050D01*
X145773060Y-89078648D01*
X145718658Y-89034808D01*
X145699785Y-88978105D01*
X152784320Y-88978105D01*
X152784320Y-88978108D01*
X152804957Y-89134867D01*
X152804958Y-89134869D01*
X152865466Y-89280948D01*
X152961720Y-89406389D01*
X153087161Y-89502643D01*
X153233240Y-89563151D01*
X153311621Y-89573470D01*
X153390001Y-89583789D01*
X153390002Y-89583789D01*
X153390003Y-89583789D01*
X153442256Y-89576909D01*
X153546764Y-89563151D01*
X153692843Y-89502643D01*
X153818284Y-89406389D01*
X153914538Y-89280948D01*
X153975046Y-89134869D01*
X153995684Y-88978107D01*
X153975046Y-88821345D01*
X153952742Y-88767498D01*
X158094318Y-88767498D01*
X158094318Y-88767501D01*
X158114955Y-88924260D01*
X158114956Y-88924262D01*
X158167380Y-89050826D01*
X158175464Y-89070341D01*
X158271718Y-89195782D01*
X158397159Y-89292036D01*
X158543238Y-89352544D01*
X158613370Y-89361777D01*
X158699999Y-89373182D01*
X158700000Y-89373182D01*
X158700001Y-89373182D01*
X158752254Y-89366302D01*
X158856762Y-89352544D01*
X159002841Y-89292036D01*
X159128282Y-89195782D01*
X159224536Y-89070341D01*
X159285044Y-88924262D01*
X159305682Y-88767500D01*
X159301186Y-88733352D01*
X159285044Y-88610739D01*
X159285044Y-88610738D01*
X159224536Y-88464659D01*
X159128282Y-88339218D01*
X159002841Y-88242964D01*
X158985427Y-88235751D01*
X158856762Y-88182456D01*
X158856760Y-88182455D01*
X158700001Y-88161818D01*
X158699999Y-88161818D01*
X158543239Y-88182455D01*
X158543237Y-88182456D01*
X158397160Y-88242963D01*
X158271718Y-88339218D01*
X158175463Y-88464660D01*
X158114956Y-88610737D01*
X158114955Y-88610739D01*
X158094318Y-88767498D01*
X153952742Y-88767498D01*
X153914538Y-88675266D01*
X153818284Y-88549825D01*
X153692843Y-88453571D01*
X153637171Y-88430511D01*
X153546764Y-88393063D01*
X153546762Y-88393062D01*
X153390003Y-88372425D01*
X153390001Y-88372425D01*
X153233241Y-88393062D01*
X153233239Y-88393063D01*
X153087162Y-88453570D01*
X152961720Y-88549825D01*
X152865465Y-88675267D01*
X152804958Y-88821344D01*
X152804957Y-88821346D01*
X152784320Y-88978105D01*
X145699785Y-88978105D01*
X145696593Y-88968514D01*
X145705955Y-88916632D01*
X145710044Y-88906762D01*
X145730682Y-88750000D01*
X145729466Y-88740767D01*
X145710044Y-88593239D01*
X145710044Y-88593238D01*
X145649536Y-88447159D01*
X145553282Y-88321718D01*
X145427841Y-88225464D01*
X145406610Y-88216670D01*
X145281762Y-88164956D01*
X145281760Y-88164955D01*
X145125001Y-88144318D01*
X145124999Y-88144318D01*
X144968239Y-88164955D01*
X144968237Y-88164956D01*
X144822160Y-88225463D01*
X144696718Y-88321718D01*
X144600463Y-88447160D01*
X144539956Y-88593237D01*
X144539955Y-88593239D01*
X144519318Y-88749998D01*
X143152512Y-88749998D01*
X143127685Y-88703550D01*
X143055805Y-88615963D01*
X142996410Y-88543589D01*
X142858622Y-88430511D01*
X142836450Y-88412315D01*
X142653954Y-88314768D01*
X142455934Y-88254700D01*
X142455932Y-88254699D01*
X142455934Y-88254699D01*
X142250000Y-88234417D01*
X142044067Y-88254699D01*
X141846043Y-88314769D01*
X141738178Y-88372425D01*
X141663550Y-88412315D01*
X141663548Y-88412316D01*
X141663547Y-88412317D01*
X141503589Y-88543589D01*
X141372317Y-88703547D01*
X141372315Y-88703550D01*
X141352422Y-88740767D01*
X141274769Y-88886043D01*
X141214699Y-89084067D01*
X141194417Y-89290000D01*
X140250000Y-89290000D01*
X140250000Y-88329464D01*
X140269685Y-88262425D01*
X140322489Y-88216670D01*
X140391647Y-88206726D01*
X140455203Y-88235751D01*
X140472375Y-88253977D01*
X140521718Y-88318282D01*
X140647159Y-88414536D01*
X140793238Y-88475044D01*
X140871619Y-88485363D01*
X140949999Y-88495682D01*
X140950000Y-88495682D01*
X140950001Y-88495682D01*
X141002254Y-88488802D01*
X141106762Y-88475044D01*
X141252841Y-88414536D01*
X141378282Y-88318282D01*
X141474536Y-88192841D01*
X141501532Y-88127668D01*
X145991342Y-88127668D01*
X145991342Y-88127671D01*
X146011979Y-88284430D01*
X146011980Y-88284432D01*
X146056976Y-88393063D01*
X146072488Y-88430511D01*
X146168742Y-88555952D01*
X146294183Y-88652206D01*
X146440262Y-88712714D01*
X146506581Y-88721445D01*
X146597023Y-88733352D01*
X146597024Y-88733352D01*
X146597025Y-88733352D01*
X146656043Y-88725582D01*
X146753786Y-88712714D01*
X146899865Y-88652206D01*
X147025306Y-88555952D01*
X147121560Y-88430511D01*
X147182068Y-88284432D01*
X147202706Y-88127670D01*
X147195634Y-88073956D01*
X147182068Y-87970909D01*
X147182068Y-87970908D01*
X147121560Y-87824829D01*
X147025306Y-87699388D01*
X146987007Y-87670000D01*
X159324417Y-87670000D01*
X159344699Y-87875932D01*
X159348967Y-87890001D01*
X159404768Y-88073954D01*
X159502315Y-88256450D01*
X159525279Y-88284432D01*
X159633589Y-88416410D01*
X159678871Y-88453571D01*
X159793550Y-88547685D01*
X159976046Y-88645232D01*
X160174066Y-88705300D01*
X160174065Y-88705300D01*
X160192529Y-88707118D01*
X160380000Y-88725583D01*
X160585934Y-88705300D01*
X160783954Y-88645232D01*
X160966450Y-88547685D01*
X161126410Y-88416410D01*
X161257685Y-88256450D01*
X161355232Y-88073954D01*
X161415300Y-87875934D01*
X161435583Y-87670000D01*
X161415300Y-87464066D01*
X161355232Y-87266046D01*
X161257685Y-87083550D01*
X161182461Y-86991889D01*
X161126410Y-86923589D01*
X160966452Y-86792317D01*
X160966453Y-86792317D01*
X160966450Y-86792315D01*
X160783954Y-86694768D01*
X160585934Y-86634700D01*
X160585932Y-86634699D01*
X160585934Y-86634699D01*
X160380000Y-86614417D01*
X160174067Y-86634699D01*
X159976043Y-86694769D01*
X159945837Y-86710915D01*
X159793550Y-86792315D01*
X159793548Y-86792316D01*
X159793547Y-86792317D01*
X159633589Y-86923589D01*
X159502317Y-87083547D01*
X159404769Y-87266043D01*
X159344699Y-87464067D01*
X159324417Y-87670000D01*
X146987007Y-87670000D01*
X146899865Y-87603134D01*
X146800276Y-87561883D01*
X146753786Y-87542626D01*
X146753784Y-87542625D01*
X146597025Y-87521988D01*
X146597023Y-87521988D01*
X146440263Y-87542625D01*
X146440261Y-87542626D01*
X146294184Y-87603133D01*
X146168742Y-87699388D01*
X146072487Y-87824830D01*
X146011980Y-87970907D01*
X146011979Y-87970909D01*
X145991342Y-88127668D01*
X141501532Y-88127668D01*
X141535044Y-88046762D01*
X141555682Y-87890000D01*
X141541878Y-87785148D01*
X141552643Y-87716114D01*
X141599023Y-87663858D01*
X141666292Y-87644973D01*
X141723268Y-87659605D01*
X141846046Y-87725232D01*
X142044066Y-87785300D01*
X142044065Y-87785300D01*
X142062529Y-87787118D01*
X142250000Y-87805583D01*
X142455934Y-87785300D01*
X142653954Y-87725232D01*
X142836450Y-87627685D01*
X142996410Y-87496410D01*
X143127685Y-87336450D01*
X143225232Y-87153954D01*
X143260605Y-87037345D01*
X153956971Y-87037345D01*
X153956971Y-87037348D01*
X153977608Y-87194107D01*
X153977609Y-87194109D01*
X154038117Y-87340188D01*
X154134371Y-87465629D01*
X154259812Y-87561883D01*
X154405891Y-87622391D01*
X154484272Y-87632710D01*
X154562652Y-87643029D01*
X154562653Y-87643029D01*
X154562654Y-87643029D01*
X154614907Y-87636149D01*
X154719415Y-87622391D01*
X154865494Y-87561883D01*
X154990935Y-87465629D01*
X155087189Y-87340188D01*
X155147697Y-87194109D01*
X155166334Y-87052544D01*
X155168335Y-87037348D01*
X155168335Y-87037347D01*
X155163418Y-86999999D01*
X155162350Y-86991887D01*
X155173115Y-86922854D01*
X155219495Y-86870598D01*
X155286764Y-86851712D01*
X155353564Y-86872192D01*
X155360775Y-86877327D01*
X155400695Y-86907959D01*
X155400696Y-86907959D01*
X155400697Y-86907960D01*
X155546776Y-86968468D01*
X155625157Y-86978787D01*
X155703537Y-86989106D01*
X155703538Y-86989106D01*
X155703539Y-86989106D01*
X155755792Y-86982226D01*
X155860300Y-86968468D01*
X156006379Y-86907960D01*
X156080893Y-86850782D01*
X156146060Y-86825590D01*
X156214505Y-86839628D01*
X156254753Y-86873673D01*
X156271718Y-86895782D01*
X156397159Y-86992036D01*
X156543238Y-87052544D01*
X156621619Y-87062863D01*
X156699999Y-87073182D01*
X156700000Y-87073182D01*
X156700001Y-87073182D01*
X156752254Y-87066302D01*
X156856762Y-87052544D01*
X157002841Y-86992036D01*
X157128282Y-86895782D01*
X157224536Y-86770341D01*
X157285044Y-86624262D01*
X157305682Y-86467500D01*
X157303681Y-86452303D01*
X157285044Y-86310739D01*
X157285044Y-86310738D01*
X157224536Y-86164659D01*
X157128282Y-86039218D01*
X157002841Y-85942964D01*
X156856762Y-85882456D01*
X156810838Y-85876410D01*
X156781641Y-85872566D01*
X156717745Y-85844299D01*
X156679274Y-85785975D01*
X156678443Y-85716110D01*
X156715515Y-85656887D01*
X156722322Y-85651266D01*
X156725873Y-85648542D01*
X156822127Y-85523101D01*
X156882635Y-85377022D01*
X156903273Y-85220260D01*
X156892473Y-85138229D01*
X156891390Y-85130000D01*
X159324417Y-85130000D01*
X159344699Y-85335932D01*
X159372251Y-85426760D01*
X159404768Y-85533954D01*
X159502315Y-85716450D01*
X159502317Y-85716452D01*
X159633589Y-85876410D01*
X159714687Y-85942964D01*
X159793550Y-86007685D01*
X159976046Y-86105232D01*
X160174066Y-86165300D01*
X160174065Y-86165300D01*
X160192529Y-86167118D01*
X160380000Y-86185583D01*
X160585934Y-86165300D01*
X160783954Y-86105232D01*
X160966450Y-86007685D01*
X161126410Y-85876410D01*
X161257685Y-85716450D01*
X161355232Y-85533954D01*
X161415300Y-85335934D01*
X161435583Y-85130000D01*
X161415300Y-84924066D01*
X161355232Y-84726046D01*
X161257685Y-84543550D01*
X161174627Y-84442343D01*
X161126410Y-84383589D01*
X160966452Y-84252317D01*
X160966453Y-84252317D01*
X160966450Y-84252315D01*
X160783954Y-84154768D01*
X160585934Y-84094700D01*
X160585932Y-84094699D01*
X160585934Y-84094699D01*
X160380000Y-84074417D01*
X160174067Y-84094699D01*
X159976043Y-84154769D01*
X159891446Y-84199988D01*
X159793550Y-84252315D01*
X159793548Y-84252316D01*
X159793547Y-84252317D01*
X159633589Y-84383589D01*
X159502317Y-84543547D01*
X159404769Y-84726043D01*
X159344699Y-84924067D01*
X159324417Y-85130000D01*
X156891390Y-85130000D01*
X156882635Y-85063499D01*
X156882635Y-85063498D01*
X156822127Y-84917419D01*
X156725873Y-84791978D01*
X156600432Y-84695724D01*
X156574433Y-84684955D01*
X156454353Y-84635216D01*
X156454351Y-84635215D01*
X156297592Y-84614578D01*
X156297590Y-84614578D01*
X156140830Y-84635215D01*
X156140828Y-84635216D01*
X155994751Y-84695723D01*
X155869309Y-84791978D01*
X155773054Y-84917420D01*
X155712547Y-85063497D01*
X155712546Y-85063499D01*
X155691909Y-85220258D01*
X155691909Y-85220261D01*
X155712546Y-85377020D01*
X155712547Y-85377022D01*
X155773055Y-85523102D01*
X155815976Y-85579037D01*
X155841170Y-85644206D01*
X155827132Y-85712651D01*
X155778318Y-85762640D01*
X155710226Y-85778304D01*
X155704343Y-85777742D01*
X155703537Y-85777742D01*
X155546777Y-85798379D01*
X155546775Y-85798380D01*
X155400698Y-85858887D01*
X155275256Y-85955142D01*
X155179001Y-86080584D01*
X155118494Y-86226661D01*
X155118493Y-86226663D01*
X155097856Y-86383422D01*
X155097856Y-86383426D01*
X155103840Y-86428883D01*
X155093074Y-86497918D01*
X155046693Y-86550173D01*
X154979424Y-86569058D01*
X154912624Y-86548577D01*
X154905415Y-86543443D01*
X154865495Y-86512811D01*
X154719415Y-86452303D01*
X154719413Y-86452302D01*
X154562654Y-86431665D01*
X154562652Y-86431665D01*
X154405892Y-86452302D01*
X154405890Y-86452303D01*
X154259813Y-86512810D01*
X154134371Y-86609065D01*
X154038116Y-86734507D01*
X153977609Y-86880584D01*
X153977608Y-86880586D01*
X153956971Y-87037345D01*
X143260605Y-87037345D01*
X143285300Y-86955934D01*
X143305583Y-86750000D01*
X143285300Y-86544066D01*
X143225232Y-86346046D01*
X143127685Y-86163550D01*
X143059596Y-86080583D01*
X142996410Y-86003589D01*
X142848807Y-85882456D01*
X142836450Y-85872315D01*
X142653954Y-85774768D01*
X142455934Y-85714700D01*
X142455932Y-85714699D01*
X142455934Y-85714699D01*
X142250000Y-85694417D01*
X142044067Y-85714699D01*
X141846043Y-85774769D01*
X141750307Y-85825942D01*
X141663550Y-85872315D01*
X141663548Y-85872316D01*
X141663547Y-85872317D01*
X141503589Y-86003589D01*
X141393071Y-86138258D01*
X141372315Y-86163550D01*
X141371722Y-86164660D01*
X141274769Y-86346043D01*
X141214699Y-86544067D01*
X141194417Y-86750000D01*
X141214699Y-86955932D01*
X141275195Y-87155361D01*
X141275818Y-87225228D01*
X141238570Y-87284341D01*
X141175275Y-87313932D01*
X141114735Y-87306601D01*
X141114613Y-87307060D01*
X141111391Y-87306196D01*
X141109082Y-87305917D01*
X141106762Y-87304956D01*
X141106759Y-87304955D01*
X141106760Y-87304955D01*
X140950001Y-87284318D01*
X140949999Y-87284318D01*
X140793239Y-87304955D01*
X140793237Y-87304956D01*
X140647160Y-87365463D01*
X140521715Y-87461720D01*
X140472375Y-87526022D01*
X140415947Y-87567225D01*
X140346201Y-87571379D01*
X140285281Y-87537166D01*
X140252529Y-87475448D01*
X140250000Y-87450535D01*
X140250000Y-86999999D01*
X140249999Y-86999999D01*
X138250001Y-87999998D01*
X138250000Y-88000000D01*
X137291800Y-88000000D01*
X137291800Y-86876464D01*
X137291799Y-86876462D01*
X137280168Y-86817985D01*
X137280167Y-86817984D01*
X137235852Y-86751662D01*
X137169530Y-86707347D01*
X137169529Y-86707346D01*
X137111052Y-86695715D01*
X137111048Y-86695715D01*
X135371552Y-86695715D01*
X135371547Y-86695715D01*
X135313070Y-86707346D01*
X135313069Y-86707347D01*
X135246747Y-86751662D01*
X135202432Y-86817984D01*
X135202431Y-86817985D01*
X135190800Y-86876462D01*
X134297415Y-86876462D01*
X134287750Y-86868530D01*
X134105254Y-86770983D01*
X133907234Y-86710915D01*
X133907232Y-86710914D01*
X133907234Y-86710914D01*
X133701300Y-86690632D01*
X133495367Y-86710914D01*
X133319992Y-86764113D01*
X133299463Y-86770341D01*
X133297343Y-86770984D01*
X133257433Y-86792317D01*
X133114850Y-86868530D01*
X133114848Y-86868531D01*
X133114847Y-86868532D01*
X132954889Y-86999804D01*
X132823617Y-87159762D01*
X132726069Y-87342258D01*
X132665999Y-87540282D01*
X132645717Y-87746215D01*
X132216883Y-87746215D01*
X132196600Y-87540281D01*
X132136532Y-87342261D01*
X132038985Y-87159765D01*
X131938520Y-87037347D01*
X131907710Y-86999804D01*
X131757421Y-86876467D01*
X131747750Y-86868530D01*
X131565254Y-86770983D01*
X131367234Y-86710915D01*
X131367232Y-86710914D01*
X131367234Y-86710914D01*
X131161300Y-86690632D01*
X130955367Y-86710914D01*
X130779992Y-86764113D01*
X130759463Y-86770341D01*
X130757343Y-86770984D01*
X130717433Y-86792317D01*
X130574850Y-86868530D01*
X130574848Y-86868531D01*
X130574847Y-86868532D01*
X130414889Y-86999804D01*
X130283617Y-87159762D01*
X130186069Y-87342258D01*
X130125999Y-87540282D01*
X130105717Y-87746215D01*
X126750000Y-87746215D01*
X126750000Y-86138258D01*
X126769685Y-86071219D01*
X126822489Y-86025464D01*
X126874000Y-86014258D01*
X140300000Y-86014258D01*
X140300000Y-85269998D01*
X150009623Y-85269998D01*
X150009623Y-85270001D01*
X150030260Y-85426760D01*
X150030261Y-85426762D01*
X150090769Y-85572841D01*
X150187023Y-85698282D01*
X150312464Y-85794536D01*
X150458543Y-85855044D01*
X150509997Y-85861818D01*
X150615304Y-85875682D01*
X150615305Y-85875682D01*
X150615306Y-85875682D01*
X150667559Y-85868802D01*
X150772067Y-85855044D01*
X150918146Y-85794536D01*
X151043587Y-85698282D01*
X151139841Y-85572841D01*
X151200349Y-85426762D01*
X151220987Y-85270000D01*
X151219736Y-85260500D01*
X151200349Y-85113239D01*
X151200349Y-85113238D01*
X151139841Y-84967159D01*
X151043587Y-84841718D01*
X150989216Y-84799998D01*
X151869318Y-84799998D01*
X151869318Y-84800001D01*
X151889955Y-84956760D01*
X151889956Y-84956762D01*
X151940898Y-85079748D01*
X151950464Y-85102841D01*
X152046718Y-85228282D01*
X152172159Y-85324536D01*
X152318238Y-85385044D01*
X152396619Y-85395363D01*
X152474999Y-85405682D01*
X152475000Y-85405682D01*
X152475001Y-85405682D01*
X152527254Y-85398802D01*
X152631762Y-85385044D01*
X152777841Y-85324536D01*
X152903282Y-85228282D01*
X152999536Y-85102841D01*
X153060044Y-84956762D01*
X153080682Y-84800000D01*
X153070945Y-84726043D01*
X153060044Y-84643239D01*
X153060044Y-84643238D01*
X152999536Y-84497159D01*
X152903282Y-84371718D01*
X152777841Y-84275464D01*
X152721959Y-84252317D01*
X152631762Y-84214956D01*
X152631760Y-84214955D01*
X152475001Y-84194318D01*
X152474999Y-84194318D01*
X152318239Y-84214955D01*
X152318237Y-84214956D01*
X152172160Y-84275463D01*
X152046718Y-84371718D01*
X151950463Y-84497160D01*
X151889956Y-84643237D01*
X151889955Y-84643239D01*
X151869318Y-84799998D01*
X150989216Y-84799998D01*
X150918146Y-84745464D01*
X150772067Y-84684956D01*
X150772065Y-84684955D01*
X150615306Y-84664318D01*
X150615304Y-84664318D01*
X150458544Y-84684955D01*
X150458542Y-84684956D01*
X150312465Y-84745463D01*
X150187023Y-84841718D01*
X150090768Y-84967160D01*
X150030261Y-85113237D01*
X150030260Y-85113239D01*
X150009623Y-85269998D01*
X140300000Y-85269998D01*
X140300000Y-83340247D01*
X141199500Y-83340247D01*
X141199500Y-85079752D01*
X141211131Y-85138229D01*
X141211132Y-85138230D01*
X141255447Y-85204552D01*
X141321769Y-85248867D01*
X141321770Y-85248868D01*
X141380247Y-85260499D01*
X141380250Y-85260500D01*
X141380252Y-85260500D01*
X143119750Y-85260500D01*
X143119751Y-85260499D01*
X143134568Y-85257552D01*
X143178229Y-85248868D01*
X143178229Y-85248867D01*
X143178231Y-85248867D01*
X143244552Y-85204552D01*
X143288867Y-85138231D01*
X143288867Y-85138229D01*
X143288868Y-85138229D01*
X143300499Y-85079752D01*
X143300500Y-85079750D01*
X143300500Y-83500741D01*
X143320185Y-83433702D01*
X143372989Y-83387947D01*
X143408311Y-83377803D01*
X143460930Y-83370876D01*
X143607009Y-83310368D01*
X143732450Y-83214114D01*
X143771439Y-83163302D01*
X144569245Y-83163302D01*
X144569245Y-83163305D01*
X144589882Y-83320064D01*
X144589883Y-83320066D01*
X144650391Y-83466145D01*
X144690358Y-83518231D01*
X144746646Y-83591587D01*
X144781807Y-83618567D01*
X144867584Y-83684386D01*
X144908787Y-83740813D01*
X144912942Y-83810559D01*
X144890474Y-83858247D01*
X144794948Y-83982738D01*
X144734440Y-84128818D01*
X144734439Y-84128820D01*
X144713802Y-84285579D01*
X144713802Y-84285582D01*
X144734439Y-84442341D01*
X144734440Y-84442343D01*
X144794948Y-84588422D01*
X144891202Y-84713863D01*
X145016643Y-84810117D01*
X145162722Y-84870625D01*
X145241103Y-84880944D01*
X145319483Y-84891263D01*
X145319484Y-84891263D01*
X145319485Y-84891263D01*
X145371738Y-84884383D01*
X145476246Y-84870625D01*
X145622325Y-84810117D01*
X145747766Y-84713863D01*
X145844020Y-84588422D01*
X145904528Y-84442343D01*
X145925166Y-84285581D01*
X145920786Y-84252315D01*
X145904528Y-84128820D01*
X145904528Y-84128819D01*
X145844020Y-83982740D01*
X145778342Y-83897147D01*
X147215107Y-83897147D01*
X147215107Y-83897150D01*
X147235744Y-84053909D01*
X147235745Y-84053911D01*
X147293903Y-84194318D01*
X147296253Y-84199990D01*
X147392507Y-84325431D01*
X147517948Y-84421685D01*
X147664027Y-84482193D01*
X147742408Y-84492512D01*
X147820788Y-84502831D01*
X147820789Y-84502831D01*
X147820790Y-84502831D01*
X147873043Y-84495951D01*
X147977551Y-84482193D01*
X148123630Y-84421685D01*
X148249071Y-84325431D01*
X148345325Y-84199990D01*
X148405833Y-84053911D01*
X148426471Y-83897149D01*
X148421349Y-83858247D01*
X148410433Y-83775328D01*
X156484954Y-83775328D01*
X156484954Y-83775331D01*
X156505591Y-83932090D01*
X156505592Y-83932092D01*
X156526571Y-83982741D01*
X156566100Y-84078171D01*
X156662354Y-84203612D01*
X156787795Y-84299866D01*
X156933874Y-84360374D01*
X157012255Y-84370693D01*
X157090635Y-84381012D01*
X157090636Y-84381012D01*
X157090637Y-84381012D01*
X157161231Y-84371718D01*
X157247398Y-84360374D01*
X157393477Y-84299866D01*
X157518918Y-84203612D01*
X157615172Y-84078171D01*
X157675680Y-83932092D01*
X157696318Y-83775330D01*
X157694437Y-83761045D01*
X157675680Y-83618569D01*
X157675680Y-83618568D01*
X157615172Y-83472489D01*
X157518918Y-83347048D01*
X157393477Y-83250794D01*
X157308144Y-83215448D01*
X157247398Y-83190286D01*
X157247396Y-83190285D01*
X157090637Y-83169648D01*
X157090635Y-83169648D01*
X156933875Y-83190285D01*
X156933873Y-83190286D01*
X156787796Y-83250793D01*
X156662354Y-83347048D01*
X156566099Y-83472490D01*
X156505592Y-83618567D01*
X156505591Y-83618569D01*
X156484954Y-83775328D01*
X148410433Y-83775328D01*
X148405833Y-83740388D01*
X148405833Y-83740387D01*
X148345325Y-83594308D01*
X148249071Y-83468867D01*
X148249068Y-83468865D01*
X148244123Y-83462420D01*
X148246909Y-83460281D01*
X148221151Y-83413109D01*
X148226135Y-83343417D01*
X148247173Y-83310681D01*
X148245674Y-83309531D01*
X148250619Y-83303085D01*
X148250622Y-83303084D01*
X148346876Y-83177643D01*
X148400395Y-83048434D01*
X148444234Y-82994033D01*
X148510528Y-82971968D01*
X148531483Y-82974354D01*
X148531650Y-82973087D01*
X148539707Y-82974147D01*
X148539708Y-82974148D01*
X148619364Y-82984634D01*
X148696469Y-82994786D01*
X148696470Y-82994786D01*
X148696471Y-82994786D01*
X148748724Y-82987906D01*
X148853232Y-82974148D01*
X148999311Y-82913640D01*
X149124752Y-82817386D01*
X149221006Y-82691945D01*
X149281514Y-82545866D01*
X149302152Y-82389104D01*
X149293611Y-82324232D01*
X149281514Y-82232343D01*
X149281514Y-82232342D01*
X149221006Y-82086263D01*
X149124752Y-81960822D01*
X148999311Y-81864568D01*
X148947818Y-81843239D01*
X148853232Y-81804060D01*
X148853230Y-81804059D01*
X148696471Y-81783422D01*
X148696469Y-81783422D01*
X148539709Y-81804059D01*
X148539707Y-81804060D01*
X148393630Y-81864567D01*
X148268188Y-81960822D01*
X148171933Y-82086264D01*
X148118415Y-82215469D01*
X148074574Y-82269872D01*
X148008280Y-82291937D01*
X147987325Y-82289565D01*
X147987160Y-82290819D01*
X147979102Y-82289758D01*
X147899445Y-82279271D01*
X147822341Y-82269120D01*
X147822339Y-82269120D01*
X147665579Y-82289757D01*
X147665577Y-82289758D01*
X147519500Y-82350265D01*
X147394058Y-82446520D01*
X147297803Y-82571962D01*
X147237296Y-82718039D01*
X147237295Y-82718041D01*
X147216658Y-82874800D01*
X147216658Y-82874803D01*
X147237295Y-83031562D01*
X147237296Y-83031564D01*
X147295106Y-83171131D01*
X147297804Y-83177643D01*
X147394058Y-83303084D01*
X147394060Y-83303085D01*
X147399006Y-83309531D01*
X147396219Y-83311669D01*
X147421978Y-83358842D01*
X147416994Y-83428534D01*
X147395955Y-83461269D01*
X147397455Y-83462420D01*
X147392509Y-83468865D01*
X147392507Y-83468867D01*
X147354630Y-83518230D01*
X147296252Y-83594309D01*
X147235745Y-83740386D01*
X147235744Y-83740388D01*
X147215107Y-83897147D01*
X145778342Y-83897147D01*
X145747766Y-83857299D01*
X145747764Y-83857298D01*
X145747764Y-83857297D01*
X145640943Y-83775331D01*
X145626825Y-83764498D01*
X145585623Y-83708071D01*
X145581468Y-83638325D01*
X145603935Y-83590639D01*
X145699463Y-83466145D01*
X145759971Y-83320066D01*
X145779578Y-83171133D01*
X145780609Y-83163305D01*
X145780609Y-83163302D01*
X145759971Y-83006543D01*
X145759971Y-83006542D01*
X145699463Y-82860463D01*
X145603209Y-82735022D01*
X145477768Y-82638768D01*
X145454357Y-82629071D01*
X145331689Y-82578260D01*
X145331687Y-82578259D01*
X145174928Y-82557622D01*
X145174926Y-82557622D01*
X145018166Y-82578259D01*
X145018164Y-82578260D01*
X144872087Y-82638767D01*
X144746645Y-82735022D01*
X144650390Y-82860464D01*
X144589883Y-83006541D01*
X144589882Y-83006543D01*
X144569245Y-83163302D01*
X143771439Y-83163302D01*
X143828704Y-83088673D01*
X143889212Y-82942594D01*
X143909850Y-82785832D01*
X143889212Y-82629070D01*
X143828704Y-82482991D01*
X143732450Y-82357550D01*
X143607009Y-82261296D01*
X143602506Y-82259431D01*
X143460930Y-82200788D01*
X143460928Y-82200787D01*
X143304169Y-82180150D01*
X143304167Y-82180150D01*
X143147407Y-82200787D01*
X143147405Y-82200788D01*
X143001324Y-82261297D01*
X142982927Y-82275413D01*
X142917757Y-82300605D01*
X142849313Y-82286565D01*
X142799325Y-82237749D01*
X142783664Y-82169657D01*
X142784505Y-82160849D01*
X142785042Y-82156765D01*
X142785044Y-82156762D01*
X142805682Y-82000000D01*
X142803591Y-81984120D01*
X142785044Y-81843239D01*
X142785044Y-81843238D01*
X142724536Y-81697159D01*
X142649982Y-81599998D01*
X143701399Y-81599998D01*
X143701399Y-81600001D01*
X143722036Y-81756760D01*
X143722037Y-81756762D01*
X143757856Y-81843238D01*
X143782545Y-81902841D01*
X143878799Y-82028282D01*
X144004240Y-82124536D01*
X144150319Y-82185044D01*
X144220337Y-82194262D01*
X144307080Y-82205682D01*
X144307081Y-82205682D01*
X144307082Y-82205682D01*
X144359335Y-82198802D01*
X144463843Y-82185044D01*
X144609922Y-82124536D01*
X144735363Y-82028282D01*
X144831617Y-81902841D01*
X144892125Y-81756762D01*
X144912763Y-81600000D01*
X144906329Y-81551132D01*
X144900255Y-81504997D01*
X150854622Y-81504997D01*
X150854622Y-81505000D01*
X150875259Y-81661759D01*
X150875260Y-81661761D01*
X150902813Y-81728281D01*
X150935768Y-81807840D01*
X151032022Y-81933281D01*
X151157463Y-82029535D01*
X151303542Y-82090043D01*
X151381923Y-82100362D01*
X151460303Y-82110681D01*
X151460304Y-82110681D01*
X151460305Y-82110681D01*
X151512558Y-82103801D01*
X151617066Y-82090043D01*
X151714777Y-82049569D01*
X151784243Y-82042101D01*
X151846722Y-82073376D01*
X151876788Y-82116678D01*
X151882387Y-82130196D01*
X151882389Y-82130199D01*
X151931546Y-82194262D01*
X151956740Y-82259431D01*
X151942702Y-82327876D01*
X151908657Y-82368123D01*
X151871720Y-82396465D01*
X151775463Y-82521910D01*
X151714956Y-82667987D01*
X151714955Y-82667989D01*
X151694318Y-82824748D01*
X151694318Y-82824751D01*
X151714955Y-82981510D01*
X151714956Y-82981512D01*
X151772317Y-83119995D01*
X151775464Y-83127591D01*
X151871718Y-83253032D01*
X151997159Y-83349286D01*
X152143238Y-83409794D01*
X152221619Y-83420113D01*
X152299999Y-83430432D01*
X152300000Y-83430432D01*
X152300001Y-83430432D01*
X152352254Y-83423552D01*
X152456762Y-83409794D01*
X152602841Y-83349286D01*
X152728282Y-83253032D01*
X152824536Y-83127591D01*
X152873222Y-83010052D01*
X152917061Y-82955650D01*
X152983356Y-82933585D01*
X153051055Y-82950864D01*
X153098666Y-83002001D01*
X153102343Y-83010053D01*
X153111253Y-83031564D01*
X153150465Y-83126229D01*
X153246719Y-83251670D01*
X153372160Y-83347924D01*
X153518239Y-83408432D01*
X153553765Y-83413109D01*
X153675000Y-83429070D01*
X153675001Y-83429070D01*
X153675002Y-83429070D01*
X153727255Y-83422190D01*
X153831763Y-83408432D01*
X153977842Y-83347924D01*
X154103283Y-83251670D01*
X154199537Y-83126229D01*
X154260045Y-82980150D01*
X154280683Y-82823388D01*
X154275738Y-82785830D01*
X154260045Y-82666627D01*
X154260045Y-82666626D01*
X154199537Y-82520547D01*
X154103283Y-82395106D01*
X153977842Y-82298852D01*
X153955887Y-82289758D01*
X153831763Y-82238344D01*
X153831761Y-82238343D01*
X153675002Y-82217706D01*
X153675000Y-82217706D01*
X153518240Y-82238343D01*
X153518238Y-82238344D01*
X153372161Y-82298851D01*
X153246719Y-82395106D01*
X153150464Y-82520548D01*
X153101779Y-82638084D01*
X153057938Y-82692487D01*
X152991643Y-82714552D01*
X152923944Y-82697272D01*
X152876334Y-82646135D01*
X152872657Y-82638084D01*
X152868924Y-82629071D01*
X152824536Y-82521909D01*
X152775377Y-82457843D01*
X152750184Y-82392676D01*
X152764222Y-82324232D01*
X152798265Y-82283986D01*
X152835207Y-82255640D01*
X152931461Y-82130199D01*
X152991969Y-81984120D01*
X153012607Y-81827358D01*
X153012235Y-81824536D01*
X152991969Y-81670597D01*
X152991969Y-81670596D01*
X152931461Y-81524517D01*
X152835207Y-81399076D01*
X152709766Y-81302822D01*
X152702948Y-81299998D01*
X156869318Y-81299998D01*
X156869318Y-81300001D01*
X156889955Y-81456760D01*
X156889956Y-81456762D01*
X156949287Y-81600001D01*
X156950464Y-81602841D01*
X157046718Y-81728282D01*
X157172159Y-81824536D01*
X157318238Y-81885044D01*
X157396619Y-81895363D01*
X157474999Y-81905682D01*
X157475000Y-81905682D01*
X157475001Y-81905682D01*
X157527254Y-81898802D01*
X157631762Y-81885044D01*
X157777841Y-81824536D01*
X157903282Y-81728282D01*
X157909447Y-81720247D01*
X159329500Y-81720247D01*
X159329500Y-83459752D01*
X159341131Y-83518229D01*
X159341132Y-83518230D01*
X159385447Y-83584552D01*
X159451769Y-83628867D01*
X159451770Y-83628868D01*
X159510247Y-83640499D01*
X159510250Y-83640500D01*
X159510252Y-83640500D01*
X161249750Y-83640500D01*
X161249751Y-83640499D01*
X161264568Y-83637552D01*
X161308229Y-83628868D01*
X161308229Y-83628867D01*
X161308231Y-83628867D01*
X161374552Y-83584552D01*
X161418867Y-83518231D01*
X161418867Y-83518229D01*
X161418868Y-83518229D01*
X161429227Y-83466146D01*
X161430500Y-83459748D01*
X161430500Y-81720252D01*
X161430500Y-81720249D01*
X161430499Y-81720247D01*
X161418868Y-81661770D01*
X161418867Y-81661769D01*
X161374552Y-81595447D01*
X161308230Y-81551132D01*
X161308229Y-81551131D01*
X161249752Y-81539500D01*
X161249748Y-81539500D01*
X159510252Y-81539500D01*
X159510247Y-81539500D01*
X159451770Y-81551131D01*
X159451769Y-81551132D01*
X159385447Y-81595447D01*
X159341132Y-81661769D01*
X159341131Y-81661770D01*
X159329500Y-81720247D01*
X157909447Y-81720247D01*
X157999536Y-81602841D01*
X158060044Y-81456762D01*
X158074366Y-81347974D01*
X158080682Y-81300001D01*
X158080682Y-81299998D01*
X158060044Y-81143239D01*
X158060044Y-81143238D01*
X157999536Y-80997159D01*
X157903282Y-80871718D01*
X157777841Y-80775464D01*
X157631762Y-80714956D01*
X157631760Y-80714955D01*
X157475001Y-80694318D01*
X157474999Y-80694318D01*
X157318239Y-80714955D01*
X157318237Y-80714956D01*
X157172160Y-80775463D01*
X157046718Y-80871718D01*
X156950463Y-80997160D01*
X156889956Y-81143237D01*
X156889955Y-81143239D01*
X156869318Y-81299998D01*
X152702948Y-81299998D01*
X152563687Y-81242314D01*
X152563685Y-81242313D01*
X152406926Y-81221676D01*
X152406924Y-81221676D01*
X152250164Y-81242313D01*
X152250159Y-81242315D01*
X152152453Y-81282786D01*
X152082984Y-81290255D01*
X152020505Y-81258979D01*
X151990440Y-81215677D01*
X151984841Y-81202160D01*
X151984840Y-81202159D01*
X151984840Y-81202158D01*
X151888586Y-81076717D01*
X151763145Y-80980463D01*
X151617066Y-80919955D01*
X151617064Y-80919954D01*
X151460305Y-80899317D01*
X151460303Y-80899317D01*
X151303543Y-80919954D01*
X151303541Y-80919955D01*
X151157464Y-80980462D01*
X151032022Y-81076717D01*
X150935767Y-81202159D01*
X150875260Y-81348236D01*
X150875259Y-81348238D01*
X150854622Y-81504997D01*
X144900255Y-81504997D01*
X144892125Y-81443239D01*
X144892125Y-81443238D01*
X144831617Y-81297159D01*
X144735363Y-81171718D01*
X144609922Y-81075464D01*
X144463843Y-81014956D01*
X144463841Y-81014955D01*
X144307082Y-80994318D01*
X144307080Y-80994318D01*
X144150320Y-81014955D01*
X144150318Y-81014956D01*
X144004241Y-81075463D01*
X143878799Y-81171718D01*
X143782544Y-81297160D01*
X143722037Y-81443237D01*
X143722036Y-81443239D01*
X143701399Y-81599998D01*
X142649982Y-81599998D01*
X142628282Y-81571718D01*
X142502841Y-81475464D01*
X142457690Y-81456762D01*
X142356762Y-81414956D01*
X142356760Y-81414955D01*
X142200001Y-81394318D01*
X142199999Y-81394318D01*
X142043239Y-81414955D01*
X142043237Y-81414956D01*
X141897160Y-81475463D01*
X141771718Y-81571718D01*
X141675463Y-81697160D01*
X141614956Y-81843237D01*
X141614955Y-81843239D01*
X141594318Y-81999998D01*
X141594318Y-82000001D01*
X141614955Y-82156760D01*
X141614956Y-82156762D01*
X141675464Y-82302841D01*
X141771718Y-82428282D01*
X141897159Y-82524536D01*
X142043238Y-82585044D01*
X142121619Y-82595363D01*
X142199999Y-82605682D01*
X142200000Y-82605682D01*
X142200001Y-82605682D01*
X142252254Y-82598802D01*
X142356762Y-82585044D01*
X142502841Y-82524536D01*
X142521237Y-82510420D01*
X142586404Y-82485226D01*
X142654849Y-82499264D01*
X142704840Y-82548077D01*
X142720504Y-82616168D01*
X142719662Y-82624981D01*
X142698486Y-82785830D01*
X142698486Y-82785833D01*
X142719123Y-82942591D01*
X142719123Y-82942593D01*
X142719124Y-82942594D01*
X142737952Y-82988049D01*
X142745421Y-83057516D01*
X142714146Y-83119995D01*
X142654058Y-83155648D01*
X142623391Y-83159500D01*
X141380247Y-83159500D01*
X141321770Y-83171131D01*
X141321769Y-83171132D01*
X141255447Y-83215447D01*
X141211132Y-83281769D01*
X141211131Y-83281770D01*
X141199500Y-83340247D01*
X140300000Y-83340247D01*
X140300000Y-76729998D01*
X141242318Y-76729998D01*
X141242318Y-76730001D01*
X141262955Y-76886760D01*
X141262956Y-76886762D01*
X141278602Y-76924536D01*
X141323464Y-77032841D01*
X141419718Y-77158282D01*
X141545159Y-77254536D01*
X141691238Y-77315044D01*
X141769619Y-77325363D01*
X141847999Y-77335682D01*
X141848000Y-77335682D01*
X141959815Y-77320961D01*
X142028850Y-77331726D01*
X142081106Y-77378106D01*
X142100000Y-77443900D01*
X142100000Y-80300000D01*
X145500000Y-80300000D01*
X145500000Y-79337498D01*
X156394318Y-79337498D01*
X156394318Y-79337501D01*
X156414955Y-79494260D01*
X156414956Y-79494262D01*
X156475464Y-79640341D01*
X156571718Y-79765782D01*
X156697159Y-79862036D01*
X156843238Y-79922544D01*
X156921619Y-79932863D01*
X156999999Y-79943182D01*
X157000000Y-79943182D01*
X157000001Y-79943182D01*
X157059870Y-79935300D01*
X157156762Y-79922544D01*
X157302841Y-79862036D01*
X157428282Y-79765782D01*
X157524536Y-79640341D01*
X157585044Y-79494262D01*
X157605682Y-79337500D01*
X157585044Y-79180738D01*
X157524536Y-79034659D01*
X157428282Y-78909218D01*
X157416269Y-78900000D01*
X159344417Y-78900000D01*
X159364699Y-79105932D01*
X159394734Y-79204944D01*
X159424768Y-79303954D01*
X159522315Y-79486450D01*
X159528726Y-79494262D01*
X159653589Y-79646410D01*
X159750209Y-79725702D01*
X159813550Y-79777685D01*
X159996046Y-79875232D01*
X160194066Y-79935300D01*
X160194065Y-79935300D01*
X160212529Y-79937118D01*
X160400000Y-79955583D01*
X160605934Y-79935300D01*
X160803954Y-79875232D01*
X160986450Y-79777685D01*
X161146410Y-79646410D01*
X161277685Y-79486450D01*
X161375232Y-79303954D01*
X161435300Y-79105934D01*
X161455583Y-78900000D01*
X161435300Y-78694066D01*
X161375232Y-78496046D01*
X161277685Y-78313550D01*
X161225702Y-78250209D01*
X161146410Y-78153589D01*
X160986452Y-78022317D01*
X160986453Y-78022317D01*
X160986450Y-78022315D01*
X160803954Y-77924768D01*
X160605934Y-77864700D01*
X160605932Y-77864699D01*
X160605934Y-77864699D01*
X160400000Y-77844417D01*
X160194067Y-77864699D01*
X159996043Y-77924769D01*
X159885898Y-77983643D01*
X159813550Y-78022315D01*
X159813548Y-78022316D01*
X159813547Y-78022317D01*
X159653589Y-78153589D01*
X159522317Y-78313547D01*
X159424769Y-78496043D01*
X159364699Y-78694067D01*
X159344417Y-78900000D01*
X157416269Y-78900000D01*
X157302841Y-78812964D01*
X157156762Y-78752456D01*
X157156760Y-78752455D01*
X157000001Y-78731818D01*
X156999999Y-78731818D01*
X156843239Y-78752455D01*
X156843237Y-78752456D01*
X156697160Y-78812963D01*
X156571718Y-78909218D01*
X156475463Y-79034660D01*
X156414956Y-79180737D01*
X156414955Y-79180739D01*
X156394318Y-79337498D01*
X145500000Y-79337498D01*
X145500000Y-76299998D01*
X148594318Y-76299998D01*
X148594318Y-76300001D01*
X148614955Y-76456760D01*
X148614956Y-76456762D01*
X148663201Y-76573237D01*
X148675464Y-76602841D01*
X148771718Y-76728282D01*
X148897159Y-76824536D01*
X149043238Y-76885044D01*
X149056288Y-76886762D01*
X149199999Y-76905682D01*
X149200000Y-76905682D01*
X149200001Y-76905682D01*
X149252254Y-76898802D01*
X149356762Y-76885044D01*
X149502841Y-76824536D01*
X149628282Y-76728282D01*
X149724536Y-76602841D01*
X149785044Y-76456762D01*
X149792517Y-76399998D01*
X152894318Y-76399998D01*
X152894318Y-76400001D01*
X152914955Y-76556760D01*
X152914956Y-76556762D01*
X152975464Y-76702841D01*
X153071718Y-76828282D01*
X153197159Y-76924536D01*
X153343238Y-76985044D01*
X153421619Y-76995363D01*
X153499999Y-77005682D01*
X153500000Y-77005682D01*
X153500001Y-77005682D01*
X153552254Y-76998802D01*
X153656762Y-76985044D01*
X153802841Y-76924536D01*
X153928282Y-76828282D01*
X154024536Y-76702841D01*
X154085044Y-76556762D01*
X154102106Y-76427160D01*
X154105682Y-76400001D01*
X154105682Y-76399998D01*
X154085044Y-76243239D01*
X154085044Y-76243238D01*
X154024536Y-76097159D01*
X153928282Y-75971718D01*
X153802841Y-75875464D01*
X153793797Y-75871718D01*
X153656762Y-75814956D01*
X153656760Y-75814955D01*
X153500001Y-75794318D01*
X153499999Y-75794318D01*
X153343239Y-75814955D01*
X153343237Y-75814956D01*
X153197160Y-75875463D01*
X153071718Y-75971718D01*
X152975463Y-76097160D01*
X152914956Y-76243237D01*
X152914955Y-76243239D01*
X152894318Y-76399998D01*
X149792517Y-76399998D01*
X149805682Y-76300000D01*
X149785044Y-76143238D01*
X149724536Y-75997159D01*
X149628282Y-75871718D01*
X149502841Y-75775464D01*
X149356762Y-75714956D01*
X149356760Y-75714955D01*
X149200001Y-75694318D01*
X149199999Y-75694318D01*
X149043239Y-75714955D01*
X149043237Y-75714956D01*
X148897160Y-75775463D01*
X148771718Y-75871718D01*
X148675463Y-75997160D01*
X148614956Y-76143237D01*
X148614955Y-76143239D01*
X148594318Y-76299998D01*
X145500000Y-76299998D01*
X145500000Y-76100000D01*
X142100000Y-76100000D01*
X142099999Y-76100000D01*
X142092432Y-76107567D01*
X142031109Y-76141052D01*
X141988567Y-76142823D01*
X141927558Y-76134792D01*
X141848001Y-76124318D01*
X141847999Y-76124318D01*
X141691239Y-76144955D01*
X141691237Y-76144956D01*
X141545160Y-76205463D01*
X141419718Y-76301718D01*
X141323463Y-76427160D01*
X141262956Y-76573237D01*
X141262955Y-76573239D01*
X141242318Y-76729998D01*
X140300000Y-76729998D01*
X140300000Y-74699189D01*
X143419318Y-74699189D01*
X143419318Y-74699192D01*
X143439955Y-74855951D01*
X143439956Y-74855953D01*
X143500464Y-75002032D01*
X143596718Y-75127473D01*
X143722159Y-75223727D01*
X143868238Y-75284235D01*
X143946619Y-75294554D01*
X144024999Y-75304873D01*
X144025000Y-75304873D01*
X144025001Y-75304873D01*
X144077254Y-75297993D01*
X144181762Y-75284235D01*
X144327841Y-75223727D01*
X144453282Y-75127473D01*
X144549536Y-75002032D01*
X144610044Y-74855953D01*
X144630682Y-74699191D01*
X144630483Y-74697682D01*
X144613201Y-74566410D01*
X144610044Y-74542429D01*
X144597121Y-74511231D01*
X146683540Y-74511231D01*
X156875184Y-74511231D01*
X156942223Y-74530916D01*
X156987978Y-74583720D01*
X156997922Y-74652878D01*
X156968897Y-74716434D01*
X156950671Y-74733606D01*
X156935359Y-74745355D01*
X156839102Y-74870799D01*
X156778595Y-75016876D01*
X156778594Y-75016878D01*
X156757957Y-75173637D01*
X156757957Y-75173640D01*
X156778594Y-75330399D01*
X156778595Y-75330401D01*
X156839103Y-75476480D01*
X156935357Y-75601921D01*
X157060798Y-75698175D01*
X157206877Y-75758683D01*
X157285258Y-75769002D01*
X157363638Y-75779321D01*
X157363639Y-75779321D01*
X157363640Y-75779321D01*
X157415893Y-75772441D01*
X157520401Y-75758683D01*
X157666480Y-75698175D01*
X157791921Y-75601921D01*
X157888175Y-75476480D01*
X157948683Y-75330401D01*
X157969321Y-75173639D01*
X157948683Y-75016877D01*
X157888175Y-74870798D01*
X157791921Y-74745357D01*
X157776607Y-74733606D01*
X157735405Y-74677178D01*
X157731250Y-74607432D01*
X157765463Y-74546512D01*
X157827180Y-74513760D01*
X157852094Y-74511231D01*
X158683540Y-74511231D01*
X158683540Y-73820000D01*
X159344417Y-73820000D01*
X159364699Y-74025932D01*
X159391459Y-74114147D01*
X159424768Y-74223954D01*
X159522315Y-74406450D01*
X159522317Y-74406452D01*
X159653589Y-74566410D01*
X159750209Y-74645702D01*
X159813550Y-74697685D01*
X159996046Y-74795232D01*
X160194066Y-74855300D01*
X160194065Y-74855300D01*
X160212529Y-74857118D01*
X160400000Y-74875583D01*
X160605934Y-74855300D01*
X160803954Y-74795232D01*
X160986450Y-74697685D01*
X161146410Y-74566410D01*
X161277685Y-74406450D01*
X161375232Y-74223954D01*
X161435300Y-74025934D01*
X161455583Y-73820000D01*
X161435300Y-73614066D01*
X161375232Y-73416046D01*
X161277685Y-73233550D01*
X161225702Y-73170209D01*
X161146410Y-73073589D01*
X160986452Y-72942317D01*
X160986453Y-72942317D01*
X160986450Y-72942315D01*
X160803954Y-72844768D01*
X160605934Y-72784700D01*
X160605932Y-72784699D01*
X160605934Y-72784699D01*
X160400000Y-72764417D01*
X160194067Y-72784699D01*
X159996043Y-72844769D01*
X159885898Y-72903643D01*
X159813550Y-72942315D01*
X159813548Y-72942316D01*
X159813547Y-72942317D01*
X159653589Y-73073589D01*
X159522317Y-73233547D01*
X159424769Y-73416043D01*
X159364699Y-73614067D01*
X159344417Y-73820000D01*
X158683540Y-73820000D01*
X158683540Y-68740000D01*
X159344417Y-68740000D01*
X159364699Y-68945932D01*
X159364700Y-68945934D01*
X159424768Y-69143954D01*
X159522315Y-69326450D01*
X159522317Y-69326452D01*
X159653589Y-69486410D01*
X159750209Y-69565702D01*
X159813550Y-69617685D01*
X159996046Y-69715232D01*
X160194066Y-69775300D01*
X160194065Y-69775300D01*
X160212529Y-69777118D01*
X160400000Y-69795583D01*
X160605934Y-69775300D01*
X160803954Y-69715232D01*
X160986450Y-69617685D01*
X161146410Y-69486410D01*
X161277685Y-69326450D01*
X161375232Y-69143954D01*
X161435300Y-68945934D01*
X161455583Y-68740000D01*
X161435300Y-68534066D01*
X161375232Y-68336046D01*
X161277685Y-68153550D01*
X161182525Y-68037596D01*
X161146410Y-67993589D01*
X160986452Y-67862317D01*
X160986453Y-67862317D01*
X160986450Y-67862315D01*
X160803954Y-67764768D01*
X160605934Y-67704700D01*
X160605932Y-67704699D01*
X160605934Y-67704699D01*
X160400000Y-67684417D01*
X160194067Y-67704699D01*
X159996043Y-67764769D01*
X159912222Y-67809573D01*
X159813550Y-67862315D01*
X159813548Y-67862316D01*
X159813547Y-67862317D01*
X159653589Y-67993589D01*
X159522317Y-68153547D01*
X159522315Y-68153550D01*
X159483643Y-68225898D01*
X159424769Y-68336043D01*
X159364699Y-68534067D01*
X159344417Y-68740000D01*
X158683540Y-68740000D01*
X158683540Y-63660000D01*
X159344417Y-63660000D01*
X159364699Y-63865932D01*
X159378780Y-63912350D01*
X159424768Y-64063954D01*
X159522315Y-64246450D01*
X159522317Y-64246452D01*
X159653589Y-64406410D01*
X159750209Y-64485702D01*
X159813550Y-64537685D01*
X159996046Y-64635232D01*
X160194066Y-64695300D01*
X160194065Y-64695300D01*
X160212529Y-64697118D01*
X160400000Y-64715583D01*
X160605934Y-64695300D01*
X160803954Y-64635232D01*
X160986450Y-64537685D01*
X161146410Y-64406410D01*
X161277685Y-64246450D01*
X161375232Y-64063954D01*
X161435300Y-63865934D01*
X161455583Y-63660000D01*
X161435300Y-63454066D01*
X161375232Y-63256046D01*
X161277685Y-63073550D01*
X161217325Y-63000001D01*
X161146410Y-62913589D01*
X160986452Y-62782317D01*
X160986453Y-62782317D01*
X160986450Y-62782315D01*
X160803954Y-62684768D01*
X160605934Y-62624700D01*
X160605932Y-62624699D01*
X160605934Y-62624699D01*
X160400000Y-62604417D01*
X160194067Y-62624699D01*
X159996043Y-62684769D01*
X159972862Y-62697160D01*
X159813550Y-62782315D01*
X159813548Y-62782316D01*
X159813547Y-62782317D01*
X159653589Y-62913589D01*
X159522317Y-63073547D01*
X159424769Y-63256043D01*
X159364699Y-63454067D01*
X159344417Y-63660000D01*
X158683540Y-63660000D01*
X158683540Y-62761231D01*
X158433540Y-62761231D01*
X158433540Y-74137231D01*
X158413855Y-74204270D01*
X158361051Y-74250025D01*
X158309540Y-74261231D01*
X147057540Y-74261231D01*
X146990501Y-74241546D01*
X146944746Y-74188742D01*
X146933540Y-74137231D01*
X146933540Y-71899998D01*
X150794318Y-71899998D01*
X150794318Y-71900001D01*
X150814955Y-72056760D01*
X150814956Y-72056762D01*
X150875464Y-72202841D01*
X150971718Y-72328282D01*
X151097159Y-72424536D01*
X151243238Y-72485044D01*
X151321619Y-72495363D01*
X151399999Y-72505682D01*
X151400000Y-72505682D01*
X151400001Y-72505682D01*
X151452254Y-72498802D01*
X151556762Y-72485044D01*
X151702841Y-72424536D01*
X151828282Y-72328282D01*
X151924536Y-72202841D01*
X151985044Y-72056762D01*
X152005682Y-71900000D01*
X151985044Y-71743238D01*
X151924536Y-71597159D01*
X151828282Y-71471718D01*
X151702841Y-71375464D01*
X151556762Y-71314956D01*
X151556760Y-71314955D01*
X151400001Y-71294318D01*
X151399999Y-71294318D01*
X151243239Y-71314955D01*
X151243237Y-71314956D01*
X151097160Y-71375463D01*
X150971718Y-71471718D01*
X150875463Y-71597160D01*
X150814956Y-71743237D01*
X150814955Y-71743239D01*
X150794318Y-71899998D01*
X146933540Y-71899998D01*
X146933540Y-66504998D01*
X153751818Y-66504998D01*
X153751818Y-66505001D01*
X153772455Y-66661760D01*
X153772456Y-66661762D01*
X153832964Y-66807841D01*
X153929218Y-66933282D01*
X154054659Y-67029536D01*
X154200738Y-67090044D01*
X154279119Y-67100363D01*
X154357499Y-67110682D01*
X154357500Y-67110682D01*
X154357501Y-67110682D01*
X154409754Y-67103802D01*
X154514262Y-67090044D01*
X154660341Y-67029536D01*
X154785782Y-66933282D01*
X154882036Y-66807841D01*
X154942544Y-66661762D01*
X154963182Y-66505000D01*
X154942544Y-66348238D01*
X154882036Y-66202159D01*
X154785782Y-66076718D01*
X154660341Y-65980464D01*
X154514262Y-65919956D01*
X154514260Y-65919955D01*
X154357501Y-65899318D01*
X154357499Y-65899318D01*
X154200739Y-65919955D01*
X154200737Y-65919956D01*
X154054652Y-65980466D01*
X154052742Y-65981569D01*
X154049969Y-65984061D01*
X153929220Y-66076715D01*
X153832963Y-66202160D01*
X153772456Y-66348237D01*
X153772455Y-66348239D01*
X153751818Y-66504998D01*
X146933540Y-66504998D01*
X146933540Y-65254998D01*
X153001818Y-65254998D01*
X153001818Y-65255001D01*
X153022455Y-65411760D01*
X153022456Y-65411762D01*
X153082964Y-65557841D01*
X153179218Y-65683282D01*
X153304659Y-65779536D01*
X153450738Y-65840044D01*
X153529119Y-65850363D01*
X153607499Y-65860682D01*
X153607500Y-65860682D01*
X153607501Y-65860682D01*
X153659754Y-65853802D01*
X153764262Y-65840044D01*
X153910341Y-65779536D01*
X153910347Y-65779531D01*
X153912254Y-65778430D01*
X153915031Y-65775937D01*
X154035782Y-65683282D01*
X154132036Y-65557841D01*
X154192544Y-65411762D01*
X154213182Y-65255000D01*
X154192544Y-65098238D01*
X154132036Y-64952159D01*
X154037166Y-64828522D01*
X154011974Y-64763357D01*
X154026012Y-64694912D01*
X154074826Y-64644922D01*
X154142917Y-64629258D01*
X154182993Y-64638477D01*
X154220843Y-64654155D01*
X154299224Y-64664474D01*
X154377604Y-64674793D01*
X154377605Y-64674793D01*
X154377606Y-64674793D01*
X154429859Y-64667913D01*
X154534367Y-64654155D01*
X154680446Y-64593647D01*
X154805887Y-64497393D01*
X154902141Y-64371952D01*
X154962649Y-64225873D01*
X154983287Y-64069111D01*
X154982608Y-64063956D01*
X154962649Y-63912350D01*
X154962649Y-63912349D01*
X154902141Y-63766270D01*
X154805887Y-63640829D01*
X154785540Y-63625216D01*
X154744338Y-63568788D01*
X154740183Y-63499042D01*
X154774396Y-63438122D01*
X154785531Y-63428474D01*
X154785782Y-63428282D01*
X154882036Y-63302841D01*
X154942544Y-63156762D01*
X154963182Y-63000000D01*
X154942544Y-62843238D01*
X154882036Y-62697159D01*
X154785782Y-62571718D01*
X154660341Y-62475464D01*
X154617223Y-62457604D01*
X154514262Y-62414956D01*
X154514260Y-62414955D01*
X154357501Y-62394318D01*
X154357499Y-62394318D01*
X154200739Y-62414955D01*
X154200737Y-62414956D01*
X154054660Y-62475463D01*
X153929218Y-62571718D01*
X153832963Y-62697160D01*
X153772456Y-62843237D01*
X153772455Y-62843239D01*
X153751818Y-62999998D01*
X153751818Y-63000001D01*
X153772455Y-63156760D01*
X153772456Y-63156762D01*
X153813579Y-63256043D01*
X153832964Y-63302841D01*
X153929215Y-63428278D01*
X153929219Y-63428283D01*
X153949563Y-63443893D01*
X153990766Y-63500321D01*
X153994921Y-63570067D01*
X153960709Y-63630987D01*
X153949571Y-63640637D01*
X153949384Y-63640781D01*
X153949324Y-63640828D01*
X153853068Y-63766271D01*
X153792561Y-63912348D01*
X153792560Y-63912350D01*
X153771923Y-64069109D01*
X153771923Y-64069112D01*
X153792560Y-64225871D01*
X153792561Y-64225873D01*
X153853069Y-64371952D01*
X153947937Y-64495586D01*
X153973130Y-64560754D01*
X153959092Y-64629198D01*
X153910278Y-64679188D01*
X153842187Y-64694852D01*
X153802108Y-64685632D01*
X153764265Y-64669957D01*
X153764260Y-64669955D01*
X153607501Y-64649318D01*
X153607499Y-64649318D01*
X153450739Y-64669955D01*
X153450737Y-64669956D01*
X153304660Y-64730463D01*
X153179218Y-64826718D01*
X153082963Y-64952160D01*
X153022456Y-65098237D01*
X153022455Y-65098239D01*
X153001818Y-65254998D01*
X146933540Y-65254998D01*
X146933540Y-62385244D01*
X146953225Y-62318205D01*
X147006029Y-62272450D01*
X147057551Y-62261244D01*
X153684462Y-62261970D01*
X153684462Y-62011969D01*
X146683540Y-62011231D01*
X146683540Y-74511231D01*
X144597121Y-74511231D01*
X144549536Y-74396350D01*
X144453282Y-74270909D01*
X144327841Y-74174655D01*
X144181762Y-74114147D01*
X144181760Y-74114146D01*
X144025001Y-74093509D01*
X144024999Y-74093509D01*
X143868239Y-74114146D01*
X143868237Y-74114147D01*
X143722160Y-74174654D01*
X143596718Y-74270909D01*
X143500463Y-74396351D01*
X143439956Y-74542428D01*
X143439955Y-74542430D01*
X143419318Y-74699189D01*
X140300000Y-74699189D01*
X140300000Y-71177610D01*
X141638724Y-71177610D01*
X141638724Y-71322560D01*
X141652900Y-71375464D01*
X141676241Y-71462573D01*
X141748712Y-71588096D01*
X141748714Y-71588098D01*
X141748715Y-71588100D01*
X141851209Y-71690594D01*
X141851210Y-71690595D01*
X141851212Y-71690596D01*
X141976735Y-71763067D01*
X141976736Y-71763067D01*
X141976739Y-71763069D01*
X142116749Y-71800585D01*
X142116752Y-71800585D01*
X142261696Y-71800585D01*
X142261699Y-71800585D01*
X142401709Y-71763069D01*
X142527239Y-71690594D01*
X142629733Y-71588100D01*
X142702208Y-71462570D01*
X142739724Y-71322560D01*
X142739724Y-71177610D01*
X142702208Y-71037600D01*
X142629733Y-70912070D01*
X142527239Y-70809576D01*
X142527237Y-70809575D01*
X142527235Y-70809573D01*
X142401712Y-70737102D01*
X142401713Y-70737102D01*
X142390230Y-70734025D01*
X142261699Y-70699585D01*
X142116749Y-70699585D01*
X141988217Y-70734025D01*
X141976735Y-70737102D01*
X141851212Y-70809573D01*
X141851206Y-70809578D01*
X141748717Y-70912067D01*
X141748712Y-70912073D01*
X141676241Y-71037596D01*
X141676240Y-71037600D01*
X141638724Y-71177610D01*
X140300000Y-71177610D01*
X140300000Y-68177610D01*
X141638724Y-68177610D01*
X141638724Y-68322560D01*
X141642338Y-68336046D01*
X141676241Y-68462573D01*
X141748712Y-68588096D01*
X141748714Y-68588098D01*
X141748715Y-68588100D01*
X141851209Y-68690594D01*
X141851210Y-68690595D01*
X141851212Y-68690596D01*
X141976735Y-68763067D01*
X141976736Y-68763067D01*
X141976739Y-68763069D01*
X142116749Y-68800585D01*
X142116752Y-68800585D01*
X142261696Y-68800585D01*
X142261699Y-68800585D01*
X142401709Y-68763069D01*
X142527239Y-68690594D01*
X142629733Y-68588100D01*
X142702208Y-68462570D01*
X142739724Y-68322560D01*
X142739724Y-68177610D01*
X142702208Y-68037600D01*
X142629733Y-67912070D01*
X142527239Y-67809576D01*
X142527237Y-67809575D01*
X142527235Y-67809573D01*
X142401712Y-67737102D01*
X142401713Y-67737102D01*
X142390230Y-67734025D01*
X142261699Y-67699585D01*
X142116749Y-67699585D01*
X141988217Y-67734025D01*
X141976735Y-67737102D01*
X141851212Y-67809573D01*
X141851206Y-67809578D01*
X141748717Y-67912067D01*
X141748712Y-67912073D01*
X141676241Y-68037596D01*
X141676240Y-68037600D01*
X141638724Y-68177610D01*
X140300000Y-68177610D01*
X140300000Y-62582404D01*
X141243931Y-62582404D01*
X141243931Y-64321909D01*
X141255562Y-64380386D01*
X141255563Y-64380387D01*
X141299878Y-64446709D01*
X141366200Y-64491024D01*
X141366201Y-64491025D01*
X141424678Y-64502656D01*
X141424681Y-64502657D01*
X141424683Y-64502657D01*
X143164181Y-64502657D01*
X143164182Y-64502656D01*
X143178999Y-64499709D01*
X143222660Y-64491025D01*
X143222660Y-64491024D01*
X143222662Y-64491024D01*
X143288983Y-64446709D01*
X143333298Y-64380388D01*
X143333298Y-64380386D01*
X143333299Y-64380386D01*
X143344930Y-64321909D01*
X143344931Y-64321907D01*
X143344931Y-62582406D01*
X143344930Y-62582404D01*
X143333299Y-62523927D01*
X143333298Y-62523926D01*
X143288983Y-62457604D01*
X143222661Y-62413289D01*
X143222660Y-62413288D01*
X143164183Y-62401657D01*
X143164179Y-62401657D01*
X141424683Y-62401657D01*
X141424678Y-62401657D01*
X141366201Y-62413288D01*
X141366200Y-62413289D01*
X141299878Y-62457604D01*
X141255563Y-62523926D01*
X141255562Y-62523927D01*
X141243931Y-62582404D01*
X140300000Y-62582404D01*
X140300000Y-60385145D01*
X157200874Y-60385145D01*
X157200874Y-60385148D01*
X157221511Y-60541907D01*
X157221512Y-60541909D01*
X157282020Y-60687988D01*
X157378274Y-60813429D01*
X157503715Y-60909683D01*
X157649794Y-60970191D01*
X157728175Y-60980510D01*
X157806555Y-60990829D01*
X157806556Y-60990829D01*
X157806557Y-60990829D01*
X157858810Y-60983949D01*
X157963318Y-60970191D01*
X158109397Y-60909683D01*
X158234838Y-60813429D01*
X158331092Y-60687988D01*
X158391600Y-60541909D01*
X158412238Y-60385147D01*
X158391600Y-60228385D01*
X158331092Y-60082306D01*
X158234838Y-59956865D01*
X158109397Y-59860611D01*
X157963318Y-59800103D01*
X157963316Y-59800102D01*
X157806557Y-59779465D01*
X157806555Y-59779465D01*
X157649795Y-59800102D01*
X157649793Y-59800103D01*
X157503716Y-59860610D01*
X157378274Y-59956865D01*
X157282019Y-60082307D01*
X157221512Y-60228384D01*
X157221511Y-60228386D01*
X157200874Y-60385145D01*
X140300000Y-60385145D01*
X140300000Y-59499998D01*
X154144318Y-59499998D01*
X154144318Y-59500001D01*
X154164955Y-59656760D01*
X154164956Y-59656762D01*
X154225464Y-59802841D01*
X154321718Y-59928282D01*
X154447159Y-60024536D01*
X154593238Y-60085044D01*
X154671619Y-60095363D01*
X154749999Y-60105682D01*
X154750000Y-60105682D01*
X154750001Y-60105682D01*
X154802254Y-60098802D01*
X154906762Y-60085044D01*
X155052841Y-60024536D01*
X155178282Y-59928282D01*
X155274536Y-59802841D01*
X155335044Y-59656762D01*
X155355682Y-59500000D01*
X155349066Y-59449750D01*
X155335044Y-59343239D01*
X155335044Y-59343238D01*
X155274536Y-59197159D01*
X155178282Y-59071718D01*
X155052841Y-58975464D01*
X155012149Y-58958609D01*
X154906762Y-58914956D01*
X154906760Y-58914955D01*
X154750001Y-58894318D01*
X154749999Y-58894318D01*
X154593239Y-58914955D01*
X154593237Y-58914956D01*
X154447160Y-58975463D01*
X154321718Y-59071718D01*
X154225463Y-59197160D01*
X154164956Y-59343237D01*
X154164955Y-59343239D01*
X154144318Y-59499998D01*
X140300000Y-59499998D01*
X140300000Y-58372157D01*
X141238848Y-58372157D01*
X141259130Y-58578089D01*
X141263726Y-58593239D01*
X141319199Y-58776111D01*
X141416746Y-58958607D01*
X141416748Y-58958609D01*
X141548020Y-59118567D01*
X141620783Y-59178281D01*
X141707981Y-59249842D01*
X141890477Y-59347389D01*
X142088497Y-59407457D01*
X142088496Y-59407457D01*
X142106960Y-59409275D01*
X142294431Y-59427740D01*
X142500365Y-59407457D01*
X142698385Y-59347389D01*
X142880881Y-59249842D01*
X143040841Y-59118567D01*
X143172116Y-58958607D01*
X143269663Y-58776111D01*
X143329731Y-58578091D01*
X143350014Y-58372157D01*
X143329731Y-58166223D01*
X143269663Y-57968203D01*
X143172116Y-57785707D01*
X143110188Y-57710247D01*
X143101777Y-57699998D01*
X146394318Y-57699998D01*
X146394318Y-57700001D01*
X146414955Y-57856760D01*
X146414956Y-57856762D01*
X146475464Y-58002841D01*
X146571718Y-58128282D01*
X146571720Y-58128283D01*
X146571722Y-58128286D01*
X146577465Y-58134029D01*
X146576020Y-58135473D01*
X146610763Y-58183060D01*
X146614913Y-58252806D01*
X146580697Y-58313724D01*
X146573317Y-58320118D01*
X146571722Y-58321713D01*
X146475463Y-58447160D01*
X146414956Y-58593237D01*
X146414955Y-58593239D01*
X146394318Y-58749998D01*
X146394318Y-58750001D01*
X146414955Y-58906760D01*
X146414956Y-58906762D01*
X146475464Y-59052841D01*
X146571718Y-59178282D01*
X146697159Y-59274536D01*
X146843238Y-59335044D01*
X146905478Y-59343238D01*
X146999999Y-59355682D01*
X147000000Y-59355682D01*
X147000001Y-59355682D01*
X147094514Y-59343239D01*
X147156762Y-59335044D01*
X147302841Y-59274536D01*
X147428282Y-59178282D01*
X147524536Y-59052841D01*
X147585044Y-58906762D01*
X147602244Y-58776113D01*
X147605682Y-58750001D01*
X147605682Y-58749998D01*
X147585044Y-58593239D01*
X147585044Y-58593238D01*
X147524536Y-58447159D01*
X147428282Y-58321718D01*
X147428279Y-58321715D01*
X147428277Y-58321713D01*
X147422535Y-58315971D01*
X147423980Y-58314525D01*
X147389241Y-58266953D01*
X147388230Y-58249998D01*
X152894318Y-58249998D01*
X152894318Y-58250001D01*
X152914955Y-58406760D01*
X152914956Y-58406762D01*
X152975464Y-58552841D01*
X153071718Y-58678282D01*
X153197159Y-58774536D01*
X153343238Y-58835044D01*
X153421619Y-58845363D01*
X153499999Y-58855682D01*
X153500000Y-58855682D01*
X153500001Y-58855682D01*
X153552254Y-58848802D01*
X153656762Y-58835044D01*
X153802841Y-58774536D01*
X153928282Y-58678282D01*
X154024536Y-58552841D01*
X154085044Y-58406762D01*
X154105682Y-58250000D01*
X154085044Y-58093238D01*
X154024536Y-57947159D01*
X153928282Y-57821718D01*
X153802841Y-57725464D01*
X153766104Y-57710247D01*
X159349500Y-57710247D01*
X159349500Y-59449752D01*
X159361131Y-59508229D01*
X159361132Y-59508230D01*
X159405447Y-59574552D01*
X159471769Y-59618867D01*
X159471770Y-59618868D01*
X159530247Y-59630499D01*
X159530250Y-59630500D01*
X159530252Y-59630500D01*
X161269750Y-59630500D01*
X161269751Y-59630499D01*
X161284568Y-59627552D01*
X161328229Y-59618868D01*
X161328229Y-59618867D01*
X161328231Y-59618867D01*
X161394552Y-59574552D01*
X161438867Y-59508231D01*
X161438867Y-59508229D01*
X161438868Y-59508229D01*
X161450499Y-59449752D01*
X161450500Y-59449750D01*
X161450500Y-57710249D01*
X161450499Y-57710247D01*
X161438868Y-57651770D01*
X161438867Y-57651769D01*
X161394552Y-57585447D01*
X161328230Y-57541132D01*
X161328229Y-57541131D01*
X161269752Y-57529500D01*
X161269748Y-57529500D01*
X159530252Y-57529500D01*
X159530247Y-57529500D01*
X159471770Y-57541131D01*
X159471769Y-57541132D01*
X159405447Y-57585447D01*
X159361132Y-57651769D01*
X159361131Y-57651770D01*
X159349500Y-57710247D01*
X153766104Y-57710247D01*
X153656762Y-57664956D01*
X153656760Y-57664955D01*
X153500001Y-57644318D01*
X153499999Y-57644318D01*
X153343239Y-57664955D01*
X153343237Y-57664956D01*
X153197160Y-57725463D01*
X153071718Y-57821718D01*
X152975463Y-57947160D01*
X152914956Y-58093237D01*
X152914955Y-58093239D01*
X152894318Y-58249998D01*
X147388230Y-58249998D01*
X147385083Y-58197207D01*
X147419292Y-58136285D01*
X147426680Y-58129883D01*
X147428277Y-58128286D01*
X147428277Y-58128285D01*
X147428282Y-58128282D01*
X147524536Y-58002841D01*
X147585044Y-57856762D01*
X147605682Y-57700000D01*
X147601068Y-57664956D01*
X147585044Y-57543239D01*
X147585044Y-57543238D01*
X147524536Y-57397159D01*
X147428282Y-57271718D01*
X147302841Y-57175464D01*
X147156762Y-57114956D01*
X147156760Y-57114955D01*
X147000001Y-57094318D01*
X146999999Y-57094318D01*
X146843239Y-57114955D01*
X146843237Y-57114956D01*
X146697160Y-57175463D01*
X146571718Y-57271718D01*
X146475463Y-57397160D01*
X146414956Y-57543237D01*
X146414955Y-57543239D01*
X146394318Y-57699998D01*
X143101777Y-57699998D01*
X143040841Y-57625746D01*
X142880883Y-57494474D01*
X142880884Y-57494474D01*
X142880881Y-57494472D01*
X142698385Y-57396925D01*
X142500365Y-57336857D01*
X142500363Y-57336856D01*
X142500365Y-57336856D01*
X142294431Y-57316574D01*
X142088498Y-57336856D01*
X141890474Y-57396926D01*
X141780329Y-57455800D01*
X141707981Y-57494472D01*
X141707979Y-57494473D01*
X141707978Y-57494474D01*
X141548020Y-57625746D01*
X141416748Y-57785704D01*
X141319200Y-57968200D01*
X141259130Y-58166224D01*
X141238848Y-58372157D01*
X140300000Y-58372157D01*
X140300000Y-55279998D01*
X143784318Y-55279998D01*
X143784318Y-55280001D01*
X143804955Y-55436760D01*
X143804956Y-55436762D01*
X143865464Y-55582841D01*
X143961718Y-55708282D01*
X144087159Y-55804536D01*
X144233238Y-55865044D01*
X144311619Y-55875363D01*
X144389999Y-55885682D01*
X144390000Y-55885682D01*
X144390001Y-55885682D01*
X144442254Y-55878802D01*
X144546762Y-55865044D01*
X144692841Y-55804536D01*
X144818282Y-55708282D01*
X144914536Y-55582841D01*
X144975044Y-55436762D01*
X144995682Y-55280000D01*
X144990188Y-55238272D01*
X144975044Y-55123239D01*
X144975044Y-55123238D01*
X144914536Y-54977159D01*
X144818282Y-54851718D01*
X144692841Y-54755464D01*
X144546762Y-54694956D01*
X144546760Y-54694955D01*
X144390001Y-54674318D01*
X144389999Y-54674318D01*
X144233239Y-54694955D01*
X144233237Y-54694956D01*
X144087160Y-54755463D01*
X143961718Y-54851718D01*
X143865463Y-54977160D01*
X143804956Y-55123237D01*
X143804955Y-55123239D01*
X143784318Y-55279998D01*
X140300000Y-55279998D01*
X140300000Y-54299998D01*
X149734944Y-54299998D01*
X149734944Y-54300001D01*
X149755581Y-54456760D01*
X149755582Y-54456762D01*
X149816090Y-54602841D01*
X149912344Y-54728282D01*
X150037785Y-54824536D01*
X150183864Y-54885044D01*
X150262245Y-54895363D01*
X150340625Y-54905682D01*
X150340626Y-54905682D01*
X150340627Y-54905682D01*
X150392880Y-54898802D01*
X150497388Y-54885044D01*
X150643467Y-54824536D01*
X150711542Y-54772300D01*
X150776708Y-54747106D01*
X150845153Y-54761144D01*
X150895144Y-54809957D01*
X150909966Y-54854490D01*
X150913989Y-54885044D01*
X150924746Y-54966753D01*
X150985254Y-55112832D01*
X151081508Y-55238273D01*
X151206949Y-55334527D01*
X151353028Y-55395035D01*
X151431409Y-55405354D01*
X151509789Y-55415673D01*
X151509790Y-55415673D01*
X151509791Y-55415673D01*
X151562044Y-55408793D01*
X151666552Y-55395035D01*
X151812631Y-55334527D01*
X151938072Y-55238273D01*
X152034326Y-55112832D01*
X152094834Y-54966753D01*
X152115472Y-54809991D01*
X152108293Y-54755464D01*
X152094834Y-54653230D01*
X152094834Y-54653229D01*
X152034326Y-54507150D01*
X151938072Y-54381709D01*
X151812631Y-54285455D01*
X151666552Y-54224947D01*
X151666550Y-54224946D01*
X151509791Y-54204309D01*
X151509789Y-54204309D01*
X151353029Y-54224946D01*
X151353027Y-54224947D01*
X151206947Y-54285455D01*
X151138874Y-54337690D01*
X151073705Y-54362884D01*
X151005260Y-54348845D01*
X150955270Y-54300031D01*
X150940449Y-54255499D01*
X150925670Y-54143239D01*
X150925670Y-54143238D01*
X150865162Y-53997159D01*
X150768908Y-53871718D01*
X150643467Y-53775464D01*
X150497388Y-53714956D01*
X150497386Y-53714955D01*
X150340627Y-53694318D01*
X150340625Y-53694318D01*
X150183865Y-53714955D01*
X150183863Y-53714956D01*
X150037786Y-53775463D01*
X149912344Y-53871718D01*
X149816089Y-53997160D01*
X149755582Y-54143237D01*
X149755581Y-54143239D01*
X149734944Y-54299998D01*
X140300000Y-54299998D01*
X140300000Y-50580000D01*
X140760000Y-50580000D01*
X140760000Y-53570000D01*
X141863333Y-53573333D01*
X144069998Y-53580000D01*
X144069998Y-53579999D01*
X144070000Y-53580000D01*
X144080000Y-50580000D01*
X142226347Y-50580000D01*
X142159308Y-50560315D01*
X142113553Y-50507511D01*
X142103609Y-50438353D01*
X142132634Y-50374797D01*
X142150860Y-50357625D01*
X142174342Y-50339606D01*
X142174341Y-50339606D01*
X142174345Y-50339604D01*
X142270599Y-50214163D01*
X142331107Y-50068084D01*
X142351745Y-49911322D01*
X142331107Y-49754560D01*
X142270599Y-49608481D01*
X142174345Y-49483040D01*
X142048904Y-49386786D01*
X141902825Y-49326278D01*
X141902823Y-49326277D01*
X141746064Y-49305640D01*
X141746062Y-49305640D01*
X141589302Y-49326277D01*
X141589300Y-49326278D01*
X141443223Y-49386785D01*
X141317781Y-49483040D01*
X141221526Y-49608482D01*
X141161019Y-49754559D01*
X141161018Y-49754561D01*
X141140381Y-49911320D01*
X141140381Y-49911323D01*
X141161018Y-50068082D01*
X141161019Y-50068084D01*
X141221527Y-50214163D01*
X141317781Y-50339604D01*
X141317783Y-50339606D01*
X141341266Y-50357625D01*
X141382469Y-50414053D01*
X141386623Y-50483799D01*
X141352410Y-50544719D01*
X141290692Y-50577471D01*
X141265779Y-50580000D01*
X140760000Y-50580000D01*
X140300000Y-50580000D01*
X140300000Y-45655513D01*
X140799500Y-45655513D01*
X140799500Y-45844486D01*
X140829059Y-46031118D01*
X140887454Y-46210836D01*
X140973240Y-46379199D01*
X141084310Y-46532073D01*
X141217927Y-46665690D01*
X141370801Y-46776760D01*
X141450347Y-46817290D01*
X141539163Y-46862545D01*
X141539165Y-46862545D01*
X141539168Y-46862547D01*
X141635497Y-46893846D01*
X141718881Y-46920940D01*
X141905514Y-46950500D01*
X141905519Y-46950500D01*
X142094486Y-46950500D01*
X142281118Y-46920940D01*
X142460832Y-46862547D01*
X142629199Y-46776760D01*
X142782073Y-46665690D01*
X142915690Y-46532073D01*
X143026760Y-46379199D01*
X143112547Y-46210832D01*
X143170940Y-46031118D01*
X143171991Y-46024481D01*
X143200500Y-45844486D01*
X143200500Y-45835513D01*
X157909500Y-45835513D01*
X157909500Y-46024486D01*
X157939059Y-46211118D01*
X157997454Y-46390836D01*
X158069419Y-46532074D01*
X158083240Y-46559199D01*
X158194310Y-46712073D01*
X158327927Y-46845690D01*
X158480801Y-46956760D01*
X158560347Y-46997290D01*
X158649163Y-47042545D01*
X158649165Y-47042545D01*
X158649168Y-47042547D01*
X158745497Y-47073846D01*
X158828881Y-47100940D01*
X159015514Y-47130500D01*
X159015519Y-47130500D01*
X159204486Y-47130500D01*
X159391118Y-47100940D01*
X159570832Y-47042547D01*
X159739199Y-46956760D01*
X159892073Y-46845690D01*
X160025690Y-46712073D01*
X160136760Y-46559199D01*
X160222547Y-46390832D01*
X160280940Y-46211118D01*
X160280985Y-46210832D01*
X160310500Y-46024486D01*
X160310500Y-45835513D01*
X160280940Y-45648881D01*
X160222545Y-45469163D01*
X160136759Y-45300800D01*
X160128304Y-45289163D01*
X160025690Y-45147927D01*
X159892073Y-45014310D01*
X159739199Y-44903240D01*
X159570836Y-44817454D01*
X159391118Y-44759059D01*
X159204486Y-44729500D01*
X159204481Y-44729500D01*
X159015519Y-44729500D01*
X159015514Y-44729500D01*
X158828881Y-44759059D01*
X158649163Y-44817454D01*
X158480800Y-44903240D01*
X158393579Y-44966610D01*
X158327927Y-45014310D01*
X158327925Y-45014312D01*
X158327924Y-45014312D01*
X158194312Y-45147924D01*
X158194312Y-45147925D01*
X158194310Y-45147927D01*
X158146610Y-45213579D01*
X158083240Y-45300800D01*
X157997454Y-45469163D01*
X157939059Y-45648881D01*
X157909500Y-45835513D01*
X143200500Y-45835513D01*
X143200500Y-45655513D01*
X143170940Y-45468881D01*
X143143846Y-45385497D01*
X143112547Y-45289168D01*
X143112545Y-45289165D01*
X143112545Y-45289163D01*
X143040580Y-45147925D01*
X143026760Y-45120801D01*
X142915690Y-44967927D01*
X142782073Y-44834310D01*
X142629199Y-44723240D01*
X142460836Y-44637454D01*
X142281118Y-44579059D01*
X142094486Y-44549500D01*
X142094481Y-44549500D01*
X141905519Y-44549500D01*
X141905514Y-44549500D01*
X141718881Y-44579059D01*
X141539163Y-44637454D01*
X141370800Y-44723240D01*
X141321499Y-44759060D01*
X141217927Y-44834310D01*
X141217925Y-44834312D01*
X141217924Y-44834312D01*
X141084312Y-44967924D01*
X141084312Y-44967925D01*
X141084310Y-44967927D01*
X141050611Y-45014310D01*
X140973240Y-45120800D01*
X140887454Y-45289163D01*
X140829059Y-45468881D01*
X140799500Y-45655513D01*
X140300000Y-45655513D01*
X140300000Y-44224000D01*
X140319685Y-44156961D01*
X140372489Y-44111206D01*
X140424000Y-44100000D01*
X149850000Y-44100000D01*
X149850000Y-37024000D01*
X149869685Y-36956961D01*
X149922489Y-36911206D01*
X149974000Y-36900000D01*
X161726000Y-36900000D01*
X161793039Y-36919685D01*
G37*
%TD.AperFunction*%
%TD*%
M02*
