M48
; DRILL file {KiCad 8.0.8} date 2025-05-28T20:16:58-0400
; FORMAT={-:-/ absolute / inch / decimal}
; #@! TF.CreationDate,2025-05-28T20:16:58-04:00
; #@! TF.GenerationSoftware,Kicad,Pcbnew,8.0.8
; #@! TF.FileFunction,Plated,1,4,PTH
FMAT,2
INCH
; #@! TA.AperFunction,Plated,PTH,ComponentDrill
T1C0.0079
; #@! TA.AperFunction,Plated,PTH,ViaDrill
T2C0.0118
; #@! TA.AperFunction,Plated,PTH,ComponentDrill
T3C0.0118
; #@! TA.AperFunction,Plated,PTH,ViaDrill
T4C0.0157
; #@! TA.AperFunction,Plated,PTH,ComponentDrill
T5C0.0236
; #@! TA.AperFunction,Plated,PTH,ComponentDrill
T6C0.0394
; #@! TA.AperFunction,Plated,PTH,ComponentDrill
T7C0.0472
%
G90
G05
T1
X5.9646Y-3.5827
X5.9646Y-3.6614
X6.0433Y-3.5827
X6.0433Y-3.6614
T2
X5.0295Y-3.5236
X5.1535Y-3.766
X5.4035Y-3.5236
X5.4035Y-3.5728
X5.4232Y-3.7795
T3
X6.0191Y-2.7266
X6.0191Y-2.7659
X6.0486Y-2.7463
X6.0781Y-2.7266
X6.0781Y-2.7659
T4
X5.063Y-3.8714
X5.0689Y-3.5827
X5.0849Y-3.8272
X5.0863Y-3.7619
X5.0984Y-4.0453
X5.1181Y-3.7244
X5.128Y-4.0846
X5.1772Y-4.0846
X5.1917Y-3.8642
X5.1941Y-3.815
X5.1969Y-4.0177
X5.2264Y-4.0846
X5.2383Y-4.0098
X5.2756Y-4.0846
X5.3248Y-4.0846
X5.3251Y-3.7055
X5.3445Y-4.0453
X5.5236Y-4.2382
X5.5413Y-1.9685
X5.5413Y-2.2441
X5.5413Y-2.5492
X5.5492Y-3.4602
X5.5512Y-2.687
X5.5512Y-2.8051
X5.5512Y-3.1684
X5.5535Y-1.861
X5.5571Y-3.7154
X5.5591Y-2.9606
X5.561Y-2.1654
X5.5709Y-3.1339
X5.5806Y-1.965
X5.5846Y-3.0209
X5.5866Y-4.2362
X5.5929Y-1.8831
X5.5984Y-3.2283
X5.6004Y-2.7461
X5.6142Y-3.6969
X5.6299Y-3.878
X5.6299Y-3.9272
X5.6323Y-1.8587
X5.6419Y-3.2593
X5.6575Y-2.2244
X5.6703Y-2.9409
X5.6717Y-1.7508
X5.6814Y-3.2126
X5.6816Y-4.2705
X5.6846Y-2.1764
X5.6978Y-4.1819
X5.711Y-1.7508
X5.7136Y-3.4941
X5.7155Y-3.2741
X5.7207Y-3.2089
X5.7212Y-3.3183
X5.7313Y-3.5294
X5.7313Y-3.5748
X5.7382Y-2.815
X5.7382Y-2.8642
X5.749Y-3.6339
X5.7504Y-1.7508
X5.7559Y-3.8228
X5.7715Y-3.4696
X5.7776Y-1.9783
X5.7776Y-2.3819
X5.7795Y-3.9094
X5.7874Y-2.2717
X5.7874Y-2.313
X5.7898Y-1.7508
X5.7913Y-3.6339
X5.8197Y-3.303
X5.8198Y-3.2628
X5.8228Y-3.937
X5.8276Y-1.9488
X5.8303Y-3.5622
X5.8307Y-1.752
X5.8336Y-3.0045
X5.8425Y-2.7795
X5.8492Y-4.1859
X5.8542Y-3.2437
X5.8543Y-2.8386
X5.8574Y-3.6193
X5.8583Y-2.8858
X5.8622Y-4.1063
X5.8661Y-1.9488
X5.8677Y-3.5743
X5.8696Y-3.657
X5.874Y-3.0039
X5.9055Y-1.9488
X5.9134Y-2.8386
X5.9173Y-1.5956
X5.9173Y-1.631
X5.9173Y-2.9567
X5.9173Y-3.874
X5.9189Y-2.1378
X5.9213Y-1.5011
X5.9297Y-3.3571
X5.936Y-3.6898
X5.9449Y-1.9488
X5.9528Y-1.6575
X5.9537Y-3.0433
X5.9567Y-2.9961
X5.9606Y-2.8307
X5.963Y-3.2089
X5.9637Y-3.3355
X5.965Y-2.1579
X5.9701Y-3.7591
X5.9724Y-3.9803
X5.9724Y-4.0394
X5.9843Y-1.9488
X5.9921Y-1.6862
X5.9961Y-1.5484
X5.9961Y-3.2608
X6.0003Y-3.2215
X6.003Y-3.3386
X6.0118Y-3.9449
X6.0146Y-3.7492
X6.0197Y-1.4854
X6.0197Y-2.8937
X6.0201Y-3.8423
X6.0236Y-1.5759
X6.0315Y-1.7087
X6.0315Y-1.9488
X6.039Y-3.5031
X6.0433Y-1.5326
X6.0433Y-2.2933
X6.0433Y-3.0079
X6.0472Y-2.1102
X6.0475Y-2.5691
X6.0502Y-3.2608
X6.052Y-3.8906
X6.0591Y-1.7362
X6.067Y-2.8921
X6.0728Y-3.1201
X6.0771Y-2.4803
X6.0771Y-2.6183
X6.0779Y-2.5224
X6.0787Y-1.5838
X6.0831Y-1.4854
X6.0851Y-3.4267
X6.0866Y-1.6665
X6.0866Y-1.7756
X6.0866Y-1.815
X6.0866Y-1.8661
X6.0866Y-1.9079
X6.0866Y-1.9472
X6.0906Y-2.2756
X6.0925Y-2.3425
X6.0933Y-3.8902
X6.1024Y-2.1339
X6.1044Y-3.7096
X6.1063Y-3.0118
X6.1142Y-1.698
X6.1301Y-3.4009
X6.1339Y-2.4724
X6.1417Y-1.7255
X6.1457Y-2.3425
X6.1465Y-1.4862
X6.1534Y-3.3551
X6.1535Y-2.5197
X6.1535Y-3.4488
X6.1614Y-1.8073
X6.1614Y-1.8465
X6.1614Y-1.9305
X6.1614Y-1.9697
X6.1614Y-2.1358
X6.1618Y-1.7626
X6.1618Y-1.8913
X6.1669Y-2.8518
X6.1693Y-3.4042
X6.177Y-2.8051
X6.1811Y-2.6673
X6.1811Y-3.1235
X6.1827Y-3.672
X6.1827Y-3.7122
X6.1827Y-3.7524
X6.1836Y-3.5938
X6.1836Y-3.634
X6.1847Y-3.2982
X6.185Y-2.252
X6.1886Y-3.828
X6.1954Y-2.9596
X6.1968Y-2.4946
X6.1968Y-2.5358
X6.1968Y-2.5769
X6.1968Y-2.6181
X6.1998Y-3.2008
X6.2004Y-3.9512
X6.2098Y-1.4862
X6.2129Y-2.3774
X6.2209Y-2.0399
X6.2209Y-2.0801
X6.2209Y-2.1203
X6.2209Y-2.1606
X6.2209Y-2.2008
X6.248Y-3.4948
X6.2732Y-1.4862
X6.3366Y-1.4862
X6.3366Y-1.569
X6.3366Y-1.6487
X6.3366Y-1.7283
X6.3366Y-1.8975
X6.3366Y-1.9771
X6.3366Y-2.0568
X6.3366Y-2.1365
X6.3386Y-1.815
T6
X5.0638Y-3.4546
X5.1638Y-3.4546
X5.2638Y-3.4546
X5.3638Y-3.4546
X5.6004Y-3.3154
X5.6004Y-3.4154
X5.6004Y-3.5154
X5.6004Y-3.6154
X5.6021Y-2.2981
X5.6021Y-2.3981
X5.6021Y-2.4981
X6.3142Y-3.2516
X6.3142Y-3.3516
X6.3142Y-3.4516
X6.3142Y-3.5516
X6.3142Y-3.7033
X6.3142Y-3.8033
X6.3142Y-3.9033
X6.3142Y-4.0033
X6.3142Y-4.1033
X6.315Y-2.3063
X6.315Y-2.4063
X6.315Y-2.5063
X6.315Y-2.6063
X6.315Y-2.7063
X6.315Y-2.8063
X6.315Y-2.9063
X6.315Y-3.0063
X6.315Y-3.1063
T7
X5.9329Y-4.1601
X6.0595Y-4.1601
X6.1861Y-4.1601
T5
G00X5.0534Y-3.951
M15
G01X5.0534Y-3.9943
M16
G05
G00X5.0534Y-4.1215
M15
G01X5.0534Y-4.153
M16
G05
G00X5.3936Y-3.951
M15
G01X5.3936Y-3.9943
M16
G05
G00X5.3936Y-4.1215
M15
G01X5.3936Y-4.153
M16
G05
M30
