%TF.GenerationSoftware,KiCad,Pcbnew,8.0.8*%
%TF.CreationDate,2025-05-28T20:16:58-04:00*%
%TF.ProjectId,Tiny4FSK,54696e79-3446-4534-9b2e-6b696361645f,rev?*%
%TF.SameCoordinates,Original*%
%TF.FileFunction,Drillmap*%
%TF.FilePolarity,Positive*%
%FSLAX45Y45*%
G04 Gerber Fmt 4.5, Leading zero omitted, Abs format (unit mm)*
G04 Created by KiCad (PCBNEW 8.0.8) date 2025-05-28 20:16:58*
%MOMM*%
%LPD*%
G01*
G04 APERTURE LIST*
%ADD10C,0.100000*%
%ADD11C,0.200000*%
%ADD12C,0.220000*%
G04 APERTURE END LIST*
D10*
X14025000Y-10695000D02*
X13825000Y-10620000D01*
X13825000Y-8800000D01*
X14025000Y-8700000D01*
X14025000Y-10695000D01*
X16185000Y-10810000D02*
X14525000Y-10810000D01*
X14525000Y-10920000D01*
X14525000Y-11320000D01*
X14030000Y-11320000D01*
X14030000Y-10845000D01*
X12675000Y-10845000D01*
X12675000Y-8601426D01*
X14030000Y-8601426D01*
X14030000Y-3690000D01*
X16185000Y-3690000D01*
X16185000Y-10810000D01*
D11*
D10*
X12946178Y-10108014D02*
X13011178Y-10173014D01*
X13011178Y-10108014D02*
X12946178Y-10173014D01*
X13524178Y-10108014D02*
X13589178Y-10173014D01*
X13589178Y-10108014D02*
X13524178Y-10173014D01*
X14263922Y-6825008D02*
G75*
G02*
X14173922Y-6825008I-45000J0D01*
G01*
X14173922Y-6825008D02*
G75*
G02*
X14263922Y-6825008I45000J0D01*
G01*
X14263922Y-7125008D02*
G75*
G02*
X14173922Y-7125008I-45000J0D01*
G01*
X14173922Y-7125008D02*
G75*
G02*
X14263922Y-7125008I45000J0D01*
G01*
D12*
X14200000Y-4465000D02*
X14200000Y-4685000D01*
X14090000Y-4575000D02*
X14310000Y-4575000D01*
X14274030Y-10947656D02*
X14274030Y-11167656D01*
X14164030Y-11057656D02*
X14384030Y-11057656D01*
X15911000Y-4483000D02*
X15911000Y-4703000D01*
X15801000Y-4593000D02*
X16021000Y-4593000D01*
D11*
X12930777Y-11636484D02*
X12930777Y-11436484D01*
X12930777Y-11436484D02*
X12978396Y-11436484D01*
X12978396Y-11436484D02*
X13006967Y-11446008D01*
X13006967Y-11446008D02*
X13026015Y-11465055D01*
X13026015Y-11465055D02*
X13035539Y-11484103D01*
X13035539Y-11484103D02*
X13045062Y-11522198D01*
X13045062Y-11522198D02*
X13045062Y-11550769D01*
X13045062Y-11550769D02*
X13035539Y-11588865D01*
X13035539Y-11588865D02*
X13026015Y-11607912D01*
X13026015Y-11607912D02*
X13006967Y-11626960D01*
X13006967Y-11626960D02*
X12978396Y-11636484D01*
X12978396Y-11636484D02*
X12930777Y-11636484D01*
X13130777Y-11636484D02*
X13130777Y-11503150D01*
X13130777Y-11541246D02*
X13140301Y-11522198D01*
X13140301Y-11522198D02*
X13149824Y-11512674D01*
X13149824Y-11512674D02*
X13168872Y-11503150D01*
X13168872Y-11503150D02*
X13187920Y-11503150D01*
X13254586Y-11636484D02*
X13254586Y-11503150D01*
X13254586Y-11436484D02*
X13245062Y-11446008D01*
X13245062Y-11446008D02*
X13254586Y-11455531D01*
X13254586Y-11455531D02*
X13264110Y-11446008D01*
X13264110Y-11446008D02*
X13254586Y-11436484D01*
X13254586Y-11436484D02*
X13254586Y-11455531D01*
X13378396Y-11636484D02*
X13359348Y-11626960D01*
X13359348Y-11626960D02*
X13349824Y-11607912D01*
X13349824Y-11607912D02*
X13349824Y-11436484D01*
X13483158Y-11636484D02*
X13464110Y-11626960D01*
X13464110Y-11626960D02*
X13454586Y-11607912D01*
X13454586Y-11607912D02*
X13454586Y-11436484D01*
X13711729Y-11636484D02*
X13711729Y-11436484D01*
X13711729Y-11436484D02*
X13778396Y-11579341D01*
X13778396Y-11579341D02*
X13845062Y-11436484D01*
X13845062Y-11436484D02*
X13845062Y-11636484D01*
X14026015Y-11636484D02*
X14026015Y-11531722D01*
X14026015Y-11531722D02*
X14016491Y-11512674D01*
X14016491Y-11512674D02*
X13997443Y-11503150D01*
X13997443Y-11503150D02*
X13959348Y-11503150D01*
X13959348Y-11503150D02*
X13940301Y-11512674D01*
X14026015Y-11626960D02*
X14006967Y-11636484D01*
X14006967Y-11636484D02*
X13959348Y-11636484D01*
X13959348Y-11636484D02*
X13940301Y-11626960D01*
X13940301Y-11626960D02*
X13930777Y-11607912D01*
X13930777Y-11607912D02*
X13930777Y-11588865D01*
X13930777Y-11588865D02*
X13940301Y-11569817D01*
X13940301Y-11569817D02*
X13959348Y-11560293D01*
X13959348Y-11560293D02*
X14006967Y-11560293D01*
X14006967Y-11560293D02*
X14026015Y-11550769D01*
X14121253Y-11503150D02*
X14121253Y-11703150D01*
X14121253Y-11512674D02*
X14140301Y-11503150D01*
X14140301Y-11503150D02*
X14178396Y-11503150D01*
X14178396Y-11503150D02*
X14197443Y-11512674D01*
X14197443Y-11512674D02*
X14206967Y-11522198D01*
X14206967Y-11522198D02*
X14216491Y-11541246D01*
X14216491Y-11541246D02*
X14216491Y-11598388D01*
X14216491Y-11598388D02*
X14206967Y-11617436D01*
X14206967Y-11617436D02*
X14197443Y-11626960D01*
X14197443Y-11626960D02*
X14178396Y-11636484D01*
X14178396Y-11636484D02*
X14140301Y-11636484D01*
X14140301Y-11636484D02*
X14121253Y-11626960D01*
X14302205Y-11617436D02*
X14311729Y-11626960D01*
X14311729Y-11626960D02*
X14302205Y-11636484D01*
X14302205Y-11636484D02*
X14292682Y-11626960D01*
X14292682Y-11626960D02*
X14302205Y-11617436D01*
X14302205Y-11617436D02*
X14302205Y-11636484D01*
X14302205Y-11512674D02*
X14311729Y-11522198D01*
X14311729Y-11522198D02*
X14302205Y-11531722D01*
X14302205Y-11531722D02*
X14292682Y-11522198D01*
X14292682Y-11522198D02*
X14302205Y-11512674D01*
X14302205Y-11512674D02*
X14302205Y-11531722D01*
D10*
X12605000Y-11932500D02*
X12670000Y-11997500D01*
X12670000Y-11932500D02*
X12605000Y-11997500D01*
D11*
X12968872Y-11856484D02*
X12987920Y-11856484D01*
X12987920Y-11856484D02*
X13006967Y-11866008D01*
X13006967Y-11866008D02*
X13016491Y-11875531D01*
X13016491Y-11875531D02*
X13026015Y-11894579D01*
X13026015Y-11894579D02*
X13035539Y-11932674D01*
X13035539Y-11932674D02*
X13035539Y-11980293D01*
X13035539Y-11980293D02*
X13026015Y-12018388D01*
X13026015Y-12018388D02*
X13016491Y-12037436D01*
X13016491Y-12037436D02*
X13006967Y-12046960D01*
X13006967Y-12046960D02*
X12987920Y-12056484D01*
X12987920Y-12056484D02*
X12968872Y-12056484D01*
X12968872Y-12056484D02*
X12949824Y-12046960D01*
X12949824Y-12046960D02*
X12940301Y-12037436D01*
X12940301Y-12037436D02*
X12930777Y-12018388D01*
X12930777Y-12018388D02*
X12921253Y-11980293D01*
X12921253Y-11980293D02*
X12921253Y-11932674D01*
X12921253Y-11932674D02*
X12930777Y-11894579D01*
X12930777Y-11894579D02*
X12940301Y-11875531D01*
X12940301Y-11875531D02*
X12949824Y-11866008D01*
X12949824Y-11866008D02*
X12968872Y-11856484D01*
X13121253Y-12037436D02*
X13130777Y-12046960D01*
X13130777Y-12046960D02*
X13121253Y-12056484D01*
X13121253Y-12056484D02*
X13111729Y-12046960D01*
X13111729Y-12046960D02*
X13121253Y-12037436D01*
X13121253Y-12037436D02*
X13121253Y-12056484D01*
X13302205Y-11856484D02*
X13264110Y-11856484D01*
X13264110Y-11856484D02*
X13245062Y-11866008D01*
X13245062Y-11866008D02*
X13235539Y-11875531D01*
X13235539Y-11875531D02*
X13216491Y-11904103D01*
X13216491Y-11904103D02*
X13206967Y-11942198D01*
X13206967Y-11942198D02*
X13206967Y-12018388D01*
X13206967Y-12018388D02*
X13216491Y-12037436D01*
X13216491Y-12037436D02*
X13226015Y-12046960D01*
X13226015Y-12046960D02*
X13245062Y-12056484D01*
X13245062Y-12056484D02*
X13283158Y-12056484D01*
X13283158Y-12056484D02*
X13302205Y-12046960D01*
X13302205Y-12046960D02*
X13311729Y-12037436D01*
X13311729Y-12037436D02*
X13321253Y-12018388D01*
X13321253Y-12018388D02*
X13321253Y-11970769D01*
X13321253Y-11970769D02*
X13311729Y-11951722D01*
X13311729Y-11951722D02*
X13302205Y-11942198D01*
X13302205Y-11942198D02*
X13283158Y-11932674D01*
X13283158Y-11932674D02*
X13245062Y-11932674D01*
X13245062Y-11932674D02*
X13226015Y-11942198D01*
X13226015Y-11942198D02*
X13216491Y-11951722D01*
X13216491Y-11951722D02*
X13206967Y-11970769D01*
X13502205Y-11856484D02*
X13406967Y-11856484D01*
X13406967Y-11856484D02*
X13397443Y-11951722D01*
X13397443Y-11951722D02*
X13406967Y-11942198D01*
X13406967Y-11942198D02*
X13426015Y-11932674D01*
X13426015Y-11932674D02*
X13473634Y-11932674D01*
X13473634Y-11932674D02*
X13492682Y-11942198D01*
X13492682Y-11942198D02*
X13502205Y-11951722D01*
X13502205Y-11951722D02*
X13511729Y-11970769D01*
X13511729Y-11970769D02*
X13511729Y-12018388D01*
X13511729Y-12018388D02*
X13502205Y-12037436D01*
X13502205Y-12037436D02*
X13492682Y-12046960D01*
X13492682Y-12046960D02*
X13473634Y-12056484D01*
X13473634Y-12056484D02*
X13426015Y-12056484D01*
X13426015Y-12056484D02*
X13406967Y-12046960D01*
X13406967Y-12046960D02*
X13397443Y-12037436D01*
X13635539Y-11856484D02*
X13654586Y-11856484D01*
X13654586Y-11856484D02*
X13673634Y-11866008D01*
X13673634Y-11866008D02*
X13683158Y-11875531D01*
X13683158Y-11875531D02*
X13692682Y-11894579D01*
X13692682Y-11894579D02*
X13702205Y-11932674D01*
X13702205Y-11932674D02*
X13702205Y-11980293D01*
X13702205Y-11980293D02*
X13692682Y-12018388D01*
X13692682Y-12018388D02*
X13683158Y-12037436D01*
X13683158Y-12037436D02*
X13673634Y-12046960D01*
X13673634Y-12046960D02*
X13654586Y-12056484D01*
X13654586Y-12056484D02*
X13635539Y-12056484D01*
X13635539Y-12056484D02*
X13616491Y-12046960D01*
X13616491Y-12046960D02*
X13606967Y-12037436D01*
X13606967Y-12037436D02*
X13597443Y-12018388D01*
X13597443Y-12018388D02*
X13587920Y-11980293D01*
X13587920Y-11980293D02*
X13587920Y-11932674D01*
X13587920Y-11932674D02*
X13597443Y-11894579D01*
X13597443Y-11894579D02*
X13606967Y-11875531D01*
X13606967Y-11875531D02*
X13616491Y-11866008D01*
X13616491Y-11866008D02*
X13635539Y-11856484D01*
X13787920Y-12056484D02*
X13787920Y-11923150D01*
X13787920Y-11942198D02*
X13797443Y-11932674D01*
X13797443Y-11932674D02*
X13816491Y-11923150D01*
X13816491Y-11923150D02*
X13845063Y-11923150D01*
X13845063Y-11923150D02*
X13864110Y-11932674D01*
X13864110Y-11932674D02*
X13873634Y-11951722D01*
X13873634Y-11951722D02*
X13873634Y-12056484D01*
X13873634Y-11951722D02*
X13883158Y-11932674D01*
X13883158Y-11932674D02*
X13902205Y-11923150D01*
X13902205Y-11923150D02*
X13930777Y-11923150D01*
X13930777Y-11923150D02*
X13949824Y-11932674D01*
X13949824Y-11932674D02*
X13959348Y-11951722D01*
X13959348Y-11951722D02*
X13959348Y-12056484D01*
X14054586Y-12056484D02*
X14054586Y-11923150D01*
X14054586Y-11942198D02*
X14064110Y-11932674D01*
X14064110Y-11932674D02*
X14083158Y-11923150D01*
X14083158Y-11923150D02*
X14111729Y-11923150D01*
X14111729Y-11923150D02*
X14130777Y-11932674D01*
X14130777Y-11932674D02*
X14140301Y-11951722D01*
X14140301Y-11951722D02*
X14140301Y-12056484D01*
X14140301Y-11951722D02*
X14149824Y-11932674D01*
X14149824Y-11932674D02*
X14168872Y-11923150D01*
X14168872Y-11923150D02*
X14197443Y-11923150D01*
X14197443Y-11923150D02*
X14216491Y-11932674D01*
X14216491Y-11932674D02*
X14226015Y-11951722D01*
X14226015Y-11951722D02*
X14226015Y-12056484D01*
X14616491Y-11846960D02*
X14445063Y-12104103D01*
X14873634Y-11856484D02*
X14892682Y-11856484D01*
X14892682Y-11856484D02*
X14911729Y-11866008D01*
X14911729Y-11866008D02*
X14921253Y-11875531D01*
X14921253Y-11875531D02*
X14930777Y-11894579D01*
X14930777Y-11894579D02*
X14940301Y-11932674D01*
X14940301Y-11932674D02*
X14940301Y-11980293D01*
X14940301Y-11980293D02*
X14930777Y-12018388D01*
X14930777Y-12018388D02*
X14921253Y-12037436D01*
X14921253Y-12037436D02*
X14911729Y-12046960D01*
X14911729Y-12046960D02*
X14892682Y-12056484D01*
X14892682Y-12056484D02*
X14873634Y-12056484D01*
X14873634Y-12056484D02*
X14854586Y-12046960D01*
X14854586Y-12046960D02*
X14845063Y-12037436D01*
X14845063Y-12037436D02*
X14835539Y-12018388D01*
X14835539Y-12018388D02*
X14826015Y-11980293D01*
X14826015Y-11980293D02*
X14826015Y-11932674D01*
X14826015Y-11932674D02*
X14835539Y-11894579D01*
X14835539Y-11894579D02*
X14845063Y-11875531D01*
X14845063Y-11875531D02*
X14854586Y-11866008D01*
X14854586Y-11866008D02*
X14873634Y-11856484D01*
X15026015Y-12037436D02*
X15035539Y-12046960D01*
X15035539Y-12046960D02*
X15026015Y-12056484D01*
X15026015Y-12056484D02*
X15016491Y-12046960D01*
X15016491Y-12046960D02*
X15026015Y-12037436D01*
X15026015Y-12037436D02*
X15026015Y-12056484D01*
X15159348Y-11856484D02*
X15178396Y-11856484D01*
X15178396Y-11856484D02*
X15197444Y-11866008D01*
X15197444Y-11866008D02*
X15206967Y-11875531D01*
X15206967Y-11875531D02*
X15216491Y-11894579D01*
X15216491Y-11894579D02*
X15226015Y-11932674D01*
X15226015Y-11932674D02*
X15226015Y-11980293D01*
X15226015Y-11980293D02*
X15216491Y-12018388D01*
X15216491Y-12018388D02*
X15206967Y-12037436D01*
X15206967Y-12037436D02*
X15197444Y-12046960D01*
X15197444Y-12046960D02*
X15178396Y-12056484D01*
X15178396Y-12056484D02*
X15159348Y-12056484D01*
X15159348Y-12056484D02*
X15140301Y-12046960D01*
X15140301Y-12046960D02*
X15130777Y-12037436D01*
X15130777Y-12037436D02*
X15121253Y-12018388D01*
X15121253Y-12018388D02*
X15111729Y-11980293D01*
X15111729Y-11980293D02*
X15111729Y-11932674D01*
X15111729Y-11932674D02*
X15121253Y-11894579D01*
X15121253Y-11894579D02*
X15130777Y-11875531D01*
X15130777Y-11875531D02*
X15140301Y-11866008D01*
X15140301Y-11866008D02*
X15159348Y-11856484D01*
X15302206Y-11875531D02*
X15311729Y-11866008D01*
X15311729Y-11866008D02*
X15330777Y-11856484D01*
X15330777Y-11856484D02*
X15378396Y-11856484D01*
X15378396Y-11856484D02*
X15397444Y-11866008D01*
X15397444Y-11866008D02*
X15406967Y-11875531D01*
X15406967Y-11875531D02*
X15416491Y-11894579D01*
X15416491Y-11894579D02*
X15416491Y-11913627D01*
X15416491Y-11913627D02*
X15406967Y-11942198D01*
X15406967Y-11942198D02*
X15292682Y-12056484D01*
X15292682Y-12056484D02*
X15416491Y-12056484D01*
X15597444Y-11856484D02*
X15502206Y-11856484D01*
X15502206Y-11856484D02*
X15492682Y-11951722D01*
X15492682Y-11951722D02*
X15502206Y-11942198D01*
X15502206Y-11942198D02*
X15521253Y-11932674D01*
X15521253Y-11932674D02*
X15568872Y-11932674D01*
X15568872Y-11932674D02*
X15587920Y-11942198D01*
X15587920Y-11942198D02*
X15597444Y-11951722D01*
X15597444Y-11951722D02*
X15606967Y-11970769D01*
X15606967Y-11970769D02*
X15606967Y-12018388D01*
X15606967Y-12018388D02*
X15597444Y-12037436D01*
X15597444Y-12037436D02*
X15587920Y-12046960D01*
X15587920Y-12046960D02*
X15568872Y-12056484D01*
X15568872Y-12056484D02*
X15521253Y-12056484D01*
X15521253Y-12056484D02*
X15502206Y-12046960D01*
X15502206Y-12046960D02*
X15492682Y-12037436D01*
X15778396Y-11856484D02*
X15740301Y-11856484D01*
X15740301Y-11856484D02*
X15721253Y-11866008D01*
X15721253Y-11866008D02*
X15711729Y-11875531D01*
X15711729Y-11875531D02*
X15692682Y-11904103D01*
X15692682Y-11904103D02*
X15683158Y-11942198D01*
X15683158Y-11942198D02*
X15683158Y-12018388D01*
X15683158Y-12018388D02*
X15692682Y-12037436D01*
X15692682Y-12037436D02*
X15702206Y-12046960D01*
X15702206Y-12046960D02*
X15721253Y-12056484D01*
X15721253Y-12056484D02*
X15759348Y-12056484D01*
X15759348Y-12056484D02*
X15778396Y-12046960D01*
X15778396Y-12046960D02*
X15787920Y-12037436D01*
X15787920Y-12037436D02*
X15797444Y-12018388D01*
X15797444Y-12018388D02*
X15797444Y-11970769D01*
X15797444Y-11970769D02*
X15787920Y-11951722D01*
X15787920Y-11951722D02*
X15778396Y-11942198D01*
X15778396Y-11942198D02*
X15759348Y-11932674D01*
X15759348Y-11932674D02*
X15721253Y-11932674D01*
X15721253Y-11932674D02*
X15702206Y-11942198D01*
X15702206Y-11942198D02*
X15692682Y-11951722D01*
X15692682Y-11951722D02*
X15683158Y-11970769D01*
X15873634Y-11856484D02*
X15873634Y-11894579D01*
X15949825Y-11856484D02*
X15949825Y-11894579D01*
X16245063Y-12132674D02*
X16235539Y-12123150D01*
X16235539Y-12123150D02*
X16216491Y-12094579D01*
X16216491Y-12094579D02*
X16206968Y-12075531D01*
X16206968Y-12075531D02*
X16197444Y-12046960D01*
X16197444Y-12046960D02*
X16187920Y-11999341D01*
X16187920Y-11999341D02*
X16187920Y-11961246D01*
X16187920Y-11961246D02*
X16197444Y-11913627D01*
X16197444Y-11913627D02*
X16206968Y-11885055D01*
X16206968Y-11885055D02*
X16216491Y-11866008D01*
X16216491Y-11866008D02*
X16235539Y-11837436D01*
X16235539Y-11837436D02*
X16245063Y-11827912D01*
X16311729Y-11875531D02*
X16321253Y-11866008D01*
X16321253Y-11866008D02*
X16340301Y-11856484D01*
X16340301Y-11856484D02*
X16387920Y-11856484D01*
X16387920Y-11856484D02*
X16406968Y-11866008D01*
X16406968Y-11866008D02*
X16416491Y-11875531D01*
X16416491Y-11875531D02*
X16426015Y-11894579D01*
X16426015Y-11894579D02*
X16426015Y-11913627D01*
X16426015Y-11913627D02*
X16416491Y-11942198D01*
X16416491Y-11942198D02*
X16302206Y-12056484D01*
X16302206Y-12056484D02*
X16426015Y-12056484D01*
X16664110Y-12056484D02*
X16664110Y-11856484D01*
X16749825Y-12056484D02*
X16749825Y-11951722D01*
X16749825Y-11951722D02*
X16740301Y-11932674D01*
X16740301Y-11932674D02*
X16721253Y-11923150D01*
X16721253Y-11923150D02*
X16692682Y-11923150D01*
X16692682Y-11923150D02*
X16673634Y-11932674D01*
X16673634Y-11932674D02*
X16664110Y-11942198D01*
X16873634Y-12056484D02*
X16854587Y-12046960D01*
X16854587Y-12046960D02*
X16845063Y-12037436D01*
X16845063Y-12037436D02*
X16835539Y-12018388D01*
X16835539Y-12018388D02*
X16835539Y-11961246D01*
X16835539Y-11961246D02*
X16845063Y-11942198D01*
X16845063Y-11942198D02*
X16854587Y-11932674D01*
X16854587Y-11932674D02*
X16873634Y-11923150D01*
X16873634Y-11923150D02*
X16902206Y-11923150D01*
X16902206Y-11923150D02*
X16921253Y-11932674D01*
X16921253Y-11932674D02*
X16930777Y-11942198D01*
X16930777Y-11942198D02*
X16940301Y-11961246D01*
X16940301Y-11961246D02*
X16940301Y-12018388D01*
X16940301Y-12018388D02*
X16930777Y-12037436D01*
X16930777Y-12037436D02*
X16921253Y-12046960D01*
X16921253Y-12046960D02*
X16902206Y-12056484D01*
X16902206Y-12056484D02*
X16873634Y-12056484D01*
X17054587Y-12056484D02*
X17035539Y-12046960D01*
X17035539Y-12046960D02*
X17026015Y-12027912D01*
X17026015Y-12027912D02*
X17026015Y-11856484D01*
X17206968Y-12046960D02*
X17187920Y-12056484D01*
X17187920Y-12056484D02*
X17149825Y-12056484D01*
X17149825Y-12056484D02*
X17130777Y-12046960D01*
X17130777Y-12046960D02*
X17121253Y-12027912D01*
X17121253Y-12027912D02*
X17121253Y-11951722D01*
X17121253Y-11951722D02*
X17130777Y-11932674D01*
X17130777Y-11932674D02*
X17149825Y-11923150D01*
X17149825Y-11923150D02*
X17187920Y-11923150D01*
X17187920Y-11923150D02*
X17206968Y-11932674D01*
X17206968Y-11932674D02*
X17216492Y-11951722D01*
X17216492Y-11951722D02*
X17216492Y-11970769D01*
X17216492Y-11970769D02*
X17121253Y-11989817D01*
X17292682Y-12046960D02*
X17311730Y-12056484D01*
X17311730Y-12056484D02*
X17349825Y-12056484D01*
X17349825Y-12056484D02*
X17368873Y-12046960D01*
X17368873Y-12046960D02*
X17378396Y-12027912D01*
X17378396Y-12027912D02*
X17378396Y-12018388D01*
X17378396Y-12018388D02*
X17368873Y-11999341D01*
X17368873Y-11999341D02*
X17349825Y-11989817D01*
X17349825Y-11989817D02*
X17321253Y-11989817D01*
X17321253Y-11989817D02*
X17302206Y-11980293D01*
X17302206Y-11980293D02*
X17292682Y-11961246D01*
X17292682Y-11961246D02*
X17292682Y-11951722D01*
X17292682Y-11951722D02*
X17302206Y-11932674D01*
X17302206Y-11932674D02*
X17321253Y-11923150D01*
X17321253Y-11923150D02*
X17349825Y-11923150D01*
X17349825Y-11923150D02*
X17368873Y-11932674D01*
X17445063Y-12132674D02*
X17454587Y-12123150D01*
X17454587Y-12123150D02*
X17473634Y-12094579D01*
X17473634Y-12094579D02*
X17483158Y-12075531D01*
X17483158Y-12075531D02*
X17492682Y-12046960D01*
X17492682Y-12046960D02*
X17502206Y-11999341D01*
X17502206Y-11999341D02*
X17502206Y-11961246D01*
X17502206Y-11961246D02*
X17492682Y-11913627D01*
X17492682Y-11913627D02*
X17483158Y-11885055D01*
X17483158Y-11885055D02*
X17473634Y-11866008D01*
X17473634Y-11866008D02*
X17454587Y-11837436D01*
X17454587Y-11837436D02*
X17445063Y-11827912D01*
X17806968Y-12132674D02*
X17797444Y-12123150D01*
X17797444Y-12123150D02*
X17778396Y-12094579D01*
X17778396Y-12094579D02*
X17768873Y-12075531D01*
X17768873Y-12075531D02*
X17759349Y-12046960D01*
X17759349Y-12046960D02*
X17749825Y-11999341D01*
X17749825Y-11999341D02*
X17749825Y-11961246D01*
X17749825Y-11961246D02*
X17759349Y-11913627D01*
X17759349Y-11913627D02*
X17768873Y-11885055D01*
X17768873Y-11885055D02*
X17778396Y-11866008D01*
X17778396Y-11866008D02*
X17797444Y-11837436D01*
X17797444Y-11837436D02*
X17806968Y-11827912D01*
X17883158Y-11923150D02*
X17883158Y-12056484D01*
X17883158Y-11942198D02*
X17892682Y-11932674D01*
X17892682Y-11932674D02*
X17911730Y-11923150D01*
X17911730Y-11923150D02*
X17940301Y-11923150D01*
X17940301Y-11923150D02*
X17959349Y-11932674D01*
X17959349Y-11932674D02*
X17968873Y-11951722D01*
X17968873Y-11951722D02*
X17968873Y-12056484D01*
X18092682Y-12056484D02*
X18073634Y-12046960D01*
X18073634Y-12046960D02*
X18064111Y-12037436D01*
X18064111Y-12037436D02*
X18054587Y-12018388D01*
X18054587Y-12018388D02*
X18054587Y-11961246D01*
X18054587Y-11961246D02*
X18064111Y-11942198D01*
X18064111Y-11942198D02*
X18073634Y-11932674D01*
X18073634Y-11932674D02*
X18092682Y-11923150D01*
X18092682Y-11923150D02*
X18121254Y-11923150D01*
X18121254Y-11923150D02*
X18140301Y-11932674D01*
X18140301Y-11932674D02*
X18149825Y-11942198D01*
X18149825Y-11942198D02*
X18159349Y-11961246D01*
X18159349Y-11961246D02*
X18159349Y-12018388D01*
X18159349Y-12018388D02*
X18149825Y-12037436D01*
X18149825Y-12037436D02*
X18140301Y-12046960D01*
X18140301Y-12046960D02*
X18121254Y-12056484D01*
X18121254Y-12056484D02*
X18092682Y-12056484D01*
X18216492Y-11923150D02*
X18292682Y-11923150D01*
X18245063Y-11856484D02*
X18245063Y-12027912D01*
X18245063Y-12027912D02*
X18254587Y-12046960D01*
X18254587Y-12046960D02*
X18273634Y-12056484D01*
X18273634Y-12056484D02*
X18292682Y-12056484D01*
X18511730Y-11923150D02*
X18511730Y-12123150D01*
X18511730Y-11932674D02*
X18530777Y-11923150D01*
X18530777Y-11923150D02*
X18568873Y-11923150D01*
X18568873Y-11923150D02*
X18587920Y-11932674D01*
X18587920Y-11932674D02*
X18597444Y-11942198D01*
X18597444Y-11942198D02*
X18606968Y-11961246D01*
X18606968Y-11961246D02*
X18606968Y-12018388D01*
X18606968Y-12018388D02*
X18597444Y-12037436D01*
X18597444Y-12037436D02*
X18587920Y-12046960D01*
X18587920Y-12046960D02*
X18568873Y-12056484D01*
X18568873Y-12056484D02*
X18530777Y-12056484D01*
X18530777Y-12056484D02*
X18511730Y-12046960D01*
X18721254Y-12056484D02*
X18702206Y-12046960D01*
X18702206Y-12046960D02*
X18692682Y-12027912D01*
X18692682Y-12027912D02*
X18692682Y-11856484D01*
X18883158Y-12056484D02*
X18883158Y-11951722D01*
X18883158Y-11951722D02*
X18873635Y-11932674D01*
X18873635Y-11932674D02*
X18854587Y-11923150D01*
X18854587Y-11923150D02*
X18816492Y-11923150D01*
X18816492Y-11923150D02*
X18797444Y-11932674D01*
X18883158Y-12046960D02*
X18864111Y-12056484D01*
X18864111Y-12056484D02*
X18816492Y-12056484D01*
X18816492Y-12056484D02*
X18797444Y-12046960D01*
X18797444Y-12046960D02*
X18787920Y-12027912D01*
X18787920Y-12027912D02*
X18787920Y-12008865D01*
X18787920Y-12008865D02*
X18797444Y-11989817D01*
X18797444Y-11989817D02*
X18816492Y-11980293D01*
X18816492Y-11980293D02*
X18864111Y-11980293D01*
X18864111Y-11980293D02*
X18883158Y-11970769D01*
X18949825Y-11923150D02*
X19026015Y-11923150D01*
X18978396Y-11856484D02*
X18978396Y-12027912D01*
X18978396Y-12027912D02*
X18987920Y-12046960D01*
X18987920Y-12046960D02*
X19006968Y-12056484D01*
X19006968Y-12056484D02*
X19026015Y-12056484D01*
X19168873Y-12046960D02*
X19149825Y-12056484D01*
X19149825Y-12056484D02*
X19111730Y-12056484D01*
X19111730Y-12056484D02*
X19092682Y-12046960D01*
X19092682Y-12046960D02*
X19083158Y-12027912D01*
X19083158Y-12027912D02*
X19083158Y-11951722D01*
X19083158Y-11951722D02*
X19092682Y-11932674D01*
X19092682Y-11932674D02*
X19111730Y-11923150D01*
X19111730Y-11923150D02*
X19149825Y-11923150D01*
X19149825Y-11923150D02*
X19168873Y-11932674D01*
X19168873Y-11932674D02*
X19178396Y-11951722D01*
X19178396Y-11951722D02*
X19178396Y-11970769D01*
X19178396Y-11970769D02*
X19083158Y-11989817D01*
X19349825Y-12056484D02*
X19349825Y-11856484D01*
X19349825Y-12046960D02*
X19330777Y-12056484D01*
X19330777Y-12056484D02*
X19292682Y-12056484D01*
X19292682Y-12056484D02*
X19273635Y-12046960D01*
X19273635Y-12046960D02*
X19264111Y-12037436D01*
X19264111Y-12037436D02*
X19254587Y-12018388D01*
X19254587Y-12018388D02*
X19254587Y-11961246D01*
X19254587Y-11961246D02*
X19264111Y-11942198D01*
X19264111Y-11942198D02*
X19273635Y-11932674D01*
X19273635Y-11932674D02*
X19292682Y-11923150D01*
X19292682Y-11923150D02*
X19330777Y-11923150D01*
X19330777Y-11923150D02*
X19349825Y-11932674D01*
X19426016Y-12132674D02*
X19435539Y-12123150D01*
X19435539Y-12123150D02*
X19454587Y-12094579D01*
X19454587Y-12094579D02*
X19464111Y-12075531D01*
X19464111Y-12075531D02*
X19473635Y-12046960D01*
X19473635Y-12046960D02*
X19483158Y-11999341D01*
X19483158Y-11999341D02*
X19483158Y-11961246D01*
X19483158Y-11961246D02*
X19473635Y-11913627D01*
X19473635Y-11913627D02*
X19464111Y-11885055D01*
X19464111Y-11885055D02*
X19454587Y-11866008D01*
X19454587Y-11866008D02*
X19435539Y-11837436D01*
X19435539Y-11837436D02*
X19426016Y-11827912D01*
D10*
X12670000Y-12229000D02*
G75*
G02*
X12580000Y-12229000I-45000J0D01*
G01*
X12580000Y-12229000D02*
G75*
G02*
X12670000Y-12229000I45000J0D01*
G01*
D11*
X12968872Y-12120484D02*
X12987920Y-12120484D01*
X12987920Y-12120484D02*
X13006967Y-12130008D01*
X13006967Y-12130008D02*
X13016491Y-12139531D01*
X13016491Y-12139531D02*
X13026015Y-12158579D01*
X13026015Y-12158579D02*
X13035539Y-12196674D01*
X13035539Y-12196674D02*
X13035539Y-12244293D01*
X13035539Y-12244293D02*
X13026015Y-12282388D01*
X13026015Y-12282388D02*
X13016491Y-12301436D01*
X13016491Y-12301436D02*
X13006967Y-12310960D01*
X13006967Y-12310960D02*
X12987920Y-12320484D01*
X12987920Y-12320484D02*
X12968872Y-12320484D01*
X12968872Y-12320484D02*
X12949824Y-12310960D01*
X12949824Y-12310960D02*
X12940301Y-12301436D01*
X12940301Y-12301436D02*
X12930777Y-12282388D01*
X12930777Y-12282388D02*
X12921253Y-12244293D01*
X12921253Y-12244293D02*
X12921253Y-12196674D01*
X12921253Y-12196674D02*
X12930777Y-12158579D01*
X12930777Y-12158579D02*
X12940301Y-12139531D01*
X12940301Y-12139531D02*
X12949824Y-12130008D01*
X12949824Y-12130008D02*
X12968872Y-12120484D01*
X13121253Y-12301436D02*
X13130777Y-12310960D01*
X13130777Y-12310960D02*
X13121253Y-12320484D01*
X13121253Y-12320484D02*
X13111729Y-12310960D01*
X13111729Y-12310960D02*
X13121253Y-12301436D01*
X13121253Y-12301436D02*
X13121253Y-12320484D01*
X13226015Y-12320484D02*
X13264110Y-12320484D01*
X13264110Y-12320484D02*
X13283158Y-12310960D01*
X13283158Y-12310960D02*
X13292682Y-12301436D01*
X13292682Y-12301436D02*
X13311729Y-12272865D01*
X13311729Y-12272865D02*
X13321253Y-12234769D01*
X13321253Y-12234769D02*
X13321253Y-12158579D01*
X13321253Y-12158579D02*
X13311729Y-12139531D01*
X13311729Y-12139531D02*
X13302205Y-12130008D01*
X13302205Y-12130008D02*
X13283158Y-12120484D01*
X13283158Y-12120484D02*
X13245062Y-12120484D01*
X13245062Y-12120484D02*
X13226015Y-12130008D01*
X13226015Y-12130008D02*
X13216491Y-12139531D01*
X13216491Y-12139531D02*
X13206967Y-12158579D01*
X13206967Y-12158579D02*
X13206967Y-12206198D01*
X13206967Y-12206198D02*
X13216491Y-12225246D01*
X13216491Y-12225246D02*
X13226015Y-12234769D01*
X13226015Y-12234769D02*
X13245062Y-12244293D01*
X13245062Y-12244293D02*
X13283158Y-12244293D01*
X13283158Y-12244293D02*
X13302205Y-12234769D01*
X13302205Y-12234769D02*
X13311729Y-12225246D01*
X13311729Y-12225246D02*
X13321253Y-12206198D01*
X13445062Y-12120484D02*
X13464110Y-12120484D01*
X13464110Y-12120484D02*
X13483158Y-12130008D01*
X13483158Y-12130008D02*
X13492682Y-12139531D01*
X13492682Y-12139531D02*
X13502205Y-12158579D01*
X13502205Y-12158579D02*
X13511729Y-12196674D01*
X13511729Y-12196674D02*
X13511729Y-12244293D01*
X13511729Y-12244293D02*
X13502205Y-12282388D01*
X13502205Y-12282388D02*
X13492682Y-12301436D01*
X13492682Y-12301436D02*
X13483158Y-12310960D01*
X13483158Y-12310960D02*
X13464110Y-12320484D01*
X13464110Y-12320484D02*
X13445062Y-12320484D01*
X13445062Y-12320484D02*
X13426015Y-12310960D01*
X13426015Y-12310960D02*
X13416491Y-12301436D01*
X13416491Y-12301436D02*
X13406967Y-12282388D01*
X13406967Y-12282388D02*
X13397443Y-12244293D01*
X13397443Y-12244293D02*
X13397443Y-12196674D01*
X13397443Y-12196674D02*
X13406967Y-12158579D01*
X13406967Y-12158579D02*
X13416491Y-12139531D01*
X13416491Y-12139531D02*
X13426015Y-12130008D01*
X13426015Y-12130008D02*
X13445062Y-12120484D01*
X13635539Y-12120484D02*
X13654586Y-12120484D01*
X13654586Y-12120484D02*
X13673634Y-12130008D01*
X13673634Y-12130008D02*
X13683158Y-12139531D01*
X13683158Y-12139531D02*
X13692682Y-12158579D01*
X13692682Y-12158579D02*
X13702205Y-12196674D01*
X13702205Y-12196674D02*
X13702205Y-12244293D01*
X13702205Y-12244293D02*
X13692682Y-12282388D01*
X13692682Y-12282388D02*
X13683158Y-12301436D01*
X13683158Y-12301436D02*
X13673634Y-12310960D01*
X13673634Y-12310960D02*
X13654586Y-12320484D01*
X13654586Y-12320484D02*
X13635539Y-12320484D01*
X13635539Y-12320484D02*
X13616491Y-12310960D01*
X13616491Y-12310960D02*
X13606967Y-12301436D01*
X13606967Y-12301436D02*
X13597443Y-12282388D01*
X13597443Y-12282388D02*
X13587920Y-12244293D01*
X13587920Y-12244293D02*
X13587920Y-12196674D01*
X13587920Y-12196674D02*
X13597443Y-12158579D01*
X13597443Y-12158579D02*
X13606967Y-12139531D01*
X13606967Y-12139531D02*
X13616491Y-12130008D01*
X13616491Y-12130008D02*
X13635539Y-12120484D01*
X13787920Y-12320484D02*
X13787920Y-12187150D01*
X13787920Y-12206198D02*
X13797443Y-12196674D01*
X13797443Y-12196674D02*
X13816491Y-12187150D01*
X13816491Y-12187150D02*
X13845063Y-12187150D01*
X13845063Y-12187150D02*
X13864110Y-12196674D01*
X13864110Y-12196674D02*
X13873634Y-12215722D01*
X13873634Y-12215722D02*
X13873634Y-12320484D01*
X13873634Y-12215722D02*
X13883158Y-12196674D01*
X13883158Y-12196674D02*
X13902205Y-12187150D01*
X13902205Y-12187150D02*
X13930777Y-12187150D01*
X13930777Y-12187150D02*
X13949824Y-12196674D01*
X13949824Y-12196674D02*
X13959348Y-12215722D01*
X13959348Y-12215722D02*
X13959348Y-12320484D01*
X14054586Y-12320484D02*
X14054586Y-12187150D01*
X14054586Y-12206198D02*
X14064110Y-12196674D01*
X14064110Y-12196674D02*
X14083158Y-12187150D01*
X14083158Y-12187150D02*
X14111729Y-12187150D01*
X14111729Y-12187150D02*
X14130777Y-12196674D01*
X14130777Y-12196674D02*
X14140301Y-12215722D01*
X14140301Y-12215722D02*
X14140301Y-12320484D01*
X14140301Y-12215722D02*
X14149824Y-12196674D01*
X14149824Y-12196674D02*
X14168872Y-12187150D01*
X14168872Y-12187150D02*
X14197443Y-12187150D01*
X14197443Y-12187150D02*
X14216491Y-12196674D01*
X14216491Y-12196674D02*
X14226015Y-12215722D01*
X14226015Y-12215722D02*
X14226015Y-12320484D01*
X14616491Y-12110960D02*
X14445063Y-12368103D01*
X14873634Y-12120484D02*
X14892682Y-12120484D01*
X14892682Y-12120484D02*
X14911729Y-12130008D01*
X14911729Y-12130008D02*
X14921253Y-12139531D01*
X14921253Y-12139531D02*
X14930777Y-12158579D01*
X14930777Y-12158579D02*
X14940301Y-12196674D01*
X14940301Y-12196674D02*
X14940301Y-12244293D01*
X14940301Y-12244293D02*
X14930777Y-12282388D01*
X14930777Y-12282388D02*
X14921253Y-12301436D01*
X14921253Y-12301436D02*
X14911729Y-12310960D01*
X14911729Y-12310960D02*
X14892682Y-12320484D01*
X14892682Y-12320484D02*
X14873634Y-12320484D01*
X14873634Y-12320484D02*
X14854586Y-12310960D01*
X14854586Y-12310960D02*
X14845063Y-12301436D01*
X14845063Y-12301436D02*
X14835539Y-12282388D01*
X14835539Y-12282388D02*
X14826015Y-12244293D01*
X14826015Y-12244293D02*
X14826015Y-12196674D01*
X14826015Y-12196674D02*
X14835539Y-12158579D01*
X14835539Y-12158579D02*
X14845063Y-12139531D01*
X14845063Y-12139531D02*
X14854586Y-12130008D01*
X14854586Y-12130008D02*
X14873634Y-12120484D01*
X15026015Y-12301436D02*
X15035539Y-12310960D01*
X15035539Y-12310960D02*
X15026015Y-12320484D01*
X15026015Y-12320484D02*
X15016491Y-12310960D01*
X15016491Y-12310960D02*
X15026015Y-12301436D01*
X15026015Y-12301436D02*
X15026015Y-12320484D01*
X15159348Y-12120484D02*
X15178396Y-12120484D01*
X15178396Y-12120484D02*
X15197444Y-12130008D01*
X15197444Y-12130008D02*
X15206967Y-12139531D01*
X15206967Y-12139531D02*
X15216491Y-12158579D01*
X15216491Y-12158579D02*
X15226015Y-12196674D01*
X15226015Y-12196674D02*
X15226015Y-12244293D01*
X15226015Y-12244293D02*
X15216491Y-12282388D01*
X15216491Y-12282388D02*
X15206967Y-12301436D01*
X15206967Y-12301436D02*
X15197444Y-12310960D01*
X15197444Y-12310960D02*
X15178396Y-12320484D01*
X15178396Y-12320484D02*
X15159348Y-12320484D01*
X15159348Y-12320484D02*
X15140301Y-12310960D01*
X15140301Y-12310960D02*
X15130777Y-12301436D01*
X15130777Y-12301436D02*
X15121253Y-12282388D01*
X15121253Y-12282388D02*
X15111729Y-12244293D01*
X15111729Y-12244293D02*
X15111729Y-12196674D01*
X15111729Y-12196674D02*
X15121253Y-12158579D01*
X15121253Y-12158579D02*
X15130777Y-12139531D01*
X15130777Y-12139531D02*
X15140301Y-12130008D01*
X15140301Y-12130008D02*
X15159348Y-12120484D01*
X15292682Y-12120484D02*
X15416491Y-12120484D01*
X15416491Y-12120484D02*
X15349825Y-12196674D01*
X15349825Y-12196674D02*
X15378396Y-12196674D01*
X15378396Y-12196674D02*
X15397444Y-12206198D01*
X15397444Y-12206198D02*
X15406967Y-12215722D01*
X15406967Y-12215722D02*
X15416491Y-12234769D01*
X15416491Y-12234769D02*
X15416491Y-12282388D01*
X15416491Y-12282388D02*
X15406967Y-12301436D01*
X15406967Y-12301436D02*
X15397444Y-12310960D01*
X15397444Y-12310960D02*
X15378396Y-12320484D01*
X15378396Y-12320484D02*
X15321253Y-12320484D01*
X15321253Y-12320484D02*
X15302206Y-12310960D01*
X15302206Y-12310960D02*
X15292682Y-12301436D01*
X15597444Y-12120484D02*
X15502206Y-12120484D01*
X15502206Y-12120484D02*
X15492682Y-12215722D01*
X15492682Y-12215722D02*
X15502206Y-12206198D01*
X15502206Y-12206198D02*
X15521253Y-12196674D01*
X15521253Y-12196674D02*
X15568872Y-12196674D01*
X15568872Y-12196674D02*
X15587920Y-12206198D01*
X15587920Y-12206198D02*
X15597444Y-12215722D01*
X15597444Y-12215722D02*
X15606967Y-12234769D01*
X15606967Y-12234769D02*
X15606967Y-12282388D01*
X15606967Y-12282388D02*
X15597444Y-12301436D01*
X15597444Y-12301436D02*
X15587920Y-12310960D01*
X15587920Y-12310960D02*
X15568872Y-12320484D01*
X15568872Y-12320484D02*
X15521253Y-12320484D01*
X15521253Y-12320484D02*
X15502206Y-12310960D01*
X15502206Y-12310960D02*
X15492682Y-12301436D01*
X15778396Y-12187150D02*
X15778396Y-12320484D01*
X15730777Y-12110960D02*
X15683158Y-12253817D01*
X15683158Y-12253817D02*
X15806967Y-12253817D01*
X15873634Y-12120484D02*
X15873634Y-12158579D01*
X15949825Y-12120484D02*
X15949825Y-12158579D01*
X16245063Y-12396674D02*
X16235539Y-12387150D01*
X16235539Y-12387150D02*
X16216491Y-12358579D01*
X16216491Y-12358579D02*
X16206968Y-12339531D01*
X16206968Y-12339531D02*
X16197444Y-12310960D01*
X16197444Y-12310960D02*
X16187920Y-12263341D01*
X16187920Y-12263341D02*
X16187920Y-12225246D01*
X16187920Y-12225246D02*
X16197444Y-12177627D01*
X16197444Y-12177627D02*
X16206968Y-12149055D01*
X16206968Y-12149055D02*
X16216491Y-12130008D01*
X16216491Y-12130008D02*
X16235539Y-12101436D01*
X16235539Y-12101436D02*
X16245063Y-12091912D01*
X16311729Y-12139531D02*
X16321253Y-12130008D01*
X16321253Y-12130008D02*
X16340301Y-12120484D01*
X16340301Y-12120484D02*
X16387920Y-12120484D01*
X16387920Y-12120484D02*
X16406968Y-12130008D01*
X16406968Y-12130008D02*
X16416491Y-12139531D01*
X16416491Y-12139531D02*
X16426015Y-12158579D01*
X16426015Y-12158579D02*
X16426015Y-12177627D01*
X16426015Y-12177627D02*
X16416491Y-12206198D01*
X16416491Y-12206198D02*
X16302206Y-12320484D01*
X16302206Y-12320484D02*
X16426015Y-12320484D01*
X16664110Y-12320484D02*
X16664110Y-12120484D01*
X16749825Y-12320484D02*
X16749825Y-12215722D01*
X16749825Y-12215722D02*
X16740301Y-12196674D01*
X16740301Y-12196674D02*
X16721253Y-12187150D01*
X16721253Y-12187150D02*
X16692682Y-12187150D01*
X16692682Y-12187150D02*
X16673634Y-12196674D01*
X16673634Y-12196674D02*
X16664110Y-12206198D01*
X16873634Y-12320484D02*
X16854587Y-12310960D01*
X16854587Y-12310960D02*
X16845063Y-12301436D01*
X16845063Y-12301436D02*
X16835539Y-12282388D01*
X16835539Y-12282388D02*
X16835539Y-12225246D01*
X16835539Y-12225246D02*
X16845063Y-12206198D01*
X16845063Y-12206198D02*
X16854587Y-12196674D01*
X16854587Y-12196674D02*
X16873634Y-12187150D01*
X16873634Y-12187150D02*
X16902206Y-12187150D01*
X16902206Y-12187150D02*
X16921253Y-12196674D01*
X16921253Y-12196674D02*
X16930777Y-12206198D01*
X16930777Y-12206198D02*
X16940301Y-12225246D01*
X16940301Y-12225246D02*
X16940301Y-12282388D01*
X16940301Y-12282388D02*
X16930777Y-12301436D01*
X16930777Y-12301436D02*
X16921253Y-12310960D01*
X16921253Y-12310960D02*
X16902206Y-12320484D01*
X16902206Y-12320484D02*
X16873634Y-12320484D01*
X17054587Y-12320484D02*
X17035539Y-12310960D01*
X17035539Y-12310960D02*
X17026015Y-12291912D01*
X17026015Y-12291912D02*
X17026015Y-12120484D01*
X17206968Y-12310960D02*
X17187920Y-12320484D01*
X17187920Y-12320484D02*
X17149825Y-12320484D01*
X17149825Y-12320484D02*
X17130777Y-12310960D01*
X17130777Y-12310960D02*
X17121253Y-12291912D01*
X17121253Y-12291912D02*
X17121253Y-12215722D01*
X17121253Y-12215722D02*
X17130777Y-12196674D01*
X17130777Y-12196674D02*
X17149825Y-12187150D01*
X17149825Y-12187150D02*
X17187920Y-12187150D01*
X17187920Y-12187150D02*
X17206968Y-12196674D01*
X17206968Y-12196674D02*
X17216492Y-12215722D01*
X17216492Y-12215722D02*
X17216492Y-12234769D01*
X17216492Y-12234769D02*
X17121253Y-12253817D01*
X17292682Y-12310960D02*
X17311730Y-12320484D01*
X17311730Y-12320484D02*
X17349825Y-12320484D01*
X17349825Y-12320484D02*
X17368873Y-12310960D01*
X17368873Y-12310960D02*
X17378396Y-12291912D01*
X17378396Y-12291912D02*
X17378396Y-12282388D01*
X17378396Y-12282388D02*
X17368873Y-12263341D01*
X17368873Y-12263341D02*
X17349825Y-12253817D01*
X17349825Y-12253817D02*
X17321253Y-12253817D01*
X17321253Y-12253817D02*
X17302206Y-12244293D01*
X17302206Y-12244293D02*
X17292682Y-12225246D01*
X17292682Y-12225246D02*
X17292682Y-12215722D01*
X17292682Y-12215722D02*
X17302206Y-12196674D01*
X17302206Y-12196674D02*
X17321253Y-12187150D01*
X17321253Y-12187150D02*
X17349825Y-12187150D01*
X17349825Y-12187150D02*
X17368873Y-12196674D01*
X17445063Y-12396674D02*
X17454587Y-12387150D01*
X17454587Y-12387150D02*
X17473634Y-12358579D01*
X17473634Y-12358579D02*
X17483158Y-12339531D01*
X17483158Y-12339531D02*
X17492682Y-12310960D01*
X17492682Y-12310960D02*
X17502206Y-12263341D01*
X17502206Y-12263341D02*
X17502206Y-12225246D01*
X17502206Y-12225246D02*
X17492682Y-12177627D01*
X17492682Y-12177627D02*
X17483158Y-12149055D01*
X17483158Y-12149055D02*
X17473634Y-12130008D01*
X17473634Y-12130008D02*
X17454587Y-12101436D01*
X17454587Y-12101436D02*
X17445063Y-12091912D01*
X17806968Y-12396674D02*
X17797444Y-12387150D01*
X17797444Y-12387150D02*
X17778396Y-12358579D01*
X17778396Y-12358579D02*
X17768873Y-12339531D01*
X17768873Y-12339531D02*
X17759349Y-12310960D01*
X17759349Y-12310960D02*
X17749825Y-12263341D01*
X17749825Y-12263341D02*
X17749825Y-12225246D01*
X17749825Y-12225246D02*
X17759349Y-12177627D01*
X17759349Y-12177627D02*
X17768873Y-12149055D01*
X17768873Y-12149055D02*
X17778396Y-12130008D01*
X17778396Y-12130008D02*
X17797444Y-12101436D01*
X17797444Y-12101436D02*
X17806968Y-12091912D01*
X17883158Y-12187150D02*
X17883158Y-12320484D01*
X17883158Y-12206198D02*
X17892682Y-12196674D01*
X17892682Y-12196674D02*
X17911730Y-12187150D01*
X17911730Y-12187150D02*
X17940301Y-12187150D01*
X17940301Y-12187150D02*
X17959349Y-12196674D01*
X17959349Y-12196674D02*
X17968873Y-12215722D01*
X17968873Y-12215722D02*
X17968873Y-12320484D01*
X18092682Y-12320484D02*
X18073634Y-12310960D01*
X18073634Y-12310960D02*
X18064111Y-12301436D01*
X18064111Y-12301436D02*
X18054587Y-12282388D01*
X18054587Y-12282388D02*
X18054587Y-12225246D01*
X18054587Y-12225246D02*
X18064111Y-12206198D01*
X18064111Y-12206198D02*
X18073634Y-12196674D01*
X18073634Y-12196674D02*
X18092682Y-12187150D01*
X18092682Y-12187150D02*
X18121254Y-12187150D01*
X18121254Y-12187150D02*
X18140301Y-12196674D01*
X18140301Y-12196674D02*
X18149825Y-12206198D01*
X18149825Y-12206198D02*
X18159349Y-12225246D01*
X18159349Y-12225246D02*
X18159349Y-12282388D01*
X18159349Y-12282388D02*
X18149825Y-12301436D01*
X18149825Y-12301436D02*
X18140301Y-12310960D01*
X18140301Y-12310960D02*
X18121254Y-12320484D01*
X18121254Y-12320484D02*
X18092682Y-12320484D01*
X18216492Y-12187150D02*
X18292682Y-12187150D01*
X18245063Y-12120484D02*
X18245063Y-12291912D01*
X18245063Y-12291912D02*
X18254587Y-12310960D01*
X18254587Y-12310960D02*
X18273634Y-12320484D01*
X18273634Y-12320484D02*
X18292682Y-12320484D01*
X18511730Y-12187150D02*
X18511730Y-12387150D01*
X18511730Y-12196674D02*
X18530777Y-12187150D01*
X18530777Y-12187150D02*
X18568873Y-12187150D01*
X18568873Y-12187150D02*
X18587920Y-12196674D01*
X18587920Y-12196674D02*
X18597444Y-12206198D01*
X18597444Y-12206198D02*
X18606968Y-12225246D01*
X18606968Y-12225246D02*
X18606968Y-12282388D01*
X18606968Y-12282388D02*
X18597444Y-12301436D01*
X18597444Y-12301436D02*
X18587920Y-12310960D01*
X18587920Y-12310960D02*
X18568873Y-12320484D01*
X18568873Y-12320484D02*
X18530777Y-12320484D01*
X18530777Y-12320484D02*
X18511730Y-12310960D01*
X18721254Y-12320484D02*
X18702206Y-12310960D01*
X18702206Y-12310960D02*
X18692682Y-12291912D01*
X18692682Y-12291912D02*
X18692682Y-12120484D01*
X18883158Y-12320484D02*
X18883158Y-12215722D01*
X18883158Y-12215722D02*
X18873635Y-12196674D01*
X18873635Y-12196674D02*
X18854587Y-12187150D01*
X18854587Y-12187150D02*
X18816492Y-12187150D01*
X18816492Y-12187150D02*
X18797444Y-12196674D01*
X18883158Y-12310960D02*
X18864111Y-12320484D01*
X18864111Y-12320484D02*
X18816492Y-12320484D01*
X18816492Y-12320484D02*
X18797444Y-12310960D01*
X18797444Y-12310960D02*
X18787920Y-12291912D01*
X18787920Y-12291912D02*
X18787920Y-12272865D01*
X18787920Y-12272865D02*
X18797444Y-12253817D01*
X18797444Y-12253817D02*
X18816492Y-12244293D01*
X18816492Y-12244293D02*
X18864111Y-12244293D01*
X18864111Y-12244293D02*
X18883158Y-12234769D01*
X18949825Y-12187150D02*
X19026015Y-12187150D01*
X18978396Y-12120484D02*
X18978396Y-12291912D01*
X18978396Y-12291912D02*
X18987920Y-12310960D01*
X18987920Y-12310960D02*
X19006968Y-12320484D01*
X19006968Y-12320484D02*
X19026015Y-12320484D01*
X19168873Y-12310960D02*
X19149825Y-12320484D01*
X19149825Y-12320484D02*
X19111730Y-12320484D01*
X19111730Y-12320484D02*
X19092682Y-12310960D01*
X19092682Y-12310960D02*
X19083158Y-12291912D01*
X19083158Y-12291912D02*
X19083158Y-12215722D01*
X19083158Y-12215722D02*
X19092682Y-12196674D01*
X19092682Y-12196674D02*
X19111730Y-12187150D01*
X19111730Y-12187150D02*
X19149825Y-12187150D01*
X19149825Y-12187150D02*
X19168873Y-12196674D01*
X19168873Y-12196674D02*
X19178396Y-12215722D01*
X19178396Y-12215722D02*
X19178396Y-12234769D01*
X19178396Y-12234769D02*
X19083158Y-12253817D01*
X19349825Y-12320484D02*
X19349825Y-12120484D01*
X19349825Y-12310960D02*
X19330777Y-12320484D01*
X19330777Y-12320484D02*
X19292682Y-12320484D01*
X19292682Y-12320484D02*
X19273635Y-12310960D01*
X19273635Y-12310960D02*
X19264111Y-12301436D01*
X19264111Y-12301436D02*
X19254587Y-12282388D01*
X19254587Y-12282388D02*
X19254587Y-12225246D01*
X19254587Y-12225246D02*
X19264111Y-12206198D01*
X19264111Y-12206198D02*
X19273635Y-12196674D01*
X19273635Y-12196674D02*
X19292682Y-12187150D01*
X19292682Y-12187150D02*
X19330777Y-12187150D01*
X19330777Y-12187150D02*
X19349825Y-12196674D01*
X19426016Y-12396674D02*
X19435539Y-12387150D01*
X19435539Y-12387150D02*
X19454587Y-12358579D01*
X19454587Y-12358579D02*
X19464111Y-12339531D01*
X19464111Y-12339531D02*
X19473635Y-12310960D01*
X19473635Y-12310960D02*
X19483158Y-12263341D01*
X19483158Y-12263341D02*
X19483158Y-12225246D01*
X19483158Y-12225246D02*
X19473635Y-12177627D01*
X19473635Y-12177627D02*
X19464111Y-12149055D01*
X19464111Y-12149055D02*
X19454587Y-12130008D01*
X19454587Y-12130008D02*
X19435539Y-12101436D01*
X19435539Y-12101436D02*
X19426016Y-12091912D01*
X12570000Y-12393000D02*
X12570000Y-12593000D01*
X12470000Y-12493000D02*
X12670000Y-12493000D01*
X12921253Y-12403531D02*
X12930777Y-12394008D01*
X12930777Y-12394008D02*
X12949824Y-12384484D01*
X12949824Y-12384484D02*
X12997443Y-12384484D01*
X12997443Y-12384484D02*
X13016491Y-12394008D01*
X13016491Y-12394008D02*
X13026015Y-12403531D01*
X13026015Y-12403531D02*
X13035539Y-12422579D01*
X13035539Y-12422579D02*
X13035539Y-12441627D01*
X13035539Y-12441627D02*
X13026015Y-12470198D01*
X13026015Y-12470198D02*
X12911729Y-12584484D01*
X12911729Y-12584484D02*
X13035539Y-12584484D01*
X13121253Y-12565436D02*
X13130777Y-12574960D01*
X13130777Y-12574960D02*
X13121253Y-12584484D01*
X13121253Y-12584484D02*
X13111729Y-12574960D01*
X13111729Y-12574960D02*
X13121253Y-12565436D01*
X13121253Y-12565436D02*
X13121253Y-12584484D01*
X13206967Y-12403531D02*
X13216491Y-12394008D01*
X13216491Y-12394008D02*
X13235539Y-12384484D01*
X13235539Y-12384484D02*
X13283158Y-12384484D01*
X13283158Y-12384484D02*
X13302205Y-12394008D01*
X13302205Y-12394008D02*
X13311729Y-12403531D01*
X13311729Y-12403531D02*
X13321253Y-12422579D01*
X13321253Y-12422579D02*
X13321253Y-12441627D01*
X13321253Y-12441627D02*
X13311729Y-12470198D01*
X13311729Y-12470198D02*
X13197443Y-12584484D01*
X13197443Y-12584484D02*
X13321253Y-12584484D01*
X13445062Y-12384484D02*
X13464110Y-12384484D01*
X13464110Y-12384484D02*
X13483158Y-12394008D01*
X13483158Y-12394008D02*
X13492682Y-12403531D01*
X13492682Y-12403531D02*
X13502205Y-12422579D01*
X13502205Y-12422579D02*
X13511729Y-12460674D01*
X13511729Y-12460674D02*
X13511729Y-12508293D01*
X13511729Y-12508293D02*
X13502205Y-12546388D01*
X13502205Y-12546388D02*
X13492682Y-12565436D01*
X13492682Y-12565436D02*
X13483158Y-12574960D01*
X13483158Y-12574960D02*
X13464110Y-12584484D01*
X13464110Y-12584484D02*
X13445062Y-12584484D01*
X13445062Y-12584484D02*
X13426015Y-12574960D01*
X13426015Y-12574960D02*
X13416491Y-12565436D01*
X13416491Y-12565436D02*
X13406967Y-12546388D01*
X13406967Y-12546388D02*
X13397443Y-12508293D01*
X13397443Y-12508293D02*
X13397443Y-12460674D01*
X13397443Y-12460674D02*
X13406967Y-12422579D01*
X13406967Y-12422579D02*
X13416491Y-12403531D01*
X13416491Y-12403531D02*
X13426015Y-12394008D01*
X13426015Y-12394008D02*
X13445062Y-12384484D01*
X13635539Y-12384484D02*
X13654586Y-12384484D01*
X13654586Y-12384484D02*
X13673634Y-12394008D01*
X13673634Y-12394008D02*
X13683158Y-12403531D01*
X13683158Y-12403531D02*
X13692682Y-12422579D01*
X13692682Y-12422579D02*
X13702205Y-12460674D01*
X13702205Y-12460674D02*
X13702205Y-12508293D01*
X13702205Y-12508293D02*
X13692682Y-12546388D01*
X13692682Y-12546388D02*
X13683158Y-12565436D01*
X13683158Y-12565436D02*
X13673634Y-12574960D01*
X13673634Y-12574960D02*
X13654586Y-12584484D01*
X13654586Y-12584484D02*
X13635539Y-12584484D01*
X13635539Y-12584484D02*
X13616491Y-12574960D01*
X13616491Y-12574960D02*
X13606967Y-12565436D01*
X13606967Y-12565436D02*
X13597443Y-12546388D01*
X13597443Y-12546388D02*
X13587920Y-12508293D01*
X13587920Y-12508293D02*
X13587920Y-12460674D01*
X13587920Y-12460674D02*
X13597443Y-12422579D01*
X13597443Y-12422579D02*
X13606967Y-12403531D01*
X13606967Y-12403531D02*
X13616491Y-12394008D01*
X13616491Y-12394008D02*
X13635539Y-12384484D01*
X13787920Y-12584484D02*
X13787920Y-12451150D01*
X13787920Y-12470198D02*
X13797443Y-12460674D01*
X13797443Y-12460674D02*
X13816491Y-12451150D01*
X13816491Y-12451150D02*
X13845063Y-12451150D01*
X13845063Y-12451150D02*
X13864110Y-12460674D01*
X13864110Y-12460674D02*
X13873634Y-12479722D01*
X13873634Y-12479722D02*
X13873634Y-12584484D01*
X13873634Y-12479722D02*
X13883158Y-12460674D01*
X13883158Y-12460674D02*
X13902205Y-12451150D01*
X13902205Y-12451150D02*
X13930777Y-12451150D01*
X13930777Y-12451150D02*
X13949824Y-12460674D01*
X13949824Y-12460674D02*
X13959348Y-12479722D01*
X13959348Y-12479722D02*
X13959348Y-12584484D01*
X14054586Y-12584484D02*
X14054586Y-12451150D01*
X14054586Y-12470198D02*
X14064110Y-12460674D01*
X14064110Y-12460674D02*
X14083158Y-12451150D01*
X14083158Y-12451150D02*
X14111729Y-12451150D01*
X14111729Y-12451150D02*
X14130777Y-12460674D01*
X14130777Y-12460674D02*
X14140301Y-12479722D01*
X14140301Y-12479722D02*
X14140301Y-12584484D01*
X14140301Y-12479722D02*
X14149824Y-12460674D01*
X14149824Y-12460674D02*
X14168872Y-12451150D01*
X14168872Y-12451150D02*
X14197443Y-12451150D01*
X14197443Y-12451150D02*
X14216491Y-12460674D01*
X14216491Y-12460674D02*
X14226015Y-12479722D01*
X14226015Y-12479722D02*
X14226015Y-12584484D01*
X14616491Y-12374960D02*
X14445063Y-12632103D01*
X14873634Y-12384484D02*
X14892682Y-12384484D01*
X14892682Y-12384484D02*
X14911729Y-12394008D01*
X14911729Y-12394008D02*
X14921253Y-12403531D01*
X14921253Y-12403531D02*
X14930777Y-12422579D01*
X14930777Y-12422579D02*
X14940301Y-12460674D01*
X14940301Y-12460674D02*
X14940301Y-12508293D01*
X14940301Y-12508293D02*
X14930777Y-12546388D01*
X14930777Y-12546388D02*
X14921253Y-12565436D01*
X14921253Y-12565436D02*
X14911729Y-12574960D01*
X14911729Y-12574960D02*
X14892682Y-12584484D01*
X14892682Y-12584484D02*
X14873634Y-12584484D01*
X14873634Y-12584484D02*
X14854586Y-12574960D01*
X14854586Y-12574960D02*
X14845063Y-12565436D01*
X14845063Y-12565436D02*
X14835539Y-12546388D01*
X14835539Y-12546388D02*
X14826015Y-12508293D01*
X14826015Y-12508293D02*
X14826015Y-12460674D01*
X14826015Y-12460674D02*
X14835539Y-12422579D01*
X14835539Y-12422579D02*
X14845063Y-12403531D01*
X14845063Y-12403531D02*
X14854586Y-12394008D01*
X14854586Y-12394008D02*
X14873634Y-12384484D01*
X15026015Y-12565436D02*
X15035539Y-12574960D01*
X15035539Y-12574960D02*
X15026015Y-12584484D01*
X15026015Y-12584484D02*
X15016491Y-12574960D01*
X15016491Y-12574960D02*
X15026015Y-12565436D01*
X15026015Y-12565436D02*
X15026015Y-12584484D01*
X15159348Y-12384484D02*
X15178396Y-12384484D01*
X15178396Y-12384484D02*
X15197444Y-12394008D01*
X15197444Y-12394008D02*
X15206967Y-12403531D01*
X15206967Y-12403531D02*
X15216491Y-12422579D01*
X15216491Y-12422579D02*
X15226015Y-12460674D01*
X15226015Y-12460674D02*
X15226015Y-12508293D01*
X15226015Y-12508293D02*
X15216491Y-12546388D01*
X15216491Y-12546388D02*
X15206967Y-12565436D01*
X15206967Y-12565436D02*
X15197444Y-12574960D01*
X15197444Y-12574960D02*
X15178396Y-12584484D01*
X15178396Y-12584484D02*
X15159348Y-12584484D01*
X15159348Y-12584484D02*
X15140301Y-12574960D01*
X15140301Y-12574960D02*
X15130777Y-12565436D01*
X15130777Y-12565436D02*
X15121253Y-12546388D01*
X15121253Y-12546388D02*
X15111729Y-12508293D01*
X15111729Y-12508293D02*
X15111729Y-12460674D01*
X15111729Y-12460674D02*
X15121253Y-12422579D01*
X15121253Y-12422579D02*
X15130777Y-12403531D01*
X15130777Y-12403531D02*
X15140301Y-12394008D01*
X15140301Y-12394008D02*
X15159348Y-12384484D01*
X15340301Y-12470198D02*
X15321253Y-12460674D01*
X15321253Y-12460674D02*
X15311729Y-12451150D01*
X15311729Y-12451150D02*
X15302206Y-12432103D01*
X15302206Y-12432103D02*
X15302206Y-12422579D01*
X15302206Y-12422579D02*
X15311729Y-12403531D01*
X15311729Y-12403531D02*
X15321253Y-12394008D01*
X15321253Y-12394008D02*
X15340301Y-12384484D01*
X15340301Y-12384484D02*
X15378396Y-12384484D01*
X15378396Y-12384484D02*
X15397444Y-12394008D01*
X15397444Y-12394008D02*
X15406967Y-12403531D01*
X15406967Y-12403531D02*
X15416491Y-12422579D01*
X15416491Y-12422579D02*
X15416491Y-12432103D01*
X15416491Y-12432103D02*
X15406967Y-12451150D01*
X15406967Y-12451150D02*
X15397444Y-12460674D01*
X15397444Y-12460674D02*
X15378396Y-12470198D01*
X15378396Y-12470198D02*
X15340301Y-12470198D01*
X15340301Y-12470198D02*
X15321253Y-12479722D01*
X15321253Y-12479722D02*
X15311729Y-12489246D01*
X15311729Y-12489246D02*
X15302206Y-12508293D01*
X15302206Y-12508293D02*
X15302206Y-12546388D01*
X15302206Y-12546388D02*
X15311729Y-12565436D01*
X15311729Y-12565436D02*
X15321253Y-12574960D01*
X15321253Y-12574960D02*
X15340301Y-12584484D01*
X15340301Y-12584484D02*
X15378396Y-12584484D01*
X15378396Y-12584484D02*
X15397444Y-12574960D01*
X15397444Y-12574960D02*
X15406967Y-12565436D01*
X15406967Y-12565436D02*
X15416491Y-12546388D01*
X15416491Y-12546388D02*
X15416491Y-12508293D01*
X15416491Y-12508293D02*
X15406967Y-12489246D01*
X15406967Y-12489246D02*
X15397444Y-12479722D01*
X15397444Y-12479722D02*
X15378396Y-12470198D01*
X15587920Y-12384484D02*
X15549825Y-12384484D01*
X15549825Y-12384484D02*
X15530777Y-12394008D01*
X15530777Y-12394008D02*
X15521253Y-12403531D01*
X15521253Y-12403531D02*
X15502206Y-12432103D01*
X15502206Y-12432103D02*
X15492682Y-12470198D01*
X15492682Y-12470198D02*
X15492682Y-12546388D01*
X15492682Y-12546388D02*
X15502206Y-12565436D01*
X15502206Y-12565436D02*
X15511729Y-12574960D01*
X15511729Y-12574960D02*
X15530777Y-12584484D01*
X15530777Y-12584484D02*
X15568872Y-12584484D01*
X15568872Y-12584484D02*
X15587920Y-12574960D01*
X15587920Y-12574960D02*
X15597444Y-12565436D01*
X15597444Y-12565436D02*
X15606967Y-12546388D01*
X15606967Y-12546388D02*
X15606967Y-12498769D01*
X15606967Y-12498769D02*
X15597444Y-12479722D01*
X15597444Y-12479722D02*
X15587920Y-12470198D01*
X15587920Y-12470198D02*
X15568872Y-12460674D01*
X15568872Y-12460674D02*
X15530777Y-12460674D01*
X15530777Y-12460674D02*
X15511729Y-12470198D01*
X15511729Y-12470198D02*
X15502206Y-12479722D01*
X15502206Y-12479722D02*
X15492682Y-12498769D01*
X15778396Y-12384484D02*
X15740301Y-12384484D01*
X15740301Y-12384484D02*
X15721253Y-12394008D01*
X15721253Y-12394008D02*
X15711729Y-12403531D01*
X15711729Y-12403531D02*
X15692682Y-12432103D01*
X15692682Y-12432103D02*
X15683158Y-12470198D01*
X15683158Y-12470198D02*
X15683158Y-12546388D01*
X15683158Y-12546388D02*
X15692682Y-12565436D01*
X15692682Y-12565436D02*
X15702206Y-12574960D01*
X15702206Y-12574960D02*
X15721253Y-12584484D01*
X15721253Y-12584484D02*
X15759348Y-12584484D01*
X15759348Y-12584484D02*
X15778396Y-12574960D01*
X15778396Y-12574960D02*
X15787920Y-12565436D01*
X15787920Y-12565436D02*
X15797444Y-12546388D01*
X15797444Y-12546388D02*
X15797444Y-12498769D01*
X15797444Y-12498769D02*
X15787920Y-12479722D01*
X15787920Y-12479722D02*
X15778396Y-12470198D01*
X15778396Y-12470198D02*
X15759348Y-12460674D01*
X15759348Y-12460674D02*
X15721253Y-12460674D01*
X15721253Y-12460674D02*
X15702206Y-12470198D01*
X15702206Y-12470198D02*
X15692682Y-12479722D01*
X15692682Y-12479722D02*
X15683158Y-12498769D01*
X15873634Y-12384484D02*
X15873634Y-12422579D01*
X15949825Y-12384484D02*
X15949825Y-12422579D01*
X16245063Y-12660674D02*
X16235539Y-12651150D01*
X16235539Y-12651150D02*
X16216491Y-12622579D01*
X16216491Y-12622579D02*
X16206968Y-12603531D01*
X16206968Y-12603531D02*
X16197444Y-12574960D01*
X16197444Y-12574960D02*
X16187920Y-12527341D01*
X16187920Y-12527341D02*
X16187920Y-12489246D01*
X16187920Y-12489246D02*
X16197444Y-12441627D01*
X16197444Y-12441627D02*
X16206968Y-12413055D01*
X16206968Y-12413055D02*
X16216491Y-12394008D01*
X16216491Y-12394008D02*
X16235539Y-12365436D01*
X16235539Y-12365436D02*
X16245063Y-12355912D01*
X16302206Y-12384484D02*
X16426015Y-12384484D01*
X16426015Y-12384484D02*
X16359348Y-12460674D01*
X16359348Y-12460674D02*
X16387920Y-12460674D01*
X16387920Y-12460674D02*
X16406968Y-12470198D01*
X16406968Y-12470198D02*
X16416491Y-12479722D01*
X16416491Y-12479722D02*
X16426015Y-12498769D01*
X16426015Y-12498769D02*
X16426015Y-12546388D01*
X16426015Y-12546388D02*
X16416491Y-12565436D01*
X16416491Y-12565436D02*
X16406968Y-12574960D01*
X16406968Y-12574960D02*
X16387920Y-12584484D01*
X16387920Y-12584484D02*
X16330777Y-12584484D01*
X16330777Y-12584484D02*
X16311729Y-12574960D01*
X16311729Y-12574960D02*
X16302206Y-12565436D01*
X16664110Y-12584484D02*
X16664110Y-12384484D01*
X16749825Y-12584484D02*
X16749825Y-12479722D01*
X16749825Y-12479722D02*
X16740301Y-12460674D01*
X16740301Y-12460674D02*
X16721253Y-12451150D01*
X16721253Y-12451150D02*
X16692682Y-12451150D01*
X16692682Y-12451150D02*
X16673634Y-12460674D01*
X16673634Y-12460674D02*
X16664110Y-12470198D01*
X16873634Y-12584484D02*
X16854587Y-12574960D01*
X16854587Y-12574960D02*
X16845063Y-12565436D01*
X16845063Y-12565436D02*
X16835539Y-12546388D01*
X16835539Y-12546388D02*
X16835539Y-12489246D01*
X16835539Y-12489246D02*
X16845063Y-12470198D01*
X16845063Y-12470198D02*
X16854587Y-12460674D01*
X16854587Y-12460674D02*
X16873634Y-12451150D01*
X16873634Y-12451150D02*
X16902206Y-12451150D01*
X16902206Y-12451150D02*
X16921253Y-12460674D01*
X16921253Y-12460674D02*
X16930777Y-12470198D01*
X16930777Y-12470198D02*
X16940301Y-12489246D01*
X16940301Y-12489246D02*
X16940301Y-12546388D01*
X16940301Y-12546388D02*
X16930777Y-12565436D01*
X16930777Y-12565436D02*
X16921253Y-12574960D01*
X16921253Y-12574960D02*
X16902206Y-12584484D01*
X16902206Y-12584484D02*
X16873634Y-12584484D01*
X17054587Y-12584484D02*
X17035539Y-12574960D01*
X17035539Y-12574960D02*
X17026015Y-12555912D01*
X17026015Y-12555912D02*
X17026015Y-12384484D01*
X17206968Y-12574960D02*
X17187920Y-12584484D01*
X17187920Y-12584484D02*
X17149825Y-12584484D01*
X17149825Y-12584484D02*
X17130777Y-12574960D01*
X17130777Y-12574960D02*
X17121253Y-12555912D01*
X17121253Y-12555912D02*
X17121253Y-12479722D01*
X17121253Y-12479722D02*
X17130777Y-12460674D01*
X17130777Y-12460674D02*
X17149825Y-12451150D01*
X17149825Y-12451150D02*
X17187920Y-12451150D01*
X17187920Y-12451150D02*
X17206968Y-12460674D01*
X17206968Y-12460674D02*
X17216492Y-12479722D01*
X17216492Y-12479722D02*
X17216492Y-12498769D01*
X17216492Y-12498769D02*
X17121253Y-12517817D01*
X17292682Y-12574960D02*
X17311730Y-12584484D01*
X17311730Y-12584484D02*
X17349825Y-12584484D01*
X17349825Y-12584484D02*
X17368873Y-12574960D01*
X17368873Y-12574960D02*
X17378396Y-12555912D01*
X17378396Y-12555912D02*
X17378396Y-12546388D01*
X17378396Y-12546388D02*
X17368873Y-12527341D01*
X17368873Y-12527341D02*
X17349825Y-12517817D01*
X17349825Y-12517817D02*
X17321253Y-12517817D01*
X17321253Y-12517817D02*
X17302206Y-12508293D01*
X17302206Y-12508293D02*
X17292682Y-12489246D01*
X17292682Y-12489246D02*
X17292682Y-12479722D01*
X17292682Y-12479722D02*
X17302206Y-12460674D01*
X17302206Y-12460674D02*
X17321253Y-12451150D01*
X17321253Y-12451150D02*
X17349825Y-12451150D01*
X17349825Y-12451150D02*
X17368873Y-12460674D01*
X17445063Y-12660674D02*
X17454587Y-12651150D01*
X17454587Y-12651150D02*
X17473634Y-12622579D01*
X17473634Y-12622579D02*
X17483158Y-12603531D01*
X17483158Y-12603531D02*
X17492682Y-12574960D01*
X17492682Y-12574960D02*
X17502206Y-12527341D01*
X17502206Y-12527341D02*
X17502206Y-12489246D01*
X17502206Y-12489246D02*
X17492682Y-12441627D01*
X17492682Y-12441627D02*
X17483158Y-12413055D01*
X17483158Y-12413055D02*
X17473634Y-12394008D01*
X17473634Y-12394008D02*
X17454587Y-12365436D01*
X17454587Y-12365436D02*
X17445063Y-12355912D01*
X17806968Y-12660674D02*
X17797444Y-12651150D01*
X17797444Y-12651150D02*
X17778396Y-12622579D01*
X17778396Y-12622579D02*
X17768873Y-12603531D01*
X17768873Y-12603531D02*
X17759349Y-12574960D01*
X17759349Y-12574960D02*
X17749825Y-12527341D01*
X17749825Y-12527341D02*
X17749825Y-12489246D01*
X17749825Y-12489246D02*
X17759349Y-12441627D01*
X17759349Y-12441627D02*
X17768873Y-12413055D01*
X17768873Y-12413055D02*
X17778396Y-12394008D01*
X17778396Y-12394008D02*
X17797444Y-12365436D01*
X17797444Y-12365436D02*
X17806968Y-12355912D01*
X17883158Y-12451150D02*
X17883158Y-12584484D01*
X17883158Y-12470198D02*
X17892682Y-12460674D01*
X17892682Y-12460674D02*
X17911730Y-12451150D01*
X17911730Y-12451150D02*
X17940301Y-12451150D01*
X17940301Y-12451150D02*
X17959349Y-12460674D01*
X17959349Y-12460674D02*
X17968873Y-12479722D01*
X17968873Y-12479722D02*
X17968873Y-12584484D01*
X18092682Y-12584484D02*
X18073634Y-12574960D01*
X18073634Y-12574960D02*
X18064111Y-12565436D01*
X18064111Y-12565436D02*
X18054587Y-12546388D01*
X18054587Y-12546388D02*
X18054587Y-12489246D01*
X18054587Y-12489246D02*
X18064111Y-12470198D01*
X18064111Y-12470198D02*
X18073634Y-12460674D01*
X18073634Y-12460674D02*
X18092682Y-12451150D01*
X18092682Y-12451150D02*
X18121254Y-12451150D01*
X18121254Y-12451150D02*
X18140301Y-12460674D01*
X18140301Y-12460674D02*
X18149825Y-12470198D01*
X18149825Y-12470198D02*
X18159349Y-12489246D01*
X18159349Y-12489246D02*
X18159349Y-12546388D01*
X18159349Y-12546388D02*
X18149825Y-12565436D01*
X18149825Y-12565436D02*
X18140301Y-12574960D01*
X18140301Y-12574960D02*
X18121254Y-12584484D01*
X18121254Y-12584484D02*
X18092682Y-12584484D01*
X18216492Y-12451150D02*
X18292682Y-12451150D01*
X18245063Y-12384484D02*
X18245063Y-12555912D01*
X18245063Y-12555912D02*
X18254587Y-12574960D01*
X18254587Y-12574960D02*
X18273634Y-12584484D01*
X18273634Y-12584484D02*
X18292682Y-12584484D01*
X18511730Y-12451150D02*
X18511730Y-12651150D01*
X18511730Y-12460674D02*
X18530777Y-12451150D01*
X18530777Y-12451150D02*
X18568873Y-12451150D01*
X18568873Y-12451150D02*
X18587920Y-12460674D01*
X18587920Y-12460674D02*
X18597444Y-12470198D01*
X18597444Y-12470198D02*
X18606968Y-12489246D01*
X18606968Y-12489246D02*
X18606968Y-12546388D01*
X18606968Y-12546388D02*
X18597444Y-12565436D01*
X18597444Y-12565436D02*
X18587920Y-12574960D01*
X18587920Y-12574960D02*
X18568873Y-12584484D01*
X18568873Y-12584484D02*
X18530777Y-12584484D01*
X18530777Y-12584484D02*
X18511730Y-12574960D01*
X18721254Y-12584484D02*
X18702206Y-12574960D01*
X18702206Y-12574960D02*
X18692682Y-12555912D01*
X18692682Y-12555912D02*
X18692682Y-12384484D01*
X18883158Y-12584484D02*
X18883158Y-12479722D01*
X18883158Y-12479722D02*
X18873635Y-12460674D01*
X18873635Y-12460674D02*
X18854587Y-12451150D01*
X18854587Y-12451150D02*
X18816492Y-12451150D01*
X18816492Y-12451150D02*
X18797444Y-12460674D01*
X18883158Y-12574960D02*
X18864111Y-12584484D01*
X18864111Y-12584484D02*
X18816492Y-12584484D01*
X18816492Y-12584484D02*
X18797444Y-12574960D01*
X18797444Y-12574960D02*
X18787920Y-12555912D01*
X18787920Y-12555912D02*
X18787920Y-12536865D01*
X18787920Y-12536865D02*
X18797444Y-12517817D01*
X18797444Y-12517817D02*
X18816492Y-12508293D01*
X18816492Y-12508293D02*
X18864111Y-12508293D01*
X18864111Y-12508293D02*
X18883158Y-12498769D01*
X18949825Y-12451150D02*
X19026015Y-12451150D01*
X18978396Y-12384484D02*
X18978396Y-12555912D01*
X18978396Y-12555912D02*
X18987920Y-12574960D01*
X18987920Y-12574960D02*
X19006968Y-12584484D01*
X19006968Y-12584484D02*
X19026015Y-12584484D01*
X19168873Y-12574960D02*
X19149825Y-12584484D01*
X19149825Y-12584484D02*
X19111730Y-12584484D01*
X19111730Y-12584484D02*
X19092682Y-12574960D01*
X19092682Y-12574960D02*
X19083158Y-12555912D01*
X19083158Y-12555912D02*
X19083158Y-12479722D01*
X19083158Y-12479722D02*
X19092682Y-12460674D01*
X19092682Y-12460674D02*
X19111730Y-12451150D01*
X19111730Y-12451150D02*
X19149825Y-12451150D01*
X19149825Y-12451150D02*
X19168873Y-12460674D01*
X19168873Y-12460674D02*
X19178396Y-12479722D01*
X19178396Y-12479722D02*
X19178396Y-12498769D01*
X19178396Y-12498769D02*
X19083158Y-12517817D01*
X19349825Y-12584484D02*
X19349825Y-12384484D01*
X19349825Y-12574960D02*
X19330777Y-12584484D01*
X19330777Y-12584484D02*
X19292682Y-12584484D01*
X19292682Y-12584484D02*
X19273635Y-12574960D01*
X19273635Y-12574960D02*
X19264111Y-12565436D01*
X19264111Y-12565436D02*
X19254587Y-12546388D01*
X19254587Y-12546388D02*
X19254587Y-12489246D01*
X19254587Y-12489246D02*
X19264111Y-12470198D01*
X19264111Y-12470198D02*
X19273635Y-12460674D01*
X19273635Y-12460674D02*
X19292682Y-12451150D01*
X19292682Y-12451150D02*
X19330777Y-12451150D01*
X19330777Y-12451150D02*
X19349825Y-12460674D01*
X19426016Y-12660674D02*
X19435539Y-12651150D01*
X19435539Y-12651150D02*
X19454587Y-12622579D01*
X19454587Y-12622579D02*
X19464111Y-12603531D01*
X19464111Y-12603531D02*
X19473635Y-12574960D01*
X19473635Y-12574960D02*
X19483158Y-12527341D01*
X19483158Y-12527341D02*
X19483158Y-12489246D01*
X19483158Y-12489246D02*
X19473635Y-12441627D01*
X19473635Y-12441627D02*
X19464111Y-12413055D01*
X19464111Y-12413055D02*
X19454587Y-12394008D01*
X19454587Y-12394008D02*
X19435539Y-12365436D01*
X19435539Y-12365436D02*
X19426016Y-12355912D01*
M02*
