%TF.GenerationSoftware,KiCad,Pcbnew,8.0.8*%
%TF.CreationDate,2025-05-28T20:16:55-04:00*%
%TF.ProjectId,Tiny4FSK,54696e79-3446-4534-9b2e-6b696361645f,rev?*%
%TF.SameCoordinates,Original*%
%TF.FileFunction,Copper,L4,Bot*%
%TF.FilePolarity,Positive*%
%FSLAX46Y46*%
G04 Gerber Fmt 4.6, Leading zero omitted, Abs format (unit mm)*
G04 Created by KiCad (PCBNEW 8.0.8) date 2025-05-28 20:16:55*
%MOMM*%
%LPD*%
G01*
G04 APERTURE LIST*
G04 Aperture macros list*
%AMRoundRect*
0 Rectangle with rounded corners*
0 $1 Rounding radius*
0 $2 $3 $4 $5 $6 $7 $8 $9 X,Y pos of 4 corners*
0 Add a 4 corners polygon primitive as box body*
4,1,4,$2,$3,$4,$5,$6,$7,$8,$9,$2,$3,0*
0 Add four circle primitives for the rounded corners*
1,1,$1+$1,$2,$3*
1,1,$1+$1,$4,$5*
1,1,$1+$1,$6,$7*
1,1,$1+$1,$8,$9*
0 Add four rect primitives between the rounded corners*
20,1,$1+$1,$2,$3,$4,$5,0*
20,1,$1+$1,$4,$5,$6,$7,0*
20,1,$1+$1,$6,$7,$8,$9,0*
20,1,$1+$1,$8,$9,$2,$3,0*%
G04 Aperture macros list end*
%TA.AperFunction,ComponentPad*%
%ADD10O,1.000000X2.100000*%
%TD*%
%TA.AperFunction,ComponentPad*%
%ADD11O,1.000000X1.800000*%
%TD*%
%TA.AperFunction,ComponentPad*%
%ADD12R,1.700000X1.700000*%
%TD*%
%TA.AperFunction,ComponentPad*%
%ADD13O,1.700000X1.700000*%
%TD*%
%TA.AperFunction,HeatsinkPad*%
%ADD14C,0.500000*%
%TD*%
%TA.AperFunction,HeatsinkPad*%
%ADD15R,2.500000X2.500000*%
%TD*%
%TA.AperFunction,ComponentPad*%
%ADD16C,0.600000*%
%TD*%
%TA.AperFunction,SMDPad,CuDef*%
%ADD17R,2.800000X2.300000*%
%TD*%
%TA.AperFunction,ComponentPad*%
%ADD18C,2.000000*%
%TD*%
%TA.AperFunction,SMDPad,CuDef*%
%ADD19RoundRect,0.500000X0.500000X2.000000X-0.500000X2.000000X-0.500000X-2.000000X0.500000X-2.000000X0*%
%TD*%
%TA.AperFunction,SMDPad,CuDef*%
%ADD20R,2.340000X3.960000*%
%TD*%
%TA.AperFunction,SMDPad,CuDef*%
%ADD21R,5.080000X3.960000*%
%TD*%
%TA.AperFunction,SMDPad,CuDef*%
%ADD22R,2.400000X0.740000*%
%TD*%
%TA.AperFunction,ViaPad*%
%ADD23C,0.800000*%
%TD*%
%TA.AperFunction,ViaPad*%
%ADD24C,0.600000*%
%TD*%
%TA.AperFunction,Conductor*%
%ADD25C,0.750000*%
%TD*%
%TA.AperFunction,Conductor*%
%ADD26C,0.250000*%
%TD*%
%TA.AperFunction,Conductor*%
%ADD27C,0.200000*%
%TD*%
G04 APERTURE END LIST*
D10*
%TO.P,J7,S1,SHIELD*%
%TO.N,Net-(J7-SHIELD)*%
X128356776Y-100905139D03*
D11*
X128356776Y-105085139D03*
D10*
X136996776Y-100905139D03*
D11*
X136996776Y-105085139D03*
%TD*%
D12*
%TO.P,J4,1,Pin_1*%
%TO.N,D+*%
X142250000Y-84210000D03*
D13*
%TO.P,J4,2,Pin_2*%
%TO.N,D-*%
X142250000Y-86750000D03*
%TO.P,J4,3,Pin_3*%
%TO.N,+3.3V*%
X142250000Y-89290000D03*
%TO.P,J4,4,Pin_4*%
%TO.N,Earth*%
X142250000Y-91830000D03*
%TD*%
D12*
%TO.P,J3,1,Pin_1*%
%TO.N,+3.3V*%
X160380000Y-82590000D03*
D13*
%TO.P,J3,2,Pin_2*%
%TO.N,SDA*%
X160380000Y-85130000D03*
%TO.P,J3,3,Pin_3*%
%TO.N,SCL*%
X160380000Y-87670000D03*
%TO.P,J3,4,Pin_4*%
%TO.N,Earth*%
X160380000Y-90210000D03*
%TD*%
D14*
%TO.P,U6,21,GND_2*%
%TO.N,Earth*%
X153500000Y-93000000D03*
X153500000Y-91000000D03*
D15*
X152500000Y-92000000D03*
D14*
X151500000Y-93000000D03*
X151500000Y-91000000D03*
%TD*%
D12*
%TO.P,J1,1,Pin_1*%
%TO.N,+BATT*%
X142294431Y-63452157D03*
D13*
%TO.P,J1,2,Pin_2*%
%TO.N,Earth*%
X142294431Y-60912157D03*
%TO.P,J1,3,Pin_3*%
%TO.N,+3.3V*%
X142294431Y-58372157D03*
%TD*%
D16*
%TO.P,U3,11,PAD*%
%TO.N,Earth*%
X154385000Y-69255000D03*
X152885000Y-69255000D03*
X153635000Y-69755000D03*
D17*
X153635000Y-69755000D03*
D16*
X154385000Y-70255000D03*
X152885000Y-70255000D03*
%TD*%
D18*
%TO.P,AE2,1,RF*%
%TO.N,Net-(AE2-RF)*%
X153911023Y-105665790D03*
%TO.P,AE2,2,Shield*%
%TO.N,Earth*%
X150696023Y-105665790D03*
D19*
X150696023Y-105665790D03*
D18*
X157126023Y-105665790D03*
D19*
X157126023Y-105665790D03*
%TD*%
D12*
%TO.P,J2,1,Pin_1*%
%TO.N,D38*%
X160400000Y-58580000D03*
D13*
%TO.P,J2,2,Pin_2*%
%TO.N,Earth*%
X160400000Y-61120000D03*
%TO.P,J2,3,Pin_3*%
%TO.N,D12*%
X160400000Y-63660000D03*
%TO.P,J2,4,Pin_4*%
%TO.N,Earth*%
X160400000Y-66200000D03*
%TO.P,J2,5,Pin_5*%
%TO.N,D13*%
X160400000Y-68740000D03*
%TO.P,J2,6,Pin_6*%
%TO.N,Earth*%
X160400000Y-71280000D03*
%TO.P,J2,7,Pin_7*%
%TO.N,A1*%
X160400000Y-73820000D03*
%TO.P,J2,8,Pin_8*%
%TO.N,Earth*%
X160400000Y-76360000D03*
%TO.P,J2,9,Pin_9*%
%TO.N,A2*%
X160400000Y-78900000D03*
%TD*%
D12*
%TO.P,J5,1,Pin_1*%
%TO.N,D+*%
X136241300Y-87746215D03*
D13*
%TO.P,J5,2,Pin_2*%
%TO.N,D-*%
X133701300Y-87746215D03*
%TO.P,J5,3,Pin_3*%
%TO.N,+3.3V*%
X131161300Y-87746215D03*
%TO.P,J5,4,Pin_4*%
%TO.N,Earth*%
X128621300Y-87746215D03*
%TD*%
D12*
%TO.P,J6,1,Pin_1*%
%TO.N,+3.3V*%
X160380000Y-94065000D03*
D13*
%TO.P,J6,2,Pin_2*%
%TO.N,MOSI*%
X160380000Y-96605000D03*
%TO.P,J6,3,Pin_3*%
%TO.N,MISO*%
X160380000Y-99145000D03*
%TO.P,J6,4,Pin_4*%
%TO.N,SCK*%
X160380000Y-101685000D03*
%TO.P,J6,5,Pin_5*%
%TO.N,Earth*%
X160380000Y-104225000D03*
%TD*%
D20*
%TO.P,BT1,*%
%TO.N,*%
X150200000Y-44695000D03*
D21*
%TO.P,BT1,1,+*%
%TO.N,+BATT*%
X150200000Y-57545000D03*
%TO.P,BT1,2,-*%
%TO.N,Earth*%
X150200000Y-87850000D03*
D20*
X150200000Y-100700000D03*
%TD*%
D22*
%TO.P,J8,1,Pin_1*%
%TO.N,+3.3V*%
X146750000Y-101250000D03*
%TO.P,J8,2,Pin_2*%
%TO.N,SWDIO*%
X142850000Y-101250000D03*
%TO.P,J8,3,Pin_3*%
%TO.N,Earth*%
X146750000Y-102520000D03*
%TO.P,J8,4,Pin_4*%
%TO.N,SWCLK*%
X142850000Y-102520000D03*
%TO.P,J8,5,Pin_5*%
%TO.N,Earth*%
X146750000Y-103790000D03*
%TO.P,J8,6,Pin_6*%
%TO.N,unconnected-(J8-Pin_6-Pad6)*%
X142850000Y-103790000D03*
%TO.P,J8,7,Pin_7*%
%TO.N,unconnected-(J8-Pin_7-Pad7)*%
X146750000Y-105060000D03*
%TO.P,J8,8,Pin_8*%
%TO.N,unconnected-(J8-Pin_8-Pad8)*%
X142850000Y-105060000D03*
%TO.P,J8,9,Pin_9*%
%TO.N,unconnected-(J8-Pin_9-Pad9)*%
X146750000Y-106330000D03*
%TO.P,J8,10,Pin_10*%
%TO.N,nRST*%
X142850000Y-106330000D03*
%TD*%
D23*
%TO.N,Earth*%
X150300000Y-98400000D03*
X151477985Y-84722259D03*
X147900000Y-100000000D03*
X157000000Y-67750000D03*
X156000000Y-43828369D03*
X152900000Y-73500000D03*
X156510000Y-48038570D03*
X157064640Y-91282624D03*
X156500000Y-45904284D03*
X148400000Y-70600000D03*
X154100761Y-73460013D03*
X140750000Y-64750000D03*
X155000000Y-54200000D03*
X148700000Y-72100000D03*
X146750000Y-60500000D03*
X160950000Y-37748369D03*
X150000000Y-49500000D03*
X130250000Y-103750000D03*
D24*
X130900000Y-95656687D03*
D23*
X160950000Y-39852246D03*
X156120000Y-37748369D03*
X157398495Y-66500000D03*
X153500000Y-38928369D03*
X143000000Y-98500000D03*
X128750000Y-91000000D03*
X156500000Y-46900000D03*
X153900000Y-44100000D03*
X145750000Y-71500000D03*
X156500000Y-49034284D03*
X154400000Y-40228369D03*
D24*
X127750000Y-89500000D03*
D23*
X152770000Y-95230000D03*
X156510000Y-44771225D03*
X140750000Y-57000000D03*
X152900000Y-37728369D03*
X147060000Y-44470000D03*
X152200000Y-42828369D03*
X154600000Y-45100000D03*
X131500000Y-103750000D03*
X129156247Y-97211402D03*
X155100000Y-76500000D03*
X160950000Y-54267139D03*
X156640503Y-72436099D03*
X157398495Y-63363147D03*
X140750000Y-50000000D03*
X154600000Y-42328369D03*
X156500000Y-54250000D03*
X158010000Y-51812856D03*
X142250000Y-69750000D03*
X144060000Y-44470000D03*
X142060000Y-47830000D03*
X158010000Y-54878214D03*
X155300000Y-43128369D03*
X152700000Y-100200000D03*
X143000000Y-99750000D03*
X153000000Y-40028369D03*
X157100000Y-57200000D03*
X141000000Y-71250000D03*
X141200000Y-75200000D03*
X145750000Y-72750000D03*
X141150000Y-94370000D03*
X154600000Y-46100000D03*
D24*
X137250000Y-89500000D03*
D23*
X154700000Y-57800000D03*
X151300000Y-76100000D03*
X157040000Y-95310000D03*
X158010000Y-53856428D03*
X150300000Y-75100000D03*
X141000000Y-80478020D03*
X141060000Y-47270000D03*
X157040000Y-93270000D03*
X150300000Y-40528369D03*
X158010000Y-52834642D03*
X150200000Y-72100000D03*
X148100000Y-44500000D03*
X156300000Y-64000000D03*
X143060000Y-47210000D03*
X151000000Y-49500000D03*
X141250000Y-55000000D03*
X160950000Y-41876123D03*
X157064640Y-92302624D03*
X157398495Y-65454381D03*
X135750000Y-102750000D03*
X157040000Y-94290000D03*
X155800000Y-62800000D03*
X156895000Y-71250000D03*
X153200000Y-43400000D03*
D24*
X137250000Y-90750000D03*
D23*
X160950000Y-50219385D03*
X148800000Y-73300000D03*
X146750000Y-50250000D03*
X157730000Y-37748369D03*
X141900000Y-107600000D03*
X149000000Y-49500000D03*
X141000000Y-68250000D03*
X151700000Y-102600000D03*
X154600000Y-49460000D03*
X148020000Y-49500000D03*
X151223609Y-77300468D03*
X143700000Y-56500000D03*
X154250000Y-79250000D03*
X132750000Y-103750000D03*
X152300000Y-39328369D03*
X146200000Y-97100000D03*
X135257753Y-94120555D03*
X160950000Y-48195508D03*
X154600000Y-47400000D03*
X141500000Y-79600000D03*
X156500000Y-50030000D03*
X131930000Y-96900000D03*
X152910000Y-97595000D03*
X154600000Y-48460000D03*
X153720000Y-98820000D03*
X156300000Y-87600000D03*
X151700000Y-101100000D03*
X157398495Y-64408764D03*
X152000000Y-49500000D03*
X145305310Y-81505781D03*
X150400000Y-38128369D03*
X146060000Y-44470000D03*
X153600000Y-53600000D03*
X153200000Y-49500000D03*
X151200000Y-42100000D03*
X140300000Y-107650000D03*
X129192696Y-95552010D03*
X161000000Y-46100000D03*
X156100000Y-59500000D03*
X154510000Y-37728369D03*
X159340000Y-37748369D03*
X160950000Y-52243262D03*
D24*
X137750000Y-96000000D03*
D23*
X158010000Y-55900000D03*
X135250000Y-103750000D03*
X146025000Y-92300000D03*
X154770000Y-98810000D03*
X157190000Y-97230000D03*
X148173772Y-76314833D03*
X134000000Y-103750000D03*
X160950000Y-43900000D03*
X145060000Y-44470000D03*
X150300000Y-41428369D03*
X129500000Y-102750000D03*
%TO.N,+3.3V*%
X154377605Y-64069111D03*
X149200000Y-76300000D03*
X153607500Y-65255000D03*
X156700000Y-86467500D03*
X146800000Y-99300000D03*
X148568663Y-106320748D03*
X154357500Y-63000000D03*
X153390002Y-88978107D03*
X154357500Y-66505000D03*
X144390000Y-55280000D03*
X141848000Y-76730000D03*
X130000000Y-94600000D03*
X144307081Y-81600000D03*
X153500000Y-76400000D03*
X157475000Y-81300000D03*
X150615305Y-85270000D03*
X154750000Y-59500000D03*
X151400000Y-71900000D03*
X147100000Y-92300000D03*
X158700000Y-88767500D03*
%TO.N,GPIO1*%
X146597024Y-88127670D03*
X148088612Y-90479669D03*
%TO.N,RF_RST*%
X145575000Y-89646586D03*
X140950000Y-87890000D03*
X143304168Y-82785832D03*
X149040055Y-90787500D03*
%TO.N,SCK*%
X148778661Y-91930002D03*
%TO.N,MISO*%
X149087390Y-92887767D03*
X152475000Y-84800000D03*
%TO.N,MOSI*%
X145575000Y-90800000D03*
X157490000Y-100360000D03*
%TO.N,RF_SS*%
X150775000Y-93720000D03*
X156297591Y-85220260D03*
%TO.N,SDA*%
X157090636Y-83775330D03*
%TO.N,SCL*%
X141746063Y-49911322D03*
X157806556Y-60385147D03*
X157000000Y-79337500D03*
%TO.N,SWDIO*%
X147822340Y-82874802D03*
%TO.N,SWCLK*%
X148696470Y-82389104D03*
%TO.N,nRST*%
X147820789Y-83897149D03*
X142600000Y-93900000D03*
%TO.N,A1*%
X145174927Y-83163304D03*
%TO.N,A2*%
X145319484Y-84285581D03*
%TO.N,D+*%
X133052482Y-101849196D03*
%TO.N,D-*%
X132000000Y-102050000D03*
%TO.N,SUCCESS*%
X145125000Y-88750000D03*
X144725178Y-106221176D03*
%TO.N,ERROR*%
X144312775Y-108469464D03*
X148900000Y-104300000D03*
X151640000Y-95480000D03*
X154562653Y-87037347D03*
%TO.N,SDN*%
X155052263Y-94223043D03*
X155703538Y-86383424D03*
%TO.N,D13*%
X153675001Y-82823388D03*
%TO.N,D12*%
X157363639Y-75173639D03*
%TO.N,+BATT*%
X147000000Y-58750000D03*
X147000000Y-57700000D03*
X144025000Y-74699191D03*
%TO.N,TXD*%
X151460304Y-81504999D03*
X151509790Y-54809991D03*
%TO.N,RXD*%
X150340626Y-54300000D03*
X152406925Y-81827358D03*
%TO.N,GPS_EN*%
X142200000Y-82000000D03*
X153500000Y-58250000D03*
%TO.N,USB*%
X128600000Y-98333575D03*
X131870000Y-98150000D03*
%TO.N,D38*%
X152300000Y-82824750D03*
%TD*%
D25*
%TO.N,USB*%
X131686425Y-98333575D02*
X131870000Y-98150000D01*
X128600000Y-98333575D02*
X131686425Y-98333575D01*
D26*
%TO.N,ERROR*%
X149293663Y-104693663D02*
X148900000Y-104300000D01*
X148750000Y-107250000D02*
X149293663Y-106706337D01*
X149293663Y-106706337D02*
X149293663Y-104693663D01*
X144312775Y-108469464D02*
X145532239Y-107250000D01*
X145532239Y-107250000D02*
X148750000Y-107250000D01*
%TO.N,Earth*%
X151477985Y-86572015D02*
X151477985Y-84722259D01*
X150200000Y-87850000D02*
X151477985Y-86572015D01*
%TO.N,MISO*%
X157975000Y-85685000D02*
X157975000Y-95025000D01*
X156740000Y-84450000D02*
X157975000Y-85685000D01*
X152475000Y-84800000D02*
X152825000Y-84450000D01*
X152825000Y-84450000D02*
X156740000Y-84450000D01*
%TO.N,Earth*%
X151700000Y-102600000D02*
X150200000Y-101100000D01*
X151700000Y-101100000D02*
X150600000Y-101100000D01*
X160340000Y-76330000D02*
X160380000Y-76370000D01*
%TO.N,+3.3V*%
X153607500Y-65255000D02*
X150500000Y-68362500D01*
X146800000Y-99300000D02*
X146750000Y-99350000D01*
X150500000Y-71000000D02*
X151400000Y-71900000D01*
X146750000Y-99350000D02*
X146750000Y-101250000D01*
D25*
X129900000Y-93755000D02*
X129900000Y-89007515D01*
X129900000Y-89007515D02*
X131161300Y-87746215D01*
D26*
X150500000Y-68362500D02*
X150500000Y-71000000D01*
%TO.N,GPIO1*%
X147229669Y-90479669D02*
X148088612Y-90479669D01*
X146597024Y-89847024D02*
X147229669Y-90479669D01*
X146597024Y-88127670D02*
X146597024Y-89847024D01*
%TO.N,RF_RST*%
X143700000Y-85110000D02*
X143700000Y-83181664D01*
X145760190Y-89646586D02*
X145575000Y-89646586D01*
X140950000Y-87890000D02*
X140950000Y-86388299D01*
X147318606Y-91205002D02*
X145760190Y-89646586D01*
X143240000Y-85570000D02*
X143700000Y-85110000D01*
X148622553Y-91205002D02*
X147318606Y-91205002D01*
X140950000Y-86388299D02*
X141768299Y-85570000D01*
X143700000Y-83181664D02*
X143304168Y-82785832D01*
X149040055Y-90787500D02*
X148622553Y-91205002D01*
X141768299Y-85570000D02*
X143240000Y-85570000D01*
%TO.N,SCK*%
X155565000Y-96870000D02*
X160380000Y-101685000D01*
X148362390Y-94062390D02*
X151170000Y-96870000D01*
X148362390Y-92346273D02*
X148362390Y-94062390D01*
X151170000Y-96870000D02*
X155565000Y-96870000D01*
X148778661Y-91930002D02*
X148362390Y-92346273D01*
%TO.N,MISO*%
X149087390Y-92887767D02*
X149087390Y-94007390D01*
X160380000Y-99145000D02*
X157975000Y-96740000D01*
X157975000Y-96740000D02*
X157975000Y-95025000D01*
X151500000Y-96420000D02*
X157855000Y-96420000D01*
X157855000Y-96420000D02*
X157975000Y-96540000D01*
X149087390Y-94007390D02*
X151500000Y-96420000D01*
X157975000Y-96540000D02*
X157975000Y-95025000D01*
%TO.N,MOSI*%
X147912390Y-94248786D02*
X154023604Y-100360000D01*
X145300000Y-93400000D02*
X146148786Y-94248786D01*
X154023604Y-100360000D02*
X157490000Y-100360000D01*
X145300000Y-91075000D02*
X145300000Y-93400000D01*
X146148786Y-94248786D02*
X147912390Y-94248786D01*
X145575000Y-90800000D02*
X145300000Y-91075000D01*
%TO.N,RF_SS*%
X156297591Y-85220260D02*
X155354435Y-85220260D01*
X154250000Y-87749999D02*
X154250000Y-93363604D01*
X153893604Y-93720000D02*
X150775000Y-93720000D01*
X153837653Y-86737042D02*
X153837653Y-87337652D01*
X155354435Y-85220260D02*
X153837653Y-86737042D01*
X154250000Y-93363604D02*
X153893604Y-93720000D01*
X153837653Y-87337652D02*
X154250000Y-87749999D01*
%TO.N,SDA*%
X157090636Y-83775330D02*
X157125966Y-83740000D01*
X160380000Y-85120000D02*
X160380000Y-85130000D01*
X157090636Y-83775330D02*
X157115813Y-83750153D01*
X159000000Y-83740000D02*
X160380000Y-85120000D01*
X157125966Y-83740000D02*
X159000000Y-83740000D01*
%TO.N,SCL*%
X161570880Y-81240880D02*
X161570880Y-86479120D01*
X158127761Y-59577761D02*
X151550000Y-53000000D01*
X161570880Y-86479120D02*
X160380000Y-87670000D01*
X157147500Y-79337500D02*
X158310000Y-80500000D01*
X143911322Y-49911322D02*
X141746063Y-49911322D01*
X158310000Y-80500000D02*
X160830000Y-80500000D01*
X151550000Y-53000000D02*
X147000000Y-53000000D01*
X157806556Y-60385147D02*
X158127761Y-60063942D01*
X147000000Y-53000000D02*
X143911322Y-49911322D01*
X158127761Y-60063942D02*
X158127761Y-59577761D01*
X157000000Y-79337500D02*
X157147500Y-79337500D01*
X160830000Y-80500000D02*
X161570880Y-81240880D01*
%TO.N,SWDIO*%
X148545789Y-83596844D02*
X148545789Y-84197454D01*
X142250000Y-97500000D02*
X142250000Y-100650000D01*
X148121094Y-84622149D02*
X147514247Y-84622149D01*
X147822340Y-82874802D02*
X148119687Y-83172149D01*
X148121094Y-83172149D02*
X148545789Y-83596844D01*
X148545789Y-84197454D02*
X148121094Y-84622149D01*
X147514247Y-84622149D02*
X143950000Y-88186396D01*
X148119687Y-83172149D02*
X148121094Y-83172149D01*
X142250000Y-100650000D02*
X142850000Y-101250000D01*
X143950000Y-88186396D02*
X143950000Y-95800000D01*
X143950000Y-95800000D02*
X142250000Y-97500000D01*
%TO.N,SWCLK*%
X147700643Y-85072149D02*
X144400000Y-88372792D01*
X144400000Y-95986396D02*
X143750000Y-96636396D01*
X148995789Y-82688423D02*
X148995789Y-84383850D01*
X148307490Y-85072149D02*
X147700643Y-85072149D01*
X143750000Y-100000000D02*
X144500000Y-100750000D01*
X144500000Y-102320000D02*
X144300000Y-102520000D01*
X148995789Y-84383850D02*
X148307490Y-85072149D01*
X144500000Y-100750000D02*
X144500000Y-102320000D01*
X148696470Y-82389104D02*
X148995789Y-82688423D01*
X144300000Y-102520000D02*
X142850000Y-102520000D01*
X144400000Y-88372792D02*
X144400000Y-95986396D01*
X143750000Y-96636396D02*
X143750000Y-100000000D01*
%TO.N,nRST*%
X142600000Y-93900000D02*
X142600000Y-93945305D01*
X142600000Y-93945305D02*
X141250000Y-95295305D01*
X141250000Y-95295305D02*
X141250000Y-106060000D01*
X141250000Y-106060000D02*
X141520000Y-106330000D01*
X143500000Y-88000000D02*
X147602851Y-83897149D01*
X143500000Y-93000000D02*
X143500000Y-88000000D01*
X147602851Y-83897149D02*
X147820789Y-83897149D01*
X142600000Y-93900000D02*
X143500000Y-93000000D01*
X141520000Y-106330000D02*
X142850000Y-106330000D01*
%TO.N,A1*%
X145563836Y-83163304D02*
X147727140Y-81000000D01*
X151799750Y-83549750D02*
X154700555Y-83549750D01*
X155450000Y-82800305D02*
X155450000Y-78748980D01*
X145174927Y-83163304D02*
X145563836Y-83163304D01*
X149250000Y-81000000D02*
X151799750Y-83549750D01*
X147727140Y-81000000D02*
X149250000Y-81000000D01*
X155471020Y-78748980D02*
X160400000Y-73820000D01*
X155450000Y-78748980D02*
X155471020Y-78748980D01*
X159910000Y-74300000D02*
X160380000Y-73830000D01*
X154700555Y-83549750D02*
X155450000Y-82800305D01*
%TO.N,A2*%
X149040977Y-81500000D02*
X151540977Y-84000000D01*
X155900000Y-79100000D02*
X156950000Y-78050000D01*
X159970000Y-78500000D02*
X160380000Y-78910000D01*
X154886701Y-84000000D02*
X155900000Y-82986701D01*
X147863536Y-81500000D02*
X149040977Y-81500000D01*
X155900000Y-82986701D02*
X155900000Y-79100000D01*
X156950000Y-78050000D02*
X159550000Y-78050000D01*
X145319484Y-84285581D02*
X145319484Y-84044052D01*
X145319484Y-84044052D02*
X147863536Y-81500000D01*
X151540977Y-84000000D02*
X154886701Y-84000000D01*
X159550000Y-78050000D02*
X160400000Y-78900000D01*
%TO.N,D+*%
X134300000Y-89700000D02*
X136241300Y-87758700D01*
D27*
X140650000Y-86070000D02*
X140650000Y-84790000D01*
D26*
X134300000Y-100601678D02*
X134300000Y-89700000D01*
D27*
X140357965Y-86362035D02*
X140650000Y-86070000D01*
D26*
X133052482Y-101849196D02*
X134300000Y-100601678D01*
D27*
X137625480Y-86362035D02*
X140357965Y-86362035D01*
X141230000Y-84210000D02*
X142250000Y-84210000D01*
X140650000Y-84790000D02*
X141230000Y-84210000D01*
D26*
X136241300Y-87758700D02*
X136241300Y-87746215D01*
D27*
X136241300Y-87746215D02*
X137625480Y-86362035D01*
D26*
%TO.N,D-*%
X132000000Y-101402105D02*
X133692500Y-99709605D01*
X132000000Y-102050000D02*
X132000000Y-101402105D01*
X133692500Y-99709605D02*
X133692500Y-87755015D01*
X133692500Y-87755015D02*
X133701300Y-87746215D01*
%TO.N,ERROR*%
X154795000Y-87269694D02*
X154795000Y-93455000D01*
X152650000Y-94170000D02*
X151640000Y-95180000D01*
X154562653Y-87037347D02*
X154795000Y-87269694D01*
X151640000Y-95180000D02*
X151640000Y-95480000D01*
X154080000Y-94170000D02*
X152650000Y-94170000D01*
X154795000Y-93455000D02*
X154080000Y-94170000D01*
%TO.N,SDN*%
X155502739Y-87048044D02*
X155502739Y-93772567D01*
X155703538Y-86847245D02*
X155502739Y-87048044D01*
X155703538Y-86383424D02*
X155703538Y-86847245D01*
X155502739Y-93772567D02*
X155052263Y-94223043D01*
%TO.N,D13*%
X155000000Y-78562584D02*
X159200000Y-74362584D01*
X155000000Y-82362500D02*
X155000000Y-78562584D01*
X153675001Y-82823388D02*
X153951363Y-83099750D01*
X159200000Y-69940000D02*
X160400000Y-68740000D01*
X159200000Y-74362584D02*
X159200000Y-69940000D01*
X153951363Y-83099750D02*
X154262750Y-83099750D01*
X154262750Y-83099750D02*
X155000000Y-82362500D01*
%TO.N,D12*%
X158750000Y-65310000D02*
X160400000Y-63660000D01*
X157363639Y-75173639D02*
X158750000Y-73787278D01*
X158750000Y-73787278D02*
X158750000Y-65310000D01*
D25*
%TO.N,+BATT*%
X147000000Y-58750000D02*
X147600000Y-58750000D01*
X147600000Y-58750000D02*
X148995000Y-58750000D01*
D26*
X147000000Y-58750000D02*
X147650000Y-58750000D01*
D25*
X147700000Y-57700000D02*
X150045000Y-57700000D01*
X147000000Y-58400000D02*
X147700000Y-57700000D01*
X150045000Y-57700000D02*
X150200000Y-57545000D01*
X143500000Y-68000000D02*
X142294431Y-66794431D01*
X144025000Y-74699191D02*
X143500000Y-74174191D01*
X148995000Y-58750000D02*
X150200000Y-57545000D01*
X147000000Y-57700000D02*
X147700000Y-57700000D01*
X143500000Y-74174191D02*
X143500000Y-68000000D01*
X147000000Y-58750000D02*
X147000000Y-58400000D01*
X142294431Y-66794431D02*
X142294431Y-63452157D01*
X147000000Y-57700000D02*
X147600000Y-58300000D01*
D26*
X147650000Y-58750000D02*
X148075000Y-59175000D01*
D25*
X147600000Y-58300000D02*
X147600000Y-58750000D01*
D26*
%TO.N,TXD*%
X146000000Y-56700000D02*
X147500000Y-55200000D01*
X151119781Y-55200000D02*
X151509790Y-54809991D01*
X147175000Y-70048654D02*
X146000000Y-68873654D01*
X151071395Y-81504999D02*
X147175000Y-77608604D01*
X146000000Y-68873654D02*
X146000000Y-56700000D01*
X147500000Y-55200000D02*
X151119781Y-55200000D01*
X151460304Y-81504999D02*
X151071395Y-81504999D01*
X147175000Y-77608604D02*
X147175000Y-70048654D01*
%TO.N,RXD*%
X147555551Y-54400000D02*
X150240626Y-54400000D01*
X152164283Y-82070000D02*
X151986917Y-82070000D01*
X146725000Y-77795000D02*
X146725000Y-70235050D01*
X151986917Y-82070000D02*
X151826917Y-82230000D01*
X151826917Y-82230000D02*
X151160000Y-82230000D01*
X145500000Y-69010050D02*
X145500000Y-56455551D01*
X146725000Y-70235050D02*
X145500000Y-69010050D01*
X151160000Y-82230000D02*
X146725000Y-77795000D01*
X150240626Y-54400000D02*
X150340626Y-54300000D01*
X145500000Y-56455551D02*
X147555551Y-54400000D01*
X152406925Y-81827358D02*
X152164283Y-82070000D01*
%TO.N,GPS_EN*%
X144750000Y-79474695D02*
X144750000Y-56350000D01*
X147600000Y-53500000D02*
X151250000Y-53500000D01*
X142224695Y-82000000D02*
X144750000Y-79474695D01*
X142200000Y-82000000D02*
X142224695Y-82000000D01*
X144750000Y-56350000D02*
X147600000Y-53500000D01*
X153500000Y-55750000D02*
X153500000Y-58250000D01*
X151250000Y-53500000D02*
X153500000Y-55750000D01*
D25*
%TO.N,Net-(J7-SHIELD)*%
X137000000Y-105010000D02*
X128360000Y-105010000D01*
D26*
%TO.N,D38*%
X158300000Y-71900000D02*
X158300000Y-61000000D01*
X153500000Y-77425305D02*
X154375000Y-76550305D01*
X154375000Y-75825000D02*
X158300000Y-71900000D01*
X160400000Y-58900000D02*
X160400000Y-58580000D01*
X153500000Y-81973084D02*
X153500000Y-77425305D01*
X158300000Y-61000000D02*
X160400000Y-58900000D01*
X152648334Y-82824750D02*
X153500000Y-81973084D01*
X154375000Y-76550305D02*
X154375000Y-75825000D01*
X152300000Y-82824750D02*
X152648334Y-82824750D01*
%TO.N,Earth*%
X146750000Y-103790000D02*
X146750000Y-102520000D01*
%TO.N,SUCCESS*%
X144850000Y-89025000D02*
X145125000Y-88750000D01*
X144850000Y-96172792D02*
X144850000Y-89025000D01*
X144950000Y-102506396D02*
X144950000Y-100563604D01*
X144250000Y-96772792D02*
X144850000Y-96172792D01*
X144658181Y-102798215D02*
X144950000Y-102506396D01*
X144658181Y-106154179D02*
X144658181Y-102798215D01*
X144250000Y-99863604D02*
X144250000Y-96772792D01*
X144725178Y-106221176D02*
X144658181Y-106154179D01*
X144950000Y-100563604D02*
X144250000Y-99863604D01*
%TO.N,Earth*%
X148600000Y-100700000D02*
X147900000Y-100000000D01*
X148599695Y-100699695D02*
X147900000Y-100000000D01*
X148599695Y-101500305D02*
X148599695Y-100699695D01*
X147580000Y-102520000D02*
X148599695Y-101500305D01*
X146750000Y-102520000D02*
X147580000Y-102520000D01*
X150300000Y-98400000D02*
X150300000Y-100600000D01*
%TD*%
%TA.AperFunction,Conductor*%
%TO.N,Earth*%
G36*
X145280703Y-69251525D02*
G01*
X145287167Y-69257544D01*
X145825206Y-69795582D01*
X146363181Y-70333557D01*
X146396666Y-70394880D01*
X146399500Y-70421238D01*
X146399500Y-77752147D01*
X146399500Y-77837853D01*
X146410591Y-77879246D01*
X146421682Y-77920640D01*
X146443108Y-77957750D01*
X146464535Y-77994862D01*
X146464537Y-77994864D01*
X148932492Y-80462819D01*
X148965977Y-80524142D01*
X148960993Y-80593834D01*
X148919121Y-80649767D01*
X148853657Y-80674184D01*
X148844811Y-80674500D01*
X147684287Y-80674500D01*
X147601499Y-80696682D01*
X147527278Y-80739535D01*
X147527275Y-80739537D01*
X145639692Y-82627119D01*
X145578369Y-82660604D01*
X145508677Y-82655620D01*
X145484991Y-82642502D01*
X145484803Y-82642830D01*
X145477763Y-82638765D01*
X145331692Y-82578261D01*
X145331687Y-82578259D01*
X145174928Y-82557622D01*
X145174926Y-82557622D01*
X145018166Y-82578259D01*
X145018164Y-82578260D01*
X144872087Y-82638767D01*
X144746645Y-82735022D01*
X144650390Y-82860464D01*
X144589883Y-83006541D01*
X144589882Y-83006543D01*
X144569245Y-83163302D01*
X144569245Y-83163305D01*
X144589882Y-83320064D01*
X144589883Y-83320066D01*
X144648816Y-83462344D01*
X144650391Y-83466145D01*
X144690358Y-83518231D01*
X144746646Y-83591587D01*
X144781807Y-83618567D01*
X144867584Y-83684386D01*
X144908787Y-83740813D01*
X144912942Y-83810559D01*
X144890474Y-83858247D01*
X144794948Y-83982738D01*
X144734440Y-84128818D01*
X144734439Y-84128820D01*
X144713802Y-84285579D01*
X144713802Y-84285582D01*
X144734439Y-84442341D01*
X144734440Y-84442343D01*
X144778842Y-84549540D01*
X144794948Y-84588422D01*
X144891202Y-84713863D01*
X145016643Y-84810117D01*
X145162722Y-84870625D01*
X145212300Y-84877152D01*
X145319483Y-84891263D01*
X145319484Y-84891263D01*
X145319485Y-84891263D01*
X145419072Y-84878152D01*
X145476246Y-84870625D01*
X145622325Y-84810117D01*
X145747766Y-84713863D01*
X145844020Y-84588422D01*
X145904528Y-84442343D01*
X145925166Y-84285581D01*
X145921859Y-84260465D01*
X145904528Y-84128820D01*
X145904527Y-84128818D01*
X145893344Y-84101819D01*
X145874878Y-84057236D01*
X145867409Y-83987767D01*
X145898685Y-83925288D01*
X145901730Y-83922131D01*
X147007728Y-82816133D01*
X147069049Y-82782650D01*
X147138741Y-82787634D01*
X147194674Y-82829506D01*
X147218346Y-82887630D01*
X147230744Y-82981799D01*
X147237031Y-83029554D01*
X147237296Y-83031562D01*
X147237296Y-83031564D01*
X147295106Y-83171131D01*
X147297804Y-83177643D01*
X147394058Y-83303084D01*
X147394060Y-83303085D01*
X147399006Y-83309531D01*
X147396219Y-83311669D01*
X147421978Y-83358842D01*
X147416994Y-83428534D01*
X147395955Y-83461269D01*
X147397455Y-83462420D01*
X147392509Y-83468865D01*
X147392507Y-83468867D01*
X147354629Y-83518231D01*
X147296252Y-83594309D01*
X147235745Y-83740387D01*
X147231605Y-83771831D01*
X147203337Y-83835727D01*
X147196347Y-83843325D01*
X143239537Y-87800135D01*
X143239535Y-87800138D01*
X143196682Y-87874360D01*
X143177466Y-87946078D01*
X143177465Y-87946081D01*
X143174500Y-87957144D01*
X143174500Y-88427568D01*
X143154815Y-88494607D01*
X143102011Y-88540362D01*
X143032853Y-88550306D01*
X142971836Y-88523422D01*
X142858622Y-88430511D01*
X142836450Y-88412315D01*
X142653954Y-88314768D01*
X142455934Y-88254700D01*
X142455932Y-88254699D01*
X142455934Y-88254699D01*
X142250000Y-88234417D01*
X142044067Y-88254699D01*
X141846043Y-88314769D01*
X141752911Y-88364550D01*
X141663550Y-88412315D01*
X141663548Y-88412316D01*
X141663547Y-88412317D01*
X141503589Y-88543589D01*
X141372317Y-88703547D01*
X141274769Y-88886043D01*
X141214699Y-89084067D01*
X141194417Y-89290000D01*
X141214699Y-89495932D01*
X141235090Y-89563151D01*
X141274768Y-89693954D01*
X141372315Y-89876450D01*
X141372317Y-89876452D01*
X141503589Y-90036410D01*
X141566706Y-90088208D01*
X141663550Y-90167685D01*
X141846046Y-90265232D01*
X142044066Y-90325300D01*
X142044065Y-90325300D01*
X142062529Y-90327118D01*
X142250000Y-90345583D01*
X142455934Y-90325300D01*
X142653954Y-90265232D01*
X142836450Y-90167685D01*
X142971835Y-90056577D01*
X143036145Y-90029265D01*
X143105013Y-90041056D01*
X143156573Y-90088208D01*
X143174500Y-90152431D01*
X143174500Y-92813810D01*
X143154815Y-92880849D01*
X143138181Y-92901491D01*
X142771683Y-93267988D01*
X142710360Y-93301473D01*
X142667817Y-93303246D01*
X142600001Y-93294318D01*
X142599999Y-93294318D01*
X142443239Y-93314955D01*
X142443237Y-93314956D01*
X142297160Y-93375463D01*
X142171718Y-93471718D01*
X142075463Y-93597160D01*
X142014956Y-93743237D01*
X142014955Y-93743239D01*
X141994318Y-93899998D01*
X141994318Y-93900002D01*
X142008516Y-94007853D01*
X141997750Y-94076888D01*
X141973258Y-94111718D01*
X140989537Y-95095440D01*
X140989533Y-95095446D01*
X140946682Y-95169665D01*
X140944675Y-95177159D01*
X140942562Y-95185044D01*
X140924500Y-95252452D01*
X140924500Y-106017147D01*
X140924500Y-106102853D01*
X140946682Y-106185639D01*
X140989535Y-106259862D01*
X141259533Y-106529860D01*
X141259535Y-106529862D01*
X141320138Y-106590465D01*
X141377511Y-106623589D01*
X141388638Y-106630013D01*
X141436853Y-106680579D01*
X141446756Y-106714083D01*
X141448311Y-106713774D01*
X141461131Y-106778226D01*
X141461132Y-106778230D01*
X141505447Y-106844552D01*
X141571769Y-106888867D01*
X141571770Y-106888868D01*
X141630247Y-106900499D01*
X141630250Y-106900500D01*
X141630252Y-106900500D01*
X144069750Y-106900500D01*
X144069751Y-106900499D01*
X144084568Y-106897552D01*
X144128229Y-106888868D01*
X144128229Y-106888867D01*
X144128231Y-106888867D01*
X144194552Y-106844552D01*
X144207345Y-106825407D01*
X144241861Y-106773750D01*
X144295473Y-106728944D01*
X144364798Y-106720237D01*
X144415116Y-106741960D01*
X144415297Y-106741648D01*
X144417982Y-106743198D01*
X144420446Y-106744262D01*
X144422334Y-106745710D01*
X144422337Y-106745712D01*
X144568416Y-106806220D01*
X144586859Y-106808648D01*
X144725177Y-106826858D01*
X144725178Y-106826858D01*
X144725179Y-106826858D01*
X144777432Y-106819978D01*
X144881940Y-106806220D01*
X145028019Y-106745712D01*
X145153211Y-106649648D01*
X145218377Y-106624456D01*
X145286822Y-106638494D01*
X145336812Y-106687308D01*
X145350312Y-106723834D01*
X145361131Y-106778226D01*
X145361132Y-106778230D01*
X145381457Y-106808648D01*
X145402336Y-106875325D01*
X145383852Y-106942706D01*
X145340361Y-106984924D01*
X145332383Y-106989530D01*
X145332375Y-106989536D01*
X145271772Y-107050140D01*
X144484459Y-107837452D01*
X144423136Y-107870937D01*
X144380593Y-107872710D01*
X144312776Y-107863782D01*
X144312774Y-107863782D01*
X144156014Y-107884419D01*
X144156012Y-107884420D01*
X144009935Y-107944927D01*
X143884493Y-108041182D01*
X143788238Y-108166624D01*
X143727731Y-108312701D01*
X143727730Y-108312703D01*
X143707093Y-108469462D01*
X143707093Y-108469465D01*
X143727730Y-108626224D01*
X143727731Y-108626226D01*
X143788239Y-108772305D01*
X143884493Y-108897746D01*
X144009934Y-108994000D01*
X144156013Y-109054508D01*
X144234394Y-109064827D01*
X144312774Y-109075146D01*
X144312775Y-109075146D01*
X144312776Y-109075146D01*
X144365029Y-109068266D01*
X144469537Y-109054508D01*
X144615616Y-108994000D01*
X144741057Y-108897746D01*
X144837311Y-108772305D01*
X144897819Y-108626226D01*
X144918457Y-108469464D01*
X144915894Y-108450000D01*
X144909528Y-108401644D01*
X144920293Y-108332609D01*
X144944781Y-108297782D01*
X145038321Y-108204242D01*
X145099643Y-108170760D01*
X145169334Y-108175744D01*
X145225268Y-108217616D01*
X145249684Y-108283081D01*
X145250000Y-108291926D01*
X145250000Y-113076000D01*
X145230315Y-113143039D01*
X145177511Y-113188794D01*
X145126000Y-113200000D01*
X140424000Y-113200000D01*
X140356961Y-113180315D01*
X140311206Y-113127511D01*
X140300000Y-113076000D01*
X140300000Y-110482072D01*
X141539804Y-110482072D01*
X141539804Y-110671045D01*
X141569363Y-110857677D01*
X141627758Y-111037395D01*
X141713544Y-111205758D01*
X141824614Y-111358632D01*
X141958231Y-111492249D01*
X142111105Y-111603319D01*
X142190651Y-111643849D01*
X142279467Y-111689104D01*
X142279469Y-111689104D01*
X142279472Y-111689106D01*
X142375801Y-111720405D01*
X142459185Y-111747499D01*
X142645818Y-111777059D01*
X142645823Y-111777059D01*
X142834790Y-111777059D01*
X143021422Y-111747499D01*
X143201136Y-111689106D01*
X143369503Y-111603319D01*
X143522377Y-111492249D01*
X143655994Y-111358632D01*
X143767064Y-111205758D01*
X143852851Y-111037391D01*
X143911244Y-110857677D01*
X143940804Y-110671045D01*
X143940804Y-110482072D01*
X143911244Y-110295440D01*
X143852849Y-110115722D01*
X143767063Y-109947359D01*
X143655994Y-109794486D01*
X143522377Y-109660869D01*
X143369503Y-109549799D01*
X143201140Y-109464013D01*
X143021422Y-109405618D01*
X142834790Y-109376059D01*
X142834785Y-109376059D01*
X142645823Y-109376059D01*
X142645818Y-109376059D01*
X142459185Y-109405618D01*
X142279467Y-109464013D01*
X142111104Y-109549799D01*
X142023883Y-109613169D01*
X141958231Y-109660869D01*
X141958229Y-109660871D01*
X141958228Y-109660871D01*
X141824616Y-109794483D01*
X141824616Y-109794484D01*
X141824614Y-109794486D01*
X141776914Y-109860138D01*
X141713544Y-109947359D01*
X141627758Y-110115722D01*
X141569363Y-110295440D01*
X141539804Y-110482072D01*
X140300000Y-110482072D01*
X140300000Y-108450000D01*
X126874000Y-108450000D01*
X126806961Y-108430315D01*
X126761206Y-108377511D01*
X126750000Y-108326000D01*
X126750000Y-105554134D01*
X127656275Y-105554134D01*
X127683194Y-105689461D01*
X127683197Y-105689471D01*
X127735997Y-105816943D01*
X127736004Y-105816956D01*
X127812661Y-105931680D01*
X127812664Y-105931684D01*
X127910230Y-106029250D01*
X127910234Y-106029253D01*
X128024958Y-106105910D01*
X128024971Y-106105917D01*
X128152443Y-106158717D01*
X128152448Y-106158719D01*
X128152452Y-106158719D01*
X128152453Y-106158720D01*
X128287780Y-106185639D01*
X128287783Y-106185639D01*
X128425771Y-106185639D01*
X128516817Y-106167528D01*
X128561104Y-106158719D01*
X128688587Y-106105914D01*
X128803318Y-106029253D01*
X128900890Y-105931681D01*
X128977551Y-105816950D01*
X129030356Y-105689467D01*
X129030358Y-105689457D01*
X129031185Y-105685304D01*
X129063572Y-105623394D01*
X129124289Y-105588822D01*
X129152801Y-105585500D01*
X136200751Y-105585500D01*
X136267790Y-105605185D01*
X136313545Y-105657989D01*
X136322367Y-105685304D01*
X136323193Y-105689457D01*
X136323197Y-105689471D01*
X136375997Y-105816943D01*
X136376004Y-105816956D01*
X136452661Y-105931680D01*
X136452664Y-105931684D01*
X136550230Y-106029250D01*
X136550234Y-106029253D01*
X136664958Y-106105910D01*
X136664971Y-106105917D01*
X136792443Y-106158717D01*
X136792448Y-106158719D01*
X136792452Y-106158719D01*
X136792453Y-106158720D01*
X136927780Y-106185639D01*
X136927783Y-106185639D01*
X137065771Y-106185639D01*
X137156817Y-106167528D01*
X137201104Y-106158719D01*
X137328587Y-106105914D01*
X137443318Y-106029253D01*
X137540890Y-105931681D01*
X137617551Y-105816950D01*
X137670356Y-105689467D01*
X137684399Y-105618867D01*
X137697276Y-105554134D01*
X137697276Y-104616143D01*
X137670357Y-104480816D01*
X137670356Y-104480815D01*
X137670356Y-104480811D01*
X137660395Y-104456762D01*
X137617554Y-104353334D01*
X137617547Y-104353321D01*
X137540890Y-104238597D01*
X137540887Y-104238593D01*
X137443321Y-104141027D01*
X137443317Y-104141024D01*
X137328593Y-104064367D01*
X137328580Y-104064360D01*
X137201108Y-104011560D01*
X137201098Y-104011557D01*
X137065771Y-103984639D01*
X137065769Y-103984639D01*
X136927783Y-103984639D01*
X136927781Y-103984639D01*
X136792453Y-104011557D01*
X136792443Y-104011560D01*
X136664971Y-104064360D01*
X136664958Y-104064367D01*
X136550234Y-104141024D01*
X136550230Y-104141027D01*
X136452664Y-104238593D01*
X136452661Y-104238597D01*
X136376003Y-104353323D01*
X136375810Y-104353787D01*
X136374086Y-104357949D01*
X136330249Y-104412353D01*
X136263956Y-104434421D01*
X136259525Y-104434500D01*
X129094027Y-104434500D01*
X129026988Y-104414815D01*
X128981233Y-104362011D01*
X128979477Y-104357978D01*
X128977551Y-104353328D01*
X128977546Y-104353321D01*
X128900890Y-104238597D01*
X128900887Y-104238593D01*
X128803321Y-104141027D01*
X128803317Y-104141024D01*
X128688593Y-104064367D01*
X128688580Y-104064360D01*
X128561108Y-104011560D01*
X128561098Y-104011557D01*
X128425771Y-103984639D01*
X128425769Y-103984639D01*
X128287783Y-103984639D01*
X128287781Y-103984639D01*
X128152453Y-104011557D01*
X128152443Y-104011560D01*
X128024971Y-104064360D01*
X128024958Y-104064367D01*
X127910234Y-104141024D01*
X127910230Y-104141027D01*
X127812664Y-104238593D01*
X127812661Y-104238597D01*
X127736004Y-104353321D01*
X127735997Y-104353334D01*
X127683197Y-104480806D01*
X127683194Y-104480816D01*
X127656276Y-104616143D01*
X127656276Y-104616146D01*
X127656276Y-105554132D01*
X127656276Y-105554134D01*
X127656275Y-105554134D01*
X126750000Y-105554134D01*
X126750000Y-101524134D01*
X127656275Y-101524134D01*
X127683194Y-101659461D01*
X127683197Y-101659471D01*
X127735997Y-101786943D01*
X127736004Y-101786956D01*
X127812661Y-101901680D01*
X127812664Y-101901684D01*
X127910230Y-101999250D01*
X127910234Y-101999253D01*
X128024958Y-102075910D01*
X128024971Y-102075917D01*
X128152443Y-102128717D01*
X128152448Y-102128719D01*
X128152452Y-102128719D01*
X128152453Y-102128720D01*
X128287780Y-102155639D01*
X128287783Y-102155639D01*
X128425771Y-102155639D01*
X128516817Y-102137528D01*
X128561104Y-102128719D01*
X128688587Y-102075914D01*
X128803318Y-101999253D01*
X128900890Y-101901681D01*
X128977551Y-101786950D01*
X129030356Y-101659467D01*
X129039165Y-101615180D01*
X129057276Y-101524134D01*
X129057276Y-101349121D01*
X129361276Y-101349121D01*
X129361276Y-101461157D01*
X129390273Y-101569376D01*
X129446291Y-101666402D01*
X129525513Y-101745624D01*
X129622539Y-101801642D01*
X129730758Y-101830639D01*
X129730760Y-101830639D01*
X129842792Y-101830639D01*
X129842794Y-101830639D01*
X129951013Y-101801642D01*
X130048039Y-101745624D01*
X130127261Y-101666402D01*
X130183279Y-101569376D01*
X130212276Y-101461157D01*
X130212276Y-101349121D01*
X130183279Y-101240902D01*
X130127261Y-101143876D01*
X130048039Y-101064654D01*
X129951013Y-101008636D01*
X129842794Y-100979639D01*
X129730758Y-100979639D01*
X129622539Y-101008636D01*
X129622536Y-101008637D01*
X129525516Y-101064652D01*
X129525510Y-101064656D01*
X129446293Y-101143873D01*
X129446289Y-101143879D01*
X129390274Y-101240899D01*
X129390273Y-101240902D01*
X129361276Y-101349121D01*
X129057276Y-101349121D01*
X129057276Y-100286143D01*
X129030357Y-100150816D01*
X129030356Y-100150815D01*
X129030356Y-100150811D01*
X129019930Y-100125640D01*
X128977554Y-100023334D01*
X128977547Y-100023321D01*
X128900890Y-99908597D01*
X128900887Y-99908593D01*
X128803321Y-99811027D01*
X128803317Y-99811024D01*
X128688593Y-99734367D01*
X128688580Y-99734360D01*
X128561108Y-99681560D01*
X128561098Y-99681557D01*
X128425771Y-99654639D01*
X128425769Y-99654639D01*
X128287783Y-99654639D01*
X128287781Y-99654639D01*
X128152453Y-99681557D01*
X128152443Y-99681560D01*
X128024971Y-99734360D01*
X128024958Y-99734367D01*
X127910234Y-99811024D01*
X127910230Y-99811027D01*
X127812664Y-99908593D01*
X127812661Y-99908597D01*
X127736004Y-100023321D01*
X127735997Y-100023334D01*
X127683197Y-100150806D01*
X127683194Y-100150816D01*
X127656276Y-100286143D01*
X127656276Y-100286146D01*
X127656276Y-101524132D01*
X127656276Y-101524134D01*
X127656275Y-101524134D01*
X126750000Y-101524134D01*
X126750000Y-98333573D01*
X127994318Y-98333573D01*
X127994318Y-98333576D01*
X128014955Y-98490335D01*
X128014956Y-98490337D01*
X128043209Y-98558547D01*
X128075464Y-98636416D01*
X128171718Y-98761857D01*
X128297159Y-98858111D01*
X128443238Y-98918619D01*
X128521619Y-98928938D01*
X128599999Y-98939257D01*
X128600000Y-98939257D01*
X128600001Y-98939257D01*
X128652254Y-98932377D01*
X128756762Y-98918619D01*
X128757018Y-98918512D01*
X128757557Y-98918405D01*
X128764613Y-98916515D01*
X128764736Y-98916977D01*
X128804468Y-98909075D01*
X131762189Y-98909075D01*
X131762191Y-98909075D01*
X131908560Y-98869856D01*
X132039790Y-98794090D01*
X132132358Y-98701520D01*
X132166045Y-98679012D01*
X132165806Y-98678597D01*
X132172142Y-98674939D01*
X132172590Y-98674639D01*
X132172841Y-98674536D01*
X132298282Y-98578282D01*
X132394536Y-98452841D01*
X132455044Y-98306762D01*
X132475682Y-98150000D01*
X132470376Y-98109700D01*
X132455044Y-97993239D01*
X132455044Y-97993238D01*
X132394536Y-97847159D01*
X132298282Y-97721718D01*
X132172841Y-97625464D01*
X132063641Y-97580232D01*
X132026762Y-97564956D01*
X132026760Y-97564955D01*
X131870001Y-97544318D01*
X131869999Y-97544318D01*
X131713239Y-97564955D01*
X131713237Y-97564956D01*
X131567160Y-97625463D01*
X131441713Y-97721722D01*
X131441672Y-97721764D01*
X131441628Y-97721787D01*
X131435271Y-97726666D01*
X131434509Y-97725673D01*
X131380346Y-97755243D01*
X131353998Y-97758075D01*
X128804468Y-97758075D01*
X128764736Y-97750172D01*
X128764613Y-97750635D01*
X128757557Y-97748744D01*
X128757018Y-97748637D01*
X128756762Y-97748531D01*
X128756760Y-97748530D01*
X128600001Y-97727893D01*
X128599999Y-97727893D01*
X128443239Y-97748530D01*
X128443237Y-97748531D01*
X128297160Y-97809038D01*
X128171718Y-97905293D01*
X128075463Y-98030735D01*
X128014956Y-98176812D01*
X128014955Y-98176814D01*
X127994318Y-98333573D01*
X126750000Y-98333573D01*
X126750000Y-88931749D01*
X129324500Y-88931749D01*
X129324500Y-93830766D01*
X129342570Y-93898206D01*
X129363719Y-93977136D01*
X129390781Y-94024007D01*
X129439485Y-94108365D01*
X129439487Y-94108367D01*
X129464917Y-94133797D01*
X129498402Y-94195120D01*
X129493418Y-94264812D01*
X129479434Y-94290065D01*
X129479528Y-94290119D01*
X129476509Y-94295347D01*
X129475621Y-94296952D01*
X129475467Y-94297151D01*
X129475465Y-94297156D01*
X129414956Y-94443237D01*
X129414955Y-94443239D01*
X129394318Y-94599998D01*
X129394318Y-94600001D01*
X129414955Y-94756760D01*
X129414956Y-94756762D01*
X129436215Y-94808087D01*
X129475464Y-94902841D01*
X129571718Y-95028282D01*
X129697159Y-95124536D01*
X129843238Y-95185044D01*
X129921619Y-95195363D01*
X129999999Y-95205682D01*
X130000000Y-95205682D01*
X130000001Y-95205682D01*
X130052254Y-95198802D01*
X130156762Y-95185044D01*
X130302841Y-95124536D01*
X130428282Y-95028282D01*
X130524536Y-94902841D01*
X130585044Y-94756762D01*
X130605682Y-94600000D01*
X130595924Y-94525884D01*
X130589004Y-94473317D01*
X130585044Y-94443238D01*
X130524536Y-94297159D01*
X130428282Y-94171718D01*
X130428279Y-94171716D01*
X130423334Y-94165271D01*
X130424701Y-94164221D01*
X130395926Y-94111524D01*
X130400910Y-94041832D01*
X130409705Y-94023165D01*
X130436281Y-93977135D01*
X130475500Y-93830766D01*
X130475500Y-89297256D01*
X130495185Y-89230217D01*
X130511815Y-89209579D01*
X130899797Y-88821596D01*
X130961120Y-88788112D01*
X130999632Y-88785875D01*
X131018792Y-88787762D01*
X131161300Y-88801798D01*
X131367234Y-88781515D01*
X131565254Y-88721447D01*
X131747750Y-88623900D01*
X131907710Y-88492625D01*
X132038985Y-88332665D01*
X132136532Y-88150169D01*
X132196600Y-87952149D01*
X132216883Y-87746215D01*
X132196600Y-87540281D01*
X132136532Y-87342261D01*
X132038985Y-87159765D01*
X131950991Y-87052543D01*
X131907710Y-86999804D01*
X131754018Y-86873674D01*
X131747750Y-86868530D01*
X131565254Y-86770983D01*
X131367234Y-86710915D01*
X131367232Y-86710914D01*
X131367234Y-86710914D01*
X131161300Y-86690632D01*
X130955367Y-86710914D01*
X130782618Y-86763317D01*
X130759463Y-86770341D01*
X130757343Y-86770984D01*
X130717433Y-86792317D01*
X130574850Y-86868530D01*
X130574848Y-86868531D01*
X130574847Y-86868532D01*
X130414889Y-86999804D01*
X130283617Y-87159762D01*
X130186069Y-87342258D01*
X130125999Y-87540282D01*
X130105717Y-87746215D01*
X130121639Y-87907881D01*
X130108620Y-87976527D01*
X130085917Y-88007716D01*
X129546635Y-88547000D01*
X129439487Y-88654147D01*
X129439485Y-88654150D01*
X129363719Y-88785378D01*
X129350959Y-88833000D01*
X129324500Y-88931749D01*
X126750000Y-88931749D01*
X126750000Y-86138258D01*
X126769685Y-86071219D01*
X126822489Y-86025464D01*
X126874000Y-86014258D01*
X137248924Y-86014258D01*
X137315963Y-86033943D01*
X137361718Y-86086747D01*
X137371662Y-86155905D01*
X137342637Y-86219461D01*
X137336605Y-86225939D01*
X136903148Y-86659396D01*
X136841825Y-86692881D01*
X136815467Y-86695715D01*
X135371547Y-86695715D01*
X135313070Y-86707346D01*
X135313069Y-86707347D01*
X135246747Y-86751662D01*
X135202432Y-86817984D01*
X135202431Y-86817985D01*
X135190800Y-86876462D01*
X135190800Y-88297511D01*
X135171115Y-88364550D01*
X135154481Y-88385192D01*
X134229681Y-89309992D01*
X134168358Y-89343477D01*
X134098666Y-89338493D01*
X134042733Y-89296621D01*
X134018316Y-89231157D01*
X134018000Y-89222311D01*
X134018000Y-88839880D01*
X134037685Y-88772841D01*
X134090489Y-88727086D01*
X134103703Y-88722089D01*
X134105246Y-88721450D01*
X134105248Y-88721448D01*
X134105254Y-88721447D01*
X134287750Y-88623900D01*
X134447710Y-88492625D01*
X134578985Y-88332665D01*
X134676532Y-88150169D01*
X134736600Y-87952149D01*
X134756883Y-87746215D01*
X134736600Y-87540281D01*
X134676532Y-87342261D01*
X134578985Y-87159765D01*
X134490991Y-87052543D01*
X134447710Y-86999804D01*
X134294018Y-86873674D01*
X134287750Y-86868530D01*
X134105254Y-86770983D01*
X133907234Y-86710915D01*
X133907232Y-86710914D01*
X133907234Y-86710914D01*
X133701300Y-86690632D01*
X133495367Y-86710914D01*
X133322618Y-86763317D01*
X133299463Y-86770341D01*
X133297343Y-86770984D01*
X133257433Y-86792317D01*
X133114850Y-86868530D01*
X133114848Y-86868531D01*
X133114847Y-86868532D01*
X132954889Y-86999804D01*
X132823617Y-87159762D01*
X132726069Y-87342258D01*
X132665999Y-87540282D01*
X132645717Y-87746215D01*
X132665999Y-87952147D01*
X132680515Y-88000000D01*
X132726068Y-88150169D01*
X132823615Y-88332665D01*
X132849782Y-88364550D01*
X132954889Y-88492625D01*
X133051509Y-88571917D01*
X133114850Y-88623900D01*
X133297346Y-88721447D01*
X133297349Y-88721448D01*
X133301454Y-88723642D01*
X133351298Y-88772604D01*
X133367000Y-88833000D01*
X133367000Y-99523416D01*
X133347315Y-99590455D01*
X133330681Y-99611097D01*
X131739537Y-101202240D01*
X131739533Y-101202246D01*
X131696681Y-101276466D01*
X131696682Y-101276467D01*
X131674500Y-101359252D01*
X131674500Y-101481699D01*
X131654815Y-101548738D01*
X131625988Y-101580074D01*
X131571720Y-101621715D01*
X131475463Y-101747160D01*
X131414956Y-101893237D01*
X131414955Y-101893239D01*
X131394318Y-102049998D01*
X131394318Y-102050001D01*
X131414955Y-102206760D01*
X131414956Y-102206762D01*
X131444247Y-102277478D01*
X131475464Y-102352841D01*
X131571718Y-102478282D01*
X131697159Y-102574536D01*
X131843238Y-102635044D01*
X131921619Y-102645363D01*
X131999999Y-102655682D01*
X132000000Y-102655682D01*
X132000001Y-102655682D01*
X132052254Y-102648802D01*
X132156762Y-102635044D01*
X132302841Y-102574536D01*
X132428282Y-102478282D01*
X132522383Y-102355646D01*
X132578808Y-102314445D01*
X132648554Y-102310290D01*
X132696244Y-102332759D01*
X132749639Y-102373731D01*
X132749640Y-102373731D01*
X132749641Y-102373732D01*
X132895720Y-102434240D01*
X132974101Y-102444559D01*
X133052481Y-102454878D01*
X133052482Y-102454878D01*
X133052483Y-102454878D01*
X133104736Y-102447998D01*
X133209244Y-102434240D01*
X133355323Y-102373732D01*
X133480764Y-102277478D01*
X133577018Y-102152037D01*
X133637526Y-102005958D01*
X133658164Y-101849196D01*
X133649235Y-101781377D01*
X133660000Y-101712342D01*
X133684490Y-101677513D01*
X134012883Y-101349121D01*
X135141276Y-101349121D01*
X135141276Y-101461157D01*
X135170273Y-101569376D01*
X135226291Y-101666402D01*
X135305513Y-101745624D01*
X135402539Y-101801642D01*
X135510758Y-101830639D01*
X135510760Y-101830639D01*
X135622792Y-101830639D01*
X135622794Y-101830639D01*
X135731013Y-101801642D01*
X135828039Y-101745624D01*
X135907261Y-101666402D01*
X135963279Y-101569376D01*
X135975401Y-101524134D01*
X136296275Y-101524134D01*
X136323194Y-101659461D01*
X136323197Y-101659471D01*
X136375997Y-101786943D01*
X136376004Y-101786956D01*
X136452661Y-101901680D01*
X136452664Y-101901684D01*
X136550230Y-101999250D01*
X136550234Y-101999253D01*
X136664958Y-102075910D01*
X136664971Y-102075917D01*
X136792443Y-102128717D01*
X136792448Y-102128719D01*
X136792452Y-102128719D01*
X136792453Y-102128720D01*
X136927780Y-102155639D01*
X136927783Y-102155639D01*
X137065771Y-102155639D01*
X137156817Y-102137528D01*
X137201104Y-102128719D01*
X137328587Y-102075914D01*
X137443318Y-101999253D01*
X137540890Y-101901681D01*
X137617551Y-101786950D01*
X137670356Y-101659467D01*
X137679165Y-101615180D01*
X137697276Y-101524134D01*
X137697276Y-100286143D01*
X137670357Y-100150816D01*
X137670356Y-100150815D01*
X137670356Y-100150811D01*
X137659930Y-100125640D01*
X137617554Y-100023334D01*
X137617547Y-100023321D01*
X137540890Y-99908597D01*
X137540887Y-99908593D01*
X137443321Y-99811027D01*
X137443317Y-99811024D01*
X137328593Y-99734367D01*
X137328580Y-99734360D01*
X137201108Y-99681560D01*
X137201098Y-99681557D01*
X137065771Y-99654639D01*
X137065769Y-99654639D01*
X136927783Y-99654639D01*
X136927781Y-99654639D01*
X136792453Y-99681557D01*
X136792443Y-99681560D01*
X136664971Y-99734360D01*
X136664958Y-99734367D01*
X136550234Y-99811024D01*
X136550230Y-99811027D01*
X136452664Y-99908593D01*
X136452661Y-99908597D01*
X136376004Y-100023321D01*
X136375997Y-100023334D01*
X136323197Y-100150806D01*
X136323194Y-100150816D01*
X136296276Y-100286143D01*
X136296276Y-100286146D01*
X136296276Y-101524132D01*
X136296276Y-101524134D01*
X136296275Y-101524134D01*
X135975401Y-101524134D01*
X135992276Y-101461157D01*
X135992276Y-101349121D01*
X135963279Y-101240902D01*
X135907261Y-101143876D01*
X135828039Y-101064654D01*
X135731013Y-101008636D01*
X135622794Y-100979639D01*
X135510758Y-100979639D01*
X135402539Y-101008636D01*
X135402536Y-101008637D01*
X135305516Y-101064652D01*
X135305510Y-101064656D01*
X135226293Y-101143873D01*
X135226289Y-101143879D01*
X135170274Y-101240899D01*
X135170273Y-101240902D01*
X135141276Y-101349121D01*
X134012883Y-101349121D01*
X134560465Y-100801540D01*
X134603318Y-100727317D01*
X134625500Y-100644531D01*
X134625500Y-100558825D01*
X134625500Y-89886188D01*
X134645185Y-89819149D01*
X134661819Y-89798507D01*
X135627292Y-88833034D01*
X135688615Y-88799549D01*
X135714973Y-88796715D01*
X137111050Y-88796715D01*
X137111051Y-88796714D01*
X137125868Y-88793767D01*
X137169529Y-88785083D01*
X137169529Y-88785082D01*
X137169531Y-88785082D01*
X137235852Y-88740767D01*
X137280167Y-88674446D01*
X137280167Y-88674444D01*
X137280168Y-88674444D01*
X137291799Y-88615967D01*
X137291800Y-88615965D01*
X137291800Y-87172048D01*
X137311485Y-87105009D01*
X137328119Y-87084367D01*
X137713632Y-86698854D01*
X137774955Y-86665369D01*
X137801313Y-86662535D01*
X140397525Y-86662535D01*
X140397527Y-86662535D01*
X140468408Y-86643542D01*
X140538255Y-86645205D01*
X140596118Y-86684367D01*
X140623623Y-86748595D01*
X140624500Y-86763317D01*
X140624500Y-87321699D01*
X140604815Y-87388738D01*
X140575988Y-87420074D01*
X140521718Y-87461717D01*
X140472375Y-87526022D01*
X140415947Y-87567225D01*
X140346201Y-87571379D01*
X140285281Y-87537166D01*
X140252529Y-87475448D01*
X140250000Y-87450535D01*
X140250000Y-86999999D01*
X140249999Y-86999999D01*
X138250001Y-87999998D01*
X138250000Y-88000000D01*
X138250000Y-106200000D01*
X140250000Y-106950000D01*
X140250000Y-106949999D01*
X140250000Y-88329464D01*
X140269685Y-88262425D01*
X140322489Y-88216670D01*
X140391647Y-88206726D01*
X140455203Y-88235751D01*
X140472375Y-88253977D01*
X140521718Y-88318282D01*
X140647159Y-88414536D01*
X140793238Y-88475044D01*
X140817636Y-88478256D01*
X140949999Y-88495682D01*
X140950000Y-88495682D01*
X140950001Y-88495682D01*
X141002254Y-88488802D01*
X141106762Y-88475044D01*
X141252841Y-88414536D01*
X141378282Y-88318282D01*
X141474536Y-88192841D01*
X141535044Y-88046762D01*
X141549601Y-87936187D01*
X141555682Y-87890001D01*
X141555682Y-87890000D01*
X141544568Y-87805582D01*
X141541878Y-87785148D01*
X141552643Y-87716114D01*
X141599023Y-87663858D01*
X141666292Y-87644973D01*
X141723268Y-87659605D01*
X141846046Y-87725232D01*
X142044066Y-87785300D01*
X142044065Y-87785300D01*
X142062529Y-87787118D01*
X142250000Y-87805583D01*
X142455934Y-87785300D01*
X142653954Y-87725232D01*
X142836450Y-87627685D01*
X142996410Y-87496410D01*
X143127685Y-87336450D01*
X143225232Y-87153954D01*
X143285300Y-86955934D01*
X143305583Y-86750000D01*
X143285300Y-86544066D01*
X143225232Y-86346046D01*
X143127685Y-86163550D01*
X143079825Y-86105232D01*
X143074025Y-86098164D01*
X143046713Y-86033854D01*
X143058504Y-85964987D01*
X143105657Y-85913427D01*
X143169879Y-85895500D01*
X143282851Y-85895500D01*
X143282853Y-85895500D01*
X143365639Y-85873318D01*
X143439862Y-85830465D01*
X143960465Y-85309862D01*
X144003318Y-85235639D01*
X144025500Y-85152853D01*
X144025500Y-85067147D01*
X144025500Y-83138811D01*
X144024241Y-83134114D01*
X144022493Y-83127591D01*
X144003319Y-83056026D01*
X143974749Y-83006543D01*
X143960465Y-82981802D01*
X143936179Y-82957516D01*
X143902694Y-82896193D01*
X143900921Y-82853648D01*
X143909850Y-82785831D01*
X143909850Y-82785830D01*
X143894336Y-82667988D01*
X143889212Y-82629070D01*
X143828704Y-82482991D01*
X143732450Y-82357550D01*
X143607009Y-82261296D01*
X143561730Y-82242541D01*
X143460930Y-82200788D01*
X143460928Y-82200787D01*
X143304169Y-82180150D01*
X143304167Y-82180150D01*
X143147407Y-82200787D01*
X143147405Y-82200788D01*
X143001324Y-82261297D01*
X142982927Y-82275413D01*
X142917757Y-82300605D01*
X142849313Y-82286565D01*
X142799325Y-82237749D01*
X142783664Y-82169657D01*
X142784505Y-82160849D01*
X142785042Y-82156765D01*
X142785044Y-82156762D01*
X142805682Y-82000000D01*
X142799626Y-81954002D01*
X142810391Y-81884967D01*
X142834881Y-81850138D01*
X143085021Y-81599998D01*
X143701399Y-81599998D01*
X143701399Y-81600001D01*
X143722036Y-81756760D01*
X143722037Y-81756762D01*
X143757856Y-81843238D01*
X143782545Y-81902841D01*
X143878799Y-82028282D01*
X144004240Y-82124536D01*
X144150319Y-82185044D01*
X144228700Y-82195363D01*
X144307080Y-82205682D01*
X144307081Y-82205682D01*
X144307082Y-82205682D01*
X144359335Y-82198802D01*
X144463843Y-82185044D01*
X144609922Y-82124536D01*
X144735363Y-82028282D01*
X144831617Y-81902841D01*
X144892125Y-81756762D01*
X144912763Y-81600000D01*
X144906329Y-81551132D01*
X144892125Y-81443239D01*
X144892125Y-81443238D01*
X144831617Y-81297159D01*
X144735363Y-81171718D01*
X144609922Y-81075464D01*
X144463843Y-81014956D01*
X144463841Y-81014955D01*
X144307082Y-80994318D01*
X144307080Y-80994318D01*
X144150320Y-81014955D01*
X144150318Y-81014956D01*
X144004241Y-81075463D01*
X143878799Y-81171718D01*
X143782544Y-81297160D01*
X143722037Y-81443237D01*
X143722036Y-81443239D01*
X143701399Y-81599998D01*
X143085021Y-81599998D01*
X144348702Y-80336319D01*
X144410025Y-80302834D01*
X144436383Y-80300000D01*
X145500000Y-80300000D01*
X145500000Y-76100000D01*
X145199500Y-76100000D01*
X145132461Y-76080315D01*
X145086706Y-76027511D01*
X145075500Y-75976000D01*
X145075500Y-69345238D01*
X145095185Y-69278199D01*
X145147989Y-69232444D01*
X145217147Y-69222500D01*
X145280703Y-69251525D01*
G37*
%TD.AperFunction*%
%TA.AperFunction,Conductor*%
G36*
X158880850Y-84085185D02*
G01*
X158901492Y-84101819D01*
X159381869Y-84582196D01*
X159415354Y-84643519D01*
X159410370Y-84713211D01*
X159406880Y-84720945D01*
X159404771Y-84726036D01*
X159344699Y-84924067D01*
X159324417Y-85130000D01*
X159344699Y-85335932D01*
X159372251Y-85426760D01*
X159404768Y-85533954D01*
X159502315Y-85716450D01*
X159536969Y-85758677D01*
X159633589Y-85876410D01*
X159717812Y-85945529D01*
X159793550Y-86007685D01*
X159976046Y-86105232D01*
X160174066Y-86165300D01*
X160174065Y-86165300D01*
X160192529Y-86167118D01*
X160380000Y-86185583D01*
X160585934Y-86165300D01*
X160783954Y-86105232D01*
X160966450Y-86007685D01*
X161042715Y-85945095D01*
X161107025Y-85917783D01*
X161175892Y-85929574D01*
X161227453Y-85976726D01*
X161245380Y-86040949D01*
X161245380Y-86292930D01*
X161225695Y-86359969D01*
X161209061Y-86380611D01*
X160920994Y-86668677D01*
X160859671Y-86702162D01*
X160789979Y-86697178D01*
X160785869Y-86695561D01*
X160783958Y-86694769D01*
X160667347Y-86659396D01*
X160585934Y-86634700D01*
X160585932Y-86634699D01*
X160585934Y-86634699D01*
X160380000Y-86614417D01*
X160174067Y-86634699D01*
X159976043Y-86694769D01*
X159945837Y-86710915D01*
X159793550Y-86792315D01*
X159793548Y-86792316D01*
X159793547Y-86792317D01*
X159633589Y-86923589D01*
X159502317Y-87083547D01*
X159502315Y-87083550D01*
X159490845Y-87105009D01*
X159404769Y-87266043D01*
X159344699Y-87464067D01*
X159324417Y-87670000D01*
X159344699Y-87875932D01*
X159367819Y-87952147D01*
X159404768Y-88073954D01*
X159502315Y-88256450D01*
X159525279Y-88284432D01*
X159633589Y-88416410D01*
X159728874Y-88494607D01*
X159793550Y-88547685D01*
X159976046Y-88645232D01*
X160174066Y-88705300D01*
X160174065Y-88705300D01*
X160192529Y-88707118D01*
X160380000Y-88725583D01*
X160585934Y-88705300D01*
X160783954Y-88645232D01*
X160966450Y-88547685D01*
X161126410Y-88416410D01*
X161257685Y-88256450D01*
X161355232Y-88073954D01*
X161415300Y-87875934D01*
X161435583Y-87670000D01*
X161415300Y-87464066D01*
X161355232Y-87266046D01*
X161355230Y-87266043D01*
X161355230Y-87266041D01*
X161354444Y-87264144D01*
X161354328Y-87263068D01*
X161353463Y-87260216D01*
X161354003Y-87260051D01*
X161346971Y-87194675D01*
X161378242Y-87132194D01*
X161381297Y-87129028D01*
X161638319Y-86872005D01*
X161699642Y-86838521D01*
X161769334Y-86843505D01*
X161825267Y-86885377D01*
X161849684Y-86950841D01*
X161850000Y-86959687D01*
X161850000Y-107976000D01*
X161830315Y-108043039D01*
X161777511Y-108088794D01*
X161726000Y-108100000D01*
X145441927Y-108100000D01*
X145374888Y-108080315D01*
X145329133Y-108027511D01*
X145319189Y-107958353D01*
X145348214Y-107894797D01*
X145354246Y-107888319D01*
X145630746Y-107611819D01*
X145692069Y-107578334D01*
X145718427Y-107575500D01*
X148792851Y-107575500D01*
X148792853Y-107575500D01*
X148875639Y-107553318D01*
X148949862Y-107510465D01*
X149483318Y-106977006D01*
X149483323Y-106977003D01*
X149493523Y-106966802D01*
X149493525Y-106966802D01*
X149554128Y-106906199D01*
X149596981Y-106831975D01*
X149603882Y-106806220D01*
X149611383Y-106778230D01*
X149611383Y-106778226D01*
X149619164Y-106749190D01*
X149619164Y-106663484D01*
X149619164Y-106655889D01*
X149619163Y-106655871D01*
X149619163Y-105665789D01*
X152705380Y-105665789D01*
X152705380Y-105665790D01*
X152725907Y-105887325D01*
X152725908Y-105887327D01*
X152786792Y-106101313D01*
X152786798Y-106101328D01*
X152885961Y-106300473D01*
X152885966Y-106300481D01*
X153020043Y-106478028D01*
X153184460Y-106627913D01*
X153184462Y-106627915D01*
X153373618Y-106745035D01*
X153373619Y-106745035D01*
X153373622Y-106745037D01*
X153581083Y-106825408D01*
X153799780Y-106866290D01*
X153799782Y-106866290D01*
X154022264Y-106866290D01*
X154022266Y-106866290D01*
X154240963Y-106825408D01*
X154448424Y-106745037D01*
X154637585Y-106627914D01*
X154802004Y-106478026D01*
X154936081Y-106300479D01*
X155035252Y-106101318D01*
X155096138Y-105887326D01*
X155116666Y-105665790D01*
X155112737Y-105623394D01*
X155096138Y-105444254D01*
X155096137Y-105444252D01*
X155035253Y-105230266D01*
X155035252Y-105230262D01*
X155035247Y-105230251D01*
X154936084Y-105031106D01*
X154936079Y-105031098D01*
X154802002Y-104853551D01*
X154637585Y-104703666D01*
X154637583Y-104703664D01*
X154448427Y-104586544D01*
X154448421Y-104586542D01*
X154240963Y-104506172D01*
X154022266Y-104465290D01*
X153799780Y-104465290D01*
X153581083Y-104506172D01*
X153479703Y-104545447D01*
X153373624Y-104586542D01*
X153373618Y-104586544D01*
X153184462Y-104703664D01*
X153184460Y-104703666D01*
X153020043Y-104853551D01*
X152885966Y-105031098D01*
X152885961Y-105031106D01*
X152786798Y-105230251D01*
X152786792Y-105230266D01*
X152725908Y-105444252D01*
X152725907Y-105444254D01*
X152705380Y-105665789D01*
X149619163Y-105665789D01*
X149619163Y-104746518D01*
X149619164Y-104746505D01*
X149619164Y-104650812D01*
X149609875Y-104616146D01*
X149596981Y-104568025D01*
X149583946Y-104545448D01*
X149583946Y-104545447D01*
X149554130Y-104493804D01*
X149554129Y-104493803D01*
X149554128Y-104493801D01*
X149532009Y-104471682D01*
X149498525Y-104410358D01*
X149496753Y-104367817D01*
X149505682Y-104300000D01*
X149485044Y-104143238D01*
X149424536Y-103997159D01*
X149328282Y-103871718D01*
X149202841Y-103775464D01*
X149056762Y-103714956D01*
X149056760Y-103714955D01*
X148900001Y-103694318D01*
X148899999Y-103694318D01*
X148743239Y-103714955D01*
X148743237Y-103714956D01*
X148597160Y-103775463D01*
X148471718Y-103871718D01*
X148375463Y-103997160D01*
X148314956Y-104143237D01*
X148314955Y-104143239D01*
X148294318Y-104299998D01*
X148294318Y-104300001D01*
X148314164Y-104450750D01*
X148303398Y-104519785D01*
X148272048Y-104555105D01*
X148292147Y-104552216D01*
X148355703Y-104581241D01*
X148372876Y-104599468D01*
X148375463Y-104602840D01*
X148375464Y-104602841D01*
X148385671Y-104616143D01*
X148452829Y-104703666D01*
X148471718Y-104728282D01*
X148597159Y-104824536D01*
X148743238Y-104885044D01*
X148860350Y-104900462D01*
X148924244Y-104928727D01*
X148962716Y-104987051D01*
X148968163Y-105023400D01*
X148968163Y-105650670D01*
X148948478Y-105717709D01*
X148895674Y-105763464D01*
X148826516Y-105773408D01*
X148796711Y-105765231D01*
X148725428Y-105735705D01*
X148725423Y-105735703D01*
X148568664Y-105715066D01*
X148568662Y-105715066D01*
X148411902Y-105735703D01*
X148411900Y-105735704D01*
X148265821Y-105796212D01*
X148243194Y-105813574D01*
X148178024Y-105838766D01*
X148109579Y-105824726D01*
X148098822Y-105818300D01*
X148068595Y-105798104D01*
X148023788Y-105744493D01*
X148015079Y-105675168D01*
X148045232Y-105612140D01*
X148068592Y-105591898D01*
X148094552Y-105574552D01*
X148138867Y-105508231D01*
X148138867Y-105508229D01*
X148138868Y-105508229D01*
X148150499Y-105449752D01*
X148150500Y-105449750D01*
X148150500Y-104674954D01*
X148170185Y-104607915D01*
X148189811Y-104590908D01*
X148189749Y-104590926D01*
X148122949Y-104570445D01*
X148104835Y-104552435D01*
X148103188Y-104554083D01*
X148094553Y-104545448D01*
X148028230Y-104501132D01*
X148028229Y-104501131D01*
X147969752Y-104489500D01*
X147969748Y-104489500D01*
X145530252Y-104489500D01*
X145530247Y-104489500D01*
X145471770Y-104501131D01*
X145471769Y-104501132D01*
X145405447Y-104545447D01*
X145361132Y-104611769D01*
X145361131Y-104611770D01*
X145349500Y-104670247D01*
X145349500Y-105449752D01*
X145361131Y-105508229D01*
X145361132Y-105508230D01*
X145405447Y-105574552D01*
X145431407Y-105591898D01*
X145476212Y-105645511D01*
X145484919Y-105714836D01*
X145454764Y-105777863D01*
X145431407Y-105798102D01*
X145405448Y-105815447D01*
X145392345Y-105835056D01*
X145338731Y-105879859D01*
X145269405Y-105888564D01*
X145206379Y-105858406D01*
X145190869Y-105841647D01*
X145188658Y-105838766D01*
X145153460Y-105792894D01*
X145032193Y-105699843D01*
X144990992Y-105643416D01*
X144983681Y-105601468D01*
X144983681Y-102984404D01*
X145003366Y-102917365D01*
X145020000Y-102896723D01*
X145071223Y-102845500D01*
X145210465Y-102706258D01*
X145253318Y-102632034D01*
X145275500Y-102549249D01*
X145275500Y-101909712D01*
X145295185Y-101842673D01*
X145347989Y-101796918D01*
X145417147Y-101786974D01*
X145468390Y-101806609D01*
X145471769Y-101808867D01*
X145471771Y-101808867D01*
X145471772Y-101808868D01*
X145471770Y-101808868D01*
X145530247Y-101820499D01*
X145530250Y-101820500D01*
X145530252Y-101820500D01*
X147969750Y-101820500D01*
X147969751Y-101820499D01*
X147984568Y-101817552D01*
X148028229Y-101808868D01*
X148028229Y-101808867D01*
X148028231Y-101808867D01*
X148094552Y-101764552D01*
X148138867Y-101698231D01*
X148138867Y-101698229D01*
X148138868Y-101698229D01*
X148150499Y-101639752D01*
X148150500Y-101639750D01*
X148150500Y-100860249D01*
X148150499Y-100860247D01*
X148138868Y-100801770D01*
X148138867Y-100801769D01*
X148094552Y-100735447D01*
X148028230Y-100691132D01*
X148028229Y-100691131D01*
X147969752Y-100679500D01*
X147969748Y-100679500D01*
X147199500Y-100679500D01*
X147132461Y-100659815D01*
X147086706Y-100607011D01*
X147075500Y-100555500D01*
X147075500Y-99906665D01*
X147095185Y-99839626D01*
X147124012Y-99808290D01*
X147228282Y-99728282D01*
X147324536Y-99602841D01*
X147385044Y-99456762D01*
X147405682Y-99300000D01*
X147385044Y-99143238D01*
X147324536Y-98997159D01*
X147228282Y-98871718D01*
X147102841Y-98775464D01*
X147069988Y-98761856D01*
X146956762Y-98714956D01*
X146956760Y-98714955D01*
X146800001Y-98694318D01*
X146799999Y-98694318D01*
X146643239Y-98714955D01*
X146643237Y-98714956D01*
X146497160Y-98775463D01*
X146371718Y-98871718D01*
X146275463Y-98997160D01*
X146214956Y-99143237D01*
X146214955Y-99143239D01*
X146194318Y-99299998D01*
X146194318Y-99300001D01*
X146214955Y-99456760D01*
X146214956Y-99456762D01*
X146275464Y-99602842D01*
X146371715Y-99728279D01*
X146371716Y-99728280D01*
X146371718Y-99728282D01*
X146375982Y-99731554D01*
X146417187Y-99787978D01*
X146424500Y-99829932D01*
X146424500Y-100555500D01*
X146404815Y-100622539D01*
X146352011Y-100668294D01*
X146300500Y-100679500D01*
X145530247Y-100679500D01*
X145471770Y-100691131D01*
X145471768Y-100691132D01*
X145468387Y-100693392D01*
X145401708Y-100714267D01*
X145334329Y-100695780D01*
X145287641Y-100643799D01*
X145275500Y-100590287D01*
X145275500Y-100520753D01*
X145275500Y-100520751D01*
X145253318Y-100437966D01*
X145253314Y-100437959D01*
X145210469Y-100363748D01*
X145210463Y-100363740D01*
X144611819Y-99765096D01*
X144578334Y-99703773D01*
X144575500Y-99677415D01*
X144575500Y-96958981D01*
X144595185Y-96891942D01*
X144611819Y-96871300D01*
X144846800Y-96636319D01*
X145110465Y-96372654D01*
X145153318Y-96298431D01*
X145175500Y-96215645D01*
X145175500Y-96129939D01*
X145175500Y-94035188D01*
X145195185Y-93968149D01*
X145247989Y-93922394D01*
X145317147Y-93912450D01*
X145380703Y-93941475D01*
X145387181Y-93947507D01*
X145463681Y-94024007D01*
X145497166Y-94085330D01*
X145500000Y-94111688D01*
X145500000Y-96600000D01*
X148100000Y-96600000D01*
X149751915Y-96600000D01*
X149818954Y-96619685D01*
X149839596Y-96636319D01*
X153758798Y-100555520D01*
X153758808Y-100555531D01*
X153763138Y-100559861D01*
X153763139Y-100559862D01*
X153823742Y-100620465D01*
X153839248Y-100629417D01*
X153860854Y-100641891D01*
X153860856Y-100641893D01*
X153897962Y-100663317D01*
X153897964Y-100663317D01*
X153897965Y-100663318D01*
X153980751Y-100685501D01*
X153980753Y-100685501D01*
X154074053Y-100685501D01*
X154074069Y-100685500D01*
X156921701Y-100685500D01*
X156988740Y-100705185D01*
X157020076Y-100734013D01*
X157061718Y-100788282D01*
X157187159Y-100884536D01*
X157333238Y-100945044D01*
X157411619Y-100955363D01*
X157489999Y-100965682D01*
X157490000Y-100965682D01*
X157490001Y-100965682D01*
X157542254Y-100958802D01*
X157646762Y-100945044D01*
X157792841Y-100884536D01*
X157918282Y-100788282D01*
X158014536Y-100662841D01*
X158075044Y-100516762D01*
X158095682Y-100360000D01*
X158075044Y-100203238D01*
X158057017Y-100159718D01*
X158049549Y-100090252D01*
X158080824Y-100027773D01*
X158140912Y-99992120D01*
X158210737Y-99994613D01*
X158259260Y-100024587D01*
X159378678Y-101144005D01*
X159412163Y-101205328D01*
X159407179Y-101275020D01*
X159405561Y-101279132D01*
X159404770Y-101281041D01*
X159344699Y-101479067D01*
X159324417Y-101685000D01*
X159344699Y-101890932D01*
X159365769Y-101960390D01*
X159404768Y-102088954D01*
X159502315Y-102271450D01*
X159507262Y-102277478D01*
X159633589Y-102431410D01*
X159690704Y-102478282D01*
X159793550Y-102562685D01*
X159976046Y-102660232D01*
X160174066Y-102720300D01*
X160174065Y-102720300D01*
X160192529Y-102722118D01*
X160380000Y-102740583D01*
X160585934Y-102720300D01*
X160783954Y-102660232D01*
X160966450Y-102562685D01*
X161126410Y-102431410D01*
X161257685Y-102271450D01*
X161355232Y-102088954D01*
X161415300Y-101890934D01*
X161435583Y-101685000D01*
X161415300Y-101479066D01*
X161355232Y-101281046D01*
X161257685Y-101098550D01*
X161131707Y-100945044D01*
X161126410Y-100938589D01*
X160966452Y-100807317D01*
X160966453Y-100807317D01*
X160966450Y-100807315D01*
X160783954Y-100709768D01*
X160585934Y-100649700D01*
X160585932Y-100649699D01*
X160585934Y-100649699D01*
X160380000Y-100629417D01*
X160174067Y-100649699D01*
X160076869Y-100679184D01*
X159976046Y-100709768D01*
X159976043Y-100709769D01*
X159976041Y-100709770D01*
X159974132Y-100710561D01*
X159973051Y-100710677D01*
X159970217Y-100711537D01*
X159970053Y-100710999D01*
X159904662Y-100718026D01*
X159842185Y-100686747D01*
X159839005Y-100683678D01*
X156112508Y-96957181D01*
X156079023Y-96895858D01*
X156084007Y-96826166D01*
X156125879Y-96770233D01*
X156191343Y-96745816D01*
X156200189Y-96745500D01*
X157544343Y-96745500D01*
X157611382Y-96765185D01*
X157657137Y-96817989D01*
X157664116Y-96837404D01*
X157671682Y-96865639D01*
X157714535Y-96939862D01*
X157714536Y-96939863D01*
X157714537Y-96939864D01*
X159378678Y-98604004D01*
X159412163Y-98665327D01*
X159407179Y-98735019D01*
X159405563Y-98739126D01*
X159404771Y-98741038D01*
X159404769Y-98741043D01*
X159404768Y-98741046D01*
X159377653Y-98830430D01*
X159344699Y-98939067D01*
X159324417Y-99145000D01*
X159344699Y-99350932D01*
X159344700Y-99350934D01*
X159404768Y-99548954D01*
X159502315Y-99731450D01*
X159504709Y-99734367D01*
X159633589Y-99891410D01*
X159713691Y-99957147D01*
X159793550Y-100022685D01*
X159976046Y-100120232D01*
X160174066Y-100180300D01*
X160174065Y-100180300D01*
X160192529Y-100182118D01*
X160380000Y-100200583D01*
X160585934Y-100180300D01*
X160783954Y-100120232D01*
X160966450Y-100022685D01*
X161126410Y-99891410D01*
X161257685Y-99731450D01*
X161355232Y-99548954D01*
X161415300Y-99350934D01*
X161435583Y-99145000D01*
X161415300Y-98939066D01*
X161355232Y-98741046D01*
X161257685Y-98558550D01*
X161201703Y-98490335D01*
X161126410Y-98398589D01*
X160966452Y-98267317D01*
X160966453Y-98267317D01*
X160966450Y-98267315D01*
X160783954Y-98169768D01*
X160585934Y-98109700D01*
X160585932Y-98109699D01*
X160585934Y-98109699D01*
X160380000Y-98089417D01*
X160174067Y-98109699D01*
X160065430Y-98142653D01*
X159976046Y-98169768D01*
X159976043Y-98169769D01*
X159976038Y-98169771D01*
X159974126Y-98170563D01*
X159973045Y-98170679D01*
X159970217Y-98171537D01*
X159970054Y-98171000D01*
X159904656Y-98178024D01*
X159842180Y-98146743D01*
X159839004Y-98143678D01*
X158336820Y-96641493D01*
X158316893Y-96605000D01*
X159324417Y-96605000D01*
X159344699Y-96810932D01*
X159369273Y-96891942D01*
X159404768Y-97008954D01*
X159502315Y-97191450D01*
X159535445Y-97231819D01*
X159633589Y-97351410D01*
X159730209Y-97430702D01*
X159793550Y-97482685D01*
X159976046Y-97580232D01*
X160174066Y-97640300D01*
X160174065Y-97640300D01*
X160192529Y-97642118D01*
X160380000Y-97660583D01*
X160585934Y-97640300D01*
X160783954Y-97580232D01*
X160966450Y-97482685D01*
X161126410Y-97351410D01*
X161257685Y-97191450D01*
X161355232Y-97008954D01*
X161415300Y-96810934D01*
X161435583Y-96605000D01*
X161415300Y-96399066D01*
X161355232Y-96201046D01*
X161257685Y-96018550D01*
X161167191Y-95908282D01*
X161126410Y-95858589D01*
X160966452Y-95727317D01*
X160966453Y-95727317D01*
X160966450Y-95727315D01*
X160783954Y-95629768D01*
X160585934Y-95569700D01*
X160585932Y-95569699D01*
X160585934Y-95569699D01*
X160380000Y-95549417D01*
X160174067Y-95569699D01*
X159976043Y-95629769D01*
X159909808Y-95665173D01*
X159793550Y-95727315D01*
X159793548Y-95727316D01*
X159793547Y-95727317D01*
X159633589Y-95858589D01*
X159502317Y-96018547D01*
X159502315Y-96018550D01*
X159467708Y-96083294D01*
X159404769Y-96201043D01*
X159404768Y-96201045D01*
X159404768Y-96201046D01*
X159397898Y-96223692D01*
X159344699Y-96399067D01*
X159324417Y-96605000D01*
X158316893Y-96605000D01*
X158303335Y-96580170D01*
X158300501Y-96553812D01*
X158300501Y-96489552D01*
X158300500Y-96489534D01*
X158300500Y-93195247D01*
X159329500Y-93195247D01*
X159329500Y-94934752D01*
X159341131Y-94993229D01*
X159341132Y-94993230D01*
X159385447Y-95059552D01*
X159451769Y-95103867D01*
X159451770Y-95103868D01*
X159510247Y-95115499D01*
X159510250Y-95115500D01*
X159510252Y-95115500D01*
X161249750Y-95115500D01*
X161249751Y-95115499D01*
X161264568Y-95112552D01*
X161308229Y-95103868D01*
X161308229Y-95103867D01*
X161308231Y-95103867D01*
X161374552Y-95059552D01*
X161418867Y-94993231D01*
X161418867Y-94993229D01*
X161418868Y-94993229D01*
X161430499Y-94934752D01*
X161430500Y-94934750D01*
X161430500Y-93195249D01*
X161430499Y-93195247D01*
X161418868Y-93136770D01*
X161418867Y-93136769D01*
X161374552Y-93070447D01*
X161308230Y-93026132D01*
X161308229Y-93026131D01*
X161249752Y-93014500D01*
X161249748Y-93014500D01*
X159510252Y-93014500D01*
X159510247Y-93014500D01*
X159451770Y-93026131D01*
X159451769Y-93026132D01*
X159385447Y-93070447D01*
X159341132Y-93136769D01*
X159341131Y-93136770D01*
X159329500Y-93195247D01*
X158300500Y-93195247D01*
X158300500Y-89437577D01*
X158320185Y-89370538D01*
X158372989Y-89324783D01*
X158442147Y-89314839D01*
X158471947Y-89323014D01*
X158543238Y-89352544D01*
X158621619Y-89362863D01*
X158699999Y-89373182D01*
X158700000Y-89373182D01*
X158700001Y-89373182D01*
X158752254Y-89366302D01*
X158856762Y-89352544D01*
X159002841Y-89292036D01*
X159128282Y-89195782D01*
X159224536Y-89070341D01*
X159285044Y-88924262D01*
X159305682Y-88767500D01*
X159303103Y-88747914D01*
X159285044Y-88610739D01*
X159285044Y-88610738D01*
X159224536Y-88464659D01*
X159128282Y-88339218D01*
X159002841Y-88242964D01*
X158985427Y-88235751D01*
X158856762Y-88182456D01*
X158856760Y-88182455D01*
X158700001Y-88161818D01*
X158699999Y-88161818D01*
X158543239Y-88182455D01*
X158543234Y-88182457D01*
X158471952Y-88211983D01*
X158402483Y-88219452D01*
X158340004Y-88188176D01*
X158304352Y-88128087D01*
X158300500Y-88097422D01*
X158300500Y-85737855D01*
X158300501Y-85737842D01*
X158300501Y-85642148D01*
X158299110Y-85636956D01*
X158278318Y-85559361D01*
X158248862Y-85508342D01*
X158235465Y-85485138D01*
X158174862Y-85424535D01*
X158174861Y-85424534D01*
X158170531Y-85420204D01*
X158170520Y-85420194D01*
X157281962Y-84531635D01*
X157248477Y-84470312D01*
X157253461Y-84400620D01*
X157295333Y-84344687D01*
X157322180Y-84329398D01*
X157393477Y-84299866D01*
X157518918Y-84203612D01*
X157587670Y-84114012D01*
X157644097Y-84072811D01*
X157686045Y-84065500D01*
X158813811Y-84065500D01*
X158880850Y-84085185D01*
G37*
%TD.AperFunction*%
%TA.AperFunction,Conductor*%
G36*
X143343834Y-96969007D02*
G01*
X143399767Y-97010879D01*
X143424184Y-97076343D01*
X143424500Y-97085189D01*
X143424500Y-99957147D01*
X143424500Y-100042853D01*
X143432072Y-100071112D01*
X143446682Y-100125640D01*
X143461212Y-100150806D01*
X143489535Y-100199862D01*
X143489537Y-100199864D01*
X143757492Y-100467819D01*
X143790977Y-100529142D01*
X143785993Y-100598834D01*
X143744121Y-100654767D01*
X143678657Y-100679184D01*
X143669811Y-100679500D01*
X142791189Y-100679500D01*
X142724150Y-100659815D01*
X142703508Y-100643181D01*
X142611819Y-100551492D01*
X142578334Y-100490169D01*
X142575500Y-100463811D01*
X142575500Y-97686189D01*
X142595185Y-97619150D01*
X142611819Y-97598508D01*
X143212819Y-96997508D01*
X143274142Y-96964023D01*
X143343834Y-96969007D01*
G37*
%TD.AperFunction*%
%TA.AperFunction,Conductor*%
G36*
X155445850Y-97215185D02*
G01*
X155466492Y-97231819D01*
X157825412Y-99590739D01*
X157858897Y-99652062D01*
X157853913Y-99721754D01*
X157812041Y-99777687D01*
X157746577Y-99802104D01*
X157690279Y-99792981D01*
X157646765Y-99774957D01*
X157646760Y-99774955D01*
X157490001Y-99754318D01*
X157489999Y-99754318D01*
X157333239Y-99774955D01*
X157333237Y-99774956D01*
X157187160Y-99835463D01*
X157061716Y-99931719D01*
X157020077Y-99985986D01*
X156963649Y-100027189D01*
X156921701Y-100034500D01*
X154209792Y-100034500D01*
X154142753Y-100014815D01*
X154122111Y-99998181D01*
X151531111Y-97407181D01*
X151497626Y-97345858D01*
X151502610Y-97276166D01*
X151544482Y-97220233D01*
X151609946Y-97195816D01*
X151618792Y-97195500D01*
X155378811Y-97195500D01*
X155445850Y-97215185D01*
G37*
%TD.AperFunction*%
%TA.AperFunction,Conductor*%
G36*
X157098134Y-85268461D02*
G01*
X157613181Y-85783507D01*
X157646666Y-85844830D01*
X157649500Y-85871188D01*
X157649500Y-95970500D01*
X157629815Y-96037539D01*
X157577011Y-96083294D01*
X157525500Y-96094500D01*
X152176839Y-96094500D01*
X152109800Y-96074815D01*
X152064045Y-96022011D01*
X152054101Y-95952853D01*
X152078463Y-95895014D01*
X152164535Y-95782842D01*
X152164534Y-95782842D01*
X152164536Y-95782841D01*
X152225044Y-95636762D01*
X152243561Y-95496113D01*
X152245682Y-95480001D01*
X152245682Y-95479998D01*
X152225044Y-95323239D01*
X152225044Y-95323238D01*
X152178267Y-95210310D01*
X152170799Y-95140841D01*
X152202074Y-95078362D01*
X152205120Y-95075205D01*
X152748507Y-94531819D01*
X152809830Y-94498334D01*
X152836188Y-94495500D01*
X154122851Y-94495500D01*
X154122853Y-94495500D01*
X154205639Y-94473318D01*
X154279862Y-94430465D01*
X154295955Y-94414372D01*
X154357277Y-94380885D01*
X154426969Y-94385868D01*
X154482903Y-94427738D01*
X154498199Y-94454598D01*
X154516315Y-94498334D01*
X154527727Y-94525884D01*
X154623981Y-94651325D01*
X154749422Y-94747579D01*
X154895501Y-94808087D01*
X154973882Y-94818406D01*
X155052262Y-94828725D01*
X155052263Y-94828725D01*
X155052264Y-94828725D01*
X155104517Y-94821845D01*
X155209025Y-94808087D01*
X155355104Y-94747579D01*
X155480545Y-94651325D01*
X155576799Y-94525884D01*
X155637307Y-94379805D01*
X155657945Y-94223043D01*
X155649016Y-94155225D01*
X155659781Y-94086191D01*
X155684274Y-94051358D01*
X155700444Y-94035188D01*
X155763204Y-93972429D01*
X155806057Y-93898206D01*
X155828239Y-93815420D01*
X155828239Y-93729714D01*
X155828239Y-87234232D01*
X155847924Y-87167193D01*
X155864551Y-87146557D01*
X155903398Y-87107711D01*
X155903400Y-87107710D01*
X155964003Y-87047107D01*
X156006856Y-86972883D01*
X156017983Y-86931352D01*
X156054347Y-86871693D01*
X156062263Y-86865077D01*
X156080894Y-86850781D01*
X156146063Y-86825589D01*
X156214508Y-86839629D01*
X156254752Y-86873671D01*
X156271718Y-86895782D01*
X156397159Y-86992036D01*
X156543238Y-87052544D01*
X156621619Y-87062863D01*
X156699999Y-87073182D01*
X156700000Y-87073182D01*
X156700001Y-87073182D01*
X156752254Y-87066302D01*
X156856762Y-87052544D01*
X157002841Y-86992036D01*
X157128282Y-86895782D01*
X157224536Y-86770341D01*
X157285044Y-86624262D01*
X157305682Y-86467500D01*
X157303681Y-86452303D01*
X157285044Y-86310739D01*
X157285044Y-86310738D01*
X157224536Y-86164659D01*
X157128282Y-86039218D01*
X157002841Y-85942964D01*
X156856762Y-85882456D01*
X156810838Y-85876410D01*
X156781641Y-85872566D01*
X156717745Y-85844299D01*
X156679274Y-85785975D01*
X156678443Y-85716110D01*
X156715515Y-85656887D01*
X156722322Y-85651266D01*
X156725873Y-85648542D01*
X156822127Y-85523101D01*
X156882635Y-85377022D01*
X156887514Y-85339956D01*
X156915779Y-85276061D01*
X156974103Y-85237589D01*
X157043968Y-85236757D01*
X157098134Y-85268461D01*
G37*
%TD.AperFunction*%
%TA.AperFunction,Conductor*%
G36*
X149499449Y-82418799D02*
G01*
X151341115Y-84260465D01*
X151384617Y-84285581D01*
X151409355Y-84299864D01*
X151415338Y-84303318D01*
X151498124Y-84325500D01*
X151835988Y-84325500D01*
X151903027Y-84345185D01*
X151948782Y-84397989D01*
X151958726Y-84467147D01*
X151950549Y-84496952D01*
X151889957Y-84643234D01*
X151889955Y-84643239D01*
X151869318Y-84799998D01*
X151869318Y-84800001D01*
X151889955Y-84956760D01*
X151889956Y-84956762D01*
X151940898Y-85079748D01*
X151950464Y-85102841D01*
X152046718Y-85228282D01*
X152172159Y-85324536D01*
X152318238Y-85385044D01*
X152396619Y-85395363D01*
X152474999Y-85405682D01*
X152475000Y-85405682D01*
X152475001Y-85405682D01*
X152536017Y-85397649D01*
X152631762Y-85385044D01*
X152777841Y-85324536D01*
X152903282Y-85228282D01*
X152999536Y-85102841D01*
X153060044Y-84956762D01*
X153069713Y-84883313D01*
X153097979Y-84819419D01*
X153156303Y-84780947D01*
X153192652Y-84775500D01*
X155039506Y-84775500D01*
X155106545Y-84795185D01*
X155152300Y-84847989D01*
X155162244Y-84917147D01*
X155133219Y-84980703D01*
X155127187Y-84987181D01*
X153577190Y-86537177D01*
X153577188Y-86537180D01*
X153538172Y-86604758D01*
X153534335Y-86611403D01*
X153516228Y-86678981D01*
X153512153Y-86694189D01*
X153512153Y-87294799D01*
X153512153Y-87380505D01*
X153514359Y-87388738D01*
X153534335Y-87463292D01*
X153541354Y-87475448D01*
X153577188Y-87537514D01*
X153739062Y-87699388D01*
X153888181Y-87848506D01*
X153921666Y-87909829D01*
X153924500Y-87936187D01*
X153924500Y-88379880D01*
X153904815Y-88446919D01*
X153852011Y-88492674D01*
X153782853Y-88502618D01*
X153725014Y-88478256D01*
X153692844Y-88453571D01*
X153546764Y-88393063D01*
X153546762Y-88393062D01*
X153390003Y-88372425D01*
X153390001Y-88372425D01*
X153233241Y-88393062D01*
X153233239Y-88393063D01*
X153087162Y-88453570D01*
X152961720Y-88549825D01*
X152865465Y-88675267D01*
X152804958Y-88821344D01*
X152804957Y-88821346D01*
X152784320Y-88978105D01*
X152784320Y-88978108D01*
X152804957Y-89134867D01*
X152804958Y-89134869D01*
X152850946Y-89245895D01*
X152865466Y-89280948D01*
X152961720Y-89406389D01*
X153087161Y-89502643D01*
X153233240Y-89563151D01*
X153311621Y-89573470D01*
X153390001Y-89583789D01*
X153390002Y-89583789D01*
X153390003Y-89583789D01*
X153446636Y-89576333D01*
X153546764Y-89563151D01*
X153692843Y-89502643D01*
X153725013Y-89477957D01*
X153790182Y-89452763D01*
X153858627Y-89466801D01*
X153908617Y-89515614D01*
X153924500Y-89576333D01*
X153924500Y-93177415D01*
X153904815Y-93244454D01*
X153888181Y-93265096D01*
X153795096Y-93358181D01*
X153733773Y-93391666D01*
X153707415Y-93394500D01*
X151343299Y-93394500D01*
X151276260Y-93374815D01*
X151244923Y-93345986D01*
X151203283Y-93291719D01*
X151172356Y-93267988D01*
X151077841Y-93195464D01*
X151077329Y-93195252D01*
X150931762Y-93134956D01*
X150931760Y-93134955D01*
X150775001Y-93114318D01*
X150774999Y-93114318D01*
X150618239Y-93134955D01*
X150618237Y-93134956D01*
X150472160Y-93195463D01*
X150346718Y-93291718D01*
X150250463Y-93417160D01*
X150189956Y-93563237D01*
X150189955Y-93563239D01*
X150169318Y-93719998D01*
X150169318Y-93720001D01*
X150189955Y-93876760D01*
X150189956Y-93876762D01*
X150199581Y-93900000D01*
X150250464Y-94022841D01*
X150346718Y-94148282D01*
X150472159Y-94244536D01*
X150618238Y-94305044D01*
X150696619Y-94315363D01*
X150774999Y-94325682D01*
X150775000Y-94325682D01*
X150775001Y-94325682D01*
X150827254Y-94318802D01*
X150931762Y-94305044D01*
X151077841Y-94244536D01*
X151203282Y-94148282D01*
X151244923Y-94094013D01*
X151301351Y-94052811D01*
X151343299Y-94045500D01*
X152014812Y-94045500D01*
X152081851Y-94065185D01*
X152127606Y-94117989D01*
X152137550Y-94187147D01*
X152108525Y-94250703D01*
X152102499Y-94257173D01*
X151979870Y-94379803D01*
X151469061Y-94890610D01*
X151428834Y-94917490D01*
X151337159Y-94955463D01*
X151337158Y-94955464D01*
X151211719Y-95051716D01*
X151115463Y-95177160D01*
X151069916Y-95287120D01*
X151026074Y-95341524D01*
X150959780Y-95363588D01*
X150892081Y-95346308D01*
X150867674Y-95327348D01*
X150191651Y-94651325D01*
X149449209Y-93908882D01*
X149415724Y-93847559D01*
X149412890Y-93821201D01*
X149412890Y-93456065D01*
X149432575Y-93389026D01*
X149461400Y-93357692D01*
X149515672Y-93316049D01*
X149611926Y-93190608D01*
X149672434Y-93044529D01*
X149686192Y-92940021D01*
X149693072Y-92887768D01*
X149693072Y-92887765D01*
X149672434Y-92731006D01*
X149672434Y-92731005D01*
X149611926Y-92584926D01*
X149515672Y-92459485D01*
X149515670Y-92459484D01*
X149515670Y-92459483D01*
X149390231Y-92363231D01*
X149390228Y-92363229D01*
X149384404Y-92360817D01*
X149330001Y-92316976D01*
X149307936Y-92250681D01*
X149317295Y-92198806D01*
X149363705Y-92086764D01*
X149384343Y-91930002D01*
X149363705Y-91773240D01*
X149303197Y-91627161D01*
X149227659Y-91528718D01*
X149202467Y-91463553D01*
X149216505Y-91395108D01*
X149265319Y-91345118D01*
X149278563Y-91338683D01*
X149342896Y-91312036D01*
X149468337Y-91215782D01*
X149564591Y-91090341D01*
X149625099Y-90944262D01*
X149645737Y-90787500D01*
X149625099Y-90630738D01*
X149564591Y-90484659D01*
X149468337Y-90359218D01*
X149342896Y-90262964D01*
X149196817Y-90202456D01*
X149196815Y-90202455D01*
X149040056Y-90181818D01*
X149040054Y-90181818D01*
X148883294Y-90202455D01*
X148883289Y-90202457D01*
X148776331Y-90246760D01*
X148706861Y-90254229D01*
X148644382Y-90222953D01*
X148617239Y-90183859D01*
X148617216Y-90183873D01*
X148617051Y-90183588D01*
X148614318Y-90179651D01*
X148613150Y-90176832D01*
X148613149Y-90176831D01*
X148613148Y-90176828D01*
X148516894Y-90051387D01*
X148391453Y-89955133D01*
X148245374Y-89894625D01*
X148245372Y-89894624D01*
X148088613Y-89873987D01*
X148088611Y-89873987D01*
X147931851Y-89894624D01*
X147931849Y-89894625D01*
X147785772Y-89955132D01*
X147660328Y-90051388D01*
X147618689Y-90105655D01*
X147562261Y-90146858D01*
X147520313Y-90154169D01*
X147415858Y-90154169D01*
X147348819Y-90134484D01*
X147328177Y-90117850D01*
X146958843Y-89748516D01*
X146925358Y-89687193D01*
X146922524Y-89660835D01*
X146922524Y-88695968D01*
X146942209Y-88628929D01*
X146971034Y-88597595D01*
X147025306Y-88555952D01*
X147121560Y-88430511D01*
X147182068Y-88284432D01*
X147202706Y-88127670D01*
X147195634Y-88073956D01*
X147182068Y-87970909D01*
X147182068Y-87970908D01*
X147121560Y-87824829D01*
X147025306Y-87699388D01*
X146899865Y-87603134D01*
X146753786Y-87542626D01*
X146753784Y-87542625D01*
X146597025Y-87521988D01*
X146597023Y-87521988D01*
X146440263Y-87542625D01*
X146440261Y-87542626D01*
X146294184Y-87603133D01*
X146168742Y-87699388D01*
X146072487Y-87824830D01*
X146011980Y-87970907D01*
X146011979Y-87970909D01*
X145991342Y-88127668D01*
X145991342Y-88127671D01*
X146011979Y-88284430D01*
X146011980Y-88284432D01*
X146056976Y-88393063D01*
X146072488Y-88430511D01*
X146168742Y-88555952D01*
X146223011Y-88597594D01*
X146264213Y-88654019D01*
X146271524Y-88695968D01*
X146271524Y-89202591D01*
X146251839Y-89269630D01*
X146199035Y-89315385D01*
X146129877Y-89325329D01*
X146066321Y-89296304D01*
X146049149Y-89278078D01*
X146003284Y-89218306D01*
X146003282Y-89218305D01*
X146003282Y-89218304D01*
X145877841Y-89122050D01*
X145773060Y-89078648D01*
X145718658Y-89034808D01*
X145696593Y-88968514D01*
X145705955Y-88916632D01*
X145710044Y-88906762D01*
X145725267Y-88791133D01*
X145730682Y-88750001D01*
X145730682Y-88749998D01*
X145710044Y-88593239D01*
X145710044Y-88593238D01*
X145649536Y-88447159D01*
X145553282Y-88321718D01*
X145427841Y-88225464D01*
X145406610Y-88216670D01*
X145324013Y-88182457D01*
X145302175Y-88173411D01*
X145247773Y-88129571D01*
X145225708Y-88063277D01*
X145242987Y-87995578D01*
X145261948Y-87971170D01*
X146462135Y-86770984D01*
X147799151Y-85433968D01*
X147860474Y-85400483D01*
X147886832Y-85397649D01*
X148350341Y-85397649D01*
X148350343Y-85397649D01*
X148433129Y-85375467D01*
X148507352Y-85332614D01*
X148569968Y-85269998D01*
X150009623Y-85269998D01*
X150009623Y-85270001D01*
X150030260Y-85426760D01*
X150030261Y-85426762D01*
X150090769Y-85572841D01*
X150187023Y-85698282D01*
X150312464Y-85794536D01*
X150458543Y-85855044D01*
X150509997Y-85861818D01*
X150615304Y-85875682D01*
X150615305Y-85875682D01*
X150615306Y-85875682D01*
X150667559Y-85868802D01*
X150772067Y-85855044D01*
X150918146Y-85794536D01*
X151043587Y-85698282D01*
X151139841Y-85572841D01*
X151200349Y-85426762D01*
X151220987Y-85270000D01*
X151220784Y-85268461D01*
X151200349Y-85113239D01*
X151200349Y-85113238D01*
X151139841Y-84967159D01*
X151043587Y-84841718D01*
X150918146Y-84745464D01*
X150840280Y-84713211D01*
X150772067Y-84684956D01*
X150772065Y-84684955D01*
X150615306Y-84664318D01*
X150615304Y-84664318D01*
X150458544Y-84684955D01*
X150458542Y-84684956D01*
X150312465Y-84745463D01*
X150187023Y-84841718D01*
X150090768Y-84967160D01*
X150030261Y-85113237D01*
X150030260Y-85113239D01*
X150009623Y-85269998D01*
X148569968Y-85269998D01*
X149185441Y-84654522D01*
X149185446Y-84654519D01*
X149195649Y-84644315D01*
X149195651Y-84644315D01*
X149256254Y-84583712D01*
X149290773Y-84523923D01*
X149299107Y-84509489D01*
X149321289Y-84426703D01*
X149321289Y-84340997D01*
X149321289Y-82645570D01*
X149305437Y-82586408D01*
X149299107Y-82562784D01*
X149299105Y-82562780D01*
X149296782Y-82557172D01*
X149288402Y-82493541D01*
X149288829Y-82490297D01*
X149317092Y-82426403D01*
X149375414Y-82387929D01*
X149445279Y-82387094D01*
X149499449Y-82418799D01*
G37*
%TD.AperFunction*%
%TA.AperFunction,Conductor*%
G36*
X146390194Y-90736917D02*
G01*
X147118744Y-91465467D01*
X147121684Y-91467164D01*
X147123668Y-91469245D01*
X147125193Y-91470415D01*
X147125010Y-91470652D01*
X147169902Y-91517727D01*
X147183129Y-91586333D01*
X147157165Y-91651200D01*
X147100254Y-91691732D01*
X147075876Y-91697493D01*
X146959116Y-91712865D01*
X146943238Y-91714956D01*
X146943237Y-91714956D01*
X146797160Y-91775463D01*
X146671718Y-91871718D01*
X146575463Y-91997160D01*
X146514956Y-92143237D01*
X146514955Y-92143239D01*
X146494318Y-92299998D01*
X146494318Y-92300001D01*
X146514955Y-92456760D01*
X146514956Y-92456762D01*
X146575464Y-92602841D01*
X146671718Y-92728282D01*
X146797159Y-92824536D01*
X146943238Y-92885044D01*
X147021619Y-92895363D01*
X147099999Y-92905682D01*
X147100000Y-92905682D01*
X147100001Y-92905682D01*
X147152254Y-92898802D01*
X147256762Y-92885044D01*
X147402841Y-92824536D01*
X147528282Y-92728282D01*
X147624536Y-92602841D01*
X147685044Y-92456762D01*
X147705682Y-92300000D01*
X147695233Y-92220635D01*
X147685044Y-92143239D01*
X147685044Y-92143238D01*
X147624536Y-91997159D01*
X147528282Y-91871718D01*
X147402841Y-91775464D01*
X147402840Y-91775463D01*
X147402838Y-91775462D01*
X147387388Y-91769063D01*
X147332984Y-91725223D01*
X147310919Y-91658929D01*
X147328198Y-91591229D01*
X147379335Y-91543618D01*
X147434840Y-91530502D01*
X148108583Y-91530502D01*
X148175622Y-91550187D01*
X148221377Y-91602991D01*
X148231321Y-91672149D01*
X148223144Y-91701954D01*
X148193618Y-91773236D01*
X148193616Y-91773241D01*
X148172979Y-91930000D01*
X148172979Y-91930003D01*
X148181907Y-91997819D01*
X148171141Y-92066854D01*
X148146651Y-92101684D01*
X148101925Y-92146411D01*
X148101923Y-92146414D01*
X148059071Y-92220634D01*
X148059072Y-92220635D01*
X148036890Y-92303420D01*
X148036890Y-93476000D01*
X148017205Y-93543039D01*
X147964401Y-93588794D01*
X147912890Y-93600000D01*
X146011688Y-93600000D01*
X145944649Y-93580315D01*
X145924007Y-93563681D01*
X145661819Y-93301492D01*
X145628334Y-93240169D01*
X145625500Y-93213811D01*
X145625500Y-91507778D01*
X145645185Y-91440739D01*
X145697989Y-91394984D01*
X145724009Y-91387512D01*
X145723912Y-91387147D01*
X145731754Y-91385044D01*
X145731762Y-91385044D01*
X145877841Y-91324536D01*
X146003282Y-91228282D01*
X146099536Y-91102841D01*
X146160044Y-90956762D01*
X146179574Y-90808411D01*
X146207840Y-90744516D01*
X146266165Y-90706045D01*
X146336029Y-90705214D01*
X146390194Y-90736917D01*
G37*
%TD.AperFunction*%
%TA.AperFunction,Conductor*%
G36*
X161793039Y-36919685D02*
G01*
X161838794Y-36972489D01*
X161850000Y-37024000D01*
X161850000Y-80760311D01*
X161830315Y-80827350D01*
X161777511Y-80873105D01*
X161708353Y-80883049D01*
X161644797Y-80854024D01*
X161638319Y-80847992D01*
X161029864Y-80239537D01*
X161029863Y-80239536D01*
X161029862Y-80239535D01*
X160992750Y-80218108D01*
X160955640Y-80196682D01*
X160914246Y-80185591D01*
X160872853Y-80174500D01*
X160872852Y-80174500D01*
X160653338Y-80174500D01*
X160586299Y-80154815D01*
X160540544Y-80102011D01*
X160530600Y-80032853D01*
X160559625Y-79969297D01*
X160617342Y-79931839D01*
X160803954Y-79875232D01*
X160986450Y-79777685D01*
X161146410Y-79646410D01*
X161277685Y-79486450D01*
X161375232Y-79303954D01*
X161435300Y-79105934D01*
X161455583Y-78900000D01*
X161435300Y-78694066D01*
X161375232Y-78496046D01*
X161277685Y-78313550D01*
X161225702Y-78250209D01*
X161146410Y-78153589D01*
X160986452Y-78022317D01*
X160986453Y-78022317D01*
X160986450Y-78022315D01*
X160803954Y-77924768D01*
X160605934Y-77864700D01*
X160605932Y-77864699D01*
X160605934Y-77864699D01*
X160400000Y-77844417D01*
X160194067Y-77864699D01*
X160082054Y-77898678D01*
X159996046Y-77924768D01*
X159996043Y-77924769D01*
X159996041Y-77924770D01*
X159994132Y-77925561D01*
X159993051Y-77925677D01*
X159990217Y-77926537D01*
X159990053Y-77925999D01*
X159924662Y-77933026D01*
X159862185Y-77901747D01*
X159859005Y-77898678D01*
X159749864Y-77789537D01*
X159749862Y-77789535D01*
X159685105Y-77752147D01*
X159675640Y-77746682D01*
X159634246Y-77735591D01*
X159592853Y-77724500D01*
X159592852Y-77724500D01*
X157255189Y-77724500D01*
X157188150Y-77704815D01*
X157142395Y-77652011D01*
X157132451Y-77582853D01*
X157161476Y-77519297D01*
X157167508Y-77512819D01*
X157795284Y-76885043D01*
X159859006Y-74821319D01*
X159920327Y-74787836D01*
X159990019Y-74792820D01*
X159994144Y-74794444D01*
X159996041Y-74795230D01*
X159996043Y-74795230D01*
X159996046Y-74795232D01*
X160194066Y-74855300D01*
X160194065Y-74855300D01*
X160212529Y-74857118D01*
X160400000Y-74875583D01*
X160605934Y-74855300D01*
X160803954Y-74795232D01*
X160986450Y-74697685D01*
X161146410Y-74566410D01*
X161277685Y-74406450D01*
X161375232Y-74223954D01*
X161435300Y-74025934D01*
X161455583Y-73820000D01*
X161435300Y-73614066D01*
X161375232Y-73416046D01*
X161277685Y-73233550D01*
X161225702Y-73170209D01*
X161146410Y-73073589D01*
X160986452Y-72942317D01*
X160986453Y-72942317D01*
X160986450Y-72942315D01*
X160803954Y-72844768D01*
X160605934Y-72784700D01*
X160605932Y-72784699D01*
X160605934Y-72784699D01*
X160400000Y-72764417D01*
X160194067Y-72784699D01*
X159996043Y-72844769D01*
X159813546Y-72942317D01*
X159728164Y-73012388D01*
X159663854Y-73039700D01*
X159594986Y-73027908D01*
X159543427Y-72980756D01*
X159525500Y-72916534D01*
X159525500Y-70126188D01*
X159545185Y-70059149D01*
X159561815Y-70038511D01*
X159859006Y-69741319D01*
X159920327Y-69707836D01*
X159990018Y-69712820D01*
X159994144Y-69714444D01*
X159996041Y-69715230D01*
X159996043Y-69715230D01*
X159996046Y-69715232D01*
X160194066Y-69775300D01*
X160194065Y-69775300D01*
X160212529Y-69777118D01*
X160400000Y-69795583D01*
X160605934Y-69775300D01*
X160803954Y-69715232D01*
X160986450Y-69617685D01*
X161146410Y-69486410D01*
X161277685Y-69326450D01*
X161375232Y-69143954D01*
X161435300Y-68945934D01*
X161455583Y-68740000D01*
X161435300Y-68534066D01*
X161375232Y-68336046D01*
X161277685Y-68153550D01*
X161182525Y-68037596D01*
X161146410Y-67993589D01*
X160986452Y-67862317D01*
X160986453Y-67862317D01*
X160986450Y-67862315D01*
X160803954Y-67764768D01*
X160605934Y-67704700D01*
X160605932Y-67704699D01*
X160605934Y-67704699D01*
X160400000Y-67684417D01*
X160194067Y-67704699D01*
X159996043Y-67764769D01*
X159971543Y-67777865D01*
X159813550Y-67862315D01*
X159813548Y-67862316D01*
X159813547Y-67862317D01*
X159653589Y-67993589D01*
X159522317Y-68153547D01*
X159522315Y-68153550D01*
X159483643Y-68225898D01*
X159424769Y-68336043D01*
X159364699Y-68534067D01*
X159344417Y-68740000D01*
X159364699Y-68945932D01*
X159424769Y-69143958D01*
X159425561Y-69145869D01*
X159425677Y-69146949D01*
X159426537Y-69149784D01*
X159425999Y-69149947D01*
X159433024Y-69215339D01*
X159401744Y-69277816D01*
X159398678Y-69280994D01*
X159287180Y-69392491D01*
X159225859Y-69425976D01*
X159156167Y-69420992D01*
X159100233Y-69379121D01*
X159075816Y-69313657D01*
X159075500Y-69304810D01*
X159075500Y-65496188D01*
X159095185Y-65429149D01*
X159111815Y-65408511D01*
X159859006Y-64661319D01*
X159920327Y-64627836D01*
X159990018Y-64632820D01*
X159994144Y-64634444D01*
X159996041Y-64635230D01*
X159996043Y-64635230D01*
X159996046Y-64635232D01*
X160194066Y-64695300D01*
X160194065Y-64695300D01*
X160212529Y-64697118D01*
X160400000Y-64715583D01*
X160605934Y-64695300D01*
X160803954Y-64635232D01*
X160986450Y-64537685D01*
X161146410Y-64406410D01*
X161277685Y-64246450D01*
X161375232Y-64063954D01*
X161435300Y-63865934D01*
X161455583Y-63660000D01*
X161435300Y-63454066D01*
X161375232Y-63256046D01*
X161277685Y-63073550D01*
X161217325Y-63000001D01*
X161146410Y-62913589D01*
X160986452Y-62782317D01*
X160986453Y-62782317D01*
X160986450Y-62782315D01*
X160803954Y-62684768D01*
X160605934Y-62624700D01*
X160605932Y-62624699D01*
X160605934Y-62624699D01*
X160400000Y-62604417D01*
X160194067Y-62624699D01*
X159996043Y-62684769D01*
X159972862Y-62697160D01*
X159813550Y-62782315D01*
X159813548Y-62782316D01*
X159813547Y-62782317D01*
X159653589Y-62913589D01*
X159522317Y-63073547D01*
X159424769Y-63256043D01*
X159364699Y-63454067D01*
X159344417Y-63660000D01*
X159364699Y-63865932D01*
X159424769Y-64063958D01*
X159425561Y-64065869D01*
X159425677Y-64066949D01*
X159426537Y-64069784D01*
X159425999Y-64069947D01*
X159433024Y-64135339D01*
X159401744Y-64197816D01*
X159398677Y-64200994D01*
X158895221Y-64704451D01*
X158833898Y-64737936D01*
X158764207Y-64732952D01*
X158708273Y-64691081D01*
X158683856Y-64625616D01*
X158683540Y-64616770D01*
X158683540Y-62761231D01*
X158661819Y-62739510D01*
X158628334Y-62678187D01*
X158625500Y-62651829D01*
X158625500Y-61186189D01*
X158645185Y-61119150D01*
X158661819Y-61098508D01*
X160093508Y-59666819D01*
X160154831Y-59633334D01*
X160181189Y-59630500D01*
X161269750Y-59630500D01*
X161269751Y-59630499D01*
X161284568Y-59627552D01*
X161328229Y-59618868D01*
X161328229Y-59618867D01*
X161328231Y-59618867D01*
X161394552Y-59574552D01*
X161438867Y-59508231D01*
X161438867Y-59508229D01*
X161438868Y-59508229D01*
X161447552Y-59464568D01*
X161450500Y-59449748D01*
X161450500Y-57710252D01*
X161450500Y-57710249D01*
X161450499Y-57710247D01*
X161438868Y-57651770D01*
X161438867Y-57651769D01*
X161394552Y-57585447D01*
X161328230Y-57541132D01*
X161328229Y-57541131D01*
X161269752Y-57529500D01*
X161269748Y-57529500D01*
X159530252Y-57529500D01*
X159530247Y-57529500D01*
X159471770Y-57541131D01*
X159471769Y-57541132D01*
X159405447Y-57585447D01*
X159361132Y-57651769D01*
X159361131Y-57651770D01*
X159349500Y-57710247D01*
X159349500Y-59438810D01*
X159329815Y-59505849D01*
X159313181Y-59526491D01*
X158664942Y-60174730D01*
X158603619Y-60208215D01*
X158533927Y-60203231D01*
X158477994Y-60161359D01*
X158453577Y-60095895D01*
X158453261Y-60087049D01*
X158453261Y-59534910D01*
X158453261Y-59534908D01*
X158431079Y-59452123D01*
X158431079Y-59452122D01*
X158405291Y-59407457D01*
X158388226Y-59377899D01*
X158327623Y-59317296D01*
X158323292Y-59312965D01*
X158323281Y-59312955D01*
X151749864Y-52739537D01*
X151749863Y-52739536D01*
X151749862Y-52739535D01*
X151712750Y-52718108D01*
X151675640Y-52696682D01*
X151634246Y-52685591D01*
X151592853Y-52674500D01*
X151592852Y-52674500D01*
X147186189Y-52674500D01*
X147119150Y-52654815D01*
X147098508Y-52638181D01*
X144111186Y-49650859D01*
X144111184Y-49650857D01*
X144074072Y-49629430D01*
X144036962Y-49608004D01*
X143995568Y-49596913D01*
X143954175Y-49585822D01*
X143954174Y-49585822D01*
X142314362Y-49585822D01*
X142247323Y-49566137D01*
X142215986Y-49537308D01*
X142174346Y-49483041D01*
X142174345Y-49483040D01*
X142048904Y-49386786D01*
X141902825Y-49326278D01*
X141902823Y-49326277D01*
X141746064Y-49305640D01*
X141746062Y-49305640D01*
X141589302Y-49326277D01*
X141589300Y-49326278D01*
X141443223Y-49386785D01*
X141317781Y-49483040D01*
X141221526Y-49608482D01*
X141161019Y-49754559D01*
X141161018Y-49754561D01*
X141140381Y-49911320D01*
X141140381Y-49911323D01*
X141161018Y-50068082D01*
X141161019Y-50068084D01*
X141221527Y-50214163D01*
X141276140Y-50285336D01*
X141317783Y-50339606D01*
X141341266Y-50357625D01*
X141382469Y-50414053D01*
X141386623Y-50483799D01*
X141352410Y-50544719D01*
X141290692Y-50577471D01*
X141265779Y-50580000D01*
X140760000Y-50580000D01*
X140760000Y-53570000D01*
X141863333Y-53573333D01*
X144069998Y-53580000D01*
X144069998Y-53579999D01*
X144070000Y-53580000D01*
X144079138Y-50838410D01*
X144099046Y-50771439D01*
X144152002Y-50725861D01*
X144221193Y-50716148D01*
X144284652Y-50745384D01*
X144290818Y-50751145D01*
X146739534Y-53199861D01*
X146739535Y-53199862D01*
X146800138Y-53260465D01*
X146800140Y-53260466D01*
X146800144Y-53260469D01*
X146874355Y-53303314D01*
X146874362Y-53303318D01*
X146957147Y-53325500D01*
X147014812Y-53325500D01*
X147081851Y-53345185D01*
X147127606Y-53397989D01*
X147137550Y-53467147D01*
X147108525Y-53530703D01*
X147102493Y-53537181D01*
X145198796Y-55440876D01*
X145137473Y-55474361D01*
X145067781Y-55469377D01*
X145011848Y-55427505D01*
X144987431Y-55362041D01*
X144988175Y-55337015D01*
X144995682Y-55280000D01*
X144988158Y-55222853D01*
X144975044Y-55123239D01*
X144975044Y-55123238D01*
X144914536Y-54977159D01*
X144818282Y-54851718D01*
X144692841Y-54755464D01*
X144546762Y-54694956D01*
X144546760Y-54694955D01*
X144390001Y-54674318D01*
X144389999Y-54674318D01*
X144233239Y-54694955D01*
X144233237Y-54694956D01*
X144087160Y-54755463D01*
X143961718Y-54851718D01*
X143865463Y-54977160D01*
X143804956Y-55123237D01*
X143804955Y-55123239D01*
X143784318Y-55279998D01*
X143784318Y-55280001D01*
X143804955Y-55436760D01*
X143804956Y-55436762D01*
X143865464Y-55582841D01*
X143961718Y-55708282D01*
X144087159Y-55804536D01*
X144233238Y-55865044D01*
X144311619Y-55875363D01*
X144389999Y-55885682D01*
X144389999Y-55885681D01*
X144390000Y-55885682D01*
X144447011Y-55878176D01*
X144516044Y-55888941D01*
X144568300Y-55935321D01*
X144587186Y-56002589D01*
X144566706Y-56069390D01*
X144550877Y-56088796D01*
X144489534Y-56150139D01*
X144489533Y-56150141D01*
X144446681Y-56224361D01*
X144446682Y-56224362D01*
X144424500Y-56307147D01*
X144424500Y-73985449D01*
X144404815Y-74052488D01*
X144352011Y-74098243D01*
X144282853Y-74108187D01*
X144219297Y-74079162D01*
X144212819Y-74073130D01*
X144111819Y-73972130D01*
X144078334Y-73910807D01*
X144075500Y-73884449D01*
X144075500Y-67924236D01*
X144075500Y-67924234D01*
X144036281Y-67777865D01*
X143960515Y-67646635D01*
X143853365Y-67539485D01*
X142906250Y-66592370D01*
X142872765Y-66531047D01*
X142869931Y-66504689D01*
X142869931Y-64626657D01*
X142889616Y-64559618D01*
X142942420Y-64513863D01*
X142993931Y-64502657D01*
X143164181Y-64502657D01*
X143164182Y-64502656D01*
X143178999Y-64499709D01*
X143222660Y-64491025D01*
X143222660Y-64491024D01*
X143222662Y-64491024D01*
X143288983Y-64446709D01*
X143333298Y-64380388D01*
X143333298Y-64380386D01*
X143333299Y-64380386D01*
X143344930Y-64321909D01*
X143344931Y-64321907D01*
X143344931Y-62582406D01*
X143344930Y-62582404D01*
X143333299Y-62523927D01*
X143333298Y-62523926D01*
X143288983Y-62457604D01*
X143222661Y-62413289D01*
X143222660Y-62413288D01*
X143164183Y-62401657D01*
X143164179Y-62401657D01*
X141424683Y-62401657D01*
X141424678Y-62401657D01*
X141366201Y-62413288D01*
X141366200Y-62413289D01*
X141299878Y-62457604D01*
X141255563Y-62523926D01*
X141255562Y-62523927D01*
X141243931Y-62582404D01*
X141243931Y-64321909D01*
X141255562Y-64380386D01*
X141255563Y-64380387D01*
X141299878Y-64446709D01*
X141366200Y-64491024D01*
X141366201Y-64491025D01*
X141424678Y-64502656D01*
X141424681Y-64502657D01*
X141424683Y-64502657D01*
X141594931Y-64502657D01*
X141661970Y-64522342D01*
X141707725Y-64575146D01*
X141718931Y-64626657D01*
X141718931Y-66870196D01*
X141758150Y-67016567D01*
X141765638Y-67029536D01*
X141833916Y-67147796D01*
X141833918Y-67147798D01*
X142176999Y-67490879D01*
X142210484Y-67552202D01*
X142205500Y-67621894D01*
X142163628Y-67677827D01*
X142121413Y-67698334D01*
X141976739Y-67737100D01*
X141976735Y-67737102D01*
X141851212Y-67809573D01*
X141851206Y-67809578D01*
X141748717Y-67912067D01*
X141748712Y-67912073D01*
X141676241Y-68037596D01*
X141676240Y-68037600D01*
X141638724Y-68177610D01*
X141638724Y-68322560D01*
X141670957Y-68442853D01*
X141676241Y-68462573D01*
X141748712Y-68588096D01*
X141748714Y-68588098D01*
X141748715Y-68588100D01*
X141851209Y-68690594D01*
X141851210Y-68690595D01*
X141851212Y-68690596D01*
X141976735Y-68763067D01*
X141976736Y-68763067D01*
X141976739Y-68763069D01*
X142116749Y-68800585D01*
X142116752Y-68800585D01*
X142261696Y-68800585D01*
X142261699Y-68800585D01*
X142401709Y-68763069D01*
X142527239Y-68690594D01*
X142629733Y-68588100D01*
X142693113Y-68478323D01*
X142743680Y-68430107D01*
X142812287Y-68416885D01*
X142877152Y-68442853D01*
X142917680Y-68499767D01*
X142924500Y-68540323D01*
X142924500Y-70959846D01*
X142904815Y-71026885D01*
X142852011Y-71072640D01*
X142782853Y-71082584D01*
X142719297Y-71053559D01*
X142693113Y-71021847D01*
X142691477Y-71019014D01*
X142629733Y-70912070D01*
X142527239Y-70809576D01*
X142527237Y-70809575D01*
X142527235Y-70809573D01*
X142401712Y-70737102D01*
X142401713Y-70737102D01*
X142390230Y-70734025D01*
X142261699Y-70699585D01*
X142116749Y-70699585D01*
X141988217Y-70734025D01*
X141976735Y-70737102D01*
X141851212Y-70809573D01*
X141851206Y-70809578D01*
X141748717Y-70912067D01*
X141748712Y-70912073D01*
X141676241Y-71037596D01*
X141676240Y-71037600D01*
X141638724Y-71177610D01*
X141638724Y-71322560D01*
X141670957Y-71442853D01*
X141676241Y-71462573D01*
X141748712Y-71588096D01*
X141748714Y-71588098D01*
X141748715Y-71588100D01*
X141851209Y-71690594D01*
X141851210Y-71690595D01*
X141851212Y-71690596D01*
X141976735Y-71763067D01*
X141976736Y-71763067D01*
X141976739Y-71763069D01*
X142116749Y-71800585D01*
X142116752Y-71800585D01*
X142261696Y-71800585D01*
X142261699Y-71800585D01*
X142401709Y-71763069D01*
X142527239Y-71690594D01*
X142629733Y-71588100D01*
X142693113Y-71478323D01*
X142743680Y-71430107D01*
X142812287Y-71416885D01*
X142877152Y-71442853D01*
X142917680Y-71499767D01*
X142924500Y-71540323D01*
X142924500Y-74098425D01*
X142924500Y-74249957D01*
X142927521Y-74261231D01*
X142963719Y-74396327D01*
X143001602Y-74461941D01*
X143039485Y-74527556D01*
X143039487Y-74527558D01*
X143473478Y-74961549D01*
X143495983Y-74995229D01*
X143496398Y-74994990D01*
X143500054Y-75001323D01*
X143500358Y-75001777D01*
X143500462Y-75002029D01*
X143500464Y-75002032D01*
X143533582Y-75045193D01*
X143596718Y-75127473D01*
X143722159Y-75223727D01*
X143868238Y-75284235D01*
X143946619Y-75294554D01*
X144024999Y-75304873D01*
X144025000Y-75304873D01*
X144025001Y-75304873D01*
X144077254Y-75297993D01*
X144181762Y-75284235D01*
X144253049Y-75254706D01*
X144322516Y-75247238D01*
X144384995Y-75278513D01*
X144420648Y-75338601D01*
X144424500Y-75369268D01*
X144424500Y-75976000D01*
X144404815Y-76043039D01*
X144352011Y-76088794D01*
X144300500Y-76100000D01*
X142099999Y-76100000D01*
X142092432Y-76107567D01*
X142031109Y-76141052D01*
X141988567Y-76142823D01*
X141927558Y-76134792D01*
X141848001Y-76124318D01*
X141847999Y-76124318D01*
X141691239Y-76144955D01*
X141691237Y-76144956D01*
X141545160Y-76205463D01*
X141419718Y-76301718D01*
X141323463Y-76427160D01*
X141262956Y-76573237D01*
X141262955Y-76573239D01*
X141242318Y-76729998D01*
X141242318Y-76730001D01*
X141262955Y-76886760D01*
X141262956Y-76886762D01*
X141308992Y-76997904D01*
X141323464Y-77032841D01*
X141419718Y-77158282D01*
X141545159Y-77254536D01*
X141691238Y-77315044D01*
X141769619Y-77325363D01*
X141847999Y-77335682D01*
X141848000Y-77335682D01*
X141959815Y-77320961D01*
X142028850Y-77331726D01*
X142081106Y-77378106D01*
X142100000Y-77443900D01*
X142100000Y-80300000D01*
X143165007Y-80300000D01*
X143232046Y-80319685D01*
X143277801Y-80372489D01*
X143287745Y-80441647D01*
X143258720Y-80505203D01*
X143252693Y-80511675D01*
X143090184Y-80674184D01*
X142393506Y-81370860D01*
X142332183Y-81404345D01*
X142289641Y-81406118D01*
X142200003Y-81394318D01*
X142199998Y-81394318D01*
X142043239Y-81414955D01*
X142043237Y-81414956D01*
X141897160Y-81475463D01*
X141771718Y-81571718D01*
X141675463Y-81697160D01*
X141614956Y-81843237D01*
X141614955Y-81843239D01*
X141594318Y-81999998D01*
X141594318Y-82000001D01*
X141614955Y-82156760D01*
X141614956Y-82156762D01*
X141655768Y-82255292D01*
X141675464Y-82302841D01*
X141771718Y-82428282D01*
X141897159Y-82524536D01*
X142043238Y-82585044D01*
X142121619Y-82595363D01*
X142199999Y-82605682D01*
X142200000Y-82605682D01*
X142200001Y-82605682D01*
X142252254Y-82598802D01*
X142356762Y-82585044D01*
X142502841Y-82524536D01*
X142521237Y-82510420D01*
X142586404Y-82485226D01*
X142654849Y-82499264D01*
X142704840Y-82548077D01*
X142720504Y-82616168D01*
X142719662Y-82624981D01*
X142698486Y-82785830D01*
X142698486Y-82785833D01*
X142719123Y-82942591D01*
X142719123Y-82942593D01*
X142719124Y-82942594D01*
X142737952Y-82988049D01*
X142745421Y-83057516D01*
X142714146Y-83119995D01*
X142654058Y-83155648D01*
X142623391Y-83159500D01*
X141380247Y-83159500D01*
X141321770Y-83171131D01*
X141321769Y-83171132D01*
X141255447Y-83215447D01*
X141211132Y-83281769D01*
X141211131Y-83281770D01*
X141199500Y-83340247D01*
X141199500Y-83811924D01*
X141179815Y-83878963D01*
X141127011Y-83924718D01*
X141121454Y-83926715D01*
X141121518Y-83926870D01*
X141114004Y-83929982D01*
X141045495Y-83969535D01*
X141045487Y-83969541D01*
X140511681Y-84503348D01*
X140450358Y-84536833D01*
X140380666Y-84531849D01*
X140324733Y-84489977D01*
X140300316Y-84424513D01*
X140300000Y-84415667D01*
X140300000Y-58372157D01*
X141238848Y-58372157D01*
X141259130Y-58578089D01*
X141289165Y-58677101D01*
X141319199Y-58776111D01*
X141416746Y-58958607D01*
X141416748Y-58958609D01*
X141548020Y-59118567D01*
X141620782Y-59178280D01*
X141707981Y-59249842D01*
X141890477Y-59347389D01*
X142088497Y-59407457D01*
X142088496Y-59407457D01*
X142106960Y-59409275D01*
X142294431Y-59427740D01*
X142500365Y-59407457D01*
X142698385Y-59347389D01*
X142880881Y-59249842D01*
X143040841Y-59118567D01*
X143172116Y-58958607D01*
X143269663Y-58776111D01*
X143329731Y-58578091D01*
X143350014Y-58372157D01*
X143329731Y-58166223D01*
X143269663Y-57968203D01*
X143172116Y-57785707D01*
X143101779Y-57700000D01*
X143040841Y-57625746D01*
X142880883Y-57494474D01*
X142880884Y-57494474D01*
X142880881Y-57494472D01*
X142698385Y-57396925D01*
X142500365Y-57336857D01*
X142500363Y-57336856D01*
X142500365Y-57336856D01*
X142294431Y-57316574D01*
X142088498Y-57336856D01*
X141890474Y-57396926D01*
X141780329Y-57455800D01*
X141707981Y-57494472D01*
X141707979Y-57494473D01*
X141707978Y-57494474D01*
X141548020Y-57625746D01*
X141416748Y-57785704D01*
X141319200Y-57968200D01*
X141259130Y-58166224D01*
X141238848Y-58372157D01*
X140300000Y-58372157D01*
X140300000Y-45655513D01*
X140799500Y-45655513D01*
X140799500Y-45844486D01*
X140829059Y-46031118D01*
X140887454Y-46210836D01*
X140973240Y-46379199D01*
X141084310Y-46532073D01*
X141217927Y-46665690D01*
X141370801Y-46776760D01*
X141450347Y-46817290D01*
X141539163Y-46862545D01*
X141539165Y-46862545D01*
X141539168Y-46862547D01*
X141635497Y-46893846D01*
X141718881Y-46920940D01*
X141905514Y-46950500D01*
X141905519Y-46950500D01*
X142094486Y-46950500D01*
X142281118Y-46920940D01*
X142460832Y-46862547D01*
X142629199Y-46776760D01*
X142782073Y-46665690D01*
X142915690Y-46532073D01*
X143026760Y-46379199D01*
X143112547Y-46210832D01*
X143170940Y-46031118D01*
X143171991Y-46024481D01*
X143200500Y-45844486D01*
X143200500Y-45655513D01*
X143170940Y-45468881D01*
X143143846Y-45385497D01*
X143112547Y-45289168D01*
X143112545Y-45289165D01*
X143112545Y-45289163D01*
X143040580Y-45147925D01*
X143026760Y-45120801D01*
X142915690Y-44967927D01*
X142782073Y-44834310D01*
X142629199Y-44723240D01*
X142460836Y-44637454D01*
X142281118Y-44579059D01*
X142094486Y-44549500D01*
X142094481Y-44549500D01*
X141905519Y-44549500D01*
X141905514Y-44549500D01*
X141718881Y-44579059D01*
X141539163Y-44637454D01*
X141370800Y-44723240D01*
X141321499Y-44759060D01*
X141217927Y-44834310D01*
X141217925Y-44834312D01*
X141217924Y-44834312D01*
X141084312Y-44967924D01*
X141084312Y-44967925D01*
X141084310Y-44967927D01*
X141050611Y-45014310D01*
X140973240Y-45120800D01*
X140887454Y-45289163D01*
X140829059Y-45468881D01*
X140799500Y-45655513D01*
X140300000Y-45655513D01*
X140300000Y-44224000D01*
X140319685Y-44156961D01*
X140372489Y-44111206D01*
X140424000Y-44100000D01*
X148705500Y-44100000D01*
X148772539Y-44119685D01*
X148818294Y-44172489D01*
X148829500Y-44224000D01*
X148829500Y-46694752D01*
X148841131Y-46753229D01*
X148841132Y-46753230D01*
X148885447Y-46819552D01*
X148951769Y-46863867D01*
X148951770Y-46863868D01*
X149010247Y-46875499D01*
X149010250Y-46875500D01*
X149010252Y-46875500D01*
X151389750Y-46875500D01*
X151389751Y-46875499D01*
X151404568Y-46872552D01*
X151448229Y-46863868D01*
X151448229Y-46863867D01*
X151448231Y-46863867D01*
X151514552Y-46819552D01*
X151558867Y-46753231D01*
X151558867Y-46753229D01*
X151558868Y-46753229D01*
X151570499Y-46694752D01*
X151570500Y-46694750D01*
X151570500Y-45835513D01*
X157909500Y-45835513D01*
X157909500Y-46024486D01*
X157939059Y-46211118D01*
X157997454Y-46390836D01*
X158069419Y-46532074D01*
X158083240Y-46559199D01*
X158194310Y-46712073D01*
X158327927Y-46845690D01*
X158480801Y-46956760D01*
X158560347Y-46997290D01*
X158649163Y-47042545D01*
X158649165Y-47042545D01*
X158649168Y-47042547D01*
X158745497Y-47073846D01*
X158828881Y-47100940D01*
X159015514Y-47130500D01*
X159015519Y-47130500D01*
X159204486Y-47130500D01*
X159391118Y-47100940D01*
X159570832Y-47042547D01*
X159739199Y-46956760D01*
X159892073Y-46845690D01*
X160025690Y-46712073D01*
X160136760Y-46559199D01*
X160222547Y-46390832D01*
X160280940Y-46211118D01*
X160280985Y-46210832D01*
X160310500Y-46024486D01*
X160310500Y-45835513D01*
X160280940Y-45648881D01*
X160222545Y-45469163D01*
X160136759Y-45300800D01*
X160128304Y-45289163D01*
X160025690Y-45147927D01*
X159892073Y-45014310D01*
X159739199Y-44903240D01*
X159570836Y-44817454D01*
X159391118Y-44759059D01*
X159204486Y-44729500D01*
X159204481Y-44729500D01*
X159015519Y-44729500D01*
X159015514Y-44729500D01*
X158828881Y-44759059D01*
X158649163Y-44817454D01*
X158480800Y-44903240D01*
X158393579Y-44966610D01*
X158327927Y-45014310D01*
X158327925Y-45014312D01*
X158327924Y-45014312D01*
X158194312Y-45147924D01*
X158194312Y-45147925D01*
X158194310Y-45147927D01*
X158146610Y-45213579D01*
X158083240Y-45300800D01*
X157997454Y-45469163D01*
X157939059Y-45648881D01*
X157909500Y-45835513D01*
X151570500Y-45835513D01*
X151570500Y-42695249D01*
X151570499Y-42695247D01*
X151558868Y-42636770D01*
X151558867Y-42636769D01*
X151514552Y-42570447D01*
X151448230Y-42526132D01*
X151448229Y-42526131D01*
X151389752Y-42514500D01*
X151389748Y-42514500D01*
X149974000Y-42514500D01*
X149906961Y-42494815D01*
X149861206Y-42442011D01*
X149850000Y-42390500D01*
X149850000Y-37024000D01*
X149869685Y-36956961D01*
X149922489Y-36911206D01*
X149974000Y-36900000D01*
X161726000Y-36900000D01*
X161793039Y-36919685D01*
G37*
%TD.AperFunction*%
%TA.AperFunction,Conductor*%
G36*
X156942223Y-74530916D02*
G01*
X156987978Y-74583720D01*
X156997922Y-74652878D01*
X156968897Y-74716434D01*
X156950671Y-74733606D01*
X156935359Y-74745355D01*
X156935358Y-74745356D01*
X156935357Y-74745357D01*
X156897088Y-74795230D01*
X156839102Y-74870799D01*
X156778595Y-75016876D01*
X156778594Y-75016878D01*
X156757957Y-75173637D01*
X156757957Y-75173640D01*
X156778594Y-75330399D01*
X156778595Y-75330401D01*
X156839103Y-75476480D01*
X156935357Y-75601921D01*
X157060798Y-75698175D01*
X157132083Y-75727702D01*
X157186486Y-75771543D01*
X157208551Y-75837837D01*
X157191272Y-75905536D01*
X157172311Y-75929944D01*
X154739537Y-78362719D01*
X154739535Y-78362722D01*
X154696682Y-78436943D01*
X154693723Y-78447989D01*
X154691269Y-78457147D01*
X154691269Y-78457148D01*
X154691268Y-78457147D01*
X154674500Y-78519729D01*
X154674500Y-82176310D01*
X154654815Y-82243349D01*
X154638181Y-82263991D01*
X154378576Y-82523596D01*
X154317253Y-82557081D01*
X154247561Y-82552097D01*
X154192519Y-82511401D01*
X154103284Y-82395107D01*
X154095461Y-82389104D01*
X153977842Y-82298852D01*
X153958449Y-82290819D01*
X153872680Y-82255292D01*
X153818277Y-82211451D01*
X153796212Y-82145156D01*
X153803093Y-82107074D01*
X153801215Y-82106571D01*
X153805643Y-82090046D01*
X153806657Y-82086261D01*
X153825501Y-82015937D01*
X153825501Y-81930231D01*
X153825501Y-81922636D01*
X153825500Y-81922618D01*
X153825500Y-77611494D01*
X153845185Y-77544455D01*
X153861819Y-77523813D01*
X154229327Y-77156305D01*
X154635465Y-76750167D01*
X154678318Y-76675944D01*
X154700500Y-76593158D01*
X154700500Y-76507452D01*
X154700500Y-76011189D01*
X154720185Y-75944150D01*
X154736819Y-75923508D01*
X156112777Y-74547550D01*
X156174100Y-74514065D01*
X156200458Y-74511231D01*
X156875184Y-74511231D01*
X156942223Y-74530916D01*
G37*
%TD.AperFunction*%
%TA.AperFunction,Conductor*%
G36*
X154996119Y-74530916D02*
G01*
X155041874Y-74583720D01*
X155051818Y-74652878D01*
X155022793Y-74716434D01*
X155016761Y-74722912D01*
X154114537Y-75625135D01*
X154114535Y-75625138D01*
X154074594Y-75694318D01*
X154071682Y-75699361D01*
X154055787Y-75758683D01*
X154055787Y-75758684D01*
X154055786Y-75758683D01*
X154049500Y-75782145D01*
X154049500Y-75813284D01*
X154029815Y-75880323D01*
X153977011Y-75926078D01*
X153907853Y-75936022D01*
X153850015Y-75911661D01*
X153802841Y-75875464D01*
X153656762Y-75814956D01*
X153656760Y-75814955D01*
X153500001Y-75794318D01*
X153499999Y-75794318D01*
X153343239Y-75814955D01*
X153343237Y-75814956D01*
X153197160Y-75875463D01*
X153071718Y-75971718D01*
X152975463Y-76097160D01*
X152914956Y-76243237D01*
X152914955Y-76243239D01*
X152894318Y-76399998D01*
X152894318Y-76400001D01*
X152914955Y-76556760D01*
X152914956Y-76556762D01*
X152975464Y-76702841D01*
X153071718Y-76828282D01*
X153197159Y-76924536D01*
X153268444Y-76954063D01*
X153322847Y-76997904D01*
X153344912Y-77064198D01*
X153327633Y-77131897D01*
X153308673Y-77156305D01*
X153239534Y-77225444D01*
X153239533Y-77225446D01*
X153196681Y-77299666D01*
X153196682Y-77299667D01*
X153174500Y-77382452D01*
X153174500Y-81487875D01*
X153154815Y-81554914D01*
X153102011Y-81600669D01*
X153032853Y-81610613D01*
X152969297Y-81581588D01*
X152935939Y-81535328D01*
X152931461Y-81524518D01*
X152931461Y-81524517D01*
X152835207Y-81399076D01*
X152709766Y-81302822D01*
X152702948Y-81299998D01*
X152563687Y-81242314D01*
X152563685Y-81242313D01*
X152406926Y-81221676D01*
X152406924Y-81221676D01*
X152250164Y-81242313D01*
X152250159Y-81242315D01*
X152152453Y-81282786D01*
X152082984Y-81290255D01*
X152020505Y-81258979D01*
X151990440Y-81215677D01*
X151984841Y-81202160D01*
X151984840Y-81202159D01*
X151984840Y-81202158D01*
X151888586Y-81076717D01*
X151763145Y-80980463D01*
X151763029Y-80980415D01*
X151617066Y-80919955D01*
X151617064Y-80919954D01*
X151460305Y-80899317D01*
X151460303Y-80899317D01*
X151303543Y-80919954D01*
X151303541Y-80919955D01*
X151157460Y-80980464D01*
X151150423Y-80984527D01*
X151149566Y-80983043D01*
X151093528Y-81004705D01*
X151025084Y-80990662D01*
X150995537Y-80968815D01*
X147536819Y-77510096D01*
X147503334Y-77448773D01*
X147500500Y-77422415D01*
X147500500Y-76299998D01*
X148594318Y-76299998D01*
X148594318Y-76300001D01*
X148614955Y-76456760D01*
X148614956Y-76456762D01*
X148663201Y-76573237D01*
X148675464Y-76602841D01*
X148771718Y-76728282D01*
X148897159Y-76824536D01*
X149043238Y-76885044D01*
X149056288Y-76886762D01*
X149199999Y-76905682D01*
X149200000Y-76905682D01*
X149200001Y-76905682D01*
X149252254Y-76898802D01*
X149356762Y-76885044D01*
X149502841Y-76824536D01*
X149628282Y-76728282D01*
X149724536Y-76602841D01*
X149785044Y-76456762D01*
X149805682Y-76300000D01*
X149785044Y-76143238D01*
X149724536Y-75997159D01*
X149628282Y-75871718D01*
X149502841Y-75775464D01*
X149356762Y-75714956D01*
X149356760Y-75714955D01*
X149200001Y-75694318D01*
X149199999Y-75694318D01*
X149043239Y-75714955D01*
X149043237Y-75714956D01*
X148897160Y-75775463D01*
X148771718Y-75871718D01*
X148675463Y-75997160D01*
X148614956Y-76143237D01*
X148614955Y-76143239D01*
X148594318Y-76299998D01*
X147500500Y-76299998D01*
X147500500Y-74635231D01*
X147520185Y-74568192D01*
X147572989Y-74522437D01*
X147624500Y-74511231D01*
X154929080Y-74511231D01*
X154996119Y-74530916D01*
G37*
%TD.AperFunction*%
%TA.AperFunction,Conductor*%
G36*
X154030703Y-55941475D02*
G01*
X154037181Y-55947507D01*
X157688263Y-59598589D01*
X157721748Y-59659912D01*
X157716764Y-59729604D01*
X157674892Y-59785537D01*
X157648035Y-59800831D01*
X157503716Y-59860610D01*
X157378274Y-59956865D01*
X157282019Y-60082307D01*
X157221512Y-60228384D01*
X157221511Y-60228386D01*
X157200874Y-60385145D01*
X157200874Y-60385148D01*
X157221511Y-60541907D01*
X157221512Y-60541909D01*
X157282020Y-60687988D01*
X157378274Y-60813429D01*
X157503715Y-60909683D01*
X157649794Y-60970191D01*
X157806556Y-60990829D01*
X157834315Y-60987174D01*
X157903348Y-60997939D01*
X157955605Y-61044318D01*
X157974500Y-61110113D01*
X157974500Y-71713811D01*
X157954815Y-71780850D01*
X157938181Y-71801492D01*
X155514761Y-74224912D01*
X155453438Y-74258397D01*
X155427080Y-74261231D01*
X147624500Y-74261231D01*
X147557461Y-74241546D01*
X147511706Y-74188742D01*
X147500500Y-74137231D01*
X147500500Y-70005804D01*
X147500500Y-70005801D01*
X147492136Y-69974585D01*
X147478318Y-69923015D01*
X147435465Y-69848792D01*
X146969859Y-69383186D01*
X146936374Y-69321863D01*
X146933540Y-69295505D01*
X146933540Y-68319647D01*
X150174500Y-68319647D01*
X150174500Y-71042852D01*
X150196682Y-71125640D01*
X150218108Y-71162750D01*
X150239535Y-71199862D01*
X150239537Y-71199864D01*
X150767988Y-71728315D01*
X150801473Y-71789638D01*
X150803246Y-71832181D01*
X150794318Y-71899998D01*
X150794318Y-71900001D01*
X150814955Y-72056760D01*
X150814956Y-72056762D01*
X150875464Y-72202841D01*
X150971718Y-72328282D01*
X151097159Y-72424536D01*
X151243238Y-72485044D01*
X151321619Y-72495363D01*
X151399999Y-72505682D01*
X151400000Y-72505682D01*
X151400001Y-72505682D01*
X151452254Y-72498802D01*
X151556762Y-72485044D01*
X151702841Y-72424536D01*
X151828282Y-72328282D01*
X151924536Y-72202841D01*
X151985044Y-72056762D01*
X152005682Y-71900000D01*
X151985044Y-71743238D01*
X151924536Y-71597159D01*
X151828282Y-71471718D01*
X151702841Y-71375464D01*
X151556762Y-71314956D01*
X151556760Y-71314955D01*
X151400001Y-71294318D01*
X151399999Y-71294318D01*
X151332181Y-71303246D01*
X151263145Y-71292480D01*
X151228315Y-71267988D01*
X150861819Y-70901492D01*
X150828334Y-70840169D01*
X150825500Y-70813811D01*
X150825500Y-68548687D01*
X150845185Y-68481648D01*
X150861814Y-68461011D01*
X152817826Y-66504998D01*
X153751818Y-66504998D01*
X153751818Y-66505001D01*
X153772455Y-66661760D01*
X153772456Y-66661762D01*
X153832964Y-66807841D01*
X153929218Y-66933282D01*
X154054659Y-67029536D01*
X154200738Y-67090044D01*
X154279119Y-67100363D01*
X154357499Y-67110682D01*
X154357500Y-67110682D01*
X154357501Y-67110682D01*
X154409754Y-67103802D01*
X154514262Y-67090044D01*
X154660341Y-67029536D01*
X154785782Y-66933282D01*
X154882036Y-66807841D01*
X154942544Y-66661762D01*
X154963182Y-66505000D01*
X154942544Y-66348238D01*
X154882036Y-66202159D01*
X154785782Y-66076718D01*
X154660341Y-65980464D01*
X154514262Y-65919956D01*
X154514260Y-65919955D01*
X154357501Y-65899318D01*
X154357499Y-65899318D01*
X154200739Y-65919955D01*
X154200737Y-65919956D01*
X154054652Y-65980466D01*
X154052742Y-65981569D01*
X154049969Y-65984061D01*
X153929220Y-66076715D01*
X153832963Y-66202160D01*
X153772456Y-66348237D01*
X153772455Y-66348239D01*
X153751818Y-66504998D01*
X152817826Y-66504998D01*
X153435815Y-65887009D01*
X153497136Y-65853526D01*
X153539680Y-65851753D01*
X153607499Y-65860682D01*
X153607500Y-65860682D01*
X153607501Y-65860682D01*
X153659754Y-65853802D01*
X153764262Y-65840044D01*
X153910341Y-65779536D01*
X153910347Y-65779531D01*
X153912254Y-65778430D01*
X153915031Y-65775937D01*
X154035782Y-65683282D01*
X154132036Y-65557841D01*
X154192544Y-65411762D01*
X154213182Y-65255000D01*
X154192544Y-65098238D01*
X154132036Y-64952159D01*
X154037166Y-64828522D01*
X154011974Y-64763357D01*
X154026012Y-64694912D01*
X154074826Y-64644922D01*
X154142917Y-64629258D01*
X154182993Y-64638477D01*
X154220843Y-64654155D01*
X154299224Y-64664474D01*
X154377604Y-64674793D01*
X154377605Y-64674793D01*
X154377606Y-64674793D01*
X154429859Y-64667913D01*
X154534367Y-64654155D01*
X154680446Y-64593647D01*
X154805887Y-64497393D01*
X154902141Y-64371952D01*
X154962649Y-64225873D01*
X154983177Y-64069947D01*
X154983287Y-64069112D01*
X154983287Y-64069109D01*
X154962649Y-63912350D01*
X154962649Y-63912349D01*
X154902141Y-63766270D01*
X154805887Y-63640829D01*
X154785540Y-63625216D01*
X154744338Y-63568788D01*
X154740183Y-63499042D01*
X154774396Y-63438122D01*
X154785531Y-63428474D01*
X154785782Y-63428282D01*
X154882036Y-63302841D01*
X154942544Y-63156762D01*
X154963182Y-63000000D01*
X154942544Y-62843238D01*
X154882036Y-62697159D01*
X154785782Y-62571718D01*
X154660341Y-62475464D01*
X154617223Y-62457604D01*
X154514262Y-62414956D01*
X154514260Y-62414955D01*
X154357501Y-62394318D01*
X154357499Y-62394318D01*
X154200739Y-62414955D01*
X154200737Y-62414956D01*
X154054660Y-62475463D01*
X153929218Y-62571718D01*
X153832963Y-62697160D01*
X153772456Y-62843237D01*
X153772455Y-62843239D01*
X153751818Y-62999998D01*
X153751818Y-63000001D01*
X153772455Y-63156760D01*
X153772456Y-63156762D01*
X153813579Y-63256043D01*
X153832964Y-63302841D01*
X153929215Y-63428278D01*
X153929219Y-63428283D01*
X153949563Y-63443893D01*
X153990766Y-63500321D01*
X153994921Y-63570067D01*
X153960709Y-63630987D01*
X153949571Y-63640637D01*
X153949384Y-63640781D01*
X153949324Y-63640828D01*
X153853068Y-63766271D01*
X153792561Y-63912348D01*
X153792560Y-63912350D01*
X153771923Y-64069109D01*
X153771923Y-64069112D01*
X153792560Y-64225871D01*
X153792561Y-64225873D01*
X153853069Y-64371952D01*
X153947937Y-64495586D01*
X153973130Y-64560754D01*
X153959092Y-64629198D01*
X153910278Y-64679188D01*
X153842187Y-64694852D01*
X153802108Y-64685632D01*
X153764265Y-64669957D01*
X153764260Y-64669955D01*
X153607501Y-64649318D01*
X153607499Y-64649318D01*
X153450739Y-64669955D01*
X153450737Y-64669956D01*
X153304660Y-64730463D01*
X153179218Y-64826718D01*
X153082963Y-64952160D01*
X153022456Y-65098237D01*
X153022455Y-65098239D01*
X153001818Y-65254998D01*
X153001818Y-65255001D01*
X153010746Y-65322818D01*
X152999980Y-65391853D01*
X152975488Y-65426684D01*
X150239537Y-68162635D01*
X150239533Y-68162641D01*
X150196681Y-68236861D01*
X150196682Y-68236862D01*
X150174500Y-68319647D01*
X146933540Y-68319647D01*
X146933540Y-62385244D01*
X146953225Y-62318205D01*
X147006029Y-62272450D01*
X147057551Y-62261244D01*
X153684462Y-62261970D01*
X153684462Y-62011969D01*
X146683540Y-62011231D01*
X146683540Y-68797505D01*
X146663855Y-68864544D01*
X146611051Y-68910299D01*
X146541893Y-68920243D01*
X146478337Y-68891218D01*
X146471859Y-68885186D01*
X146361819Y-68775146D01*
X146328334Y-68713823D01*
X146325500Y-68687465D01*
X146325500Y-59222696D01*
X146345185Y-59155657D01*
X146397989Y-59109902D01*
X146467147Y-59099958D01*
X146530703Y-59128983D01*
X146547874Y-59147208D01*
X146571718Y-59178282D01*
X146697159Y-59274536D01*
X146843238Y-59335044D01*
X146905478Y-59343238D01*
X146999999Y-59355682D01*
X147000000Y-59355682D01*
X147000001Y-59355682D01*
X147094514Y-59343239D01*
X147156762Y-59335044D01*
X147157018Y-59334937D01*
X147157557Y-59334830D01*
X147164613Y-59332940D01*
X147164736Y-59333402D01*
X147204468Y-59325500D01*
X147335500Y-59325500D01*
X147402539Y-59345185D01*
X147448294Y-59397989D01*
X147459500Y-59449500D01*
X147459500Y-59544752D01*
X147471131Y-59603229D01*
X147471132Y-59603230D01*
X147515447Y-59669552D01*
X147581769Y-59713867D01*
X147581770Y-59713868D01*
X147640247Y-59725499D01*
X147640250Y-59725500D01*
X147640252Y-59725500D01*
X152759750Y-59725500D01*
X152759751Y-59725499D01*
X152774568Y-59722552D01*
X152818229Y-59713868D01*
X152818229Y-59713867D01*
X152818231Y-59713867D01*
X152884552Y-59669552D01*
X152928867Y-59603231D01*
X152928867Y-59603229D01*
X152928868Y-59603229D01*
X152940499Y-59544752D01*
X152940500Y-59544750D01*
X152940500Y-59499998D01*
X154144318Y-59499998D01*
X154144318Y-59500001D01*
X154164955Y-59656760D01*
X154164956Y-59656762D01*
X154188079Y-59712587D01*
X154225464Y-59802841D01*
X154321718Y-59928282D01*
X154447159Y-60024536D01*
X154593238Y-60085044D01*
X154608468Y-60087049D01*
X154749999Y-60105682D01*
X154750000Y-60105682D01*
X154750001Y-60105682D01*
X154824340Y-60095895D01*
X154906762Y-60085044D01*
X155052841Y-60024536D01*
X155178282Y-59928282D01*
X155274536Y-59802841D01*
X155335044Y-59656762D01*
X155355682Y-59500000D01*
X155349066Y-59449750D01*
X155335044Y-59343239D01*
X155335044Y-59343238D01*
X155274536Y-59197159D01*
X155178282Y-59071718D01*
X155052841Y-58975464D01*
X155012149Y-58958609D01*
X154906762Y-58914956D01*
X154906760Y-58914955D01*
X154750001Y-58894318D01*
X154749999Y-58894318D01*
X154593239Y-58914955D01*
X154593237Y-58914956D01*
X154447160Y-58975463D01*
X154321718Y-59071718D01*
X154225463Y-59197160D01*
X154164956Y-59343237D01*
X154164955Y-59343239D01*
X154144318Y-59499998D01*
X152940500Y-59499998D01*
X152940500Y-58829041D01*
X152960185Y-58762002D01*
X153012989Y-58716247D01*
X153082147Y-58706303D01*
X153139985Y-58730665D01*
X153165183Y-58750000D01*
X153197157Y-58774535D01*
X153197158Y-58774535D01*
X153197159Y-58774536D01*
X153343238Y-58835044D01*
X153421619Y-58845363D01*
X153499999Y-58855682D01*
X153500000Y-58855682D01*
X153500001Y-58855682D01*
X153552254Y-58848802D01*
X153656762Y-58835044D01*
X153802841Y-58774536D01*
X153928282Y-58678282D01*
X154024536Y-58552841D01*
X154085044Y-58406762D01*
X154105682Y-58250000D01*
X154085044Y-58093238D01*
X154024536Y-57947159D01*
X153928282Y-57821718D01*
X153928280Y-57821716D01*
X153928279Y-57821715D01*
X153874012Y-57780074D01*
X153832810Y-57723646D01*
X153825500Y-57681699D01*
X153825500Y-56035188D01*
X153845185Y-55968149D01*
X153897989Y-55922394D01*
X153967147Y-55912450D01*
X154030703Y-55941475D01*
G37*
%TD.AperFunction*%
%TD*%
M02*
