M48
; DRILL file {KiCad 9.0.0} date 2026-01-11T16:58:44-0500
; FORMAT={-:-/ absolute / metric / decimal}
; #@! TF.CreationDate,2026-01-11T16:58:44-05:00
; #@! TF.GenerationSoftware,Kicad,Pcbnew,9.0.0
; #@! TF.FileFunction,Plated,1,4,PTH
FMAT,2
METRIC
; #@! TA.AperFunction,Plated,PTH,ComponentDrill
T1C0.200
; #@! TA.AperFunction,Plated,PTH,ViaDrill
T2C0.300
; #@! TA.AperFunction,Plated,PTH,ComponentDrill
T3C0.300
; #@! TA.AperFunction,Plated,PTH,ViaDrill
T4C0.400
; #@! TA.AperFunction,Plated,PTH,ComponentDrill
T5C0.600
; #@! TA.AperFunction,Plated,PTH,ComponentDrill
T6C1.000
; #@! TA.AperFunction,Plated,PTH,ComponentDrill
T7C1.200
%
G90
G05
T1
X151.5Y-91.0
X151.5Y-93.0
X153.5Y-91.0
X153.5Y-93.0
T2
X127.75Y-89.5
X130.9Y-95.657
X137.25Y-89.5
X137.25Y-90.75
X137.75Y-96.0
T3
X152.885Y-69.255
X152.885Y-70.255
X153.635Y-69.755
X154.385Y-69.255
X154.385Y-70.255
T4
X128.6Y-98.334
X128.75Y-91.0
X129.156Y-97.211
X129.193Y-95.552
X129.5Y-102.75
X130.0Y-94.6
X130.25Y-103.75
X131.5Y-103.75
X131.87Y-98.15
X131.93Y-96.9
X132.0Y-102.05
X132.75Y-103.75
X133.052Y-101.849
X134.0Y-103.75
X135.25Y-103.75
X135.258Y-94.121
X135.75Y-102.75
X140.3Y-107.65
X140.75Y-50.0
X140.75Y-57.0
X140.75Y-64.75
X140.95Y-87.89
X141.0Y-68.25
X141.0Y-71.25
X141.0Y-80.478
X141.15Y-94.37
X141.2Y-75.2
X141.25Y-55.0
X141.5Y-79.6
X141.55Y-47.27
X141.746Y-49.911
X141.848Y-76.73
X141.9Y-107.6
X142.2Y-82.0
X142.25Y-69.75
X142.55Y-47.83
X142.6Y-93.9
X143.0Y-98.5
X143.0Y-99.75
X143.304Y-82.786
X143.55Y-47.21
X143.7Y-56.5
X144.0Y-44.5
X144.025Y-74.699
X144.307Y-81.6
X144.313Y-108.469
X144.39Y-55.28
X144.725Y-106.221
X145.025Y-44.5
X145.125Y-88.75
X145.175Y-83.163
X145.305Y-81.506
X145.319Y-84.286
X145.575Y-89.647
X145.575Y-90.8
X145.75Y-71.5
X145.75Y-72.75
X146.025Y-92.3
X146.05Y-44.5
X146.2Y-97.1
X146.597Y-88.128
X146.75Y-50.25
X146.75Y-60.5
X146.8Y-99.3
X147.0Y-57.7
X147.0Y-58.75
X147.075Y-44.5
X147.1Y-92.3
X147.821Y-83.897
X147.822Y-82.875
X147.9Y-100.0
X148.02Y-49.5
X148.089Y-90.48
X148.1Y-44.5
X148.174Y-76.315
X148.4Y-70.6
X148.569Y-106.321
X148.696Y-82.389
X148.7Y-72.1
X148.779Y-91.93
X148.8Y-73.3
X148.9Y-104.3
X149.0Y-49.5
X149.04Y-90.787
X149.087Y-92.888
X149.2Y-76.3
X150.0Y-49.5
X150.2Y-72.1
X150.3Y-40.528
X150.3Y-75.1
X150.3Y-98.4
X150.341Y-54.3
X150.4Y-38.128
X150.615Y-85.27
X150.775Y-93.72
X151.0Y-49.5
X151.2Y-41.4
X151.224Y-77.3
X151.3Y-76.1
X151.4Y-71.9
X151.46Y-81.505
X151.51Y-54.81
X151.545Y-85.638
X151.64Y-95.48
X151.7Y-101.1
X151.7Y-102.6
X151.976Y-42.32
X152.0Y-49.5
X152.3Y-39.328
X152.3Y-82.825
X152.3Y-103.4
X152.407Y-81.827
X152.475Y-85.27
X152.7Y-100.2
X152.77Y-95.23
X152.9Y-37.728
X152.9Y-73.5
X152.91Y-97.595
X153.0Y-40.028
X153.0Y-43.2
X153.2Y-49.5
X153.39Y-88.978
X153.5Y-38.928
X153.5Y-58.25
X153.5Y-76.4
X153.6Y-53.6
X153.607Y-65.255
X153.675Y-82.823
X153.72Y-98.82
X153.9Y-44.1
X154.101Y-73.46
X154.25Y-79.25
X154.357Y-63.0
X154.357Y-66.505
X154.378Y-64.069
X154.4Y-40.228
X154.563Y-87.037
X154.6Y-42.328
X154.6Y-45.1
X154.6Y-46.1
X154.6Y-47.4
X154.6Y-48.46
X154.6Y-49.46
X154.7Y-57.8
X154.75Y-59.5
X154.77Y-98.81
X155.0Y-54.2
X155.052Y-94.223
X155.1Y-76.5
X155.3Y-43.128
X155.6Y-103.1
X155.704Y-86.383
X155.8Y-62.8
X156.0Y-43.828
X156.1Y-59.5
X156.298Y-85.22
X156.3Y-64.0
X156.3Y-87.6
X156.5Y-45.904
X156.5Y-46.9
X156.5Y-49.034
X156.5Y-50.03
X156.5Y-54.25
X156.51Y-44.771
X156.51Y-48.039
X156.641Y-72.436
X156.7Y-86.468
X156.895Y-71.25
X157.0Y-67.75
X157.0Y-79.337
X157.0Y-102.4
X157.04Y-93.27
X157.04Y-94.29
X157.04Y-95.31
X157.065Y-91.283
X157.065Y-92.303
X157.091Y-83.775
X157.1Y-57.2
X157.19Y-97.23
X157.364Y-75.174
X157.398Y-63.363
X157.398Y-64.409
X157.398Y-65.454
X157.398Y-66.5
X157.475Y-81.3
X157.49Y-100.36
X157.73Y-37.748
X157.807Y-60.385
X158.01Y-51.813
X158.01Y-52.835
X158.01Y-53.856
X158.01Y-54.878
X158.01Y-55.9
X158.7Y-88.767
X159.34Y-37.748
X160.3Y-107.1
X160.95Y-37.748
X160.95Y-39.852
X160.95Y-41.876
X160.95Y-43.9
X160.95Y-48.196
X160.95Y-50.219
X160.95Y-52.243
X160.95Y-54.267
T6
X128.621Y-87.746
X131.161Y-87.746
X133.701Y-87.746
X136.241Y-87.746
X142.25Y-84.21
X142.25Y-86.75
X142.25Y-89.29
X142.25Y-91.83
X142.294Y-58.372
X142.294Y-60.912
X142.294Y-63.452
X155.7Y-38.7
X160.38Y-82.59
X160.38Y-85.13
X160.38Y-87.67
X160.38Y-90.21
X160.38Y-94.065
X160.38Y-96.605
X160.38Y-99.145
X160.38Y-101.685
X160.38Y-104.225
X160.4Y-58.58
X160.4Y-61.12
X160.4Y-63.66
X160.4Y-66.2
X160.4Y-68.74
X160.4Y-71.28
X160.4Y-73.82
X160.4Y-76.36
X160.4Y-78.9
T7
X150.696Y-105.666
X153.911Y-105.666
X157.126Y-105.666
T5
G00X128.357Y-100.355
M15
G01X128.357Y-101.455
M16
G05
G00X128.357Y-104.685
M15
G01X128.357Y-105.485
M16
G05
G00X136.997Y-100.355
M15
G01X136.997Y-101.455
M16
G05
G00X136.997Y-104.685
M15
G01X136.997Y-105.485
M16
G05
M30
