%TF.GenerationSoftware,KiCad,Pcbnew,8.0.1*%
%TF.CreationDate,2024-07-19T12:33:08-04:00*%
%TF.ProjectId,Tiny4FSK,54696e79-3446-4534-9b2e-6b696361645f,rev?*%
%TF.SameCoordinates,Original*%
%TF.FileFunction,Profile,NP*%
%FSLAX46Y46*%
G04 Gerber Fmt 4.6, Leading zero omitted, Abs format (unit mm)*
G04 Created by KiCad (PCBNEW 8.0.1) date 2024-07-19 12:33:08*
%MOMM*%
%LPD*%
G01*
G04 APERTURE LIST*
%TA.AperFunction,Profile*%
%ADD10C,0.100000*%
%TD*%
G04 APERTURE END LIST*
D10*
X140250000Y-87750000D02*
X140250000Y-106750000D01*
X140250000Y-107500000D01*
X138250000Y-106750000D01*
X138250000Y-87750000D01*
X140250000Y-86750000D01*
X140250000Y-87750000D01*
X160750000Y-79750000D02*
X160750000Y-96750000D01*
X158750000Y-98000000D01*
X158750000Y-96750000D01*
X158750000Y-79750000D01*
X158750000Y-78250000D01*
X160750000Y-79750000D01*
X159750000Y-47500000D02*
X158750000Y-47500000D01*
X158750000Y-73500000D01*
X158750000Y-75000000D01*
X160750000Y-73500000D01*
X160750000Y-48000000D01*
X164250000Y-48000000D01*
X164248710Y-107929104D01*
X160749992Y-107929519D01*
X160750000Y-101250000D01*
X158750000Y-100000000D01*
X158750000Y-101500000D01*
X158749992Y-107929756D01*
X145250000Y-107931356D01*
X145250000Y-109000000D01*
X145250000Y-113000000D01*
X140250000Y-113000000D01*
X140250000Y-108250000D01*
X126750000Y-108250000D01*
X126742769Y-85814258D01*
X140242769Y-85814258D01*
X140250000Y-60750000D01*
X140250000Y-55500000D01*
X138250000Y-56500000D01*
X138250000Y-60750000D01*
X131750000Y-60750000D01*
X131750000Y-48250000D01*
X138250000Y-48250000D01*
X138250000Y-52250000D01*
X140250000Y-53500000D01*
X140249312Y-48250000D01*
X140250000Y-43750000D01*
X159750000Y-43750000D01*
X159750000Y-47500000D01*
M02*
