%TF.GenerationSoftware,KiCad,Pcbnew,9.0.0*%
%TF.CreationDate,2026-01-11T16:58:41-05:00*%
%TF.ProjectId,Tiny4FSK,54696e79-3446-4534-9b2e-6b696361645f,rev?*%
%TF.SameCoordinates,Original*%
%TF.FileFunction,Soldermask,Bot*%
%TF.FilePolarity,Negative*%
%FSLAX46Y46*%
G04 Gerber Fmt 4.6, Leading zero omitted, Abs format (unit mm)*
G04 Created by KiCad (PCBNEW 9.0.0) date 2026-01-11 16:58:41*
%MOMM*%
%LPD*%
G01*
G04 APERTURE LIST*
G04 Aperture macros list*
%AMRoundRect*
0 Rectangle with rounded corners*
0 $1 Rounding radius*
0 $2 $3 $4 $5 $6 $7 $8 $9 X,Y pos of 4 corners*
0 Add a 4 corners polygon primitive as box body*
4,1,4,$2,$3,$4,$5,$6,$7,$8,$9,$2,$3,0*
0 Add four circle primitives for the rounded corners*
1,1,$1+$1,$2,$3*
1,1,$1+$1,$4,$5*
1,1,$1+$1,$6,$7*
1,1,$1+$1,$8,$9*
0 Add four rect primitives between the rounded corners*
20,1,$1+$1,$2,$3,$4,$5,0*
20,1,$1+$1,$4,$5,$6,$7,0*
20,1,$1+$1,$6,$7,$8,$9,0*
20,1,$1+$1,$8,$9,$2,$3,0*%
G04 Aperture macros list end*
%ADD10C,2.200000*%
%ADD11R,1.700000X1.700000*%
%ADD12C,0.650000*%
%ADD13O,1.000000X2.100000*%
%ADD14O,1.000000X1.800000*%
%ADD15O,1.700000X1.700000*%
%ADD16C,0.600000*%
%ADD17C,2.000000*%
%ADD18RoundRect,0.500000X0.500000X2.000000X-0.500000X2.000000X-0.500000X-2.000000X0.500000X-2.000000X0*%
%ADD19C,0.900000*%
%ADD20R,2.340000X3.960000*%
%ADD21R,5.080000X3.960000*%
%ADD22R,2.400000X0.740000*%
G04 APERTURE END LIST*
D10*
%TO.C,H4*%
X142740304Y-110576559D03*
%TD*%
D11*
%TO.C,J9*%
X155700000Y-38700000D03*
%TD*%
D10*
%TO.C,H2*%
X159600000Y-45930000D03*
%TD*%
D12*
%TO.C,J7*%
X129786776Y-101405139D03*
X135566776Y-101405139D03*
D13*
X128356776Y-100905139D03*
D14*
X128356776Y-105085139D03*
D13*
X136996776Y-100905139D03*
D14*
X136996776Y-105085139D03*
%TD*%
D11*
%TO.C,J4*%
X142250000Y-84210000D03*
D15*
X142250000Y-86750000D03*
X142250000Y-89290000D03*
X142250000Y-91830000D03*
%TD*%
D11*
%TO.C,J3*%
X160380000Y-82590000D03*
D15*
X160380000Y-85130000D03*
X160380000Y-87670000D03*
X160380000Y-90210000D03*
%TD*%
D10*
%TO.C,H1*%
X142490000Y-45750000D03*
%TD*%
D11*
%TO.C,J1*%
X142294431Y-63452157D03*
D15*
X142294431Y-60912157D03*
X142294431Y-58372157D03*
%TD*%
D16*
%TO.C,U3*%
X154385000Y-69255000D03*
X152885000Y-69255000D03*
X153635000Y-69755000D03*
X154385000Y-70255000D03*
X152885000Y-70255000D03*
%TD*%
D17*
%TO.C,AE2*%
X153911023Y-105665790D03*
D18*
X150696023Y-105665790D03*
X157126023Y-105665790D03*
%TD*%
D11*
%TO.C,J2*%
X160400000Y-58580000D03*
D15*
X160400000Y-61120000D03*
X160400000Y-63660000D03*
X160400000Y-66200000D03*
X160400000Y-68740000D03*
X160400000Y-71280000D03*
X160400000Y-73820000D03*
X160400000Y-76360000D03*
X160400000Y-78900000D03*
%TD*%
D11*
%TO.C,J5*%
X136241300Y-87746215D03*
D15*
X133701300Y-87746215D03*
X131161300Y-87746215D03*
X128621300Y-87746215D03*
%TD*%
D11*
%TO.C,J6*%
X160380000Y-94065000D03*
D15*
X160380000Y-96605000D03*
X160380000Y-99145000D03*
X160380000Y-101685000D03*
X160380000Y-104225000D03*
%TD*%
D19*
%TO.C,SW1*%
X142189224Y-68250085D03*
X142189224Y-71250085D03*
%TD*%
D20*
%TO.C,BT1*%
X150200000Y-44695000D03*
D21*
X150200000Y-57545000D03*
X150200000Y-87850000D03*
D20*
X150200000Y-100700000D03*
%TD*%
D22*
%TO.C,J8*%
X146750000Y-101250000D03*
X142850000Y-101250000D03*
X146750000Y-102520000D03*
X142850000Y-102520000D03*
X146750000Y-103790000D03*
X142850000Y-103790000D03*
X146750000Y-105060000D03*
X142850000Y-105060000D03*
X146750000Y-106330000D03*
X142850000Y-106330000D03*
%TD*%
M02*
