M48
; DRILL file {KiCad 8.0.1} date 2024-07-19T12:33:10-0400
; FORMAT={-:-/ absolute / inch / decimal}
; #@! TF.CreationDate,2024-07-19T12:33:10-04:00
; #@! TF.GenerationSoftware,Kicad,Pcbnew,8.0.1
; #@! TF.FileFunction,Plated,1,4,PTH
FMAT,2
INCH
; #@! TA.AperFunction,Plated,PTH,ComponentDrill
T1C0.0079
; #@! TA.AperFunction,Plated,PTH,ViaDrill
T2C0.0118
; #@! TA.AperFunction,Plated,PTH,ComponentDrill
T3C0.0118
; #@! TA.AperFunction,Plated,PTH,ViaDrill
T4C0.0157
; #@! TA.AperFunction,Plated,PTH,ComponentDrill
T5C0.0236
; #@! TA.AperFunction,Plated,PTH,ComponentDrill
T6C0.0394
; #@! TA.AperFunction,Plated,PTH,ComponentDrill
T7C0.0472
%
G90
G05
T1
X5.9646Y-3.5827
X5.9646Y-3.6614
X6.0433Y-3.5827
X6.0433Y-3.6614
T2
X5.0295Y-3.5236
X5.1575Y-3.7303
X5.1607Y-3.9954
X5.2362Y-3.8681
X5.3248Y-3.8681
X5.3937Y-3.7205
X5.3937Y-3.8976
X5.3989Y-3.64
X5.4035Y-3.5236
X5.4035Y-3.5728
X5.4232Y-3.7795
T3
X6.0191Y-2.7266
X6.0191Y-2.7659
X6.0486Y-2.7463
X6.0781Y-2.7266
X6.0781Y-2.7659
T4
X5.0336Y-3.8714
X5.0689Y-3.5827
X5.0849Y-3.8272
X5.0863Y-3.74
X5.0984Y-4.0453
X5.1142Y-3.6911
X5.128Y-4.0846
X5.1772Y-4.0846
X5.1911Y-3.8221
X5.1921Y-3.8732
X5.1969Y-4.0177
X5.2165Y-2.2441
X5.2264Y-4.0846
X5.2383Y-4.0098
X5.2633Y-1.9198
X5.2756Y-4.0846
X5.2943Y-2.2539
X5.3098Y-2.0569
X5.315Y-2.0079
X5.3248Y-4.0846
X5.3251Y-3.7055
X5.3445Y-4.0453
X5.4823Y-2.1457
X5.5105Y-4.2434
X5.5217Y-2.1457
X5.5413Y-1.9685
X5.5413Y-2.2441
X5.5413Y-2.5492
X5.5413Y-4.2224
X5.5454Y-3.2152
X5.5512Y-1.9193
X5.5512Y-2.687
X5.5512Y-2.8051
X5.5512Y-2.9626
X5.5512Y-3.7598
X5.5532Y-3.1684
X5.561Y-2.1654
X5.5806Y-1.965
X5.5826Y-3.1103
X5.5906Y-1.9193
X5.6004Y-2.7461
X5.6102Y-3.2293
X5.6102Y-3.7648
X5.6271Y-3.1526
X5.6299Y-1.9193
X5.6299Y-3.878
X5.6299Y-3.9272
X5.6503Y-2.9817
X5.6693Y-1.9193
X5.6693Y-2.2441
X5.6693Y-3.2263
X5.6703Y-2.9409
X5.6978Y-4.1819
X5.6988Y-3.286
X5.6995Y-2.1074
X5.7087Y-1.9193
X5.7092Y-3.3558
X5.7136Y-3.4941
X5.7184Y-3.224
X5.7212Y-3.3183
X5.7313Y-3.5294
X5.7313Y-3.6731
X5.7367Y-3.8386
X5.7367Y-3.9173
X5.7382Y-2.815
X5.7382Y-2.8642
X5.74Y-4.2252
X5.7421Y-3.0364
X5.748Y-1.9193
X5.7731Y-3.4601
X5.7776Y-1.9783
X5.7776Y-2.1555
X5.7776Y-2.3819
X5.7874Y-1.9193
X5.8021Y-3.8739
X5.8197Y-3.303
X5.8198Y-3.2628
X5.8258Y-3.0065
X5.8268Y-1.939
X5.8303Y-3.5622
X5.8465Y-2.313
X5.8465Y-2.8543
X5.8474Y-2.2756
X5.8518Y-2.2334
X5.8522Y-4.184
X5.8542Y-3.2437
X5.8563Y-2.9528
X5.8574Y-3.6193
X5.8661Y-1.939
X5.8677Y-3.5743
X5.8696Y-3.6767
X5.8719Y-2.7802
X5.8816Y-3.5164
X5.8858Y-3.8091
X5.8877Y-3.9689
X5.9055Y-1.939
X5.9137Y-4.0
X5.9141Y-3.9301
X5.9147Y-3.3566
X5.9154Y-2.126
X5.9154Y-2.8937
X5.9272Y-3.6882
X5.9419Y-3.9676
X5.9449Y-1.939
X5.9547Y-3.0413
X5.9582Y-3.3384
X5.9589Y-2.186
X5.9646Y-2.3228
X5.9648Y-2.8514
X5.9744Y-3.188
X5.9843Y-1.939
X5.9843Y-3.8671
X5.9941Y-2.2146
X5.9941Y-2.9429
X5.9944Y-3.354
X5.9961Y-3.2608
X6.0039Y-2.2736
X6.0135Y-3.1925
X6.0138Y-3.9163
X6.0138Y-3.9567
X6.0179Y-3.7401
X6.0236Y-1.9193
X6.0335Y-2.1358
X6.0361Y-3.8839
X6.039Y-3.5031
X6.0413Y-3.2204
X6.0433Y-2.2933
X6.0531Y-2.9823
X6.0531Y-3.7795
X6.0551Y-3.334
X6.063Y-1.9193
X6.067Y-2.8921
X6.0728Y-3.1201
X6.0771Y-2.4803
X6.0771Y-2.6183
X6.0779Y-2.5224
X6.0781Y-3.3999
X6.0811Y-3.074
X6.0827Y-2.185
X6.0827Y-2.2441
X6.084Y-2.5691
X6.0925Y-2.3425
X6.0936Y-3.5405
X6.1024Y-3.8878
X6.1044Y-3.7096
X6.1079Y-3.0452
X6.1122Y-2.1063
X6.1176Y-3.4446
X6.122Y-2.2835
X6.1319Y-2.2343
X6.1375Y-3.0175
X6.1614Y-2.1358
X6.1614Y-2.3228
X6.1669Y-2.8518
X6.1713Y-2.2736
X6.177Y-2.8051
X6.1811Y-1.9193
X6.1811Y-2.6673
X6.1811Y-3.1201
X6.1811Y-3.1988
X6.1811Y-3.2677
X6.1855Y-3.4449
X6.1909Y-1.9587
X6.1909Y-3.4941
X6.1968Y-2.4946
X6.1968Y-2.5358
X6.1968Y-2.5769
X6.1968Y-2.6181
X6.2106Y-2.0965
X6.2106Y-2.1752
X6.2106Y-3.3848
X6.2205Y-1.9193
X6.25Y-3.3661
X6.25Y-3.4449
X6.25Y-3.5236
X6.25Y-3.6024
X6.25Y-3.6811
X6.25Y-3.7598
X6.25Y-4.0059
X6.25Y-4.0846
X6.25Y-4.1634
X6.2854Y-3.0691
X6.2894Y-2.9589
X6.2904Y-3.9189
X6.3583Y-1.9193
X6.3878Y-2.0177
X6.3878Y-2.0965
X6.3878Y-2.1752
X6.3878Y-2.2539
X6.3878Y-2.3327
X6.3878Y-2.4114
X6.3878Y-2.4803
X6.3878Y-2.5492
X6.3878Y-2.628
X6.3878Y-2.6969
X6.3878Y-4.2224
X6.4469Y-1.9783
X6.4469Y-2.0571
X6.4469Y-2.1358
X6.4469Y-2.2146
X6.4469Y-2.2933
X6.4469Y-2.372
X6.4469Y-2.4409
X6.4469Y-2.5098
X6.4469Y-2.5886
X6.4469Y-2.6673
T6
X5.0638Y-3.4546
X5.1638Y-3.4546
X5.2638Y-3.4546
X5.3638Y-3.4546
X5.6004Y-3.3154
X5.6004Y-3.4154
X5.6004Y-3.5154
X5.6004Y-3.6154
X5.6021Y-2.2981
X5.6021Y-2.3981
X5.6021Y-2.4981
X6.3878Y-2.8051
X6.3878Y-2.9051
X6.3878Y-3.0051
X6.3878Y-3.1051
X6.3878Y-3.2559
X6.3878Y-3.3559
X6.3878Y-3.4559
X6.3878Y-3.5559
X6.3878Y-3.7077
X6.3878Y-3.8077
X6.3878Y-3.9077
X6.3878Y-4.0077
X6.3878Y-4.1077
T7
X5.9329Y-4.1601
X6.0595Y-4.1601
X6.1861Y-4.1601
T5
G00X5.0534Y-3.951
M15
G01X5.0534Y-3.9943
M16
G05
G00X5.0534Y-4.1215
M15
G01X5.0534Y-4.153
M16
G05
G00X5.3936Y-3.951
M15
G01X5.3936Y-3.9943
M16
G05
G00X5.3936Y-4.1215
M15
G01X5.3936Y-4.153
M16
G05
M30
