%TF.GenerationSoftware,KiCad,Pcbnew,8.0.1*%
%TF.CreationDate,2024-07-19T12:33:08-04:00*%
%TF.ProjectId,Tiny4FSK,54696e79-3446-4534-9b2e-6b696361645f,rev?*%
%TF.SameCoordinates,Original*%
%TF.FileFunction,Legend,Top*%
%TF.FilePolarity,Positive*%
%FSLAX46Y46*%
G04 Gerber Fmt 4.6, Leading zero omitted, Abs format (unit mm)*
G04 Created by KiCad (PCBNEW 8.0.1) date 2024-07-19 12:33:08*
%MOMM*%
%LPD*%
G01*
G04 APERTURE LIST*
%ADD10C,0.100000*%
%ADD11C,0.175000*%
%ADD12C,0.152500*%
%ADD13C,0.150000*%
%ADD14C,0.120000*%
%ADD15C,0.127000*%
%ADD16C,0.500000*%
%ADD17C,0.152000*%
%ADD18C,0.254000*%
%ADD19C,0.300000*%
%ADD20C,0.200000*%
G04 APERTURE END LIST*
D10*
X132762172Y-59050000D02*
X132762172Y-59383333D01*
X132762172Y-59383333D02*
X132062172Y-59383333D01*
X132762172Y-58816666D02*
X132062172Y-58816666D01*
X132062172Y-58816666D02*
X132762172Y-58416666D01*
X132762172Y-58416666D02*
X132062172Y-58416666D01*
X132562172Y-58116666D02*
X132562172Y-57783333D01*
X132762172Y-58183333D02*
X132062172Y-57950000D01*
X132062172Y-57950000D02*
X132762172Y-57716666D01*
X133689133Y-60516665D02*
X133689133Y-60183332D01*
X133889133Y-60583332D02*
X133189133Y-60349999D01*
X133189133Y-60349999D02*
X133889133Y-60116665D01*
X133889133Y-59583332D02*
X133189133Y-59583332D01*
X133855800Y-59583332D02*
X133889133Y-59649999D01*
X133889133Y-59649999D02*
X133889133Y-59783332D01*
X133889133Y-59783332D02*
X133855800Y-59849999D01*
X133855800Y-59849999D02*
X133822466Y-59883332D01*
X133822466Y-59883332D02*
X133755800Y-59916665D01*
X133755800Y-59916665D02*
X133555800Y-59916665D01*
X133555800Y-59916665D02*
X133489133Y-59883332D01*
X133489133Y-59883332D02*
X133455800Y-59849999D01*
X133455800Y-59849999D02*
X133422466Y-59783332D01*
X133422466Y-59783332D02*
X133422466Y-59649999D01*
X133422466Y-59649999D02*
X133455800Y-59583332D01*
X133889133Y-58949999D02*
X133189133Y-58949999D01*
X133855800Y-58949999D02*
X133889133Y-59016666D01*
X133889133Y-59016666D02*
X133889133Y-59149999D01*
X133889133Y-59149999D02*
X133855800Y-59216666D01*
X133855800Y-59216666D02*
X133822466Y-59249999D01*
X133822466Y-59249999D02*
X133755800Y-59283332D01*
X133755800Y-59283332D02*
X133555800Y-59283332D01*
X133555800Y-59283332D02*
X133489133Y-59249999D01*
X133489133Y-59249999D02*
X133455800Y-59216666D01*
X133455800Y-59216666D02*
X133422466Y-59149999D01*
X133422466Y-59149999D02*
X133422466Y-59016666D01*
X133422466Y-59016666D02*
X133455800Y-58949999D01*
X133622466Y-58616666D02*
X133622466Y-58083333D01*
X133189133Y-57616666D02*
X133189133Y-57483332D01*
X133189133Y-57483332D02*
X133222466Y-57416666D01*
X133222466Y-57416666D02*
X133289133Y-57349999D01*
X133289133Y-57349999D02*
X133422466Y-57316666D01*
X133422466Y-57316666D02*
X133655800Y-57316666D01*
X133655800Y-57316666D02*
X133789133Y-57349999D01*
X133789133Y-57349999D02*
X133855800Y-57416666D01*
X133855800Y-57416666D02*
X133889133Y-57483332D01*
X133889133Y-57483332D02*
X133889133Y-57616666D01*
X133889133Y-57616666D02*
X133855800Y-57683332D01*
X133855800Y-57683332D02*
X133789133Y-57749999D01*
X133789133Y-57749999D02*
X133655800Y-57783332D01*
X133655800Y-57783332D02*
X133422466Y-57783332D01*
X133422466Y-57783332D02*
X133289133Y-57749999D01*
X133289133Y-57749999D02*
X133222466Y-57683332D01*
X133222466Y-57683332D02*
X133189133Y-57616666D01*
X133422466Y-57016666D02*
X133889133Y-57016666D01*
X133489133Y-57016666D02*
X133455800Y-56983333D01*
X133455800Y-56983333D02*
X133422466Y-56916666D01*
X133422466Y-56916666D02*
X133422466Y-56816666D01*
X133422466Y-56816666D02*
X133455800Y-56749999D01*
X133455800Y-56749999D02*
X133522466Y-56716666D01*
X133522466Y-56716666D02*
X133889133Y-56716666D01*
D11*
X163121900Y-65251535D02*
X163155233Y-65151535D01*
X163155233Y-65151535D02*
X163155233Y-64984869D01*
X163155233Y-64984869D02*
X163121900Y-64918202D01*
X163121900Y-64918202D02*
X163088566Y-64884869D01*
X163088566Y-64884869D02*
X163021900Y-64851535D01*
X163021900Y-64851535D02*
X162955233Y-64851535D01*
X162955233Y-64851535D02*
X162888566Y-64884869D01*
X162888566Y-64884869D02*
X162855233Y-64918202D01*
X162855233Y-64918202D02*
X162821900Y-64984869D01*
X162821900Y-64984869D02*
X162788566Y-65118202D01*
X162788566Y-65118202D02*
X162755233Y-65184869D01*
X162755233Y-65184869D02*
X162721900Y-65218202D01*
X162721900Y-65218202D02*
X162655233Y-65251535D01*
X162655233Y-65251535D02*
X162588566Y-65251535D01*
X162588566Y-65251535D02*
X162521900Y-65218202D01*
X162521900Y-65218202D02*
X162488566Y-65184869D01*
X162488566Y-65184869D02*
X162455233Y-65118202D01*
X162455233Y-65118202D02*
X162455233Y-64951535D01*
X162455233Y-64951535D02*
X162488566Y-64851535D01*
X163155233Y-64551535D02*
X162455233Y-64551535D01*
X162455233Y-64551535D02*
X163155233Y-64151535D01*
X163155233Y-64151535D02*
X162455233Y-64151535D01*
X162955233Y-63851535D02*
X162955233Y-63518202D01*
X163155233Y-63918202D02*
X162455233Y-63684869D01*
X162455233Y-63684869D02*
X163155233Y-63451535D01*
X163155233Y-63218202D02*
X162455233Y-63218202D01*
X162455233Y-63218202D02*
X162455233Y-62951535D01*
X162455233Y-62951535D02*
X162488566Y-62884869D01*
X162488566Y-62884869D02*
X162521900Y-62851535D01*
X162521900Y-62851535D02*
X162588566Y-62818202D01*
X162588566Y-62818202D02*
X162688566Y-62818202D01*
X162688566Y-62818202D02*
X162755233Y-62851535D01*
X162755233Y-62851535D02*
X162788566Y-62884869D01*
X162788566Y-62884869D02*
X162821900Y-62951535D01*
X162821900Y-62951535D02*
X162821900Y-63218202D01*
X162455233Y-61851536D02*
X162455233Y-61718202D01*
X162455233Y-61718202D02*
X162488566Y-61651536D01*
X162488566Y-61651536D02*
X162555233Y-61584869D01*
X162555233Y-61584869D02*
X162688566Y-61551536D01*
X162688566Y-61551536D02*
X162921900Y-61551536D01*
X162921900Y-61551536D02*
X163055233Y-61584869D01*
X163055233Y-61584869D02*
X163121900Y-61651536D01*
X163121900Y-61651536D02*
X163155233Y-61718202D01*
X163155233Y-61718202D02*
X163155233Y-61851536D01*
X163155233Y-61851536D02*
X163121900Y-61918202D01*
X163121900Y-61918202D02*
X163055233Y-61984869D01*
X163055233Y-61984869D02*
X162921900Y-62018202D01*
X162921900Y-62018202D02*
X162688566Y-62018202D01*
X162688566Y-62018202D02*
X162555233Y-61984869D01*
X162555233Y-61984869D02*
X162488566Y-61918202D01*
X162488566Y-61918202D02*
X162455233Y-61851536D01*
X162788566Y-61018203D02*
X162788566Y-61251536D01*
X163155233Y-61251536D02*
X162455233Y-61251536D01*
X162455233Y-61251536D02*
X162455233Y-60918203D01*
X162788566Y-60418203D02*
X162788566Y-60651536D01*
X163155233Y-60651536D02*
X162455233Y-60651536D01*
X162455233Y-60651536D02*
X162455233Y-60318203D01*
X162455233Y-59618203D02*
X162455233Y-59218203D01*
X163155233Y-59418203D02*
X162455233Y-59418203D01*
X162455233Y-58851537D02*
X162455233Y-58718203D01*
X162455233Y-58718203D02*
X162488566Y-58651537D01*
X162488566Y-58651537D02*
X162555233Y-58584870D01*
X162555233Y-58584870D02*
X162688566Y-58551537D01*
X162688566Y-58551537D02*
X162921900Y-58551537D01*
X162921900Y-58551537D02*
X163055233Y-58584870D01*
X163055233Y-58584870D02*
X163121900Y-58651537D01*
X163121900Y-58651537D02*
X163155233Y-58718203D01*
X163155233Y-58718203D02*
X163155233Y-58851537D01*
X163155233Y-58851537D02*
X163121900Y-58918203D01*
X163121900Y-58918203D02*
X163055233Y-58984870D01*
X163055233Y-58984870D02*
X162921900Y-59018203D01*
X162921900Y-59018203D02*
X162688566Y-59018203D01*
X162688566Y-59018203D02*
X162555233Y-58984870D01*
X162555233Y-58984870D02*
X162488566Y-58918203D01*
X162488566Y-58918203D02*
X162455233Y-58851537D01*
X163155233Y-57318204D02*
X162821900Y-57551537D01*
X163155233Y-57718204D02*
X162455233Y-57718204D01*
X162455233Y-57718204D02*
X162455233Y-57451537D01*
X162455233Y-57451537D02*
X162488566Y-57384871D01*
X162488566Y-57384871D02*
X162521900Y-57351537D01*
X162521900Y-57351537D02*
X162588566Y-57318204D01*
X162588566Y-57318204D02*
X162688566Y-57318204D01*
X162688566Y-57318204D02*
X162755233Y-57351537D01*
X162755233Y-57351537D02*
X162788566Y-57384871D01*
X162788566Y-57384871D02*
X162821900Y-57451537D01*
X162821900Y-57451537D02*
X162821900Y-57718204D01*
X162788566Y-57018204D02*
X162788566Y-56784871D01*
X163155233Y-56684871D02*
X163155233Y-57018204D01*
X163155233Y-57018204D02*
X162455233Y-57018204D01*
X162455233Y-57018204D02*
X162455233Y-56684871D01*
X163155233Y-56384871D02*
X162455233Y-56384871D01*
X162455233Y-56384871D02*
X162955233Y-56151538D01*
X162955233Y-56151538D02*
X162455233Y-55918204D01*
X162455233Y-55918204D02*
X163155233Y-55918204D01*
X162455233Y-55451538D02*
X162455233Y-55318204D01*
X162455233Y-55318204D02*
X162488566Y-55251538D01*
X162488566Y-55251538D02*
X162555233Y-55184871D01*
X162555233Y-55184871D02*
X162688566Y-55151538D01*
X162688566Y-55151538D02*
X162921900Y-55151538D01*
X162921900Y-55151538D02*
X163055233Y-55184871D01*
X163055233Y-55184871D02*
X163121900Y-55251538D01*
X163121900Y-55251538D02*
X163155233Y-55318204D01*
X163155233Y-55318204D02*
X163155233Y-55451538D01*
X163155233Y-55451538D02*
X163121900Y-55518204D01*
X163121900Y-55518204D02*
X163055233Y-55584871D01*
X163055233Y-55584871D02*
X162921900Y-55618204D01*
X162921900Y-55618204D02*
X162688566Y-55618204D01*
X162688566Y-55618204D02*
X162555233Y-55584871D01*
X162555233Y-55584871D02*
X162488566Y-55518204D01*
X162488566Y-55518204D02*
X162455233Y-55451538D01*
X162455233Y-54951538D02*
X163155233Y-54718205D01*
X163155233Y-54718205D02*
X162455233Y-54484871D01*
X162788566Y-54251538D02*
X162788566Y-54018205D01*
X163155233Y-53918205D02*
X163155233Y-54251538D01*
X163155233Y-54251538D02*
X162455233Y-54251538D01*
X162455233Y-54251538D02*
X162455233Y-53918205D01*
D12*
%TO.C,U9*%
X134254500Y-49923500D02*
X134254500Y-51076000D01*
X132502000Y-49923500D02*
X132502000Y-51076000D01*
D13*
X133953000Y-49549500D02*
G75*
G02*
X133803000Y-49549500I-75000J0D01*
G01*
X133803000Y-49549500D02*
G75*
G02*
X133953000Y-49549500I75000J0D01*
G01*
D14*
%TO.C,C29*%
X133313167Y-54123695D02*
X133313167Y-53831161D01*
X134333167Y-54123695D02*
X134333167Y-53831161D01*
D15*
%TO.C,AE1*%
X145019438Y-44311339D02*
X145519438Y-44311339D01*
X145019438Y-47311339D02*
X145019438Y-44311339D01*
X145519438Y-44311339D02*
X145519438Y-47311339D01*
X145519438Y-44311339D02*
X154519438Y-44311339D01*
X145519438Y-47311339D02*
X145019438Y-47311339D01*
X154519438Y-44311339D02*
X154519438Y-47311339D01*
X154519438Y-44311339D02*
X155019438Y-44311339D01*
X154519438Y-47311339D02*
X145519438Y-47311339D01*
X155019438Y-44311339D02*
X155019438Y-47311339D01*
X155019438Y-47311339D02*
X154519438Y-47311339D01*
D16*
X153269438Y-45811339D02*
G75*
G02*
X152769438Y-45811339I-250000J0D01*
G01*
X152769438Y-45811339D02*
G75*
G02*
X153269438Y-45811339I250000J0D01*
G01*
D14*
%TO.C,L8*%
X132955000Y-53865200D02*
X132955000Y-53664800D01*
X132235000Y-53865200D02*
X132235000Y-53664800D01*
%TO.C,L5*%
X155640000Y-96298550D02*
X155640000Y-96498950D01*
X156360000Y-96298550D02*
X156360000Y-96498950D01*
%TO.C,C11*%
X149797756Y-76734782D02*
X149566086Y-76734782D01*
X149797756Y-77454782D02*
X149566086Y-77454782D01*
D12*
%TO.C,U4*%
X142718000Y-76349000D02*
X146779500Y-76321500D01*
X142718000Y-78000000D02*
X142718000Y-76349000D01*
X142718000Y-79651000D02*
X142718000Y-78000000D01*
X146779500Y-76321500D02*
X146779500Y-79651500D01*
X146779500Y-79651500D02*
X142718000Y-79651000D01*
D17*
X147036000Y-76095000D02*
X146528000Y-76095000D01*
X147036000Y-76603000D02*
X147036000Y-76095000D01*
D14*
%TO.C,J7*%
X128006776Y-103910139D02*
X128006776Y-102210139D01*
X137346776Y-103910139D02*
X137346776Y-102210139D01*
%TO.C,FB1*%
X127342500Y-97619724D02*
X127342500Y-97110276D01*
X128387500Y-97619724D02*
X128387500Y-97110276D01*
%TO.C,R5*%
X145575928Y-74319191D02*
X145911170Y-74319191D01*
X145575928Y-75079191D02*
X145911170Y-75079191D01*
%TO.C,J4*%
X140920000Y-82880000D02*
X142250000Y-82880000D01*
X140920000Y-84210000D02*
X140920000Y-82880000D01*
X140920000Y-85480000D02*
X140920000Y-93160000D01*
X140920000Y-85480000D02*
X143580000Y-85480000D01*
X140920000Y-93160000D02*
X143580000Y-93160000D01*
X143580000Y-85480000D02*
X143580000Y-93160000D01*
%TO.C,C16*%
X156660822Y-91584334D02*
X156660822Y-91352664D01*
X157380822Y-91584334D02*
X157380822Y-91352664D01*
%TO.C,JP1*%
X144415249Y-62203719D02*
X146415249Y-62203719D01*
X144415249Y-65003719D02*
X144415249Y-62203719D01*
X146415249Y-62203719D02*
X146415249Y-65003719D01*
X146415249Y-65003719D02*
X144415249Y-65003719D01*
%TO.C,J3*%
X160920000Y-81370000D02*
X162250000Y-81370000D01*
X160920000Y-82700000D02*
X160920000Y-81370000D01*
X160920000Y-83970000D02*
X160920000Y-91650000D01*
X160920000Y-83970000D02*
X163580000Y-83970000D01*
X160920000Y-91650000D02*
X163580000Y-91650000D01*
X163580000Y-83970000D02*
X163580000Y-91650000D01*
%TO.C,C3*%
X145890000Y-58365835D02*
X145890000Y-58134165D01*
X146610000Y-58365835D02*
X146610000Y-58134165D01*
%TO.C,C19*%
X136396627Y-93231364D02*
X136396627Y-93753868D01*
X137866627Y-93231364D02*
X137866627Y-93753868D01*
%TO.C,C20*%
X154503990Y-94856644D02*
X154272320Y-94856644D01*
X154503990Y-95576644D02*
X154272320Y-95576644D01*
%TO.C,C7*%
X148635000Y-69608733D02*
X148635000Y-69901267D01*
X149655000Y-69608733D02*
X149655000Y-69901267D01*
%TO.C,L7*%
X155640000Y-101371050D02*
X155640000Y-101571450D01*
X156360000Y-101371050D02*
X156360000Y-101571450D01*
%TO.C,L1*%
X154838785Y-49352967D02*
X155039185Y-49352967D01*
X154838785Y-50072967D02*
X155039185Y-50072967D01*
%TO.C,U7*%
X132615000Y-89730000D02*
X135195000Y-89730000D01*
X135195000Y-90710000D02*
X135195000Y-89730000D01*
X135195000Y-93470000D02*
X135195000Y-94450000D01*
X135195000Y-94450000D02*
X132475000Y-94450000D01*
X132065000Y-89880000D02*
X131825000Y-89550000D01*
X132305000Y-89550000D01*
X132065000Y-89880000D01*
G36*
X132065000Y-89880000D02*
G01*
X131825000Y-89550000D01*
X132305000Y-89550000D01*
X132065000Y-89880000D01*
G37*
%TO.C,R2*%
X143039693Y-53661843D02*
X142704451Y-53661843D01*
X143039693Y-54421843D02*
X142704451Y-54421843D01*
%TO.C,C14*%
X156396267Y-86990000D02*
X156103733Y-86990000D01*
X156396267Y-88010000D02*
X156103733Y-88010000D01*
%TO.C,C6*%
X150035000Y-69389165D02*
X150035000Y-69620835D01*
X150755000Y-69389165D02*
X150755000Y-69620835D01*
%TO.C,U6*%
X150390000Y-89890000D02*
X150390000Y-90615000D01*
X150390000Y-94110000D02*
X150390000Y-93385000D01*
X151115000Y-89890000D02*
X150390000Y-89890000D01*
X151115000Y-94110000D02*
X150390000Y-94110000D01*
X153885000Y-89890000D02*
X154610000Y-89890000D01*
X153885000Y-94110000D02*
X154310000Y-94110000D01*
X154610000Y-89890000D02*
X154610000Y-90615000D01*
X154610000Y-93385000D02*
X154610000Y-93870000D01*
X154850000Y-94440000D02*
X154370000Y-94440000D01*
X154610000Y-94110000D01*
X154850000Y-94440000D01*
G36*
X154850000Y-94440000D02*
G01*
X154370000Y-94440000D01*
X154610000Y-94110000D01*
X154850000Y-94440000D01*
G37*
%TO.C,C2*%
X143010396Y-54658579D02*
X142778726Y-54658579D01*
X143010396Y-55378579D02*
X142778726Y-55378579D01*
%TO.C,C18*%
X129571512Y-92819148D02*
X129571512Y-92587478D01*
X130291512Y-92819148D02*
X130291512Y-92587478D01*
D18*
%TO.C,U2*%
X146668759Y-51383796D02*
X146971759Y-51383796D01*
X146668759Y-61543796D02*
X146668759Y-51383796D01*
X146971759Y-61543796D02*
X146668759Y-61543796D01*
X157033759Y-51383796D02*
X157082759Y-51383796D01*
X157082759Y-51383796D02*
X157082759Y-61543796D01*
X157082759Y-61543796D02*
X157033759Y-61543796D01*
D19*
X146852759Y-62363796D02*
G75*
G02*
X146552759Y-62363796I-150000J0D01*
G01*
X146552759Y-62363796D02*
G75*
G02*
X146852759Y-62363796I150000J0D01*
G01*
D14*
%TO.C,R12*%
X134512922Y-97432619D02*
X134058794Y-97432619D01*
X134512922Y-98902619D02*
X134058794Y-98902619D01*
%TO.C,R9*%
X156477500Y-83745276D02*
X156477500Y-84254724D01*
X157522500Y-83745276D02*
X157522500Y-84254724D01*
%TO.C,R3*%
X152806714Y-72051865D02*
X153141956Y-72051865D01*
X152806714Y-72811865D02*
X153141956Y-72811865D01*
%TO.C,C21*%
X150877173Y-95204505D02*
X151108843Y-95204505D01*
X150877173Y-95924505D02*
X151108843Y-95924505D01*
%TO.C,C25*%
X130612927Y-97826046D02*
X130381257Y-97826046D01*
X130612927Y-98546046D02*
X130381257Y-98546046D01*
%TO.C,D1*%
X142790000Y-104390000D02*
X142790000Y-107250000D01*
X144710000Y-104390000D02*
X142790000Y-104390000D01*
X144710000Y-107250000D02*
X144710000Y-104390000D01*
%TO.C,J1*%
X140964431Y-62182157D02*
X140964431Y-57042157D01*
X143624431Y-57042157D02*
X140964431Y-57042157D01*
X143624431Y-62182157D02*
X140964431Y-62182157D01*
X143624431Y-62182157D02*
X143624431Y-57042157D01*
X143624431Y-63452157D02*
X143624431Y-64782157D01*
X143624431Y-64782157D02*
X142294431Y-64782157D01*
%TO.C,R1*%
X144129334Y-51421728D02*
X144129334Y-51756970D01*
X144889334Y-51421728D02*
X144889334Y-51756970D01*
%TO.C,D3*%
X146790000Y-104390000D02*
X146790000Y-107250000D01*
X148710000Y-104390000D02*
X146790000Y-104390000D01*
X148710000Y-107250000D02*
X148710000Y-104390000D01*
%TO.C,U3*%
X152010000Y-68130000D02*
X152010000Y-69105000D01*
X152010000Y-68130000D02*
X152235000Y-68130000D01*
X152010000Y-70405000D02*
X152010000Y-71380000D01*
X152235000Y-71380000D02*
X152010000Y-71380000D01*
X155035000Y-71380000D02*
X155260000Y-71380000D01*
X155260000Y-68130000D02*
X155260000Y-69105000D01*
X155260000Y-70405000D02*
X155260000Y-71380000D01*
%TO.C,R8*%
X156477500Y-80504724D02*
X156477500Y-79995276D01*
X157522500Y-80504724D02*
X157522500Y-79995276D01*
%TO.C,C12*%
X141288491Y-78284866D02*
X141288491Y-77992332D01*
X142308491Y-78284866D02*
X142308491Y-77992332D01*
%TO.C,L3*%
X156617222Y-89507029D02*
X156416822Y-89507029D01*
X156617222Y-90227029D02*
X156416822Y-90227029D01*
%TO.C,R13*%
X145236962Y-102359739D02*
X145236962Y-101850291D01*
X146281962Y-102359739D02*
X146281962Y-101850291D01*
%TO.C,C23*%
X147365835Y-97140000D02*
X147134165Y-97140000D01*
X147365835Y-97860000D02*
X147134165Y-97860000D01*
%TO.C,R15*%
X141227500Y-105995276D02*
X141227500Y-106504724D01*
X142272500Y-105995276D02*
X142272500Y-106504724D01*
%TO.C,J2*%
X160920000Y-69920000D02*
X162250000Y-69920000D01*
X160920000Y-71250000D02*
X160920000Y-69920000D01*
X160920000Y-72520000D02*
X160920000Y-80200000D01*
X160920000Y-72520000D02*
X163580000Y-72520000D01*
X160920000Y-80200000D02*
X163580000Y-80200000D01*
X163580000Y-72520000D02*
X163580000Y-80200000D01*
%TO.C,C22*%
X130366432Y-95832151D02*
X130598102Y-95832151D01*
X130366432Y-96552151D02*
X130598102Y-96552151D01*
%TO.C,R10*%
X134499393Y-95482676D02*
X134045265Y-95482676D01*
X134499393Y-96952676D02*
X134045265Y-96952676D01*
%TO.C,R11*%
X136731918Y-97433201D02*
X136731918Y-97097959D01*
X137491918Y-97433201D02*
X137491918Y-97097959D01*
%TO.C,J5*%
X127291300Y-86416215D02*
X127291300Y-89076215D01*
X134971300Y-86416215D02*
X127291300Y-86416215D01*
X134971300Y-86416215D02*
X134971300Y-89076215D01*
X134971300Y-89076215D02*
X127291300Y-89076215D01*
X136241300Y-86416215D02*
X137571300Y-86416215D01*
X137571300Y-86416215D02*
X137571300Y-87746215D01*
%TO.C,C1*%
X144257423Y-54535770D02*
X144257423Y-54243236D01*
X145277423Y-54535770D02*
X145277423Y-54243236D01*
%TO.C,C26*%
X147134165Y-99140000D02*
X147365835Y-99140000D01*
X147134165Y-99860000D02*
X147365835Y-99860000D01*
D10*
%TO.C,U1*%
X141060220Y-50754470D02*
X141210220Y-50754470D01*
X141060220Y-50904470D02*
X141060220Y-50754470D01*
X141210220Y-53454470D02*
X140960220Y-53454470D01*
X143760220Y-50754470D02*
X143610220Y-50754470D01*
X143760220Y-50754470D02*
X143760220Y-50904470D01*
X143760220Y-53454470D02*
X143610220Y-53454470D01*
X143770220Y-53454470D02*
X143770220Y-53304470D01*
D14*
%TO.C,J6*%
X160920000Y-92845000D02*
X162250000Y-92845000D01*
X160920000Y-94175000D02*
X160920000Y-92845000D01*
X160920000Y-95445000D02*
X160920000Y-105665000D01*
X160920000Y-95445000D02*
X163580000Y-95445000D01*
X160920000Y-105665000D02*
X163580000Y-105665000D01*
X163580000Y-95445000D02*
X163580000Y-105665000D01*
%TO.C,D2*%
X144790000Y-104390000D02*
X144790000Y-107250000D01*
X146710000Y-104390000D02*
X144790000Y-104390000D01*
X146710000Y-107250000D02*
X146710000Y-104390000D01*
%TO.C,C4*%
X155248733Y-64745000D02*
X155541267Y-64745000D01*
X155248733Y-65765000D02*
X155541267Y-65765000D01*
%TO.C,C24*%
X154365835Y-97361250D02*
X154134165Y-97361250D01*
X154365835Y-98081250D02*
X154134165Y-98081250D01*
D10*
%TO.C,L2*%
X152915000Y-65005000D02*
X152915000Y-65005000D01*
X153015000Y-65005000D02*
X153015000Y-65005000D01*
X152915000Y-65005000D02*
G75*
G02*
X153015000Y-65005000I50000J0D01*
G01*
X153015000Y-65005000D02*
G75*
G02*
X152915000Y-65005000I-50000J0D01*
G01*
D14*
%TO.C,C10*%
X150890000Y-76634165D02*
X150890000Y-76865835D01*
X151610000Y-76634165D02*
X151610000Y-76865835D01*
D15*
%TO.C,AE3*%
X134905752Y-49500000D02*
X137905752Y-49500000D01*
X134905752Y-50000000D02*
X134905752Y-49500000D01*
X134905752Y-50000000D02*
X137905752Y-50000000D01*
X134905752Y-59000000D02*
X134905752Y-50000000D01*
X134905752Y-59000000D02*
X137905752Y-59000000D01*
X134905752Y-59500000D02*
X134905752Y-59000000D01*
X137905752Y-49500000D02*
X137905752Y-50000000D01*
X137905752Y-50000000D02*
X137905752Y-59000000D01*
X137905752Y-59000000D02*
X137905752Y-59500000D01*
X137905752Y-59500000D02*
X134905752Y-59500000D01*
D16*
X136655752Y-51500000D02*
G75*
G02*
X136155752Y-51500000I-250000J0D01*
G01*
X136155752Y-51500000D02*
G75*
G02*
X136655752Y-51500000I250000J0D01*
G01*
D14*
%TO.C,L6*%
X155640000Y-98798550D02*
X155640000Y-98998950D01*
X156360000Y-98798550D02*
X156360000Y-98998950D01*
%TO.C,C28*%
X133450835Y-55845000D02*
X133219165Y-55845000D01*
X133450835Y-56565000D02*
X133219165Y-56565000D01*
%TO.C,C13*%
X144597857Y-79926216D02*
X144366187Y-79926216D01*
X144597857Y-80646216D02*
X144366187Y-80646216D01*
D15*
%TO.C,U8*%
X145075696Y-94196174D02*
X145075696Y-94696174D01*
X147575696Y-94196174D02*
X147575696Y-94696174D01*
D20*
X145431696Y-92171174D02*
G75*
G02*
X145231696Y-92171174I-100000J0D01*
G01*
X145231696Y-92171174D02*
G75*
G02*
X145431696Y-92171174I100000J0D01*
G01*
D14*
%TO.C,R6*%
X145912278Y-75274572D02*
X145577036Y-75274572D01*
X145912278Y-76034572D02*
X145577036Y-76034572D01*
%TO.C,R7*%
X152707050Y-76916768D02*
X153042292Y-76916768D01*
X152707050Y-77676768D02*
X153042292Y-77676768D01*
%TO.C,C8*%
X156035000Y-69639165D02*
X156035000Y-69870835D01*
X156755000Y-69639165D02*
X156755000Y-69870835D01*
%TO.C,R14*%
X147236962Y-102359739D02*
X147236962Y-101850291D01*
X148281962Y-102359739D02*
X148281962Y-101850291D01*
%TO.C,C17*%
X127560231Y-92812973D02*
X127560231Y-92581303D01*
X128280231Y-92812973D02*
X128280231Y-92581303D01*
%TO.C,U5*%
X147140000Y-79390000D02*
X147140000Y-79840000D01*
X147140000Y-79840000D02*
X145850000Y-79840000D01*
X147140000Y-86610000D02*
X147140000Y-86160000D01*
X147590000Y-79390000D02*
X147140000Y-79390000D01*
X147590000Y-86610000D02*
X147140000Y-86610000D01*
X153910000Y-79390000D02*
X154360000Y-79390000D01*
X153910000Y-86610000D02*
X154360000Y-86610000D01*
X154360000Y-79390000D02*
X154360000Y-79840000D01*
X154360000Y-86610000D02*
X154360000Y-86160000D01*
%TO.C,SW1*%
X139289224Y-68550085D02*
X139289224Y-69450085D01*
X139499224Y-68350085D02*
X139289224Y-68550085D01*
X139499224Y-69650085D02*
X139289224Y-69450085D01*
X139499224Y-69650085D02*
X140789224Y-69650085D01*
X140789224Y-66900085D02*
X140789224Y-72600085D01*
X140789224Y-68350085D02*
X139499224Y-68350085D01*
X141799224Y-73200085D02*
X142589224Y-73200085D01*
X142589224Y-66300085D02*
X141799224Y-66300085D01*
X143639224Y-68150085D02*
X143639224Y-69850085D01*
X143639224Y-71150085D02*
X143639224Y-71350085D01*
%TO.C,C9*%
X149566086Y-75773145D02*
X149797756Y-75773145D01*
X149566086Y-76493145D02*
X149797756Y-76493145D01*
%TO.C,C5*%
X155779165Y-66145000D02*
X156010835Y-66145000D01*
X155779165Y-66865000D02*
X156010835Y-66865000D01*
%TO.C,R4*%
X155067527Y-72059291D02*
X155402769Y-72059291D01*
X155067527Y-72819291D02*
X155402769Y-72819291D01*
%TO.C,SW2*%
X140650000Y-96440000D02*
X144350000Y-96440000D01*
X140650000Y-102560000D02*
X140650000Y-96440000D01*
X144350000Y-96440000D02*
X144350000Y-102560000D01*
X144350000Y-102560000D02*
X140650000Y-102560000D01*
%TO.C,L4*%
X155640000Y-93798550D02*
X155640000Y-93998950D01*
X156360000Y-93798550D02*
X156360000Y-93998950D01*
%TO.C,C27*%
X154429245Y-99875963D02*
X154197575Y-99875963D01*
X154429245Y-100595963D02*
X154197575Y-100595963D01*
%TO.C,C15*%
X155640000Y-91355415D02*
X155640000Y-91587085D01*
X156360000Y-91355415D02*
X156360000Y-91587085D01*
%TD*%
M02*
