<svg width="417" height="342" viewBox="0 0 417 342" fill="none" xmlns="http://www.w3.org/2000/svg">
<path fill-rule="evenodd" clip-rule="evenodd" d="M351.207 220.326C329.575 281.801 270.996 325.866 202.124 325.866C133.253 325.866 74.6736 281.801 53.0421 220.326H201.261C203.765 224.174 202.016 229.026 200.385 233.55L200.385 233.551C199.864 234.997 199.354 236.41 199 237.746C196.493 247.195 197.101 255.827 203.714 263.359C206.844 266.923 210.88 270.329 215.243 272.293C215.78 272.535 216.387 272.774 217.026 273.027C220.146 274.26 224.057 275.807 224.593 279.431C228.696 288.391 228.016 292.016 226.359 300.85L226.359 300.853C225.829 303.679 225.198 307.039 224.593 311.278C224.018 315.305 226.442 320.051 227.093 320.717C227.434 321.067 228.354 319.88 229.58 318.297C230.691 316.862 232.055 315.102 233.467 313.866C235.413 312.165 237.071 309.991 238.667 307.899L238.668 307.899C240.211 305.876 241.696 303.929 243.328 302.556C245.826 300.456 248.648 298.654 251.255 296.989C253.671 295.447 255.902 294.022 257.52 292.586C258.313 291.883 259.025 291.243 259.743 290.599L259.748 290.594C262.073 288.508 264.451 286.373 269.777 281.866C273.453 280.601 275.684 279.085 277.958 276.72C279.93 274.67 282.716 270.538 283.124 267.866C284.139 261.226 284.951 258.627 289.17 253.514C289.697 252.876 290.377 252.171 291.101 251.422C293.035 249.419 295.28 247.094 295.727 244.857C295.98 243.593 295.036 242.395 294.176 241.305L294.175 241.304C293.824 240.859 293.486 240.431 293.251 240.024C291.032 236.192 286.949 235.116 282.879 234.044L282.878 234.044C281.191 233.6 279.506 233.156 277.958 232.516C277.527 232.338 277.067 232.13 276.587 231.913C274.415 230.93 271.853 229.771 269.777 230.417C269.681 230.447 269.541 230.493 269.363 230.551C267.667 231.108 262.636 232.758 261.854 231.585C261.216 230.628 261.322 229.437 261.428 228.256C261.559 226.797 261.688 225.355 260.408 224.395C258.595 223.036 257.163 221.89 255.551 220.326H351.207ZM351.207 115.407H234.85C234.797 115.295 234.74 115.18 234.682 115.062C234.299 114.29 233.83 113.343 233.467 111.682C232.432 106.939 236.184 105.861 239.806 106.214C243.428 106.568 249.077 106.313 252.266 104.491C253.381 103.854 254.571 103.409 255.739 102.973C258.198 102.053 260.559 101.171 261.913 98.6078C265.594 91.6394 261.097 84.4341 257.225 78.2324L257.202 78.1952C257.088 78.0125 256.975 77.8307 256.862 77.6499C256.665 77.3334 256.461 76.9961 256.25 76.6473L256.24 76.6314L256.24 76.6309C255.275 75.0361 254.168 73.2048 252.92 72.0241C252.291 71.4292 251.173 72.127 250.421 72.5962L250.42 72.5968C250.256 72.6996 250.109 72.7914 249.988 72.8561C246.665 74.6425 243.917 70.4283 240.945 65.8688C239.07 62.9929 237.106 59.9796 234.851 58.2482C233.43 57.1572 232.315 56.2107 231.398 55.4323L231.397 55.4318C227.715 52.3067 227.226 51.8916 222.949 55.7064C219.614 58.681 219.88 61.5685 220.196 64.9869C220.346 66.6112 220.507 68.3554 220.298 70.2858C219.829 74.616 219.047 76.1646 214.134 77.6499C211.372 78.4849 210.636 78.0543 209.165 77.1938C208.694 76.9187 208.149 76.5998 207.438 76.2642C205.332 75.2693 201.808 73.2618 198.686 71.1807C195.847 69.2878 195.093 68.8378 192.062 67.27C180.374 61.2244 195.663 56.4226 206.227 53.1048C209.835 51.9717 212.891 51.0116 214.134 50.2343C214.366 50.0891 214.599 49.9441 214.832 49.7992C219.528 46.8775 224.264 43.9312 222.949 38.0121C222.26 34.9107 219.556 36.4872 217.027 37.9618C215.772 38.6936 214.56 39.4003 213.658 39.4978C212.843 39.5859 212.504 39.0838 212.147 38.5559C211.974 38.2998 211.796 38.0376 211.559 37.8338C210.883 37.2545 209.508 37.4321 208.706 37.5565C204.563 38.1995 200.256 39.5505 196.241 40.8101L195.751 40.9637C195.592 41.0134 195.408 41.0729 195.204 41.1389C192.471 42.0232 186.117 44.0784 188.283 39.5572C189.151 37.745 190.444 36.1679 191.728 34.6006L191.728 34.6003L191.729 34.5996C192.355 33.8352 192.98 33.0732 193.552 32.2873C193.839 31.8932 194.169 31.483 194.511 31.0578L194.512 31.0568C195.798 29.4562 197.257 27.6425 197.257 25.6711C197.257 16.0323 183.081 14.4137 176.081 15.2318C172.85 15.6095 166.264 16.6674 168.058 21.3528C168.577 22.7079 169.39 23.9129 170.201 25.113C170.937 26.2043 171.671 27.2916 172.178 28.484C173.807 32.3123 171.78 34.1566 168.593 31.9506C168.008 31.5454 167.393 31.0107 166.752 30.4527L166.751 30.4525C165.171 29.077 163.427 27.5602 161.561 27.4936C157.021 27.3314 152.319 28.7229 148.249 30.7026C147.678 30.9803 147.051 31.4313 146.394 31.9034L146.393 31.9038C144.551 33.2274 142.478 34.7169 140.781 33.0203C129.847 30.7489 124.347 34.2998 113.307 41.426L112.624 41.8663C102.977 48.0907 94.4506 55.8414 87.1245 64.3663C85.9756 65.7032 86.9893 66.2463 88.0349 66.8065C89.0848 67.369 90.1668 67.9488 89.1245 69.3663C87.5201 71.5482 85.0262 74.3537 82.4206 77.2848L82.4198 77.2857C80.6227 79.3073 78.7726 81.3886 77.1246 83.3663C76.0656 84.6371 74.7048 86.1502 73.5397 87.4457C71.9542 89.2087 70.7311 90.5687 71.1245 90.3663C71.3853 90.2322 71.6925 90.0807 72.0246 89.917C73.2467 89.3144 74.8057 88.5457 75.6245 87.8663C76.0866 87.4828 76.6454 87.0575 77.2622 86.588L77.2627 86.5876C79.0407 85.2343 81.3016 83.5133 83.1245 81.3663C84.3762 79.8922 85.6184 78.7517 86.8833 77.5904C88.0999 76.4734 89.3375 75.3372 90.6245 73.8663C92.939 71.2213 95.0348 69.232 97.2011 67.1758L97.2013 67.1757C98.3109 66.1225 99.439 65.0518 100.624 63.8663C101.102 63.3887 101.606 62.8115 102.134 62.2069L102.135 62.2062C104.369 59.6465 107.032 56.5966 109.939 58.5342C112.622 60.3229 114.13 63.6985 115.5 66.7642C115.881 67.6175 116.252 68.4469 116.634 69.2113C118.995 73.9324 119.096 78.905 118.833 84.0284C118.7 86.6128 118.75 89.1078 118.8 91.6199V91.6212C118.826 92.9431 118.853 94.2698 118.853 95.6166C118.853 98.8928 117.993 101.028 116.982 103.541L116.981 103.542C116.597 104.496 116.191 105.504 115.802 106.65C115.198 108.428 114.289 110.021 113.382 111.611L113.382 111.611C112.675 112.849 111.97 114.085 111.409 115.407H53.042C74.6735 53.9317 133.253 9.86627 202.124 9.86627C270.996 9.86627 329.575 53.9317 351.207 115.407Z" fill="black"/>
<mask id="path-2-outside-1_51_8" maskUnits="userSpaceOnUse" x="17" y="125.499" width="384" height="59" fill="black">
<rect fill="white" x="17" y="125.499" width="384" height="59"/>
<path d="M46.7109 183.499H35.5391V138.694H18.7031V127.483H63.5078V138.694H46.7109V183.499ZM148.672 183.499H136.68L115.078 146.624V183.499H103.867V127.483H115.859L137.461 164.397V127.483H148.672V183.499ZM184.297 183.499H173.125V165.96C170.651 165.335 168.372 164.332 166.289 162.952C164.232 161.572 162.461 159.931 160.977 158.03C159.492 156.103 158.333 153.981 157.5 151.663C156.693 149.319 156.289 146.858 156.289 144.28V127.483H167.5V144.28C167.5 145.817 167.786 147.275 168.359 148.655C168.958 150.009 169.766 151.194 170.781 152.21C171.797 153.225 172.982 154.033 174.336 154.632C175.716 155.205 177.174 155.491 178.711 155.491C180.247 155.491 181.693 155.205 183.047 154.632C184.427 154.033 185.625 153.225 186.641 152.21C187.656 151.194 188.451 150.009 189.023 148.655C189.622 147.275 189.922 145.817 189.922 144.28V127.483H201.094V144.28C201.094 146.858 200.677 149.319 199.844 151.663C199.036 153.981 197.891 156.103 196.406 158.03C194.922 159.931 193.151 161.572 191.094 162.952C189.036 164.332 186.771 165.335 184.297 165.96V183.499ZM247.681 172.989H242.444V183.499H231.934V172.989H205.676L211.536 130.984H222.046L217.468 162.515H231.934V136.258H242.444V162.515H247.681V172.989ZM267.236 183.499H256.025V127.483H295.244V138.694H267.236V149.905H284.033V161.116H267.236V183.499ZM301.744 144.28C301.744 141.962 302.187 139.788 303.072 137.757C303.958 135.725 305.156 133.955 306.666 132.444C308.202 130.908 309.986 129.697 312.018 128.811C314.049 127.926 316.223 127.483 318.541 127.483H344.244V138.694H318.541C317.76 138.694 317.031 138.837 316.354 139.124C315.676 139.41 315.077 139.814 314.557 140.335C314.062 140.83 313.671 141.416 313.385 142.093C313.098 142.77 312.955 143.499 312.955 144.28C312.955 145.061 313.098 145.804 313.385 146.507C313.671 147.184 314.062 147.783 314.557 148.304C315.077 148.798 315.676 149.189 316.354 149.475C317.031 149.762 317.76 149.905 318.541 149.905H329.752C332.07 149.905 334.244 150.348 336.275 151.233C338.333 152.093 340.117 153.291 341.627 154.827C343.163 156.337 344.361 158.121 345.221 160.179C346.106 162.21 346.549 164.384 346.549 166.702C346.549 169.02 346.106 171.194 345.221 173.225C344.361 175.257 343.163 177.041 341.627 178.577C340.117 180.087 338.333 181.285 336.275 182.171C334.244 183.056 332.07 183.499 329.752 183.499H304.869V172.288H329.752C330.533 172.288 331.262 172.145 331.939 171.858C332.617 171.572 333.202 171.181 333.697 170.686C334.218 170.166 334.622 169.567 334.908 168.89C335.195 168.212 335.338 167.483 335.338 166.702C335.338 165.921 335.195 165.192 334.908 164.515C334.622 163.837 334.218 163.252 333.697 162.757C333.202 162.236 332.617 161.832 331.939 161.546C331.262 161.259 330.533 161.116 329.752 161.116H318.541C316.223 161.116 314.049 160.673 312.018 159.788C309.986 158.903 308.202 157.705 306.666 156.194C305.156 154.658 303.958 152.874 303.072 150.843C302.187 148.785 301.744 146.598 301.744 144.28ZM365.143 183.499H353.932V127.483H365.143V155.491L386.002 127.483H398.736L381.041 151.116L398.736 183.499H386.002L373.697 160.843L365.143 172.288V183.499Z"/>
</mask>
<path d="M46.7109 183.499H35.5391V138.694H18.7031V127.483H63.5078V138.694H46.7109V183.499ZM148.672 183.499H136.68L115.078 146.624V183.499H103.867V127.483H115.859L137.461 164.397V127.483H148.672V183.499ZM184.297 183.499H173.125V165.96C170.651 165.335 168.372 164.332 166.289 162.952C164.232 161.572 162.461 159.931 160.977 158.03C159.492 156.103 158.333 153.981 157.5 151.663C156.693 149.319 156.289 146.858 156.289 144.28V127.483H167.5V144.28C167.5 145.817 167.786 147.275 168.359 148.655C168.958 150.009 169.766 151.194 170.781 152.21C171.797 153.225 172.982 154.033 174.336 154.632C175.716 155.205 177.174 155.491 178.711 155.491C180.247 155.491 181.693 155.205 183.047 154.632C184.427 154.033 185.625 153.225 186.641 152.21C187.656 151.194 188.451 150.009 189.023 148.655C189.622 147.275 189.922 145.817 189.922 144.28V127.483H201.094V144.28C201.094 146.858 200.677 149.319 199.844 151.663C199.036 153.981 197.891 156.103 196.406 158.03C194.922 159.931 193.151 161.572 191.094 162.952C189.036 164.332 186.771 165.335 184.297 165.96V183.499ZM247.681 172.989H242.444V183.499H231.934V172.989H205.676L211.536 130.984H222.046L217.468 162.515H231.934V136.258H242.444V162.515H247.681V172.989ZM267.236 183.499H256.025V127.483H295.244V138.694H267.236V149.905H284.033V161.116H267.236V183.499ZM301.744 144.28C301.744 141.962 302.187 139.788 303.072 137.757C303.958 135.725 305.156 133.955 306.666 132.444C308.202 130.908 309.986 129.697 312.018 128.811C314.049 127.926 316.223 127.483 318.541 127.483H344.244V138.694H318.541C317.76 138.694 317.031 138.837 316.354 139.124C315.676 139.41 315.077 139.814 314.557 140.335C314.062 140.83 313.671 141.416 313.385 142.093C313.098 142.77 312.955 143.499 312.955 144.28C312.955 145.061 313.098 145.804 313.385 146.507C313.671 147.184 314.062 147.783 314.557 148.304C315.077 148.798 315.676 149.189 316.354 149.475C317.031 149.762 317.76 149.905 318.541 149.905H329.752C332.07 149.905 334.244 150.348 336.275 151.233C338.333 152.093 340.117 153.291 341.627 154.827C343.163 156.337 344.361 158.121 345.221 160.179C346.106 162.21 346.549 164.384 346.549 166.702C346.549 169.02 346.106 171.194 345.221 173.225C344.361 175.257 343.163 177.041 341.627 178.577C340.117 180.087 338.333 181.285 336.275 182.171C334.244 183.056 332.07 183.499 329.752 183.499H304.869V172.288H329.752C330.533 172.288 331.262 172.145 331.939 171.858C332.617 171.572 333.202 171.181 333.697 170.686C334.218 170.166 334.622 169.567 334.908 168.89C335.195 168.212 335.338 167.483 335.338 166.702C335.338 165.921 335.195 165.192 334.908 164.515C334.622 163.837 334.218 163.252 333.697 162.757C333.202 162.236 332.617 161.832 331.939 161.546C331.262 161.259 330.533 161.116 329.752 161.116H318.541C316.223 161.116 314.049 160.673 312.018 159.788C309.986 158.903 308.202 157.705 306.666 156.194C305.156 154.658 303.958 152.874 303.072 150.843C302.187 148.785 301.744 146.598 301.744 144.28ZM365.143 183.499H353.932V127.483H365.143V155.491L386.002 127.483H398.736L381.041 151.116L398.736 183.499H386.002L373.697 160.843L365.143 172.288V183.499Z" fill="black"/>
<path d="M46.7109 183.499V184.499H47.7109V183.499H46.7109ZM35.5391 183.499H34.5391V184.499H35.5391V183.499ZM35.5391 138.694H36.5391V137.694H35.5391V138.694ZM18.7031 138.694H17.7031V139.694H18.7031V138.694ZM18.7031 127.483V126.483H17.7031V127.483H18.7031ZM63.5078 127.483H64.5078V126.483H63.5078V127.483ZM63.5078 138.694V139.694H64.5078V138.694H63.5078ZM46.7109 138.694V137.694H45.7109V138.694H46.7109ZM46.7109 182.499H35.5391V184.499H46.7109V182.499ZM36.5391 183.499V138.694H34.5391V183.499H36.5391ZM35.5391 137.694H18.7031V139.694H35.5391V137.694ZM19.7031 138.694V127.483H17.7031V138.694H19.7031ZM18.7031 128.483H63.5078V126.483H18.7031V128.483ZM62.5078 127.483V138.694H64.5078V127.483H62.5078ZM63.5078 137.694H46.7109V139.694H63.5078V137.694ZM45.7109 138.694V183.499H47.7109V138.694H45.7109ZM148.672 183.499V184.499H149.672V183.499H148.672ZM136.68 183.499L135.817 184.004L136.107 184.499H136.68V183.499ZM115.078 146.624L115.941 146.118L114.078 142.938V146.624H115.078ZM115.078 183.499V184.499H116.078V183.499H115.078ZM103.867 183.499H102.867V184.499H103.867V183.499ZM103.867 127.483V126.483H102.867V127.483H103.867ZM115.859 127.483L116.722 126.978L116.433 126.483H115.859V127.483ZM137.461 164.397L136.598 164.902L138.461 168.086V164.397H137.461ZM137.461 127.483V126.483H136.461V127.483H137.461ZM148.672 127.483H149.672V126.483H148.672V127.483ZM148.672 182.499H136.68V184.499H148.672V182.499ZM137.543 182.993L115.941 146.118L114.215 147.129L135.817 184.004L137.543 182.993ZM114.078 146.624V183.499H116.078V146.624H114.078ZM115.078 182.499H103.867V184.499H115.078V182.499ZM104.867 183.499V127.483H102.867V183.499H104.867ZM103.867 128.483H115.859V126.483H103.867V128.483ZM114.996 127.988L136.598 164.902L138.324 163.892L116.722 126.978L114.996 127.988ZM138.461 164.397V127.483H136.461V164.397H138.461ZM137.461 128.483H148.672V126.483H137.461V128.483ZM147.672 127.483V183.499H149.672V127.483H147.672ZM184.297 183.499V184.499H185.297V183.499H184.297ZM173.125 183.499H172.125V184.499H173.125V183.499ZM173.125 165.96H174.125V165.181L173.37 164.99L173.125 165.96ZM166.289 162.952L165.732 163.782L165.737 163.786L166.289 162.952ZM160.977 158.03L160.184 158.64L160.188 158.646L160.977 158.03ZM157.5 151.663L156.554 151.989L156.559 152.001L157.5 151.663ZM156.289 127.483V126.483H155.289V127.483H156.289ZM167.5 127.483H168.5V126.483H167.5V127.483ZM168.359 148.655L167.436 149.039L167.44 149.049L167.445 149.06L168.359 148.655ZM174.336 154.632L173.931 155.546L173.942 155.551L173.953 155.555L174.336 154.632ZM183.047 154.632L183.437 155.553L183.445 155.549L183.047 154.632ZM189.023 148.655L188.106 148.257L188.102 148.266L189.023 148.655ZM189.922 127.483V126.483H188.922V127.483H189.922ZM201.094 127.483H202.094V126.483H201.094V127.483ZM199.844 151.663L198.902 151.328L198.899 151.334L199.844 151.663ZM196.406 158.03L197.194 158.646L197.198 158.64L196.406 158.03ZM191.094 162.952L191.651 163.782L191.094 162.952ZM184.297 165.96L184.052 164.99L183.297 165.181V165.96H184.297ZM184.297 182.499H173.125V184.499H184.297V182.499ZM174.125 183.499V165.96H172.125V183.499H174.125ZM173.37 164.99C171.003 164.392 168.829 163.435 166.841 162.118L165.737 163.786C167.916 165.23 170.299 166.277 172.88 166.929L173.37 164.99ZM166.846 162.122C164.874 160.799 163.182 159.23 161.765 157.415L160.188 158.646C161.74 160.632 163.589 162.345 165.732 163.782L166.846 162.122ZM161.769 157.42C160.349 155.576 159.24 153.546 158.441 151.325L156.559 152.001C157.427 154.416 158.636 156.63 160.184 158.64L161.769 157.42ZM158.445 151.337C157.676 149.102 157.289 146.752 157.289 144.28H155.289C155.289 146.965 155.71 149.536 156.555 151.989L158.445 151.337ZM157.289 144.28V127.483H155.289V144.28H157.289ZM156.289 128.483H167.5V126.483H156.289V128.483ZM166.5 127.483V144.28H168.5V127.483H166.5ZM166.5 144.28C166.5 145.944 166.811 147.533 167.436 149.039L169.283 148.272C168.762 147.017 168.5 145.689 168.5 144.28H166.5ZM167.445 149.06C168.092 150.523 168.969 151.811 170.074 152.917L171.488 151.503C170.563 150.577 169.825 149.496 169.274 148.251L167.445 149.06ZM170.074 152.917C171.18 154.022 172.468 154.899 173.931 155.546L174.74 153.717C173.496 153.167 172.414 152.428 171.488 151.503L170.074 152.917ZM173.953 155.555C175.458 156.18 177.047 156.491 178.711 156.491V154.491C177.302 154.491 175.975 154.229 174.719 153.708L173.953 155.555ZM178.711 156.491C180.375 156.491 181.954 156.18 183.437 155.553L182.657 153.711C181.432 154.229 180.12 154.491 178.711 154.491V156.491ZM183.445 155.549C184.935 154.902 186.239 154.026 187.348 152.917L185.934 151.503C185.011 152.425 183.919 153.163 182.649 153.714L183.445 155.549ZM187.348 152.917C188.457 151.808 189.323 150.515 189.944 149.045L188.102 148.266C187.579 149.504 186.856 150.58 185.934 151.503L187.348 152.917ZM189.941 149.053C190.595 147.545 190.922 145.951 190.922 144.28H188.922C188.922 145.683 188.649 147.005 188.106 148.257L189.941 149.053ZM190.922 144.28V127.483H188.922V144.28H190.922ZM189.922 128.483H201.094V126.483H189.922V128.483ZM200.094 127.483V144.28H202.094V127.483H200.094ZM200.094 144.28C200.094 146.748 199.695 149.096 198.902 151.328L200.786 151.998C201.659 149.543 202.094 146.968 202.094 144.28H200.094ZM198.899 151.334C198.127 153.551 197.032 155.579 195.614 157.42L197.198 158.64C198.749 156.628 199.946 154.41 200.788 151.992L198.899 151.334ZM195.618 157.415C194.201 159.23 192.508 160.799 190.537 162.122L191.651 163.782C193.794 162.345 195.643 160.632 197.194 158.646L195.618 157.415ZM190.537 162.122C188.577 163.436 186.418 164.393 184.052 164.99L184.542 166.929C187.124 166.277 189.495 165.229 191.651 163.782L190.537 162.122ZM183.297 165.96V183.499H185.297V165.96H183.297ZM247.681 172.989V173.989H248.681V172.989H247.681ZM242.444 172.989V171.989H241.444V172.989H242.444ZM242.444 183.499V184.499H243.444V183.499H242.444ZM231.934 183.499H230.934V184.499H231.934V183.499ZM231.934 172.989H232.934V171.989H231.934V172.989ZM205.676 172.989L204.686 172.85L204.527 173.989H205.676V172.989ZM211.536 130.984V129.984H210.665L210.545 130.846L211.536 130.984ZM222.046 130.984L223.036 131.128L223.202 129.984H222.046V130.984ZM217.468 162.515L216.479 162.371L216.313 163.515H217.468V162.515ZM231.934 162.515V163.515H232.934V162.515H231.934ZM231.934 136.258V135.258H230.934V136.258H231.934ZM242.444 136.258H243.444V135.258H242.444V136.258ZM242.444 162.515H241.444V163.515H242.444V162.515ZM247.681 162.515H248.681V161.515H247.681V162.515ZM247.681 171.989H242.444V173.989H247.681V171.989ZM241.444 172.989V183.499H243.444V172.989H241.444ZM242.444 182.499H231.934V184.499H242.444V182.499ZM232.934 183.499V172.989H230.934V183.499H232.934ZM231.934 171.989H205.676V173.989H231.934V171.989ZM206.667 173.127L212.526 131.122L210.545 130.846L204.686 172.85L206.667 173.127ZM211.536 131.984H222.046V129.984H211.536V131.984ZM221.056 130.841L216.479 162.371L218.458 162.659L223.036 131.128L221.056 130.841ZM217.468 163.515H231.934V161.515H217.468V163.515ZM232.934 162.515V136.258H230.934V162.515H232.934ZM231.934 137.258H242.444V135.258H231.934V137.258ZM241.444 136.258V162.515H243.444V136.258H241.444ZM242.444 163.515H247.681V161.515H242.444V163.515ZM246.681 162.515V172.989H248.681V162.515H246.681ZM267.236 183.499V184.499H268.236V183.499H267.236ZM256.025 183.499H255.025V184.499H256.025V183.499ZM256.025 127.483V126.483H255.025V127.483H256.025ZM295.244 127.483H296.244V126.483H295.244V127.483ZM295.244 138.694V139.694H296.244V138.694H295.244ZM267.236 138.694V137.694H266.236V138.694H267.236ZM267.236 149.905H266.236V150.905H267.236V149.905ZM284.033 149.905H285.033V148.905H284.033V149.905ZM284.033 161.116V162.116H285.033V161.116H284.033ZM267.236 161.116V160.116H266.236V161.116H267.236ZM267.236 182.499H256.025V184.499H267.236V182.499ZM257.025 183.499V127.483H255.025V183.499H257.025ZM256.025 128.483H295.244V126.483H256.025V128.483ZM294.244 127.483V138.694H296.244V127.483H294.244ZM295.244 137.694H267.236V139.694H295.244V137.694ZM266.236 138.694V149.905H268.236V138.694H266.236ZM267.236 150.905H284.033V148.905H267.236V150.905ZM283.033 149.905V161.116H285.033V149.905H283.033ZM284.033 160.116H267.236V162.116H284.033V160.116ZM266.236 161.116V183.499H268.236V161.116H266.236ZM303.072 137.757L302.156 137.357L303.072 137.757ZM306.666 132.444L305.959 131.737L306.666 132.444ZM344.244 127.483H345.244V126.483H344.244V127.483ZM344.244 138.694V139.694H345.244V138.694H344.244ZM314.557 140.335L313.85 139.628L314.557 140.335ZM313.385 146.507L312.459 146.884L312.464 146.896L313.385 146.507ZM314.557 148.304L313.832 148.992L313.849 149.011L313.868 149.029L314.557 148.304ZM336.275 151.233L335.876 152.15L335.883 152.153L335.89 152.156L336.275 151.233ZM341.627 154.827L340.914 155.528L340.92 155.534L340.926 155.54L341.627 154.827ZM345.221 160.179L344.298 160.564L344.301 160.571L344.304 160.578L345.221 160.179ZM345.221 173.225L344.304 172.826L344.3 172.836L345.221 173.225ZM341.627 178.577L342.334 179.284L341.627 178.577ZM336.275 182.171L335.88 181.252L335.876 181.254L336.275 182.171ZM304.869 183.499H303.869V184.499H304.869V183.499ZM304.869 172.288V171.288H303.869V172.288H304.869ZM333.697 170.686L332.99 169.979L333.697 170.686ZM333.697 162.757L332.972 163.445L332.99 163.464L333.009 163.482L333.697 162.757ZM306.666 156.194L305.953 156.895L305.959 156.901L305.965 156.907L306.666 156.194ZM303.072 150.843L302.154 151.238L302.156 151.242L303.072 150.843ZM302.744 144.28C302.744 142.093 303.161 140.056 303.989 138.156L302.156 137.357C301.213 139.52 300.744 141.831 300.744 144.28H302.744ZM303.989 138.156C304.826 136.235 305.954 134.57 307.373 133.151L305.959 131.737C304.357 133.339 303.089 135.216 302.156 137.357L303.989 138.156ZM307.373 133.151C308.819 131.705 310.498 130.565 312.417 129.728L311.618 127.895C309.474 128.829 307.586 130.11 305.959 131.737L307.373 133.151ZM312.417 129.728C314.317 128.9 316.354 128.483 318.541 128.483V126.483C316.092 126.483 313.781 126.952 311.618 127.895L312.417 129.728ZM318.541 128.483H344.244V126.483H318.541V128.483ZM343.244 127.483V138.694H345.244V127.483H343.244ZM344.244 137.694H318.541V139.694H344.244V137.694ZM318.541 137.694C317.634 137.694 316.772 137.861 315.964 138.203L316.743 140.045C317.289 139.814 317.885 139.694 318.541 139.694V137.694ZM315.964 138.203C315.168 138.54 314.461 139.016 313.85 139.628L315.264 141.042C315.694 140.612 316.185 140.281 316.743 140.045L315.964 138.203ZM313.85 139.628C313.259 140.218 312.798 140.913 312.464 141.703L314.306 142.482C314.545 141.918 314.865 141.441 315.264 141.042L313.85 139.628ZM312.464 141.703C312.122 142.511 311.955 143.374 311.955 144.28H313.955C313.955 143.624 314.075 143.028 314.306 142.482L312.464 141.703ZM311.955 144.28C311.955 145.187 312.122 146.058 312.459 146.884L314.311 146.129C314.075 145.55 313.955 144.936 313.955 144.28H311.955ZM312.464 146.896C312.796 147.681 313.252 148.382 313.832 148.992L315.282 147.615C314.872 147.183 314.546 146.686 314.306 146.117L312.464 146.896ZM313.868 149.029C314.478 149.608 315.179 150.064 315.964 150.396L316.743 148.554C316.174 148.314 315.677 147.989 315.245 147.579L313.868 149.029ZM315.964 150.396C316.772 150.738 317.634 150.905 318.541 150.905V148.905C317.885 148.905 317.289 148.786 316.743 148.554L315.964 150.396ZM318.541 150.905H329.752V148.905H318.541V150.905ZM329.752 150.905C331.939 150.905 333.976 151.322 335.876 152.15L336.675 150.317C334.512 149.374 332.201 148.905 329.752 148.905V150.905ZM335.89 152.156C337.829 152.966 339.5 154.09 340.914 155.528L342.34 154.126C340.733 152.491 338.837 151.219 336.661 150.311L335.89 152.156ZM340.926 155.54C342.364 156.954 343.488 158.625 344.298 160.564L346.143 159.793C345.235 157.617 343.963 155.721 342.328 154.114L340.926 155.54ZM344.304 160.578C345.132 162.478 345.549 164.515 345.549 166.702H347.549C347.549 164.253 347.08 161.942 346.137 159.779L344.304 160.578ZM345.549 166.702C345.549 168.889 345.132 170.926 344.304 172.826L346.137 173.625C347.08 171.462 347.549 169.151 347.549 166.702H345.549ZM344.3 172.836C343.49 174.75 342.364 176.426 340.92 177.87L342.334 179.284C343.963 177.655 345.233 175.763 346.142 173.615L344.3 172.836ZM340.92 177.87C339.503 179.286 337.827 180.414 335.88 181.252L336.671 183.089C338.839 182.156 340.73 180.888 342.334 179.284L340.92 177.87ZM335.876 181.254C333.976 182.082 331.939 182.499 329.752 182.499V184.499C332.201 184.499 334.512 184.03 336.675 183.087L335.876 181.254ZM329.752 182.499H304.869V184.499H329.752V182.499ZM305.869 183.499V172.288H303.869V183.499H305.869ZM304.869 173.288H329.752V171.288H304.869V173.288ZM329.752 173.288C330.659 173.288 331.521 173.121 332.329 172.779L331.55 170.937C331.004 171.168 330.408 171.288 329.752 171.288V173.288ZM332.329 172.779C333.119 172.445 333.814 171.984 334.404 171.394L332.99 169.979C332.591 170.378 332.114 170.698 331.55 170.937L332.329 172.779ZM334.404 171.394C335.016 170.782 335.492 170.075 335.829 169.279L333.987 168.5C333.751 169.058 333.42 169.549 332.99 169.979L334.404 171.394ZM335.829 169.279C336.171 168.471 336.338 167.609 336.338 166.702H334.338C334.338 167.358 334.218 167.954 333.987 168.5L335.829 169.279ZM336.338 166.702C336.338 165.795 336.171 164.933 335.829 164.125L333.987 164.904C334.218 165.45 334.338 166.046 334.338 166.702H336.338ZM335.829 164.125C335.49 163.324 335.009 162.623 334.386 162.032L333.009 163.482C333.427 163.88 333.753 164.351 333.987 164.904L335.829 164.125ZM334.422 162.068C333.831 161.445 333.13 160.964 332.329 160.625L331.55 162.467C332.103 162.701 332.574 163.027 332.972 163.445L334.422 162.068ZM332.329 160.625C331.521 160.283 330.659 160.116 329.752 160.116V162.116C330.408 162.116 331.004 162.236 331.55 162.467L332.329 160.625ZM329.752 160.116H318.541V162.116H329.752V160.116ZM318.541 160.116C316.354 160.116 314.317 159.699 312.417 158.871L311.618 160.705C313.781 161.648 316.092 162.116 318.541 162.116V160.116ZM312.417 158.871C310.495 158.033 308.814 156.903 307.367 155.481L305.965 156.907C307.591 158.506 309.478 159.772 311.618 160.705L312.417 158.871ZM307.379 155.493C305.957 154.046 304.827 152.365 303.989 150.443L302.156 151.242C303.088 153.382 304.354 155.269 305.953 156.895L307.379 155.493ZM303.991 150.447C303.161 148.519 302.744 146.467 302.744 144.28H300.744C300.744 146.729 301.213 149.051 302.154 151.238L303.991 150.447ZM365.143 183.499V184.499H366.143V183.499H365.143ZM353.932 183.499H352.932V184.499H353.932V183.499ZM353.932 127.483V126.483H352.932V127.483H353.932ZM365.143 127.483H366.143V126.483H365.143V127.483ZM365.143 155.491H364.143V158.508L365.945 156.088L365.143 155.491ZM386.002 127.483V126.483H385.5L385.2 126.886L386.002 127.483ZM398.736 127.483L399.537 128.083L400.734 126.483H398.736V127.483ZM381.041 151.116L380.241 150.517L379.855 151.031L380.163 151.596L381.041 151.116ZM398.736 183.499V184.499H400.422L399.614 183.019L398.736 183.499ZM386.002 183.499L385.123 183.976L385.407 184.499H386.002V183.499ZM373.697 160.843L374.576 160.365L373.831 158.993L372.896 160.244L373.697 160.843ZM365.143 172.288L364.342 171.689L364.143 171.956V172.288H365.143ZM365.143 182.499H353.932V184.499H365.143V182.499ZM354.932 183.499V127.483H352.932V183.499H354.932ZM353.932 128.483H365.143V126.483H353.932V128.483ZM364.143 127.483V155.491H366.143V127.483H364.143ZM365.945 156.088L386.804 128.081L385.2 126.886L364.341 154.894L365.945 156.088ZM386.002 128.483H398.736V126.483H386.002V128.483ZM397.936 126.884L380.241 150.517L381.841 151.715L399.537 128.083L397.936 126.884ZM380.163 151.596L397.859 183.978L399.614 183.019L381.919 150.637L380.163 151.596ZM398.736 182.499H386.002V184.499H398.736V182.499ZM386.881 183.022L374.576 160.365L372.819 161.32L385.123 183.976L386.881 183.022ZM372.896 160.244L364.342 171.689L365.944 172.887L374.498 161.441L372.896 160.244ZM364.143 172.288V183.499H366.143V172.288H364.143Z" fill="black" mask="url(#path-2-outside-1_51_8)"/>
<path d="M82.5 149.716C82 147.216 78 145.716 76.5 144.216C80.3333 143.716 92 142.716 89 144.716C86.6703 146.269 83.6667 148.049 83.5 149.716C83.3333 150.549 82.9 151.716 82.5 149.716Z" fill="black" stroke="black"/>
<rect x="283.819" y="148.9" width="10" height="13.2179" fill="black"/>
<path d="M30.0272 194.262V192.231H42.1286V194.262H37.2498V207.868H34.8983V194.262H30.0272ZM44.8027 207.868V192.231H47.1619V199.026H54.9572V192.231H57.324V207.868H54.9572V201.05H47.1619V207.868H44.8027ZM60.7597 207.868V192.231H70.563V194.262H63.1189V199.026H70.0515V201.05H63.1189V205.837H70.6546V207.868H60.7597ZM78.6331 194.262V192.231H90.7345V194.262H85.8558V207.868H83.5042V194.262H78.6331ZM95.7679 192.231V207.868H93.4087V192.231H95.7679ZM111.824 192.231V207.868H109.656L101.708 196.4H101.563V207.868H99.2036V192.231H101.387L109.343 203.714H109.488V192.231H111.824ZM114.059 192.231H116.739L120.824 199.339H120.992L125.076 192.231H127.756L122.084 201.729V207.868H119.732V201.729L114.059 192.231ZM131.784 205.73L131.669 206.562C131.593 207.173 131.463 207.809 131.28 208.471C131.102 209.137 130.916 209.756 130.723 210.326C130.534 210.896 130.379 211.349 130.257 211.685H128.638C128.704 211.369 128.796 210.942 128.913 210.402C129.03 209.868 129.145 209.27 129.257 208.608C129.369 207.946 129.453 207.272 129.509 206.585L129.585 205.73H131.784ZM140.629 207.868V192.231H146.202C147.414 192.231 148.419 192.44 149.218 192.857C150.022 193.275 150.623 193.852 151.02 194.59C151.417 195.323 151.616 196.171 151.616 197.133C151.616 198.09 151.415 198.932 151.012 199.66C150.615 200.383 150.015 200.945 149.211 201.347C148.411 201.749 147.406 201.95 146.195 201.95H141.973V199.92H145.981C146.744 199.92 147.365 199.81 147.844 199.591C148.327 199.372 148.681 199.054 148.905 198.637C149.129 198.22 149.241 197.718 149.241 197.133C149.241 196.542 149.127 196.031 148.898 195.598C148.674 195.166 148.32 194.835 147.836 194.606C147.358 194.372 146.729 194.254 145.95 194.254H142.988V207.868H140.629ZM148.348 200.813L152.211 207.868H149.524L145.737 200.813H148.348ZM154.486 207.868V192.231H164.29V194.262H156.845V199.026H163.778V201.05H156.845V205.837H164.381V207.868H154.486ZM167.441 207.868V192.231H169.8V205.837H176.885V207.868H167.441ZM181.936 192.231V207.868H179.577V192.231H181.936ZM186.692 207.868H184.188L189.815 192.231H192.541L198.168 207.868H195.663L191.243 195.071H191.121L186.692 207.868ZM187.112 201.744H195.236V203.729H187.112V201.744ZM200.426 207.868V192.231H206.152C207.262 192.231 208.18 192.414 208.908 192.781C209.636 193.142 210.181 193.633 210.542 194.254C210.903 194.87 211.084 195.565 211.084 196.339C211.084 196.99 210.965 197.54 210.725 197.988C210.486 198.431 210.165 198.787 209.763 199.057C209.366 199.322 208.929 199.515 208.45 199.637V199.79C208.969 199.815 209.476 199.983 209.969 200.294C210.468 200.599 210.881 201.034 211.206 201.599C211.532 202.164 211.695 202.851 211.695 203.661C211.695 204.46 211.507 205.178 211.13 205.814C210.758 206.445 210.183 206.946 209.404 207.318C208.626 207.684 207.631 207.868 206.419 207.868H200.426ZM202.785 205.844H206.19C207.32 205.844 208.129 205.625 208.618 205.188C209.107 204.75 209.351 204.203 209.351 203.546C209.351 203.052 209.226 202.599 208.977 202.187C208.727 201.775 208.371 201.447 207.908 201.202C207.45 200.958 206.905 200.836 206.274 200.836H202.785V205.844ZM202.785 198.996H205.946C206.475 198.996 206.951 198.894 207.374 198.69C207.801 198.487 208.14 198.202 208.389 197.835C208.643 197.464 208.771 197.026 208.771 196.522C208.771 195.876 208.544 195.334 208.091 194.896C207.638 194.458 206.943 194.239 206.007 194.239H202.785V198.996ZM214.493 207.868V192.231H216.852V205.837H223.938V207.868H214.493ZM226.629 207.868V192.231H236.432V194.262H228.988V199.026H235.921V201.05H228.988V205.837H236.524V207.868H226.629ZM245.273 207.868V192.231H247.633V199.026H255.428V192.231H257.795V207.868H255.428V201.05H247.633V207.868H245.273ZM262.551 207.868H260.047L265.674 192.231H268.4L274.027 207.868H271.522L267.102 195.071H266.98L262.551 207.868ZM262.971 201.744H271.095V203.729H262.971V201.744ZM276.285 207.868V192.231H282.011C283.12 192.231 284.039 192.414 284.767 192.781C285.495 193.142 286.04 193.633 286.401 194.254C286.762 194.87 286.943 195.565 286.943 196.339C286.943 196.99 286.823 197.54 286.584 197.988C286.345 198.431 286.024 198.787 285.622 199.057C285.225 199.322 284.787 199.515 284.309 199.637V199.79C284.828 199.815 285.335 199.983 285.828 200.294C286.327 200.599 286.739 201.034 287.065 201.599C287.391 202.164 287.554 202.851 287.554 203.661C287.554 204.46 287.365 205.178 286.989 205.814C286.617 206.445 286.042 206.946 285.263 207.318C284.485 207.684 283.489 207.868 282.278 207.868H276.285ZM278.644 205.844H282.049C283.179 205.844 283.988 205.625 284.477 205.188C284.966 204.75 285.21 204.203 285.21 203.546C285.21 203.052 285.085 202.599 284.836 202.187C284.586 201.775 284.23 201.447 283.767 201.202C283.309 200.958 282.764 200.836 282.133 200.836H278.644V205.844ZM278.644 198.996H281.805C282.334 198.996 282.81 198.894 283.232 198.69C283.66 198.487 283.998 198.202 284.248 197.835C284.502 197.464 284.63 197.026 284.63 196.522C284.63 195.876 284.403 195.334 283.95 194.896C283.497 194.458 282.802 194.239 281.866 194.239H278.644V198.996ZM295.271 194.262V192.231H307.372V194.262H302.493V207.868H300.142V194.262H295.271ZM310.046 207.868V192.231H315.62C316.831 192.231 317.837 192.44 318.636 192.857C319.44 193.275 320.04 193.852 320.438 194.59C320.835 195.323 321.033 196.171 321.033 197.133C321.033 198.09 320.832 198.932 320.43 199.66C320.033 200.383 319.432 200.945 318.628 201.347C317.829 201.749 316.824 201.95 315.612 201.95H311.39V199.92H315.398C316.162 199.92 316.783 199.81 317.261 199.591C317.745 199.372 318.099 199.054 318.323 198.637C318.547 198.22 318.659 197.718 318.659 197.133C318.659 196.542 318.544 196.031 318.315 195.598C318.091 195.166 317.737 194.835 317.254 194.606C316.775 194.372 316.147 194.254 315.368 194.254H312.406V207.868H310.046ZM317.765 200.813L321.629 207.868H318.941L315.154 200.813H317.765ZM325.225 207.868H322.72L328.347 192.231H331.073L336.7 207.868H334.196L329.775 195.071H329.653L325.225 207.868ZM325.645 201.744H333.768V203.729H325.645V201.744ZM351.21 197.316H348.828C348.736 196.807 348.566 196.359 348.317 195.972C348.067 195.585 347.762 195.257 347.4 194.987C347.039 194.718 346.634 194.514 346.186 194.377C345.744 194.239 345.273 194.17 344.774 194.17C343.873 194.17 343.066 194.397 342.354 194.85C341.646 195.303 341.086 195.967 340.674 196.843C340.267 197.718 340.063 198.787 340.063 200.049C340.063 201.322 340.267 202.396 340.674 203.271C341.086 204.147 341.649 204.808 342.361 205.256C343.074 205.704 343.876 205.928 344.766 205.928C345.26 205.928 345.728 205.862 346.171 205.73C346.619 205.592 347.024 205.391 347.385 205.127C347.746 204.862 348.052 204.539 348.301 204.157C348.556 203.77 348.731 203.327 348.828 202.828L351.21 202.836C351.083 203.605 350.836 204.312 350.47 204.959C350.108 205.6 349.642 206.155 349.072 206.623C348.507 207.086 347.861 207.445 347.133 207.7C346.405 207.954 345.611 208.081 344.751 208.081C343.397 208.081 342.191 207.761 341.132 207.119C340.073 206.473 339.239 205.549 338.628 204.348C338.022 203.147 337.719 201.714 337.719 200.049C337.719 198.38 338.025 196.947 338.635 195.751C339.246 194.55 340.081 193.628 341.14 192.987C342.198 192.341 343.402 192.017 344.751 192.017C345.581 192.017 346.354 192.137 347.072 192.376C347.795 192.61 348.444 192.957 349.019 193.415C349.594 193.868 350.07 194.422 350.447 195.079C350.823 195.731 351.078 196.476 351.21 197.316ZM354.033 207.868V192.231H356.392V199.698H356.583L363.142 192.231H366.112L359.805 199.271L366.135 207.868H363.294L358.24 200.882L356.392 203.004V207.868H354.033ZM368.311 207.868V192.231H378.114V194.262H370.67V199.026H377.602V201.05H370.67V205.837H378.205V207.868H368.311ZM381.265 207.868V192.231H386.839C388.05 192.231 389.055 192.44 389.854 192.857C390.659 193.275 391.259 193.852 391.656 194.59C392.053 195.323 392.252 196.171 392.252 197.133C392.252 198.09 392.051 198.932 391.649 199.66C391.252 200.383 390.651 200.945 389.847 201.347C389.048 201.749 388.042 201.95 386.831 201.95H382.609V199.92H386.617C387.381 199.92 388.002 199.81 388.48 199.591C388.964 199.372 389.317 199.054 389.541 198.637C389.765 198.22 389.877 197.718 389.877 197.133C389.877 196.542 389.763 196.031 389.534 195.598C389.31 195.166 388.956 194.835 388.472 194.606C387.994 194.372 387.365 194.254 386.587 194.254H383.624V207.868H381.265ZM388.984 200.813L392.847 207.868H390.16L386.373 200.813H388.984Z" fill="black"/>
<path fill-rule="evenodd" clip-rule="evenodd" d="M222.523 90.1955C224.643 93.1346 225.437 96.6277 225.019 99.9607L225.857 118.346L208.675 111.753C205.38 111.099 202.315 109.244 200.194 106.305C195.746 100.139 197.138 91.5347 203.304 87.0861C209.469 82.6376 218.074 84.0297 222.523 90.1955ZM214.58 102.716C217.047 100.937 217.604 97.4948 215.824 95.0284C214.045 92.5621 210.603 92.0053 208.137 93.7847C205.67 95.5641 205.113 99.006 206.893 101.472C208.672 103.939 212.114 104.496 214.58 102.716Z" fill="#020202"/>
<path d="M87.5 183.716H78V176.716L83 172.716L87.5 176.716V183.716Z" fill="black"/>
<path d="M78 183.716H87.5V176.716L83 172.716L78 176.716V184.216" stroke="black"/>
<rect x="81.4443" y="141.716" width="3.11121" height="33" fill="black"/>
<circle cx="83" cy="133.716" r="13" fill="black"/>
</svg>
