%TF.GenerationSoftware,KiCad,Pcbnew,8.0.1*%
%TF.CreationDate,2024-07-17T16:46:34-04:00*%
%TF.ProjectId,Tiny4FSK,54696e79-3446-4534-9b2e-6b696361645f,rev?*%
%TF.SameCoordinates,Original*%
%TF.FileFunction,Copper,L2,Inr*%
%TF.FilePolarity,Positive*%
%FSLAX46Y46*%
G04 Gerber Fmt 4.6, Leading zero omitted, Abs format (unit mm)*
G04 Created by KiCad (PCBNEW 8.0.1) date 2024-07-17 16:46:34*
%MOMM*%
%LPD*%
G01*
G04 APERTURE LIST*
%TA.AperFunction,ComponentPad*%
%ADD10R,1.700000X1.700000*%
%TD*%
%TA.AperFunction,ComponentPad*%
%ADD11O,1.700000X1.700000*%
%TD*%
%TA.AperFunction,ComponentPad*%
%ADD12O,1.000000X2.100000*%
%TD*%
%TA.AperFunction,ComponentPad*%
%ADD13O,1.000000X1.800000*%
%TD*%
%TA.AperFunction,HeatsinkPad*%
%ADD14C,0.500000*%
%TD*%
%TA.AperFunction,ComponentPad*%
%ADD15C,0.600000*%
%TD*%
%TA.AperFunction,ComponentPad*%
%ADD16C,2.000000*%
%TD*%
%TA.AperFunction,ViaPad*%
%ADD17C,0.800000*%
%TD*%
%TA.AperFunction,ViaPad*%
%ADD18C,0.600000*%
%TD*%
G04 APERTURE END LIST*
D10*
%TO.N,D+*%
%TO.C,J8*%
X137491300Y-87496215D03*
D11*
%TO.N,D-*%
X134951300Y-87496215D03*
%TO.N,+3.3V*%
X132411300Y-87496215D03*
%TO.N,Earth*%
X129871300Y-87496215D03*
%TD*%
D12*
%TO.N,Net-(J3-SHIELD)*%
%TO.C,J3*%
X129606776Y-100655139D03*
D13*
X129606776Y-104835139D03*
D12*
X138246776Y-100655139D03*
D13*
X138246776Y-104835139D03*
%TD*%
D10*
%TO.N,D+*%
%TO.C,J4*%
X142250000Y-84210000D03*
D11*
%TO.N,D-*%
X142250000Y-86750000D03*
%TO.N,+3.3V*%
X142250000Y-89290000D03*
%TO.N,Earth*%
X142250000Y-91830000D03*
%TD*%
D10*
%TO.N,+3.3V*%
%TO.C,J5*%
X162250000Y-82700000D03*
D11*
%TO.N,SDA*%
X162250000Y-85240000D03*
%TO.N,SCL*%
X162250000Y-87780000D03*
%TO.N,Earth*%
X162250000Y-90320000D03*
%TD*%
D14*
%TO.N,Earth*%
%TO.C,U3*%
X151500000Y-91000000D03*
X151500000Y-93000000D03*
X153500000Y-91000000D03*
X153500000Y-93000000D03*
%TD*%
D10*
%TO.N,+BATT*%
%TO.C,J6*%
X142294431Y-63452157D03*
D11*
%TO.N,Earth*%
X142294431Y-60912157D03*
%TO.N,+3.3V*%
X142294431Y-58372157D03*
%TD*%
D15*
%TO.N,Earth*%
%TO.C,U6*%
X154385000Y-69255000D03*
X152885000Y-69255000D03*
X153635000Y-69755000D03*
X154385000Y-70255000D03*
X152885000Y-70255000D03*
%TD*%
D16*
%TO.N,Net-(AE2-RF)*%
%TO.C,AE2*%
X153911023Y-105665790D03*
%TO.N,Earth*%
X150696023Y-105665790D03*
X157126023Y-105665790D03*
%TD*%
D10*
%TO.N,D12*%
%TO.C,J2*%
X162250000Y-71250000D03*
D11*
%TO.N,D13*%
X162250000Y-73790000D03*
%TO.N,A1*%
X162250000Y-76330000D03*
%TO.N,A2*%
X162250000Y-78870000D03*
%TD*%
D10*
%TO.N,+3.3V*%
%TO.C,J7*%
X162250000Y-94175000D03*
D11*
%TO.N,MOSI*%
X162250000Y-96715000D03*
%TO.N,MISO*%
X162250000Y-99255000D03*
%TO.N,SCK*%
X162250000Y-101795000D03*
%TO.N,Earth*%
X162250000Y-104335000D03*
%TD*%
D17*
%TO.N,Earth*%
X130000000Y-90750000D03*
X130750000Y-102500000D03*
X137000000Y-102500000D03*
X131500000Y-103500000D03*
X134000000Y-103500000D03*
X132750000Y-103500000D03*
X135250000Y-103500000D03*
X136500000Y-103500000D03*
X136507753Y-93870555D03*
X130406247Y-96961402D03*
X130442696Y-94745323D03*
X133103448Y-96830187D03*
%TO.N,D-*%
X140852223Y-81666787D03*
%TO.N,GPS_EN*%
X142927084Y-80076633D03*
X142500000Y-82025000D03*
D18*
%TO.N,Net-(J3-SHIELD)*%
X138250000Y-94250000D03*
%TO.N,Earth*%
X138500000Y-89250000D03*
X132250000Y-94500000D03*
X139000000Y-95750000D03*
D17*
%TO.N,+3.3V*%
X131150000Y-93505000D03*
D18*
%TO.N,Net-(J3-SHIELD)*%
X138250000Y-98750000D03*
%TO.N,Earth*%
X138500000Y-90500000D03*
D17*
%TO.N,D-*%
X133250000Y-101800000D03*
D18*
%TO.N,Net-(J3-CC1)*%
X134250000Y-98000000D03*
D17*
%TO.N,D+*%
X134302482Y-101599196D03*
D18*
%TO.N,Net-(J3-CC1)*%
X132331765Y-101233235D03*
D17*
%TO.N,USB*%
X129102305Y-98083575D03*
X133130025Y-98130025D03*
D18*
%TO.N,Earth*%
X138381627Y-92205116D03*
X136500000Y-98000000D03*
X129000000Y-89250000D03*
D17*
X148636558Y-56728370D03*
X157000000Y-67750000D03*
X158750000Y-93500000D03*
X146750000Y-54750000D03*
X150250000Y-73500000D03*
X149145000Y-70617500D03*
X160750000Y-56250000D03*
X154100761Y-73460013D03*
X140750000Y-64750000D03*
X155250000Y-53500000D03*
X148500000Y-72500000D03*
X146750000Y-60500000D03*
X158750000Y-89500000D03*
X150000000Y-49250000D03*
X158750000Y-100750000D03*
X149393582Y-89315344D03*
X157398495Y-66500000D03*
X156500000Y-59000000D03*
X157250000Y-49750000D03*
X143000000Y-98500000D03*
X145750000Y-71500000D03*
X162250000Y-64750000D03*
X161500000Y-48750000D03*
X158750000Y-91500000D03*
X162250000Y-59250000D03*
X140750000Y-57000000D03*
X163750000Y-58250000D03*
X160750000Y-50250000D03*
X156750000Y-57750000D03*
X143517594Y-75736303D03*
X147000000Y-48750000D03*
X158750000Y-94500000D03*
X163750000Y-65750000D03*
X156640503Y-72436099D03*
X157398495Y-63363147D03*
X140750000Y-50000000D03*
X156500000Y-54250000D03*
X142250000Y-69750000D03*
X162250000Y-63000000D03*
X144000000Y-48750000D03*
X142000000Y-48750000D03*
X145712500Y-97500000D03*
X158750000Y-101750000D03*
X152750000Y-100500000D03*
X145712500Y-99500000D03*
X143000000Y-99750000D03*
X141000000Y-71250000D03*
X141000000Y-75250000D03*
X145750000Y-72750000D03*
X141000000Y-95500000D03*
X158750000Y-106750000D03*
X163750000Y-63750000D03*
X153250000Y-54250000D03*
X162250000Y-53250000D03*
X163750000Y-62000000D03*
X158750000Y-86500000D03*
X153000000Y-48750000D03*
X141051040Y-80478020D03*
X141000000Y-48750000D03*
X160750000Y-65750000D03*
X158750000Y-104750000D03*
X158750000Y-95500000D03*
X148000000Y-49250000D03*
X155500000Y-58000000D03*
X154500000Y-57000000D03*
X158750000Y-87500000D03*
X145575000Y-93296174D03*
X158750000Y-92500000D03*
X157750000Y-53250000D03*
X143000000Y-48750000D03*
X158750000Y-90500000D03*
X151000000Y-49250000D03*
X158750000Y-88500000D03*
X160750000Y-63750000D03*
X141221524Y-55000270D03*
X151338438Y-84795769D03*
X157398495Y-65454381D03*
X162250000Y-51250000D03*
X163750000Y-60250000D03*
X156895000Y-71250000D03*
X162250000Y-57250000D03*
X155750000Y-56750000D03*
X157750000Y-55250000D03*
X146750000Y-50250000D03*
X140750000Y-107250000D03*
X148750000Y-75000000D03*
X153750000Y-96000000D03*
X158750000Y-85500000D03*
X158750000Y-105750000D03*
X162250000Y-68500000D03*
X149000000Y-49250000D03*
X141000000Y-68250000D03*
X150206745Y-101598744D03*
X162250000Y-107250000D03*
X160750000Y-52250000D03*
X153750000Y-75750000D03*
X144000000Y-57000000D03*
X154250000Y-79250000D03*
X160750000Y-62000000D03*
X151250000Y-77250000D03*
X154000000Y-48750000D03*
X163750000Y-50250000D03*
X153317735Y-98651785D03*
X163750000Y-52250000D03*
X150924913Y-100777203D03*
X157398495Y-64408764D03*
X152000000Y-49250000D03*
X145246210Y-81889939D03*
X150217626Y-99825086D03*
X163750000Y-56250000D03*
X150250000Y-54000000D03*
X162250000Y-61250000D03*
X162250000Y-66750000D03*
X158000000Y-48750000D03*
X155386182Y-87492574D03*
X160750000Y-58250000D03*
X149548424Y-100809847D03*
X157000000Y-48750000D03*
X146000000Y-48750000D03*
X158750000Y-103750000D03*
X158750000Y-102750000D03*
X160750000Y-54250000D03*
X162250000Y-55250000D03*
X154500000Y-55500000D03*
X155000000Y-98750000D03*
X158750000Y-97500000D03*
X163750000Y-54250000D03*
X160750000Y-60250000D03*
X163750000Y-67750000D03*
X158750000Y-96500000D03*
X160750000Y-67750000D03*
X145000000Y-48750000D03*
X149500000Y-96750000D03*
%TO.N,+3.3V*%
X154377605Y-64069111D03*
X147974083Y-76365498D03*
X154532500Y-65255000D03*
X148646023Y-106273570D03*
X154357500Y-63000000D03*
X153390002Y-88978107D03*
X152250000Y-74750000D03*
X145850000Y-77125000D03*
X154357500Y-66505000D03*
X144767423Y-53527003D03*
X141798491Y-79001099D03*
X144000000Y-81947607D03*
X154459160Y-78079760D03*
X157250000Y-88750000D03*
X157000000Y-81250000D03*
X157112500Y-87500000D03*
X150233148Y-85258148D03*
X154750000Y-59500000D03*
X151506122Y-72426524D03*
X147372669Y-98397974D03*
%TO.N,GPIO1*%
X146637653Y-87887653D03*
X148176166Y-90614348D03*
%TO.N,RF_RST*%
X145575000Y-89646586D03*
X149405728Y-90905728D03*
%TO.N,SCK*%
X148828931Y-92063576D03*
%TO.N,MISO*%
X149087390Y-93388488D03*
X152257005Y-85191040D03*
%TO.N,MOSI*%
X152750000Y-99475000D03*
X158750000Y-99538983D03*
%TO.N,RF_SS*%
X150549890Y-93679485D03*
X153798960Y-84682384D03*
%TO.N,SDA*%
X157000000Y-83000000D03*
X157750153Y-85974847D03*
%TO.N,SCL*%
X141746063Y-49911322D03*
X155141298Y-77348533D03*
X157000000Y-79250000D03*
%TO.N,SWDIO*%
X147822340Y-82874802D03*
%TO.N,SWCLK*%
X148696470Y-82389104D03*
%TO.N,nRST*%
X147820789Y-83897149D03*
X142500000Y-95625000D03*
%TO.N,A1*%
X144749134Y-83464176D03*
%TO.N,A2*%
X145319484Y-84285581D03*
%TO.N,D-*%
X153449585Y-81798519D03*
%TO.N,SUCCESS*%
X145125000Y-88750000D03*
X144725178Y-106221176D03*
%TO.N,ERROR*%
X145794878Y-107319877D03*
X152000354Y-98225000D03*
X152855075Y-94998402D03*
X154777739Y-89928107D03*
%TO.N,SDN*%
X155052263Y-94223043D03*
X154382819Y-86357513D03*
%TO.N,D13*%
X152299750Y-82824750D03*
%TO.N,D12*%
X155893639Y-76643639D03*
%TO.N,+BATT*%
X148500000Y-58750000D03*
X151500000Y-59000000D03*
X148525000Y-57799906D03*
X152500000Y-57750000D03*
X144025000Y-74699191D03*
%TO.N,TXD*%
X151749999Y-80975000D03*
X152250000Y-56250000D03*
%TO.N,RXD*%
X151355571Y-55525000D03*
X152743299Y-81090588D03*
%TO.N,GPS_EN*%
X145012653Y-85237347D03*
X153500000Y-58250000D03*
%TD*%
%TA.AperFunction,Conductor*%
%TO.N,Earth*%
G36*
X158693039Y-48269685D02*
G01*
X158738794Y-48322489D01*
X158750000Y-48374000D01*
X158750000Y-62637231D01*
X158730315Y-62704270D01*
X158677511Y-62750025D01*
X158626000Y-62761231D01*
X158433540Y-62761231D01*
X158433540Y-74137231D01*
X158413855Y-74204270D01*
X158361051Y-74250025D01*
X158309540Y-74261231D01*
X152641546Y-74261231D01*
X152574507Y-74241546D01*
X152566060Y-74235607D01*
X152552842Y-74225464D01*
X152406762Y-74164956D01*
X152406760Y-74164955D01*
X152250001Y-74144318D01*
X152249999Y-74144318D01*
X152093239Y-74164955D01*
X152093237Y-74164956D01*
X151947157Y-74225464D01*
X151933940Y-74235607D01*
X151868771Y-74260801D01*
X151858454Y-74261231D01*
X147057540Y-74261231D01*
X146990501Y-74241546D01*
X146944746Y-74188742D01*
X146933540Y-74137231D01*
X146933540Y-72426525D01*
X150900440Y-72426525D01*
X150921077Y-72583284D01*
X150921078Y-72583286D01*
X150981586Y-72729365D01*
X151077840Y-72854806D01*
X151203281Y-72951060D01*
X151349360Y-73011568D01*
X151427741Y-73021887D01*
X151506121Y-73032206D01*
X151506122Y-73032206D01*
X151506123Y-73032206D01*
X151558376Y-73025326D01*
X151662884Y-73011568D01*
X151808963Y-72951060D01*
X151934404Y-72854806D01*
X152030658Y-72729365D01*
X152091166Y-72583286D01*
X152111804Y-72426524D01*
X152091166Y-72269762D01*
X152030658Y-72123683D01*
X151934404Y-71998242D01*
X151808963Y-71901988D01*
X151662884Y-71841480D01*
X151662882Y-71841479D01*
X151506123Y-71820842D01*
X151506121Y-71820842D01*
X151349361Y-71841479D01*
X151349359Y-71841480D01*
X151203282Y-71901987D01*
X151077840Y-71998242D01*
X150981585Y-72123684D01*
X150921078Y-72269761D01*
X150921077Y-72269763D01*
X150900440Y-72426522D01*
X150900440Y-72426525D01*
X146933540Y-72426525D01*
X146933540Y-66505001D01*
X153751818Y-66505001D01*
X153772455Y-66661760D01*
X153772456Y-66661762D01*
X153832964Y-66807841D01*
X153929218Y-66933282D01*
X154054659Y-67029536D01*
X154200738Y-67090044D01*
X154279119Y-67100363D01*
X154357499Y-67110682D01*
X154357500Y-67110682D01*
X154357501Y-67110682D01*
X154409754Y-67103802D01*
X154514262Y-67090044D01*
X154660341Y-67029536D01*
X154785782Y-66933282D01*
X154882036Y-66807841D01*
X154942544Y-66661762D01*
X154963182Y-66505000D01*
X154942544Y-66348238D01*
X154882036Y-66202159D01*
X154785782Y-66076718D01*
X154722025Y-66027795D01*
X154680824Y-65971369D01*
X154676669Y-65901623D01*
X154710882Y-65840702D01*
X154750061Y-65814860D01*
X154813386Y-65788630D01*
X154835341Y-65779536D01*
X154960782Y-65683282D01*
X155057036Y-65557841D01*
X155117544Y-65411762D01*
X155138182Y-65255000D01*
X155117544Y-65098238D01*
X155057036Y-64952159D01*
X154960782Y-64826718D01*
X154835341Y-64730464D01*
X154817377Y-64723023D01*
X154762973Y-64679181D01*
X154740909Y-64612887D01*
X154758189Y-64545188D01*
X154789341Y-64510088D01*
X154805887Y-64497393D01*
X154902141Y-64371952D01*
X154962649Y-64225873D01*
X154983287Y-64069111D01*
X154962649Y-63912349D01*
X154902141Y-63766270D01*
X154805887Y-63640829D01*
X154785540Y-63625216D01*
X154744338Y-63568788D01*
X154740183Y-63499042D01*
X154774396Y-63438122D01*
X154785531Y-63428474D01*
X154785782Y-63428282D01*
X154882036Y-63302841D01*
X154942544Y-63156762D01*
X154963182Y-63000000D01*
X154942544Y-62843238D01*
X154882036Y-62697159D01*
X154785782Y-62571718D01*
X154660341Y-62475464D01*
X154617223Y-62457604D01*
X154514262Y-62414956D01*
X154514260Y-62414955D01*
X154357501Y-62394318D01*
X154357499Y-62394318D01*
X154200739Y-62414955D01*
X154200737Y-62414956D01*
X154054660Y-62475463D01*
X153929218Y-62571718D01*
X153832963Y-62697160D01*
X153772456Y-62843237D01*
X153772455Y-62843239D01*
X153751818Y-62999998D01*
X153751818Y-63000001D01*
X153772455Y-63156760D01*
X153772456Y-63156762D01*
X153832964Y-63302841D01*
X153929215Y-63428278D01*
X153929219Y-63428283D01*
X153949563Y-63443893D01*
X153990766Y-63500321D01*
X153994921Y-63570067D01*
X153960709Y-63630987D01*
X153949571Y-63640637D01*
X153949384Y-63640781D01*
X153949324Y-63640828D01*
X153853068Y-63766271D01*
X153792561Y-63912348D01*
X153792560Y-63912350D01*
X153771923Y-64069109D01*
X153771923Y-64069112D01*
X153792560Y-64225871D01*
X153792561Y-64225873D01*
X153853069Y-64371952D01*
X153949323Y-64497393D01*
X154074764Y-64593647D01*
X154092726Y-64601087D01*
X154147129Y-64644927D01*
X154169195Y-64711220D01*
X154151917Y-64778920D01*
X154120764Y-64814021D01*
X154104220Y-64826716D01*
X154007963Y-64952160D01*
X153947456Y-65098237D01*
X153947455Y-65098239D01*
X153926818Y-65254998D01*
X153926818Y-65255001D01*
X153947455Y-65411760D01*
X153947456Y-65411762D01*
X154007964Y-65557841D01*
X154104218Y-65683282D01*
X154167974Y-65732203D01*
X154209175Y-65788630D01*
X154213330Y-65858376D01*
X154179118Y-65919296D01*
X154139940Y-65945139D01*
X154054659Y-65980464D01*
X153929218Y-66076718D01*
X153832963Y-66202160D01*
X153772456Y-66348237D01*
X153772455Y-66348239D01*
X153751818Y-66504998D01*
X153751818Y-66505001D01*
X146933540Y-66505001D01*
X146933540Y-62385244D01*
X146953225Y-62318205D01*
X147006029Y-62272450D01*
X147057551Y-62261244D01*
X153684462Y-62261970D01*
X153684462Y-62011969D01*
X146683540Y-62011231D01*
X146683540Y-74511231D01*
X151534358Y-74511231D01*
X151601397Y-74530916D01*
X151647152Y-74583720D01*
X151657296Y-74651415D01*
X151651007Y-74699191D01*
X151644318Y-74750000D01*
X151664955Y-74906760D01*
X151664956Y-74906762D01*
X151725464Y-75052841D01*
X151821718Y-75178282D01*
X151947159Y-75274536D01*
X152093238Y-75335044D01*
X152171619Y-75345363D01*
X152249999Y-75355682D01*
X152250000Y-75355682D01*
X152250001Y-75355682D01*
X152302254Y-75348802D01*
X152406762Y-75335044D01*
X152552841Y-75274536D01*
X152678282Y-75178282D01*
X152774536Y-75052841D01*
X152835044Y-74906762D01*
X152855682Y-74750000D01*
X152842703Y-74651415D01*
X152853468Y-74582381D01*
X152899848Y-74530125D01*
X152965642Y-74511231D01*
X158626000Y-74511231D01*
X158693039Y-74530916D01*
X158738794Y-74583720D01*
X158750000Y-74635231D01*
X158750000Y-74750000D01*
X160750000Y-74750000D01*
X160750000Y-73790000D01*
X161194417Y-73790000D01*
X161214699Y-73995932D01*
X161214700Y-73995934D01*
X161274768Y-74193954D01*
X161372315Y-74376450D01*
X161388647Y-74396351D01*
X161503589Y-74536410D01*
X161600209Y-74615702D01*
X161663550Y-74667685D01*
X161846046Y-74765232D01*
X162044066Y-74825300D01*
X162044065Y-74825300D01*
X162062529Y-74827118D01*
X162250000Y-74845583D01*
X162455934Y-74825300D01*
X162653954Y-74765232D01*
X162836450Y-74667685D01*
X162996410Y-74536410D01*
X163127685Y-74376450D01*
X163225232Y-74193954D01*
X163285300Y-73995934D01*
X163305583Y-73790000D01*
X163285300Y-73584066D01*
X163225232Y-73386046D01*
X163127685Y-73203550D01*
X163075702Y-73140209D01*
X162996410Y-73043589D01*
X162836452Y-72912317D01*
X162836453Y-72912317D01*
X162836450Y-72912315D01*
X162653954Y-72814768D01*
X162455934Y-72754700D01*
X162455932Y-72754699D01*
X162455934Y-72754699D01*
X162250000Y-72734417D01*
X162044067Y-72754699D01*
X161846043Y-72814769D01*
X161735898Y-72873643D01*
X161663550Y-72912315D01*
X161663548Y-72912316D01*
X161663547Y-72912317D01*
X161503589Y-73043589D01*
X161372317Y-73203547D01*
X161274769Y-73386043D01*
X161214699Y-73584067D01*
X161194417Y-73790000D01*
X160750000Y-73790000D01*
X160750000Y-72119752D01*
X161199500Y-72119752D01*
X161211131Y-72178229D01*
X161211132Y-72178230D01*
X161255447Y-72244552D01*
X161321769Y-72288867D01*
X161321770Y-72288868D01*
X161380247Y-72300499D01*
X161380250Y-72300500D01*
X161380252Y-72300500D01*
X163119750Y-72300500D01*
X163119751Y-72300499D01*
X163134568Y-72297552D01*
X163178229Y-72288868D01*
X163178229Y-72288867D01*
X163178231Y-72288867D01*
X163244552Y-72244552D01*
X163288867Y-72178231D01*
X163288867Y-72178229D01*
X163288868Y-72178229D01*
X163300499Y-72119752D01*
X163300500Y-72119750D01*
X163300500Y-70380249D01*
X163300499Y-70380247D01*
X163288868Y-70321770D01*
X163288867Y-70321769D01*
X163244552Y-70255447D01*
X163178230Y-70211132D01*
X163178229Y-70211131D01*
X163119752Y-70199500D01*
X163119748Y-70199500D01*
X161380252Y-70199500D01*
X161380247Y-70199500D01*
X161321770Y-70211131D01*
X161321769Y-70211132D01*
X161255447Y-70255447D01*
X161211132Y-70321769D01*
X161211131Y-70321770D01*
X161199500Y-70380247D01*
X161199500Y-72119752D01*
X160750000Y-72119752D01*
X160750000Y-48374000D01*
X160769685Y-48306961D01*
X160822489Y-48261206D01*
X160874000Y-48250000D01*
X164125992Y-48250000D01*
X164193031Y-48269685D01*
X164238786Y-48322489D01*
X164249991Y-48374002D01*
X164249952Y-50214161D01*
X164248712Y-107805121D01*
X164229026Y-107872160D01*
X164176221Y-107917913D01*
X164124727Y-107929118D01*
X146334148Y-107931227D01*
X146267106Y-107911550D01*
X146221345Y-107858752D01*
X146211393Y-107789595D01*
X146235757Y-107731742D01*
X146319414Y-107622718D01*
X146379922Y-107476639D01*
X146400560Y-107319877D01*
X146379922Y-107163115D01*
X146319414Y-107017036D01*
X146223160Y-106891595D01*
X146097719Y-106795341D01*
X145951640Y-106734833D01*
X145951638Y-106734832D01*
X145794879Y-106714195D01*
X145794877Y-106714195D01*
X145638117Y-106734832D01*
X145638115Y-106734833D01*
X145492038Y-106795340D01*
X145366596Y-106891595D01*
X145270341Y-107017037D01*
X145209834Y-107163114D01*
X145209833Y-107163116D01*
X145189196Y-107319875D01*
X145189196Y-107319878D01*
X145209833Y-107476637D01*
X145209834Y-107476639D01*
X145270342Y-107622719D01*
X145354096Y-107731869D01*
X145379290Y-107797038D01*
X145365252Y-107865483D01*
X145316438Y-107915472D01*
X145255735Y-107931355D01*
X145250000Y-107931355D01*
X145250000Y-112876000D01*
X145230315Y-112943039D01*
X145177511Y-112988794D01*
X145126000Y-113000000D01*
X140374000Y-113000000D01*
X140306961Y-112980315D01*
X140261206Y-112927511D01*
X140250000Y-112876000D01*
X140250000Y-110671045D01*
X141539804Y-110671045D01*
X141569363Y-110857677D01*
X141627758Y-111037395D01*
X141713544Y-111205758D01*
X141824614Y-111358632D01*
X141958231Y-111492249D01*
X142111105Y-111603319D01*
X142190651Y-111643849D01*
X142279467Y-111689104D01*
X142279469Y-111689104D01*
X142279472Y-111689106D01*
X142375801Y-111720405D01*
X142459185Y-111747499D01*
X142645818Y-111777059D01*
X142645823Y-111777059D01*
X142834790Y-111777059D01*
X143021422Y-111747499D01*
X143201136Y-111689106D01*
X143369503Y-111603319D01*
X143522377Y-111492249D01*
X143655994Y-111358632D01*
X143767064Y-111205758D01*
X143852851Y-111037391D01*
X143911244Y-110857677D01*
X143940804Y-110671045D01*
X143940804Y-110482072D01*
X143911244Y-110295440D01*
X143852849Y-110115722D01*
X143767063Y-109947359D01*
X143655994Y-109794486D01*
X143522377Y-109660869D01*
X143369503Y-109549799D01*
X143201140Y-109464013D01*
X143021422Y-109405618D01*
X142834790Y-109376059D01*
X142834785Y-109376059D01*
X142645823Y-109376059D01*
X142645818Y-109376059D01*
X142459185Y-109405618D01*
X142279467Y-109464013D01*
X142111104Y-109549799D01*
X142023883Y-109613169D01*
X141958231Y-109660869D01*
X141958229Y-109660871D01*
X141958228Y-109660871D01*
X141824616Y-109794483D01*
X141824616Y-109794484D01*
X141824614Y-109794486D01*
X141776914Y-109860138D01*
X141713544Y-109947359D01*
X141627758Y-110115722D01*
X141569363Y-110295440D01*
X141539804Y-110482072D01*
X141539804Y-110671045D01*
X140250000Y-110671045D01*
X140250000Y-108250000D01*
X128123960Y-108250000D01*
X128056921Y-108230315D01*
X128011166Y-108177511D01*
X127999960Y-108126040D01*
X127999413Y-106430332D01*
X127999346Y-106221177D01*
X144119496Y-106221177D01*
X144140133Y-106377936D01*
X144140134Y-106377938D01*
X144161835Y-106430330D01*
X144200642Y-106524017D01*
X144296896Y-106649458D01*
X144422337Y-106745712D01*
X144568416Y-106806220D01*
X144646797Y-106816539D01*
X144725177Y-106826858D01*
X144725178Y-106826858D01*
X144725179Y-106826858D01*
X144777432Y-106819978D01*
X144881940Y-106806220D01*
X145028019Y-106745712D01*
X145153460Y-106649458D01*
X145249714Y-106524017D01*
X145310222Y-106377938D01*
X145323962Y-106273571D01*
X148040341Y-106273571D01*
X148060978Y-106430330D01*
X148060979Y-106430332D01*
X148080734Y-106478026D01*
X148121487Y-106576411D01*
X148217741Y-106701852D01*
X148343182Y-106798106D01*
X148489261Y-106858614D01*
X148567642Y-106868933D01*
X148646022Y-106879252D01*
X148646023Y-106879252D01*
X148646024Y-106879252D01*
X148698277Y-106872372D01*
X148802785Y-106858614D01*
X148948864Y-106798106D01*
X149074305Y-106701852D01*
X149170559Y-106576411D01*
X149231067Y-106430332D01*
X149251705Y-106273570D01*
X149231067Y-106116808D01*
X149170559Y-105970729D01*
X149074305Y-105845288D01*
X148948864Y-105749034D01*
X148822371Y-105696639D01*
X148802785Y-105688526D01*
X148802783Y-105688525D01*
X148646024Y-105667888D01*
X148646022Y-105667888D01*
X148489262Y-105688525D01*
X148489260Y-105688526D01*
X148343183Y-105749033D01*
X148217741Y-105845288D01*
X148121486Y-105970730D01*
X148060979Y-106116807D01*
X148060978Y-106116809D01*
X148040341Y-106273568D01*
X148040341Y-106273571D01*
X145323962Y-106273571D01*
X145330860Y-106221176D01*
X145310222Y-106064414D01*
X145249714Y-105918335D01*
X145153460Y-105792894D01*
X145028019Y-105696640D01*
X144991902Y-105681680D01*
X144953540Y-105665790D01*
X152705380Y-105665790D01*
X152725907Y-105887325D01*
X152725908Y-105887327D01*
X152786792Y-106101313D01*
X152786798Y-106101328D01*
X152885961Y-106300473D01*
X152885966Y-106300481D01*
X153020043Y-106478028D01*
X153184460Y-106627913D01*
X153184462Y-106627915D01*
X153373618Y-106745035D01*
X153373619Y-106745035D01*
X153373622Y-106745037D01*
X153581083Y-106825408D01*
X153799780Y-106866290D01*
X153799782Y-106866290D01*
X154022264Y-106866290D01*
X154022266Y-106866290D01*
X154240963Y-106825408D01*
X154448424Y-106745037D01*
X154637585Y-106627914D01*
X154802004Y-106478026D01*
X154936081Y-106300479D01*
X155035252Y-106101318D01*
X155096138Y-105887326D01*
X155116666Y-105665790D01*
X155112005Y-105615494D01*
X155096138Y-105444254D01*
X155096137Y-105444252D01*
X155035253Y-105230266D01*
X155035252Y-105230262D01*
X155035247Y-105230251D01*
X154936084Y-105031106D01*
X154936079Y-105031098D01*
X154802002Y-104853551D01*
X154637585Y-104703666D01*
X154637583Y-104703664D01*
X154448427Y-104586544D01*
X154448421Y-104586542D01*
X154240963Y-104506172D01*
X154022266Y-104465290D01*
X153799780Y-104465290D01*
X153581083Y-104506172D01*
X153449887Y-104556997D01*
X153373624Y-104586542D01*
X153373618Y-104586544D01*
X153184462Y-104703664D01*
X153184460Y-104703666D01*
X153020043Y-104853551D01*
X152885966Y-105031098D01*
X152885961Y-105031106D01*
X152786798Y-105230251D01*
X152786792Y-105230266D01*
X152725908Y-105444252D01*
X152725907Y-105444254D01*
X152705380Y-105665789D01*
X152705380Y-105665790D01*
X144953540Y-105665790D01*
X144881940Y-105636132D01*
X144881938Y-105636131D01*
X144725179Y-105615494D01*
X144725177Y-105615494D01*
X144568417Y-105636131D01*
X144568415Y-105636132D01*
X144422338Y-105696639D01*
X144296896Y-105792894D01*
X144200641Y-105918336D01*
X144140134Y-106064413D01*
X144140133Y-106064415D01*
X144119496Y-106221174D01*
X144119496Y-106221177D01*
X127999346Y-106221177D01*
X127999050Y-105304134D01*
X128906275Y-105304134D01*
X128933194Y-105439461D01*
X128933197Y-105439471D01*
X128985997Y-105566943D01*
X128986004Y-105566956D01*
X129062661Y-105681680D01*
X129062664Y-105681684D01*
X129160230Y-105779250D01*
X129160234Y-105779253D01*
X129274958Y-105855910D01*
X129274971Y-105855917D01*
X129402443Y-105908717D01*
X129402448Y-105908719D01*
X129402452Y-105908719D01*
X129402453Y-105908720D01*
X129537780Y-105935639D01*
X129537783Y-105935639D01*
X129675771Y-105935639D01*
X129766817Y-105917528D01*
X129811104Y-105908719D01*
X129938587Y-105855914D01*
X130053318Y-105779253D01*
X130150890Y-105681681D01*
X130227551Y-105566950D01*
X130280356Y-105439467D01*
X130307276Y-105304134D01*
X137546275Y-105304134D01*
X137573194Y-105439461D01*
X137573197Y-105439471D01*
X137625997Y-105566943D01*
X137626004Y-105566956D01*
X137702661Y-105681680D01*
X137702664Y-105681684D01*
X137800230Y-105779250D01*
X137800234Y-105779253D01*
X137914958Y-105855910D01*
X137914971Y-105855917D01*
X138042443Y-105908717D01*
X138042448Y-105908719D01*
X138042452Y-105908719D01*
X138042453Y-105908720D01*
X138177780Y-105935639D01*
X138177783Y-105935639D01*
X138315771Y-105935639D01*
X138406817Y-105917528D01*
X138451104Y-105908719D01*
X138578587Y-105855914D01*
X138693318Y-105779253D01*
X138790890Y-105681681D01*
X138867551Y-105566950D01*
X138920356Y-105439467D01*
X138947276Y-105304132D01*
X138947276Y-104366146D01*
X138947276Y-104366143D01*
X138920357Y-104230816D01*
X138920356Y-104230815D01*
X138920356Y-104230811D01*
X138920354Y-104230806D01*
X138867554Y-104103334D01*
X138867547Y-104103321D01*
X138790890Y-103988597D01*
X138790887Y-103988593D01*
X138693321Y-103891027D01*
X138693317Y-103891024D01*
X138578593Y-103814367D01*
X138578580Y-103814360D01*
X138451108Y-103761560D01*
X138451098Y-103761557D01*
X138315771Y-103734639D01*
X138315769Y-103734639D01*
X138177783Y-103734639D01*
X138177781Y-103734639D01*
X138042453Y-103761557D01*
X138042443Y-103761560D01*
X137914971Y-103814360D01*
X137914958Y-103814367D01*
X137800234Y-103891024D01*
X137800230Y-103891027D01*
X137702664Y-103988593D01*
X137702661Y-103988597D01*
X137626004Y-104103321D01*
X137625997Y-104103334D01*
X137573197Y-104230806D01*
X137573194Y-104230816D01*
X137546276Y-104366143D01*
X137546276Y-104366146D01*
X137546276Y-105304132D01*
X137546276Y-105304134D01*
X137546275Y-105304134D01*
X130307276Y-105304134D01*
X130307276Y-105304132D01*
X130307276Y-104366146D01*
X130307276Y-104366143D01*
X130280357Y-104230816D01*
X130280356Y-104230815D01*
X130280356Y-104230811D01*
X130280354Y-104230806D01*
X130227554Y-104103334D01*
X130227547Y-104103321D01*
X130150890Y-103988597D01*
X130150887Y-103988593D01*
X130053321Y-103891027D01*
X130053317Y-103891024D01*
X129938593Y-103814367D01*
X129938580Y-103814360D01*
X129811108Y-103761560D01*
X129811098Y-103761557D01*
X129675771Y-103734639D01*
X129675769Y-103734639D01*
X129537783Y-103734639D01*
X129537781Y-103734639D01*
X129402453Y-103761557D01*
X129402443Y-103761560D01*
X129274971Y-103814360D01*
X129274958Y-103814367D01*
X129160234Y-103891024D01*
X129160230Y-103891027D01*
X129062664Y-103988593D01*
X129062661Y-103988597D01*
X128986004Y-104103321D01*
X128985997Y-104103334D01*
X128933197Y-104230806D01*
X128933194Y-104230816D01*
X128906276Y-104366143D01*
X128906276Y-104366146D01*
X128906276Y-105304132D01*
X128906276Y-105304134D01*
X128906275Y-105304134D01*
X127999050Y-105304134D01*
X127997751Y-101274134D01*
X128906275Y-101274134D01*
X128933194Y-101409461D01*
X128933197Y-101409471D01*
X128985997Y-101536943D01*
X128986004Y-101536956D01*
X129062661Y-101651680D01*
X129062664Y-101651684D01*
X129160230Y-101749250D01*
X129160234Y-101749253D01*
X129274958Y-101825910D01*
X129274971Y-101825917D01*
X129402443Y-101878717D01*
X129402448Y-101878719D01*
X129402452Y-101878719D01*
X129402453Y-101878720D01*
X129537780Y-101905639D01*
X129537783Y-101905639D01*
X129675771Y-101905639D01*
X129766817Y-101887528D01*
X129811104Y-101878719D01*
X129938587Y-101825914D01*
X130053318Y-101749253D01*
X130150890Y-101651681D01*
X130227551Y-101536950D01*
X130280356Y-101409467D01*
X130298276Y-101319378D01*
X130307276Y-101274134D01*
X130307276Y-101211157D01*
X130611276Y-101211157D01*
X130640273Y-101319376D01*
X130696291Y-101416402D01*
X130775513Y-101495624D01*
X130872539Y-101551642D01*
X130980758Y-101580639D01*
X130980760Y-101580639D01*
X131092792Y-101580639D01*
X131092794Y-101580639D01*
X131201013Y-101551642D01*
X131298039Y-101495624D01*
X131377261Y-101416402D01*
X131433279Y-101319376D01*
X131456360Y-101233235D01*
X131826118Y-101233235D01*
X131846599Y-101375691D01*
X131871241Y-101429648D01*
X131906388Y-101506608D01*
X132000637Y-101615378D01*
X132121712Y-101693188D01*
X132121715Y-101693189D01*
X132121714Y-101693189D01*
X132259801Y-101733734D01*
X132259803Y-101733735D01*
X132259804Y-101733735D01*
X132403726Y-101733735D01*
X132487997Y-101708991D01*
X132557864Y-101708991D01*
X132616642Y-101746765D01*
X132645668Y-101810320D01*
X132645869Y-101811783D01*
X132664955Y-101956760D01*
X132664956Y-101956762D01*
X132694247Y-102027478D01*
X132725464Y-102102841D01*
X132821718Y-102228282D01*
X132947159Y-102324536D01*
X133093238Y-102385044D01*
X133171619Y-102395363D01*
X133249999Y-102405682D01*
X133250000Y-102405682D01*
X133250001Y-102405682D01*
X133302254Y-102398802D01*
X133406762Y-102385044D01*
X133552841Y-102324536D01*
X133678282Y-102228282D01*
X133772383Y-102105646D01*
X133828808Y-102064445D01*
X133898554Y-102060290D01*
X133946244Y-102082759D01*
X133999639Y-102123731D01*
X133999640Y-102123731D01*
X133999641Y-102123732D01*
X134145720Y-102184240D01*
X134224101Y-102194559D01*
X134302481Y-102204878D01*
X134302482Y-102204878D01*
X134302483Y-102204878D01*
X134354736Y-102197998D01*
X134459244Y-102184240D01*
X134605323Y-102123732D01*
X134730764Y-102027478D01*
X134827018Y-101902037D01*
X134887526Y-101755958D01*
X134908164Y-101599196D01*
X134906830Y-101589067D01*
X134887526Y-101442435D01*
X134887526Y-101442434D01*
X134827018Y-101296355D01*
X134761643Y-101211157D01*
X136391276Y-101211157D01*
X136420273Y-101319376D01*
X136476291Y-101416402D01*
X136555513Y-101495624D01*
X136652539Y-101551642D01*
X136760758Y-101580639D01*
X136760760Y-101580639D01*
X136872792Y-101580639D01*
X136872794Y-101580639D01*
X136981013Y-101551642D01*
X137078039Y-101495624D01*
X137157261Y-101416402D01*
X137213279Y-101319376D01*
X137225401Y-101274134D01*
X137546275Y-101274134D01*
X137573194Y-101409461D01*
X137573197Y-101409471D01*
X137625997Y-101536943D01*
X137626004Y-101536956D01*
X137702661Y-101651680D01*
X137702664Y-101651684D01*
X137800230Y-101749250D01*
X137800234Y-101749253D01*
X137914958Y-101825910D01*
X137914971Y-101825917D01*
X138042443Y-101878717D01*
X138042448Y-101878719D01*
X138042452Y-101878719D01*
X138042453Y-101878720D01*
X138177780Y-101905639D01*
X138177783Y-101905639D01*
X138315771Y-101905639D01*
X138406817Y-101887528D01*
X138451104Y-101878719D01*
X138578587Y-101825914D01*
X138693318Y-101749253D01*
X138790890Y-101651681D01*
X138867551Y-101536950D01*
X138920356Y-101409467D01*
X138938276Y-101319378D01*
X138947276Y-101274134D01*
X138947276Y-100036143D01*
X138920357Y-99900816D01*
X138920356Y-99900815D01*
X138920356Y-99900811D01*
X138920354Y-99900806D01*
X138867554Y-99773334D01*
X138867547Y-99773321D01*
X138790890Y-99658597D01*
X138790887Y-99658593D01*
X138693321Y-99561027D01*
X138693317Y-99561024D01*
X138578593Y-99484367D01*
X138578583Y-99484362D01*
X138555984Y-99475001D01*
X152144318Y-99475001D01*
X152164955Y-99631760D01*
X152164956Y-99631762D01*
X152223594Y-99773328D01*
X152225464Y-99777841D01*
X152321718Y-99903282D01*
X152447159Y-99999536D01*
X152593238Y-100060044D01*
X152671619Y-100070363D01*
X152749999Y-100080682D01*
X152750000Y-100080682D01*
X152750001Y-100080682D01*
X152802254Y-100073802D01*
X152906762Y-100060044D01*
X153052841Y-99999536D01*
X153178282Y-99903282D01*
X153274536Y-99777841D01*
X153335044Y-99631762D01*
X153347258Y-99538984D01*
X158144318Y-99538984D01*
X158164955Y-99695743D01*
X158164956Y-99695745D01*
X158198960Y-99777839D01*
X158225464Y-99841824D01*
X158321718Y-99967265D01*
X158447159Y-100063519D01*
X158593238Y-100124027D01*
X158642028Y-100130450D01*
X158705925Y-100158716D01*
X158744396Y-100217040D01*
X158749843Y-100253389D01*
X158749843Y-107672867D01*
X160749843Y-107672867D01*
X160749843Y-101795000D01*
X161194417Y-101795000D01*
X161214699Y-102000932D01*
X161239521Y-102082759D01*
X161274768Y-102198954D01*
X161372315Y-102381450D01*
X161372317Y-102381452D01*
X161503589Y-102541410D01*
X161600209Y-102620702D01*
X161663550Y-102672685D01*
X161846046Y-102770232D01*
X162044066Y-102830300D01*
X162044065Y-102830300D01*
X162062529Y-102832118D01*
X162250000Y-102850583D01*
X162455934Y-102830300D01*
X162653954Y-102770232D01*
X162836450Y-102672685D01*
X162996410Y-102541410D01*
X163127685Y-102381450D01*
X163225232Y-102198954D01*
X163285300Y-102000934D01*
X163305583Y-101795000D01*
X163285300Y-101589066D01*
X163225232Y-101391046D01*
X163127685Y-101208550D01*
X163075702Y-101145209D01*
X162996410Y-101048589D01*
X162836452Y-100917317D01*
X162836453Y-100917317D01*
X162836450Y-100917315D01*
X162653954Y-100819768D01*
X162455934Y-100759700D01*
X162455932Y-100759699D01*
X162455934Y-100759699D01*
X162250000Y-100739417D01*
X162044067Y-100759699D01*
X161846043Y-100819769D01*
X161787445Y-100851091D01*
X161663550Y-100917315D01*
X161663548Y-100917316D01*
X161663547Y-100917317D01*
X161503589Y-101048589D01*
X161372317Y-101208547D01*
X161372315Y-101208550D01*
X161347536Y-101254908D01*
X161274769Y-101391043D01*
X161214699Y-101589067D01*
X161194417Y-101795000D01*
X160749843Y-101795000D01*
X160749843Y-100172867D01*
X159271965Y-100172867D01*
X159204926Y-100153182D01*
X159159171Y-100100378D01*
X159149227Y-100031220D01*
X159173589Y-99973381D01*
X159227378Y-99903282D01*
X159274536Y-99841824D01*
X159335044Y-99695745D01*
X159355682Y-99538983D01*
X159345406Y-99460932D01*
X159337995Y-99404639D01*
X159335044Y-99382221D01*
X159282347Y-99255000D01*
X161194417Y-99255000D01*
X161214699Y-99460932D01*
X161221807Y-99484364D01*
X161274768Y-99658954D01*
X161372315Y-99841450D01*
X161372622Y-99841824D01*
X161503589Y-100001410D01*
X161545916Y-100036146D01*
X161663550Y-100132685D01*
X161846046Y-100230232D01*
X162044066Y-100290300D01*
X162044065Y-100290300D01*
X162062529Y-100292118D01*
X162250000Y-100310583D01*
X162455934Y-100290300D01*
X162653954Y-100230232D01*
X162836450Y-100132685D01*
X162996410Y-100001410D01*
X163127685Y-99841450D01*
X163225232Y-99658954D01*
X163285300Y-99460934D01*
X163305583Y-99255000D01*
X163285300Y-99049066D01*
X163225232Y-98851046D01*
X163127685Y-98668550D01*
X163075702Y-98605209D01*
X162996410Y-98508589D01*
X162861621Y-98397972D01*
X162836450Y-98377315D01*
X162653954Y-98279768D01*
X162455934Y-98219700D01*
X162455932Y-98219699D01*
X162455934Y-98219699D01*
X162250000Y-98199417D01*
X162044067Y-98219699D01*
X161846043Y-98279769D01*
X161773700Y-98318438D01*
X161663550Y-98377315D01*
X161663548Y-98377316D01*
X161663547Y-98377317D01*
X161503589Y-98508589D01*
X161384844Y-98653283D01*
X161372315Y-98668550D01*
X161347450Y-98715069D01*
X161274769Y-98851043D01*
X161214699Y-99049067D01*
X161194417Y-99255000D01*
X159282347Y-99255000D01*
X159274536Y-99236142D01*
X159178282Y-99110701D01*
X159052841Y-99014447D01*
X159026789Y-99003656D01*
X158906762Y-98953939D01*
X158906760Y-98953938D01*
X158750001Y-98933301D01*
X158749999Y-98933301D01*
X158593239Y-98953938D01*
X158593237Y-98953939D01*
X158447160Y-99014446D01*
X158321718Y-99110701D01*
X158225463Y-99236143D01*
X158164956Y-99382220D01*
X158164955Y-99382222D01*
X158144318Y-99538981D01*
X158144318Y-99538984D01*
X153347258Y-99538984D01*
X153354449Y-99484364D01*
X153355682Y-99475001D01*
X153355682Y-99474998D01*
X153336195Y-99326983D01*
X153335044Y-99318238D01*
X153274536Y-99172159D01*
X153178282Y-99046718D01*
X153052841Y-98950464D01*
X152906762Y-98889956D01*
X152906760Y-98889955D01*
X152750001Y-98869318D01*
X152749999Y-98869318D01*
X152593239Y-98889955D01*
X152593237Y-98889956D01*
X152447150Y-98950467D01*
X152446429Y-98950884D01*
X152445744Y-98951049D01*
X152445599Y-98951109D01*
X152441396Y-98954885D01*
X152352142Y-99023373D01*
X152321718Y-99046718D01*
X152225463Y-99172160D01*
X152164956Y-99318237D01*
X152164955Y-99318239D01*
X152144318Y-99474998D01*
X152144318Y-99475001D01*
X138555984Y-99475001D01*
X138464526Y-99437118D01*
X138410123Y-99393277D01*
X138388058Y-99326983D01*
X138405337Y-99259283D01*
X138452810Y-99215084D01*
X138452593Y-99214747D01*
X138454466Y-99213543D01*
X138456475Y-99211673D01*
X138460001Y-99209986D01*
X138460051Y-99209953D01*
X138460053Y-99209953D01*
X138581128Y-99132143D01*
X138675377Y-99023373D01*
X138735165Y-98892457D01*
X138755647Y-98750000D01*
X138735165Y-98607543D01*
X138675377Y-98476627D01*
X138607225Y-98397975D01*
X146766987Y-98397975D01*
X146787624Y-98554734D01*
X146787625Y-98554736D01*
X146843345Y-98689257D01*
X146848133Y-98700815D01*
X146944387Y-98826256D01*
X147069828Y-98922510D01*
X147215907Y-98983018D01*
X147294288Y-98993337D01*
X147372668Y-99003656D01*
X147372669Y-99003656D01*
X147372670Y-99003656D01*
X147424923Y-98996776D01*
X147529431Y-98983018D01*
X147675510Y-98922510D01*
X147800951Y-98826256D01*
X147897205Y-98700815D01*
X147957713Y-98554736D01*
X147978351Y-98397974D01*
X147976829Y-98386416D01*
X147957713Y-98241213D01*
X147957713Y-98241212D01*
X147950998Y-98225001D01*
X151394672Y-98225001D01*
X151415309Y-98381760D01*
X151415310Y-98381762D01*
X151467843Y-98508589D01*
X151475818Y-98527841D01*
X151572072Y-98653282D01*
X151697513Y-98749536D01*
X151843592Y-98810044D01*
X151921973Y-98820363D01*
X152000353Y-98830682D01*
X152000354Y-98830682D01*
X152000355Y-98830682D01*
X152052608Y-98823802D01*
X152157116Y-98810044D01*
X152303195Y-98749536D01*
X152303200Y-98749531D01*
X152303907Y-98749125D01*
X152304582Y-98748961D01*
X152304750Y-98748891D01*
X152308949Y-98745120D01*
X152428636Y-98653282D01*
X152524890Y-98527841D01*
X152585398Y-98381762D01*
X152606036Y-98225000D01*
X152585398Y-98068238D01*
X152524890Y-97922159D01*
X152428636Y-97796718D01*
X152303195Y-97700464D01*
X152157116Y-97639956D01*
X152157114Y-97639955D01*
X152000355Y-97619318D01*
X152000353Y-97619318D01*
X151843593Y-97639955D01*
X151843591Y-97639956D01*
X151697514Y-97700463D01*
X151572072Y-97796718D01*
X151475817Y-97922160D01*
X151415310Y-98068237D01*
X151415309Y-98068239D01*
X151394672Y-98224998D01*
X151394672Y-98225001D01*
X147950998Y-98225001D01*
X147897205Y-98095133D01*
X147800951Y-97969692D01*
X147675510Y-97873438D01*
X147529431Y-97812930D01*
X147529429Y-97812929D01*
X147372670Y-97792292D01*
X147372668Y-97792292D01*
X147215908Y-97812929D01*
X147215906Y-97812930D01*
X147069829Y-97873437D01*
X146944387Y-97969692D01*
X146848132Y-98095134D01*
X146787625Y-98241211D01*
X146787624Y-98241213D01*
X146766987Y-98397972D01*
X146766987Y-98397975D01*
X138607225Y-98397975D01*
X138581128Y-98367857D01*
X138460053Y-98290047D01*
X138460051Y-98290046D01*
X138460049Y-98290045D01*
X138460050Y-98290045D01*
X138321963Y-98249500D01*
X138321961Y-98249500D01*
X138178039Y-98249500D01*
X138178036Y-98249500D01*
X138039949Y-98290045D01*
X137918873Y-98367856D01*
X137824623Y-98476626D01*
X137824622Y-98476628D01*
X137764834Y-98607543D01*
X137744353Y-98750000D01*
X137764834Y-98892456D01*
X137824622Y-99023371D01*
X137824623Y-99023373D01*
X137918872Y-99132143D01*
X138039947Y-99209953D01*
X138047407Y-99214747D01*
X138046128Y-99216736D01*
X138089270Y-99254119D01*
X138108953Y-99321159D01*
X138089267Y-99388198D01*
X138036462Y-99433952D01*
X138032406Y-99435718D01*
X137914968Y-99484362D01*
X137914958Y-99484367D01*
X137800234Y-99561024D01*
X137800230Y-99561027D01*
X137702664Y-99658593D01*
X137702661Y-99658597D01*
X137626004Y-99773321D01*
X137625997Y-99773334D01*
X137573197Y-99900806D01*
X137573194Y-99900816D01*
X137546276Y-100036143D01*
X137546276Y-100036146D01*
X137546276Y-101274132D01*
X137546276Y-101274134D01*
X137546275Y-101274134D01*
X137225401Y-101274134D01*
X137242276Y-101211157D01*
X137242276Y-101099121D01*
X137213279Y-100990902D01*
X137157261Y-100893876D01*
X137078039Y-100814654D01*
X136981013Y-100758636D01*
X136872794Y-100729639D01*
X136760758Y-100729639D01*
X136652539Y-100758636D01*
X136652536Y-100758637D01*
X136555516Y-100814652D01*
X136555510Y-100814656D01*
X136476293Y-100893873D01*
X136476289Y-100893879D01*
X136420274Y-100990899D01*
X136420273Y-100990902D01*
X136391276Y-101099121D01*
X136391276Y-101211157D01*
X134761643Y-101211157D01*
X134730764Y-101170914D01*
X134605323Y-101074660D01*
X134459244Y-101014152D01*
X134459242Y-101014151D01*
X134302483Y-100993514D01*
X134302481Y-100993514D01*
X134145721Y-101014151D01*
X134145719Y-101014152D01*
X133999642Y-101074659D01*
X133967760Y-101099123D01*
X133874200Y-101170914D01*
X133840406Y-101214956D01*
X133780100Y-101293548D01*
X133723672Y-101334750D01*
X133653926Y-101338905D01*
X133606240Y-101316438D01*
X133552841Y-101275464D01*
X133549630Y-101274134D01*
X133406762Y-101214956D01*
X133406760Y-101214955D01*
X133250001Y-101194318D01*
X133249999Y-101194318D01*
X133093239Y-101214955D01*
X133093234Y-101214957D01*
X132996784Y-101254908D01*
X132927315Y-101262377D01*
X132864836Y-101231102D01*
X132829184Y-101171013D01*
X132826594Y-101157994D01*
X132816930Y-101090778D01*
X132797663Y-101048589D01*
X132757142Y-100959862D01*
X132662893Y-100851092D01*
X132541818Y-100773282D01*
X132541816Y-100773281D01*
X132541814Y-100773280D01*
X132541815Y-100773280D01*
X132403728Y-100732735D01*
X132403726Y-100732735D01*
X132259804Y-100732735D01*
X132259801Y-100732735D01*
X132121714Y-100773280D01*
X132000638Y-100851091D01*
X131906388Y-100959861D01*
X131906387Y-100959863D01*
X131846599Y-101090778D01*
X131826118Y-101233235D01*
X131456360Y-101233235D01*
X131462276Y-101211157D01*
X131462276Y-101099121D01*
X131433279Y-100990902D01*
X131377261Y-100893876D01*
X131298039Y-100814654D01*
X131201013Y-100758636D01*
X131092794Y-100729639D01*
X130980758Y-100729639D01*
X130872539Y-100758636D01*
X130872536Y-100758637D01*
X130775516Y-100814652D01*
X130775510Y-100814656D01*
X130696293Y-100893873D01*
X130696289Y-100893879D01*
X130640274Y-100990899D01*
X130640273Y-100990902D01*
X130611276Y-101099121D01*
X130611276Y-101211157D01*
X130307276Y-101211157D01*
X130307276Y-100036143D01*
X130280357Y-99900816D01*
X130280356Y-99900815D01*
X130280356Y-99900811D01*
X130280354Y-99900806D01*
X130227554Y-99773334D01*
X130227547Y-99773321D01*
X130150890Y-99658597D01*
X130150887Y-99658593D01*
X130053321Y-99561027D01*
X130053317Y-99561024D01*
X129938593Y-99484367D01*
X129938580Y-99484360D01*
X129811108Y-99431560D01*
X129811098Y-99431557D01*
X129675771Y-99404639D01*
X129675769Y-99404639D01*
X129537783Y-99404639D01*
X129537781Y-99404639D01*
X129402453Y-99431557D01*
X129402443Y-99431560D01*
X129274971Y-99484360D01*
X129274958Y-99484367D01*
X129160234Y-99561024D01*
X129160230Y-99561027D01*
X129062664Y-99658593D01*
X129062661Y-99658597D01*
X128986004Y-99773321D01*
X128985997Y-99773334D01*
X128933197Y-99900806D01*
X128933194Y-99900816D01*
X128906276Y-100036143D01*
X128906276Y-100036146D01*
X128906276Y-101274132D01*
X128906276Y-101274134D01*
X128906275Y-101274134D01*
X127997751Y-101274134D01*
X127996723Y-98083576D01*
X128496623Y-98083576D01*
X128517260Y-98240335D01*
X128517261Y-98240337D01*
X128570081Y-98367857D01*
X128577769Y-98386416D01*
X128674023Y-98511857D01*
X128799464Y-98608111D01*
X128945543Y-98668619D01*
X129023924Y-98678938D01*
X129102304Y-98689257D01*
X129102305Y-98689257D01*
X129102306Y-98689257D01*
X129154559Y-98682377D01*
X129259067Y-98668619D01*
X129405146Y-98608111D01*
X129530587Y-98511857D01*
X129626841Y-98386416D01*
X129687349Y-98240337D01*
X129701872Y-98130026D01*
X132524343Y-98130026D01*
X132544980Y-98286785D01*
X132544981Y-98286787D01*
X132605489Y-98432866D01*
X132701743Y-98558307D01*
X132827184Y-98654561D01*
X132973263Y-98715069D01*
X133051644Y-98725388D01*
X133130024Y-98735707D01*
X133130025Y-98735707D01*
X133130026Y-98735707D01*
X133182279Y-98728827D01*
X133286787Y-98715069D01*
X133432866Y-98654561D01*
X133558307Y-98558307D01*
X133654561Y-98432866D01*
X133677441Y-98377627D01*
X133721281Y-98323224D01*
X133787575Y-98301159D01*
X133855275Y-98318438D01*
X133885713Y-98343875D01*
X133918872Y-98382143D01*
X134039947Y-98459953D01*
X134039950Y-98459954D01*
X134039949Y-98459954D01*
X134178036Y-98500499D01*
X134178038Y-98500500D01*
X134178039Y-98500500D01*
X134321962Y-98500500D01*
X134321962Y-98500499D01*
X134460053Y-98459953D01*
X134581128Y-98382143D01*
X134675377Y-98273373D01*
X134735165Y-98142457D01*
X134755647Y-98000000D01*
X134735165Y-97857543D01*
X134675377Y-97726627D01*
X134581128Y-97617857D01*
X134460053Y-97540047D01*
X134460051Y-97540046D01*
X134460049Y-97540045D01*
X134460050Y-97540045D01*
X134321963Y-97499500D01*
X134321961Y-97499500D01*
X134178039Y-97499500D01*
X134178036Y-97499500D01*
X134039949Y-97540045D01*
X133918873Y-97617856D01*
X133824623Y-97726626D01*
X133824621Y-97726630D01*
X133818034Y-97741053D01*
X133772278Y-97793856D01*
X133705238Y-97813539D01*
X133638199Y-97793853D01*
X133606867Y-97765027D01*
X133558307Y-97701743D01*
X133432866Y-97605489D01*
X133401954Y-97592685D01*
X133286787Y-97544981D01*
X133286785Y-97544980D01*
X133130026Y-97524343D01*
X133130024Y-97524343D01*
X132973264Y-97544980D01*
X132973262Y-97544981D01*
X132827185Y-97605488D01*
X132701743Y-97701743D01*
X132605488Y-97827185D01*
X132544981Y-97973262D01*
X132544980Y-97973264D01*
X132524343Y-98130023D01*
X132524343Y-98130026D01*
X129701872Y-98130026D01*
X129707987Y-98083575D01*
X129687349Y-97926813D01*
X129626841Y-97780734D01*
X129530587Y-97655293D01*
X129405146Y-97559039D01*
X129359295Y-97540047D01*
X129259067Y-97498531D01*
X129259065Y-97498530D01*
X129102306Y-97477893D01*
X129102304Y-97477893D01*
X128945544Y-97498530D01*
X128945542Y-97498531D01*
X128799465Y-97559038D01*
X128674023Y-97655293D01*
X128577768Y-97780735D01*
X128517261Y-97926812D01*
X128517260Y-97926814D01*
X128496623Y-98083573D01*
X128496623Y-98083576D01*
X127996723Y-98083576D01*
X127995930Y-95625001D01*
X141894318Y-95625001D01*
X141914955Y-95781760D01*
X141914956Y-95781762D01*
X141975464Y-95927841D01*
X142071718Y-96053282D01*
X142197159Y-96149536D01*
X142343238Y-96210044D01*
X142421619Y-96220363D01*
X142499999Y-96230682D01*
X142500000Y-96230682D01*
X142500001Y-96230682D01*
X142552254Y-96223802D01*
X142656762Y-96210044D01*
X142802841Y-96149536D01*
X142928282Y-96053282D01*
X143024536Y-95927841D01*
X143085044Y-95781762D01*
X143105682Y-95625000D01*
X143102928Y-95604084D01*
X143085044Y-95468239D01*
X143085044Y-95468238D01*
X143024536Y-95322159D01*
X142928282Y-95196718D01*
X142802841Y-95100464D01*
X142656762Y-95039956D01*
X142656760Y-95039955D01*
X142500001Y-95019318D01*
X142499999Y-95019318D01*
X142343239Y-95039955D01*
X142343237Y-95039956D01*
X142197160Y-95100463D01*
X142071718Y-95196718D01*
X141975463Y-95322160D01*
X141914956Y-95468237D01*
X141914955Y-95468239D01*
X141894318Y-95624998D01*
X141894318Y-95625001D01*
X127995930Y-95625001D01*
X127995728Y-94998403D01*
X152249393Y-94998403D01*
X152270030Y-95155162D01*
X152270031Y-95155164D01*
X152330539Y-95301243D01*
X152426793Y-95426684D01*
X152552234Y-95522938D01*
X152698313Y-95583446D01*
X152776694Y-95593765D01*
X152855074Y-95604084D01*
X152855075Y-95604084D01*
X152855076Y-95604084D01*
X152907329Y-95597204D01*
X153011837Y-95583446D01*
X153157916Y-95522938D01*
X153283357Y-95426684D01*
X153379611Y-95301243D01*
X153440119Y-95155164D01*
X153460757Y-94998402D01*
X153440119Y-94841640D01*
X153379611Y-94695561D01*
X153283357Y-94570120D01*
X153157916Y-94473866D01*
X153011837Y-94413358D01*
X153011835Y-94413357D01*
X152855076Y-94392720D01*
X152855074Y-94392720D01*
X152698314Y-94413357D01*
X152698312Y-94413358D01*
X152552235Y-94473865D01*
X152426793Y-94570120D01*
X152330538Y-94695562D01*
X152270031Y-94841639D01*
X152270030Y-94841641D01*
X152249393Y-94998400D01*
X152249393Y-94998403D01*
X127995728Y-94998403D01*
X127995487Y-94250000D01*
X137744353Y-94250000D01*
X137764834Y-94392456D01*
X137824622Y-94523371D01*
X137824623Y-94523373D01*
X137918872Y-94632143D01*
X138039947Y-94709953D01*
X138039950Y-94709954D01*
X138039949Y-94709954D01*
X138178036Y-94750499D01*
X138178038Y-94750500D01*
X138178039Y-94750500D01*
X138321962Y-94750500D01*
X138321962Y-94750499D01*
X138460053Y-94709953D01*
X138581128Y-94632143D01*
X138675377Y-94523373D01*
X138735165Y-94392457D01*
X138755647Y-94250000D01*
X138735165Y-94107543D01*
X138675377Y-93976627D01*
X138581128Y-93867857D01*
X138460053Y-93790047D01*
X138460051Y-93790046D01*
X138460049Y-93790045D01*
X138460050Y-93790045D01*
X138321963Y-93749500D01*
X138321961Y-93749500D01*
X138178039Y-93749500D01*
X138178036Y-93749500D01*
X138039949Y-93790045D01*
X137918873Y-93867856D01*
X137824623Y-93976626D01*
X137824622Y-93976628D01*
X137764834Y-94107543D01*
X137744353Y-94250000D01*
X127995487Y-94250000D01*
X127995247Y-93505001D01*
X130544318Y-93505001D01*
X130564955Y-93661760D01*
X130564956Y-93661762D01*
X130618092Y-93790045D01*
X130625464Y-93807841D01*
X130721718Y-93933282D01*
X130847159Y-94029536D01*
X130993238Y-94090044D01*
X131071619Y-94100363D01*
X131149999Y-94110682D01*
X131150000Y-94110682D01*
X131150001Y-94110682D01*
X131202254Y-94103802D01*
X131306762Y-94090044D01*
X131452841Y-94029536D01*
X131578282Y-93933282D01*
X131674536Y-93807841D01*
X131735044Y-93661762D01*
X131755682Y-93505000D01*
X131735044Y-93348238D01*
X131674536Y-93202159D01*
X131578282Y-93076718D01*
X131452841Y-92980464D01*
X131306762Y-92919956D01*
X131306760Y-92919955D01*
X131150001Y-92899318D01*
X131149999Y-92899318D01*
X130993239Y-92919955D01*
X130993237Y-92919956D01*
X130847160Y-92980463D01*
X130721718Y-93076718D01*
X130625463Y-93202160D01*
X130564956Y-93348237D01*
X130564955Y-93348239D01*
X130544318Y-93504998D01*
X130544318Y-93505001D01*
X127995247Y-93505001D01*
X127994461Y-91065005D01*
X127994316Y-90614349D01*
X147570484Y-90614349D01*
X147591121Y-90771108D01*
X147591122Y-90771110D01*
X147651630Y-90917189D01*
X147747884Y-91042630D01*
X147873325Y-91138884D01*
X148019404Y-91199392D01*
X148089111Y-91208569D01*
X148176165Y-91220030D01*
X148176166Y-91220030D01*
X148176167Y-91220030D01*
X148228420Y-91213150D01*
X148332928Y-91199392D01*
X148479007Y-91138884D01*
X148604448Y-91042630D01*
X148608789Y-91036971D01*
X148665215Y-90995769D01*
X148734961Y-90991614D01*
X148795882Y-91025825D01*
X148821726Y-91065005D01*
X148881192Y-91208570D01*
X148919434Y-91258407D01*
X148944629Y-91323576D01*
X148930591Y-91392021D01*
X148881777Y-91442011D01*
X148836593Y-91453830D01*
X148836989Y-91456833D01*
X148672170Y-91478531D01*
X148672168Y-91478532D01*
X148526091Y-91539039D01*
X148400649Y-91635294D01*
X148304394Y-91760736D01*
X148243887Y-91906813D01*
X148243886Y-91906815D01*
X148223249Y-92063574D01*
X148223249Y-92063577D01*
X148243886Y-92220336D01*
X148243887Y-92220338D01*
X148304395Y-92366417D01*
X148400649Y-92491858D01*
X148526090Y-92588112D01*
X148672169Y-92648620D01*
X148710820Y-92653708D01*
X148774715Y-92681974D01*
X148813187Y-92740298D01*
X148814019Y-92810163D01*
X148776947Y-92869387D01*
X148770121Y-92875023D01*
X148659108Y-92960206D01*
X148562853Y-93085648D01*
X148502346Y-93231725D01*
X148502345Y-93231727D01*
X148481708Y-93388486D01*
X148481708Y-93388489D01*
X148502345Y-93545248D01*
X148502346Y-93545250D01*
X148540763Y-93637998D01*
X148562854Y-93691329D01*
X148659108Y-93816770D01*
X148784549Y-93913024D01*
X148930628Y-93973532D01*
X149009009Y-93983851D01*
X149087389Y-93994170D01*
X149087390Y-93994170D01*
X149087391Y-93994170D01*
X149139644Y-93987290D01*
X149244152Y-93973532D01*
X149390231Y-93913024D01*
X149515672Y-93816770D01*
X149611926Y-93691329D01*
X149616832Y-93679486D01*
X149944208Y-93679486D01*
X149964845Y-93836245D01*
X149964846Y-93836247D01*
X150025354Y-93982326D01*
X150121608Y-94107767D01*
X150247049Y-94204021D01*
X150393128Y-94264529D01*
X150471509Y-94274848D01*
X150549889Y-94285167D01*
X150549890Y-94285167D01*
X150549891Y-94285167D01*
X150602144Y-94278287D01*
X150706652Y-94264529D01*
X150806805Y-94223044D01*
X154446581Y-94223044D01*
X154467218Y-94379803D01*
X154467219Y-94379805D01*
X154527727Y-94525884D01*
X154623981Y-94651325D01*
X154749422Y-94747579D01*
X154895501Y-94808087D01*
X154973882Y-94818406D01*
X155052262Y-94828725D01*
X155052263Y-94828725D01*
X155052264Y-94828725D01*
X155104517Y-94821845D01*
X155209025Y-94808087D01*
X155355104Y-94747579D01*
X155480545Y-94651325D01*
X155576799Y-94525884D01*
X155637307Y-94379805D01*
X155657945Y-94223043D01*
X155637307Y-94066281D01*
X155576799Y-93920202D01*
X155480545Y-93794761D01*
X155355104Y-93698507D01*
X155309183Y-93679486D01*
X155209025Y-93637999D01*
X155209023Y-93637998D01*
X155052264Y-93617361D01*
X155052262Y-93617361D01*
X154895502Y-93637998D01*
X154895500Y-93637999D01*
X154749423Y-93698506D01*
X154623981Y-93794761D01*
X154527726Y-93920203D01*
X154467219Y-94066280D01*
X154467218Y-94066282D01*
X154446581Y-94223041D01*
X154446581Y-94223044D01*
X150806805Y-94223044D01*
X150852731Y-94204021D01*
X150978172Y-94107767D01*
X151074426Y-93982326D01*
X151134934Y-93836247D01*
X151155572Y-93679485D01*
X151153238Y-93661760D01*
X151134934Y-93522724D01*
X151134934Y-93522723D01*
X151074426Y-93376644D01*
X150978172Y-93251203D01*
X150852731Y-93154949D01*
X150807305Y-93136133D01*
X150706652Y-93094441D01*
X150706650Y-93094440D01*
X150549891Y-93073803D01*
X150549889Y-93073803D01*
X150393129Y-93094440D01*
X150393127Y-93094441D01*
X150247050Y-93154948D01*
X150121608Y-93251203D01*
X150025353Y-93376645D01*
X149964846Y-93522722D01*
X149964845Y-93522724D01*
X149944208Y-93679483D01*
X149944208Y-93679486D01*
X149616832Y-93679486D01*
X149672434Y-93545250D01*
X149693072Y-93388488D01*
X149672434Y-93231726D01*
X149611926Y-93085647D01*
X149515672Y-92960206D01*
X149390231Y-92863952D01*
X149244152Y-92803444D01*
X149231251Y-92801745D01*
X149205499Y-92798355D01*
X149141603Y-92770088D01*
X149103133Y-92711763D01*
X149102302Y-92641898D01*
X149139375Y-92582675D01*
X149146182Y-92577054D01*
X149257213Y-92491858D01*
X149353467Y-92366417D01*
X149413975Y-92220338D01*
X149434613Y-92063576D01*
X149413975Y-91906814D01*
X149353467Y-91760735D01*
X149353466Y-91760734D01*
X149353466Y-91760733D01*
X149315225Y-91710897D01*
X149290030Y-91645728D01*
X149304068Y-91577283D01*
X149352882Y-91527293D01*
X149398065Y-91515473D01*
X149397670Y-91512471D01*
X149457428Y-91504603D01*
X149562490Y-91490772D01*
X149708569Y-91430264D01*
X149834010Y-91334010D01*
X149930264Y-91208569D01*
X149990772Y-91062490D01*
X150009901Y-90917189D01*
X150011410Y-90905729D01*
X150011410Y-90905726D01*
X149990772Y-90748967D01*
X149990772Y-90748966D01*
X149930264Y-90602887D01*
X149834010Y-90477446D01*
X149708569Y-90381192D01*
X149648689Y-90356389D01*
X149562490Y-90320684D01*
X149562488Y-90320683D01*
X149405729Y-90300046D01*
X149405727Y-90300046D01*
X149248967Y-90320683D01*
X149248965Y-90320684D01*
X149102888Y-90381191D01*
X149102887Y-90381192D01*
X148977446Y-90477446D01*
X148977444Y-90477447D01*
X148977443Y-90477449D01*
X148973098Y-90483111D01*
X148916667Y-90524309D01*
X148846920Y-90528459D01*
X148786003Y-90494242D01*
X148760167Y-90455069D01*
X148759162Y-90452643D01*
X148700702Y-90311507D01*
X148604448Y-90186066D01*
X148479007Y-90089812D01*
X148467061Y-90084864D01*
X148332928Y-90029304D01*
X148332926Y-90029303D01*
X148176167Y-90008666D01*
X148176165Y-90008666D01*
X148019405Y-90029303D01*
X148019403Y-90029304D01*
X147873326Y-90089811D01*
X147747884Y-90186066D01*
X147651629Y-90311508D01*
X147591122Y-90457585D01*
X147591121Y-90457587D01*
X147570484Y-90614346D01*
X147570484Y-90614349D01*
X127994316Y-90614349D01*
X127993889Y-89290000D01*
X141194417Y-89290000D01*
X141214699Y-89495932D01*
X141235090Y-89563151D01*
X141274768Y-89693954D01*
X141372315Y-89876450D01*
X141372317Y-89876452D01*
X141503589Y-90036410D01*
X141568661Y-90089812D01*
X141663550Y-90167685D01*
X141846046Y-90265232D01*
X142044066Y-90325300D01*
X142044065Y-90325300D01*
X142062529Y-90327118D01*
X142250000Y-90345583D01*
X142455934Y-90325300D01*
X142653954Y-90265232D01*
X142836450Y-90167685D01*
X142996410Y-90036410D01*
X143127685Y-89876450D01*
X143225232Y-89693954D01*
X143285300Y-89495934D01*
X143305583Y-89290000D01*
X143285300Y-89084066D01*
X143225232Y-88886046D01*
X143152514Y-88750001D01*
X144519318Y-88750001D01*
X144539955Y-88906760D01*
X144539956Y-88906762D01*
X144569508Y-88978108D01*
X144600464Y-89052841D01*
X144696718Y-89178282D01*
X144822159Y-89274536D01*
X144822160Y-89274536D01*
X144822161Y-89274537D01*
X144926936Y-89317936D01*
X144981340Y-89361777D01*
X145003405Y-89428071D01*
X144994048Y-89479943D01*
X144989957Y-89489820D01*
X144989955Y-89489825D01*
X144969318Y-89646584D01*
X144969318Y-89646587D01*
X144989955Y-89803346D01*
X144989956Y-89803348D01*
X145050464Y-89949427D01*
X145146718Y-90074868D01*
X145272159Y-90171122D01*
X145418238Y-90231630D01*
X145496619Y-90241949D01*
X145574999Y-90252268D01*
X145575000Y-90252268D01*
X145575001Y-90252268D01*
X145627254Y-90245388D01*
X145731762Y-90231630D01*
X145877841Y-90171122D01*
X146003282Y-90074868D01*
X146099536Y-89949427D01*
X146108367Y-89928108D01*
X154172057Y-89928108D01*
X154192694Y-90084864D01*
X154192695Y-90084869D01*
X154226998Y-90167685D01*
X154253203Y-90230948D01*
X154349457Y-90356389D01*
X154474898Y-90452643D01*
X154620977Y-90513151D01*
X154699358Y-90523470D01*
X154777738Y-90533789D01*
X154777739Y-90533789D01*
X154777740Y-90533789D01*
X154849747Y-90524309D01*
X154934501Y-90513151D01*
X155080580Y-90452643D01*
X155206021Y-90356389D01*
X155302275Y-90230948D01*
X155362783Y-90084869D01*
X155370099Y-90029303D01*
X155383421Y-89928108D01*
X155383421Y-89928105D01*
X155362783Y-89771346D01*
X155362783Y-89771345D01*
X155302275Y-89625266D01*
X155206021Y-89499825D01*
X155080580Y-89403571D01*
X154934501Y-89343063D01*
X154934499Y-89343062D01*
X154777740Y-89322425D01*
X154777738Y-89322425D01*
X154620978Y-89343062D01*
X154620976Y-89343063D01*
X154474899Y-89403570D01*
X154349457Y-89499825D01*
X154253202Y-89625267D01*
X154192695Y-89771344D01*
X154192694Y-89771346D01*
X154172057Y-89928105D01*
X154172057Y-89928108D01*
X146108367Y-89928108D01*
X146160044Y-89803348D01*
X146180682Y-89646586D01*
X146177875Y-89625267D01*
X146160044Y-89489825D01*
X146160044Y-89489824D01*
X146099536Y-89343745D01*
X146003282Y-89218304D01*
X145877841Y-89122050D01*
X145773060Y-89078648D01*
X145718658Y-89034808D01*
X145699786Y-88978108D01*
X152784320Y-88978108D01*
X152804957Y-89134867D01*
X152804958Y-89134869D01*
X152865466Y-89280948D01*
X152961720Y-89406389D01*
X153087161Y-89502643D01*
X153233240Y-89563151D01*
X153311621Y-89573470D01*
X153390001Y-89583789D01*
X153390002Y-89583789D01*
X153390003Y-89583789D01*
X153442256Y-89576909D01*
X153546764Y-89563151D01*
X153692843Y-89502643D01*
X153818284Y-89406389D01*
X153914538Y-89280948D01*
X153975046Y-89134869D01*
X153995684Y-88978107D01*
X153975046Y-88821345D01*
X153914538Y-88675266D01*
X153818284Y-88549825D01*
X153692843Y-88453571D01*
X153622524Y-88424444D01*
X153546764Y-88393063D01*
X153546762Y-88393062D01*
X153390003Y-88372425D01*
X153390001Y-88372425D01*
X153233241Y-88393062D01*
X153233239Y-88393063D01*
X153087162Y-88453570D01*
X152961720Y-88549825D01*
X152865465Y-88675267D01*
X152804958Y-88821344D01*
X152804957Y-88821346D01*
X152784320Y-88978105D01*
X152784320Y-88978108D01*
X145699786Y-88978108D01*
X145696593Y-88968514D01*
X145705955Y-88916632D01*
X145710044Y-88906762D01*
X145729993Y-88755232D01*
X145730682Y-88750001D01*
X145730682Y-88749998D01*
X145710044Y-88593239D01*
X145710044Y-88593238D01*
X145649536Y-88447159D01*
X145553282Y-88321718D01*
X145427841Y-88225464D01*
X145281762Y-88164956D01*
X145281760Y-88164955D01*
X145125001Y-88144318D01*
X145124999Y-88144318D01*
X144968239Y-88164955D01*
X144968237Y-88164956D01*
X144822160Y-88225463D01*
X144696718Y-88321718D01*
X144600463Y-88447160D01*
X144539956Y-88593237D01*
X144539955Y-88593239D01*
X144519318Y-88749998D01*
X144519318Y-88750001D01*
X143152514Y-88750001D01*
X143127685Y-88703550D01*
X143037154Y-88593237D01*
X142996410Y-88543589D01*
X142878677Y-88446969D01*
X142836450Y-88412315D01*
X142656137Y-88315935D01*
X142653956Y-88314769D01*
X142653955Y-88314768D01*
X142653954Y-88314768D01*
X142455934Y-88254700D01*
X142455932Y-88254699D01*
X142455934Y-88254699D01*
X142250000Y-88234417D01*
X142044067Y-88254699D01*
X141846043Y-88314769D01*
X141749353Y-88366452D01*
X141663550Y-88412315D01*
X141663548Y-88412316D01*
X141663547Y-88412317D01*
X141503589Y-88543589D01*
X141372317Y-88703547D01*
X141274769Y-88886043D01*
X141214699Y-89084067D01*
X141194417Y-89290000D01*
X127993889Y-89290000D01*
X127993311Y-87496215D01*
X131355717Y-87496215D01*
X131375999Y-87702147D01*
X131401223Y-87785300D01*
X131436068Y-87900169D01*
X131533615Y-88082665D01*
X131568269Y-88124892D01*
X131664889Y-88242625D01*
X131689361Y-88262708D01*
X131824850Y-88373900D01*
X132007346Y-88471447D01*
X132205366Y-88531515D01*
X132205365Y-88531515D01*
X132223829Y-88533333D01*
X132411300Y-88551798D01*
X132617234Y-88531515D01*
X132815254Y-88471447D01*
X132997750Y-88373900D01*
X133157710Y-88242625D01*
X133288985Y-88082665D01*
X133386532Y-87900169D01*
X133446600Y-87702149D01*
X133466883Y-87496215D01*
X133895717Y-87496215D01*
X133915999Y-87702147D01*
X133941223Y-87785300D01*
X133976068Y-87900169D01*
X134073615Y-88082665D01*
X134108269Y-88124892D01*
X134204889Y-88242625D01*
X134229361Y-88262708D01*
X134364850Y-88373900D01*
X134547346Y-88471447D01*
X134745366Y-88531515D01*
X134745365Y-88531515D01*
X134763829Y-88533333D01*
X134951300Y-88551798D01*
X135157234Y-88531515D01*
X135355254Y-88471447D01*
X135537750Y-88373900D01*
X135547416Y-88365967D01*
X136440800Y-88365967D01*
X136452431Y-88424444D01*
X136452432Y-88424445D01*
X136496747Y-88490767D01*
X136563069Y-88535082D01*
X136563070Y-88535083D01*
X136621547Y-88546714D01*
X136621550Y-88546715D01*
X136621552Y-88546715D01*
X138361050Y-88546715D01*
X138361051Y-88546714D01*
X138376758Y-88543590D01*
X138419529Y-88535083D01*
X138419529Y-88535082D01*
X138419531Y-88535082D01*
X138485852Y-88490767D01*
X138530167Y-88424446D01*
X138530167Y-88424444D01*
X138530168Y-88424444D01*
X138541799Y-88365967D01*
X138541800Y-88365965D01*
X138541800Y-87887654D01*
X146031971Y-87887654D01*
X146052608Y-88044413D01*
X146052609Y-88044415D01*
X146068453Y-88082667D01*
X146113117Y-88190494D01*
X146209371Y-88315935D01*
X146334812Y-88412189D01*
X146480891Y-88472697D01*
X146559272Y-88483016D01*
X146637652Y-88493335D01*
X146637653Y-88493335D01*
X146637654Y-88493335D01*
X146689907Y-88486455D01*
X146794415Y-88472697D01*
X146940494Y-88412189D01*
X147065935Y-88315935D01*
X147162189Y-88190494D01*
X147222697Y-88044415D01*
X147243335Y-87887653D01*
X147222697Y-87730891D01*
X147162189Y-87584812D01*
X147097111Y-87500001D01*
X156506818Y-87500001D01*
X156527455Y-87656760D01*
X156527456Y-87656762D01*
X156587964Y-87802841D01*
X156684218Y-87928282D01*
X156809659Y-88024536D01*
X156870586Y-88049772D01*
X156924989Y-88093612D01*
X156947054Y-88159906D01*
X156929775Y-88227606D01*
X156898620Y-88262708D01*
X156821720Y-88321715D01*
X156725463Y-88447160D01*
X156664956Y-88593237D01*
X156664955Y-88593239D01*
X156644318Y-88749998D01*
X156644318Y-88750001D01*
X156664955Y-88906760D01*
X156664956Y-88906762D01*
X156694508Y-88978108D01*
X156725464Y-89052841D01*
X156821718Y-89178282D01*
X156947159Y-89274536D01*
X157093238Y-89335044D01*
X157154141Y-89343062D01*
X157249999Y-89355682D01*
X157250000Y-89355682D01*
X157250001Y-89355682D01*
X157340663Y-89343746D01*
X157406762Y-89335044D01*
X157552841Y-89274536D01*
X157678282Y-89178282D01*
X157774536Y-89052841D01*
X157835044Y-88906762D01*
X157854993Y-88755232D01*
X157855682Y-88750001D01*
X157855682Y-88749998D01*
X157835044Y-88593239D01*
X157835044Y-88593238D01*
X157774536Y-88447159D01*
X157678282Y-88321718D01*
X157552841Y-88225464D01*
X157491912Y-88200226D01*
X157437510Y-88156386D01*
X157415445Y-88090092D01*
X157432724Y-88022393D01*
X157463877Y-87987292D01*
X157540782Y-87928282D01*
X157637036Y-87802841D01*
X157697544Y-87656762D01*
X157718182Y-87500000D01*
X157717709Y-87496410D01*
X157697544Y-87343239D01*
X157697544Y-87343238D01*
X157637036Y-87197159D01*
X157540782Y-87071718D01*
X157415341Y-86975464D01*
X157368191Y-86955934D01*
X157269262Y-86914956D01*
X157269260Y-86914955D01*
X157112501Y-86894318D01*
X157112499Y-86894318D01*
X156955739Y-86914955D01*
X156955737Y-86914956D01*
X156809660Y-86975463D01*
X156684218Y-87071718D01*
X156587963Y-87197160D01*
X156527456Y-87343237D01*
X156527455Y-87343239D01*
X156506818Y-87499998D01*
X156506818Y-87500001D01*
X147097111Y-87500001D01*
X147065935Y-87459371D01*
X146940494Y-87363117D01*
X146892504Y-87343239D01*
X146794415Y-87302609D01*
X146794413Y-87302608D01*
X146637654Y-87281971D01*
X146637652Y-87281971D01*
X146480892Y-87302608D01*
X146480890Y-87302609D01*
X146334813Y-87363116D01*
X146209371Y-87459371D01*
X146113116Y-87584813D01*
X146052609Y-87730890D01*
X146052608Y-87730892D01*
X146031971Y-87887651D01*
X146031971Y-87887654D01*
X138541800Y-87887654D01*
X138541800Y-86750000D01*
X141194417Y-86750000D01*
X141214699Y-86955932D01*
X141220624Y-86975463D01*
X141274768Y-87153954D01*
X141372315Y-87336450D01*
X141372317Y-87336452D01*
X141503589Y-87496410D01*
X141598215Y-87574066D01*
X141663550Y-87627685D01*
X141846046Y-87725232D01*
X142044066Y-87785300D01*
X142044065Y-87785300D01*
X142062529Y-87787118D01*
X142250000Y-87805583D01*
X142455934Y-87785300D01*
X142653954Y-87725232D01*
X142836450Y-87627685D01*
X142996410Y-87496410D01*
X143127685Y-87336450D01*
X143225232Y-87153954D01*
X143285300Y-86955934D01*
X143305583Y-86750000D01*
X143285300Y-86544066D01*
X143228711Y-86357514D01*
X153777137Y-86357514D01*
X153797774Y-86514273D01*
X153797775Y-86514275D01*
X153844246Y-86626467D01*
X153858283Y-86660354D01*
X153954537Y-86785795D01*
X154079978Y-86882049D01*
X154226057Y-86942557D01*
X154304438Y-86952876D01*
X154382818Y-86963195D01*
X154382819Y-86963195D01*
X154382820Y-86963195D01*
X154437987Y-86955932D01*
X154539581Y-86942557D01*
X154685660Y-86882049D01*
X154811101Y-86785795D01*
X154907355Y-86660354D01*
X154967863Y-86514275D01*
X154988501Y-86357513D01*
X154986991Y-86346046D01*
X154967863Y-86200752D01*
X154967863Y-86200751D01*
X154907355Y-86054672D01*
X154846104Y-85974848D01*
X157144471Y-85974848D01*
X157165108Y-86131607D01*
X157165109Y-86131609D01*
X157225617Y-86277688D01*
X157321871Y-86403129D01*
X157447312Y-86499383D01*
X157593391Y-86559891D01*
X157671772Y-86570210D01*
X157750152Y-86580529D01*
X157750153Y-86580529D01*
X157750154Y-86580529D01*
X157802407Y-86573649D01*
X157906915Y-86559891D01*
X158052994Y-86499383D01*
X158178435Y-86403129D01*
X158274689Y-86277688D01*
X158335197Y-86131609D01*
X158355835Y-85974847D01*
X158335197Y-85818085D01*
X158274689Y-85672006D01*
X158178435Y-85546565D01*
X158117750Y-85500000D01*
X158750000Y-85500000D01*
X158750000Y-98000000D01*
X160750000Y-98000000D01*
X160750000Y-96715000D01*
X161194417Y-96715000D01*
X161214699Y-96920932D01*
X161214700Y-96920934D01*
X161274768Y-97118954D01*
X161372315Y-97301450D01*
X161372317Y-97301452D01*
X161503589Y-97461410D01*
X161599408Y-97540045D01*
X161663550Y-97592685D01*
X161846046Y-97690232D01*
X162044066Y-97750300D01*
X162044065Y-97750300D01*
X162062529Y-97752118D01*
X162250000Y-97770583D01*
X162455934Y-97750300D01*
X162653954Y-97690232D01*
X162836450Y-97592685D01*
X162996410Y-97461410D01*
X163127685Y-97301450D01*
X163225232Y-97118954D01*
X163285300Y-96920934D01*
X163305583Y-96715000D01*
X163285300Y-96509066D01*
X163225232Y-96311046D01*
X163127685Y-96128550D01*
X163065914Y-96053281D01*
X162996410Y-95968589D01*
X162836452Y-95837317D01*
X162836453Y-95837317D01*
X162836450Y-95837315D01*
X162653954Y-95739768D01*
X162455934Y-95679700D01*
X162455932Y-95679699D01*
X162455934Y-95679699D01*
X162250000Y-95659417D01*
X162044067Y-95679699D01*
X161846043Y-95739769D01*
X161767485Y-95781760D01*
X161663550Y-95837315D01*
X161663548Y-95837316D01*
X161663547Y-95837317D01*
X161503589Y-95968589D01*
X161372317Y-96128547D01*
X161274769Y-96311043D01*
X161214699Y-96509067D01*
X161194417Y-96715000D01*
X160750000Y-96715000D01*
X160750000Y-95044752D01*
X161199500Y-95044752D01*
X161211131Y-95103229D01*
X161211132Y-95103230D01*
X161255447Y-95169552D01*
X161321769Y-95213867D01*
X161321770Y-95213868D01*
X161380247Y-95225499D01*
X161380250Y-95225500D01*
X161380252Y-95225500D01*
X163119750Y-95225500D01*
X163119751Y-95225499D01*
X163134568Y-95222552D01*
X163178229Y-95213868D01*
X163178229Y-95213867D01*
X163178231Y-95213867D01*
X163244552Y-95169552D01*
X163288867Y-95103231D01*
X163288867Y-95103229D01*
X163288868Y-95103229D01*
X163300499Y-95044752D01*
X163300500Y-95044750D01*
X163300500Y-93305249D01*
X163300499Y-93305247D01*
X163288868Y-93246770D01*
X163288867Y-93246769D01*
X163244552Y-93180447D01*
X163178230Y-93136132D01*
X163178229Y-93136131D01*
X163119752Y-93124500D01*
X163119748Y-93124500D01*
X161380252Y-93124500D01*
X161380247Y-93124500D01*
X161321770Y-93136131D01*
X161321769Y-93136132D01*
X161255447Y-93180447D01*
X161211132Y-93246769D01*
X161211131Y-93246770D01*
X161199500Y-93305247D01*
X161199500Y-95044752D01*
X160750000Y-95044752D01*
X160750000Y-87780000D01*
X161194417Y-87780000D01*
X161214699Y-87985932D01*
X161226410Y-88024537D01*
X161274768Y-88183954D01*
X161372315Y-88366450D01*
X161372317Y-88366452D01*
X161503589Y-88526410D01*
X161585022Y-88593239D01*
X161663550Y-88657685D01*
X161846046Y-88755232D01*
X162044066Y-88815300D01*
X162044065Y-88815300D01*
X162062529Y-88817118D01*
X162250000Y-88835583D01*
X162455934Y-88815300D01*
X162653954Y-88755232D01*
X162836450Y-88657685D01*
X162996410Y-88526410D01*
X163127685Y-88366450D01*
X163225232Y-88183954D01*
X163285300Y-87985934D01*
X163305583Y-87780000D01*
X163285300Y-87574066D01*
X163225232Y-87376046D01*
X163127685Y-87193550D01*
X163044560Y-87092261D01*
X162996410Y-87033589D01*
X162836452Y-86902317D01*
X162836453Y-86902317D01*
X162836450Y-86902315D01*
X162653954Y-86804768D01*
X162455934Y-86744700D01*
X162455932Y-86744699D01*
X162455934Y-86744699D01*
X162250000Y-86724417D01*
X162044067Y-86744699D01*
X161846043Y-86804769D01*
X161735898Y-86863643D01*
X161663550Y-86902315D01*
X161663548Y-86902316D01*
X161663547Y-86902317D01*
X161503589Y-87033589D01*
X161372317Y-87193547D01*
X161372315Y-87193550D01*
X161333643Y-87265898D01*
X161274769Y-87376043D01*
X161214699Y-87574067D01*
X161194417Y-87780000D01*
X160750000Y-87780000D01*
X160750000Y-85500000D01*
X158750000Y-85500000D01*
X158117750Y-85500000D01*
X158052994Y-85450311D01*
X158042422Y-85445932D01*
X157906915Y-85389803D01*
X157906913Y-85389802D01*
X157750154Y-85369165D01*
X157750152Y-85369165D01*
X157593392Y-85389802D01*
X157593390Y-85389803D01*
X157447313Y-85450310D01*
X157321871Y-85546565D01*
X157225616Y-85672007D01*
X157165109Y-85818084D01*
X157165108Y-85818086D01*
X157144471Y-85974845D01*
X157144471Y-85974848D01*
X154846104Y-85974848D01*
X154811101Y-85929231D01*
X154685660Y-85832977D01*
X154669907Y-85826452D01*
X154539581Y-85772469D01*
X154539579Y-85772468D01*
X154382820Y-85751831D01*
X154382818Y-85751831D01*
X154226058Y-85772468D01*
X154226056Y-85772469D01*
X154079979Y-85832976D01*
X153954537Y-85929231D01*
X153858282Y-86054673D01*
X153797775Y-86200750D01*
X153797774Y-86200752D01*
X153777137Y-86357511D01*
X153777137Y-86357514D01*
X143228711Y-86357514D01*
X143225232Y-86346046D01*
X143127685Y-86163550D01*
X143075702Y-86100209D01*
X142996410Y-86003589D01*
X142836452Y-85872317D01*
X142836453Y-85872317D01*
X142836450Y-85872315D01*
X142653954Y-85774768D01*
X142455934Y-85714700D01*
X142455932Y-85714699D01*
X142455934Y-85714699D01*
X142250000Y-85694417D01*
X142044067Y-85714699D01*
X141846043Y-85774769D01*
X141749353Y-85826452D01*
X141663550Y-85872315D01*
X141663548Y-85872316D01*
X141663547Y-85872317D01*
X141503589Y-86003589D01*
X141372317Y-86163547D01*
X141372315Y-86163550D01*
X141352430Y-86200752D01*
X141274769Y-86346043D01*
X141214699Y-86544067D01*
X141194417Y-86750000D01*
X138541800Y-86750000D01*
X138541800Y-86626464D01*
X138541799Y-86626462D01*
X138530168Y-86567985D01*
X138530167Y-86567984D01*
X138485852Y-86501662D01*
X138419530Y-86457347D01*
X138419529Y-86457346D01*
X138361052Y-86445715D01*
X138361048Y-86445715D01*
X136621552Y-86445715D01*
X136621547Y-86445715D01*
X136563070Y-86457346D01*
X136563069Y-86457347D01*
X136496747Y-86501662D01*
X136452432Y-86567984D01*
X136452431Y-86567985D01*
X136440800Y-86626462D01*
X136440800Y-88365967D01*
X135547416Y-88365967D01*
X135697710Y-88242625D01*
X135828985Y-88082665D01*
X135926532Y-87900169D01*
X135986600Y-87702149D01*
X136006883Y-87496215D01*
X135986600Y-87290281D01*
X135926532Y-87092261D01*
X135828985Y-86909765D01*
X135742817Y-86804768D01*
X135697710Y-86749804D01*
X135547421Y-86626467D01*
X135537750Y-86618530D01*
X135355254Y-86520983D01*
X135157234Y-86460915D01*
X135157232Y-86460914D01*
X135157234Y-86460914D01*
X134951300Y-86440632D01*
X134745367Y-86460914D01*
X134547343Y-86520984D01*
X134474555Y-86559891D01*
X134364850Y-86618530D01*
X134364848Y-86618531D01*
X134364847Y-86618532D01*
X134204889Y-86749804D01*
X134079727Y-86902317D01*
X134073615Y-86909765D01*
X134056088Y-86942556D01*
X133976069Y-87092258D01*
X133915999Y-87290282D01*
X133895717Y-87496215D01*
X133466883Y-87496215D01*
X133446600Y-87290281D01*
X133386532Y-87092261D01*
X133288985Y-86909765D01*
X133202817Y-86804768D01*
X133157710Y-86749804D01*
X133007421Y-86626467D01*
X132997750Y-86618530D01*
X132815254Y-86520983D01*
X132617234Y-86460915D01*
X132617232Y-86460914D01*
X132617234Y-86460914D01*
X132411300Y-86440632D01*
X132205367Y-86460914D01*
X132007343Y-86520984D01*
X131934555Y-86559891D01*
X131824850Y-86618530D01*
X131824848Y-86618531D01*
X131824847Y-86618532D01*
X131664889Y-86749804D01*
X131539727Y-86902317D01*
X131533615Y-86909765D01*
X131516088Y-86942556D01*
X131436069Y-87092258D01*
X131375999Y-87290282D01*
X131355717Y-87496215D01*
X127993311Y-87496215D01*
X127992809Y-85938298D01*
X128012472Y-85871252D01*
X128065261Y-85825480D01*
X128116809Y-85814258D01*
X140242769Y-85814258D01*
X140242895Y-85079752D01*
X141199500Y-85079752D01*
X141211131Y-85138229D01*
X141211132Y-85138230D01*
X141255447Y-85204552D01*
X141321769Y-85248867D01*
X141321770Y-85248868D01*
X141380247Y-85260499D01*
X141380250Y-85260500D01*
X141380252Y-85260500D01*
X143119750Y-85260500D01*
X143119751Y-85260499D01*
X143134568Y-85257552D01*
X143178229Y-85248868D01*
X143178229Y-85248867D01*
X143178231Y-85248867D01*
X143244552Y-85204552D01*
X143288867Y-85138231D01*
X143288867Y-85138229D01*
X143288868Y-85138229D01*
X143300333Y-85080586D01*
X143300500Y-85079748D01*
X143300500Y-83464177D01*
X144143452Y-83464177D01*
X144164089Y-83620936D01*
X144164090Y-83620938D01*
X144224598Y-83767017D01*
X144320852Y-83892458D01*
X144446293Y-83988712D01*
X144592372Y-84049220D01*
X144619380Y-84052775D01*
X144683276Y-84081040D01*
X144721748Y-84139364D01*
X144726135Y-84191899D01*
X144713802Y-84285579D01*
X144713802Y-84285582D01*
X144734439Y-84442341D01*
X144734440Y-84442343D01*
X144779005Y-84549932D01*
X144786474Y-84619402D01*
X144755199Y-84681881D01*
X144716755Y-84708575D01*
X144716854Y-84708745D01*
X144714818Y-84709920D01*
X144711907Y-84711942D01*
X144709818Y-84712807D01*
X144709811Y-84712811D01*
X144584372Y-84809063D01*
X144488116Y-84934507D01*
X144427609Y-85080584D01*
X144427608Y-85080586D01*
X144406971Y-85237345D01*
X144406971Y-85237348D01*
X144427608Y-85394107D01*
X144427609Y-85394109D01*
X144471470Y-85500000D01*
X144488117Y-85540188D01*
X144584371Y-85665629D01*
X144709812Y-85761883D01*
X144855891Y-85822391D01*
X144886738Y-85826452D01*
X145012652Y-85843029D01*
X145012653Y-85843029D01*
X145012654Y-85843029D01*
X145064907Y-85836149D01*
X145169415Y-85822391D01*
X145315494Y-85761883D01*
X145440935Y-85665629D01*
X145537189Y-85540188D01*
X145597697Y-85394109D01*
X145615596Y-85258149D01*
X149627466Y-85258149D01*
X149648103Y-85414908D01*
X149648104Y-85414910D01*
X149708612Y-85560989D01*
X149804866Y-85686430D01*
X149930307Y-85782684D01*
X150076386Y-85843192D01*
X150154767Y-85853511D01*
X150233147Y-85863830D01*
X150233148Y-85863830D01*
X150233149Y-85863830D01*
X150285402Y-85856950D01*
X150389910Y-85843192D01*
X150535989Y-85782684D01*
X150661430Y-85686430D01*
X150757684Y-85560989D01*
X150818192Y-85414910D01*
X150837608Y-85267428D01*
X150838830Y-85258149D01*
X150838830Y-85258146D01*
X150829996Y-85191041D01*
X151651323Y-85191041D01*
X151671960Y-85347800D01*
X151671961Y-85347802D01*
X151732469Y-85493881D01*
X151828723Y-85619322D01*
X151954164Y-85715576D01*
X152100243Y-85776084D01*
X152178624Y-85786403D01*
X152257004Y-85796722D01*
X152257005Y-85796722D01*
X152257006Y-85796722D01*
X152309259Y-85789842D01*
X152413767Y-85776084D01*
X152559846Y-85715576D01*
X152685287Y-85619322D01*
X152781541Y-85493881D01*
X152842049Y-85347802D01*
X152862687Y-85191040D01*
X152855734Y-85138230D01*
X152842049Y-85034279D01*
X152842049Y-85034278D01*
X152781541Y-84888199D01*
X152685287Y-84762758D01*
X152580543Y-84682385D01*
X153193278Y-84682385D01*
X153213915Y-84839144D01*
X153213916Y-84839146D01*
X153262031Y-84955307D01*
X153274424Y-84985225D01*
X153370678Y-85110666D01*
X153496119Y-85206920D01*
X153642198Y-85267428D01*
X153720579Y-85277747D01*
X153798959Y-85288066D01*
X153798960Y-85288066D01*
X153798961Y-85288066D01*
X153851214Y-85281186D01*
X153955722Y-85267428D01*
X154021939Y-85240000D01*
X161194417Y-85240000D01*
X161214699Y-85445932D01*
X161243291Y-85540186D01*
X161274768Y-85643954D01*
X161372315Y-85826450D01*
X161372317Y-85826452D01*
X161503589Y-85986410D01*
X161586768Y-86054672D01*
X161663550Y-86117685D01*
X161846046Y-86215232D01*
X162044066Y-86275300D01*
X162044065Y-86275300D01*
X162062529Y-86277118D01*
X162250000Y-86295583D01*
X162455934Y-86275300D01*
X162653954Y-86215232D01*
X162836450Y-86117685D01*
X162996410Y-85986410D01*
X163127685Y-85826450D01*
X163225232Y-85643954D01*
X163285300Y-85445934D01*
X163305583Y-85240000D01*
X163285300Y-85034066D01*
X163225232Y-84836046D01*
X163127685Y-84653550D01*
X163071722Y-84585358D01*
X162996410Y-84493589D01*
X162857444Y-84379544D01*
X162836450Y-84362315D01*
X162653954Y-84264768D01*
X162455934Y-84204700D01*
X162455932Y-84204699D01*
X162455934Y-84204699D01*
X162250000Y-84184417D01*
X162044067Y-84204699D01*
X161846043Y-84264769D01*
X161735898Y-84323643D01*
X161663550Y-84362315D01*
X161663548Y-84362316D01*
X161663547Y-84362317D01*
X161503589Y-84493589D01*
X161372317Y-84653547D01*
X161372315Y-84653550D01*
X161365391Y-84666504D01*
X161274769Y-84836043D01*
X161214699Y-85034067D01*
X161194417Y-85240000D01*
X154021939Y-85240000D01*
X154101801Y-85206920D01*
X154227242Y-85110666D01*
X154323496Y-84985225D01*
X154384004Y-84839146D01*
X154404642Y-84682384D01*
X154403420Y-84673104D01*
X154384004Y-84525623D01*
X154384004Y-84525622D01*
X154323496Y-84379543D01*
X154227242Y-84254102D01*
X154101801Y-84157848D01*
X154031721Y-84128820D01*
X153955722Y-84097340D01*
X153955720Y-84097339D01*
X153798961Y-84076702D01*
X153798959Y-84076702D01*
X153642199Y-84097339D01*
X153642197Y-84097340D01*
X153496120Y-84157847D01*
X153370678Y-84254102D01*
X153274423Y-84379544D01*
X153213916Y-84525621D01*
X153213915Y-84525623D01*
X153193278Y-84682382D01*
X153193278Y-84682385D01*
X152580543Y-84682385D01*
X152559846Y-84666504D01*
X152534610Y-84656051D01*
X152413767Y-84605996D01*
X152413765Y-84605995D01*
X152257006Y-84585358D01*
X152257004Y-84585358D01*
X152100244Y-84605995D01*
X152100242Y-84605996D01*
X151954165Y-84666503D01*
X151828723Y-84762758D01*
X151732468Y-84888200D01*
X151671961Y-85034277D01*
X151671960Y-85034279D01*
X151651323Y-85191038D01*
X151651323Y-85191041D01*
X150829996Y-85191041D01*
X150819414Y-85110666D01*
X150818192Y-85101386D01*
X150757684Y-84955307D01*
X150661430Y-84829866D01*
X150535989Y-84733612D01*
X150488308Y-84713862D01*
X150389910Y-84673104D01*
X150389908Y-84673103D01*
X150233149Y-84652466D01*
X150233147Y-84652466D01*
X150076387Y-84673103D01*
X150076385Y-84673104D01*
X149930308Y-84733611D01*
X149804866Y-84829866D01*
X149708611Y-84955308D01*
X149648104Y-85101385D01*
X149648103Y-85101387D01*
X149627466Y-85258146D01*
X149627466Y-85258149D01*
X145615596Y-85258149D01*
X145618335Y-85237347D01*
X145614017Y-85204552D01*
X145597697Y-85080586D01*
X145597697Y-85080585D01*
X145553130Y-84972993D01*
X145545662Y-84903524D01*
X145576937Y-84841045D01*
X145615386Y-84814351D01*
X145615288Y-84814180D01*
X145617341Y-84812994D01*
X145620245Y-84810978D01*
X145622325Y-84810117D01*
X145747766Y-84713863D01*
X145844020Y-84588422D01*
X145904528Y-84442343D01*
X145925166Y-84285581D01*
X145904528Y-84128819D01*
X145844020Y-83982740D01*
X145778345Y-83897150D01*
X147215107Y-83897150D01*
X147235744Y-84053909D01*
X147235745Y-84053911D01*
X147292901Y-84191899D01*
X147296253Y-84199990D01*
X147392507Y-84325431D01*
X147517948Y-84421685D01*
X147664027Y-84482193D01*
X147742408Y-84492512D01*
X147820788Y-84502831D01*
X147820789Y-84502831D01*
X147820790Y-84502831D01*
X147873043Y-84495951D01*
X147977551Y-84482193D01*
X148123630Y-84421685D01*
X148249071Y-84325431D01*
X148345325Y-84199990D01*
X148405833Y-84053911D01*
X148426471Y-83897149D01*
X148425853Y-83892458D01*
X148408553Y-83761045D01*
X148405833Y-83740387D01*
X148345325Y-83594308D01*
X148249071Y-83468867D01*
X148249068Y-83468865D01*
X148244123Y-83462420D01*
X148246909Y-83460281D01*
X148221151Y-83413109D01*
X148226135Y-83343417D01*
X148247173Y-83310681D01*
X148245674Y-83309531D01*
X148250619Y-83303085D01*
X148250622Y-83303084D01*
X148346876Y-83177643D01*
X148400395Y-83048434D01*
X148444234Y-82994033D01*
X148510528Y-82971968D01*
X148531483Y-82974354D01*
X148531650Y-82973087D01*
X148539707Y-82974147D01*
X148539708Y-82974148D01*
X148619364Y-82984634D01*
X148696469Y-82994786D01*
X148696470Y-82994786D01*
X148696471Y-82994786D01*
X148748724Y-82987906D01*
X148853232Y-82974148D01*
X148999311Y-82913640D01*
X149115154Y-82824751D01*
X151694068Y-82824751D01*
X151714705Y-82981510D01*
X151714706Y-82981512D01*
X151775214Y-83127591D01*
X151871468Y-83253032D01*
X151996909Y-83349286D01*
X152142988Y-83409794D01*
X152221369Y-83420113D01*
X152299749Y-83430432D01*
X152299750Y-83430432D01*
X152299751Y-83430432D01*
X152352004Y-83423552D01*
X152456512Y-83409794D01*
X152602591Y-83349286D01*
X152728032Y-83253032D01*
X152824286Y-83127591D01*
X152877136Y-83000001D01*
X156394318Y-83000001D01*
X156414955Y-83156760D01*
X156414956Y-83156762D01*
X156475464Y-83302841D01*
X156571718Y-83428282D01*
X156697159Y-83524536D01*
X156843238Y-83585044D01*
X156913613Y-83594309D01*
X156999999Y-83605682D01*
X157000000Y-83605682D01*
X157000001Y-83605682D01*
X157052254Y-83598802D01*
X157156762Y-83585044D01*
X157302841Y-83524536D01*
X157428282Y-83428282D01*
X157524536Y-83302841D01*
X157585044Y-83156762D01*
X157599305Y-83048437D01*
X157605682Y-83000001D01*
X157605682Y-82999998D01*
X157591923Y-82895492D01*
X157585044Y-82843238D01*
X157524536Y-82697159D01*
X157428282Y-82571718D01*
X157302841Y-82475464D01*
X157294823Y-82472143D01*
X157156762Y-82414956D01*
X157156760Y-82414955D01*
X157000001Y-82394318D01*
X156999999Y-82394318D01*
X156843239Y-82414955D01*
X156843237Y-82414956D01*
X156697160Y-82475463D01*
X156571718Y-82571718D01*
X156475463Y-82697160D01*
X156414956Y-82843237D01*
X156414955Y-82843239D01*
X156394318Y-82999998D01*
X156394318Y-83000001D01*
X152877136Y-83000001D01*
X152884794Y-82981512D01*
X152905432Y-82824750D01*
X152904462Y-82817385D01*
X152891383Y-82718039D01*
X152884794Y-82667988D01*
X152824286Y-82521909D01*
X152728032Y-82396468D01*
X152602591Y-82300214D01*
X152579909Y-82290819D01*
X152456512Y-82239706D01*
X152456510Y-82239705D01*
X152299751Y-82219068D01*
X152299749Y-82219068D01*
X152142989Y-82239705D01*
X152142987Y-82239706D01*
X151996910Y-82300213D01*
X151871468Y-82396468D01*
X151775213Y-82521910D01*
X151714706Y-82667987D01*
X151714705Y-82667989D01*
X151694068Y-82824748D01*
X151694068Y-82824751D01*
X149115154Y-82824751D01*
X149124752Y-82817386D01*
X149221006Y-82691945D01*
X149281514Y-82545866D01*
X149298749Y-82414955D01*
X149302152Y-82389105D01*
X149302152Y-82389102D01*
X149281514Y-82232343D01*
X149281514Y-82232342D01*
X149221006Y-82086263D01*
X149124752Y-81960822D01*
X148999311Y-81864568D01*
X148977858Y-81855682D01*
X148853232Y-81804060D01*
X148853230Y-81804059D01*
X148696471Y-81783422D01*
X148696469Y-81783422D01*
X148539709Y-81804059D01*
X148539707Y-81804060D01*
X148393630Y-81864567D01*
X148268188Y-81960822D01*
X148171933Y-82086264D01*
X148118415Y-82215469D01*
X148074574Y-82269872D01*
X148008280Y-82291937D01*
X147987325Y-82289565D01*
X147987160Y-82290819D01*
X147979102Y-82289758D01*
X147899445Y-82279271D01*
X147822341Y-82269120D01*
X147822339Y-82269120D01*
X147665579Y-82289757D01*
X147665577Y-82289758D01*
X147519500Y-82350265D01*
X147394058Y-82446520D01*
X147297803Y-82571962D01*
X147237296Y-82718039D01*
X147237295Y-82718041D01*
X147216658Y-82874800D01*
X147216658Y-82874803D01*
X147237295Y-83031562D01*
X147237296Y-83031564D01*
X147295106Y-83171131D01*
X147297804Y-83177643D01*
X147394058Y-83303084D01*
X147394060Y-83303085D01*
X147399006Y-83309531D01*
X147396219Y-83311669D01*
X147421978Y-83358842D01*
X147416994Y-83428534D01*
X147395955Y-83461269D01*
X147397455Y-83462420D01*
X147392509Y-83468865D01*
X147392507Y-83468867D01*
X147315097Y-83569750D01*
X147296252Y-83594309D01*
X147235745Y-83740386D01*
X147235744Y-83740388D01*
X147215107Y-83897147D01*
X147215107Y-83897150D01*
X145778345Y-83897150D01*
X145747766Y-83857299D01*
X145622325Y-83761045D01*
X145476246Y-83700537D01*
X145449234Y-83696980D01*
X145385339Y-83668714D01*
X145346868Y-83610389D01*
X145342482Y-83557859D01*
X145354816Y-83464176D01*
X145354433Y-83461269D01*
X145340949Y-83358842D01*
X145334178Y-83307414D01*
X145273670Y-83161335D01*
X145177416Y-83035894D01*
X145051975Y-82939640D01*
X144905896Y-82879132D01*
X144905894Y-82879131D01*
X144749135Y-82858494D01*
X144749133Y-82858494D01*
X144592373Y-82879131D01*
X144592371Y-82879132D01*
X144446294Y-82939639D01*
X144320852Y-83035894D01*
X144224597Y-83161336D01*
X144164090Y-83307413D01*
X144164089Y-83307415D01*
X144143452Y-83464174D01*
X144143452Y-83464177D01*
X143300500Y-83464177D01*
X143300500Y-83340252D01*
X143300500Y-83340249D01*
X143300499Y-83340247D01*
X143288868Y-83281770D01*
X143288867Y-83281769D01*
X143244552Y-83215447D01*
X143178230Y-83171132D01*
X143178229Y-83171131D01*
X143119752Y-83159500D01*
X143119748Y-83159500D01*
X141380252Y-83159500D01*
X141380247Y-83159500D01*
X141321770Y-83171131D01*
X141321769Y-83171132D01*
X141255447Y-83215447D01*
X141211132Y-83281769D01*
X141211131Y-83281770D01*
X141199500Y-83340247D01*
X141199500Y-85079752D01*
X140242895Y-85079752D01*
X140243388Y-82207948D01*
X140263084Y-82140916D01*
X140315896Y-82095170D01*
X140385056Y-82085238D01*
X140442874Y-82109597D01*
X140549380Y-82191322D01*
X140549381Y-82191322D01*
X140549382Y-82191323D01*
X140695461Y-82251831D01*
X140773842Y-82262150D01*
X140852222Y-82272469D01*
X140852223Y-82272469D01*
X140852224Y-82272469D01*
X140904477Y-82265589D01*
X141008985Y-82251831D01*
X141155064Y-82191323D01*
X141280505Y-82095069D01*
X141334270Y-82025001D01*
X141894318Y-82025001D01*
X141914955Y-82181760D01*
X141914956Y-82181762D01*
X141973481Y-82323055D01*
X141975464Y-82327841D01*
X142071718Y-82453282D01*
X142197159Y-82549536D01*
X142343238Y-82610044D01*
X142421619Y-82620363D01*
X142499999Y-82630682D01*
X142500000Y-82630682D01*
X142500001Y-82630682D01*
X142552254Y-82623802D01*
X142656762Y-82610044D01*
X142802841Y-82549536D01*
X142928282Y-82453282D01*
X143024536Y-82327841D01*
X143085044Y-82181762D01*
X143105682Y-82025000D01*
X143095493Y-81947608D01*
X143394318Y-81947608D01*
X143414955Y-82104367D01*
X143414956Y-82104369D01*
X143471014Y-82239706D01*
X143475464Y-82250448D01*
X143571718Y-82375889D01*
X143697159Y-82472143D01*
X143843238Y-82532651D01*
X143921619Y-82542970D01*
X143999999Y-82553289D01*
X144000000Y-82553289D01*
X144000001Y-82553289D01*
X144056399Y-82545864D01*
X144156762Y-82532651D01*
X144302841Y-82472143D01*
X144428282Y-82375889D01*
X144524536Y-82250448D01*
X144585044Y-82104369D01*
X144605682Y-81947607D01*
X144585044Y-81790845D01*
X144524536Y-81644766D01*
X144428282Y-81519325D01*
X144302841Y-81423071D01*
X144293780Y-81419318D01*
X144156762Y-81362563D01*
X144156760Y-81362562D01*
X144000001Y-81341925D01*
X143999999Y-81341925D01*
X143843239Y-81362562D01*
X143843237Y-81362563D01*
X143697160Y-81423070D01*
X143571718Y-81519325D01*
X143475463Y-81644767D01*
X143414956Y-81790844D01*
X143414955Y-81790846D01*
X143394318Y-81947605D01*
X143394318Y-81947608D01*
X143095493Y-81947608D01*
X143085044Y-81868238D01*
X143024536Y-81722159D01*
X142928282Y-81596718D01*
X142802841Y-81500464D01*
X142694445Y-81455565D01*
X142656762Y-81439956D01*
X142656760Y-81439955D01*
X142500001Y-81419318D01*
X142499999Y-81419318D01*
X142343239Y-81439955D01*
X142343237Y-81439956D01*
X142197160Y-81500463D01*
X142071718Y-81596718D01*
X141975463Y-81722160D01*
X141914956Y-81868237D01*
X141914955Y-81868239D01*
X141894318Y-82024998D01*
X141894318Y-82025001D01*
X141334270Y-82025001D01*
X141376759Y-81969628D01*
X141437267Y-81823549D01*
X141454122Y-81695525D01*
X141457905Y-81666788D01*
X141457905Y-81666785D01*
X141437267Y-81510026D01*
X141437267Y-81510025D01*
X141376759Y-81363946D01*
X141280505Y-81238505D01*
X141155064Y-81142251D01*
X141129741Y-81131762D01*
X141008985Y-81081743D01*
X141008983Y-81081742D01*
X140852224Y-81061105D01*
X140852222Y-81061105D01*
X140695462Y-81081742D01*
X140695460Y-81081743D01*
X140549380Y-81142251D01*
X140443060Y-81223834D01*
X140377891Y-81249028D01*
X140309446Y-81234989D01*
X140259457Y-81186175D01*
X140243575Y-81125440D01*
X140243601Y-80975001D01*
X151144317Y-80975001D01*
X151164954Y-81131760D01*
X151164955Y-81131762D01*
X151223864Y-81273982D01*
X151225463Y-81277841D01*
X151321717Y-81403282D01*
X151447158Y-81499536D01*
X151593237Y-81560044D01*
X151671618Y-81570363D01*
X151749998Y-81580682D01*
X151749999Y-81580682D01*
X151750000Y-81580682D01*
X151802253Y-81573802D01*
X151906761Y-81560044D01*
X152052840Y-81499536D01*
X152110145Y-81455564D01*
X152175312Y-81430371D01*
X152243757Y-81444409D01*
X152284004Y-81478453D01*
X152315017Y-81518870D01*
X152440458Y-81615124D01*
X152586537Y-81675632D01*
X152737644Y-81695525D01*
X152801540Y-81723791D01*
X152840011Y-81782116D01*
X152844397Y-81802278D01*
X152859898Y-81920015D01*
X152863530Y-81947605D01*
X152864541Y-81955279D01*
X152864541Y-81955281D01*
X152918795Y-82086263D01*
X152925049Y-82101360D01*
X153021303Y-82226801D01*
X153146744Y-82323055D01*
X153292823Y-82383563D01*
X153334919Y-82389105D01*
X153449584Y-82404201D01*
X153449585Y-82404201D01*
X153449586Y-82404201D01*
X153524654Y-82394318D01*
X153606347Y-82383563D01*
X153752426Y-82323055D01*
X153877867Y-82226801D01*
X153974121Y-82101360D01*
X154034629Y-81955281D01*
X154055267Y-81798519D01*
X154053279Y-81783422D01*
X154034629Y-81641758D01*
X154034629Y-81641757D01*
X153974121Y-81495678D01*
X153877867Y-81370237D01*
X153752426Y-81273983D01*
X153694526Y-81250000D01*
X156394318Y-81250000D01*
X156414955Y-81406760D01*
X156414956Y-81406762D01*
X156457728Y-81510024D01*
X156475464Y-81552841D01*
X156571718Y-81678282D01*
X156697159Y-81774536D01*
X156843238Y-81835044D01*
X156921619Y-81845363D01*
X156999999Y-81855682D01*
X157000000Y-81855682D01*
X157000001Y-81855682D01*
X157052254Y-81848802D01*
X157156762Y-81835044D01*
X157302841Y-81774536D01*
X157428282Y-81678282D01*
X157524536Y-81552841D01*
X157585044Y-81406762D01*
X157605682Y-81250000D01*
X158750000Y-81250000D01*
X158750000Y-84250000D01*
X160750000Y-84250000D01*
X160750000Y-83569752D01*
X161199500Y-83569752D01*
X161211131Y-83628229D01*
X161211132Y-83628230D01*
X161255447Y-83694552D01*
X161321769Y-83738867D01*
X161321770Y-83738868D01*
X161380247Y-83750499D01*
X161380250Y-83750500D01*
X161380252Y-83750500D01*
X163119750Y-83750500D01*
X163119751Y-83750499D01*
X163134568Y-83747552D01*
X163178229Y-83738868D01*
X163178229Y-83738867D01*
X163178231Y-83738867D01*
X163244552Y-83694552D01*
X163288867Y-83628231D01*
X163288867Y-83628229D01*
X163288868Y-83628229D01*
X163300499Y-83569752D01*
X163300500Y-83569750D01*
X163300500Y-81830249D01*
X163300499Y-81830247D01*
X163288868Y-81771770D01*
X163288867Y-81771769D01*
X163244552Y-81705447D01*
X163178230Y-81661132D01*
X163178229Y-81661131D01*
X163119752Y-81649500D01*
X163119748Y-81649500D01*
X161380252Y-81649500D01*
X161380247Y-81649500D01*
X161321770Y-81661131D01*
X161321769Y-81661132D01*
X161255447Y-81705447D01*
X161211132Y-81771769D01*
X161211131Y-81771770D01*
X161199500Y-81830247D01*
X161199500Y-83569752D01*
X160750000Y-83569752D01*
X160750000Y-81250000D01*
X158750000Y-81250000D01*
X157605682Y-81250000D01*
X157600873Y-81213475D01*
X157585044Y-81093239D01*
X157585044Y-81093238D01*
X157524536Y-80947159D01*
X157428282Y-80821718D01*
X157302841Y-80725464D01*
X157156762Y-80664956D01*
X157156760Y-80664955D01*
X157000001Y-80644318D01*
X156999999Y-80644318D01*
X156843239Y-80664955D01*
X156843237Y-80664956D01*
X156697160Y-80725463D01*
X156571718Y-80821718D01*
X156475463Y-80947160D01*
X156414956Y-81093237D01*
X156414955Y-81093239D01*
X156394318Y-81249998D01*
X156394318Y-81250000D01*
X153694526Y-81250000D01*
X153606347Y-81213475D01*
X153565656Y-81208118D01*
X153455239Y-81193581D01*
X153391343Y-81165314D01*
X153352872Y-81106990D01*
X153348486Y-81086827D01*
X153328343Y-80933827D01*
X153328343Y-80933826D01*
X153267835Y-80787747D01*
X153171581Y-80662306D01*
X153046140Y-80566052D01*
X152999468Y-80546720D01*
X152900061Y-80505544D01*
X152900059Y-80505543D01*
X152743300Y-80484906D01*
X152743298Y-80484906D01*
X152586538Y-80505543D01*
X152586536Y-80505544D01*
X152440456Y-80566052D01*
X152383154Y-80610022D01*
X152317984Y-80635216D01*
X152249540Y-80621177D01*
X152209293Y-80587133D01*
X152193116Y-80566051D01*
X152178281Y-80546718D01*
X152052840Y-80450464D01*
X151906761Y-80389956D01*
X151906759Y-80389955D01*
X151750000Y-80369318D01*
X151749998Y-80369318D01*
X151593238Y-80389955D01*
X151593236Y-80389956D01*
X151447159Y-80450463D01*
X151321717Y-80546718D01*
X151225462Y-80672160D01*
X151164955Y-80818237D01*
X151164954Y-80818239D01*
X151144317Y-80974998D01*
X151144317Y-80975001D01*
X140243601Y-80975001D01*
X140243755Y-80076634D01*
X142321402Y-80076634D01*
X142342039Y-80233393D01*
X142342040Y-80233395D01*
X142402548Y-80379474D01*
X142498802Y-80504915D01*
X142624243Y-80601169D01*
X142770322Y-80661677D01*
X142795229Y-80664956D01*
X142927083Y-80682315D01*
X142927084Y-80682315D01*
X142927085Y-80682315D01*
X143004219Y-80672160D01*
X143083846Y-80661677D01*
X143229925Y-80601169D01*
X143355366Y-80504915D01*
X143451620Y-80379474D01*
X143512128Y-80233395D01*
X143532766Y-80076633D01*
X143512128Y-79919871D01*
X143451620Y-79773792D01*
X143355366Y-79648351D01*
X143229925Y-79552097D01*
X143083846Y-79491589D01*
X143083844Y-79491588D01*
X142927085Y-79470951D01*
X142927083Y-79470951D01*
X142770323Y-79491588D01*
X142770321Y-79491589D01*
X142624244Y-79552096D01*
X142498802Y-79648351D01*
X142402547Y-79773793D01*
X142342040Y-79919870D01*
X142342039Y-79919872D01*
X142321402Y-80076631D01*
X142321402Y-80076634D01*
X140243755Y-80076634D01*
X140243940Y-79001100D01*
X141192809Y-79001100D01*
X141213446Y-79157859D01*
X141213447Y-79157861D01*
X141273955Y-79303940D01*
X141370209Y-79429381D01*
X141495650Y-79525635D01*
X141641729Y-79586143D01*
X141720110Y-79596462D01*
X141798490Y-79606781D01*
X141798491Y-79606781D01*
X141798492Y-79606781D01*
X141850745Y-79599901D01*
X141955253Y-79586143D01*
X142101332Y-79525635D01*
X142226773Y-79429381D01*
X142323027Y-79303940D01*
X142345369Y-79250001D01*
X156394318Y-79250001D01*
X156414955Y-79406760D01*
X156414956Y-79406762D01*
X156450092Y-79491589D01*
X156475464Y-79552841D01*
X156571718Y-79678282D01*
X156697159Y-79774536D01*
X156843238Y-79835044D01*
X156920609Y-79845230D01*
X156999999Y-79855682D01*
X157000000Y-79855682D01*
X157000001Y-79855682D01*
X157079391Y-79845230D01*
X157156762Y-79835044D01*
X157302841Y-79774536D01*
X157428282Y-79678282D01*
X157524536Y-79552841D01*
X157585044Y-79406762D01*
X157605682Y-79250000D01*
X157593551Y-79157859D01*
X157585044Y-79093239D01*
X157585044Y-79093238D01*
X157524536Y-78947159D01*
X157428282Y-78821718D01*
X157302841Y-78725464D01*
X157237162Y-78698259D01*
X157156762Y-78664956D01*
X157156760Y-78664955D01*
X157000001Y-78644318D01*
X156999999Y-78644318D01*
X156843239Y-78664955D01*
X156843237Y-78664956D01*
X156697160Y-78725463D01*
X156571718Y-78821718D01*
X156475463Y-78947160D01*
X156414956Y-79093237D01*
X156414955Y-79093239D01*
X156394318Y-79249998D01*
X156394318Y-79250001D01*
X142345369Y-79250001D01*
X142383535Y-79157861D01*
X142404173Y-79001099D01*
X142383535Y-78844337D01*
X142323027Y-78698258D01*
X142226773Y-78572817D01*
X142101332Y-78476563D01*
X141955253Y-78416055D01*
X141955251Y-78416054D01*
X141798492Y-78395417D01*
X141798490Y-78395417D01*
X141641730Y-78416054D01*
X141641728Y-78416055D01*
X141495651Y-78476562D01*
X141370209Y-78572817D01*
X141273954Y-78698259D01*
X141213447Y-78844336D01*
X141213446Y-78844338D01*
X141192809Y-79001097D01*
X141192809Y-79001100D01*
X140243940Y-79001100D01*
X140244098Y-78079761D01*
X153853478Y-78079761D01*
X153874115Y-78236520D01*
X153874116Y-78236522D01*
X153934624Y-78382601D01*
X154030878Y-78508042D01*
X154156319Y-78604296D01*
X154302398Y-78664804D01*
X154380779Y-78675123D01*
X154459159Y-78685442D01*
X154459160Y-78685442D01*
X154459161Y-78685442D01*
X154511414Y-78678562D01*
X154615922Y-78664804D01*
X154762001Y-78604296D01*
X154887442Y-78508042D01*
X154983696Y-78382601D01*
X155044204Y-78236522D01*
X155064842Y-78079760D01*
X155064842Y-78079758D01*
X155064842Y-78073025D01*
X155084527Y-78005986D01*
X155137331Y-77960231D01*
X155172653Y-77950086D01*
X155298060Y-77933577D01*
X155444139Y-77873069D01*
X155569580Y-77776815D01*
X155665834Y-77651374D01*
X155726342Y-77505295D01*
X155746132Y-77354969D01*
X155774398Y-77291074D01*
X155832723Y-77252603D01*
X155863900Y-77250000D01*
X158750000Y-77250000D01*
X158750000Y-80250000D01*
X160750000Y-80250000D01*
X160750000Y-78870000D01*
X161194417Y-78870000D01*
X161214699Y-79075932D01*
X161219949Y-79093238D01*
X161274768Y-79273954D01*
X161372315Y-79456450D01*
X161372317Y-79456452D01*
X161503589Y-79616410D01*
X161600209Y-79695702D01*
X161663550Y-79747685D01*
X161846046Y-79845232D01*
X162044066Y-79905300D01*
X162044065Y-79905300D01*
X162062529Y-79907118D01*
X162250000Y-79925583D01*
X162455934Y-79905300D01*
X162653954Y-79845232D01*
X162836450Y-79747685D01*
X162996410Y-79616410D01*
X163127685Y-79456450D01*
X163225232Y-79273954D01*
X163285300Y-79075934D01*
X163305583Y-78870000D01*
X163285300Y-78664066D01*
X163225232Y-78466046D01*
X163127685Y-78283550D01*
X163075702Y-78220209D01*
X162996410Y-78123589D01*
X162836452Y-77992317D01*
X162836453Y-77992317D01*
X162836450Y-77992315D01*
X162653954Y-77894768D01*
X162455934Y-77834700D01*
X162455932Y-77834699D01*
X162455934Y-77834699D01*
X162250000Y-77814417D01*
X162044067Y-77834699D01*
X161846043Y-77894769D01*
X161742554Y-77950086D01*
X161663550Y-77992315D01*
X161663548Y-77992316D01*
X161663547Y-77992317D01*
X161503589Y-78123589D01*
X161372317Y-78283547D01*
X161274769Y-78466043D01*
X161214699Y-78664067D01*
X161194417Y-78870000D01*
X160750000Y-78870000D01*
X160750000Y-77250000D01*
X158750000Y-77250000D01*
X155863900Y-77250000D01*
X155885255Y-77248217D01*
X155893639Y-77249321D01*
X156050401Y-77228683D01*
X156196480Y-77168175D01*
X156321921Y-77071921D01*
X156418175Y-76946480D01*
X156478683Y-76800401D01*
X156496069Y-76668339D01*
X156499321Y-76643640D01*
X156499321Y-76643637D01*
X156478683Y-76486878D01*
X156478683Y-76486877D01*
X156418175Y-76340798D01*
X156409889Y-76330000D01*
X161194417Y-76330000D01*
X161214699Y-76535932D01*
X161215920Y-76539956D01*
X161274768Y-76733954D01*
X161372315Y-76916450D01*
X161396958Y-76946478D01*
X161503589Y-77076410D01*
X161600209Y-77155702D01*
X161663550Y-77207685D01*
X161846046Y-77305232D01*
X162044066Y-77365300D01*
X162044065Y-77365300D01*
X162062529Y-77367118D01*
X162250000Y-77385583D01*
X162455934Y-77365300D01*
X162653954Y-77305232D01*
X162836450Y-77207685D01*
X162996410Y-77076410D01*
X163127685Y-76916450D01*
X163225232Y-76733954D01*
X163285300Y-76535934D01*
X163305583Y-76330000D01*
X163285300Y-76124066D01*
X163225232Y-75926046D01*
X163127685Y-75743550D01*
X163075702Y-75680209D01*
X162996410Y-75583589D01*
X162836452Y-75452317D01*
X162836453Y-75452317D01*
X162836450Y-75452315D01*
X162653954Y-75354768D01*
X162455934Y-75294700D01*
X162455932Y-75294699D01*
X162455934Y-75294699D01*
X162250000Y-75274417D01*
X162044067Y-75294699D01*
X161846043Y-75354769D01*
X161735898Y-75413643D01*
X161663550Y-75452315D01*
X161663548Y-75452316D01*
X161663547Y-75452317D01*
X161503589Y-75583589D01*
X161372317Y-75743547D01*
X161274769Y-75926043D01*
X161214699Y-76124067D01*
X161194417Y-76330000D01*
X156409889Y-76330000D01*
X156321921Y-76215357D01*
X156196480Y-76119103D01*
X156050401Y-76058595D01*
X156050399Y-76058594D01*
X155893640Y-76037957D01*
X155893638Y-76037957D01*
X155736878Y-76058594D01*
X155736876Y-76058595D01*
X155590799Y-76119102D01*
X155465357Y-76215357D01*
X155369102Y-76340799D01*
X155308595Y-76486876D01*
X155308595Y-76486877D01*
X155288804Y-76637201D01*
X155260537Y-76701097D01*
X155202213Y-76739568D01*
X155149683Y-76743954D01*
X155141298Y-76742851D01*
X155141296Y-76742851D01*
X155141295Y-76742851D01*
X154984537Y-76763488D01*
X154984535Y-76763489D01*
X154838458Y-76823996D01*
X154713016Y-76920251D01*
X154616761Y-77045693D01*
X154556254Y-77191770D01*
X154556253Y-77191772D01*
X154535616Y-77348531D01*
X154535616Y-77355267D01*
X154515931Y-77422306D01*
X154463127Y-77468061D01*
X154427802Y-77478206D01*
X154302398Y-77494716D01*
X154302397Y-77494716D01*
X154156320Y-77555223D01*
X154030878Y-77651478D01*
X153934623Y-77776920D01*
X153874116Y-77922997D01*
X153874115Y-77922999D01*
X153853478Y-78079758D01*
X153853478Y-78079761D01*
X140244098Y-78079761D01*
X140244262Y-77125001D01*
X145244318Y-77125001D01*
X145264955Y-77281760D01*
X145264956Y-77281762D01*
X145325464Y-77427841D01*
X145421718Y-77553282D01*
X145547159Y-77649536D01*
X145693238Y-77710044D01*
X145771619Y-77720363D01*
X145849999Y-77730682D01*
X145850000Y-77730682D01*
X145850001Y-77730682D01*
X145902254Y-77723802D01*
X146006762Y-77710044D01*
X146152841Y-77649536D01*
X146278282Y-77553282D01*
X146374536Y-77427841D01*
X146435044Y-77281762D01*
X146455682Y-77125000D01*
X146435044Y-76968238D01*
X146374536Y-76822159D01*
X146278282Y-76696718D01*
X146152841Y-76600464D01*
X146006762Y-76539956D01*
X146006760Y-76539955D01*
X145850001Y-76519318D01*
X145849999Y-76519318D01*
X145693239Y-76539955D01*
X145693237Y-76539956D01*
X145547160Y-76600463D01*
X145421718Y-76696718D01*
X145325463Y-76822160D01*
X145264956Y-76968237D01*
X145264955Y-76968239D01*
X145244318Y-77124998D01*
X145244318Y-77125001D01*
X140244262Y-77125001D01*
X140244393Y-76365499D01*
X147368401Y-76365499D01*
X147389038Y-76522258D01*
X147389039Y-76522260D01*
X147396368Y-76539955D01*
X147449547Y-76668339D01*
X147545801Y-76793780D01*
X147671242Y-76890034D01*
X147817321Y-76950542D01*
X147895702Y-76960861D01*
X147974082Y-76971180D01*
X147974083Y-76971180D01*
X147974084Y-76971180D01*
X148026337Y-76964300D01*
X148130845Y-76950542D01*
X148276924Y-76890034D01*
X148402365Y-76793780D01*
X148498619Y-76668339D01*
X148559127Y-76522260D01*
X148579765Y-76365498D01*
X148576513Y-76340799D01*
X148559127Y-76208737D01*
X148559127Y-76208736D01*
X148498619Y-76062657D01*
X148402365Y-75937216D01*
X148276924Y-75840962D01*
X148130845Y-75780454D01*
X148130843Y-75780453D01*
X147974084Y-75759816D01*
X147974082Y-75759816D01*
X147817322Y-75780453D01*
X147817320Y-75780454D01*
X147671243Y-75840961D01*
X147545801Y-75937216D01*
X147449546Y-76062658D01*
X147389039Y-76208735D01*
X147389038Y-76208737D01*
X147368401Y-76365496D01*
X147368401Y-76365499D01*
X140244393Y-76365499D01*
X140244679Y-74699192D01*
X143419318Y-74699192D01*
X143439955Y-74855951D01*
X143439956Y-74855953D01*
X143500464Y-75002032D01*
X143596718Y-75127473D01*
X143722159Y-75223727D01*
X143868238Y-75284235D01*
X143946619Y-75294554D01*
X144024999Y-75304873D01*
X144025000Y-75304873D01*
X144025001Y-75304873D01*
X144102272Y-75294700D01*
X144181762Y-75284235D01*
X144327841Y-75223727D01*
X144453282Y-75127473D01*
X144549536Y-75002032D01*
X144610044Y-74855953D01*
X144630682Y-74699191D01*
X144624392Y-74651417D01*
X144610044Y-74542430D01*
X144610044Y-74542429D01*
X144549536Y-74396350D01*
X144453282Y-74270909D01*
X144327841Y-74174655D01*
X144304423Y-74164955D01*
X144181762Y-74114147D01*
X144181760Y-74114146D01*
X144025001Y-74093509D01*
X144024999Y-74093509D01*
X143868239Y-74114146D01*
X143868237Y-74114147D01*
X143722160Y-74174654D01*
X143596718Y-74270909D01*
X143500463Y-74396351D01*
X143439956Y-74542428D01*
X143439955Y-74542430D01*
X143419318Y-74699189D01*
X143419318Y-74699192D01*
X140244679Y-74699192D01*
X140245259Y-71322560D01*
X141638724Y-71322560D01*
X141676240Y-71462570D01*
X141676241Y-71462573D01*
X141748712Y-71588096D01*
X141748714Y-71588098D01*
X141748715Y-71588100D01*
X141851209Y-71690594D01*
X141851210Y-71690595D01*
X141851212Y-71690596D01*
X141976735Y-71763067D01*
X141976736Y-71763067D01*
X141976739Y-71763069D01*
X142116749Y-71800585D01*
X142116752Y-71800585D01*
X142261696Y-71800585D01*
X142261699Y-71800585D01*
X142401709Y-71763069D01*
X142527239Y-71690594D01*
X142629733Y-71588100D01*
X142702208Y-71462570D01*
X142739724Y-71322560D01*
X142739724Y-71177610D01*
X142702208Y-71037600D01*
X142629733Y-70912070D01*
X142527239Y-70809576D01*
X142527237Y-70809575D01*
X142527235Y-70809573D01*
X142401712Y-70737102D01*
X142401713Y-70737102D01*
X142390230Y-70734025D01*
X142261699Y-70699585D01*
X142116749Y-70699585D01*
X141988217Y-70734025D01*
X141976735Y-70737102D01*
X141851212Y-70809573D01*
X141851206Y-70809578D01*
X141748717Y-70912067D01*
X141748712Y-70912073D01*
X141676241Y-71037596D01*
X141676240Y-71037600D01*
X141638724Y-71177610D01*
X141638724Y-71322560D01*
X140245259Y-71322560D01*
X140245775Y-68322560D01*
X141638724Y-68322560D01*
X141676240Y-68462570D01*
X141676241Y-68462573D01*
X141748712Y-68588096D01*
X141748714Y-68588098D01*
X141748715Y-68588100D01*
X141851209Y-68690594D01*
X141851210Y-68690595D01*
X141851212Y-68690596D01*
X141976735Y-68763067D01*
X141976736Y-68763067D01*
X141976739Y-68763069D01*
X142116749Y-68800585D01*
X142116752Y-68800585D01*
X142261696Y-68800585D01*
X142261699Y-68800585D01*
X142401709Y-68763069D01*
X142527239Y-68690594D01*
X142629733Y-68588100D01*
X142702208Y-68462570D01*
X142739724Y-68322560D01*
X142739724Y-68177610D01*
X142702208Y-68037600D01*
X142629733Y-67912070D01*
X142527239Y-67809576D01*
X142527237Y-67809575D01*
X142527235Y-67809573D01*
X142401712Y-67737102D01*
X142401713Y-67737102D01*
X142390230Y-67734025D01*
X142261699Y-67699585D01*
X142116749Y-67699585D01*
X141988217Y-67734025D01*
X141976735Y-67737102D01*
X141851212Y-67809573D01*
X141851206Y-67809578D01*
X141748717Y-67912067D01*
X141748712Y-67912073D01*
X141676241Y-68037596D01*
X141676240Y-68037600D01*
X141638724Y-68177610D01*
X141638724Y-68322560D01*
X140245775Y-68322560D01*
X140246463Y-64321909D01*
X141243931Y-64321909D01*
X141255562Y-64380386D01*
X141255563Y-64380387D01*
X141299878Y-64446709D01*
X141366200Y-64491024D01*
X141366201Y-64491025D01*
X141424678Y-64502656D01*
X141424681Y-64502657D01*
X141424683Y-64502657D01*
X143164181Y-64502657D01*
X143164182Y-64502656D01*
X143178999Y-64499709D01*
X143222660Y-64491025D01*
X143222660Y-64491024D01*
X143222662Y-64491024D01*
X143288983Y-64446709D01*
X143333298Y-64380388D01*
X143333298Y-64380386D01*
X143333299Y-64380386D01*
X143344930Y-64321909D01*
X143344931Y-64321907D01*
X143344931Y-62582406D01*
X143344930Y-62582404D01*
X143333299Y-62523927D01*
X143333298Y-62523926D01*
X143288983Y-62457604D01*
X143222661Y-62413289D01*
X143222660Y-62413288D01*
X143164183Y-62401657D01*
X143164179Y-62401657D01*
X141424683Y-62401657D01*
X141424678Y-62401657D01*
X141366201Y-62413288D01*
X141366200Y-62413289D01*
X141299878Y-62457604D01*
X141255563Y-62523926D01*
X141255562Y-62523927D01*
X141243931Y-62582404D01*
X141243931Y-64321909D01*
X140246463Y-64321909D01*
X140247486Y-58372157D01*
X141238848Y-58372157D01*
X141259130Y-58578089D01*
X141263726Y-58593239D01*
X141319199Y-58776111D01*
X141416746Y-58958607D01*
X141416748Y-58958609D01*
X141548020Y-59118567D01*
X141594562Y-59156762D01*
X141707981Y-59249842D01*
X141890477Y-59347389D01*
X142088497Y-59407457D01*
X142088496Y-59407457D01*
X142106960Y-59409275D01*
X142294431Y-59427740D01*
X142500365Y-59407457D01*
X142698385Y-59347389D01*
X142880881Y-59249842D01*
X143040841Y-59118567D01*
X143172116Y-58958607D01*
X143269663Y-58776111D01*
X143277583Y-58750001D01*
X147894318Y-58750001D01*
X147914955Y-58906760D01*
X147914956Y-58906762D01*
X147953576Y-59000000D01*
X147975464Y-59052841D01*
X148071718Y-59178282D01*
X148197159Y-59274536D01*
X148343238Y-59335044D01*
X148405478Y-59343238D01*
X148499999Y-59355682D01*
X148500000Y-59355682D01*
X148500001Y-59355682D01*
X148594514Y-59343239D01*
X148656762Y-59335044D01*
X148802841Y-59274536D01*
X148928282Y-59178282D01*
X149024536Y-59052841D01*
X149046423Y-59000001D01*
X150894318Y-59000001D01*
X150914955Y-59156760D01*
X150914956Y-59156762D01*
X150975464Y-59302841D01*
X151071718Y-59428282D01*
X151197159Y-59524536D01*
X151343238Y-59585044D01*
X151421619Y-59595363D01*
X151499999Y-59605682D01*
X151500000Y-59605682D01*
X151500001Y-59605682D01*
X151552254Y-59598802D01*
X151656762Y-59585044D01*
X151802841Y-59524536D01*
X151834816Y-59500001D01*
X154144318Y-59500001D01*
X154164955Y-59656760D01*
X154164956Y-59656762D01*
X154225464Y-59802841D01*
X154321718Y-59928282D01*
X154447159Y-60024536D01*
X154593238Y-60085044D01*
X154671619Y-60095363D01*
X154749999Y-60105682D01*
X154750000Y-60105682D01*
X154750001Y-60105682D01*
X154802254Y-60098802D01*
X154906762Y-60085044D01*
X155052841Y-60024536D01*
X155178282Y-59928282D01*
X155274536Y-59802841D01*
X155335044Y-59656762D01*
X155355682Y-59500000D01*
X155335044Y-59343238D01*
X155274536Y-59197159D01*
X155178282Y-59071718D01*
X155052841Y-58975464D01*
X155012149Y-58958609D01*
X154906762Y-58914956D01*
X154906760Y-58914955D01*
X154750001Y-58894318D01*
X154749999Y-58894318D01*
X154593239Y-58914955D01*
X154593237Y-58914956D01*
X154447160Y-58975463D01*
X154321718Y-59071718D01*
X154225463Y-59197160D01*
X154164956Y-59343237D01*
X154164955Y-59343239D01*
X154144318Y-59499998D01*
X154144318Y-59500001D01*
X151834816Y-59500001D01*
X151928282Y-59428282D01*
X152024536Y-59302841D01*
X152085044Y-59156762D01*
X152105682Y-59000000D01*
X152085044Y-58843238D01*
X152024536Y-58697159D01*
X151928282Y-58571718D01*
X151802841Y-58475464D01*
X151656762Y-58414956D01*
X151656760Y-58414955D01*
X151500001Y-58394318D01*
X151499999Y-58394318D01*
X151343239Y-58414955D01*
X151343237Y-58414956D01*
X151197160Y-58475463D01*
X151071718Y-58571718D01*
X150975463Y-58697160D01*
X150914956Y-58843237D01*
X150914955Y-58843239D01*
X150894318Y-58999998D01*
X150894318Y-59000001D01*
X149046423Y-59000001D01*
X149085044Y-58906762D01*
X149102244Y-58776113D01*
X149105682Y-58750001D01*
X149105682Y-58749998D01*
X149085044Y-58593239D01*
X149085044Y-58593238D01*
X149024536Y-58447159D01*
X148962819Y-58366727D01*
X148937626Y-58301560D01*
X148951664Y-58233116D01*
X148962812Y-58215767D01*
X149049536Y-58102747D01*
X149110044Y-57956668D01*
X149130682Y-57799906D01*
X149128812Y-57785704D01*
X149124112Y-57750001D01*
X151894318Y-57750001D01*
X151914955Y-57906760D01*
X151914956Y-57906762D01*
X151975464Y-58052841D01*
X152071718Y-58178282D01*
X152197159Y-58274536D01*
X152343238Y-58335044D01*
X152421619Y-58345363D01*
X152499999Y-58355682D01*
X152500000Y-58355682D01*
X152500001Y-58355682D01*
X152552254Y-58348802D01*
X152656762Y-58335044D01*
X152743352Y-58299176D01*
X152812820Y-58291708D01*
X152875300Y-58322983D01*
X152910952Y-58383072D01*
X152913742Y-58397547D01*
X152914954Y-58406756D01*
X152914956Y-58406762D01*
X152975464Y-58552841D01*
X153071718Y-58678282D01*
X153197159Y-58774536D01*
X153343238Y-58835044D01*
X153405478Y-58843238D01*
X153499999Y-58855682D01*
X153500000Y-58855682D01*
X153500001Y-58855682D01*
X153594514Y-58843239D01*
X153656762Y-58835044D01*
X153802841Y-58774536D01*
X153928282Y-58678282D01*
X154024536Y-58552841D01*
X154085044Y-58406762D01*
X154105682Y-58250000D01*
X154102810Y-58228188D01*
X154085044Y-58093239D01*
X154085044Y-58093238D01*
X154024536Y-57947159D01*
X153928282Y-57821718D01*
X153802841Y-57725464D01*
X153743352Y-57700823D01*
X153656762Y-57664956D01*
X153656760Y-57664955D01*
X153500001Y-57644318D01*
X153499999Y-57644318D01*
X153343240Y-57664955D01*
X153256647Y-57700823D01*
X153187177Y-57708291D01*
X153124698Y-57677015D01*
X153089046Y-57616926D01*
X153086256Y-57602445D01*
X153085044Y-57593240D01*
X153085044Y-57593239D01*
X153085044Y-57593238D01*
X153024536Y-57447159D01*
X152928282Y-57321718D01*
X152802841Y-57225464D01*
X152656762Y-57164956D01*
X152656760Y-57164955D01*
X152500001Y-57144318D01*
X152499999Y-57144318D01*
X152343239Y-57164955D01*
X152343237Y-57164956D01*
X152197160Y-57225463D01*
X152071718Y-57321718D01*
X151975463Y-57447160D01*
X151914956Y-57593237D01*
X151914955Y-57593239D01*
X151894318Y-57749998D01*
X151894318Y-57750001D01*
X149124112Y-57750001D01*
X149112915Y-57664955D01*
X149110044Y-57643144D01*
X149049536Y-57497065D01*
X148953282Y-57371624D01*
X148827841Y-57275370D01*
X148707357Y-57225464D01*
X148681762Y-57214862D01*
X148681760Y-57214861D01*
X148525001Y-57194224D01*
X148524999Y-57194224D01*
X148368239Y-57214861D01*
X148368237Y-57214862D01*
X148222160Y-57275369D01*
X148096718Y-57371624D01*
X148000463Y-57497066D01*
X147939956Y-57643143D01*
X147939955Y-57643145D01*
X147919318Y-57799904D01*
X147919318Y-57799907D01*
X147939955Y-57956666D01*
X147939956Y-57956668D01*
X148000464Y-58102748D01*
X148062179Y-58183176D01*
X148087373Y-58248345D01*
X148073335Y-58316790D01*
X148062179Y-58334148D01*
X147975464Y-58447157D01*
X147914956Y-58593237D01*
X147914955Y-58593239D01*
X147894318Y-58749998D01*
X147894318Y-58750001D01*
X143277583Y-58750001D01*
X143329731Y-58578091D01*
X143350014Y-58372157D01*
X143329731Y-58166223D01*
X143269663Y-57968203D01*
X143172116Y-57785707D01*
X143102454Y-57700823D01*
X143040841Y-57625746D01*
X142923108Y-57529126D01*
X142880881Y-57494472D01*
X142698385Y-57396925D01*
X142500365Y-57336857D01*
X142500363Y-57336856D01*
X142500365Y-57336856D01*
X142294431Y-57316574D01*
X142088498Y-57336856D01*
X141890474Y-57396926D01*
X141796495Y-57447160D01*
X141707981Y-57494472D01*
X141707979Y-57494473D01*
X141707978Y-57494474D01*
X141548020Y-57625746D01*
X141416748Y-57785704D01*
X141416746Y-57785707D01*
X141409156Y-57799907D01*
X141319200Y-57968200D01*
X141259130Y-58166224D01*
X141238848Y-58372157D01*
X140247486Y-58372157D01*
X140247975Y-55525001D01*
X150749889Y-55525001D01*
X150770526Y-55681760D01*
X150770527Y-55681762D01*
X150831035Y-55827841D01*
X150927289Y-55953282D01*
X151052730Y-56049536D01*
X151198809Y-56110044D01*
X151277190Y-56120363D01*
X151355570Y-56130682D01*
X151355571Y-56130682D01*
X151505181Y-56110985D01*
X151574213Y-56121750D01*
X151626469Y-56168130D01*
X151645355Y-56235399D01*
X151644318Y-56249906D01*
X151644318Y-56250001D01*
X151664955Y-56406760D01*
X151664956Y-56406762D01*
X151725464Y-56552841D01*
X151821718Y-56678282D01*
X151947159Y-56774536D01*
X152093238Y-56835044D01*
X152171619Y-56845363D01*
X152249999Y-56855682D01*
X152250000Y-56855682D01*
X152250001Y-56855682D01*
X152302254Y-56848802D01*
X152406762Y-56835044D01*
X152552841Y-56774536D01*
X152678282Y-56678282D01*
X152774536Y-56552841D01*
X152835044Y-56406762D01*
X152855682Y-56250000D01*
X152835044Y-56093238D01*
X152774536Y-55947159D01*
X152678282Y-55821718D01*
X152552841Y-55725464D01*
X152406762Y-55664956D01*
X152406760Y-55664955D01*
X152250001Y-55644318D01*
X152249999Y-55644318D01*
X152100391Y-55664014D01*
X152031356Y-55653248D01*
X151979100Y-55606868D01*
X151960215Y-55539599D01*
X151961253Y-55525089D01*
X151961253Y-55524998D01*
X151940615Y-55368239D01*
X151940615Y-55368238D01*
X151880107Y-55222159D01*
X151783853Y-55096718D01*
X151658412Y-55000464D01*
X151512333Y-54939956D01*
X151512331Y-54939955D01*
X151355572Y-54919318D01*
X151355570Y-54919318D01*
X151198810Y-54939955D01*
X151198808Y-54939956D01*
X151052731Y-55000463D01*
X150927289Y-55096718D01*
X150831034Y-55222160D01*
X150770527Y-55368237D01*
X150770526Y-55368239D01*
X150749889Y-55524998D01*
X150749889Y-55525001D01*
X140247975Y-55525001D01*
X140248319Y-53527004D01*
X144161741Y-53527004D01*
X144182378Y-53683763D01*
X144182379Y-53683765D01*
X144242887Y-53829844D01*
X144339141Y-53955285D01*
X144464582Y-54051539D01*
X144610661Y-54112047D01*
X144689042Y-54122366D01*
X144767422Y-54132685D01*
X144767423Y-54132685D01*
X144767424Y-54132685D01*
X144819677Y-54125805D01*
X144924185Y-54112047D01*
X145070264Y-54051539D01*
X145195705Y-53955285D01*
X145291959Y-53829844D01*
X145352467Y-53683765D01*
X145373105Y-53527003D01*
X145352467Y-53370241D01*
X145291959Y-53224162D01*
X145195705Y-53098721D01*
X145070264Y-53002467D01*
X144924185Y-52941959D01*
X144924183Y-52941958D01*
X144767424Y-52921321D01*
X144767422Y-52921321D01*
X144610662Y-52941958D01*
X144610660Y-52941959D01*
X144464583Y-53002466D01*
X144339141Y-53098721D01*
X144242886Y-53224163D01*
X144182379Y-53370240D01*
X144182378Y-53370242D01*
X144161741Y-53527001D01*
X144161741Y-53527004D01*
X140248319Y-53527004D01*
X140248941Y-49911323D01*
X141140381Y-49911323D01*
X141161018Y-50068082D01*
X141161019Y-50068084D01*
X141221527Y-50214163D01*
X141317781Y-50339604D01*
X141443222Y-50435858D01*
X141589301Y-50496366D01*
X141667682Y-50506685D01*
X141746062Y-50517004D01*
X141746063Y-50517004D01*
X141746064Y-50517004D01*
X141798317Y-50510124D01*
X141902825Y-50496366D01*
X142048904Y-50435858D01*
X142174345Y-50339604D01*
X142270599Y-50214163D01*
X142331107Y-50068084D01*
X142351745Y-49911322D01*
X142331107Y-49754560D01*
X142270599Y-49608481D01*
X142174345Y-49483040D01*
X142048904Y-49386786D01*
X141902825Y-49326278D01*
X141902823Y-49326277D01*
X141746064Y-49305640D01*
X141746062Y-49305640D01*
X141589302Y-49326277D01*
X141589300Y-49326278D01*
X141443223Y-49386785D01*
X141317781Y-49483040D01*
X141221526Y-49608482D01*
X141161019Y-49754559D01*
X141161018Y-49754561D01*
X141140381Y-49911320D01*
X141140381Y-49911323D01*
X140248941Y-49911323D01*
X140249205Y-48373978D01*
X140268901Y-48306943D01*
X140321713Y-48261197D01*
X140373205Y-48250000D01*
X158626000Y-48250000D01*
X158693039Y-48269685D01*
G37*
%TD.AperFunction*%
%TD*%
M02*
