%TF.GenerationSoftware,KiCad,Pcbnew,8.0.1*%
%TF.CreationDate,2024-07-18T12:12:42-04:00*%
%TF.ProjectId,Tiny4FSK,54696e79-3446-4534-9b2e-6b696361645f,rev?*%
%TF.SameCoordinates,Original*%
%TF.FileFunction,Legend,Top*%
%TF.FilePolarity,Positive*%
%FSLAX46Y46*%
G04 Gerber Fmt 4.6, Leading zero omitted, Abs format (unit mm)*
G04 Created by KiCad (PCBNEW 8.0.1) date 2024-07-18 12:12:42*
%MOMM*%
%LPD*%
G01*
G04 APERTURE LIST*
%ADD10C,0.175000*%
%ADD11C,0.125000*%
%ADD12C,0.100000*%
%ADD13C,0.120000*%
%ADD14C,0.500000*%
%ADD15C,0.127000*%
%ADD16C,0.254000*%
%ADD17C,0.300000*%
%ADD18C,0.152500*%
%ADD19C,0.152000*%
%ADD20C,0.200000*%
G04 APERTURE END LIST*
D10*
X163121900Y-65251535D02*
X163155233Y-65151535D01*
X163155233Y-65151535D02*
X163155233Y-64984869D01*
X163155233Y-64984869D02*
X163121900Y-64918202D01*
X163121900Y-64918202D02*
X163088566Y-64884869D01*
X163088566Y-64884869D02*
X163021900Y-64851535D01*
X163021900Y-64851535D02*
X162955233Y-64851535D01*
X162955233Y-64851535D02*
X162888566Y-64884869D01*
X162888566Y-64884869D02*
X162855233Y-64918202D01*
X162855233Y-64918202D02*
X162821900Y-64984869D01*
X162821900Y-64984869D02*
X162788566Y-65118202D01*
X162788566Y-65118202D02*
X162755233Y-65184869D01*
X162755233Y-65184869D02*
X162721900Y-65218202D01*
X162721900Y-65218202D02*
X162655233Y-65251535D01*
X162655233Y-65251535D02*
X162588566Y-65251535D01*
X162588566Y-65251535D02*
X162521900Y-65218202D01*
X162521900Y-65218202D02*
X162488566Y-65184869D01*
X162488566Y-65184869D02*
X162455233Y-65118202D01*
X162455233Y-65118202D02*
X162455233Y-64951535D01*
X162455233Y-64951535D02*
X162488566Y-64851535D01*
X163155233Y-64551535D02*
X162455233Y-64551535D01*
X162455233Y-64551535D02*
X163155233Y-64151535D01*
X163155233Y-64151535D02*
X162455233Y-64151535D01*
X162955233Y-63851535D02*
X162955233Y-63518202D01*
X163155233Y-63918202D02*
X162455233Y-63684869D01*
X162455233Y-63684869D02*
X163155233Y-63451535D01*
X163155233Y-63218202D02*
X162455233Y-63218202D01*
X162455233Y-63218202D02*
X162455233Y-62951535D01*
X162455233Y-62951535D02*
X162488566Y-62884869D01*
X162488566Y-62884869D02*
X162521900Y-62851535D01*
X162521900Y-62851535D02*
X162588566Y-62818202D01*
X162588566Y-62818202D02*
X162688566Y-62818202D01*
X162688566Y-62818202D02*
X162755233Y-62851535D01*
X162755233Y-62851535D02*
X162788566Y-62884869D01*
X162788566Y-62884869D02*
X162821900Y-62951535D01*
X162821900Y-62951535D02*
X162821900Y-63218202D01*
X162455233Y-61851536D02*
X162455233Y-61718202D01*
X162455233Y-61718202D02*
X162488566Y-61651536D01*
X162488566Y-61651536D02*
X162555233Y-61584869D01*
X162555233Y-61584869D02*
X162688566Y-61551536D01*
X162688566Y-61551536D02*
X162921900Y-61551536D01*
X162921900Y-61551536D02*
X163055233Y-61584869D01*
X163055233Y-61584869D02*
X163121900Y-61651536D01*
X163121900Y-61651536D02*
X163155233Y-61718202D01*
X163155233Y-61718202D02*
X163155233Y-61851536D01*
X163155233Y-61851536D02*
X163121900Y-61918202D01*
X163121900Y-61918202D02*
X163055233Y-61984869D01*
X163055233Y-61984869D02*
X162921900Y-62018202D01*
X162921900Y-62018202D02*
X162688566Y-62018202D01*
X162688566Y-62018202D02*
X162555233Y-61984869D01*
X162555233Y-61984869D02*
X162488566Y-61918202D01*
X162488566Y-61918202D02*
X162455233Y-61851536D01*
X162788566Y-61018203D02*
X162788566Y-61251536D01*
X163155233Y-61251536D02*
X162455233Y-61251536D01*
X162455233Y-61251536D02*
X162455233Y-60918203D01*
X162788566Y-60418203D02*
X162788566Y-60651536D01*
X163155233Y-60651536D02*
X162455233Y-60651536D01*
X162455233Y-60651536D02*
X162455233Y-60318203D01*
X162455233Y-59618203D02*
X162455233Y-59218203D01*
X163155233Y-59418203D02*
X162455233Y-59418203D01*
X162455233Y-58851537D02*
X162455233Y-58718203D01*
X162455233Y-58718203D02*
X162488566Y-58651537D01*
X162488566Y-58651537D02*
X162555233Y-58584870D01*
X162555233Y-58584870D02*
X162688566Y-58551537D01*
X162688566Y-58551537D02*
X162921900Y-58551537D01*
X162921900Y-58551537D02*
X163055233Y-58584870D01*
X163055233Y-58584870D02*
X163121900Y-58651537D01*
X163121900Y-58651537D02*
X163155233Y-58718203D01*
X163155233Y-58718203D02*
X163155233Y-58851537D01*
X163155233Y-58851537D02*
X163121900Y-58918203D01*
X163121900Y-58918203D02*
X163055233Y-58984870D01*
X163055233Y-58984870D02*
X162921900Y-59018203D01*
X162921900Y-59018203D02*
X162688566Y-59018203D01*
X162688566Y-59018203D02*
X162555233Y-58984870D01*
X162555233Y-58984870D02*
X162488566Y-58918203D01*
X162488566Y-58918203D02*
X162455233Y-58851537D01*
X163155233Y-57318204D02*
X162821900Y-57551537D01*
X163155233Y-57718204D02*
X162455233Y-57718204D01*
X162455233Y-57718204D02*
X162455233Y-57451537D01*
X162455233Y-57451537D02*
X162488566Y-57384871D01*
X162488566Y-57384871D02*
X162521900Y-57351537D01*
X162521900Y-57351537D02*
X162588566Y-57318204D01*
X162588566Y-57318204D02*
X162688566Y-57318204D01*
X162688566Y-57318204D02*
X162755233Y-57351537D01*
X162755233Y-57351537D02*
X162788566Y-57384871D01*
X162788566Y-57384871D02*
X162821900Y-57451537D01*
X162821900Y-57451537D02*
X162821900Y-57718204D01*
X162788566Y-57018204D02*
X162788566Y-56784871D01*
X163155233Y-56684871D02*
X163155233Y-57018204D01*
X163155233Y-57018204D02*
X162455233Y-57018204D01*
X162455233Y-57018204D02*
X162455233Y-56684871D01*
X163155233Y-56384871D02*
X162455233Y-56384871D01*
X162455233Y-56384871D02*
X162955233Y-56151538D01*
X162955233Y-56151538D02*
X162455233Y-55918204D01*
X162455233Y-55918204D02*
X163155233Y-55918204D01*
X162455233Y-55451538D02*
X162455233Y-55318204D01*
X162455233Y-55318204D02*
X162488566Y-55251538D01*
X162488566Y-55251538D02*
X162555233Y-55184871D01*
X162555233Y-55184871D02*
X162688566Y-55151538D01*
X162688566Y-55151538D02*
X162921900Y-55151538D01*
X162921900Y-55151538D02*
X163055233Y-55184871D01*
X163055233Y-55184871D02*
X163121900Y-55251538D01*
X163121900Y-55251538D02*
X163155233Y-55318204D01*
X163155233Y-55318204D02*
X163155233Y-55451538D01*
X163155233Y-55451538D02*
X163121900Y-55518204D01*
X163121900Y-55518204D02*
X163055233Y-55584871D01*
X163055233Y-55584871D02*
X162921900Y-55618204D01*
X162921900Y-55618204D02*
X162688566Y-55618204D01*
X162688566Y-55618204D02*
X162555233Y-55584871D01*
X162555233Y-55584871D02*
X162488566Y-55518204D01*
X162488566Y-55518204D02*
X162455233Y-55451538D01*
X162455233Y-54951538D02*
X163155233Y-54718205D01*
X163155233Y-54718205D02*
X162455233Y-54484871D01*
X162788566Y-54251538D02*
X162788566Y-54018205D01*
X163155233Y-53918205D02*
X163155233Y-54251538D01*
X163155233Y-54251538D02*
X162455233Y-54251538D01*
X162455233Y-54251538D02*
X162455233Y-53918205D01*
D11*
X136365260Y-98647322D02*
X136365260Y-99004465D01*
X136365260Y-99004465D02*
X136341451Y-99075893D01*
X136341451Y-99075893D02*
X136293832Y-99123513D01*
X136293832Y-99123513D02*
X136222403Y-99147322D01*
X136222403Y-99147322D02*
X136174784Y-99147322D01*
X136555736Y-98647322D02*
X136889069Y-98647322D01*
X136889069Y-98647322D02*
X136674784Y-99147322D01*
X150599809Y-83405952D02*
X151004571Y-83405952D01*
X151004571Y-83405952D02*
X151052190Y-83382142D01*
X151052190Y-83382142D02*
X151076000Y-83358333D01*
X151076000Y-83358333D02*
X151099809Y-83310714D01*
X151099809Y-83310714D02*
X151099809Y-83215476D01*
X151099809Y-83215476D02*
X151076000Y-83167857D01*
X151076000Y-83167857D02*
X151052190Y-83144047D01*
X151052190Y-83144047D02*
X151004571Y-83120238D01*
X151004571Y-83120238D02*
X150599809Y-83120238D01*
X150599809Y-82644047D02*
X150599809Y-82882142D01*
X150599809Y-82882142D02*
X150837904Y-82905951D01*
X150837904Y-82905951D02*
X150814095Y-82882142D01*
X150814095Y-82882142D02*
X150790285Y-82834523D01*
X150790285Y-82834523D02*
X150790285Y-82715475D01*
X150790285Y-82715475D02*
X150814095Y-82667856D01*
X150814095Y-82667856D02*
X150837904Y-82644047D01*
X150837904Y-82644047D02*
X150885523Y-82620237D01*
X150885523Y-82620237D02*
X151004571Y-82620237D01*
X151004571Y-82620237D02*
X151052190Y-82644047D01*
X151052190Y-82644047D02*
X151076000Y-82667856D01*
X151076000Y-82667856D02*
X151099809Y-82715475D01*
X151099809Y-82715475D02*
X151099809Y-82834523D01*
X151099809Y-82834523D02*
X151076000Y-82882142D01*
X151076000Y-82882142D02*
X151052190Y-82905951D01*
X149579105Y-48130291D02*
X149817200Y-48130291D01*
X149531486Y-48273148D02*
X149698152Y-47773148D01*
X149698152Y-47773148D02*
X149864819Y-48273148D01*
X150031485Y-48011243D02*
X150198152Y-48011243D01*
X150269580Y-48273148D02*
X150031485Y-48273148D01*
X150031485Y-48273148D02*
X150031485Y-47773148D01*
X150031485Y-47773148D02*
X150269580Y-47773148D01*
X150745771Y-48273148D02*
X150460057Y-48273148D01*
X150602914Y-48273148D02*
X150602914Y-47773148D01*
X150602914Y-47773148D02*
X150555295Y-47844577D01*
X150555295Y-47844577D02*
X150507676Y-47892196D01*
X150507676Y-47892196D02*
X150460057Y-47916005D01*
X151821806Y-50488605D02*
X151821806Y-50893367D01*
X151821806Y-50893367D02*
X151845616Y-50940986D01*
X151845616Y-50940986D02*
X151869425Y-50964796D01*
X151869425Y-50964796D02*
X151917044Y-50988605D01*
X151917044Y-50988605D02*
X152012282Y-50988605D01*
X152012282Y-50988605D02*
X152059901Y-50964796D01*
X152059901Y-50964796D02*
X152083711Y-50940986D01*
X152083711Y-50940986D02*
X152107520Y-50893367D01*
X152107520Y-50893367D02*
X152107520Y-50488605D01*
X152321807Y-50536224D02*
X152345616Y-50512415D01*
X152345616Y-50512415D02*
X152393235Y-50488605D01*
X152393235Y-50488605D02*
X152512283Y-50488605D01*
X152512283Y-50488605D02*
X152559902Y-50512415D01*
X152559902Y-50512415D02*
X152583711Y-50536224D01*
X152583711Y-50536224D02*
X152607521Y-50583843D01*
X152607521Y-50583843D02*
X152607521Y-50631462D01*
X152607521Y-50631462D02*
X152583711Y-50702891D01*
X152583711Y-50702891D02*
X152297997Y-50988605D01*
X152297997Y-50988605D02*
X152607521Y-50988605D01*
D12*
X135654047Y-89816109D02*
X135654047Y-90220871D01*
X135654047Y-90220871D02*
X135677857Y-90268490D01*
X135677857Y-90268490D02*
X135701666Y-90292300D01*
X135701666Y-90292300D02*
X135749285Y-90316109D01*
X135749285Y-90316109D02*
X135844523Y-90316109D01*
X135844523Y-90316109D02*
X135892142Y-90292300D01*
X135892142Y-90292300D02*
X135915952Y-90268490D01*
X135915952Y-90268490D02*
X135939761Y-90220871D01*
X135939761Y-90220871D02*
X135939761Y-89816109D01*
X136130238Y-89816109D02*
X136463571Y-89816109D01*
X136463571Y-89816109D02*
X136249286Y-90316109D01*
D11*
X136694151Y-96032891D02*
X136527485Y-95794796D01*
X136408437Y-96032891D02*
X136408437Y-95532891D01*
X136408437Y-95532891D02*
X136598913Y-95532891D01*
X136598913Y-95532891D02*
X136646532Y-95556701D01*
X136646532Y-95556701D02*
X136670342Y-95580510D01*
X136670342Y-95580510D02*
X136694151Y-95628129D01*
X136694151Y-95628129D02*
X136694151Y-95699558D01*
X136694151Y-95699558D02*
X136670342Y-95747177D01*
X136670342Y-95747177D02*
X136646532Y-95770986D01*
X136646532Y-95770986D02*
X136598913Y-95794796D01*
X136598913Y-95794796D02*
X136408437Y-95794796D01*
X137170342Y-96032891D02*
X136884628Y-96032891D01*
X137027485Y-96032891D02*
X137027485Y-95532891D01*
X137027485Y-95532891D02*
X136979866Y-95604320D01*
X136979866Y-95604320D02*
X136932247Y-95651939D01*
X136932247Y-95651939D02*
X136884628Y-95675748D01*
X137646532Y-96032891D02*
X137360818Y-96032891D01*
X137503675Y-96032891D02*
X137503675Y-95532891D01*
X137503675Y-95532891D02*
X137456056Y-95604320D01*
X137456056Y-95604320D02*
X137408437Y-95651939D01*
X137408437Y-95651939D02*
X137360818Y-95675748D01*
X129631884Y-91405678D02*
X129608075Y-91429488D01*
X129608075Y-91429488D02*
X129536646Y-91453297D01*
X129536646Y-91453297D02*
X129489027Y-91453297D01*
X129489027Y-91453297D02*
X129417599Y-91429488D01*
X129417599Y-91429488D02*
X129369980Y-91381868D01*
X129369980Y-91381868D02*
X129346170Y-91334249D01*
X129346170Y-91334249D02*
X129322361Y-91239011D01*
X129322361Y-91239011D02*
X129322361Y-91167583D01*
X129322361Y-91167583D02*
X129346170Y-91072345D01*
X129346170Y-91072345D02*
X129369980Y-91024726D01*
X129369980Y-91024726D02*
X129417599Y-90977107D01*
X129417599Y-90977107D02*
X129489027Y-90953297D01*
X129489027Y-90953297D02*
X129536646Y-90953297D01*
X129536646Y-90953297D02*
X129608075Y-90977107D01*
X129608075Y-90977107D02*
X129631884Y-91000916D01*
X130108075Y-91453297D02*
X129822361Y-91453297D01*
X129965218Y-91453297D02*
X129965218Y-90953297D01*
X129965218Y-90953297D02*
X129917599Y-91024726D01*
X129917599Y-91024726D02*
X129869980Y-91072345D01*
X129869980Y-91072345D02*
X129822361Y-91096154D01*
X130393789Y-91167583D02*
X130346170Y-91143773D01*
X130346170Y-91143773D02*
X130322360Y-91119964D01*
X130322360Y-91119964D02*
X130298551Y-91072345D01*
X130298551Y-91072345D02*
X130298551Y-91048535D01*
X130298551Y-91048535D02*
X130322360Y-91000916D01*
X130322360Y-91000916D02*
X130346170Y-90977107D01*
X130346170Y-90977107D02*
X130393789Y-90953297D01*
X130393789Y-90953297D02*
X130489027Y-90953297D01*
X130489027Y-90953297D02*
X130536646Y-90977107D01*
X130536646Y-90977107D02*
X130560455Y-91000916D01*
X130560455Y-91000916D02*
X130584265Y-91048535D01*
X130584265Y-91048535D02*
X130584265Y-91072345D01*
X130584265Y-91072345D02*
X130560455Y-91119964D01*
X130560455Y-91119964D02*
X130536646Y-91143773D01*
X130536646Y-91143773D02*
X130489027Y-91167583D01*
X130489027Y-91167583D02*
X130393789Y-91167583D01*
X130393789Y-91167583D02*
X130346170Y-91191392D01*
X130346170Y-91191392D02*
X130322360Y-91215202D01*
X130322360Y-91215202D02*
X130298551Y-91262821D01*
X130298551Y-91262821D02*
X130298551Y-91358059D01*
X130298551Y-91358059D02*
X130322360Y-91405678D01*
X130322360Y-91405678D02*
X130346170Y-91429488D01*
X130346170Y-91429488D02*
X130393789Y-91453297D01*
X130393789Y-91453297D02*
X130489027Y-91453297D01*
X130489027Y-91453297D02*
X130536646Y-91429488D01*
X130536646Y-91429488D02*
X130560455Y-91405678D01*
X130560455Y-91405678D02*
X130584265Y-91358059D01*
X130584265Y-91358059D02*
X130584265Y-91262821D01*
X130584265Y-91262821D02*
X130560455Y-91215202D01*
X130560455Y-91215202D02*
X130536646Y-91191392D01*
X130536646Y-91191392D02*
X130489027Y-91167583D01*
X130160838Y-95459341D02*
X130137029Y-95483151D01*
X130137029Y-95483151D02*
X130065600Y-95506960D01*
X130065600Y-95506960D02*
X130017981Y-95506960D01*
X130017981Y-95506960D02*
X129946553Y-95483151D01*
X129946553Y-95483151D02*
X129898934Y-95435531D01*
X129898934Y-95435531D02*
X129875124Y-95387912D01*
X129875124Y-95387912D02*
X129851315Y-95292674D01*
X129851315Y-95292674D02*
X129851315Y-95221246D01*
X129851315Y-95221246D02*
X129875124Y-95126008D01*
X129875124Y-95126008D02*
X129898934Y-95078389D01*
X129898934Y-95078389D02*
X129946553Y-95030770D01*
X129946553Y-95030770D02*
X130017981Y-95006960D01*
X130017981Y-95006960D02*
X130065600Y-95006960D01*
X130065600Y-95006960D02*
X130137029Y-95030770D01*
X130137029Y-95030770D02*
X130160838Y-95054579D01*
X130351315Y-95054579D02*
X130375124Y-95030770D01*
X130375124Y-95030770D02*
X130422743Y-95006960D01*
X130422743Y-95006960D02*
X130541791Y-95006960D01*
X130541791Y-95006960D02*
X130589410Y-95030770D01*
X130589410Y-95030770D02*
X130613219Y-95054579D01*
X130613219Y-95054579D02*
X130637029Y-95102198D01*
X130637029Y-95102198D02*
X130637029Y-95149817D01*
X130637029Y-95149817D02*
X130613219Y-95221246D01*
X130613219Y-95221246D02*
X130327505Y-95506960D01*
X130327505Y-95506960D02*
X130637029Y-95506960D01*
X130827505Y-95054579D02*
X130851314Y-95030770D01*
X130851314Y-95030770D02*
X130898933Y-95006960D01*
X130898933Y-95006960D02*
X131017981Y-95006960D01*
X131017981Y-95006960D02*
X131065600Y-95030770D01*
X131065600Y-95030770D02*
X131089409Y-95054579D01*
X131089409Y-95054579D02*
X131113219Y-95102198D01*
X131113219Y-95102198D02*
X131113219Y-95149817D01*
X131113219Y-95149817D02*
X131089409Y-95221246D01*
X131089409Y-95221246D02*
X130803695Y-95506960D01*
X130803695Y-95506960D02*
X131113219Y-95506960D01*
X127574587Y-91437427D02*
X127550778Y-91461237D01*
X127550778Y-91461237D02*
X127479349Y-91485046D01*
X127479349Y-91485046D02*
X127431730Y-91485046D01*
X127431730Y-91485046D02*
X127360302Y-91461237D01*
X127360302Y-91461237D02*
X127312683Y-91413617D01*
X127312683Y-91413617D02*
X127288873Y-91365998D01*
X127288873Y-91365998D02*
X127265064Y-91270760D01*
X127265064Y-91270760D02*
X127265064Y-91199332D01*
X127265064Y-91199332D02*
X127288873Y-91104094D01*
X127288873Y-91104094D02*
X127312683Y-91056475D01*
X127312683Y-91056475D02*
X127360302Y-91008856D01*
X127360302Y-91008856D02*
X127431730Y-90985046D01*
X127431730Y-90985046D02*
X127479349Y-90985046D01*
X127479349Y-90985046D02*
X127550778Y-91008856D01*
X127550778Y-91008856D02*
X127574587Y-91032665D01*
X128050778Y-91485046D02*
X127765064Y-91485046D01*
X127907921Y-91485046D02*
X127907921Y-90985046D01*
X127907921Y-90985046D02*
X127860302Y-91056475D01*
X127860302Y-91056475D02*
X127812683Y-91104094D01*
X127812683Y-91104094D02*
X127765064Y-91127903D01*
X128217444Y-90985046D02*
X128550777Y-90985046D01*
X128550777Y-90985046D02*
X128336492Y-91485046D01*
X130175663Y-97523236D02*
X130151854Y-97547046D01*
X130151854Y-97547046D02*
X130080425Y-97570855D01*
X130080425Y-97570855D02*
X130032806Y-97570855D01*
X130032806Y-97570855D02*
X129961378Y-97547046D01*
X129961378Y-97547046D02*
X129913759Y-97499426D01*
X129913759Y-97499426D02*
X129889949Y-97451807D01*
X129889949Y-97451807D02*
X129866140Y-97356569D01*
X129866140Y-97356569D02*
X129866140Y-97285141D01*
X129866140Y-97285141D02*
X129889949Y-97189903D01*
X129889949Y-97189903D02*
X129913759Y-97142284D01*
X129913759Y-97142284D02*
X129961378Y-97094665D01*
X129961378Y-97094665D02*
X130032806Y-97070855D01*
X130032806Y-97070855D02*
X130080425Y-97070855D01*
X130080425Y-97070855D02*
X130151854Y-97094665D01*
X130151854Y-97094665D02*
X130175663Y-97118474D01*
X130366140Y-97118474D02*
X130389949Y-97094665D01*
X130389949Y-97094665D02*
X130437568Y-97070855D01*
X130437568Y-97070855D02*
X130556616Y-97070855D01*
X130556616Y-97070855D02*
X130604235Y-97094665D01*
X130604235Y-97094665D02*
X130628044Y-97118474D01*
X130628044Y-97118474D02*
X130651854Y-97166093D01*
X130651854Y-97166093D02*
X130651854Y-97213712D01*
X130651854Y-97213712D02*
X130628044Y-97285141D01*
X130628044Y-97285141D02*
X130342330Y-97570855D01*
X130342330Y-97570855D02*
X130651854Y-97570855D01*
X131104234Y-97070855D02*
X130866139Y-97070855D01*
X130866139Y-97070855D02*
X130842330Y-97308950D01*
X130842330Y-97308950D02*
X130866139Y-97285141D01*
X130866139Y-97285141D02*
X130913758Y-97261331D01*
X130913758Y-97261331D02*
X131032806Y-97261331D01*
X131032806Y-97261331D02*
X131080425Y-97285141D01*
X131080425Y-97285141D02*
X131104234Y-97308950D01*
X131104234Y-97308950D02*
X131128044Y-97356569D01*
X131128044Y-97356569D02*
X131128044Y-97475617D01*
X131128044Y-97475617D02*
X131104234Y-97523236D01*
X131104234Y-97523236D02*
X131080425Y-97547046D01*
X131080425Y-97547046D02*
X131032806Y-97570855D01*
X131032806Y-97570855D02*
X130913758Y-97570855D01*
X130913758Y-97570855D02*
X130866139Y-97547046D01*
X130866139Y-97547046D02*
X130842330Y-97523236D01*
X133972008Y-95192847D02*
X133805342Y-94954752D01*
X133686294Y-95192847D02*
X133686294Y-94692847D01*
X133686294Y-94692847D02*
X133876770Y-94692847D01*
X133876770Y-94692847D02*
X133924389Y-94716657D01*
X133924389Y-94716657D02*
X133948199Y-94740466D01*
X133948199Y-94740466D02*
X133972008Y-94788085D01*
X133972008Y-94788085D02*
X133972008Y-94859514D01*
X133972008Y-94859514D02*
X133948199Y-94907133D01*
X133948199Y-94907133D02*
X133924389Y-94930942D01*
X133924389Y-94930942D02*
X133876770Y-94954752D01*
X133876770Y-94954752D02*
X133686294Y-94954752D01*
X134448199Y-95192847D02*
X134162485Y-95192847D01*
X134305342Y-95192847D02*
X134305342Y-94692847D01*
X134305342Y-94692847D02*
X134257723Y-94764276D01*
X134257723Y-94764276D02*
X134210104Y-94811895D01*
X134210104Y-94811895D02*
X134162485Y-94835704D01*
X134757722Y-94692847D02*
X134805341Y-94692847D01*
X134805341Y-94692847D02*
X134852960Y-94716657D01*
X134852960Y-94716657D02*
X134876770Y-94740466D01*
X134876770Y-94740466D02*
X134900579Y-94788085D01*
X134900579Y-94788085D02*
X134924389Y-94883323D01*
X134924389Y-94883323D02*
X134924389Y-95002371D01*
X134924389Y-95002371D02*
X134900579Y-95097609D01*
X134900579Y-95097609D02*
X134876770Y-95145228D01*
X134876770Y-95145228D02*
X134852960Y-95169038D01*
X134852960Y-95169038D02*
X134805341Y-95192847D01*
X134805341Y-95192847D02*
X134757722Y-95192847D01*
X134757722Y-95192847D02*
X134710103Y-95169038D01*
X134710103Y-95169038D02*
X134686294Y-95145228D01*
X134686294Y-95145228D02*
X134662484Y-95097609D01*
X134662484Y-95097609D02*
X134638675Y-95002371D01*
X134638675Y-95002371D02*
X134638675Y-94883323D01*
X134638675Y-94883323D02*
X134662484Y-94788085D01*
X134662484Y-94788085D02*
X134686294Y-94740466D01*
X134686294Y-94740466D02*
X134710103Y-94716657D01*
X134710103Y-94716657D02*
X134757722Y-94692847D01*
X132437276Y-98064778D02*
X132199181Y-98231444D01*
X132437276Y-98350492D02*
X131937276Y-98350492D01*
X131937276Y-98350492D02*
X131937276Y-98160016D01*
X131937276Y-98160016D02*
X131961086Y-98112397D01*
X131961086Y-98112397D02*
X131984895Y-98088587D01*
X131984895Y-98088587D02*
X132032514Y-98064778D01*
X132032514Y-98064778D02*
X132103943Y-98064778D01*
X132103943Y-98064778D02*
X132151562Y-98088587D01*
X132151562Y-98088587D02*
X132175371Y-98112397D01*
X132175371Y-98112397D02*
X132199181Y-98160016D01*
X132199181Y-98160016D02*
X132199181Y-98350492D01*
X132437276Y-97588587D02*
X132437276Y-97874301D01*
X132437276Y-97731444D02*
X131937276Y-97731444D01*
X131937276Y-97731444D02*
X132008705Y-97779063D01*
X132008705Y-97779063D02*
X132056324Y-97826682D01*
X132056324Y-97826682D02*
X132080133Y-97874301D01*
X131984895Y-97398111D02*
X131961086Y-97374302D01*
X131961086Y-97374302D02*
X131937276Y-97326683D01*
X131937276Y-97326683D02*
X131937276Y-97207635D01*
X131937276Y-97207635D02*
X131961086Y-97160016D01*
X131961086Y-97160016D02*
X131984895Y-97136207D01*
X131984895Y-97136207D02*
X132032514Y-97112397D01*
X132032514Y-97112397D02*
X132080133Y-97112397D01*
X132080133Y-97112397D02*
X132151562Y-97136207D01*
X132151562Y-97136207D02*
X132437276Y-97421921D01*
X132437276Y-97421921D02*
X132437276Y-97112397D01*
X128113393Y-89357176D02*
X128113393Y-89714319D01*
X128113393Y-89714319D02*
X128089584Y-89785747D01*
X128089584Y-89785747D02*
X128041965Y-89833367D01*
X128041965Y-89833367D02*
X127970536Y-89857176D01*
X127970536Y-89857176D02*
X127922917Y-89857176D01*
X128589583Y-89357176D02*
X128351488Y-89357176D01*
X128351488Y-89357176D02*
X128327679Y-89595271D01*
X128327679Y-89595271D02*
X128351488Y-89571462D01*
X128351488Y-89571462D02*
X128399107Y-89547652D01*
X128399107Y-89547652D02*
X128518155Y-89547652D01*
X128518155Y-89547652D02*
X128565774Y-89571462D01*
X128565774Y-89571462D02*
X128589583Y-89595271D01*
X128589583Y-89595271D02*
X128613393Y-89642890D01*
X128613393Y-89642890D02*
X128613393Y-89761938D01*
X128613393Y-89761938D02*
X128589583Y-89809557D01*
X128589583Y-89809557D02*
X128565774Y-89833367D01*
X128565774Y-89833367D02*
X128518155Y-89857176D01*
X128518155Y-89857176D02*
X128399107Y-89857176D01*
X128399107Y-89857176D02*
X128351488Y-89833367D01*
X128351488Y-89833367D02*
X128327679Y-89809557D01*
X127448334Y-95277904D02*
X127281667Y-95277904D01*
X127281667Y-95539809D02*
X127281667Y-95039809D01*
X127281667Y-95039809D02*
X127519762Y-95039809D01*
X127876905Y-95277904D02*
X127948333Y-95301714D01*
X127948333Y-95301714D02*
X127972143Y-95325523D01*
X127972143Y-95325523D02*
X127995952Y-95373142D01*
X127995952Y-95373142D02*
X127995952Y-95444571D01*
X127995952Y-95444571D02*
X127972143Y-95492190D01*
X127972143Y-95492190D02*
X127948333Y-95516000D01*
X127948333Y-95516000D02*
X127900714Y-95539809D01*
X127900714Y-95539809D02*
X127710238Y-95539809D01*
X127710238Y-95539809D02*
X127710238Y-95039809D01*
X127710238Y-95039809D02*
X127876905Y-95039809D01*
X127876905Y-95039809D02*
X127924524Y-95063619D01*
X127924524Y-95063619D02*
X127948333Y-95087428D01*
X127948333Y-95087428D02*
X127972143Y-95135047D01*
X127972143Y-95135047D02*
X127972143Y-95182666D01*
X127972143Y-95182666D02*
X127948333Y-95230285D01*
X127948333Y-95230285D02*
X127924524Y-95254095D01*
X127924524Y-95254095D02*
X127876905Y-95277904D01*
X127876905Y-95277904D02*
X127710238Y-95277904D01*
X128472143Y-95539809D02*
X128186429Y-95539809D01*
X128329286Y-95539809D02*
X128329286Y-95039809D01*
X128329286Y-95039809D02*
X128281667Y-95111238D01*
X128281667Y-95111238D02*
X128234048Y-95158857D01*
X128234048Y-95158857D02*
X128186429Y-95182666D01*
X136851476Y-91395433D02*
X136827667Y-91419243D01*
X136827667Y-91419243D02*
X136756238Y-91443052D01*
X136756238Y-91443052D02*
X136708619Y-91443052D01*
X136708619Y-91443052D02*
X136637191Y-91419243D01*
X136637191Y-91419243D02*
X136589572Y-91371623D01*
X136589572Y-91371623D02*
X136565762Y-91324004D01*
X136565762Y-91324004D02*
X136541953Y-91228766D01*
X136541953Y-91228766D02*
X136541953Y-91157338D01*
X136541953Y-91157338D02*
X136565762Y-91062100D01*
X136565762Y-91062100D02*
X136589572Y-91014481D01*
X136589572Y-91014481D02*
X136637191Y-90966862D01*
X136637191Y-90966862D02*
X136708619Y-90943052D01*
X136708619Y-90943052D02*
X136756238Y-90943052D01*
X136756238Y-90943052D02*
X136827667Y-90966862D01*
X136827667Y-90966862D02*
X136851476Y-90990671D01*
X137327667Y-91443052D02*
X137041953Y-91443052D01*
X137184810Y-91443052D02*
X137184810Y-90943052D01*
X137184810Y-90943052D02*
X137137191Y-91014481D01*
X137137191Y-91014481D02*
X137089572Y-91062100D01*
X137089572Y-91062100D02*
X137041953Y-91085909D01*
X137565762Y-91443052D02*
X137661000Y-91443052D01*
X137661000Y-91443052D02*
X137708619Y-91419243D01*
X137708619Y-91419243D02*
X137732428Y-91395433D01*
X137732428Y-91395433D02*
X137780047Y-91324004D01*
X137780047Y-91324004D02*
X137803857Y-91228766D01*
X137803857Y-91228766D02*
X137803857Y-91038290D01*
X137803857Y-91038290D02*
X137780047Y-90990671D01*
X137780047Y-90990671D02*
X137756238Y-90966862D01*
X137756238Y-90966862D02*
X137708619Y-90943052D01*
X137708619Y-90943052D02*
X137613381Y-90943052D01*
X137613381Y-90943052D02*
X137565762Y-90966862D01*
X137565762Y-90966862D02*
X137541952Y-90990671D01*
X137541952Y-90990671D02*
X137518143Y-91038290D01*
X137518143Y-91038290D02*
X137518143Y-91157338D01*
X137518143Y-91157338D02*
X137541952Y-91204957D01*
X137541952Y-91204957D02*
X137565762Y-91228766D01*
X137565762Y-91228766D02*
X137613381Y-91252576D01*
X137613381Y-91252576D02*
X137708619Y-91252576D01*
X137708619Y-91252576D02*
X137756238Y-91228766D01*
X137756238Y-91228766D02*
X137780047Y-91204957D01*
X137780047Y-91204957D02*
X137803857Y-91157338D01*
X157362061Y-96554583D02*
X157362061Y-96792678D01*
X157362061Y-96792678D02*
X156862061Y-96792678D01*
X156862061Y-96149821D02*
X156862061Y-96387916D01*
X156862061Y-96387916D02*
X157100156Y-96411725D01*
X157100156Y-96411725D02*
X157076347Y-96387916D01*
X157076347Y-96387916D02*
X157052537Y-96340297D01*
X157052537Y-96340297D02*
X157052537Y-96221249D01*
X157052537Y-96221249D02*
X157076347Y-96173630D01*
X157076347Y-96173630D02*
X157100156Y-96149821D01*
X157100156Y-96149821D02*
X157147775Y-96126011D01*
X157147775Y-96126011D02*
X157266823Y-96126011D01*
X157266823Y-96126011D02*
X157314442Y-96149821D01*
X157314442Y-96149821D02*
X157338252Y-96173630D01*
X157338252Y-96173630D02*
X157362061Y-96221249D01*
X157362061Y-96221249D02*
X157362061Y-96340297D01*
X157362061Y-96340297D02*
X157338252Y-96387916D01*
X157338252Y-96387916D02*
X157314442Y-96411725D01*
X147435259Y-77335086D02*
X147411450Y-77358896D01*
X147411450Y-77358896D02*
X147340021Y-77382705D01*
X147340021Y-77382705D02*
X147292402Y-77382705D01*
X147292402Y-77382705D02*
X147220974Y-77358896D01*
X147220974Y-77358896D02*
X147173355Y-77311276D01*
X147173355Y-77311276D02*
X147149545Y-77263657D01*
X147149545Y-77263657D02*
X147125736Y-77168419D01*
X147125736Y-77168419D02*
X147125736Y-77096991D01*
X147125736Y-77096991D02*
X147149545Y-77001753D01*
X147149545Y-77001753D02*
X147173355Y-76954134D01*
X147173355Y-76954134D02*
X147220974Y-76906515D01*
X147220974Y-76906515D02*
X147292402Y-76882705D01*
X147292402Y-76882705D02*
X147340021Y-76882705D01*
X147340021Y-76882705D02*
X147411450Y-76906515D01*
X147411450Y-76906515D02*
X147435259Y-76930324D01*
X147911450Y-77382705D02*
X147625736Y-77382705D01*
X147768593Y-77382705D02*
X147768593Y-76882705D01*
X147768593Y-76882705D02*
X147720974Y-76954134D01*
X147720974Y-76954134D02*
X147673355Y-77001753D01*
X147673355Y-77001753D02*
X147625736Y-77025562D01*
X148387640Y-77382705D02*
X148101926Y-77382705D01*
X148244783Y-77382705D02*
X148244783Y-76882705D01*
X148244783Y-76882705D02*
X148197164Y-76954134D01*
X148197164Y-76954134D02*
X148149545Y-77001753D01*
X148149545Y-77001753D02*
X148101926Y-77025562D01*
X141639376Y-75400117D02*
X141639376Y-75804879D01*
X141639376Y-75804879D02*
X141663186Y-75852498D01*
X141663186Y-75852498D02*
X141686995Y-75876308D01*
X141686995Y-75876308D02*
X141734614Y-75900117D01*
X141734614Y-75900117D02*
X141829852Y-75900117D01*
X141829852Y-75900117D02*
X141877471Y-75876308D01*
X141877471Y-75876308D02*
X141901281Y-75852498D01*
X141901281Y-75852498D02*
X141925090Y-75804879D01*
X141925090Y-75804879D02*
X141925090Y-75400117D01*
X142377472Y-75566784D02*
X142377472Y-75900117D01*
X142258424Y-75376308D02*
X142139377Y-75733450D01*
X142139377Y-75733450D02*
X142448900Y-75733450D01*
X145660215Y-74004000D02*
X145493549Y-73765905D01*
X145374501Y-74004000D02*
X145374501Y-73504000D01*
X145374501Y-73504000D02*
X145564977Y-73504000D01*
X145564977Y-73504000D02*
X145612596Y-73527810D01*
X145612596Y-73527810D02*
X145636406Y-73551619D01*
X145636406Y-73551619D02*
X145660215Y-73599238D01*
X145660215Y-73599238D02*
X145660215Y-73670667D01*
X145660215Y-73670667D02*
X145636406Y-73718286D01*
X145636406Y-73718286D02*
X145612596Y-73742095D01*
X145612596Y-73742095D02*
X145564977Y-73765905D01*
X145564977Y-73765905D02*
X145374501Y-73765905D01*
X146112596Y-73504000D02*
X145874501Y-73504000D01*
X145874501Y-73504000D02*
X145850692Y-73742095D01*
X145850692Y-73742095D02*
X145874501Y-73718286D01*
X145874501Y-73718286D02*
X145922120Y-73694476D01*
X145922120Y-73694476D02*
X146041168Y-73694476D01*
X146041168Y-73694476D02*
X146088787Y-73718286D01*
X146088787Y-73718286D02*
X146112596Y-73742095D01*
X146112596Y-73742095D02*
X146136406Y-73789714D01*
X146136406Y-73789714D02*
X146136406Y-73908762D01*
X146136406Y-73908762D02*
X146112596Y-73956381D01*
X146112596Y-73956381D02*
X146088787Y-73980191D01*
X146088787Y-73980191D02*
X146041168Y-74004000D01*
X146041168Y-74004000D02*
X145922120Y-74004000D01*
X145922120Y-74004000D02*
X145874501Y-73980191D01*
X145874501Y-73980191D02*
X145850692Y-73956381D01*
X142083333Y-81604809D02*
X142083333Y-81961952D01*
X142083333Y-81961952D02*
X142059524Y-82033380D01*
X142059524Y-82033380D02*
X142011905Y-82081000D01*
X142011905Y-82081000D02*
X141940476Y-82104809D01*
X141940476Y-82104809D02*
X141892857Y-82104809D01*
X142535714Y-81771476D02*
X142535714Y-82104809D01*
X142416666Y-81581000D02*
X142297619Y-81938142D01*
X142297619Y-81938142D02*
X142607142Y-81938142D01*
X158038012Y-91789927D02*
X158061822Y-91813736D01*
X158061822Y-91813736D02*
X158085631Y-91885165D01*
X158085631Y-91885165D02*
X158085631Y-91932784D01*
X158085631Y-91932784D02*
X158061822Y-92004212D01*
X158061822Y-92004212D02*
X158014202Y-92051831D01*
X158014202Y-92051831D02*
X157966583Y-92075641D01*
X157966583Y-92075641D02*
X157871345Y-92099450D01*
X157871345Y-92099450D02*
X157799917Y-92099450D01*
X157799917Y-92099450D02*
X157704679Y-92075641D01*
X157704679Y-92075641D02*
X157657060Y-92051831D01*
X157657060Y-92051831D02*
X157609441Y-92004212D01*
X157609441Y-92004212D02*
X157585631Y-91932784D01*
X157585631Y-91932784D02*
X157585631Y-91885165D01*
X157585631Y-91885165D02*
X157609441Y-91813736D01*
X157609441Y-91813736D02*
X157633250Y-91789927D01*
X158085631Y-91313736D02*
X158085631Y-91599450D01*
X158085631Y-91456593D02*
X157585631Y-91456593D01*
X157585631Y-91456593D02*
X157657060Y-91504212D01*
X157657060Y-91504212D02*
X157704679Y-91551831D01*
X157704679Y-91551831D02*
X157728488Y-91599450D01*
X157585631Y-90885165D02*
X157585631Y-90980403D01*
X157585631Y-90980403D02*
X157609441Y-91028022D01*
X157609441Y-91028022D02*
X157633250Y-91051832D01*
X157633250Y-91051832D02*
X157704679Y-91099451D01*
X157704679Y-91099451D02*
X157799917Y-91123260D01*
X157799917Y-91123260D02*
X157990393Y-91123260D01*
X157990393Y-91123260D02*
X158038012Y-91099451D01*
X158038012Y-91099451D02*
X158061822Y-91075641D01*
X158061822Y-91075641D02*
X158085631Y-91028022D01*
X158085631Y-91028022D02*
X158085631Y-90932784D01*
X158085631Y-90932784D02*
X158061822Y-90885165D01*
X158061822Y-90885165D02*
X158038012Y-90861356D01*
X158038012Y-90861356D02*
X157990393Y-90837546D01*
X157990393Y-90837546D02*
X157871345Y-90837546D01*
X157871345Y-90837546D02*
X157823726Y-90861356D01*
X157823726Y-90861356D02*
X157799917Y-90885165D01*
X157799917Y-90885165D02*
X157776107Y-90932784D01*
X157776107Y-90932784D02*
X157776107Y-91028022D01*
X157776107Y-91028022D02*
X157799917Y-91075641D01*
X157799917Y-91075641D02*
X157823726Y-91099451D01*
X157823726Y-91099451D02*
X157871345Y-91123260D01*
X144974304Y-61335200D02*
X144974304Y-61692343D01*
X144974304Y-61692343D02*
X144950495Y-61763771D01*
X144950495Y-61763771D02*
X144902876Y-61811391D01*
X144902876Y-61811391D02*
X144831447Y-61835200D01*
X144831447Y-61835200D02*
X144783828Y-61835200D01*
X145212399Y-61835200D02*
X145212399Y-61335200D01*
X145212399Y-61335200D02*
X145402875Y-61335200D01*
X145402875Y-61335200D02*
X145450494Y-61359010D01*
X145450494Y-61359010D02*
X145474304Y-61382819D01*
X145474304Y-61382819D02*
X145498113Y-61430438D01*
X145498113Y-61430438D02*
X145498113Y-61501867D01*
X145498113Y-61501867D02*
X145474304Y-61549486D01*
X145474304Y-61549486D02*
X145450494Y-61573295D01*
X145450494Y-61573295D02*
X145402875Y-61597105D01*
X145402875Y-61597105D02*
X145212399Y-61597105D01*
X145974304Y-61835200D02*
X145688590Y-61835200D01*
X145831447Y-61835200D02*
X145831447Y-61335200D01*
X145831447Y-61335200D02*
X145783828Y-61406629D01*
X145783828Y-61406629D02*
X145736209Y-61454248D01*
X145736209Y-61454248D02*
X145688590Y-61478057D01*
X162083333Y-80594809D02*
X162083333Y-80951952D01*
X162083333Y-80951952D02*
X162059524Y-81023380D01*
X162059524Y-81023380D02*
X162011905Y-81071000D01*
X162011905Y-81071000D02*
X161940476Y-81094809D01*
X161940476Y-81094809D02*
X161892857Y-81094809D01*
X162273809Y-80594809D02*
X162583333Y-80594809D01*
X162583333Y-80594809D02*
X162416666Y-80785285D01*
X162416666Y-80785285D02*
X162488095Y-80785285D01*
X162488095Y-80785285D02*
X162535714Y-80809095D01*
X162535714Y-80809095D02*
X162559523Y-80832904D01*
X162559523Y-80832904D02*
X162583333Y-80880523D01*
X162583333Y-80880523D02*
X162583333Y-80999571D01*
X162583333Y-80999571D02*
X162559523Y-81047190D01*
X162559523Y-81047190D02*
X162535714Y-81071000D01*
X162535714Y-81071000D02*
X162488095Y-81094809D01*
X162488095Y-81094809D02*
X162345238Y-81094809D01*
X162345238Y-81094809D02*
X162297619Y-81071000D01*
X162297619Y-81071000D02*
X162273809Y-81047190D01*
X146036360Y-56859494D02*
X146012551Y-56883304D01*
X146012551Y-56883304D02*
X145941122Y-56907113D01*
X145941122Y-56907113D02*
X145893503Y-56907113D01*
X145893503Y-56907113D02*
X145822075Y-56883304D01*
X145822075Y-56883304D02*
X145774456Y-56835684D01*
X145774456Y-56835684D02*
X145750646Y-56788065D01*
X145750646Y-56788065D02*
X145726837Y-56692827D01*
X145726837Y-56692827D02*
X145726837Y-56621399D01*
X145726837Y-56621399D02*
X145750646Y-56526161D01*
X145750646Y-56526161D02*
X145774456Y-56478542D01*
X145774456Y-56478542D02*
X145822075Y-56430923D01*
X145822075Y-56430923D02*
X145893503Y-56407113D01*
X145893503Y-56407113D02*
X145941122Y-56407113D01*
X145941122Y-56407113D02*
X146012551Y-56430923D01*
X146012551Y-56430923D02*
X146036360Y-56454732D01*
X146203027Y-56407113D02*
X146512551Y-56407113D01*
X146512551Y-56407113D02*
X146345884Y-56597589D01*
X146345884Y-56597589D02*
X146417313Y-56597589D01*
X146417313Y-56597589D02*
X146464932Y-56621399D01*
X146464932Y-56621399D02*
X146488741Y-56645208D01*
X146488741Y-56645208D02*
X146512551Y-56692827D01*
X146512551Y-56692827D02*
X146512551Y-56811875D01*
X146512551Y-56811875D02*
X146488741Y-56859494D01*
X146488741Y-56859494D02*
X146464932Y-56883304D01*
X146464932Y-56883304D02*
X146417313Y-56907113D01*
X146417313Y-56907113D02*
X146274456Y-56907113D01*
X146274456Y-56907113D02*
X146226837Y-56883304D01*
X146226837Y-56883304D02*
X146203027Y-56859494D01*
X154036260Y-96180606D02*
X154012451Y-96204416D01*
X154012451Y-96204416D02*
X153941022Y-96228225D01*
X153941022Y-96228225D02*
X153893403Y-96228225D01*
X153893403Y-96228225D02*
X153821975Y-96204416D01*
X153821975Y-96204416D02*
X153774356Y-96156796D01*
X153774356Y-96156796D02*
X153750546Y-96109177D01*
X153750546Y-96109177D02*
X153726737Y-96013939D01*
X153726737Y-96013939D02*
X153726737Y-95942511D01*
X153726737Y-95942511D02*
X153750546Y-95847273D01*
X153750546Y-95847273D02*
X153774356Y-95799654D01*
X153774356Y-95799654D02*
X153821975Y-95752035D01*
X153821975Y-95752035D02*
X153893403Y-95728225D01*
X153893403Y-95728225D02*
X153941022Y-95728225D01*
X153941022Y-95728225D02*
X154012451Y-95752035D01*
X154012451Y-95752035D02*
X154036260Y-95775844D01*
X154226737Y-95775844D02*
X154250546Y-95752035D01*
X154250546Y-95752035D02*
X154298165Y-95728225D01*
X154298165Y-95728225D02*
X154417213Y-95728225D01*
X154417213Y-95728225D02*
X154464832Y-95752035D01*
X154464832Y-95752035D02*
X154488641Y-95775844D01*
X154488641Y-95775844D02*
X154512451Y-95823463D01*
X154512451Y-95823463D02*
X154512451Y-95871082D01*
X154512451Y-95871082D02*
X154488641Y-95942511D01*
X154488641Y-95942511D02*
X154202927Y-96228225D01*
X154202927Y-96228225D02*
X154512451Y-96228225D01*
X154821974Y-95728225D02*
X154869593Y-95728225D01*
X154869593Y-95728225D02*
X154917212Y-95752035D01*
X154917212Y-95752035D02*
X154941022Y-95775844D01*
X154941022Y-95775844D02*
X154964831Y-95823463D01*
X154964831Y-95823463D02*
X154988641Y-95918701D01*
X154988641Y-95918701D02*
X154988641Y-96037749D01*
X154988641Y-96037749D02*
X154964831Y-96132987D01*
X154964831Y-96132987D02*
X154941022Y-96180606D01*
X154941022Y-96180606D02*
X154917212Y-96204416D01*
X154917212Y-96204416D02*
X154869593Y-96228225D01*
X154869593Y-96228225D02*
X154821974Y-96228225D01*
X154821974Y-96228225D02*
X154774355Y-96204416D01*
X154774355Y-96204416D02*
X154750546Y-96180606D01*
X154750546Y-96180606D02*
X154726736Y-96132987D01*
X154726736Y-96132987D02*
X154702927Y-96037749D01*
X154702927Y-96037749D02*
X154702927Y-95918701D01*
X154702927Y-95918701D02*
X154726736Y-95823463D01*
X154726736Y-95823463D02*
X154750546Y-95775844D01*
X154750546Y-95775844D02*
X154774355Y-95752035D01*
X154774355Y-95752035D02*
X154821974Y-95728225D01*
X148252190Y-69838333D02*
X148276000Y-69862142D01*
X148276000Y-69862142D02*
X148299809Y-69933571D01*
X148299809Y-69933571D02*
X148299809Y-69981190D01*
X148299809Y-69981190D02*
X148276000Y-70052618D01*
X148276000Y-70052618D02*
X148228380Y-70100237D01*
X148228380Y-70100237D02*
X148180761Y-70124047D01*
X148180761Y-70124047D02*
X148085523Y-70147856D01*
X148085523Y-70147856D02*
X148014095Y-70147856D01*
X148014095Y-70147856D02*
X147918857Y-70124047D01*
X147918857Y-70124047D02*
X147871238Y-70100237D01*
X147871238Y-70100237D02*
X147823619Y-70052618D01*
X147823619Y-70052618D02*
X147799809Y-69981190D01*
X147799809Y-69981190D02*
X147799809Y-69933571D01*
X147799809Y-69933571D02*
X147823619Y-69862142D01*
X147823619Y-69862142D02*
X147847428Y-69838333D01*
X147799809Y-69671666D02*
X147799809Y-69338333D01*
X147799809Y-69338333D02*
X148299809Y-69552618D01*
X157362061Y-101554583D02*
X157362061Y-101792678D01*
X157362061Y-101792678D02*
X156862061Y-101792678D01*
X156862061Y-101435535D02*
X156862061Y-101102202D01*
X156862061Y-101102202D02*
X157362061Y-101316487D01*
X154855651Y-48987136D02*
X154617556Y-48987136D01*
X154617556Y-48987136D02*
X154617556Y-48487136D01*
X155284223Y-48987136D02*
X154998509Y-48987136D01*
X155141366Y-48987136D02*
X155141366Y-48487136D01*
X155141366Y-48487136D02*
X155093747Y-48558565D01*
X155093747Y-48558565D02*
X155046128Y-48606184D01*
X155046128Y-48606184D02*
X154998509Y-48629993D01*
X141166941Y-54291479D02*
X141000275Y-54053384D01*
X140881227Y-54291479D02*
X140881227Y-53791479D01*
X140881227Y-53791479D02*
X141071703Y-53791479D01*
X141071703Y-53791479D02*
X141119322Y-53815289D01*
X141119322Y-53815289D02*
X141143132Y-53839098D01*
X141143132Y-53839098D02*
X141166941Y-53886717D01*
X141166941Y-53886717D02*
X141166941Y-53958146D01*
X141166941Y-53958146D02*
X141143132Y-54005765D01*
X141143132Y-54005765D02*
X141119322Y-54029574D01*
X141119322Y-54029574D02*
X141071703Y-54053384D01*
X141071703Y-54053384D02*
X140881227Y-54053384D01*
X141357418Y-53839098D02*
X141381227Y-53815289D01*
X141381227Y-53815289D02*
X141428846Y-53791479D01*
X141428846Y-53791479D02*
X141547894Y-53791479D01*
X141547894Y-53791479D02*
X141595513Y-53815289D01*
X141595513Y-53815289D02*
X141619322Y-53839098D01*
X141619322Y-53839098D02*
X141643132Y-53886717D01*
X141643132Y-53886717D02*
X141643132Y-53934336D01*
X141643132Y-53934336D02*
X141619322Y-54005765D01*
X141619322Y-54005765D02*
X141333608Y-54291479D01*
X141333608Y-54291479D02*
X141643132Y-54291479D01*
X155928571Y-86607190D02*
X155904762Y-86631000D01*
X155904762Y-86631000D02*
X155833333Y-86654809D01*
X155833333Y-86654809D02*
X155785714Y-86654809D01*
X155785714Y-86654809D02*
X155714286Y-86631000D01*
X155714286Y-86631000D02*
X155666667Y-86583380D01*
X155666667Y-86583380D02*
X155642857Y-86535761D01*
X155642857Y-86535761D02*
X155619048Y-86440523D01*
X155619048Y-86440523D02*
X155619048Y-86369095D01*
X155619048Y-86369095D02*
X155642857Y-86273857D01*
X155642857Y-86273857D02*
X155666667Y-86226238D01*
X155666667Y-86226238D02*
X155714286Y-86178619D01*
X155714286Y-86178619D02*
X155785714Y-86154809D01*
X155785714Y-86154809D02*
X155833333Y-86154809D01*
X155833333Y-86154809D02*
X155904762Y-86178619D01*
X155904762Y-86178619D02*
X155928571Y-86202428D01*
X156404762Y-86654809D02*
X156119048Y-86654809D01*
X156261905Y-86654809D02*
X156261905Y-86154809D01*
X156261905Y-86154809D02*
X156214286Y-86226238D01*
X156214286Y-86226238D02*
X156166667Y-86273857D01*
X156166667Y-86273857D02*
X156119048Y-86297666D01*
X156833333Y-86321476D02*
X156833333Y-86654809D01*
X156714285Y-86131000D02*
X156595238Y-86488142D01*
X156595238Y-86488142D02*
X156904761Y-86488142D01*
X151516214Y-69709137D02*
X151540024Y-69732946D01*
X151540024Y-69732946D02*
X151563833Y-69804375D01*
X151563833Y-69804375D02*
X151563833Y-69851994D01*
X151563833Y-69851994D02*
X151540024Y-69923422D01*
X151540024Y-69923422D02*
X151492404Y-69971041D01*
X151492404Y-69971041D02*
X151444785Y-69994851D01*
X151444785Y-69994851D02*
X151349547Y-70018660D01*
X151349547Y-70018660D02*
X151278119Y-70018660D01*
X151278119Y-70018660D02*
X151182881Y-69994851D01*
X151182881Y-69994851D02*
X151135262Y-69971041D01*
X151135262Y-69971041D02*
X151087643Y-69923422D01*
X151087643Y-69923422D02*
X151063833Y-69851994D01*
X151063833Y-69851994D02*
X151063833Y-69804375D01*
X151063833Y-69804375D02*
X151087643Y-69732946D01*
X151087643Y-69732946D02*
X151111452Y-69709137D01*
X151063833Y-69280565D02*
X151063833Y-69375803D01*
X151063833Y-69375803D02*
X151087643Y-69423422D01*
X151087643Y-69423422D02*
X151111452Y-69447232D01*
X151111452Y-69447232D02*
X151182881Y-69494851D01*
X151182881Y-69494851D02*
X151278119Y-69518660D01*
X151278119Y-69518660D02*
X151468595Y-69518660D01*
X151468595Y-69518660D02*
X151516214Y-69494851D01*
X151516214Y-69494851D02*
X151540024Y-69471041D01*
X151540024Y-69471041D02*
X151563833Y-69423422D01*
X151563833Y-69423422D02*
X151563833Y-69328184D01*
X151563833Y-69328184D02*
X151540024Y-69280565D01*
X151540024Y-69280565D02*
X151516214Y-69256756D01*
X151516214Y-69256756D02*
X151468595Y-69232946D01*
X151468595Y-69232946D02*
X151349547Y-69232946D01*
X151349547Y-69232946D02*
X151301928Y-69256756D01*
X151301928Y-69256756D02*
X151278119Y-69280565D01*
X151278119Y-69280565D02*
X151254309Y-69328184D01*
X151254309Y-69328184D02*
X151254309Y-69423422D01*
X151254309Y-69423422D02*
X151278119Y-69471041D01*
X151278119Y-69471041D02*
X151301928Y-69494851D01*
X151301928Y-69494851D02*
X151349547Y-69518660D01*
X152119047Y-89024809D02*
X152119047Y-89429571D01*
X152119047Y-89429571D02*
X152142857Y-89477190D01*
X152142857Y-89477190D02*
X152166666Y-89501000D01*
X152166666Y-89501000D02*
X152214285Y-89524809D01*
X152214285Y-89524809D02*
X152309523Y-89524809D01*
X152309523Y-89524809D02*
X152357142Y-89501000D01*
X152357142Y-89501000D02*
X152380952Y-89477190D01*
X152380952Y-89477190D02*
X152404761Y-89429571D01*
X152404761Y-89429571D02*
X152404761Y-89024809D01*
X152857143Y-89024809D02*
X152761905Y-89024809D01*
X152761905Y-89024809D02*
X152714286Y-89048619D01*
X152714286Y-89048619D02*
X152690476Y-89072428D01*
X152690476Y-89072428D02*
X152642857Y-89143857D01*
X152642857Y-89143857D02*
X152619048Y-89239095D01*
X152619048Y-89239095D02*
X152619048Y-89429571D01*
X152619048Y-89429571D02*
X152642857Y-89477190D01*
X152642857Y-89477190D02*
X152666667Y-89501000D01*
X152666667Y-89501000D02*
X152714286Y-89524809D01*
X152714286Y-89524809D02*
X152809524Y-89524809D01*
X152809524Y-89524809D02*
X152857143Y-89501000D01*
X152857143Y-89501000D02*
X152880952Y-89477190D01*
X152880952Y-89477190D02*
X152904762Y-89429571D01*
X152904762Y-89429571D02*
X152904762Y-89310523D01*
X152904762Y-89310523D02*
X152880952Y-89262904D01*
X152880952Y-89262904D02*
X152857143Y-89239095D01*
X152857143Y-89239095D02*
X152809524Y-89215285D01*
X152809524Y-89215285D02*
X152714286Y-89215285D01*
X152714286Y-89215285D02*
X152666667Y-89239095D01*
X152666667Y-89239095D02*
X152642857Y-89262904D01*
X152642857Y-89262904D02*
X152619048Y-89310523D01*
X141134893Y-55210153D02*
X141111084Y-55233963D01*
X141111084Y-55233963D02*
X141039655Y-55257772D01*
X141039655Y-55257772D02*
X140992036Y-55257772D01*
X140992036Y-55257772D02*
X140920608Y-55233963D01*
X140920608Y-55233963D02*
X140872989Y-55186343D01*
X140872989Y-55186343D02*
X140849179Y-55138724D01*
X140849179Y-55138724D02*
X140825370Y-55043486D01*
X140825370Y-55043486D02*
X140825370Y-54972058D01*
X140825370Y-54972058D02*
X140849179Y-54876820D01*
X140849179Y-54876820D02*
X140872989Y-54829201D01*
X140872989Y-54829201D02*
X140920608Y-54781582D01*
X140920608Y-54781582D02*
X140992036Y-54757772D01*
X140992036Y-54757772D02*
X141039655Y-54757772D01*
X141039655Y-54757772D02*
X141111084Y-54781582D01*
X141111084Y-54781582D02*
X141134893Y-54805391D01*
X141325370Y-54805391D02*
X141349179Y-54781582D01*
X141349179Y-54781582D02*
X141396798Y-54757772D01*
X141396798Y-54757772D02*
X141515846Y-54757772D01*
X141515846Y-54757772D02*
X141563465Y-54781582D01*
X141563465Y-54781582D02*
X141587274Y-54805391D01*
X141587274Y-54805391D02*
X141611084Y-54853010D01*
X141611084Y-54853010D02*
X141611084Y-54900629D01*
X141611084Y-54900629D02*
X141587274Y-54972058D01*
X141587274Y-54972058D02*
X141301560Y-55257772D01*
X141301560Y-55257772D02*
X141611084Y-55257772D01*
X158404809Y-84083333D02*
X158166714Y-84249999D01*
X158404809Y-84369047D02*
X157904809Y-84369047D01*
X157904809Y-84369047D02*
X157904809Y-84178571D01*
X157904809Y-84178571D02*
X157928619Y-84130952D01*
X157928619Y-84130952D02*
X157952428Y-84107142D01*
X157952428Y-84107142D02*
X158000047Y-84083333D01*
X158000047Y-84083333D02*
X158071476Y-84083333D01*
X158071476Y-84083333D02*
X158119095Y-84107142D01*
X158119095Y-84107142D02*
X158142904Y-84130952D01*
X158142904Y-84130952D02*
X158166714Y-84178571D01*
X158166714Y-84178571D02*
X158166714Y-84369047D01*
X158404809Y-83845237D02*
X158404809Y-83749999D01*
X158404809Y-83749999D02*
X158381000Y-83702380D01*
X158381000Y-83702380D02*
X158357190Y-83678571D01*
X158357190Y-83678571D02*
X158285761Y-83630952D01*
X158285761Y-83630952D02*
X158190523Y-83607142D01*
X158190523Y-83607142D02*
X158000047Y-83607142D01*
X158000047Y-83607142D02*
X157952428Y-83630952D01*
X157952428Y-83630952D02*
X157928619Y-83654761D01*
X157928619Y-83654761D02*
X157904809Y-83702380D01*
X157904809Y-83702380D02*
X157904809Y-83797618D01*
X157904809Y-83797618D02*
X157928619Y-83845237D01*
X157928619Y-83845237D02*
X157952428Y-83869047D01*
X157952428Y-83869047D02*
X158000047Y-83892856D01*
X158000047Y-83892856D02*
X158119095Y-83892856D01*
X158119095Y-83892856D02*
X158166714Y-83869047D01*
X158166714Y-83869047D02*
X158190523Y-83845237D01*
X158190523Y-83845237D02*
X158214333Y-83797618D01*
X158214333Y-83797618D02*
X158214333Y-83702380D01*
X158214333Y-83702380D02*
X158190523Y-83654761D01*
X158190523Y-83654761D02*
X158166714Y-83630952D01*
X158166714Y-83630952D02*
X158119095Y-83607142D01*
X152891001Y-73736674D02*
X152724335Y-73498579D01*
X152605287Y-73736674D02*
X152605287Y-73236674D01*
X152605287Y-73236674D02*
X152795763Y-73236674D01*
X152795763Y-73236674D02*
X152843382Y-73260484D01*
X152843382Y-73260484D02*
X152867192Y-73284293D01*
X152867192Y-73284293D02*
X152891001Y-73331912D01*
X152891001Y-73331912D02*
X152891001Y-73403341D01*
X152891001Y-73403341D02*
X152867192Y-73450960D01*
X152867192Y-73450960D02*
X152843382Y-73474769D01*
X152843382Y-73474769D02*
X152795763Y-73498579D01*
X152795763Y-73498579D02*
X152605287Y-73498579D01*
X153057668Y-73236674D02*
X153367192Y-73236674D01*
X153367192Y-73236674D02*
X153200525Y-73427150D01*
X153200525Y-73427150D02*
X153271954Y-73427150D01*
X153271954Y-73427150D02*
X153319573Y-73450960D01*
X153319573Y-73450960D02*
X153343382Y-73474769D01*
X153343382Y-73474769D02*
X153367192Y-73522388D01*
X153367192Y-73522388D02*
X153367192Y-73641436D01*
X153367192Y-73641436D02*
X153343382Y-73689055D01*
X153343382Y-73689055D02*
X153319573Y-73712865D01*
X153319573Y-73712865D02*
X153271954Y-73736674D01*
X153271954Y-73736674D02*
X153129097Y-73736674D01*
X153129097Y-73736674D02*
X153081478Y-73712865D01*
X153081478Y-73712865D02*
X153057668Y-73689055D01*
X150671579Y-94831695D02*
X150647770Y-94855505D01*
X150647770Y-94855505D02*
X150576341Y-94879314D01*
X150576341Y-94879314D02*
X150528722Y-94879314D01*
X150528722Y-94879314D02*
X150457294Y-94855505D01*
X150457294Y-94855505D02*
X150409675Y-94807885D01*
X150409675Y-94807885D02*
X150385865Y-94760266D01*
X150385865Y-94760266D02*
X150362056Y-94665028D01*
X150362056Y-94665028D02*
X150362056Y-94593600D01*
X150362056Y-94593600D02*
X150385865Y-94498362D01*
X150385865Y-94498362D02*
X150409675Y-94450743D01*
X150409675Y-94450743D02*
X150457294Y-94403124D01*
X150457294Y-94403124D02*
X150528722Y-94379314D01*
X150528722Y-94379314D02*
X150576341Y-94379314D01*
X150576341Y-94379314D02*
X150647770Y-94403124D01*
X150647770Y-94403124D02*
X150671579Y-94426933D01*
X150862056Y-94426933D02*
X150885865Y-94403124D01*
X150885865Y-94403124D02*
X150933484Y-94379314D01*
X150933484Y-94379314D02*
X151052532Y-94379314D01*
X151052532Y-94379314D02*
X151100151Y-94403124D01*
X151100151Y-94403124D02*
X151123960Y-94426933D01*
X151123960Y-94426933D02*
X151147770Y-94474552D01*
X151147770Y-94474552D02*
X151147770Y-94522171D01*
X151147770Y-94522171D02*
X151123960Y-94593600D01*
X151123960Y-94593600D02*
X150838246Y-94879314D01*
X150838246Y-94879314D02*
X151147770Y-94879314D01*
X151623960Y-94879314D02*
X151338246Y-94879314D01*
X151481103Y-94879314D02*
X151481103Y-94379314D01*
X151481103Y-94379314D02*
X151433484Y-94450743D01*
X151433484Y-94450743D02*
X151385865Y-94498362D01*
X151385865Y-94498362D02*
X151338246Y-94522171D01*
X143377169Y-104237949D02*
X143377169Y-103737949D01*
X143377169Y-103737949D02*
X143496217Y-103737949D01*
X143496217Y-103737949D02*
X143567645Y-103761759D01*
X143567645Y-103761759D02*
X143615264Y-103809378D01*
X143615264Y-103809378D02*
X143639074Y-103856997D01*
X143639074Y-103856997D02*
X143662883Y-103952235D01*
X143662883Y-103952235D02*
X143662883Y-104023663D01*
X143662883Y-104023663D02*
X143639074Y-104118901D01*
X143639074Y-104118901D02*
X143615264Y-104166520D01*
X143615264Y-104166520D02*
X143567645Y-104214140D01*
X143567645Y-104214140D02*
X143496217Y-104237949D01*
X143496217Y-104237949D02*
X143377169Y-104237949D01*
X144139074Y-104237949D02*
X143853360Y-104237949D01*
X143996217Y-104237949D02*
X143996217Y-103737949D01*
X143996217Y-103737949D02*
X143948598Y-103809378D01*
X143948598Y-103809378D02*
X143900979Y-103856997D01*
X143900979Y-103856997D02*
X143853360Y-103880806D01*
X142118913Y-56187361D02*
X142118913Y-56544504D01*
X142118913Y-56544504D02*
X142095104Y-56615932D01*
X142095104Y-56615932D02*
X142047485Y-56663552D01*
X142047485Y-56663552D02*
X141976056Y-56687361D01*
X141976056Y-56687361D02*
X141928437Y-56687361D01*
X142618913Y-56687361D02*
X142333199Y-56687361D01*
X142476056Y-56687361D02*
X142476056Y-56187361D01*
X142476056Y-56187361D02*
X142428437Y-56258790D01*
X142428437Y-56258790D02*
X142380818Y-56306409D01*
X142380818Y-56306409D02*
X142333199Y-56330218D01*
X145703525Y-51680062D02*
X145465430Y-51846728D01*
X145703525Y-51965776D02*
X145203525Y-51965776D01*
X145203525Y-51965776D02*
X145203525Y-51775300D01*
X145203525Y-51775300D02*
X145227335Y-51727681D01*
X145227335Y-51727681D02*
X145251144Y-51703871D01*
X145251144Y-51703871D02*
X145298763Y-51680062D01*
X145298763Y-51680062D02*
X145370192Y-51680062D01*
X145370192Y-51680062D02*
X145417811Y-51703871D01*
X145417811Y-51703871D02*
X145441620Y-51727681D01*
X145441620Y-51727681D02*
X145465430Y-51775300D01*
X145465430Y-51775300D02*
X145465430Y-51965776D01*
X145703525Y-51203871D02*
X145703525Y-51489585D01*
X145703525Y-51346728D02*
X145203525Y-51346728D01*
X145203525Y-51346728D02*
X145274954Y-51394347D01*
X145274954Y-51394347D02*
X145322573Y-51441966D01*
X145322573Y-51441966D02*
X145346382Y-51489585D01*
X147382840Y-104237949D02*
X147382840Y-103737949D01*
X147382840Y-103737949D02*
X147501888Y-103737949D01*
X147501888Y-103737949D02*
X147573316Y-103761759D01*
X147573316Y-103761759D02*
X147620935Y-103809378D01*
X147620935Y-103809378D02*
X147644745Y-103856997D01*
X147644745Y-103856997D02*
X147668554Y-103952235D01*
X147668554Y-103952235D02*
X147668554Y-104023663D01*
X147668554Y-104023663D02*
X147644745Y-104118901D01*
X147644745Y-104118901D02*
X147620935Y-104166520D01*
X147620935Y-104166520D02*
X147573316Y-104214140D01*
X147573316Y-104214140D02*
X147501888Y-104237949D01*
X147501888Y-104237949D02*
X147382840Y-104237949D01*
X147835221Y-103737949D02*
X148144745Y-103737949D01*
X148144745Y-103737949D02*
X147978078Y-103928425D01*
X147978078Y-103928425D02*
X148049507Y-103928425D01*
X148049507Y-103928425D02*
X148097126Y-103952235D01*
X148097126Y-103952235D02*
X148120935Y-103976044D01*
X148120935Y-103976044D02*
X148144745Y-104023663D01*
X148144745Y-104023663D02*
X148144745Y-104142711D01*
X148144745Y-104142711D02*
X148120935Y-104190330D01*
X148120935Y-104190330D02*
X148097126Y-104214140D01*
X148097126Y-104214140D02*
X148049507Y-104237949D01*
X148049507Y-104237949D02*
X147906650Y-104237949D01*
X147906650Y-104237949D02*
X147859031Y-104214140D01*
X147859031Y-104214140D02*
X147835221Y-104190330D01*
X152221979Y-67226436D02*
X152221979Y-67631198D01*
X152221979Y-67631198D02*
X152245789Y-67678817D01*
X152245789Y-67678817D02*
X152269598Y-67702627D01*
X152269598Y-67702627D02*
X152317217Y-67726436D01*
X152317217Y-67726436D02*
X152412455Y-67726436D01*
X152412455Y-67726436D02*
X152460074Y-67702627D01*
X152460074Y-67702627D02*
X152483884Y-67678817D01*
X152483884Y-67678817D02*
X152507693Y-67631198D01*
X152507693Y-67631198D02*
X152507693Y-67226436D01*
X152698170Y-67226436D02*
X153007694Y-67226436D01*
X153007694Y-67226436D02*
X152841027Y-67416912D01*
X152841027Y-67416912D02*
X152912456Y-67416912D01*
X152912456Y-67416912D02*
X152960075Y-67440722D01*
X152960075Y-67440722D02*
X152983884Y-67464531D01*
X152983884Y-67464531D02*
X153007694Y-67512150D01*
X153007694Y-67512150D02*
X153007694Y-67631198D01*
X153007694Y-67631198D02*
X152983884Y-67678817D01*
X152983884Y-67678817D02*
X152960075Y-67702627D01*
X152960075Y-67702627D02*
X152912456Y-67726436D01*
X152912456Y-67726436D02*
X152769599Y-67726436D01*
X152769599Y-67726436D02*
X152721980Y-67702627D01*
X152721980Y-67702627D02*
X152698170Y-67678817D01*
X158294809Y-80333333D02*
X158056714Y-80499999D01*
X158294809Y-80619047D02*
X157794809Y-80619047D01*
X157794809Y-80619047D02*
X157794809Y-80428571D01*
X157794809Y-80428571D02*
X157818619Y-80380952D01*
X157818619Y-80380952D02*
X157842428Y-80357142D01*
X157842428Y-80357142D02*
X157890047Y-80333333D01*
X157890047Y-80333333D02*
X157961476Y-80333333D01*
X157961476Y-80333333D02*
X158009095Y-80357142D01*
X158009095Y-80357142D02*
X158032904Y-80380952D01*
X158032904Y-80380952D02*
X158056714Y-80428571D01*
X158056714Y-80428571D02*
X158056714Y-80619047D01*
X158009095Y-80047618D02*
X157985285Y-80095237D01*
X157985285Y-80095237D02*
X157961476Y-80119047D01*
X157961476Y-80119047D02*
X157913857Y-80142856D01*
X157913857Y-80142856D02*
X157890047Y-80142856D01*
X157890047Y-80142856D02*
X157842428Y-80119047D01*
X157842428Y-80119047D02*
X157818619Y-80095237D01*
X157818619Y-80095237D02*
X157794809Y-80047618D01*
X157794809Y-80047618D02*
X157794809Y-79952380D01*
X157794809Y-79952380D02*
X157818619Y-79904761D01*
X157818619Y-79904761D02*
X157842428Y-79880952D01*
X157842428Y-79880952D02*
X157890047Y-79857142D01*
X157890047Y-79857142D02*
X157913857Y-79857142D01*
X157913857Y-79857142D02*
X157961476Y-79880952D01*
X157961476Y-79880952D02*
X157985285Y-79904761D01*
X157985285Y-79904761D02*
X158009095Y-79952380D01*
X158009095Y-79952380D02*
X158009095Y-80047618D01*
X158009095Y-80047618D02*
X158032904Y-80095237D01*
X158032904Y-80095237D02*
X158056714Y-80119047D01*
X158056714Y-80119047D02*
X158104333Y-80142856D01*
X158104333Y-80142856D02*
X158199571Y-80142856D01*
X158199571Y-80142856D02*
X158247190Y-80119047D01*
X158247190Y-80119047D02*
X158271000Y-80095237D01*
X158271000Y-80095237D02*
X158294809Y-80047618D01*
X158294809Y-80047618D02*
X158294809Y-79952380D01*
X158294809Y-79952380D02*
X158271000Y-79904761D01*
X158271000Y-79904761D02*
X158247190Y-79880952D01*
X158247190Y-79880952D02*
X158199571Y-79857142D01*
X158199571Y-79857142D02*
X158104333Y-79857142D01*
X158104333Y-79857142D02*
X158056714Y-79880952D01*
X158056714Y-79880952D02*
X158032904Y-79904761D01*
X158032904Y-79904761D02*
X158009095Y-79952380D01*
X141444754Y-80341323D02*
X141420945Y-80365133D01*
X141420945Y-80365133D02*
X141349516Y-80388942D01*
X141349516Y-80388942D02*
X141301897Y-80388942D01*
X141301897Y-80388942D02*
X141230469Y-80365133D01*
X141230469Y-80365133D02*
X141182850Y-80317513D01*
X141182850Y-80317513D02*
X141159040Y-80269894D01*
X141159040Y-80269894D02*
X141135231Y-80174656D01*
X141135231Y-80174656D02*
X141135231Y-80103228D01*
X141135231Y-80103228D02*
X141159040Y-80007990D01*
X141159040Y-80007990D02*
X141182850Y-79960371D01*
X141182850Y-79960371D02*
X141230469Y-79912752D01*
X141230469Y-79912752D02*
X141301897Y-79888942D01*
X141301897Y-79888942D02*
X141349516Y-79888942D01*
X141349516Y-79888942D02*
X141420945Y-79912752D01*
X141420945Y-79912752D02*
X141444754Y-79936561D01*
X141920945Y-80388942D02*
X141635231Y-80388942D01*
X141778088Y-80388942D02*
X141778088Y-79888942D01*
X141778088Y-79888942D02*
X141730469Y-79960371D01*
X141730469Y-79960371D02*
X141682850Y-80007990D01*
X141682850Y-80007990D02*
X141635231Y-80031799D01*
X142111421Y-79936561D02*
X142135230Y-79912752D01*
X142135230Y-79912752D02*
X142182849Y-79888942D01*
X142182849Y-79888942D02*
X142301897Y-79888942D01*
X142301897Y-79888942D02*
X142349516Y-79912752D01*
X142349516Y-79912752D02*
X142373325Y-79936561D01*
X142373325Y-79936561D02*
X142397135Y-79984180D01*
X142397135Y-79984180D02*
X142397135Y-80031799D01*
X142397135Y-80031799D02*
X142373325Y-80103228D01*
X142373325Y-80103228D02*
X142087611Y-80388942D01*
X142087611Y-80388942D02*
X142397135Y-80388942D01*
X150000877Y-102492975D02*
X150238972Y-102492975D01*
X149953258Y-102635832D02*
X150119924Y-102135832D01*
X150119924Y-102135832D02*
X150286591Y-102635832D01*
X150453257Y-102373927D02*
X150619924Y-102373927D01*
X150691352Y-102635832D02*
X150453257Y-102635832D01*
X150453257Y-102635832D02*
X150453257Y-102135832D01*
X150453257Y-102135832D02*
X150691352Y-102135832D01*
X150881829Y-102183451D02*
X150905638Y-102159642D01*
X150905638Y-102159642D02*
X150953257Y-102135832D01*
X150953257Y-102135832D02*
X151072305Y-102135832D01*
X151072305Y-102135832D02*
X151119924Y-102159642D01*
X151119924Y-102159642D02*
X151143733Y-102183451D01*
X151143733Y-102183451D02*
X151167543Y-102231070D01*
X151167543Y-102231070D02*
X151167543Y-102278689D01*
X151167543Y-102278689D02*
X151143733Y-102350118D01*
X151143733Y-102350118D02*
X150858019Y-102635832D01*
X150858019Y-102635832D02*
X151167543Y-102635832D01*
X156433688Y-89261838D02*
X156195593Y-89261838D01*
X156195593Y-89261838D02*
X156195593Y-88761838D01*
X156552736Y-88761838D02*
X156862260Y-88761838D01*
X156862260Y-88761838D02*
X156695593Y-88952314D01*
X156695593Y-88952314D02*
X156767022Y-88952314D01*
X156767022Y-88952314D02*
X156814641Y-88976124D01*
X156814641Y-88976124D02*
X156838450Y-88999933D01*
X156838450Y-88999933D02*
X156862260Y-89047552D01*
X156862260Y-89047552D02*
X156862260Y-89166600D01*
X156862260Y-89166600D02*
X156838450Y-89214219D01*
X156838450Y-89214219D02*
X156814641Y-89238029D01*
X156814641Y-89238029D02*
X156767022Y-89261838D01*
X156767022Y-89261838D02*
X156624165Y-89261838D01*
X156624165Y-89261838D02*
X156576546Y-89238029D01*
X156576546Y-89238029D02*
X156552736Y-89214219D01*
X145434001Y-100604794D02*
X145267335Y-100366699D01*
X145148287Y-100604794D02*
X145148287Y-100104794D01*
X145148287Y-100104794D02*
X145338763Y-100104794D01*
X145338763Y-100104794D02*
X145386382Y-100128604D01*
X145386382Y-100128604D02*
X145410192Y-100152413D01*
X145410192Y-100152413D02*
X145434001Y-100200032D01*
X145434001Y-100200032D02*
X145434001Y-100271461D01*
X145434001Y-100271461D02*
X145410192Y-100319080D01*
X145410192Y-100319080D02*
X145386382Y-100342889D01*
X145386382Y-100342889D02*
X145338763Y-100366699D01*
X145338763Y-100366699D02*
X145148287Y-100366699D01*
X145910192Y-100604794D02*
X145624478Y-100604794D01*
X145767335Y-100604794D02*
X145767335Y-100104794D01*
X145767335Y-100104794D02*
X145719716Y-100176223D01*
X145719716Y-100176223D02*
X145672097Y-100223842D01*
X145672097Y-100223842D02*
X145624478Y-100247651D01*
X146076858Y-100104794D02*
X146386382Y-100104794D01*
X146386382Y-100104794D02*
X146219715Y-100295270D01*
X146219715Y-100295270D02*
X146291144Y-100295270D01*
X146291144Y-100295270D02*
X146338763Y-100319080D01*
X146338763Y-100319080D02*
X146362572Y-100342889D01*
X146362572Y-100342889D02*
X146386382Y-100390508D01*
X146386382Y-100390508D02*
X146386382Y-100509556D01*
X146386382Y-100509556D02*
X146362572Y-100557175D01*
X146362572Y-100557175D02*
X146338763Y-100580985D01*
X146338763Y-100580985D02*
X146291144Y-100604794D01*
X146291144Y-100604794D02*
X146148287Y-100604794D01*
X146148287Y-100604794D02*
X146100668Y-100580985D01*
X146100668Y-100580985D02*
X146076858Y-100557175D01*
X146928571Y-96837190D02*
X146904762Y-96861000D01*
X146904762Y-96861000D02*
X146833333Y-96884809D01*
X146833333Y-96884809D02*
X146785714Y-96884809D01*
X146785714Y-96884809D02*
X146714286Y-96861000D01*
X146714286Y-96861000D02*
X146666667Y-96813380D01*
X146666667Y-96813380D02*
X146642857Y-96765761D01*
X146642857Y-96765761D02*
X146619048Y-96670523D01*
X146619048Y-96670523D02*
X146619048Y-96599095D01*
X146619048Y-96599095D02*
X146642857Y-96503857D01*
X146642857Y-96503857D02*
X146666667Y-96456238D01*
X146666667Y-96456238D02*
X146714286Y-96408619D01*
X146714286Y-96408619D02*
X146785714Y-96384809D01*
X146785714Y-96384809D02*
X146833333Y-96384809D01*
X146833333Y-96384809D02*
X146904762Y-96408619D01*
X146904762Y-96408619D02*
X146928571Y-96432428D01*
X147119048Y-96432428D02*
X147142857Y-96408619D01*
X147142857Y-96408619D02*
X147190476Y-96384809D01*
X147190476Y-96384809D02*
X147309524Y-96384809D01*
X147309524Y-96384809D02*
X147357143Y-96408619D01*
X147357143Y-96408619D02*
X147380952Y-96432428D01*
X147380952Y-96432428D02*
X147404762Y-96480047D01*
X147404762Y-96480047D02*
X147404762Y-96527666D01*
X147404762Y-96527666D02*
X147380952Y-96599095D01*
X147380952Y-96599095D02*
X147095238Y-96884809D01*
X147095238Y-96884809D02*
X147404762Y-96884809D01*
X147571428Y-96384809D02*
X147880952Y-96384809D01*
X147880952Y-96384809D02*
X147714285Y-96575285D01*
X147714285Y-96575285D02*
X147785714Y-96575285D01*
X147785714Y-96575285D02*
X147833333Y-96599095D01*
X147833333Y-96599095D02*
X147857142Y-96622904D01*
X147857142Y-96622904D02*
X147880952Y-96670523D01*
X147880952Y-96670523D02*
X147880952Y-96789571D01*
X147880952Y-96789571D02*
X147857142Y-96837190D01*
X147857142Y-96837190D02*
X147833333Y-96861000D01*
X147833333Y-96861000D02*
X147785714Y-96884809D01*
X147785714Y-96884809D02*
X147642857Y-96884809D01*
X147642857Y-96884809D02*
X147595238Y-96861000D01*
X147595238Y-96861000D02*
X147571428Y-96837190D01*
X141003821Y-106453358D02*
X140765726Y-106620024D01*
X141003821Y-106739072D02*
X140503821Y-106739072D01*
X140503821Y-106739072D02*
X140503821Y-106548596D01*
X140503821Y-106548596D02*
X140527631Y-106500977D01*
X140527631Y-106500977D02*
X140551440Y-106477167D01*
X140551440Y-106477167D02*
X140599059Y-106453358D01*
X140599059Y-106453358D02*
X140670488Y-106453358D01*
X140670488Y-106453358D02*
X140718107Y-106477167D01*
X140718107Y-106477167D02*
X140741916Y-106500977D01*
X140741916Y-106500977D02*
X140765726Y-106548596D01*
X140765726Y-106548596D02*
X140765726Y-106739072D01*
X141003821Y-105977167D02*
X141003821Y-106262881D01*
X141003821Y-106120024D02*
X140503821Y-106120024D01*
X140503821Y-106120024D02*
X140575250Y-106167643D01*
X140575250Y-106167643D02*
X140622869Y-106215262D01*
X140622869Y-106215262D02*
X140646678Y-106262881D01*
X140503821Y-105524787D02*
X140503821Y-105762882D01*
X140503821Y-105762882D02*
X140741916Y-105786691D01*
X140741916Y-105786691D02*
X140718107Y-105762882D01*
X140718107Y-105762882D02*
X140694297Y-105715263D01*
X140694297Y-105715263D02*
X140694297Y-105596215D01*
X140694297Y-105596215D02*
X140718107Y-105548596D01*
X140718107Y-105548596D02*
X140741916Y-105524787D01*
X140741916Y-105524787D02*
X140789535Y-105500977D01*
X140789535Y-105500977D02*
X140908583Y-105500977D01*
X140908583Y-105500977D02*
X140956202Y-105524787D01*
X140956202Y-105524787D02*
X140980012Y-105548596D01*
X140980012Y-105548596D02*
X141003821Y-105596215D01*
X141003821Y-105596215D02*
X141003821Y-105715263D01*
X141003821Y-105715263D02*
X140980012Y-105762882D01*
X140980012Y-105762882D02*
X140956202Y-105786691D01*
X162083333Y-69144809D02*
X162083333Y-69501952D01*
X162083333Y-69501952D02*
X162059524Y-69573380D01*
X162059524Y-69573380D02*
X162011905Y-69621000D01*
X162011905Y-69621000D02*
X161940476Y-69644809D01*
X161940476Y-69644809D02*
X161892857Y-69644809D01*
X162297619Y-69192428D02*
X162321428Y-69168619D01*
X162321428Y-69168619D02*
X162369047Y-69144809D01*
X162369047Y-69144809D02*
X162488095Y-69144809D01*
X162488095Y-69144809D02*
X162535714Y-69168619D01*
X162535714Y-69168619D02*
X162559523Y-69192428D01*
X162559523Y-69192428D02*
X162583333Y-69240047D01*
X162583333Y-69240047D02*
X162583333Y-69287666D01*
X162583333Y-69287666D02*
X162559523Y-69359095D01*
X162559523Y-69359095D02*
X162273809Y-69644809D01*
X162273809Y-69644809D02*
X162583333Y-69644809D01*
X146089767Y-54443830D02*
X146113577Y-54467639D01*
X146113577Y-54467639D02*
X146137386Y-54539068D01*
X146137386Y-54539068D02*
X146137386Y-54586687D01*
X146137386Y-54586687D02*
X146113577Y-54658115D01*
X146113577Y-54658115D02*
X146065957Y-54705734D01*
X146065957Y-54705734D02*
X146018338Y-54729544D01*
X146018338Y-54729544D02*
X145923100Y-54753353D01*
X145923100Y-54753353D02*
X145851672Y-54753353D01*
X145851672Y-54753353D02*
X145756434Y-54729544D01*
X145756434Y-54729544D02*
X145708815Y-54705734D01*
X145708815Y-54705734D02*
X145661196Y-54658115D01*
X145661196Y-54658115D02*
X145637386Y-54586687D01*
X145637386Y-54586687D02*
X145637386Y-54539068D01*
X145637386Y-54539068D02*
X145661196Y-54467639D01*
X145661196Y-54467639D02*
X145685005Y-54443830D01*
X146137386Y-53967639D02*
X146137386Y-54253353D01*
X146137386Y-54110496D02*
X145637386Y-54110496D01*
X145637386Y-54110496D02*
X145708815Y-54158115D01*
X145708815Y-54158115D02*
X145756434Y-54205734D01*
X145756434Y-54205734D02*
X145780243Y-54253353D01*
X146763997Y-98903748D02*
X146740188Y-98927558D01*
X146740188Y-98927558D02*
X146668759Y-98951367D01*
X146668759Y-98951367D02*
X146621140Y-98951367D01*
X146621140Y-98951367D02*
X146549712Y-98927558D01*
X146549712Y-98927558D02*
X146502093Y-98879938D01*
X146502093Y-98879938D02*
X146478283Y-98832319D01*
X146478283Y-98832319D02*
X146454474Y-98737081D01*
X146454474Y-98737081D02*
X146454474Y-98665653D01*
X146454474Y-98665653D02*
X146478283Y-98570415D01*
X146478283Y-98570415D02*
X146502093Y-98522796D01*
X146502093Y-98522796D02*
X146549712Y-98475177D01*
X146549712Y-98475177D02*
X146621140Y-98451367D01*
X146621140Y-98451367D02*
X146668759Y-98451367D01*
X146668759Y-98451367D02*
X146740188Y-98475177D01*
X146740188Y-98475177D02*
X146763997Y-98498986D01*
X146954474Y-98498986D02*
X146978283Y-98475177D01*
X146978283Y-98475177D02*
X147025902Y-98451367D01*
X147025902Y-98451367D02*
X147144950Y-98451367D01*
X147144950Y-98451367D02*
X147192569Y-98475177D01*
X147192569Y-98475177D02*
X147216378Y-98498986D01*
X147216378Y-98498986D02*
X147240188Y-98546605D01*
X147240188Y-98546605D02*
X147240188Y-98594224D01*
X147240188Y-98594224D02*
X147216378Y-98665653D01*
X147216378Y-98665653D02*
X146930664Y-98951367D01*
X146930664Y-98951367D02*
X147240188Y-98951367D01*
X147668759Y-98451367D02*
X147573521Y-98451367D01*
X147573521Y-98451367D02*
X147525902Y-98475177D01*
X147525902Y-98475177D02*
X147502092Y-98498986D01*
X147502092Y-98498986D02*
X147454473Y-98570415D01*
X147454473Y-98570415D02*
X147430664Y-98665653D01*
X147430664Y-98665653D02*
X147430664Y-98856129D01*
X147430664Y-98856129D02*
X147454473Y-98903748D01*
X147454473Y-98903748D02*
X147478283Y-98927558D01*
X147478283Y-98927558D02*
X147525902Y-98951367D01*
X147525902Y-98951367D02*
X147621140Y-98951367D01*
X147621140Y-98951367D02*
X147668759Y-98927558D01*
X147668759Y-98927558D02*
X147692568Y-98903748D01*
X147692568Y-98903748D02*
X147716378Y-98856129D01*
X147716378Y-98856129D02*
X147716378Y-98737081D01*
X147716378Y-98737081D02*
X147692568Y-98689462D01*
X147692568Y-98689462D02*
X147668759Y-98665653D01*
X147668759Y-98665653D02*
X147621140Y-98641843D01*
X147621140Y-98641843D02*
X147525902Y-98641843D01*
X147525902Y-98641843D02*
X147478283Y-98665653D01*
X147478283Y-98665653D02*
X147454473Y-98689462D01*
X147454473Y-98689462D02*
X147430664Y-98737081D01*
X142034144Y-50001110D02*
X142034144Y-50405872D01*
X142034144Y-50405872D02*
X142057954Y-50453491D01*
X142057954Y-50453491D02*
X142081763Y-50477301D01*
X142081763Y-50477301D02*
X142129382Y-50501110D01*
X142129382Y-50501110D02*
X142224620Y-50501110D01*
X142224620Y-50501110D02*
X142272239Y-50477301D01*
X142272239Y-50477301D02*
X142296049Y-50453491D01*
X142296049Y-50453491D02*
X142319858Y-50405872D01*
X142319858Y-50405872D02*
X142319858Y-50001110D01*
X142819859Y-50501110D02*
X142534145Y-50501110D01*
X142677002Y-50501110D02*
X142677002Y-50001110D01*
X142677002Y-50001110D02*
X142629383Y-50072539D01*
X142629383Y-50072539D02*
X142581764Y-50120158D01*
X142581764Y-50120158D02*
X142534145Y-50143967D01*
X162083333Y-92069809D02*
X162083333Y-92426952D01*
X162083333Y-92426952D02*
X162059524Y-92498380D01*
X162059524Y-92498380D02*
X162011905Y-92546000D01*
X162011905Y-92546000D02*
X161940476Y-92569809D01*
X161940476Y-92569809D02*
X161892857Y-92569809D01*
X162535714Y-92069809D02*
X162440476Y-92069809D01*
X162440476Y-92069809D02*
X162392857Y-92093619D01*
X162392857Y-92093619D02*
X162369047Y-92117428D01*
X162369047Y-92117428D02*
X162321428Y-92188857D01*
X162321428Y-92188857D02*
X162297619Y-92284095D01*
X162297619Y-92284095D02*
X162297619Y-92474571D01*
X162297619Y-92474571D02*
X162321428Y-92522190D01*
X162321428Y-92522190D02*
X162345238Y-92546000D01*
X162345238Y-92546000D02*
X162392857Y-92569809D01*
X162392857Y-92569809D02*
X162488095Y-92569809D01*
X162488095Y-92569809D02*
X162535714Y-92546000D01*
X162535714Y-92546000D02*
X162559523Y-92522190D01*
X162559523Y-92522190D02*
X162583333Y-92474571D01*
X162583333Y-92474571D02*
X162583333Y-92355523D01*
X162583333Y-92355523D02*
X162559523Y-92307904D01*
X162559523Y-92307904D02*
X162535714Y-92284095D01*
X162535714Y-92284095D02*
X162488095Y-92260285D01*
X162488095Y-92260285D02*
X162392857Y-92260285D01*
X162392857Y-92260285D02*
X162345238Y-92284095D01*
X162345238Y-92284095D02*
X162321428Y-92307904D01*
X162321428Y-92307904D02*
X162297619Y-92355523D01*
X145380004Y-104237949D02*
X145380004Y-103737949D01*
X145380004Y-103737949D02*
X145499052Y-103737949D01*
X145499052Y-103737949D02*
X145570480Y-103761759D01*
X145570480Y-103761759D02*
X145618099Y-103809378D01*
X145618099Y-103809378D02*
X145641909Y-103856997D01*
X145641909Y-103856997D02*
X145665718Y-103952235D01*
X145665718Y-103952235D02*
X145665718Y-104023663D01*
X145665718Y-104023663D02*
X145641909Y-104118901D01*
X145641909Y-104118901D02*
X145618099Y-104166520D01*
X145618099Y-104166520D02*
X145570480Y-104214140D01*
X145570480Y-104214140D02*
X145499052Y-104237949D01*
X145499052Y-104237949D02*
X145380004Y-104237949D01*
X145856195Y-103785568D02*
X145880004Y-103761759D01*
X145880004Y-103761759D02*
X145927623Y-103737949D01*
X145927623Y-103737949D02*
X146046671Y-103737949D01*
X146046671Y-103737949D02*
X146094290Y-103761759D01*
X146094290Y-103761759D02*
X146118099Y-103785568D01*
X146118099Y-103785568D02*
X146141909Y-103833187D01*
X146141909Y-103833187D02*
X146141909Y-103880806D01*
X146141909Y-103880806D02*
X146118099Y-103952235D01*
X146118099Y-103952235D02*
X145832385Y-104237949D01*
X145832385Y-104237949D02*
X146141909Y-104237949D01*
X155311666Y-64252190D02*
X155287857Y-64276000D01*
X155287857Y-64276000D02*
X155216428Y-64299809D01*
X155216428Y-64299809D02*
X155168809Y-64299809D01*
X155168809Y-64299809D02*
X155097381Y-64276000D01*
X155097381Y-64276000D02*
X155049762Y-64228380D01*
X155049762Y-64228380D02*
X155025952Y-64180761D01*
X155025952Y-64180761D02*
X155002143Y-64085523D01*
X155002143Y-64085523D02*
X155002143Y-64014095D01*
X155002143Y-64014095D02*
X155025952Y-63918857D01*
X155025952Y-63918857D02*
X155049762Y-63871238D01*
X155049762Y-63871238D02*
X155097381Y-63823619D01*
X155097381Y-63823619D02*
X155168809Y-63799809D01*
X155168809Y-63799809D02*
X155216428Y-63799809D01*
X155216428Y-63799809D02*
X155287857Y-63823619D01*
X155287857Y-63823619D02*
X155311666Y-63847428D01*
X155740238Y-63966476D02*
X155740238Y-64299809D01*
X155621190Y-63776000D02*
X155502143Y-64133142D01*
X155502143Y-64133142D02*
X155811666Y-64133142D01*
X153944080Y-97050507D02*
X153920271Y-97074317D01*
X153920271Y-97074317D02*
X153848842Y-97098126D01*
X153848842Y-97098126D02*
X153801223Y-97098126D01*
X153801223Y-97098126D02*
X153729795Y-97074317D01*
X153729795Y-97074317D02*
X153682176Y-97026697D01*
X153682176Y-97026697D02*
X153658366Y-96979078D01*
X153658366Y-96979078D02*
X153634557Y-96883840D01*
X153634557Y-96883840D02*
X153634557Y-96812412D01*
X153634557Y-96812412D02*
X153658366Y-96717174D01*
X153658366Y-96717174D02*
X153682176Y-96669555D01*
X153682176Y-96669555D02*
X153729795Y-96621936D01*
X153729795Y-96621936D02*
X153801223Y-96598126D01*
X153801223Y-96598126D02*
X153848842Y-96598126D01*
X153848842Y-96598126D02*
X153920271Y-96621936D01*
X153920271Y-96621936D02*
X153944080Y-96645745D01*
X154134557Y-96645745D02*
X154158366Y-96621936D01*
X154158366Y-96621936D02*
X154205985Y-96598126D01*
X154205985Y-96598126D02*
X154325033Y-96598126D01*
X154325033Y-96598126D02*
X154372652Y-96621936D01*
X154372652Y-96621936D02*
X154396461Y-96645745D01*
X154396461Y-96645745D02*
X154420271Y-96693364D01*
X154420271Y-96693364D02*
X154420271Y-96740983D01*
X154420271Y-96740983D02*
X154396461Y-96812412D01*
X154396461Y-96812412D02*
X154110747Y-97098126D01*
X154110747Y-97098126D02*
X154420271Y-97098126D01*
X154848842Y-96764793D02*
X154848842Y-97098126D01*
X154729794Y-96574317D02*
X154610747Y-96931459D01*
X154610747Y-96931459D02*
X154920270Y-96931459D01*
X150706666Y-62929809D02*
X150468571Y-62929809D01*
X150468571Y-62929809D02*
X150468571Y-62429809D01*
X150849524Y-62477428D02*
X150873333Y-62453619D01*
X150873333Y-62453619D02*
X150920952Y-62429809D01*
X150920952Y-62429809D02*
X151040000Y-62429809D01*
X151040000Y-62429809D02*
X151087619Y-62453619D01*
X151087619Y-62453619D02*
X151111428Y-62477428D01*
X151111428Y-62477428D02*
X151135238Y-62525047D01*
X151135238Y-62525047D02*
X151135238Y-62572666D01*
X151135238Y-62572666D02*
X151111428Y-62644095D01*
X151111428Y-62644095D02*
X150825714Y-62929809D01*
X150825714Y-62929809D02*
X151135238Y-62929809D01*
X150923928Y-75470944D02*
X150900119Y-75494754D01*
X150900119Y-75494754D02*
X150828690Y-75518563D01*
X150828690Y-75518563D02*
X150781071Y-75518563D01*
X150781071Y-75518563D02*
X150709643Y-75494754D01*
X150709643Y-75494754D02*
X150662024Y-75447134D01*
X150662024Y-75447134D02*
X150638214Y-75399515D01*
X150638214Y-75399515D02*
X150614405Y-75304277D01*
X150614405Y-75304277D02*
X150614405Y-75232849D01*
X150614405Y-75232849D02*
X150638214Y-75137611D01*
X150638214Y-75137611D02*
X150662024Y-75089992D01*
X150662024Y-75089992D02*
X150709643Y-75042373D01*
X150709643Y-75042373D02*
X150781071Y-75018563D01*
X150781071Y-75018563D02*
X150828690Y-75018563D01*
X150828690Y-75018563D02*
X150900119Y-75042373D01*
X150900119Y-75042373D02*
X150923928Y-75066182D01*
X151400119Y-75518563D02*
X151114405Y-75518563D01*
X151257262Y-75518563D02*
X151257262Y-75018563D01*
X151257262Y-75018563D02*
X151209643Y-75089992D01*
X151209643Y-75089992D02*
X151162024Y-75137611D01*
X151162024Y-75137611D02*
X151114405Y-75161420D01*
X151709642Y-75018563D02*
X151757261Y-75018563D01*
X151757261Y-75018563D02*
X151804880Y-75042373D01*
X151804880Y-75042373D02*
X151828690Y-75066182D01*
X151828690Y-75066182D02*
X151852499Y-75113801D01*
X151852499Y-75113801D02*
X151876309Y-75209039D01*
X151876309Y-75209039D02*
X151876309Y-75328087D01*
X151876309Y-75328087D02*
X151852499Y-75423325D01*
X151852499Y-75423325D02*
X151828690Y-75470944D01*
X151828690Y-75470944D02*
X151804880Y-75494754D01*
X151804880Y-75494754D02*
X151757261Y-75518563D01*
X151757261Y-75518563D02*
X151709642Y-75518563D01*
X151709642Y-75518563D02*
X151662023Y-75494754D01*
X151662023Y-75494754D02*
X151638214Y-75470944D01*
X151638214Y-75470944D02*
X151614404Y-75423325D01*
X151614404Y-75423325D02*
X151590595Y-75328087D01*
X151590595Y-75328087D02*
X151590595Y-75209039D01*
X151590595Y-75209039D02*
X151614404Y-75113801D01*
X151614404Y-75113801D02*
X151638214Y-75066182D01*
X151638214Y-75066182D02*
X151662023Y-75042373D01*
X151662023Y-75042373D02*
X151709642Y-75018563D01*
X157362061Y-99054583D02*
X157362061Y-99292678D01*
X157362061Y-99292678D02*
X156862061Y-99292678D01*
X156862061Y-98673630D02*
X156862061Y-98768868D01*
X156862061Y-98768868D02*
X156885871Y-98816487D01*
X156885871Y-98816487D02*
X156909680Y-98840297D01*
X156909680Y-98840297D02*
X156981109Y-98887916D01*
X156981109Y-98887916D02*
X157076347Y-98911725D01*
X157076347Y-98911725D02*
X157266823Y-98911725D01*
X157266823Y-98911725D02*
X157314442Y-98887916D01*
X157314442Y-98887916D02*
X157338252Y-98864106D01*
X157338252Y-98864106D02*
X157362061Y-98816487D01*
X157362061Y-98816487D02*
X157362061Y-98721249D01*
X157362061Y-98721249D02*
X157338252Y-98673630D01*
X157338252Y-98673630D02*
X157314442Y-98649821D01*
X157314442Y-98649821D02*
X157266823Y-98626011D01*
X157266823Y-98626011D02*
X157147775Y-98626011D01*
X157147775Y-98626011D02*
X157100156Y-98649821D01*
X157100156Y-98649821D02*
X157076347Y-98673630D01*
X157076347Y-98673630D02*
X157052537Y-98721249D01*
X157052537Y-98721249D02*
X157052537Y-98816487D01*
X157052537Y-98816487D02*
X157076347Y-98864106D01*
X157076347Y-98864106D02*
X157100156Y-98887916D01*
X157100156Y-98887916D02*
X157147775Y-98911725D01*
X144164030Y-81328066D02*
X144140221Y-81351876D01*
X144140221Y-81351876D02*
X144068792Y-81375685D01*
X144068792Y-81375685D02*
X144021173Y-81375685D01*
X144021173Y-81375685D02*
X143949745Y-81351876D01*
X143949745Y-81351876D02*
X143902126Y-81304256D01*
X143902126Y-81304256D02*
X143878316Y-81256637D01*
X143878316Y-81256637D02*
X143854507Y-81161399D01*
X143854507Y-81161399D02*
X143854507Y-81089971D01*
X143854507Y-81089971D02*
X143878316Y-80994733D01*
X143878316Y-80994733D02*
X143902126Y-80947114D01*
X143902126Y-80947114D02*
X143949745Y-80899495D01*
X143949745Y-80899495D02*
X144021173Y-80875685D01*
X144021173Y-80875685D02*
X144068792Y-80875685D01*
X144068792Y-80875685D02*
X144140221Y-80899495D01*
X144140221Y-80899495D02*
X144164030Y-80923304D01*
X144640221Y-81375685D02*
X144354507Y-81375685D01*
X144497364Y-81375685D02*
X144497364Y-80875685D01*
X144497364Y-80875685D02*
X144449745Y-80947114D01*
X144449745Y-80947114D02*
X144402126Y-80994733D01*
X144402126Y-80994733D02*
X144354507Y-81018542D01*
X144806887Y-80875685D02*
X145116411Y-80875685D01*
X145116411Y-80875685D02*
X144949744Y-81066161D01*
X144949744Y-81066161D02*
X145021173Y-81066161D01*
X145021173Y-81066161D02*
X145068792Y-81089971D01*
X145068792Y-81089971D02*
X145092601Y-81113780D01*
X145092601Y-81113780D02*
X145116411Y-81161399D01*
X145116411Y-81161399D02*
X145116411Y-81280447D01*
X145116411Y-81280447D02*
X145092601Y-81328066D01*
X145092601Y-81328066D02*
X145068792Y-81351876D01*
X145068792Y-81351876D02*
X145021173Y-81375685D01*
X145021173Y-81375685D02*
X144878316Y-81375685D01*
X144878316Y-81375685D02*
X144830697Y-81351876D01*
X144830697Y-81351876D02*
X144806887Y-81328066D01*
X145918839Y-91750257D02*
X145918839Y-92155019D01*
X145918839Y-92155019D02*
X145942649Y-92202638D01*
X145942649Y-92202638D02*
X145966458Y-92226448D01*
X145966458Y-92226448D02*
X146014077Y-92250257D01*
X146014077Y-92250257D02*
X146109315Y-92250257D01*
X146109315Y-92250257D02*
X146156934Y-92226448D01*
X146156934Y-92226448D02*
X146180744Y-92202638D01*
X146180744Y-92202638D02*
X146204553Y-92155019D01*
X146204553Y-92155019D02*
X146204553Y-91750257D01*
X146514078Y-91964543D02*
X146466459Y-91940733D01*
X146466459Y-91940733D02*
X146442649Y-91916924D01*
X146442649Y-91916924D02*
X146418840Y-91869305D01*
X146418840Y-91869305D02*
X146418840Y-91845495D01*
X146418840Y-91845495D02*
X146442649Y-91797876D01*
X146442649Y-91797876D02*
X146466459Y-91774067D01*
X146466459Y-91774067D02*
X146514078Y-91750257D01*
X146514078Y-91750257D02*
X146609316Y-91750257D01*
X146609316Y-91750257D02*
X146656935Y-91774067D01*
X146656935Y-91774067D02*
X146680744Y-91797876D01*
X146680744Y-91797876D02*
X146704554Y-91845495D01*
X146704554Y-91845495D02*
X146704554Y-91869305D01*
X146704554Y-91869305D02*
X146680744Y-91916924D01*
X146680744Y-91916924D02*
X146656935Y-91940733D01*
X146656935Y-91940733D02*
X146609316Y-91964543D01*
X146609316Y-91964543D02*
X146514078Y-91964543D01*
X146514078Y-91964543D02*
X146466459Y-91988352D01*
X146466459Y-91988352D02*
X146442649Y-92012162D01*
X146442649Y-92012162D02*
X146418840Y-92059781D01*
X146418840Y-92059781D02*
X146418840Y-92155019D01*
X146418840Y-92155019D02*
X146442649Y-92202638D01*
X146442649Y-92202638D02*
X146466459Y-92226448D01*
X146466459Y-92226448D02*
X146514078Y-92250257D01*
X146514078Y-92250257D02*
X146609316Y-92250257D01*
X146609316Y-92250257D02*
X146656935Y-92226448D01*
X146656935Y-92226448D02*
X146680744Y-92202638D01*
X146680744Y-92202638D02*
X146704554Y-92155019D01*
X146704554Y-92155019D02*
X146704554Y-92059781D01*
X146704554Y-92059781D02*
X146680744Y-92012162D01*
X146680744Y-92012162D02*
X146656935Y-91988352D01*
X146656935Y-91988352D02*
X146609316Y-91964543D01*
X143675479Y-75904919D02*
X143508813Y-75666824D01*
X143389765Y-75904919D02*
X143389765Y-75404919D01*
X143389765Y-75404919D02*
X143580241Y-75404919D01*
X143580241Y-75404919D02*
X143627860Y-75428729D01*
X143627860Y-75428729D02*
X143651670Y-75452538D01*
X143651670Y-75452538D02*
X143675479Y-75500157D01*
X143675479Y-75500157D02*
X143675479Y-75571586D01*
X143675479Y-75571586D02*
X143651670Y-75619205D01*
X143651670Y-75619205D02*
X143627860Y-75643014D01*
X143627860Y-75643014D02*
X143580241Y-75666824D01*
X143580241Y-75666824D02*
X143389765Y-75666824D01*
X144104051Y-75404919D02*
X144008813Y-75404919D01*
X144008813Y-75404919D02*
X143961194Y-75428729D01*
X143961194Y-75428729D02*
X143937384Y-75452538D01*
X143937384Y-75452538D02*
X143889765Y-75523967D01*
X143889765Y-75523967D02*
X143865956Y-75619205D01*
X143865956Y-75619205D02*
X143865956Y-75809681D01*
X143865956Y-75809681D02*
X143889765Y-75857300D01*
X143889765Y-75857300D02*
X143913575Y-75881110D01*
X143913575Y-75881110D02*
X143961194Y-75904919D01*
X143961194Y-75904919D02*
X144056432Y-75904919D01*
X144056432Y-75904919D02*
X144104051Y-75881110D01*
X144104051Y-75881110D02*
X144127860Y-75857300D01*
X144127860Y-75857300D02*
X144151670Y-75809681D01*
X144151670Y-75809681D02*
X144151670Y-75690633D01*
X144151670Y-75690633D02*
X144127860Y-75643014D01*
X144127860Y-75643014D02*
X144104051Y-75619205D01*
X144104051Y-75619205D02*
X144056432Y-75595395D01*
X144056432Y-75595395D02*
X143961194Y-75595395D01*
X143961194Y-75595395D02*
X143913575Y-75619205D01*
X143913575Y-75619205D02*
X143889765Y-75643014D01*
X143889765Y-75643014D02*
X143865956Y-75690633D01*
X152829484Y-76691984D02*
X152662818Y-76453889D01*
X152543770Y-76691984D02*
X152543770Y-76191984D01*
X152543770Y-76191984D02*
X152734246Y-76191984D01*
X152734246Y-76191984D02*
X152781865Y-76215794D01*
X152781865Y-76215794D02*
X152805675Y-76239603D01*
X152805675Y-76239603D02*
X152829484Y-76287222D01*
X152829484Y-76287222D02*
X152829484Y-76358651D01*
X152829484Y-76358651D02*
X152805675Y-76406270D01*
X152805675Y-76406270D02*
X152781865Y-76430079D01*
X152781865Y-76430079D02*
X152734246Y-76453889D01*
X152734246Y-76453889D02*
X152543770Y-76453889D01*
X152996151Y-76191984D02*
X153329484Y-76191984D01*
X153329484Y-76191984D02*
X153115199Y-76691984D01*
X157482190Y-69838333D02*
X157506000Y-69862142D01*
X157506000Y-69862142D02*
X157529809Y-69933571D01*
X157529809Y-69933571D02*
X157529809Y-69981190D01*
X157529809Y-69981190D02*
X157506000Y-70052618D01*
X157506000Y-70052618D02*
X157458380Y-70100237D01*
X157458380Y-70100237D02*
X157410761Y-70124047D01*
X157410761Y-70124047D02*
X157315523Y-70147856D01*
X157315523Y-70147856D02*
X157244095Y-70147856D01*
X157244095Y-70147856D02*
X157148857Y-70124047D01*
X157148857Y-70124047D02*
X157101238Y-70100237D01*
X157101238Y-70100237D02*
X157053619Y-70052618D01*
X157053619Y-70052618D02*
X157029809Y-69981190D01*
X157029809Y-69981190D02*
X157029809Y-69933571D01*
X157029809Y-69933571D02*
X157053619Y-69862142D01*
X157053619Y-69862142D02*
X157077428Y-69838333D01*
X157244095Y-69552618D02*
X157220285Y-69600237D01*
X157220285Y-69600237D02*
X157196476Y-69624047D01*
X157196476Y-69624047D02*
X157148857Y-69647856D01*
X157148857Y-69647856D02*
X157125047Y-69647856D01*
X157125047Y-69647856D02*
X157077428Y-69624047D01*
X157077428Y-69624047D02*
X157053619Y-69600237D01*
X157053619Y-69600237D02*
X157029809Y-69552618D01*
X157029809Y-69552618D02*
X157029809Y-69457380D01*
X157029809Y-69457380D02*
X157053619Y-69409761D01*
X157053619Y-69409761D02*
X157077428Y-69385952D01*
X157077428Y-69385952D02*
X157125047Y-69362142D01*
X157125047Y-69362142D02*
X157148857Y-69362142D01*
X157148857Y-69362142D02*
X157196476Y-69385952D01*
X157196476Y-69385952D02*
X157220285Y-69409761D01*
X157220285Y-69409761D02*
X157244095Y-69457380D01*
X157244095Y-69457380D02*
X157244095Y-69552618D01*
X157244095Y-69552618D02*
X157267904Y-69600237D01*
X157267904Y-69600237D02*
X157291714Y-69624047D01*
X157291714Y-69624047D02*
X157339333Y-69647856D01*
X157339333Y-69647856D02*
X157434571Y-69647856D01*
X157434571Y-69647856D02*
X157482190Y-69624047D01*
X157482190Y-69624047D02*
X157506000Y-69600237D01*
X157506000Y-69600237D02*
X157529809Y-69552618D01*
X157529809Y-69552618D02*
X157529809Y-69457380D01*
X157529809Y-69457380D02*
X157506000Y-69409761D01*
X157506000Y-69409761D02*
X157482190Y-69385952D01*
X157482190Y-69385952D02*
X157434571Y-69362142D01*
X157434571Y-69362142D02*
X157339333Y-69362142D01*
X157339333Y-69362142D02*
X157291714Y-69385952D01*
X157291714Y-69385952D02*
X157267904Y-69409761D01*
X157267904Y-69409761D02*
X157244095Y-69457380D01*
X147434001Y-100604794D02*
X147267335Y-100366699D01*
X147148287Y-100604794D02*
X147148287Y-100104794D01*
X147148287Y-100104794D02*
X147338763Y-100104794D01*
X147338763Y-100104794D02*
X147386382Y-100128604D01*
X147386382Y-100128604D02*
X147410192Y-100152413D01*
X147410192Y-100152413D02*
X147434001Y-100200032D01*
X147434001Y-100200032D02*
X147434001Y-100271461D01*
X147434001Y-100271461D02*
X147410192Y-100319080D01*
X147410192Y-100319080D02*
X147386382Y-100342889D01*
X147386382Y-100342889D02*
X147338763Y-100366699D01*
X147338763Y-100366699D02*
X147148287Y-100366699D01*
X147910192Y-100604794D02*
X147624478Y-100604794D01*
X147767335Y-100604794D02*
X147767335Y-100104794D01*
X147767335Y-100104794D02*
X147719716Y-100176223D01*
X147719716Y-100176223D02*
X147672097Y-100223842D01*
X147672097Y-100223842D02*
X147624478Y-100247651D01*
X148338763Y-100271461D02*
X148338763Y-100604794D01*
X148219715Y-100080985D02*
X148100668Y-100438127D01*
X148100668Y-100438127D02*
X148410191Y-100438127D01*
X145420224Y-69916750D02*
X145444033Y-69845322D01*
X145444033Y-69845322D02*
X145444033Y-69726274D01*
X145444033Y-69726274D02*
X145420224Y-69678655D01*
X145420224Y-69678655D02*
X145396414Y-69654846D01*
X145396414Y-69654846D02*
X145348795Y-69631036D01*
X145348795Y-69631036D02*
X145301176Y-69631036D01*
X145301176Y-69631036D02*
X145253557Y-69654846D01*
X145253557Y-69654846D02*
X145229747Y-69678655D01*
X145229747Y-69678655D02*
X145205938Y-69726274D01*
X145205938Y-69726274D02*
X145182128Y-69821512D01*
X145182128Y-69821512D02*
X145158319Y-69869131D01*
X145158319Y-69869131D02*
X145134509Y-69892941D01*
X145134509Y-69892941D02*
X145086890Y-69916750D01*
X145086890Y-69916750D02*
X145039271Y-69916750D01*
X145039271Y-69916750D02*
X144991652Y-69892941D01*
X144991652Y-69892941D02*
X144967843Y-69869131D01*
X144967843Y-69869131D02*
X144944033Y-69821512D01*
X144944033Y-69821512D02*
X144944033Y-69702465D01*
X144944033Y-69702465D02*
X144967843Y-69631036D01*
X144944033Y-69464370D02*
X145444033Y-69345322D01*
X145444033Y-69345322D02*
X145086890Y-69250084D01*
X145086890Y-69250084D02*
X145444033Y-69154846D01*
X145444033Y-69154846D02*
X144944033Y-69035799D01*
X145444033Y-68583417D02*
X145444033Y-68869131D01*
X145444033Y-68726274D02*
X144944033Y-68726274D01*
X144944033Y-68726274D02*
X145015462Y-68773893D01*
X145015462Y-68773893D02*
X145063081Y-68821512D01*
X145063081Y-68821512D02*
X145086890Y-68869131D01*
X149563398Y-75469520D02*
X149539589Y-75493330D01*
X149539589Y-75493330D02*
X149468160Y-75517139D01*
X149468160Y-75517139D02*
X149420541Y-75517139D01*
X149420541Y-75517139D02*
X149349113Y-75493330D01*
X149349113Y-75493330D02*
X149301494Y-75445710D01*
X149301494Y-75445710D02*
X149277684Y-75398091D01*
X149277684Y-75398091D02*
X149253875Y-75302853D01*
X149253875Y-75302853D02*
X149253875Y-75231425D01*
X149253875Y-75231425D02*
X149277684Y-75136187D01*
X149277684Y-75136187D02*
X149301494Y-75088568D01*
X149301494Y-75088568D02*
X149349113Y-75040949D01*
X149349113Y-75040949D02*
X149420541Y-75017139D01*
X149420541Y-75017139D02*
X149468160Y-75017139D01*
X149468160Y-75017139D02*
X149539589Y-75040949D01*
X149539589Y-75040949D02*
X149563398Y-75064758D01*
X149801494Y-75517139D02*
X149896732Y-75517139D01*
X149896732Y-75517139D02*
X149944351Y-75493330D01*
X149944351Y-75493330D02*
X149968160Y-75469520D01*
X149968160Y-75469520D02*
X150015779Y-75398091D01*
X150015779Y-75398091D02*
X150039589Y-75302853D01*
X150039589Y-75302853D02*
X150039589Y-75112377D01*
X150039589Y-75112377D02*
X150015779Y-75064758D01*
X150015779Y-75064758D02*
X149991970Y-75040949D01*
X149991970Y-75040949D02*
X149944351Y-75017139D01*
X149944351Y-75017139D02*
X149849113Y-75017139D01*
X149849113Y-75017139D02*
X149801494Y-75040949D01*
X149801494Y-75040949D02*
X149777684Y-75064758D01*
X149777684Y-75064758D02*
X149753875Y-75112377D01*
X149753875Y-75112377D02*
X149753875Y-75231425D01*
X149753875Y-75231425D02*
X149777684Y-75279044D01*
X149777684Y-75279044D02*
X149801494Y-75302853D01*
X149801494Y-75302853D02*
X149849113Y-75326663D01*
X149849113Y-75326663D02*
X149944351Y-75326663D01*
X149944351Y-75326663D02*
X149991970Y-75302853D01*
X149991970Y-75302853D02*
X150015779Y-75279044D01*
X150015779Y-75279044D02*
X150039589Y-75231425D01*
X155798037Y-67602690D02*
X155774228Y-67626500D01*
X155774228Y-67626500D02*
X155702799Y-67650309D01*
X155702799Y-67650309D02*
X155655180Y-67650309D01*
X155655180Y-67650309D02*
X155583752Y-67626500D01*
X155583752Y-67626500D02*
X155536133Y-67578880D01*
X155536133Y-67578880D02*
X155512323Y-67531261D01*
X155512323Y-67531261D02*
X155488514Y-67436023D01*
X155488514Y-67436023D02*
X155488514Y-67364595D01*
X155488514Y-67364595D02*
X155512323Y-67269357D01*
X155512323Y-67269357D02*
X155536133Y-67221738D01*
X155536133Y-67221738D02*
X155583752Y-67174119D01*
X155583752Y-67174119D02*
X155655180Y-67150309D01*
X155655180Y-67150309D02*
X155702799Y-67150309D01*
X155702799Y-67150309D02*
X155774228Y-67174119D01*
X155774228Y-67174119D02*
X155798037Y-67197928D01*
X156250418Y-67150309D02*
X156012323Y-67150309D01*
X156012323Y-67150309D02*
X155988514Y-67388404D01*
X155988514Y-67388404D02*
X156012323Y-67364595D01*
X156012323Y-67364595D02*
X156059942Y-67340785D01*
X156059942Y-67340785D02*
X156178990Y-67340785D01*
X156178990Y-67340785D02*
X156226609Y-67364595D01*
X156226609Y-67364595D02*
X156250418Y-67388404D01*
X156250418Y-67388404D02*
X156274228Y-67436023D01*
X156274228Y-67436023D02*
X156274228Y-67555071D01*
X156274228Y-67555071D02*
X156250418Y-67602690D01*
X156250418Y-67602690D02*
X156226609Y-67626500D01*
X156226609Y-67626500D02*
X156178990Y-67650309D01*
X156178990Y-67650309D02*
X156059942Y-67650309D01*
X156059942Y-67650309D02*
X156012323Y-67626500D01*
X156012323Y-67626500D02*
X155988514Y-67602690D01*
X155151814Y-73744100D02*
X154985148Y-73506005D01*
X154866100Y-73744100D02*
X154866100Y-73244100D01*
X154866100Y-73244100D02*
X155056576Y-73244100D01*
X155056576Y-73244100D02*
X155104195Y-73267910D01*
X155104195Y-73267910D02*
X155128005Y-73291719D01*
X155128005Y-73291719D02*
X155151814Y-73339338D01*
X155151814Y-73339338D02*
X155151814Y-73410767D01*
X155151814Y-73410767D02*
X155128005Y-73458386D01*
X155128005Y-73458386D02*
X155104195Y-73482195D01*
X155104195Y-73482195D02*
X155056576Y-73506005D01*
X155056576Y-73506005D02*
X154866100Y-73506005D01*
X155580386Y-73410767D02*
X155580386Y-73744100D01*
X155461338Y-73220291D02*
X155342291Y-73577433D01*
X155342291Y-73577433D02*
X155651814Y-73577433D01*
X141833334Y-94551000D02*
X141904762Y-94574809D01*
X141904762Y-94574809D02*
X142023810Y-94574809D01*
X142023810Y-94574809D02*
X142071429Y-94551000D01*
X142071429Y-94551000D02*
X142095238Y-94527190D01*
X142095238Y-94527190D02*
X142119048Y-94479571D01*
X142119048Y-94479571D02*
X142119048Y-94431952D01*
X142119048Y-94431952D02*
X142095238Y-94384333D01*
X142095238Y-94384333D02*
X142071429Y-94360523D01*
X142071429Y-94360523D02*
X142023810Y-94336714D01*
X142023810Y-94336714D02*
X141928572Y-94312904D01*
X141928572Y-94312904D02*
X141880953Y-94289095D01*
X141880953Y-94289095D02*
X141857143Y-94265285D01*
X141857143Y-94265285D02*
X141833334Y-94217666D01*
X141833334Y-94217666D02*
X141833334Y-94170047D01*
X141833334Y-94170047D02*
X141857143Y-94122428D01*
X141857143Y-94122428D02*
X141880953Y-94098619D01*
X141880953Y-94098619D02*
X141928572Y-94074809D01*
X141928572Y-94074809D02*
X142047619Y-94074809D01*
X142047619Y-94074809D02*
X142119048Y-94098619D01*
X142285714Y-94074809D02*
X142404762Y-94574809D01*
X142404762Y-94574809D02*
X142500000Y-94217666D01*
X142500000Y-94217666D02*
X142595238Y-94574809D01*
X142595238Y-94574809D02*
X142714286Y-94074809D01*
X142880953Y-94122428D02*
X142904762Y-94098619D01*
X142904762Y-94098619D02*
X142952381Y-94074809D01*
X142952381Y-94074809D02*
X143071429Y-94074809D01*
X143071429Y-94074809D02*
X143119048Y-94098619D01*
X143119048Y-94098619D02*
X143142857Y-94122428D01*
X143142857Y-94122428D02*
X143166667Y-94170047D01*
X143166667Y-94170047D02*
X143166667Y-94217666D01*
X143166667Y-94217666D02*
X143142857Y-94289095D01*
X143142857Y-94289095D02*
X142857143Y-94574809D01*
X142857143Y-94574809D02*
X143166667Y-94574809D01*
X157362061Y-94659583D02*
X157362061Y-94897678D01*
X157362061Y-94897678D02*
X156862061Y-94897678D01*
X157028728Y-94278630D02*
X157362061Y-94278630D01*
X156838252Y-94397678D02*
X157195394Y-94516725D01*
X157195394Y-94516725D02*
X157195394Y-94207202D01*
X153991981Y-99573153D02*
X153968172Y-99596963D01*
X153968172Y-99596963D02*
X153896743Y-99620772D01*
X153896743Y-99620772D02*
X153849124Y-99620772D01*
X153849124Y-99620772D02*
X153777696Y-99596963D01*
X153777696Y-99596963D02*
X153730077Y-99549343D01*
X153730077Y-99549343D02*
X153706267Y-99501724D01*
X153706267Y-99501724D02*
X153682458Y-99406486D01*
X153682458Y-99406486D02*
X153682458Y-99335058D01*
X153682458Y-99335058D02*
X153706267Y-99239820D01*
X153706267Y-99239820D02*
X153730077Y-99192201D01*
X153730077Y-99192201D02*
X153777696Y-99144582D01*
X153777696Y-99144582D02*
X153849124Y-99120772D01*
X153849124Y-99120772D02*
X153896743Y-99120772D01*
X153896743Y-99120772D02*
X153968172Y-99144582D01*
X153968172Y-99144582D02*
X153991981Y-99168391D01*
X154182458Y-99168391D02*
X154206267Y-99144582D01*
X154206267Y-99144582D02*
X154253886Y-99120772D01*
X154253886Y-99120772D02*
X154372934Y-99120772D01*
X154372934Y-99120772D02*
X154420553Y-99144582D01*
X154420553Y-99144582D02*
X154444362Y-99168391D01*
X154444362Y-99168391D02*
X154468172Y-99216010D01*
X154468172Y-99216010D02*
X154468172Y-99263629D01*
X154468172Y-99263629D02*
X154444362Y-99335058D01*
X154444362Y-99335058D02*
X154158648Y-99620772D01*
X154158648Y-99620772D02*
X154468172Y-99620772D01*
X154634838Y-99120772D02*
X154968171Y-99120772D01*
X154968171Y-99120772D02*
X154753886Y-99620772D01*
X155350749Y-91754593D02*
X155374559Y-91778402D01*
X155374559Y-91778402D02*
X155398368Y-91849831D01*
X155398368Y-91849831D02*
X155398368Y-91897450D01*
X155398368Y-91897450D02*
X155374559Y-91968878D01*
X155374559Y-91968878D02*
X155326939Y-92016497D01*
X155326939Y-92016497D02*
X155279320Y-92040307D01*
X155279320Y-92040307D02*
X155184082Y-92064116D01*
X155184082Y-92064116D02*
X155112654Y-92064116D01*
X155112654Y-92064116D02*
X155017416Y-92040307D01*
X155017416Y-92040307D02*
X154969797Y-92016497D01*
X154969797Y-92016497D02*
X154922178Y-91968878D01*
X154922178Y-91968878D02*
X154898368Y-91897450D01*
X154898368Y-91897450D02*
X154898368Y-91849831D01*
X154898368Y-91849831D02*
X154922178Y-91778402D01*
X154922178Y-91778402D02*
X154945987Y-91754593D01*
X155398368Y-91278402D02*
X155398368Y-91564116D01*
X155398368Y-91421259D02*
X154898368Y-91421259D01*
X154898368Y-91421259D02*
X154969797Y-91468878D01*
X154969797Y-91468878D02*
X155017416Y-91516497D01*
X155017416Y-91516497D02*
X155041225Y-91564116D01*
X154898368Y-90826022D02*
X154898368Y-91064117D01*
X154898368Y-91064117D02*
X155136463Y-91087926D01*
X155136463Y-91087926D02*
X155112654Y-91064117D01*
X155112654Y-91064117D02*
X155088844Y-91016498D01*
X155088844Y-91016498D02*
X155088844Y-90897450D01*
X155088844Y-90897450D02*
X155112654Y-90849831D01*
X155112654Y-90849831D02*
X155136463Y-90826022D01*
X155136463Y-90826022D02*
X155184082Y-90802212D01*
X155184082Y-90802212D02*
X155303130Y-90802212D01*
X155303130Y-90802212D02*
X155350749Y-90826022D01*
X155350749Y-90826022D02*
X155374559Y-90849831D01*
X155374559Y-90849831D02*
X155398368Y-90897450D01*
X155398368Y-90897450D02*
X155398368Y-91016498D01*
X155398368Y-91016498D02*
X155374559Y-91064117D01*
X155374559Y-91064117D02*
X155350749Y-91087926D01*
D13*
%TO.C,J7*%
X128006776Y-103910139D02*
X128006776Y-102210139D01*
X137346776Y-103910139D02*
X137346776Y-102210139D01*
%TO.C,U5*%
X154360000Y-86610000D02*
X154360000Y-86160000D01*
X154360000Y-79390000D02*
X154360000Y-79840000D01*
X153910000Y-86610000D02*
X154360000Y-86610000D01*
X153910000Y-79390000D02*
X154360000Y-79390000D01*
X147590000Y-86610000D02*
X147140000Y-86610000D01*
X147590000Y-79390000D02*
X147140000Y-79390000D01*
X147140000Y-86610000D02*
X147140000Y-86160000D01*
X147140000Y-79840000D02*
X145850000Y-79840000D01*
X147140000Y-79390000D02*
X147140000Y-79840000D01*
%TO.C,AE1*%
D14*
X153319438Y-45811339D02*
G75*
G02*
X152819438Y-45811339I-250000J0D01*
G01*
X152819438Y-45811339D02*
G75*
G02*
X153319438Y-45811339I250000J0D01*
G01*
D15*
X155069438Y-47311339D02*
X154569438Y-47311339D01*
X155069438Y-44311339D02*
X155069438Y-47311339D01*
X154569438Y-47311339D02*
X145569438Y-47311339D01*
X154569438Y-44311339D02*
X155069438Y-44311339D01*
X154569438Y-44311339D02*
X154569438Y-47311339D01*
X145569438Y-47311339D02*
X145069438Y-47311339D01*
X145569438Y-44311339D02*
X154569438Y-44311339D01*
X145569438Y-44311339D02*
X145569438Y-47311339D01*
X145069438Y-47311339D02*
X145069438Y-44311339D01*
X145069438Y-44311339D02*
X145569438Y-44311339D01*
D16*
%TO.C,U2*%
X157082759Y-51383796D02*
X157082759Y-61543796D01*
D17*
X146852759Y-62363796D02*
G75*
G02*
X146552759Y-62363796I-150000J0D01*
G01*
X146552759Y-62363796D02*
G75*
G02*
X146852759Y-62363796I150000J0D01*
G01*
D16*
X157082759Y-61543796D02*
X157033759Y-61543796D01*
X157033759Y-51383796D02*
X157082759Y-51383796D01*
X146971759Y-61543796D02*
X146668759Y-61543796D01*
X146668759Y-61543796D02*
X146668759Y-51383796D01*
X146668759Y-51383796D02*
X146971759Y-51383796D01*
D13*
%TO.C,U7*%
X132065000Y-89880000D02*
X131825000Y-89550000D01*
X132305000Y-89550000D01*
X132065000Y-89880000D01*
G36*
X132065000Y-89880000D02*
G01*
X131825000Y-89550000D01*
X132305000Y-89550000D01*
X132065000Y-89880000D01*
G37*
X135195000Y-94450000D02*
X132475000Y-94450000D01*
X135195000Y-93470000D02*
X135195000Y-94450000D01*
X135195000Y-90710000D02*
X135195000Y-89730000D01*
X132615000Y-89730000D02*
X135195000Y-89730000D01*
%TO.C,R11*%
X136731918Y-97433201D02*
X136731918Y-97097959D01*
X137491918Y-97433201D02*
X137491918Y-97097959D01*
%TO.C,C18*%
X129571512Y-92819148D02*
X129571512Y-92587478D01*
X130291512Y-92819148D02*
X130291512Y-92587478D01*
%TO.C,C22*%
X130366432Y-95832151D02*
X130598102Y-95832151D01*
X130366432Y-96552151D02*
X130598102Y-96552151D01*
%TO.C,C17*%
X127560231Y-92812973D02*
X127560231Y-92581303D01*
X128280231Y-92812973D02*
X128280231Y-92581303D01*
%TO.C,C25*%
X130612927Y-98546046D02*
X130381257Y-98546046D01*
X130612927Y-97826046D02*
X130381257Y-97826046D01*
%TO.C,R10*%
X134499393Y-95482676D02*
X134045265Y-95482676D01*
X134499393Y-96952676D02*
X134045265Y-96952676D01*
%TO.C,R12*%
X134512922Y-97432619D02*
X134058794Y-97432619D01*
X134512922Y-98902619D02*
X134058794Y-98902619D01*
%TO.C,J5*%
X137571300Y-86416215D02*
X137571300Y-87746215D01*
X136241300Y-86416215D02*
X137571300Y-86416215D01*
X134971300Y-86416215D02*
X127291300Y-86416215D01*
X134971300Y-86416215D02*
X134971300Y-89076215D01*
X127291300Y-86416215D02*
X127291300Y-89076215D01*
X134971300Y-89076215D02*
X127291300Y-89076215D01*
%TO.C,FB1*%
X128387500Y-97619724D02*
X128387500Y-97110276D01*
X127342500Y-97619724D02*
X127342500Y-97110276D01*
%TO.C,C19*%
X136396627Y-93231364D02*
X136396627Y-93753868D01*
X137866627Y-93231364D02*
X137866627Y-93753868D01*
%TO.C,L5*%
X155640000Y-96298550D02*
X155640000Y-96498950D01*
X156360000Y-96298550D02*
X156360000Y-96498950D01*
%TO.C,C11*%
X149797756Y-76734782D02*
X149566086Y-76734782D01*
X149797756Y-77454782D02*
X149566086Y-77454782D01*
D18*
%TO.C,U4*%
X142718000Y-76349000D02*
X146779500Y-76321500D01*
X142718000Y-78000000D02*
X142718000Y-76349000D01*
X142718000Y-79651000D02*
X142718000Y-78000000D01*
X146779500Y-76321500D02*
X146779500Y-79651500D01*
X146779500Y-79651500D02*
X142718000Y-79651000D01*
D19*
X147036000Y-76095000D02*
X146528000Y-76095000D01*
X147036000Y-76603000D02*
X147036000Y-76095000D01*
D13*
%TO.C,R5*%
X145575928Y-74319191D02*
X145911170Y-74319191D01*
X145575928Y-75079191D02*
X145911170Y-75079191D01*
%TO.C,J4*%
X140920000Y-82880000D02*
X142250000Y-82880000D01*
X140920000Y-84210000D02*
X140920000Y-82880000D01*
X140920000Y-85480000D02*
X140920000Y-93160000D01*
X140920000Y-85480000D02*
X143580000Y-85480000D01*
X140920000Y-93160000D02*
X143580000Y-93160000D01*
X143580000Y-85480000D02*
X143580000Y-93160000D01*
%TO.C,C16*%
X156660822Y-91584334D02*
X156660822Y-91352664D01*
X157380822Y-91584334D02*
X157380822Y-91352664D01*
%TO.C,JP1*%
X144415249Y-62203719D02*
X146415249Y-62203719D01*
X144415249Y-65003719D02*
X144415249Y-62203719D01*
X146415249Y-62203719D02*
X146415249Y-65003719D01*
X146415249Y-65003719D02*
X144415249Y-65003719D01*
%TO.C,J3*%
X160920000Y-81370000D02*
X162250000Y-81370000D01*
X160920000Y-82700000D02*
X160920000Y-81370000D01*
X160920000Y-83970000D02*
X160920000Y-91650000D01*
X160920000Y-83970000D02*
X163580000Y-83970000D01*
X160920000Y-91650000D02*
X163580000Y-91650000D01*
X163580000Y-83970000D02*
X163580000Y-91650000D01*
%TO.C,C3*%
X145890000Y-58365835D02*
X145890000Y-58134165D01*
X146610000Y-58365835D02*
X146610000Y-58134165D01*
%TO.C,C20*%
X154503990Y-94856644D02*
X154272320Y-94856644D01*
X154503990Y-95576644D02*
X154272320Y-95576644D01*
%TO.C,C7*%
X148635000Y-69608733D02*
X148635000Y-69901267D01*
X149655000Y-69608733D02*
X149655000Y-69901267D01*
%TO.C,L7*%
X155640000Y-101371050D02*
X155640000Y-101571450D01*
X156360000Y-101371050D02*
X156360000Y-101571450D01*
%TO.C,L1*%
X154838785Y-50072967D02*
X155039185Y-50072967D01*
X154838785Y-49352967D02*
X155039185Y-49352967D01*
%TO.C,R2*%
X143039693Y-53661843D02*
X142704451Y-53661843D01*
X143039693Y-54421843D02*
X142704451Y-54421843D01*
%TO.C,C14*%
X156396267Y-86990000D02*
X156103733Y-86990000D01*
X156396267Y-88010000D02*
X156103733Y-88010000D01*
%TO.C,C6*%
X150035000Y-69389165D02*
X150035000Y-69620835D01*
X150755000Y-69389165D02*
X150755000Y-69620835D01*
%TO.C,U6*%
X154850000Y-94440000D02*
X154370000Y-94440000D01*
X154610000Y-94110000D01*
X154850000Y-94440000D01*
G36*
X154850000Y-94440000D02*
G01*
X154370000Y-94440000D01*
X154610000Y-94110000D01*
X154850000Y-94440000D01*
G37*
X154610000Y-93385000D02*
X154610000Y-93870000D01*
X154610000Y-89890000D02*
X154610000Y-90615000D01*
X153885000Y-94110000D02*
X154310000Y-94110000D01*
X153885000Y-89890000D02*
X154610000Y-89890000D01*
X151115000Y-94110000D02*
X150390000Y-94110000D01*
X151115000Y-89890000D02*
X150390000Y-89890000D01*
X150390000Y-94110000D02*
X150390000Y-93385000D01*
X150390000Y-89890000D02*
X150390000Y-90615000D01*
%TO.C,C2*%
X143010396Y-54658579D02*
X142778726Y-54658579D01*
X143010396Y-55378579D02*
X142778726Y-55378579D01*
%TO.C,R9*%
X156477500Y-83745276D02*
X156477500Y-84254724D01*
X157522500Y-83745276D02*
X157522500Y-84254724D01*
%TO.C,R3*%
X152806714Y-72051865D02*
X153141956Y-72051865D01*
X152806714Y-72811865D02*
X153141956Y-72811865D01*
%TO.C,C21*%
X150877173Y-95204505D02*
X151108843Y-95204505D01*
X150877173Y-95924505D02*
X151108843Y-95924505D01*
%TO.C,D1*%
X142790000Y-104390000D02*
X142790000Y-107250000D01*
X144710000Y-104390000D02*
X142790000Y-104390000D01*
X144710000Y-107250000D02*
X144710000Y-104390000D01*
%TO.C,J1*%
X140964431Y-62182157D02*
X140964431Y-57042157D01*
X143624431Y-57042157D02*
X140964431Y-57042157D01*
X143624431Y-62182157D02*
X140964431Y-62182157D01*
X143624431Y-62182157D02*
X143624431Y-57042157D01*
X143624431Y-63452157D02*
X143624431Y-64782157D01*
X143624431Y-64782157D02*
X142294431Y-64782157D01*
%TO.C,R1*%
X144129334Y-51421728D02*
X144129334Y-51756970D01*
X144889334Y-51421728D02*
X144889334Y-51756970D01*
%TO.C,D3*%
X146790000Y-104390000D02*
X146790000Y-107250000D01*
X148710000Y-104390000D02*
X146790000Y-104390000D01*
X148710000Y-107250000D02*
X148710000Y-104390000D01*
%TO.C,U3*%
X152010000Y-68130000D02*
X152010000Y-69105000D01*
X152010000Y-68130000D02*
X152235000Y-68130000D01*
X152010000Y-70405000D02*
X152010000Y-71380000D01*
X152235000Y-71380000D02*
X152010000Y-71380000D01*
X155035000Y-71380000D02*
X155260000Y-71380000D01*
X155260000Y-68130000D02*
X155260000Y-69105000D01*
X155260000Y-70405000D02*
X155260000Y-71380000D01*
%TO.C,R8*%
X156477500Y-80504724D02*
X156477500Y-79995276D01*
X157522500Y-80504724D02*
X157522500Y-79995276D01*
%TO.C,C12*%
X141288491Y-78284866D02*
X141288491Y-77992332D01*
X142308491Y-78284866D02*
X142308491Y-77992332D01*
%TO.C,L3*%
X156617222Y-89507029D02*
X156416822Y-89507029D01*
X156617222Y-90227029D02*
X156416822Y-90227029D01*
%TO.C,R13*%
X146281962Y-102359739D02*
X146281962Y-101850291D01*
X145236962Y-102359739D02*
X145236962Y-101850291D01*
%TO.C,C23*%
X147365835Y-97140000D02*
X147134165Y-97140000D01*
X147365835Y-97860000D02*
X147134165Y-97860000D01*
%TO.C,R15*%
X141227500Y-105995276D02*
X141227500Y-106504724D01*
X142272500Y-105995276D02*
X142272500Y-106504724D01*
%TO.C,J2*%
X160920000Y-69920000D02*
X162250000Y-69920000D01*
X160920000Y-71250000D02*
X160920000Y-69920000D01*
X160920000Y-72520000D02*
X160920000Y-80200000D01*
X160920000Y-72520000D02*
X163580000Y-72520000D01*
X160920000Y-80200000D02*
X163580000Y-80200000D01*
X163580000Y-72520000D02*
X163580000Y-80200000D01*
%TO.C,C1*%
X144257423Y-54535770D02*
X144257423Y-54243236D01*
X145277423Y-54535770D02*
X145277423Y-54243236D01*
%TO.C,C26*%
X147134165Y-99140000D02*
X147365835Y-99140000D01*
X147134165Y-99860000D02*
X147365835Y-99860000D01*
D12*
%TO.C,U1*%
X141060220Y-50754470D02*
X141210220Y-50754470D01*
X141060220Y-50904470D02*
X141060220Y-50754470D01*
X141210220Y-53454470D02*
X140960220Y-53454470D01*
X143760220Y-50754470D02*
X143610220Y-50754470D01*
X143760220Y-50754470D02*
X143760220Y-50904470D01*
X143760220Y-53454470D02*
X143610220Y-53454470D01*
X143770220Y-53454470D02*
X143770220Y-53304470D01*
D13*
%TO.C,J6*%
X160920000Y-92845000D02*
X162250000Y-92845000D01*
X160920000Y-94175000D02*
X160920000Y-92845000D01*
X160920000Y-95445000D02*
X160920000Y-105665000D01*
X160920000Y-95445000D02*
X163580000Y-95445000D01*
X160920000Y-105665000D02*
X163580000Y-105665000D01*
X163580000Y-95445000D02*
X163580000Y-105665000D01*
%TO.C,D2*%
X144790000Y-104390000D02*
X144790000Y-107250000D01*
X146710000Y-104390000D02*
X144790000Y-104390000D01*
X146710000Y-107250000D02*
X146710000Y-104390000D01*
%TO.C,C4*%
X155248733Y-64745000D02*
X155541267Y-64745000D01*
X155248733Y-65765000D02*
X155541267Y-65765000D01*
%TO.C,C24*%
X154365835Y-97361250D02*
X154134165Y-97361250D01*
X154365835Y-98081250D02*
X154134165Y-98081250D01*
D12*
%TO.C,L2*%
X152915000Y-65005000D02*
X152915000Y-65005000D01*
X153015000Y-65005000D02*
X153015000Y-65005000D01*
X152915000Y-65005000D02*
G75*
G02*
X153015000Y-65005000I50000J0D01*
G01*
X153015000Y-65005000D02*
G75*
G02*
X152915000Y-65005000I-50000J0D01*
G01*
D13*
%TO.C,C10*%
X150890000Y-76634165D02*
X150890000Y-76865835D01*
X151610000Y-76634165D02*
X151610000Y-76865835D01*
%TO.C,L6*%
X155640000Y-98798550D02*
X155640000Y-98998950D01*
X156360000Y-98798550D02*
X156360000Y-98998950D01*
%TO.C,C13*%
X144597857Y-79926216D02*
X144366187Y-79926216D01*
X144597857Y-80646216D02*
X144366187Y-80646216D01*
D15*
%TO.C,U8*%
X145075696Y-94196174D02*
X145075696Y-94696174D01*
X147575696Y-94196174D02*
X147575696Y-94696174D01*
D20*
X145431696Y-92171174D02*
G75*
G02*
X145231696Y-92171174I-100000J0D01*
G01*
X145231696Y-92171174D02*
G75*
G02*
X145431696Y-92171174I100000J0D01*
G01*
D13*
%TO.C,R6*%
X145912278Y-75274572D02*
X145577036Y-75274572D01*
X145912278Y-76034572D02*
X145577036Y-76034572D01*
%TO.C,R7*%
X152707050Y-76916768D02*
X153042292Y-76916768D01*
X152707050Y-77676768D02*
X153042292Y-77676768D01*
%TO.C,C8*%
X156035000Y-69639165D02*
X156035000Y-69870835D01*
X156755000Y-69639165D02*
X156755000Y-69870835D01*
%TO.C,R14*%
X148281962Y-102359739D02*
X148281962Y-101850291D01*
X147236962Y-102359739D02*
X147236962Y-101850291D01*
%TO.C,SW1*%
X143639224Y-71150085D02*
X143639224Y-71350085D01*
X143639224Y-68150085D02*
X143639224Y-69850085D01*
X142589224Y-66300085D02*
X141799224Y-66300085D01*
X141799224Y-73200085D02*
X142589224Y-73200085D01*
X140789224Y-68350085D02*
X139499224Y-68350085D01*
X140789224Y-66900085D02*
X140789224Y-72600085D01*
X139499224Y-69650085D02*
X140789224Y-69650085D01*
X139499224Y-69650085D02*
X139289224Y-69450085D01*
X139499224Y-68350085D02*
X139289224Y-68550085D01*
X139289224Y-68550085D02*
X139289224Y-69450085D01*
%TO.C,C9*%
X149566086Y-75773145D02*
X149797756Y-75773145D01*
X149566086Y-76493145D02*
X149797756Y-76493145D01*
%TO.C,C5*%
X155779165Y-66145000D02*
X156010835Y-66145000D01*
X155779165Y-66865000D02*
X156010835Y-66865000D01*
%TO.C,R4*%
X155067527Y-72059291D02*
X155402769Y-72059291D01*
X155067527Y-72819291D02*
X155402769Y-72819291D01*
%TO.C,SW2*%
X140650000Y-96440000D02*
X144350000Y-96440000D01*
X140650000Y-102560000D02*
X140650000Y-96440000D01*
X144350000Y-96440000D02*
X144350000Y-102560000D01*
X144350000Y-102560000D02*
X140650000Y-102560000D01*
%TO.C,L4*%
X155640000Y-93798550D02*
X155640000Y-93998950D01*
X156360000Y-93798550D02*
X156360000Y-93998950D01*
%TO.C,C27*%
X154429245Y-99875963D02*
X154197575Y-99875963D01*
X154429245Y-100595963D02*
X154197575Y-100595963D01*
%TO.C,C15*%
X155640000Y-91355415D02*
X155640000Y-91587085D01*
X156360000Y-91355415D02*
X156360000Y-91587085D01*
%TD*%
M02*
