%TF.GenerationSoftware,KiCad,Pcbnew,8.0.1*%
%TF.CreationDate,2024-07-16T16:14:44-04:00*%
%TF.ProjectId,Tiny4FSK,54696e79-3446-4534-9b2e-6b696361645f,rev?*%
%TF.SameCoordinates,Original*%
%TF.FileFunction,Copper,L1,Top*%
%TF.FilePolarity,Positive*%
%FSLAX46Y46*%
G04 Gerber Fmt 4.6, Leading zero omitted, Abs format (unit mm)*
G04 Created by KiCad (PCBNEW 8.0.1) date 2024-07-16 16:14:44*
%MOMM*%
%LPD*%
G01*
G04 APERTURE LIST*
G04 Aperture macros list*
%AMRoundRect*
0 Rectangle with rounded corners*
0 $1 Rounding radius*
0 $2 $3 $4 $5 $6 $7 $8 $9 X,Y pos of 4 corners*
0 Add a 4 corners polygon primitive as box body*
4,1,4,$2,$3,$4,$5,$6,$7,$8,$9,$2,$3,0*
0 Add four circle primitives for the rounded corners*
1,1,$1+$1,$2,$3*
1,1,$1+$1,$4,$5*
1,1,$1+$1,$6,$7*
1,1,$1+$1,$8,$9*
0 Add four rect primitives between the rounded corners*
20,1,$1+$1,$2,$3,$4,$5,0*
20,1,$1+$1,$4,$5,$6,$7,0*
20,1,$1+$1,$6,$7,$8,$9,0*
20,1,$1+$1,$8,$9,$2,$3,0*%
G04 Aperture macros list end*
%TA.AperFunction,SMDPad,CuDef*%
%ADD10RoundRect,0.160000X0.197500X0.160000X-0.197500X0.160000X-0.197500X-0.160000X0.197500X-0.160000X0*%
%TD*%
%TA.AperFunction,SMDPad,CuDef*%
%ADD11RoundRect,0.160000X-0.197500X-0.160000X0.197500X-0.160000X0.197500X0.160000X-0.197500X0.160000X0*%
%TD*%
%TA.AperFunction,SMDPad,CuDef*%
%ADD12RoundRect,0.160000X-0.160000X0.197500X-0.160000X-0.197500X0.160000X-0.197500X0.160000X0.197500X0*%
%TD*%
%TA.AperFunction,SMDPad,CuDef*%
%ADD13RoundRect,0.160000X0.222500X0.160000X-0.222500X0.160000X-0.222500X-0.160000X0.222500X-0.160000X0*%
%TD*%
%TA.AperFunction,SMDPad,CuDef*%
%ADD14RoundRect,0.155000X-0.212500X-0.155000X0.212500X-0.155000X0.212500X0.155000X-0.212500X0.155000X0*%
%TD*%
%TA.AperFunction,SMDPad,CuDef*%
%ADD15RoundRect,0.237500X-0.300000X-0.237500X0.300000X-0.237500X0.300000X0.237500X-0.300000X0.237500X0*%
%TD*%
%TA.AperFunction,SMDPad,CuDef*%
%ADD16RoundRect,0.155000X0.212500X0.155000X-0.212500X0.155000X-0.212500X-0.155000X0.212500X-0.155000X0*%
%TD*%
%TA.AperFunction,SMDPad,CuDef*%
%ADD17RoundRect,0.237500X0.237500X-0.250000X0.237500X0.250000X-0.237500X0.250000X-0.237500X-0.250000X0*%
%TD*%
%TA.AperFunction,SMDPad,CuDef*%
%ADD18RoundRect,0.237500X-0.237500X0.250000X-0.237500X-0.250000X0.237500X-0.250000X0.237500X0.250000X0*%
%TD*%
%TA.AperFunction,SMDPad,CuDef*%
%ADD19RoundRect,0.237500X0.237500X-0.300000X0.237500X0.300000X-0.237500X0.300000X-0.237500X-0.300000X0*%
%TD*%
%TA.AperFunction,SMDPad,CuDef*%
%ADD20RoundRect,0.155000X0.155000X-0.212500X0.155000X0.212500X-0.155000X0.212500X-0.155000X-0.212500X0*%
%TD*%
%TA.AperFunction,SMDPad,CuDef*%
%ADD21RoundRect,0.155000X-0.155000X0.212500X-0.155000X-0.212500X0.155000X-0.212500X0.155000X0.212500X0*%
%TD*%
%TA.AperFunction,SMDPad,CuDef*%
%ADD22RoundRect,0.237500X0.300000X0.237500X-0.300000X0.237500X-0.300000X-0.237500X0.300000X-0.237500X0*%
%TD*%
%TA.AperFunction,SMDPad,CuDef*%
%ADD23RoundRect,0.237500X-0.237500X0.300000X-0.237500X-0.300000X0.237500X-0.300000X0.237500X0.300000X0*%
%TD*%
%TA.AperFunction,SMDPad,CuDef*%
%ADD24R,0.800000X1.000000*%
%TD*%
%TA.AperFunction,SMDPad,CuDef*%
%ADD25R,1.500000X0.700000*%
%TD*%
%TA.AperFunction,SMDPad,CuDef*%
%ADD26R,1.500000X1.500000*%
%TD*%
%TA.AperFunction,SMDPad,CuDef*%
%ADD27RoundRect,0.160000X-0.160000X0.222500X-0.160000X-0.222500X0.160000X-0.222500X0.160000X0.222500X0*%
%TD*%
%TA.AperFunction,SMDPad,CuDef*%
%ADD28R,1.400000X1.200000*%
%TD*%
%TA.AperFunction,ComponentPad*%
%ADD29R,1.700000X1.700000*%
%TD*%
%TA.AperFunction,ComponentPad*%
%ADD30O,1.700000X1.700000*%
%TD*%
%TA.AperFunction,SMDPad,CuDef*%
%ADD31R,1.500000X1.000000*%
%TD*%
%TA.AperFunction,SMDPad,CuDef*%
%ADD32RoundRect,0.160000X-0.222500X-0.160000X0.222500X-0.160000X0.222500X0.160000X-0.222500X0.160000X0*%
%TD*%
%TA.AperFunction,SMDPad,CuDef*%
%ADD33RoundRect,0.062500X0.350000X0.062500X-0.350000X0.062500X-0.350000X-0.062500X0.350000X-0.062500X0*%
%TD*%
%TA.AperFunction,SMDPad,CuDef*%
%ADD34RoundRect,0.062500X0.062500X0.350000X-0.062500X0.350000X-0.062500X-0.350000X0.062500X-0.350000X0*%
%TD*%
%TA.AperFunction,HeatsinkPad*%
%ADD35C,0.500000*%
%TD*%
%TA.AperFunction,HeatsinkPad*%
%ADD36R,2.500000X2.500000*%
%TD*%
%TA.AperFunction,SMDPad,CuDef*%
%ADD37R,0.800000X1.800000*%
%TD*%
%TA.AperFunction,SMDPad,CuDef*%
%ADD38RoundRect,0.250000X-0.450000X0.325000X-0.450000X-0.325000X0.450000X-0.325000X0.450000X0.325000X0*%
%TD*%
%TA.AperFunction,SMDPad,CuDef*%
%ADD39R,0.280000X0.280000*%
%TD*%
%TA.AperFunction,SMDPad,CuDef*%
%ADD40O,0.280000X0.850000*%
%TD*%
%TA.AperFunction,ComponentPad*%
%ADD41C,0.600000*%
%TD*%
%TA.AperFunction,SMDPad,CuDef*%
%ADD42R,1.050000X0.680000*%
%TD*%
%TA.AperFunction,SMDPad,CuDef*%
%ADD43R,0.500000X0.260000*%
%TD*%
%TA.AperFunction,SMDPad,CuDef*%
%ADD44R,0.700000X0.280000*%
%TD*%
%TA.AperFunction,SMDPad,CuDef*%
%ADD45R,2.400000X1.650000*%
%TD*%
%TA.AperFunction,SMDPad,CuDef*%
%ADD46RoundRect,0.500000X0.500000X3.000000X-0.500000X3.000000X-0.500000X-3.000000X0.500000X-3.000000X0*%
%TD*%
%TA.AperFunction,ComponentPad*%
%ADD47C,2.000000*%
%TD*%
%TA.AperFunction,SMDPad,CuDef*%
%ADD48RoundRect,0.500000X0.500000X2.000000X-0.500000X2.000000X-0.500000X-2.000000X0.500000X-2.000000X0*%
%TD*%
%TA.AperFunction,SMDPad,CuDef*%
%ADD49R,0.500000X0.350000*%
%TD*%
%TA.AperFunction,SMDPad,CuDef*%
%ADD50R,1.140000X3.050000*%
%TD*%
%TA.AperFunction,SMDPad,CuDef*%
%ADD51R,1.100000X1.300000*%
%TD*%
%TA.AperFunction,SMDPad,CuDef*%
%ADD52RoundRect,0.075000X-0.662500X-0.075000X0.662500X-0.075000X0.662500X0.075000X-0.662500X0.075000X0*%
%TD*%
%TA.AperFunction,SMDPad,CuDef*%
%ADD53RoundRect,0.075000X-0.075000X-0.662500X0.075000X-0.662500X0.075000X0.662500X-0.075000X0.662500X0*%
%TD*%
%TA.AperFunction,SMDPad,CuDef*%
%ADD54R,1.400000X3.000000*%
%TD*%
%TA.AperFunction,ViaPad*%
%ADD55C,0.800000*%
%TD*%
%TA.AperFunction,Conductor*%
%ADD56C,0.250000*%
%TD*%
%TA.AperFunction,Conductor*%
%ADD57C,0.750000*%
%TD*%
%TA.AperFunction,Conductor*%
%ADD58C,0.200000*%
%TD*%
G04 APERTURE END LIST*
D10*
%TO.P,R15,1*%
%TO.N,BATT_SENSE*%
X146342157Y-75654572D03*
%TO.P,R15,2*%
%TO.N,Earth*%
X145147157Y-75654572D03*
%TD*%
D11*
%TO.P,R14,1*%
%TO.N,+BATT*%
X145146049Y-74699191D03*
%TO.P,R14,2*%
%TO.N,BATT_SENSE*%
X146341049Y-74699191D03*
%TD*%
%TO.P,R12,1*%
%TO.N,+3.3V*%
X152376835Y-72431865D03*
%TO.P,R12,2*%
%TO.N,Net-(U6-FB)*%
X153571835Y-72431865D03*
%TD*%
%TO.P,R11,2*%
%TO.N,Earth*%
X155832648Y-72439291D03*
%TO.P,R11,1*%
%TO.N,Net-(U6-FB)*%
X154637648Y-72439291D03*
%TD*%
D12*
%TO.P,R2,1*%
%TO.N,Net-(U1-SDO)*%
X144509334Y-50991849D03*
%TO.P,R2,2*%
%TO.N,Earth*%
X144509334Y-52186849D03*
%TD*%
D10*
%TO.P,R1,1*%
%TO.N,+3.3V*%
X143469572Y-54041843D03*
%TO.P,R1,2*%
%TO.N,Net-(U1-CSB)*%
X142274572Y-54041843D03*
%TD*%
D13*
%TO.P,L3,1,1*%
%TO.N,+3.3V*%
X157089522Y-89867029D03*
%TO.P,L3,2,2*%
%TO.N,RF_ANT*%
X155944522Y-89867029D03*
%TD*%
D14*
%TO.P,C23,1*%
%TO.N,RF_XO*%
X150425508Y-95564505D03*
%TO.P,C23,2*%
%TO.N,Net-(IC1-XIN)*%
X151560508Y-95564505D03*
%TD*%
D15*
%TO.P,C17,1*%
%TO.N,+3.3V*%
X154532500Y-65255000D03*
%TO.P,C17,2*%
%TO.N,Earth*%
X156257500Y-65255000D03*
%TD*%
D16*
%TO.P,C11,1*%
%TO.N,TCXO*%
X145049522Y-80286216D03*
%TO.P,C11,2*%
%TO.N,Net-(U5-OUTPUT)*%
X143914522Y-80286216D03*
%TD*%
D17*
%TO.P,R13,1*%
%TO.N,Net-(D3-K)*%
X147750000Y-103412500D03*
%TO.P,R13,2*%
%TO.N,Earth*%
X147750000Y-101587500D03*
%TD*%
%TO.P,R10,1*%
%TO.N,Net-(D2-K)*%
X145750000Y-103412500D03*
%TO.P,R10,2*%
%TO.N,Earth*%
X145750000Y-101587500D03*
%TD*%
D18*
%TO.P,R9,1*%
%TO.N,Net-(D1-K)*%
X141750000Y-105337500D03*
%TO.P,R9,2*%
%TO.N,Earth*%
X141750000Y-107162500D03*
%TD*%
%TO.P,R8,1*%
%TO.N,SDA*%
X157000000Y-83087500D03*
%TO.P,R8,2*%
%TO.N,+3.3V*%
X157000000Y-84912500D03*
%TD*%
D17*
%TO.P,R6,1*%
%TO.N,+3.3V*%
X157000000Y-81162500D03*
%TO.P,R6,2*%
%TO.N,SCL*%
X157000000Y-79337500D03*
%TD*%
D11*
%TO.P,R4,1*%
%TO.N,nRST*%
X152277171Y-77296768D03*
%TO.P,R4,2*%
%TO.N,+3.3V*%
X153472171Y-77296768D03*
%TD*%
D19*
%TO.P,C28,1*%
%TO.N,Earth*%
X144767423Y-55252003D03*
%TO.P,C28,2*%
%TO.N,+3.3V*%
X144767423Y-53527003D03*
%TD*%
D14*
%TO.P,C24,1*%
%TO.N,Earth*%
X146682500Y-99500000D03*
%TO.P,C24,2*%
%TO.N,+3.3V*%
X147817500Y-99500000D03*
%TD*%
%TO.P,C21,1*%
%TO.N,+3.3V*%
X155327500Y-66505000D03*
%TO.P,C21,2*%
%TO.N,Earth*%
X156462500Y-66505000D03*
%TD*%
D20*
%TO.P,C20,1*%
%TO.N,Earth*%
X157020822Y-92035999D03*
%TO.P,C20,2*%
%TO.N,+3.3V*%
X157020822Y-90900999D03*
%TD*%
D16*
%TO.P,C18,1*%
%TO.N,+3.3V*%
X147817500Y-97500000D03*
%TO.P,C18,2*%
%TO.N,Earth*%
X146682500Y-97500000D03*
%TD*%
D21*
%TO.P,C16,1*%
%TO.N,Net-(U6-VAUX)*%
X156895000Y-69187500D03*
%TO.P,C16,2*%
%TO.N,Earth*%
X156895000Y-70322500D03*
%TD*%
D20*
%TO.P,C15,1*%
%TO.N,+BATT*%
X146250000Y-58817500D03*
%TO.P,C15,2*%
%TO.N,Earth*%
X146250000Y-57682500D03*
%TD*%
D22*
%TO.P,C14,1*%
%TO.N,+3.3V*%
X157112500Y-87500000D03*
%TO.P,C14,2*%
%TO.N,Earth*%
X155387500Y-87500000D03*
%TD*%
D23*
%TO.P,C13,1*%
%TO.N,BST_IN*%
X149145000Y-68892500D03*
%TO.P,C13,2*%
%TO.N,Earth*%
X149145000Y-70617500D03*
%TD*%
D21*
%TO.P,C12,1*%
%TO.N,BST_IN*%
X150395000Y-68937500D03*
%TO.P,C12,2*%
%TO.N,Earth*%
X150395000Y-70072500D03*
%TD*%
D16*
%TO.P,C10,1*%
%TO.N,Net-(U4-VDDCORE)*%
X150249421Y-77094782D03*
%TO.P,C10,2*%
%TO.N,Earth*%
X149114421Y-77094782D03*
%TD*%
D21*
%TO.P,C9,1*%
%TO.N,+3.3V*%
X151250000Y-76182500D03*
%TO.P,C9,2*%
%TO.N,Earth*%
X151250000Y-77317500D03*
%TD*%
D14*
%TO.P,C8,1*%
%TO.N,Earth*%
X149114421Y-76133145D03*
%TO.P,C8,2*%
%TO.N,+3.3V*%
X150249421Y-76133145D03*
%TD*%
D19*
%TO.P,C7,1*%
%TO.N,+3.3V*%
X141798491Y-79001099D03*
%TO.P,C7,2*%
%TO.N,Earth*%
X141798491Y-77276099D03*
%TD*%
D16*
%TO.P,C2,1*%
%TO.N,+3.3V*%
X143462061Y-55018579D03*
%TO.P,C2,2*%
%TO.N,Earth*%
X142327061Y-55018579D03*
%TD*%
D24*
%TO.P,SW2,*%
%TO.N,*%
X143299224Y-66100085D03*
X141089224Y-66100085D03*
X143299224Y-73400085D03*
X141089224Y-73400085D03*
D25*
%TO.P,SW2,1,A*%
%TO.N,+BATT*%
X143949224Y-67500085D03*
%TO.P,SW2,2,B*%
%TO.N,BST_IN*%
X143949224Y-70500085D03*
%TO.P,SW2,3,C*%
%TO.N,unconnected-(SW2-C-Pad3)*%
X143949224Y-72000085D03*
%TD*%
D26*
%TO.P,SW1,1,1*%
%TO.N,Earth*%
X142500000Y-103400000D03*
%TO.P,SW1,2,2*%
%TO.N,nRST*%
X142500000Y-95600000D03*
%TD*%
D27*
%TO.P,L5,1,1*%
%TO.N,Net-(C22-Pad1)*%
X156000000Y-95826250D03*
%TO.P,L5,2,2*%
%TO.N,Net-(C25-Pad1)*%
X156000000Y-96971250D03*
%TD*%
D28*
%TO.P,U5,1,EN*%
%TO.N,+3.3V*%
X145850000Y-77125000D03*
%TO.P,U5,2,GND*%
%TO.N,Earth*%
X143650000Y-77125000D03*
%TO.P,U5,3,OUTPUT*%
%TO.N,Net-(U5-OUTPUT)*%
X143650000Y-78875000D03*
%TO.P,U5,4,VDD*%
%TO.N,+3.3V*%
X145850000Y-78875000D03*
%TD*%
D29*
%TO.P,J4,1,Pin_1*%
%TO.N,D+*%
X142250000Y-84210000D03*
D30*
%TO.P,J4,2,Pin_2*%
%TO.N,D-*%
X142250000Y-86750000D03*
%TO.P,J4,3,Pin_3*%
%TO.N,+3.3V*%
X142250000Y-89290000D03*
%TO.P,J4,4,Pin_4*%
%TO.N,Earth*%
X142250000Y-91830000D03*
%TD*%
D31*
%TO.P,JP1,2,B*%
%TO.N,+BATT*%
X145415249Y-62953719D03*
%TO.P,JP1,1,A*%
%TO.N,BST_IN*%
X145415249Y-64253719D03*
%TD*%
D29*
%TO.P,J5,1,Pin_1*%
%TO.N,+3.3V*%
X161000000Y-82700000D03*
D30*
%TO.P,J5,2,Pin_2*%
%TO.N,SDA*%
X161000000Y-85240000D03*
%TO.P,J5,3,Pin_3*%
%TO.N,SCL*%
X161000000Y-87780000D03*
%TO.P,J5,4,Pin_4*%
%TO.N,Earth*%
X161000000Y-90320000D03*
%TD*%
D16*
%TO.P,C22,1*%
%TO.N,Net-(C22-Pad1)*%
X154955655Y-95216644D03*
%TO.P,C22,2*%
%TO.N,Earth*%
X153820655Y-95216644D03*
%TD*%
D27*
%TO.P,L7,1,1*%
%TO.N,Net-(C27-Pad1)*%
X156000000Y-100898750D03*
%TO.P,L7,2,2*%
%TO.N,Net-(AE2-RF)*%
X156000000Y-102043750D03*
%TD*%
D32*
%TO.P,L1,1,1*%
%TO.N,Earth*%
X154677500Y-49750000D03*
%TO.P,L1,2,2*%
%TO.N,ANT_GPS*%
X155822500Y-49750000D03*
%TD*%
D33*
%TO.P,IC1,1,SDN*%
%TO.N,SDN*%
X154437500Y-93000000D03*
%TO.P,IC1,2,NC_1*%
%TO.N,unconnected-(IC1-NC_1-Pad2)*%
X154437500Y-92500000D03*
%TO.P,IC1,3,NC_2*%
%TO.N,unconnected-(IC1-NC_2-Pad3)*%
X154437500Y-92000000D03*
%TO.P,IC1,4,TX*%
%TO.N,RF_ANT*%
X154437500Y-91500000D03*
%TO.P,IC1,5,NC_3*%
%TO.N,unconnected-(IC1-NC_3-Pad5)*%
X154437500Y-91000000D03*
D34*
%TO.P,IC1,6,VDD_1*%
%TO.N,+3.3V*%
X153500000Y-90062500D03*
%TO.P,IC1,7,TXRAMP*%
%TO.N,unconnected-(IC1-TXRAMP-Pad7)*%
X153000000Y-90062500D03*
%TO.P,IC1,8,VDD_2*%
%TO.N,+3.3V*%
X152500000Y-90062500D03*
%TO.P,IC1,9,GPIO0*%
%TO.N,GPIO0*%
X152000000Y-90062500D03*
%TO.P,IC1,10,GPIO1*%
%TO.N,GPIO1*%
X151500000Y-90062500D03*
D33*
%TO.P,IC1,11,NIRQ*%
%TO.N,RF_RST*%
X150562500Y-91000000D03*
%TO.P,IC1,12,SCLK*%
%TO.N,SCK*%
X150562500Y-91500000D03*
%TO.P,IC1,13,SDO*%
%TO.N,MISO*%
X150562500Y-92000000D03*
%TO.P,IC1,14,SDI*%
%TO.N,MOSI*%
X150562500Y-92500000D03*
%TO.P,IC1,15,NSEL*%
%TO.N,RF_SS*%
X150562500Y-93000000D03*
D34*
%TO.P,IC1,16,XOUT*%
%TO.N,unconnected-(IC1-XOUT-Pad16)*%
X151500000Y-93937500D03*
%TO.P,IC1,17,XIN*%
%TO.N,Net-(IC1-XIN)*%
X152000000Y-93937500D03*
%TO.P,IC1,18,GND_1*%
%TO.N,Earth*%
X152500000Y-93937500D03*
%TO.P,IC1,19,GPIO2*%
%TO.N,unconnected-(IC1-GPIO2-Pad19)*%
X153000000Y-93937500D03*
%TO.P,IC1,20,GPIO3*%
%TO.N,unconnected-(IC1-GPIO3-Pad20)*%
X153500000Y-93937500D03*
D35*
%TO.P,IC1,21,GND_2*%
%TO.N,Earth*%
X153500000Y-93000000D03*
X153500000Y-91000000D03*
D36*
X152500000Y-92000000D03*
D35*
X151500000Y-93000000D03*
X151500000Y-91000000D03*
%TD*%
D37*
%TO.P,U2,1,GND*%
%TO.N,Earth*%
X148150000Y-61107500D03*
%TO.P,U2,2,TXD*%
%TO.N,RXD*%
X149250000Y-61107500D03*
%TO.P,U2,3,RXD*%
%TO.N,TXD*%
X150350000Y-61107500D03*
%TO.P,U2,4,PPS*%
%TO.N,unconnected-(U2-PPS-Pad4)*%
X151450000Y-61107500D03*
%TO.P,U2,5,ONOFF*%
%TO.N,GPS_EN*%
X152550000Y-61107500D03*
%TO.P,U2,6,VBAT*%
%TO.N,+3.3V*%
X153650000Y-61107500D03*
%TO.P,U2,7,NC*%
%TO.N,unconnected-(U2-NC-Pad7)*%
X154750000Y-61107500D03*
%TO.P,U2,8,VCC*%
%TO.N,+3.3V*%
X155850000Y-61107500D03*
%TO.P,U2,9,RESET*%
%TO.N,Earth*%
X156950000Y-61107500D03*
%TO.P,U2,10,GND*%
X156950000Y-51792500D03*
%TO.P,U2,11,RF_IN*%
%TO.N,ANT_GPS*%
X155850000Y-51792500D03*
%TO.P,U2,12,GND*%
%TO.N,Earth*%
X154750000Y-51792500D03*
%TO.P,U2,13,NC*%
%TO.N,unconnected-(U2-NC-Pad13)*%
X153650000Y-51792500D03*
%TO.P,U2,14,VCC_RF*%
%TO.N,unconnected-(U2-VCC_RF-Pad14)*%
X152550000Y-51792500D03*
%TO.P,U2,15,NC*%
%TO.N,unconnected-(U2-NC-Pad15)*%
X151450000Y-51792500D03*
%TO.P,U2,16,SDA*%
%TO.N,unconnected-(U2-SDA-Pad16)*%
X150350000Y-51792500D03*
%TO.P,U2,17,SCL*%
%TO.N,unconnected-(U2-SCL-Pad17)*%
X149250000Y-51792500D03*
%TO.P,U2,18,NC*%
%TO.N,unconnected-(U2-NC-Pad18)*%
X148150000Y-51792500D03*
%TD*%
D38*
%TO.P,D1,1,K*%
%TO.N,Net-(D1-K)*%
X143750000Y-105225000D03*
%TO.P,D1,2,A*%
%TO.N,SUCCESS*%
X143750000Y-107275000D03*
%TD*%
D29*
%TO.P,J6,1,Pin_1*%
%TO.N,+BATT*%
X142294431Y-63452157D03*
D30*
%TO.P,J6,2,Pin_2*%
%TO.N,Earth*%
X142294431Y-60912157D03*
%TO.P,J6,3,Pin_3*%
%TO.N,+3.3V*%
X142294431Y-58372157D03*
%TD*%
D38*
%TO.P,D3,1,K*%
%TO.N,Net-(D3-K)*%
X147750000Y-105225000D03*
%TO.P,D3,2,A*%
%TO.N,+3.3V*%
X147750000Y-107275000D03*
%TD*%
D39*
%TO.P,U6,1,VAUX*%
%TO.N,Net-(U6-VAUX)*%
X154635000Y-67995000D03*
D40*
X154635000Y-68280000D03*
D39*
%TO.P,U6,2,VOUT*%
%TO.N,+3.3V*%
X154135000Y-67995000D03*
D40*
X154135000Y-68280000D03*
D39*
%TO.P,U6,3,L*%
%TO.N,Net-(U6-L)*%
X153635000Y-67995000D03*
D40*
X153635000Y-68280000D03*
D39*
%TO.P,U6,4,PGND*%
%TO.N,Earth*%
X153135000Y-67995000D03*
D40*
X153135000Y-68280000D03*
D39*
%TO.P,U6,5,VIN*%
%TO.N,BST_IN*%
X152635000Y-67995000D03*
D40*
X152635000Y-68280000D03*
%TO.P,U6,6,EN*%
X152635000Y-71230000D03*
D39*
X152635000Y-71515000D03*
D40*
%TO.P,U6,7,UVLO*%
X153135000Y-71230000D03*
D39*
X153135000Y-71515000D03*
D40*
%TO.P,U6,8,PS*%
%TO.N,Earth*%
X153635000Y-71230000D03*
D39*
X153635000Y-71515000D03*
D40*
%TO.P,U6,9,GND*%
X154135000Y-71230000D03*
D39*
X154135000Y-71515000D03*
D40*
%TO.P,U6,10,FB*%
%TO.N,Net-(U6-FB)*%
X154635000Y-71230000D03*
D39*
X154635000Y-71515000D03*
D41*
%TO.P,U6,11,PAD*%
%TO.N,Earth*%
X154385000Y-69255000D03*
X152885000Y-69255000D03*
D42*
X154270000Y-69305000D03*
X153000000Y-69305000D03*
D43*
X155265000Y-69505000D03*
D44*
X155185000Y-69505000D03*
X152085000Y-69505000D03*
D43*
X152005000Y-69505000D03*
D41*
X153635000Y-69755000D03*
D45*
X153635000Y-69755000D03*
D43*
X155265000Y-70005000D03*
D44*
X155185000Y-70005000D03*
X152085000Y-70005000D03*
D43*
X152005000Y-70005000D03*
D42*
X154270000Y-70205000D03*
X153000000Y-70205000D03*
D41*
X154385000Y-70255000D03*
X152885000Y-70255000D03*
%TD*%
D46*
%TO.P,AE2,1,RF*%
%TO.N,Net-(AE2-RF)*%
X153911023Y-104665790D03*
D47*
X153911023Y-105665790D03*
%TO.P,AE2,2,Shield*%
%TO.N,Earth*%
X150696023Y-105665790D03*
D48*
X150696023Y-105665790D03*
D47*
X157126023Y-105665790D03*
D48*
X157126023Y-105665790D03*
%TD*%
D29*
%TO.P,J2,1,Pin_1*%
%TO.N,D12*%
X161000000Y-71250000D03*
D30*
%TO.P,J2,2,Pin_2*%
%TO.N,D13*%
X161000000Y-73790000D03*
%TO.P,J2,3,Pin_3*%
%TO.N,A1*%
X161000000Y-76330000D03*
%TO.P,J2,4,Pin_4*%
%TO.N,A2*%
X161000000Y-78870000D03*
%TD*%
D49*
%TO.P,U1,1,GND*%
%TO.N,Earth*%
X141385220Y-53079470D03*
%TO.P,U1,2,CSB*%
%TO.N,Net-(U1-CSB)*%
X141385220Y-52429470D03*
%TO.P,U1,3,SDI*%
%TO.N,SDA*%
X141385220Y-51779470D03*
%TO.P,U1,4,SCK*%
%TO.N,SCL*%
X141385220Y-51129470D03*
%TO.P,U1,5,SDO*%
%TO.N,Net-(U1-SDO)*%
X143435220Y-51129470D03*
%TO.P,U1,6,VDDIO*%
%TO.N,+3.3V*%
X143435220Y-51779470D03*
%TO.P,U1,7,GND*%
%TO.N,Earth*%
X143435220Y-52429470D03*
%TO.P,U1,8,VDD*%
%TO.N,+3.3V*%
X143435220Y-53079470D03*
%TD*%
D29*
%TO.P,J7,1,Pin_1*%
%TO.N,+3.3V*%
X161000000Y-94175000D03*
D30*
%TO.P,J7,2,Pin_2*%
%TO.N,MOSI*%
X161000000Y-96715000D03*
%TO.P,J7,3,Pin_3*%
%TO.N,MISO*%
X161000000Y-99255000D03*
%TO.P,J7,4,Pin_4*%
%TO.N,SCK*%
X161000000Y-101795000D03*
%TO.P,J7,5,Pin_5*%
%TO.N,Earth*%
X161000000Y-104335000D03*
%TD*%
D38*
%TO.P,D2,1,K*%
%TO.N,Net-(D2-K)*%
X145750000Y-105225000D03*
%TO.P,D2,2,A*%
%TO.N,ERROR*%
X145750000Y-107275000D03*
%TD*%
D16*
%TO.P,C25,1*%
%TO.N,Net-(C25-Pad1)*%
X154817500Y-97721250D03*
%TO.P,C25,2*%
%TO.N,Earth*%
X153682500Y-97721250D03*
%TD*%
D50*
%TO.P,L2,1,1*%
%TO.N,Net-(U6-L)*%
X151895000Y-65005000D03*
%TO.P,L2,2,2*%
%TO.N,BST_IN*%
X149735000Y-65005000D03*
%TD*%
D27*
%TO.P,L6,1,1*%
%TO.N,Net-(C25-Pad1)*%
X156000000Y-98326250D03*
%TO.P,L6,2,2*%
%TO.N,Net-(C27-Pad1)*%
X156000000Y-99471250D03*
%TD*%
D51*
%TO.P,XTAL1,1,GND*%
%TO.N,Earth*%
X145375696Y-93296174D03*
%TO.P,XTAL1,2,GND*%
X145375696Y-95596174D03*
%TO.P,XTAL1,3,CLK_OUT*%
%TO.N,RF_XO*%
X147275696Y-95596174D03*
%TO.P,XTAL1,4,VDD*%
%TO.N,+3.3V*%
X147275696Y-93296174D03*
%TD*%
D52*
%TO.P,U4,1,PA00*%
%TO.N,TCXO*%
X146587500Y-80250000D03*
%TO.P,U4,2,PA01*%
%TO.N,unconnected-(U4-PA01-Pad2)*%
X146587500Y-80750000D03*
%TO.P,U4,3,PA02*%
%TO.N,BATT_SENSE*%
X146587500Y-81250000D03*
%TO.P,U4,4,PA03*%
%TO.N,unconnected-(U4-PA03-Pad4)*%
X146587500Y-81750000D03*
%TO.P,U4,5,GNDANA*%
%TO.N,Earth*%
X146587500Y-82250000D03*
%TO.P,U4,6,VDDANA*%
%TO.N,+3.3V*%
X146587500Y-82750000D03*
%TO.P,U4,7,PB08*%
%TO.N,A1*%
X146587500Y-83250000D03*
%TO.P,U4,8,PB09*%
%TO.N,A2*%
X146587500Y-83750000D03*
%TO.P,U4,9,PA04*%
%TO.N,unconnected-(U4-PA04-Pad9)*%
X146587500Y-84250000D03*
%TO.P,U4,10,PA05*%
%TO.N,unconnected-(U4-PA05-Pad10)*%
X146587500Y-84750000D03*
%TO.P,U4,11,PA06*%
%TO.N,GPS_EN*%
X146587500Y-85250000D03*
%TO.P,U4,12,PA07*%
%TO.N,RF_RST*%
X146587500Y-85750000D03*
D53*
%TO.P,U4,13,PA08*%
%TO.N,SUCCESS*%
X148000000Y-87162500D03*
%TO.P,U4,14,PA09*%
%TO.N,GPIO1*%
X148500000Y-87162500D03*
%TO.P,U4,15,PA10*%
%TO.N,TXD*%
X149000000Y-87162500D03*
%TO.P,U4,16,PA11*%
%TO.N,RXD*%
X149500000Y-87162500D03*
%TO.P,U4,17,VDDIO*%
%TO.N,+3.3V*%
X150000000Y-87162500D03*
%TO.P,U4,18,GND*%
%TO.N,Earth*%
X150500000Y-87162500D03*
%TO.P,U4,19,PB10*%
%TO.N,MOSI*%
X151000000Y-87162500D03*
%TO.P,U4,20,PB11*%
%TO.N,SCK*%
X151500000Y-87162500D03*
%TO.P,U4,21,PA12*%
%TO.N,MISO*%
X152000000Y-87162500D03*
%TO.P,U4,22,PA13*%
%TO.N,unconnected-(U4-PA13-Pad22)*%
X152500000Y-87162500D03*
%TO.P,U4,23,PA14*%
%TO.N,GPIO0*%
X153000000Y-87162500D03*
%TO.P,U4,24,PA15*%
%TO.N,ERROR*%
X153500000Y-87162500D03*
D52*
%TO.P,U4,25,PA16*%
%TO.N,SDN*%
X154912500Y-85750000D03*
%TO.P,U4,26,PA17*%
%TO.N,D13*%
X154912500Y-85250000D03*
%TO.P,U4,27,PA18*%
%TO.N,RF_SS*%
X154912500Y-84750000D03*
%TO.P,U4,28,PA19*%
%TO.N,D12*%
X154912500Y-84250000D03*
%TO.P,U4,29,PA20*%
%TO.N,D6*%
X154912500Y-83750000D03*
%TO.P,U4,30,PA21*%
%TO.N,D7*%
X154912500Y-83250000D03*
%TO.P,U4,31,PA22*%
%TO.N,SDA*%
X154912500Y-82750000D03*
%TO.P,U4,32,PA23*%
%TO.N,SCL*%
X154912500Y-82250000D03*
%TO.P,U4,33,PA24*%
%TO.N,D-*%
X154912500Y-81750000D03*
%TO.P,U4,34,PA25*%
%TO.N,D+*%
X154912500Y-81250000D03*
%TO.P,U4,35,GND*%
%TO.N,Earth*%
X154912500Y-80750000D03*
%TO.P,U4,36,VDDIO*%
%TO.N,+3.3V*%
X154912500Y-80250000D03*
D53*
%TO.P,U4,37,PB22*%
%TO.N,unconnected-(U4-PB22-Pad37)*%
X153500000Y-78837500D03*
%TO.P,U4,38,PB23*%
%TO.N,unconnected-(U4-PB23-Pad38)*%
X153000000Y-78837500D03*
%TO.P,U4,39,PA27*%
%TO.N,unconnected-(U4-PA27-Pad39)*%
X152500000Y-78837500D03*
%TO.P,U4,40,~{RESET}*%
%TO.N,nRST*%
X152000000Y-78837500D03*
%TO.P,U4,41,PA28*%
%TO.N,unconnected-(U4-PA28-Pad41)*%
X151500000Y-78837500D03*
%TO.P,U4,42,GND*%
%TO.N,Earth*%
X151000000Y-78837500D03*
%TO.P,U4,43,VDDCORE*%
%TO.N,Net-(U4-VDDCORE)*%
X150500000Y-78837500D03*
%TO.P,U4,44,VDDIN*%
%TO.N,+3.3V*%
X150000000Y-78837500D03*
%TO.P,U4,45,PA30*%
%TO.N,SWCLK*%
X149500000Y-78837500D03*
%TO.P,U4,46,PA31*%
%TO.N,SWDIO*%
X149000000Y-78837500D03*
%TO.P,U4,47,PB02*%
%TO.N,unconnected-(U4-PB02-Pad47)*%
X148500000Y-78837500D03*
%TO.P,U4,48,PB03*%
%TO.N,unconnected-(U4-PB03-Pad48)*%
X148000000Y-78837500D03*
%TD*%
D54*
%TO.P,AE1,1,A*%
%TO.N,ANT_GPS*%
X155770000Y-45683000D03*
%TO.P,AE1,2*%
%TO.N,N/C*%
X145770000Y-45683000D03*
%TD*%
D27*
%TO.P,L4,1,1*%
%TO.N,Net-(C19-Pad2)*%
X156000000Y-93326250D03*
%TO.P,L4,2,2*%
%TO.N,Net-(C22-Pad1)*%
X156000000Y-94471250D03*
%TD*%
D16*
%TO.P,C27,1*%
%TO.N,Net-(C27-Pad1)*%
X154880910Y-100235963D03*
%TO.P,C27,2*%
%TO.N,Earth*%
X153745910Y-100235963D03*
%TD*%
D21*
%TO.P,C19,1*%
%TO.N,RF_ANT*%
X156000000Y-90903750D03*
%TO.P,C19,2*%
%TO.N,Net-(C19-Pad2)*%
X156000000Y-92038750D03*
%TD*%
D55*
%TO.N,Earth*%
X148500000Y-55500000D03*
%TO.N,+BATT*%
X152500000Y-57750000D03*
X151500000Y-59000000D03*
%TO.N,Earth*%
X143250000Y-82000000D03*
X153750000Y-75750000D03*
X159250000Y-82750000D03*
X159250000Y-78500000D03*
X159250000Y-71750000D03*
X157250000Y-101750000D03*
X161000000Y-107000000D03*
X142250000Y-56250000D03*
X157000000Y-67750000D03*
X150250000Y-73500000D03*
X154250000Y-73750000D03*
X158750000Y-96500000D03*
X158750000Y-97500000D03*
X158750000Y-85500000D03*
X158750000Y-86500000D03*
X158750000Y-87500000D03*
X158750000Y-106750000D03*
X158750000Y-105750000D03*
X158750000Y-104750000D03*
X158750000Y-103750000D03*
X158750000Y-102750000D03*
X158750000Y-101750000D03*
X143000000Y-98500000D03*
X149500000Y-96750000D03*
X150250000Y-102000000D03*
X149500000Y-101250000D03*
X150750000Y-101250000D03*
X152000000Y-102000000D03*
X155000000Y-98750000D03*
X158750000Y-88500000D03*
X158750000Y-89500000D03*
X158750000Y-90500000D03*
X158750000Y-91500000D03*
X158750000Y-92500000D03*
X158750000Y-93500000D03*
X158750000Y-94500000D03*
X158750000Y-95500000D03*
X146750000Y-50250000D03*
X155250000Y-53500000D03*
X154500000Y-55500000D03*
X153250000Y-54250000D03*
X150250000Y-54000000D03*
X157750000Y-53250000D03*
X156500000Y-54250000D03*
X157750000Y-55250000D03*
X156750000Y-57750000D03*
X155750000Y-56750000D03*
X154500000Y-57000000D03*
X155500000Y-58000000D03*
X156500000Y-59000000D03*
X146500000Y-54500000D03*
X140750000Y-50000000D03*
X140750000Y-54750000D03*
X140750000Y-57000000D03*
X144000000Y-57000000D03*
X140750000Y-64750000D03*
X141000000Y-68250000D03*
X141000000Y-71250000D03*
X142250000Y-69750000D03*
X145750000Y-71750000D03*
X145750000Y-73250000D03*
X141000000Y-75250000D03*
X141250000Y-80750000D03*
X141000000Y-95500000D03*
X140750000Y-107250000D03*
X143000000Y-99750000D03*
X158750000Y-100750000D03*
X159250000Y-50250000D03*
X159250000Y-65750000D03*
X159250000Y-52250000D03*
X159250000Y-62000000D03*
X159250000Y-58250000D03*
X159250000Y-67750000D03*
X159250000Y-63750000D03*
X159250000Y-54250000D03*
X159250000Y-60250000D03*
X159250000Y-56250000D03*
X160750000Y-51250000D03*
X160750000Y-53250000D03*
X160750000Y-55250000D03*
X160750000Y-68750000D03*
X160750000Y-59250000D03*
X160750000Y-61250000D03*
X160750000Y-57250000D03*
X160750000Y-66750000D03*
X160750000Y-64750000D03*
X160750000Y-63000000D03*
X162250000Y-62000000D03*
X162250000Y-63750000D03*
X162250000Y-65750000D03*
X162250000Y-67750000D03*
X162250000Y-56250000D03*
X162250000Y-58250000D03*
X162250000Y-60250000D03*
X162250000Y-54250000D03*
X162250000Y-50250000D03*
X162250000Y-52250000D03*
X142000000Y-48750000D03*
X141000000Y-48750000D03*
X143000000Y-48750000D03*
X145000000Y-48750000D03*
X146000000Y-48750000D03*
X144000000Y-48750000D03*
%TO.N,GPS_EN*%
X145012653Y-85237347D03*
X153500000Y-59000000D03*
%TO.N,Earth*%
X155386182Y-87492574D03*
%TO.N,+3.3V*%
X157250000Y-88750000D03*
X157112500Y-87500000D03*
X154377605Y-64069111D03*
%TO.N,Earth*%
X153500000Y-49750000D03*
X157000000Y-49750000D03*
X148000000Y-49250000D03*
X149000000Y-49250000D03*
X151000000Y-49250000D03*
X147000000Y-48750000D03*
X152000000Y-49250000D03*
X150000000Y-49250000D03*
X146750000Y-60500000D03*
%TO.N,+BATT*%
X148500000Y-58750000D03*
%TO.N,+3.3V*%
X148250000Y-75500000D03*
%TO.N,Earth*%
X149471497Y-75475000D03*
X151250000Y-77250000D03*
%TO.N,+3.3V*%
X151250000Y-75250000D03*
%TO.N,Earth*%
X149145000Y-70617500D03*
X148500000Y-72500000D03*
X149393582Y-89315344D03*
X157398495Y-66500000D03*
X161500000Y-48750000D03*
X144000000Y-75750000D03*
X156640503Y-72436099D03*
X157398495Y-63363147D03*
X145712500Y-97500000D03*
X152750000Y-100500000D03*
X145712500Y-99500000D03*
X159500000Y-48750000D03*
X153000000Y-48750000D03*
X154795000Y-48750000D03*
X145575000Y-93296174D03*
X151338438Y-84795769D03*
X157398495Y-65454381D03*
X156895000Y-71250000D03*
X153750000Y-96000000D03*
X154250000Y-79250000D03*
X149479180Y-99004485D03*
X153317735Y-98651785D03*
X157398495Y-64408764D03*
X145250000Y-81500000D03*
X158500000Y-48750000D03*
X156750000Y-48750000D03*
X160500000Y-48750000D03*
%TO.N,+3.3V*%
X154532500Y-65255000D03*
X148646023Y-106273570D03*
X154357500Y-63000000D03*
X153390002Y-88978107D03*
X145850000Y-77125000D03*
X154357500Y-66505000D03*
X144767423Y-53527003D03*
X141798491Y-79001099D03*
X144249997Y-81500000D03*
X154459160Y-78079760D03*
X157000000Y-81250000D03*
X150233148Y-85258148D03*
X154750000Y-59500000D03*
X151506122Y-72426524D03*
X147372669Y-98397974D03*
%TO.N,GPIO1*%
X146637653Y-87887653D03*
X148176166Y-90614348D03*
%TO.N,RF_RST*%
X145603155Y-89977849D03*
X149405728Y-90905728D03*
%TO.N,SCK*%
X148828931Y-92063576D03*
%TO.N,MISO*%
X149087390Y-93388488D03*
X152257005Y-85191040D03*
%TO.N,MOSI*%
X152750000Y-99475000D03*
X158750000Y-99750000D03*
%TO.N,RF_SS*%
X150549890Y-93679485D03*
X153798960Y-84682384D03*
%TO.N,SDA*%
X157000000Y-83000000D03*
X157750153Y-85974847D03*
%TO.N,SCL*%
X142237347Y-50237347D03*
X155141298Y-77348533D03*
X157000000Y-79250000D03*
%TO.N,SWDIO*%
X147822340Y-82874802D03*
%TO.N,SWCLK*%
X148696470Y-82389104D03*
%TO.N,nRST*%
X147820789Y-83897149D03*
X142500000Y-95625000D03*
%TO.N,A1*%
X144750000Y-83425000D03*
%TO.N,A2*%
X145319484Y-84285581D03*
%TO.N,D-*%
X153449585Y-81798519D03*
%TO.N,SUCCESS*%
X145125000Y-88750000D03*
X144725178Y-106221176D03*
%TO.N,ERROR*%
X145794878Y-107319877D03*
X152000354Y-98225000D03*
X152855075Y-94998402D03*
X154777739Y-89928107D03*
%TO.N,SDN*%
X155052263Y-94223043D03*
X154382819Y-86357513D03*
%TO.N,D13*%
X152299750Y-82824750D03*
%TO.N,D12*%
X155893639Y-76643639D03*
%TO.N,+BATT*%
X148525000Y-57799906D03*
X144000000Y-74750000D03*
%TO.N,TXD*%
X151749999Y-80975000D03*
X152250000Y-56250000D03*
%TO.N,RXD*%
X151355571Y-55525000D03*
X152743299Y-81090588D03*
%TD*%
D56*
%TO.N,Earth*%
X152500000Y-93937500D02*
X152500000Y-92000000D01*
D57*
X155185000Y-70005000D02*
X155185000Y-69505000D01*
X153920000Y-70040000D02*
X153635000Y-69755000D01*
X153920000Y-71230000D02*
X153920000Y-70040000D01*
D56*
X153850000Y-71230000D02*
X154135000Y-71515000D01*
X153635000Y-71230000D02*
X153850000Y-71230000D01*
X153920000Y-71230000D02*
X153635000Y-71515000D01*
X154135000Y-71230000D02*
X153920000Y-71230000D01*
X153635000Y-71230000D02*
X154135000Y-71230000D01*
X153635000Y-71515000D02*
X154135000Y-71515000D01*
%TO.N,D+*%
X153038605Y-80250000D02*
X154038605Y-81250000D01*
X150550000Y-80836396D02*
X151136396Y-80250000D01*
X148549325Y-84643873D02*
X150550000Y-82643198D01*
X154038605Y-81250000D02*
X154912500Y-81250000D01*
X148549325Y-84952019D02*
X148549325Y-84643873D01*
X144540000Y-86500000D02*
X147001344Y-86500000D01*
X147001344Y-86500000D02*
X148549325Y-84952019D01*
X150550000Y-82643198D02*
X150550000Y-80836396D01*
X142250000Y-84210000D02*
X144540000Y-86500000D01*
X151136396Y-80250000D02*
X153038605Y-80250000D01*
%TO.N,RF_RST*%
X146337500Y-86000000D02*
X146587500Y-85750000D01*
X144750000Y-86000000D02*
X146337500Y-86000000D01*
X143425000Y-84675000D02*
X144750000Y-86000000D01*
X143425000Y-83035000D02*
X143425000Y-84675000D01*
X141500000Y-82750000D02*
X143140000Y-82750000D01*
X143140000Y-82750000D02*
X143425000Y-83035000D01*
X140750000Y-83500000D02*
X141500000Y-82750000D01*
X141250000Y-88000000D02*
X140750000Y-87500000D01*
X140750000Y-87500000D02*
X140750000Y-83500000D01*
X145215842Y-89977849D02*
X143237993Y-88000000D01*
X143237993Y-88000000D02*
X141250000Y-88000000D01*
X145603155Y-89977849D02*
X145215842Y-89977849D01*
%TO.N,MOSI*%
X149578130Y-94171870D02*
X148250000Y-94171870D01*
X149825000Y-92775260D02*
X149825000Y-93925000D01*
X149825000Y-93925000D02*
X149578130Y-94171870D01*
X150562500Y-92500000D02*
X150100260Y-92500000D01*
X150100260Y-92500000D02*
X149825000Y-92775260D01*
%TO.N,SCK*%
X149706033Y-91630728D02*
X149836761Y-91500000D01*
X149261779Y-91630728D02*
X149706033Y-91630728D01*
X149836761Y-91500000D02*
X150562500Y-91500000D01*
X148828931Y-92063576D02*
X149261779Y-91630728D01*
%TO.N,RF_RST*%
X150224847Y-90662347D02*
X150562500Y-91000000D01*
X149405728Y-90905728D02*
X149649109Y-90662347D01*
X149649109Y-90662347D02*
X150224847Y-90662347D01*
%TO.N,SCK*%
X151500000Y-88000000D02*
X151500000Y-87162500D01*
X150912939Y-88587061D02*
X151500000Y-88000000D01*
X149049335Y-88587061D02*
X150912939Y-88587061D01*
X148611396Y-89025000D02*
X149049335Y-88587061D01*
X147361396Y-89025000D02*
X148611396Y-89025000D01*
X146950000Y-89436396D02*
X147361396Y-89025000D01*
X146950000Y-90413487D02*
X146950000Y-89436396D01*
X148275000Y-91738487D02*
X146950000Y-90413487D01*
X148503842Y-91738487D02*
X148275000Y-91738487D01*
X148828931Y-92063576D02*
X148503842Y-91738487D01*
%TO.N,MISO*%
X149963864Y-92000000D02*
X150562500Y-92000000D01*
X149375000Y-92588864D02*
X149963864Y-92000000D01*
X149375000Y-93100878D02*
X149375000Y-92588864D01*
X149087390Y-93388488D02*
X149375000Y-93100878D01*
%TO.N,Net-(U1-CSB)*%
X141679470Y-52429470D02*
X141385220Y-52429470D01*
X142274572Y-53024572D02*
X141679470Y-52429470D01*
X142274572Y-54041843D02*
X142274572Y-53024572D01*
D57*
%TO.N,+3.3V*%
X147372669Y-98397974D02*
X147787500Y-97983143D01*
X147787500Y-97983143D02*
X147787500Y-97500000D01*
X147787500Y-98812805D02*
X147787500Y-99500000D01*
X147372669Y-98397974D02*
X147787500Y-98812805D01*
D56*
%TO.N,SDA*%
X141720530Y-51779470D02*
X141385220Y-51779470D01*
X143250000Y-50250000D02*
X141720530Y-51779470D01*
X145000000Y-50250000D02*
X143250000Y-50250000D01*
X145500000Y-50750000D02*
X145000000Y-50250000D01*
X145500000Y-51500000D02*
X145500000Y-50750000D01*
X158250000Y-57875000D02*
X153392500Y-53017500D01*
X153392500Y-53017500D02*
X147017500Y-53017500D01*
X147017500Y-53017500D02*
X145500000Y-51500000D01*
X157800000Y-85402076D02*
X157800000Y-84456496D01*
X157750153Y-85451923D02*
X157800000Y-85402076D01*
X157800000Y-84456496D02*
X158250000Y-84006496D01*
X157750153Y-85974847D02*
X157750153Y-85451923D01*
X158250000Y-84006496D02*
X158250000Y-57875000D01*
%TO.N,D12*%
X155726344Y-84100000D02*
X155644542Y-84181802D01*
X157520100Y-84100000D02*
X155726344Y-84100000D01*
X157800000Y-83820100D02*
X157520100Y-84100000D01*
X157800000Y-78550000D02*
X157800000Y-83820100D01*
X155644542Y-84181802D02*
X154980698Y-84181802D01*
X155893639Y-76643639D02*
X157800000Y-78550000D01*
%TO.N,+3.3V*%
X157000000Y-87387500D02*
X157000000Y-84912500D01*
X157112500Y-87500000D02*
X157000000Y-87387500D01*
%TO.N,MOSI*%
X161000000Y-97564239D02*
X161000000Y-96715000D01*
X158814239Y-99750000D02*
X161000000Y-97564239D01*
X158750000Y-99750000D02*
X158814239Y-99750000D01*
%TO.N,+3.3V*%
X144249997Y-82069960D02*
X144430037Y-82250000D01*
X144249997Y-81500000D02*
X144249997Y-82069960D01*
%TO.N,A1*%
X144925000Y-83250000D02*
X146587500Y-83250000D01*
X144750000Y-83425000D02*
X144925000Y-83250000D01*
%TO.N,+3.3V*%
X145787260Y-82750000D02*
X146587500Y-82750000D01*
X145287260Y-82250000D02*
X145787260Y-82750000D01*
X144430037Y-82250000D02*
X145287260Y-82250000D01*
%TO.N,Earth*%
X145250000Y-81500000D02*
X145250000Y-81576344D01*
X145250000Y-81576344D02*
X145923656Y-82250000D01*
X145923656Y-82250000D02*
X146587500Y-82250000D01*
%TO.N,A2*%
X145923656Y-83750000D02*
X146587500Y-83750000D01*
X145388075Y-84285581D02*
X145923656Y-83750000D01*
X145319484Y-84285581D02*
X145388075Y-84285581D01*
%TO.N,SCL*%
X157000000Y-79207235D02*
X157000000Y-79250000D01*
X155141298Y-77348533D02*
X157000000Y-79207235D01*
D57*
%TO.N,ANT_GPS*%
X155770000Y-51712500D02*
X155850000Y-51792500D01*
X155770000Y-45683000D02*
X155770000Y-51712500D01*
D56*
%TO.N,GPS_EN*%
X145025000Y-85225000D02*
X146587500Y-85225000D01*
X145012653Y-85237347D02*
X145025000Y-85225000D01*
X152550000Y-59950000D02*
X153500000Y-59000000D01*
X152550000Y-61107500D02*
X152550000Y-59950000D01*
%TO.N,+3.3V*%
X157112500Y-88612500D02*
X157112500Y-87500000D01*
X157250000Y-88750000D02*
X157112500Y-88612500D01*
X157250000Y-88750000D02*
X157089522Y-88910478D01*
X157089522Y-88910478D02*
X157089522Y-89867029D01*
X153390002Y-88978107D02*
X153212130Y-88978107D01*
D58*
%TO.N,RF_ANT*%
X155903750Y-91000000D02*
X156000000Y-90903750D01*
X155364386Y-91000000D02*
X155903750Y-91000000D01*
X154864386Y-91500000D02*
X155364386Y-91000000D01*
X154437500Y-91500000D02*
X154864386Y-91500000D01*
X156000000Y-90903750D02*
X156000000Y-90500000D01*
D56*
%TO.N,TCXO*%
X145085738Y-80250000D02*
X145049522Y-80286216D01*
X146587500Y-80250000D02*
X145085738Y-80250000D01*
%TO.N,Net-(U5-OUTPUT)*%
X143650000Y-80021694D02*
X143914522Y-80286216D01*
X143650000Y-78950000D02*
X143650000Y-80021694D01*
D57*
%TO.N,+BATT*%
X145095240Y-74750000D02*
X145146049Y-74699191D01*
X144000000Y-74750000D02*
X145095240Y-74750000D01*
D56*
%TO.N,+3.3V*%
X153650000Y-60257500D02*
X153650000Y-61107500D01*
X154750000Y-59500000D02*
X154407500Y-59500000D01*
X155850000Y-60257500D02*
X155850000Y-61107500D01*
X154750000Y-59500000D02*
X155092500Y-59500000D01*
X154407500Y-59500000D02*
X153650000Y-60257500D01*
X155092500Y-59500000D02*
X155850000Y-60257500D01*
%TO.N,SCL*%
X142237347Y-50237347D02*
X141385220Y-51089474D01*
X141385220Y-51089474D02*
X141385220Y-51129470D01*
%TO.N,Earth*%
X144266713Y-52429470D02*
X143435220Y-52429470D01*
X144509334Y-52186849D02*
X144266713Y-52429470D01*
%TO.N,Net-(U1-SDO)*%
X144371713Y-51129470D02*
X144509334Y-50991849D01*
X143435220Y-51129470D02*
X144371713Y-51129470D01*
%TO.N,+3.3V*%
X143469572Y-53940184D02*
X143882753Y-53527003D01*
X143469572Y-54041843D02*
X143469572Y-53940184D01*
X143469572Y-55011068D02*
X143462061Y-55018579D01*
X143469572Y-54041843D02*
X143469572Y-55011068D01*
X143882753Y-53527003D02*
X143435220Y-53079470D01*
X144767423Y-53527003D02*
X143882753Y-53527003D01*
X144767423Y-53713217D02*
X143462061Y-55018579D01*
X144767423Y-53527003D02*
X144767423Y-53713217D01*
D57*
X154357500Y-64089216D02*
X154357500Y-65080000D01*
X154377605Y-64069111D02*
X154357500Y-64089216D01*
X154357500Y-64049006D02*
X154377605Y-64069111D01*
D56*
X154357500Y-66505000D02*
X154135000Y-66727500D01*
D57*
X155327500Y-66505000D02*
X154357500Y-66505000D01*
X154357500Y-65430000D02*
X154532500Y-65255000D01*
X154357500Y-66505000D02*
X154357500Y-65430000D01*
D56*
X154135000Y-66727500D02*
X154135000Y-67995000D01*
D57*
X154357500Y-63000000D02*
X154357500Y-64049006D01*
X154357500Y-65080000D02*
X154532500Y-65255000D01*
D56*
X152376835Y-72431865D02*
X151511463Y-72431865D01*
X151511463Y-72431865D02*
X151506122Y-72426524D01*
%TO.N,Net-(U6-FB)*%
X153579261Y-72439291D02*
X153571835Y-72431865D01*
X154637648Y-72439291D02*
X153579261Y-72439291D01*
X154635000Y-72436643D02*
X154637648Y-72439291D01*
X154635000Y-71515000D02*
X154635000Y-72436643D01*
%TO.N,Earth*%
X149471497Y-75475000D02*
X149114421Y-75832076D01*
X149114421Y-75832076D02*
X149114421Y-76133145D01*
%TO.N,BATT_SENSE*%
X147154572Y-75654572D02*
X147550000Y-76050000D01*
X146342157Y-75654572D02*
X147154572Y-75654572D01*
D57*
X146342157Y-74700299D02*
X146341049Y-74699191D01*
X146342157Y-75654572D02*
X146342157Y-74700299D01*
D56*
%TO.N,Net-(IC1-XIN)*%
X151560508Y-95564505D02*
X152000000Y-95125013D01*
X152000000Y-95125013D02*
X152000000Y-93937500D01*
%TO.N,RF_XO*%
X150393839Y-95596174D02*
X147275696Y-95596174D01*
X150425508Y-95564505D02*
X150393839Y-95596174D01*
%TO.N,MOSI*%
X150975000Y-99475000D02*
X152750000Y-99475000D01*
X148205445Y-96705445D02*
X150975000Y-99475000D01*
X146321261Y-96491739D02*
X146534967Y-96705445D01*
X148024072Y-94397798D02*
X146624072Y-94397798D01*
X146321261Y-94700609D02*
X146321261Y-96491739D01*
X148250000Y-94171870D02*
X148024072Y-94397798D01*
X146624072Y-94397798D02*
X146321261Y-94700609D01*
X146534967Y-96705445D02*
X148205445Y-96705445D01*
X148250000Y-92500000D02*
X148250000Y-94171870D01*
X146500000Y-89250000D02*
X146500000Y-90750000D01*
X146500000Y-90750000D02*
X148250000Y-92500000D01*
X147175000Y-88575000D02*
X146500000Y-89250000D01*
X148425000Y-88575000D02*
X147175000Y-88575000D01*
X148862939Y-88137061D02*
X148425000Y-88575000D01*
X151000000Y-87863604D02*
X150726543Y-88137061D01*
X151000000Y-87162500D02*
X151000000Y-87863604D01*
X150726543Y-88137061D02*
X148862939Y-88137061D01*
%TO.N,SDN*%
X155080001Y-93642501D02*
X154437500Y-93000000D01*
X155080001Y-94195305D02*
X155080001Y-93642501D01*
X155052263Y-94223043D02*
X155080001Y-94195305D01*
%TO.N,RF_ANT*%
X156000000Y-89922507D02*
X155944522Y-89867029D01*
X156000000Y-90903750D02*
X156000000Y-89922507D01*
%TO.N,+3.3V*%
X157020822Y-89935729D02*
X157020822Y-90900999D01*
X157089522Y-89867029D02*
X157020822Y-89935729D01*
X142935220Y-53079470D02*
X143435220Y-53079470D01*
X142750000Y-52894250D02*
X142935220Y-53079470D01*
X142750000Y-51964690D02*
X142750000Y-52894250D01*
X142935220Y-51779470D02*
X142750000Y-51964690D01*
X143435220Y-51779470D02*
X142935220Y-51779470D01*
D57*
%TO.N,+BATT*%
X148500000Y-57824906D02*
X148525000Y-57799906D01*
X148500000Y-58750000D02*
X148500000Y-57824906D01*
X148432500Y-58817500D02*
X148500000Y-58750000D01*
X146250000Y-58817500D02*
X148432500Y-58817500D01*
X145415249Y-59652251D02*
X146250000Y-58817500D01*
X145415249Y-62953719D02*
X145415249Y-59652251D01*
D56*
%TO.N,TXD*%
X150350000Y-58150000D02*
X150350000Y-61107500D01*
X152250000Y-56250000D02*
X150350000Y-58150000D01*
%TO.N,RXD*%
X149250000Y-57630571D02*
X151355571Y-55525000D01*
X149250000Y-61107500D02*
X149250000Y-57630571D01*
D57*
%TO.N,BST_IN*%
X147457500Y-68892500D02*
X146532500Y-67967500D01*
X149145000Y-68892500D02*
X147457500Y-68892500D01*
D56*
%TO.N,Earth*%
X141949590Y-77125000D02*
X141798491Y-77276099D01*
X143650000Y-77125000D02*
X141949590Y-77125000D01*
D57*
%TO.N,BST_IN*%
X149145000Y-68892500D02*
X149070000Y-68967500D01*
D56*
%TO.N,+3.3V*%
X150750000Y-74750000D02*
X151250000Y-75250000D01*
X148250000Y-75500000D02*
X149000000Y-74750000D01*
X148250000Y-77500000D02*
X148250000Y-75500000D01*
X148479782Y-77729782D02*
X148250000Y-77500000D01*
X149000000Y-74750000D02*
X150750000Y-74750000D01*
X150000000Y-78100001D02*
X149629781Y-77729782D01*
X150000000Y-78837500D02*
X150000000Y-78100001D01*
X149629781Y-77729782D02*
X148479782Y-77729782D01*
%TO.N,Earth*%
X151317500Y-77250000D02*
X151250000Y-77317500D01*
X151250000Y-77250000D02*
X151317500Y-77250000D01*
X151250000Y-77317500D02*
X151250000Y-77250000D01*
%TO.N,+3.3V*%
X153676168Y-77296768D02*
X154459160Y-78079760D01*
X153472171Y-77296768D02*
X153676168Y-77296768D01*
%TO.N,Earth*%
X149114421Y-77094782D02*
X149114421Y-76133145D01*
%TO.N,Net-(U4-VDDCORE)*%
X150249421Y-77094782D02*
X150500000Y-77345361D01*
X150500000Y-77345361D02*
X150500000Y-78837500D01*
%TO.N,+3.3V*%
X150298776Y-76182500D02*
X150249421Y-76133145D01*
X151250000Y-76182500D02*
X150298776Y-76182500D01*
%TO.N,SWCLK*%
X149500000Y-79637740D02*
X149500000Y-78837500D01*
X148450000Y-80687740D02*
X149500000Y-79637740D01*
X148450000Y-82142634D02*
X148450000Y-80687740D01*
X148696470Y-82389104D02*
X148450000Y-82142634D01*
%TO.N,+3.3V*%
X151250000Y-76182500D02*
X151250000Y-75250000D01*
X151250000Y-76182500D02*
X152357903Y-76182500D01*
X152357903Y-76182500D02*
X153472171Y-77296768D01*
%TO.N,Earth*%
X151000000Y-77567500D02*
X151250000Y-77317500D01*
X151000000Y-78837500D02*
X151000000Y-77567500D01*
%TO.N,nRST*%
X152000000Y-77573939D02*
X152277171Y-77296768D01*
X152000000Y-78837500D02*
X152000000Y-77573939D01*
%TO.N,+3.3V*%
X148646023Y-106378977D02*
X147750000Y-107275000D01*
X148646023Y-106273570D02*
X148646023Y-106378977D01*
%TO.N,Earth*%
X145750000Y-100573336D02*
X145750000Y-101500000D01*
X145745110Y-100568446D02*
X145750000Y-100573336D01*
X145750000Y-99537500D02*
X145750000Y-100563556D01*
X145750000Y-100563556D02*
X145745110Y-100568446D01*
X147750000Y-101500000D02*
X145750000Y-101500000D01*
X145712500Y-99500000D02*
X145750000Y-99537500D01*
%TO.N,Net-(U6-VAUX)*%
X155987500Y-68280000D02*
X154635000Y-68280000D01*
X156895000Y-69187500D02*
X155987500Y-68280000D01*
%TO.N,ERROR*%
X152855075Y-95019925D02*
X152855075Y-94998402D01*
X152640316Y-97506476D02*
X152640316Y-95234684D01*
X152000354Y-98146438D02*
X152640316Y-97506476D01*
X152640316Y-95234684D02*
X152855075Y-95019925D01*
X152000354Y-98225000D02*
X152000354Y-98146438D01*
%TO.N,Earth*%
X145712500Y-99500000D02*
X145712500Y-97500000D01*
D57*
X145575000Y-95396870D02*
X145375696Y-95596174D01*
X145575000Y-93296174D02*
X145575000Y-95396870D01*
D56*
%TO.N,+3.3V*%
X143210000Y-90250000D02*
X142250000Y-89290000D01*
X144850000Y-90250000D02*
X143210000Y-90250000D01*
X147275696Y-92675696D02*
X144850000Y-90250000D01*
X147275696Y-93296174D02*
X147275696Y-92675696D01*
D57*
%TO.N,Earth*%
X145375696Y-95596174D02*
X145375696Y-93296174D01*
D56*
%TO.N,BATT_SENSE*%
X147324999Y-81250000D02*
X146587500Y-81250000D01*
X147550000Y-81024999D02*
X147324999Y-81250000D01*
X147550000Y-76050000D02*
X147550000Y-81024999D01*
%TO.N,+3.3V*%
X145850000Y-77125000D02*
X145850000Y-78950000D01*
D57*
%TO.N,+BATT*%
X142792869Y-62953719D02*
X145415249Y-62953719D01*
X142294431Y-63452157D02*
X142792869Y-62953719D01*
%TO.N,BST_IN*%
X146532500Y-65370970D02*
X146532500Y-67967500D01*
X145415249Y-64253719D02*
X146532500Y-65370970D01*
%TO.N,+BATT*%
X142750085Y-67500085D02*
X143949224Y-67500085D01*
X142250000Y-67000000D02*
X142750085Y-67500085D01*
X142294431Y-63452157D02*
X142250000Y-63496588D01*
X142250000Y-63496588D02*
X142250000Y-67000000D01*
D56*
%TO.N,Earth*%
X153950000Y-79550000D02*
X154250000Y-79250000D01*
X154912500Y-80750000D02*
X154175001Y-80750000D01*
D58*
X151007197Y-85917247D02*
X150982396Y-85917247D01*
X150500000Y-86399642D02*
X150500000Y-87162500D01*
X151338438Y-84795769D02*
X151338438Y-85586006D01*
X150982396Y-85917247D02*
X150500000Y-86399642D01*
X151338438Y-85586006D02*
X151007197Y-85917247D01*
D56*
X153950000Y-80524999D02*
X153950000Y-79550000D01*
X154175001Y-80750000D02*
X153950000Y-80524999D01*
D58*
%TO.N,Net-(AE2-RF)*%
X153911023Y-102838977D02*
X153911023Y-104665790D01*
X156000000Y-102043750D02*
X154706250Y-102043750D01*
X154706250Y-102043750D02*
X153911023Y-102838977D01*
D57*
%TO.N,BST_IN*%
X145500000Y-69000000D02*
X144049526Y-70450474D01*
D56*
X152620000Y-71230000D02*
X152600000Y-71250000D01*
X152190000Y-71250000D02*
X151410000Y-70470000D01*
D57*
X146532500Y-67967500D02*
X145500000Y-69000000D01*
D56*
X151410000Y-69982500D02*
X150395000Y-68967500D01*
X152635000Y-71230000D02*
X153135000Y-71230000D01*
X151410000Y-70470000D02*
X151410000Y-69982500D01*
X152600000Y-71250000D02*
X152190000Y-71250000D01*
%TO.N,+3.3V*%
X154459160Y-78079760D02*
X155000000Y-78620600D01*
X152762650Y-88978107D02*
X153212130Y-88978107D01*
X150233148Y-85258148D02*
X150233148Y-86065454D01*
X152500000Y-89240757D02*
X152762650Y-88978107D01*
X155000000Y-78620600D02*
X155000000Y-80162500D01*
X150000000Y-86298602D02*
X150000000Y-87162500D01*
X152500000Y-90062500D02*
X152500000Y-89240757D01*
X150233148Y-86065454D02*
X150000000Y-86298602D01*
X153212130Y-88978107D02*
X153500000Y-89265977D01*
X155000000Y-80162500D02*
X154912500Y-80250000D01*
X153500000Y-89265977D02*
X153500000Y-90062500D01*
%TO.N,GPIO0*%
X152375000Y-88125000D02*
X152701344Y-88125000D01*
X152000000Y-90062500D02*
X152000000Y-88500000D01*
X152701344Y-88125000D02*
X153000000Y-87826344D01*
X153000000Y-87826344D02*
X153000000Y-87162500D01*
X152000000Y-88500000D02*
X152375000Y-88125000D01*
%TO.N,GPIO1*%
X148176166Y-90614348D02*
X148728014Y-90062500D01*
X148728014Y-90062500D02*
X151500000Y-90062500D01*
X148201344Y-88125000D02*
X148500000Y-87826344D01*
X147413172Y-88125000D02*
X148201344Y-88125000D01*
X147175825Y-87887653D02*
X147413172Y-88125000D01*
X148500000Y-87826344D02*
X148500000Y-87162500D01*
X146637653Y-87887653D02*
X147175825Y-87887653D01*
%TO.N,MISO*%
X152257005Y-85191040D02*
X152257005Y-86241651D01*
X152257005Y-86241651D02*
X152000000Y-86498656D01*
X152000000Y-86498656D02*
X152000000Y-87162500D01*
%TO.N,RF_SS*%
X150549890Y-93679485D02*
X150549890Y-93012610D01*
X153798960Y-84682384D02*
X153866576Y-84750000D01*
X153866576Y-84750000D02*
X154912500Y-84750000D01*
X150549890Y-93012610D02*
X150562500Y-93000000D01*
%TO.N,SDA*%
X157000000Y-83000000D02*
X156750000Y-82750000D01*
X156750000Y-82750000D02*
X154912500Y-82750000D01*
%TO.N,SCL*%
X155875000Y-80375000D02*
X157000000Y-79250000D01*
X155649999Y-82250000D02*
X155875000Y-82024999D01*
X154912500Y-82250000D02*
X155649999Y-82250000D01*
X155875000Y-82024999D02*
X155875000Y-80375000D01*
%TO.N,SWDIO*%
X147822340Y-82365380D02*
X148000000Y-82187720D01*
X147822340Y-82874802D02*
X147822340Y-82365380D01*
X148000000Y-82187720D02*
X148000000Y-80501344D01*
X148000000Y-80501344D02*
X149000000Y-79501344D01*
X149000000Y-79501344D02*
X149000000Y-78837500D01*
%TO.N,nRST*%
X152000000Y-79501344D02*
X152000000Y-78837500D01*
X151701344Y-79800000D02*
X152000000Y-79501344D01*
X150100000Y-80650000D02*
X150950000Y-79800000D01*
X150100000Y-82246996D02*
X150100000Y-80650000D01*
X148449847Y-83897149D02*
X150100000Y-82246996D01*
X150950000Y-79800000D02*
X151701344Y-79800000D01*
X147820789Y-83897149D02*
X148449847Y-83897149D01*
%TO.N,D-*%
X154200137Y-81798519D02*
X154248656Y-81750000D01*
X154248656Y-81750000D02*
X154912500Y-81750000D01*
X153449585Y-81798519D02*
X154200137Y-81798519D01*
%TO.N,SUCCESS*%
X145125000Y-88375000D02*
X146337500Y-87162500D01*
X146337500Y-87162500D02*
X148000000Y-87162500D01*
X145125000Y-88750000D02*
X145125000Y-88375000D01*
X144725178Y-106221176D02*
X144725178Y-106299822D01*
X144725178Y-106299822D02*
X143750000Y-107275000D01*
%TO.N,ERROR*%
X152855075Y-94998402D02*
X152856673Y-95000000D01*
X154777739Y-88440239D02*
X153500000Y-87162500D01*
X154777739Y-89928107D02*
X154777739Y-88440239D01*
X152856673Y-95000000D02*
X152875000Y-95000000D01*
%TO.N,SDN*%
X154382819Y-86279681D02*
X154912500Y-85750000D01*
X154382819Y-86357513D02*
X154382819Y-86279681D01*
%TO.N,D13*%
X154256649Y-85250000D02*
X154912500Y-85250000D01*
X154099265Y-85407384D02*
X154256649Y-85250000D01*
X152750000Y-83275000D02*
X152750000Y-84658729D01*
X153498655Y-85407384D02*
X154099265Y-85407384D01*
X152750000Y-84658729D02*
X153498655Y-85407384D01*
X152299750Y-82824750D02*
X152750000Y-83275000D01*
%TO.N,Net-(C22-Pad1)*%
X155895000Y-95221250D02*
X156000000Y-95326250D01*
X154907500Y-95221250D02*
X155895000Y-95221250D01*
X156000000Y-95326250D02*
X156000000Y-94471250D01*
X156000000Y-95826250D02*
X156000000Y-95326250D01*
%TO.N,Net-(C19-Pad2)*%
X156000000Y-93326250D02*
X156000000Y-92038750D01*
%TO.N,Net-(C25-Pad1)*%
X154817500Y-97721250D02*
X155855000Y-97721250D01*
X156000000Y-97576250D02*
X156000000Y-96971250D01*
X156000000Y-98326250D02*
X156000000Y-97576250D01*
X155855000Y-97721250D02*
X156000000Y-97576250D01*
%TO.N,Net-(C27-Pad1)*%
X154907500Y-100221250D02*
X155895000Y-100221250D01*
X155895000Y-100221250D02*
X156000000Y-100326250D01*
X156000000Y-100898750D02*
X156000000Y-100326250D01*
X156000000Y-100326250D02*
X156000000Y-99471250D01*
%TO.N,Net-(U6-L)*%
X153145000Y-67255000D02*
X153635000Y-67745000D01*
X153635000Y-67745000D02*
X153635000Y-68280000D01*
D57*
X151895000Y-66005000D02*
X153145000Y-67255000D01*
%TO.N,Net-(D1-K)*%
X143750000Y-105225000D02*
X142025000Y-105225000D01*
%TO.N,Net-(D2-K)*%
X145750000Y-105225000D02*
X145750000Y-103500000D01*
%TO.N,Net-(D3-K)*%
X147750000Y-105225000D02*
X147750000Y-103500000D01*
D56*
%TO.N,TXD*%
X151524999Y-80975000D02*
X151000000Y-81499999D01*
X151749999Y-80975000D02*
X151524999Y-80975000D01*
X151000000Y-81499999D02*
X151000000Y-82829594D01*
X149000000Y-84829594D02*
X149000000Y-87162500D01*
X151000000Y-82829594D02*
X149000000Y-84829594D01*
%TO.N,RXD*%
X152743299Y-81090588D02*
X152743299Y-81174180D01*
X149500000Y-84965990D02*
X149500000Y-87162500D01*
X151500000Y-82965990D02*
X149500000Y-84965990D01*
X152743299Y-81174180D02*
X151500000Y-82417479D01*
X151500000Y-82417479D02*
X151500000Y-82965990D01*
%TD*%
%TA.AperFunction,Conductor*%
%TO.N,BST_IN*%
G36*
X150943039Y-62769685D02*
G01*
X150988794Y-62822489D01*
X151000000Y-62874000D01*
X151000000Y-67750000D01*
X152626000Y-67750000D01*
X152693039Y-67769685D01*
X152738794Y-67822489D01*
X152750000Y-67874000D01*
X152750000Y-68126000D01*
X152730315Y-68193039D01*
X152677511Y-68238794D01*
X152626000Y-68250000D01*
X151750000Y-68250000D01*
X150787230Y-69453462D01*
X150729979Y-69493514D01*
X150690402Y-69500000D01*
X147624000Y-69500000D01*
X147556961Y-69480315D01*
X147511206Y-69427511D01*
X147500000Y-69376000D01*
X147500000Y-62874000D01*
X147519685Y-62806961D01*
X147572489Y-62761206D01*
X147624000Y-62750000D01*
X150876000Y-62750000D01*
X150943039Y-62769685D01*
G37*
%TD.AperFunction*%
%TD*%
%TA.AperFunction,Conductor*%
%TO.N,Earth*%
G36*
X162943031Y-48269685D02*
G01*
X162988786Y-48322489D01*
X162999992Y-48374003D01*
X162998712Y-107805093D01*
X162979026Y-107872132D01*
X162926221Y-107917885D01*
X162874699Y-107929090D01*
X158491577Y-107928630D01*
X158424540Y-107908938D01*
X158378790Y-107856130D01*
X158368232Y-107792027D01*
X158376022Y-107715776D01*
X158376022Y-107269342D01*
X157337082Y-106230402D01*
X157357614Y-106224901D01*
X157494431Y-106145909D01*
X157606142Y-106034198D01*
X157685134Y-105897381D01*
X157690635Y-105876849D01*
X158376021Y-106562236D01*
X158376022Y-106562235D01*
X158376022Y-105725787D01*
X158376494Y-105714978D01*
X158380798Y-105665790D01*
X158380798Y-105665789D01*
X158376494Y-105616600D01*
X158376022Y-105605792D01*
X158376022Y-104769344D01*
X158376021Y-104769343D01*
X157690635Y-105454729D01*
X157685134Y-105434199D01*
X157606142Y-105297382D01*
X157494431Y-105185671D01*
X157357614Y-105106679D01*
X157337082Y-105101177D01*
X158376021Y-104062238D01*
X158376022Y-104062237D01*
X158376022Y-103615818D01*
X158376021Y-103615803D01*
X158365528Y-103513092D01*
X158310381Y-103346670D01*
X158310379Y-103346665D01*
X158218338Y-103197444D01*
X158094368Y-103073474D01*
X157945147Y-102981433D01*
X157945142Y-102981431D01*
X157778720Y-102926284D01*
X157778713Y-102926283D01*
X157676003Y-102915790D01*
X156576051Y-102915790D01*
X156576035Y-102915791D01*
X156473325Y-102926284D01*
X156306903Y-102981431D01*
X156306898Y-102981433D01*
X156157677Y-103073474D01*
X156033707Y-103197444D01*
X155941666Y-103346665D01*
X155941664Y-103346670D01*
X155886517Y-103513092D01*
X155886516Y-103513099D01*
X155876023Y-103615803D01*
X155876023Y-104062237D01*
X156914963Y-105101177D01*
X156894432Y-105106679D01*
X156757615Y-105185671D01*
X156645904Y-105297382D01*
X156566912Y-105434199D01*
X156561410Y-105454729D01*
X155876023Y-104769342D01*
X155876023Y-105605795D01*
X155875551Y-105616602D01*
X155871248Y-105665788D01*
X155871248Y-105665792D01*
X155875551Y-105714976D01*
X155876023Y-105725783D01*
X155876023Y-106562236D01*
X156561410Y-105876849D01*
X156566912Y-105897381D01*
X156645904Y-106034198D01*
X156757615Y-106145909D01*
X156894432Y-106224901D01*
X156914963Y-106230402D01*
X155876023Y-107269341D01*
X155876023Y-107715761D01*
X155876025Y-107715781D01*
X155883784Y-107791742D01*
X155871014Y-107860434D01*
X155823133Y-107911318D01*
X155760413Y-107928342D01*
X155228579Y-107928286D01*
X155161542Y-107908594D01*
X155115792Y-107855786D01*
X155105101Y-107793063D01*
X155105107Y-107792990D01*
X155105109Y-107792986D01*
X155111523Y-107722406D01*
X155111523Y-105727024D01*
X155112052Y-105715583D01*
X155116666Y-105665790D01*
X155116666Y-105665789D01*
X155112052Y-105615995D01*
X155111523Y-105604554D01*
X155111523Y-102468250D01*
X155131208Y-102401211D01*
X155184012Y-102355456D01*
X155235523Y-102344250D01*
X155399454Y-102344250D01*
X155466493Y-102363935D01*
X155510854Y-102413789D01*
X155520209Y-102432925D01*
X155542551Y-102478626D01*
X155627624Y-102563699D01*
X155627627Y-102563701D01*
X155731201Y-102614334D01*
X155735714Y-102616541D01*
X155805785Y-102626750D01*
X156194214Y-102626749D01*
X156264286Y-102616541D01*
X156264290Y-102616539D01*
X156264291Y-102616539D01*
X156372372Y-102563701D01*
X156372375Y-102563699D01*
X156457449Y-102478625D01*
X156457451Y-102478622D01*
X156504955Y-102381450D01*
X156510291Y-102370536D01*
X156520500Y-102300465D01*
X156520499Y-101787036D01*
X156510291Y-101716964D01*
X156510289Y-101716959D01*
X156510289Y-101716958D01*
X156457451Y-101608877D01*
X156457449Y-101608874D01*
X156407506Y-101558931D01*
X156374021Y-101497608D01*
X156379005Y-101427916D01*
X156407506Y-101383569D01*
X156457449Y-101333625D01*
X156457451Y-101333622D01*
X156483870Y-101279580D01*
X156510291Y-101225536D01*
X156520500Y-101155465D01*
X156520499Y-100642036D01*
X156510291Y-100571964D01*
X156510289Y-100571959D01*
X156510289Y-100571958D01*
X156457451Y-100463877D01*
X156416441Y-100422867D01*
X156372375Y-100378801D01*
X156372373Y-100378800D01*
X156365110Y-100371537D01*
X156367237Y-100369409D01*
X156334322Y-100327441D01*
X156325500Y-100281505D01*
X156325500Y-100088495D01*
X156345185Y-100021456D01*
X156366119Y-99999474D01*
X156365110Y-99998465D01*
X156457449Y-99906125D01*
X156457451Y-99906122D01*
X156509086Y-99800500D01*
X156510291Y-99798036D01*
X156517290Y-99750000D01*
X158144318Y-99750000D01*
X158164955Y-99906760D01*
X158164956Y-99906762D01*
X158218604Y-100036281D01*
X158225464Y-100052841D01*
X158321718Y-100178282D01*
X158447159Y-100274536D01*
X158593238Y-100335044D01*
X158642028Y-100341467D01*
X158705925Y-100369733D01*
X158744396Y-100428057D01*
X158749843Y-100464406D01*
X158749843Y-107672867D01*
X159249843Y-107672867D01*
X159249843Y-104084999D01*
X159927471Y-104084999D01*
X159927472Y-104085000D01*
X160566988Y-104085000D01*
X160534075Y-104142007D01*
X160500000Y-104269174D01*
X160500000Y-104400826D01*
X160534075Y-104527993D01*
X160566988Y-104585000D01*
X159927472Y-104585000D01*
X159969885Y-104734065D01*
X159969890Y-104734078D01*
X160060754Y-104916556D01*
X160183608Y-105079242D01*
X160334260Y-105216578D01*
X160507584Y-105323897D01*
X160697678Y-105397539D01*
X160750000Y-105407320D01*
X160750000Y-104768012D01*
X160807007Y-104800925D01*
X160934174Y-104835000D01*
X161065826Y-104835000D01*
X161192993Y-104800925D01*
X161250000Y-104768012D01*
X161250000Y-105407320D01*
X161302321Y-105397539D01*
X161492415Y-105323897D01*
X161665739Y-105216578D01*
X161816391Y-105079242D01*
X161939245Y-104916556D01*
X162030109Y-104734078D01*
X162030114Y-104734065D01*
X162072528Y-104585000D01*
X161433012Y-104585000D01*
X161465925Y-104527993D01*
X161500000Y-104400826D01*
X161500000Y-104269174D01*
X161465925Y-104142007D01*
X161433012Y-104085000D01*
X162072528Y-104085000D01*
X162072528Y-104084999D01*
X162030114Y-103935934D01*
X162030109Y-103935921D01*
X161939245Y-103753443D01*
X161816391Y-103590757D01*
X161665739Y-103453421D01*
X161492413Y-103346101D01*
X161302315Y-103272458D01*
X161302309Y-103272456D01*
X161250001Y-103262677D01*
X161250000Y-103262679D01*
X161250000Y-103901988D01*
X161192993Y-103869075D01*
X161065826Y-103835000D01*
X160934174Y-103835000D01*
X160807007Y-103869075D01*
X160750000Y-103901988D01*
X160750000Y-103262679D01*
X160749998Y-103262677D01*
X160697690Y-103272456D01*
X160697684Y-103272458D01*
X160507586Y-103346101D01*
X160334260Y-103453421D01*
X160183608Y-103590757D01*
X160060754Y-103753443D01*
X159969890Y-103935921D01*
X159969885Y-103935934D01*
X159927471Y-104084999D01*
X159249843Y-104084999D01*
X159249843Y-101795000D01*
X159944417Y-101795000D01*
X159964699Y-102000932D01*
X159964700Y-102000934D01*
X160024768Y-102198954D01*
X160122315Y-102381450D01*
X160148856Y-102413790D01*
X160253589Y-102541410D01*
X160345135Y-102616539D01*
X160413550Y-102672685D01*
X160596046Y-102770232D01*
X160794066Y-102830300D01*
X160794065Y-102830300D01*
X160812529Y-102832118D01*
X161000000Y-102850583D01*
X161205934Y-102830300D01*
X161403954Y-102770232D01*
X161586450Y-102672685D01*
X161746410Y-102541410D01*
X161877685Y-102381450D01*
X161975232Y-102198954D01*
X162035300Y-102000934D01*
X162055583Y-101795000D01*
X162035300Y-101589066D01*
X161975232Y-101391046D01*
X161877685Y-101208550D01*
X161789801Y-101101462D01*
X161746410Y-101048589D01*
X161620922Y-100945605D01*
X161586450Y-100917315D01*
X161403954Y-100819768D01*
X161205934Y-100759700D01*
X161205932Y-100759699D01*
X161205934Y-100759699D01*
X161000000Y-100739417D01*
X160794067Y-100759699D01*
X160596043Y-100819769D01*
X160527810Y-100856241D01*
X160413550Y-100917315D01*
X160413548Y-100917316D01*
X160413547Y-100917317D01*
X160253589Y-101048589D01*
X160165880Y-101155465D01*
X160122315Y-101208550D01*
X160109347Y-101232812D01*
X160024769Y-101391043D01*
X159964699Y-101589067D01*
X159944417Y-101795000D01*
X159249843Y-101795000D01*
X159249843Y-100422867D01*
X159224824Y-100422867D01*
X159157785Y-100403182D01*
X159112030Y-100350378D01*
X159102086Y-100281220D01*
X159131111Y-100217664D01*
X159149335Y-100200493D01*
X159178282Y-100178282D01*
X159274536Y-100052841D01*
X159335044Y-99906762D01*
X159355682Y-99750000D01*
X159354227Y-99738950D01*
X159364989Y-99669917D01*
X159389481Y-99635083D01*
X159743355Y-99281209D01*
X159804676Y-99247726D01*
X159874368Y-99252710D01*
X159930301Y-99294582D01*
X159954437Y-99356737D01*
X159964699Y-99460932D01*
X159988441Y-99539198D01*
X160024768Y-99658954D01*
X160122315Y-99841450D01*
X160122317Y-99841452D01*
X160253589Y-100001410D01*
X160325035Y-100060043D01*
X160413550Y-100132685D01*
X160596046Y-100230232D01*
X160794066Y-100290300D01*
X160794065Y-100290300D01*
X160812529Y-100292118D01*
X161000000Y-100310583D01*
X161205934Y-100290300D01*
X161403954Y-100230232D01*
X161586450Y-100132685D01*
X161746410Y-100001410D01*
X161877685Y-99841450D01*
X161975232Y-99658954D01*
X162035300Y-99460934D01*
X162055583Y-99255000D01*
X162035300Y-99049066D01*
X161975232Y-98851046D01*
X161877685Y-98668550D01*
X161784281Y-98554736D01*
X161746410Y-98508589D01*
X161604435Y-98392075D01*
X161586450Y-98377315D01*
X161403954Y-98279768D01*
X161276854Y-98241213D01*
X161205932Y-98219699D01*
X161101738Y-98209437D01*
X161036951Y-98183276D01*
X160996593Y-98126241D01*
X160993476Y-98056441D01*
X161026210Y-97998355D01*
X161260465Y-97764101D01*
X161260466Y-97764098D01*
X161265411Y-97757655D01*
X161267902Y-97759566D01*
X161307697Y-97721573D01*
X161328585Y-97713093D01*
X161403954Y-97690232D01*
X161586450Y-97592685D01*
X161746410Y-97461410D01*
X161877685Y-97301450D01*
X161975232Y-97118954D01*
X162035300Y-96920934D01*
X162055583Y-96715000D01*
X162035300Y-96509066D01*
X161975232Y-96311046D01*
X161877685Y-96128550D01*
X161782715Y-96012828D01*
X161746410Y-95968589D01*
X161586452Y-95837317D01*
X161586453Y-95837317D01*
X161586450Y-95837315D01*
X161403954Y-95739768D01*
X161205934Y-95679700D01*
X161205932Y-95679699D01*
X161205934Y-95679699D01*
X161000000Y-95659417D01*
X160794067Y-95679699D01*
X160596043Y-95739769D01*
X160528757Y-95775735D01*
X160413550Y-95837315D01*
X160413548Y-95837316D01*
X160413547Y-95837317D01*
X160253589Y-95968589D01*
X160159725Y-96082965D01*
X160122315Y-96128550D01*
X160109224Y-96153041D01*
X160024769Y-96311043D01*
X159964699Y-96509067D01*
X159944417Y-96715000D01*
X159964699Y-96920932D01*
X159964700Y-96920934D01*
X160024768Y-97118954D01*
X160122315Y-97301450D01*
X160137113Y-97319481D01*
X160253589Y-97461410D01*
X160361439Y-97549919D01*
X160400774Y-97607665D01*
X160402645Y-97677510D01*
X160370456Y-97733454D01*
X158978449Y-99125461D01*
X158917126Y-99158946D01*
X158874583Y-99160719D01*
X158750001Y-99144318D01*
X158749999Y-99144318D01*
X158593239Y-99164955D01*
X158593237Y-99164956D01*
X158447160Y-99225463D01*
X158321718Y-99321718D01*
X158225463Y-99447160D01*
X158164956Y-99593237D01*
X158164955Y-99593239D01*
X158144318Y-99749998D01*
X158144318Y-99750000D01*
X156517290Y-99750000D01*
X156520500Y-99727965D01*
X156520499Y-99214536D01*
X156510291Y-99144464D01*
X156510289Y-99144459D01*
X156510289Y-99144458D01*
X156457451Y-99036377D01*
X156457449Y-99036374D01*
X156407506Y-98986431D01*
X156374021Y-98925108D01*
X156379005Y-98855416D01*
X156407506Y-98811069D01*
X156457449Y-98761125D01*
X156457451Y-98761122D01*
X156486934Y-98700813D01*
X156510291Y-98653036D01*
X156520500Y-98582965D01*
X156520499Y-98069536D01*
X156510291Y-97999464D01*
X156510289Y-97999459D01*
X156510289Y-97999458D01*
X156457451Y-97891377D01*
X156429968Y-97863894D01*
X156372375Y-97806301D01*
X156372373Y-97806300D01*
X156365110Y-97799037D01*
X156367237Y-97796909D01*
X156334322Y-97754941D01*
X156325500Y-97709005D01*
X156325500Y-97588495D01*
X156345185Y-97521456D01*
X156366119Y-97499474D01*
X156365110Y-97498465D01*
X156457449Y-97406125D01*
X156457451Y-97406122D01*
X156497445Y-97324313D01*
X156510291Y-97298036D01*
X156520500Y-97227965D01*
X156520499Y-96714536D01*
X156510291Y-96644464D01*
X156510289Y-96644459D01*
X156510289Y-96644458D01*
X156457451Y-96536377D01*
X156457449Y-96536374D01*
X156407506Y-96486431D01*
X156374021Y-96425108D01*
X156379005Y-96355416D01*
X156407506Y-96311069D01*
X156457449Y-96261125D01*
X156457451Y-96261122D01*
X156483870Y-96207080D01*
X156510291Y-96153036D01*
X156520500Y-96082965D01*
X156520499Y-95569536D01*
X156510291Y-95499464D01*
X156510289Y-95499459D01*
X156510289Y-95499458D01*
X156457451Y-95391377D01*
X156438405Y-95372331D01*
X156372375Y-95306301D01*
X156372373Y-95306300D01*
X156365110Y-95299037D01*
X156367237Y-95296909D01*
X156334322Y-95254941D01*
X156325500Y-95209005D01*
X156325500Y-95088495D01*
X156345185Y-95021456D01*
X156366119Y-94999474D01*
X156365110Y-94998465D01*
X156457449Y-94906125D01*
X156457451Y-94906122D01*
X156494544Y-94830247D01*
X156510291Y-94798036D01*
X156520500Y-94727965D01*
X156520499Y-94214536D01*
X156510291Y-94144464D01*
X156510289Y-94144459D01*
X156510289Y-94144458D01*
X156457451Y-94036377D01*
X156457449Y-94036374D01*
X156407506Y-93986431D01*
X156374021Y-93925108D01*
X156379005Y-93855416D01*
X156407506Y-93811069D01*
X156457449Y-93761125D01*
X156457451Y-93761122D01*
X156494490Y-93685357D01*
X156510291Y-93653036D01*
X156520500Y-93582965D01*
X156520499Y-93069536D01*
X156510291Y-92999464D01*
X156510289Y-92999459D01*
X156510289Y-92999458D01*
X156457451Y-92891377D01*
X156430026Y-92863952D01*
X156372375Y-92806301D01*
X156372373Y-92806300D01*
X156365110Y-92799037D01*
X156367237Y-92796909D01*
X156334322Y-92754941D01*
X156325500Y-92709005D01*
X156325500Y-92634866D01*
X156345185Y-92567827D01*
X156361819Y-92547185D01*
X156389104Y-92519900D01*
X156450427Y-92486415D01*
X156520119Y-92491399D01*
X156564466Y-92519900D01*
X156624796Y-92580230D01*
X156624805Y-92580237D01*
X156739102Y-92638475D01*
X156739108Y-92638477D01*
X156770822Y-92643499D01*
X156770822Y-92285999D01*
X157270822Y-92285999D01*
X157270822Y-92643498D01*
X157302535Y-92638477D01*
X157302541Y-92638475D01*
X157416838Y-92580237D01*
X157416847Y-92580230D01*
X157507553Y-92489524D01*
X157507556Y-92489519D01*
X157565802Y-92375208D01*
X157579931Y-92285999D01*
X157270822Y-92285999D01*
X156770822Y-92285999D01*
X156770822Y-91909999D01*
X156790507Y-91842960D01*
X156843311Y-91797205D01*
X156894822Y-91785999D01*
X157579931Y-91785999D01*
X157565802Y-91696789D01*
X157507556Y-91582478D01*
X157507553Y-91582473D01*
X157446258Y-91521178D01*
X157412773Y-91459855D01*
X157417757Y-91390163D01*
X157446257Y-91345816D01*
X157469146Y-91322928D01*
X157521255Y-91216339D01*
X157531322Y-91147241D01*
X157531322Y-90654757D01*
X157521255Y-90585659D01*
X157517899Y-90578795D01*
X157473267Y-90487499D01*
X157461507Y-90418626D01*
X157488850Y-90354329D01*
X157517127Y-90331981D01*
X157516034Y-90330450D01*
X157524397Y-90324478D01*
X157609471Y-90239404D01*
X157609473Y-90239401D01*
X157635892Y-90185359D01*
X157662313Y-90131315D01*
X157672522Y-90061244D01*
X157672521Y-89672815D01*
X157662313Y-89602743D01*
X157662311Y-89602738D01*
X157662311Y-89602737D01*
X157609473Y-89494656D01*
X157609471Y-89494653D01*
X157560317Y-89445499D01*
X157526832Y-89384176D01*
X157531816Y-89314484D01*
X157572512Y-89259442D01*
X157587844Y-89247677D01*
X157678282Y-89178282D01*
X157774536Y-89052841D01*
X157835044Y-88906762D01*
X157854993Y-88755232D01*
X157855682Y-88750001D01*
X157855682Y-88749998D01*
X157835044Y-88593239D01*
X157835044Y-88593238D01*
X157774536Y-88447159D01*
X157678282Y-88321718D01*
X157652224Y-88301723D01*
X157611022Y-88245296D01*
X157606867Y-88175550D01*
X157641079Y-88114630D01*
X157654068Y-88103585D01*
X157725711Y-88050711D01*
X157804116Y-87944475D01*
X157847725Y-87819849D01*
X157849633Y-87799500D01*
X157850500Y-87790260D01*
X157850500Y-87209739D01*
X157847725Y-87180150D01*
X157804115Y-87055523D01*
X157725711Y-86949289D01*
X157725710Y-86949288D01*
X157619476Y-86870884D01*
X157494848Y-86827274D01*
X157494849Y-86827274D01*
X157465260Y-86824500D01*
X157465256Y-86824500D01*
X157449500Y-86824500D01*
X157382461Y-86804815D01*
X157336706Y-86752011D01*
X157325500Y-86700500D01*
X157325500Y-86634506D01*
X157345185Y-86567467D01*
X157397989Y-86521712D01*
X157467147Y-86511768D01*
X157496952Y-86519944D01*
X157593391Y-86559891D01*
X157650937Y-86567467D01*
X157750152Y-86580529D01*
X157750153Y-86580529D01*
X157750154Y-86580529D01*
X157802407Y-86573649D01*
X157906915Y-86559891D01*
X158052994Y-86499383D01*
X158178435Y-86403129D01*
X158274689Y-86277688D01*
X158335197Y-86131609D01*
X158355835Y-85974847D01*
X158350013Y-85930627D01*
X158337711Y-85837180D01*
X158335197Y-85818085D01*
X158274689Y-85672006D01*
X158178435Y-85546565D01*
X158178433Y-85546564D01*
X158178433Y-85546563D01*
X158174008Y-85543168D01*
X158142491Y-85500000D01*
X158750000Y-85500000D01*
X158750000Y-98000000D01*
X159250000Y-98000000D01*
X159250000Y-95044752D01*
X159949500Y-95044752D01*
X159961131Y-95103229D01*
X159961132Y-95103230D01*
X160005447Y-95169552D01*
X160071769Y-95213867D01*
X160071770Y-95213868D01*
X160130247Y-95225499D01*
X160130250Y-95225500D01*
X160130252Y-95225500D01*
X161869750Y-95225500D01*
X161869751Y-95225499D01*
X161884568Y-95222552D01*
X161928229Y-95213868D01*
X161928229Y-95213867D01*
X161928231Y-95213867D01*
X161994552Y-95169552D01*
X162038867Y-95103231D01*
X162038867Y-95103229D01*
X162038868Y-95103229D01*
X162050499Y-95044752D01*
X162050500Y-95044750D01*
X162050500Y-93305249D01*
X162050499Y-93305247D01*
X162038868Y-93246770D01*
X162038867Y-93246769D01*
X161994552Y-93180447D01*
X161928230Y-93136132D01*
X161928229Y-93136131D01*
X161869752Y-93124500D01*
X161869748Y-93124500D01*
X160130252Y-93124500D01*
X160130247Y-93124500D01*
X160071770Y-93136131D01*
X160071769Y-93136132D01*
X160005447Y-93180447D01*
X159961132Y-93246769D01*
X159961131Y-93246770D01*
X159949500Y-93305247D01*
X159949500Y-95044752D01*
X159250000Y-95044752D01*
X159250000Y-90069999D01*
X159927471Y-90069999D01*
X159927472Y-90070000D01*
X160566988Y-90070000D01*
X160534075Y-90127007D01*
X160500000Y-90254174D01*
X160500000Y-90385826D01*
X160534075Y-90512993D01*
X160566988Y-90570000D01*
X159927472Y-90570000D01*
X159969885Y-90719065D01*
X159969890Y-90719078D01*
X160060754Y-90901556D01*
X160183608Y-91064242D01*
X160334260Y-91201578D01*
X160507584Y-91308897D01*
X160697678Y-91382539D01*
X160750000Y-91392320D01*
X160750000Y-90753012D01*
X160807007Y-90785925D01*
X160934174Y-90820000D01*
X161065826Y-90820000D01*
X161192993Y-90785925D01*
X161250000Y-90753012D01*
X161250000Y-91392320D01*
X161302321Y-91382539D01*
X161492415Y-91308897D01*
X161665739Y-91201578D01*
X161816391Y-91064242D01*
X161939245Y-90901556D01*
X162030109Y-90719078D01*
X162030114Y-90719065D01*
X162072528Y-90570000D01*
X161433012Y-90570000D01*
X161465925Y-90512993D01*
X161500000Y-90385826D01*
X161500000Y-90254174D01*
X161465925Y-90127007D01*
X161433012Y-90070000D01*
X162072528Y-90070000D01*
X162072528Y-90069999D01*
X162030114Y-89920934D01*
X162030109Y-89920921D01*
X161939245Y-89738443D01*
X161816391Y-89575757D01*
X161665739Y-89438421D01*
X161492413Y-89331101D01*
X161302315Y-89257458D01*
X161302309Y-89257456D01*
X161250001Y-89247677D01*
X161250000Y-89247679D01*
X161250000Y-89886988D01*
X161192993Y-89854075D01*
X161065826Y-89820000D01*
X160934174Y-89820000D01*
X160807007Y-89854075D01*
X160750000Y-89886988D01*
X160750000Y-89247679D01*
X160749998Y-89247677D01*
X160697690Y-89257456D01*
X160697684Y-89257458D01*
X160507586Y-89331101D01*
X160334260Y-89438421D01*
X160183608Y-89575757D01*
X160060754Y-89738443D01*
X159969890Y-89920921D01*
X159969885Y-89920934D01*
X159927471Y-90069999D01*
X159250000Y-90069999D01*
X159250000Y-87780000D01*
X159944417Y-87780000D01*
X159964699Y-87985932D01*
X159969118Y-88000499D01*
X160024768Y-88183954D01*
X160122315Y-88366450D01*
X160129507Y-88375213D01*
X160253589Y-88526410D01*
X160335022Y-88593239D01*
X160413550Y-88657685D01*
X160596046Y-88755232D01*
X160794066Y-88815300D01*
X160794065Y-88815300D01*
X160812529Y-88817118D01*
X161000000Y-88835583D01*
X161205934Y-88815300D01*
X161403954Y-88755232D01*
X161586450Y-88657685D01*
X161746410Y-88526410D01*
X161877685Y-88366450D01*
X161975232Y-88183954D01*
X162035300Y-87985934D01*
X162055583Y-87780000D01*
X162035300Y-87574066D01*
X161975232Y-87376046D01*
X161877685Y-87193550D01*
X161817035Y-87119647D01*
X161746410Y-87033589D01*
X161586452Y-86902317D01*
X161586453Y-86902317D01*
X161586450Y-86902315D01*
X161403954Y-86804768D01*
X161205934Y-86744700D01*
X161205932Y-86744699D01*
X161205934Y-86744699D01*
X161000000Y-86724417D01*
X160794067Y-86744699D01*
X160658592Y-86785795D01*
X160600830Y-86803317D01*
X160596043Y-86804769D01*
X160494245Y-86859182D01*
X160413550Y-86902315D01*
X160413548Y-86902316D01*
X160413547Y-86902317D01*
X160253589Y-87033589D01*
X160122317Y-87193547D01*
X160122315Y-87193550D01*
X160083643Y-87265898D01*
X160024769Y-87376043D01*
X159964699Y-87574067D01*
X159944417Y-87780000D01*
X159250000Y-87780000D01*
X159250000Y-85500000D01*
X158750000Y-85500000D01*
X158142491Y-85500000D01*
X158132809Y-85486738D01*
X158125500Y-85444796D01*
X158125500Y-85240000D01*
X159944417Y-85240000D01*
X159964699Y-85445932D01*
X159981583Y-85501591D01*
X160024768Y-85643954D01*
X160122315Y-85826450D01*
X160122317Y-85826452D01*
X160253589Y-85986410D01*
X160336768Y-86054672D01*
X160413550Y-86117685D01*
X160596046Y-86215232D01*
X160794066Y-86275300D01*
X160794065Y-86275300D01*
X160812529Y-86277118D01*
X161000000Y-86295583D01*
X161205934Y-86275300D01*
X161403954Y-86215232D01*
X161586450Y-86117685D01*
X161746410Y-85986410D01*
X161877685Y-85826450D01*
X161975232Y-85643954D01*
X162035300Y-85445934D01*
X162055583Y-85240000D01*
X162035300Y-85034066D01*
X161975232Y-84836046D01*
X161877685Y-84653550D01*
X161813751Y-84575646D01*
X161746410Y-84493589D01*
X161620406Y-84390182D01*
X161586450Y-84362315D01*
X161403954Y-84264768D01*
X161205934Y-84204700D01*
X161205932Y-84204699D01*
X161205934Y-84204699D01*
X161000000Y-84184417D01*
X160794067Y-84204699D01*
X160596043Y-84264769D01*
X160533112Y-84298407D01*
X160413550Y-84362315D01*
X160413548Y-84362316D01*
X160413547Y-84362317D01*
X160253589Y-84493589D01*
X160122317Y-84653547D01*
X160122315Y-84653550D01*
X160115391Y-84666504D01*
X160024769Y-84836043D01*
X159964699Y-85034067D01*
X159944417Y-85240000D01*
X158125500Y-85240000D01*
X158125500Y-84642685D01*
X158145185Y-84575646D01*
X158161819Y-84555004D01*
X158326641Y-84390182D01*
X158510465Y-84206358D01*
X158518613Y-84192244D01*
X158569179Y-84144030D01*
X158637786Y-84130806D01*
X158702651Y-84156774D01*
X158743180Y-84213688D01*
X158749141Y-84249141D01*
X158750000Y-84250000D01*
X159250000Y-84250000D01*
X159250000Y-83569752D01*
X159949500Y-83569752D01*
X159961131Y-83628229D01*
X159961132Y-83628230D01*
X160005447Y-83694552D01*
X160071769Y-83738867D01*
X160071770Y-83738868D01*
X160130247Y-83750499D01*
X160130250Y-83750500D01*
X160130252Y-83750500D01*
X161869750Y-83750500D01*
X161869751Y-83750499D01*
X161884568Y-83747552D01*
X161928229Y-83738868D01*
X161928229Y-83738867D01*
X161928231Y-83738867D01*
X161994552Y-83694552D01*
X162038867Y-83628231D01*
X162038867Y-83628229D01*
X162038868Y-83628229D01*
X162050499Y-83569752D01*
X162050500Y-83569750D01*
X162050500Y-81830249D01*
X162050499Y-81830247D01*
X162038868Y-81771770D01*
X162038867Y-81771769D01*
X161994552Y-81705447D01*
X161928230Y-81661132D01*
X161928229Y-81661131D01*
X161869752Y-81649500D01*
X161869748Y-81649500D01*
X160130252Y-81649500D01*
X160130247Y-81649500D01*
X160071770Y-81661131D01*
X160071769Y-81661132D01*
X160005447Y-81705447D01*
X159961132Y-81771769D01*
X159961131Y-81771770D01*
X159949500Y-81830247D01*
X159949500Y-83569752D01*
X159250000Y-83569752D01*
X159250000Y-81250000D01*
X158699500Y-81250000D01*
X158632461Y-81230315D01*
X158586706Y-81177511D01*
X158575500Y-81126000D01*
X158575500Y-80374000D01*
X158595185Y-80306961D01*
X158647989Y-80261206D01*
X158699500Y-80250000D01*
X159250000Y-80250000D01*
X159250000Y-78870000D01*
X159944417Y-78870000D01*
X159964699Y-79075932D01*
X159964700Y-79075934D01*
X160024768Y-79273954D01*
X160122315Y-79456450D01*
X160137128Y-79474500D01*
X160253589Y-79616410D01*
X160346567Y-79692714D01*
X160413550Y-79747685D01*
X160596046Y-79845232D01*
X160794066Y-79905300D01*
X160794065Y-79905300D01*
X160812529Y-79907118D01*
X161000000Y-79925583D01*
X161205934Y-79905300D01*
X161403954Y-79845232D01*
X161586450Y-79747685D01*
X161746410Y-79616410D01*
X161877685Y-79456450D01*
X161975232Y-79273954D01*
X162035300Y-79075934D01*
X162055583Y-78870000D01*
X162035300Y-78664066D01*
X161975232Y-78466046D01*
X161877685Y-78283550D01*
X161815851Y-78208204D01*
X161746410Y-78123589D01*
X161607612Y-78009682D01*
X161586450Y-77992315D01*
X161403954Y-77894768D01*
X161205934Y-77834700D01*
X161205932Y-77834699D01*
X161205934Y-77834699D01*
X161000000Y-77814417D01*
X160794067Y-77834699D01*
X160596043Y-77894769D01*
X160501581Y-77945261D01*
X160413550Y-77992315D01*
X160413548Y-77992316D01*
X160413547Y-77992317D01*
X160253589Y-78123589D01*
X160122317Y-78283547D01*
X160122315Y-78283550D01*
X160083643Y-78355898D01*
X160024769Y-78466043D01*
X159964699Y-78664067D01*
X159944417Y-78870000D01*
X159250000Y-78870000D01*
X159250000Y-77250000D01*
X158750000Y-77250000D01*
X158699500Y-77250000D01*
X158632461Y-77230315D01*
X158586706Y-77177511D01*
X158575500Y-77126000D01*
X158575500Y-76330000D01*
X159944417Y-76330000D01*
X159964699Y-76535932D01*
X159990307Y-76620349D01*
X160024768Y-76733954D01*
X160122315Y-76916450D01*
X160156969Y-76958677D01*
X160253589Y-77076410D01*
X160306819Y-77120094D01*
X160413550Y-77207685D01*
X160596046Y-77305232D01*
X160794066Y-77365300D01*
X160794065Y-77365300D01*
X160812529Y-77367118D01*
X161000000Y-77385583D01*
X161205934Y-77365300D01*
X161403954Y-77305232D01*
X161586450Y-77207685D01*
X161746410Y-77076410D01*
X161877685Y-76916450D01*
X161975232Y-76733954D01*
X162035300Y-76535934D01*
X162055583Y-76330000D01*
X162035300Y-76124066D01*
X161975232Y-75926046D01*
X161877685Y-75743550D01*
X161824121Y-75678282D01*
X161746410Y-75583589D01*
X161586452Y-75452317D01*
X161586453Y-75452317D01*
X161586450Y-75452315D01*
X161403954Y-75354768D01*
X161205934Y-75294700D01*
X161205932Y-75294699D01*
X161205934Y-75294699D01*
X161000000Y-75274417D01*
X160794067Y-75294699D01*
X160596043Y-75354769D01*
X160502870Y-75404572D01*
X160413550Y-75452315D01*
X160413548Y-75452316D01*
X160413547Y-75452317D01*
X160253589Y-75583589D01*
X160122317Y-75743547D01*
X160122315Y-75743550D01*
X160102526Y-75780572D01*
X160024769Y-75926043D01*
X159964699Y-76124067D01*
X159944417Y-76330000D01*
X158575500Y-76330000D01*
X158575500Y-74874000D01*
X158595185Y-74806961D01*
X158647989Y-74761206D01*
X158699500Y-74750000D01*
X159250000Y-74750000D01*
X159250000Y-73790000D01*
X159944417Y-73790000D01*
X159964699Y-73995932D01*
X159966893Y-74003163D01*
X160024768Y-74193954D01*
X160122315Y-74376450D01*
X160122317Y-74376452D01*
X160253589Y-74536410D01*
X160340132Y-74607433D01*
X160413550Y-74667685D01*
X160596046Y-74765232D01*
X160794066Y-74825300D01*
X160794065Y-74825300D01*
X160812529Y-74827118D01*
X161000000Y-74845583D01*
X161205934Y-74825300D01*
X161403954Y-74765232D01*
X161586450Y-74667685D01*
X161746410Y-74536410D01*
X161877685Y-74376450D01*
X161975232Y-74193954D01*
X162035300Y-73995934D01*
X162055583Y-73790000D01*
X162035300Y-73584066D01*
X161975232Y-73386046D01*
X161877685Y-73203550D01*
X161825702Y-73140209D01*
X161746410Y-73043589D01*
X161594386Y-72918828D01*
X161586450Y-72912315D01*
X161403954Y-72814768D01*
X161205934Y-72754700D01*
X161205932Y-72754699D01*
X161205934Y-72754699D01*
X161000000Y-72734417D01*
X160794067Y-72754699D01*
X160596043Y-72814769D01*
X160485898Y-72873643D01*
X160413550Y-72912315D01*
X160413548Y-72912316D01*
X160413547Y-72912317D01*
X160253589Y-73043589D01*
X160122317Y-73203547D01*
X160024769Y-73386043D01*
X159964699Y-73584067D01*
X159944417Y-73790000D01*
X159250000Y-73790000D01*
X159250000Y-72119752D01*
X159949500Y-72119752D01*
X159961131Y-72178229D01*
X159961132Y-72178230D01*
X160005447Y-72244552D01*
X160071769Y-72288867D01*
X160071770Y-72288868D01*
X160130247Y-72300499D01*
X160130250Y-72300500D01*
X160130252Y-72300500D01*
X161869750Y-72300500D01*
X161869751Y-72300499D01*
X161884568Y-72297552D01*
X161928229Y-72288868D01*
X161928229Y-72288867D01*
X161928231Y-72288867D01*
X161994552Y-72244552D01*
X162038867Y-72178231D01*
X162038867Y-72178229D01*
X162038868Y-72178229D01*
X162050499Y-72119752D01*
X162050500Y-72119750D01*
X162050500Y-70380249D01*
X162050499Y-70380247D01*
X162038868Y-70321770D01*
X162038867Y-70321769D01*
X161994552Y-70255447D01*
X161928230Y-70211132D01*
X161928229Y-70211131D01*
X161869752Y-70199500D01*
X161869748Y-70199500D01*
X160130252Y-70199500D01*
X160130247Y-70199500D01*
X160071770Y-70211131D01*
X160071769Y-70211132D01*
X160005447Y-70255447D01*
X159961132Y-70321769D01*
X159961131Y-70321770D01*
X159949500Y-70380247D01*
X159949500Y-72119752D01*
X159250000Y-72119752D01*
X159250000Y-48374000D01*
X159269685Y-48306961D01*
X159322489Y-48261206D01*
X159374000Y-48250000D01*
X162875992Y-48250000D01*
X162943031Y-48269685D01*
G37*
%TD.AperFunction*%
%TA.AperFunction,Conductor*%
G36*
X140462599Y-87666864D02*
G01*
X140484549Y-87693441D01*
X140484587Y-87693413D01*
X140485383Y-87694451D01*
X140488797Y-87698584D01*
X140489532Y-87699858D01*
X140489537Y-87699864D01*
X140985194Y-88195520D01*
X140985204Y-88195531D01*
X140989534Y-88199861D01*
X140989535Y-88199862D01*
X141050138Y-88260465D01*
X141065327Y-88269234D01*
X141087250Y-88281891D01*
X141087252Y-88281893D01*
X141115428Y-88298160D01*
X141124361Y-88303318D01*
X141207147Y-88325500D01*
X141422776Y-88325500D01*
X141489815Y-88345185D01*
X141535570Y-88397989D01*
X141545514Y-88467147D01*
X141516489Y-88530703D01*
X141507788Y-88539173D01*
X141507897Y-88539282D01*
X141503592Y-88543586D01*
X141372317Y-88703547D01*
X141274769Y-88886043D01*
X141214699Y-89084067D01*
X141194417Y-89290000D01*
X141214699Y-89495932D01*
X141234574Y-89561451D01*
X141274768Y-89693954D01*
X141372315Y-89876450D01*
X141406969Y-89918677D01*
X141503589Y-90036410D01*
X141568661Y-90089812D01*
X141663550Y-90167685D01*
X141846046Y-90265232D01*
X142044066Y-90325300D01*
X142044065Y-90325300D01*
X142055285Y-90326405D01*
X142250000Y-90345583D01*
X142455934Y-90325300D01*
X142653954Y-90265232D01*
X142653969Y-90265223D01*
X142655843Y-90264448D01*
X142656918Y-90264332D01*
X142659784Y-90263463D01*
X142659948Y-90264005D01*
X142725311Y-90256969D01*
X142787795Y-90288234D01*
X142790994Y-90291321D01*
X143010138Y-90510465D01*
X143084361Y-90553318D01*
X143167147Y-90575500D01*
X144663811Y-90575500D01*
X144730850Y-90595185D01*
X144751492Y-90611819D01*
X145891001Y-91751328D01*
X145924486Y-91812651D01*
X145919502Y-91882343D01*
X145877630Y-91938276D01*
X145812166Y-91962693D01*
X145803320Y-91963009D01*
X144377946Y-91963009D01*
X144377946Y-96463009D01*
X144662608Y-96463009D01*
X144716146Y-96478729D01*
X144716865Y-96476995D01*
X144728150Y-96481669D01*
X144801069Y-96496174D01*
X145128318Y-96496174D01*
X145183865Y-96465843D01*
X145210223Y-96463009D01*
X145541169Y-96463009D01*
X145608208Y-96482694D01*
X145624936Y-96496174D01*
X145890318Y-96496174D01*
X145957357Y-96515859D01*
X146003112Y-96568663D01*
X146010093Y-96588080D01*
X146017943Y-96617379D01*
X146033578Y-96644458D01*
X146060796Y-96691601D01*
X146060798Y-96691603D01*
X146218038Y-96848843D01*
X146251523Y-96910166D01*
X146246539Y-96979858D01*
X146218038Y-97024205D01*
X146138268Y-97103974D01*
X146138265Y-97103979D01*
X146080021Y-97218288D01*
X146074998Y-97249999D01*
X146074998Y-97250000D01*
X146808500Y-97250000D01*
X146875539Y-97269685D01*
X146921294Y-97322489D01*
X146932500Y-97374000D01*
X146932500Y-97943090D01*
X146912815Y-98010129D01*
X146906876Y-98018576D01*
X146848133Y-98095131D01*
X146787625Y-98241211D01*
X146787624Y-98241213D01*
X146766987Y-98397972D01*
X146766987Y-98397975D01*
X146787624Y-98554734D01*
X146787625Y-98554736D01*
X146828444Y-98653283D01*
X146848133Y-98700815D01*
X146921186Y-98796019D01*
X146946379Y-98861186D01*
X146932500Y-98928855D01*
X146932500Y-100059108D01*
X147021707Y-100044980D01*
X147021708Y-100044980D01*
X147136021Y-99986734D01*
X147197319Y-99925436D01*
X147258642Y-99891951D01*
X147328334Y-99896935D01*
X147372682Y-99925436D01*
X147395567Y-99948321D01*
X147395568Y-99948321D01*
X147395571Y-99948324D01*
X147472562Y-99985963D01*
X147505600Y-100002115D01*
X147513138Y-100006128D01*
X147565365Y-100036281D01*
X147711734Y-100075500D01*
X147711736Y-100075500D01*
X147863264Y-100075500D01*
X147863266Y-100075500D01*
X148009635Y-100036281D01*
X148030506Y-100024230D01*
X148074624Y-100008914D01*
X148132840Y-100000433D01*
X148239429Y-99948324D01*
X148239430Y-99948323D01*
X148239432Y-99948322D01*
X148323322Y-99864432D01*
X148323323Y-99864430D01*
X148323324Y-99864429D01*
X148375433Y-99757840D01*
X148385500Y-99688742D01*
X148385500Y-99311258D01*
X148375433Y-99242160D01*
X148375431Y-99242156D01*
X148375431Y-99242154D01*
X148372590Y-99232958D01*
X148373338Y-99232726D01*
X148363000Y-99188040D01*
X148363000Y-98737041D01*
X148363000Y-98737039D01*
X148323781Y-98590670D01*
X148319332Y-98582965D01*
X148303033Y-98554734D01*
X148248322Y-98459972D01*
X148231850Y-98392075D01*
X148248322Y-98335976D01*
X148323781Y-98205278D01*
X148363000Y-98058909D01*
X148363000Y-97907376D01*
X148363000Y-97811959D01*
X148373338Y-97767270D01*
X148372590Y-97767039D01*
X148375431Y-97757843D01*
X148375433Y-97757840D01*
X148385500Y-97688742D01*
X148385500Y-97645189D01*
X148405185Y-97578150D01*
X148457989Y-97532395D01*
X148527147Y-97522451D01*
X148590703Y-97551476D01*
X148597181Y-97557508D01*
X150775138Y-99735465D01*
X150849361Y-99778318D01*
X150932147Y-99800500D01*
X151017853Y-99800500D01*
X152181701Y-99800500D01*
X152248740Y-99820185D01*
X152280077Y-99849014D01*
X152316847Y-99896935D01*
X152321718Y-99903282D01*
X152447159Y-99999536D01*
X152593238Y-100060044D01*
X152671619Y-100070363D01*
X152749999Y-100080682D01*
X152750000Y-100080682D01*
X152750001Y-100080682D01*
X152802254Y-100073802D01*
X152906762Y-100060044D01*
X152999922Y-100021456D01*
X153060351Y-99996426D01*
X153061369Y-99998883D01*
X153109576Y-99985963D01*
X153495910Y-99985963D01*
X153495910Y-99676853D01*
X153489565Y-99677858D01*
X153420272Y-99668903D01*
X153366820Y-99623907D01*
X153346181Y-99557155D01*
X153347228Y-99539214D01*
X153355682Y-99475000D01*
X153335044Y-99318238D01*
X153274536Y-99172159D01*
X153178282Y-99046718D01*
X153052841Y-98950464D01*
X153029727Y-98940890D01*
X152906762Y-98889956D01*
X152906760Y-98889955D01*
X152750001Y-98869318D01*
X152749999Y-98869318D01*
X152593239Y-98889955D01*
X152593237Y-98889956D01*
X152447150Y-98950467D01*
X152446429Y-98950884D01*
X152445744Y-98951049D01*
X152445599Y-98951109D01*
X152441394Y-98954888D01*
X152321716Y-99046719D01*
X152280077Y-99100986D01*
X152223649Y-99142189D01*
X152181701Y-99149500D01*
X151161189Y-99149500D01*
X151094150Y-99129815D01*
X151073508Y-99113181D01*
X148414265Y-96453938D01*
X148380780Y-96392615D01*
X148377946Y-96366257D01*
X148377946Y-96045674D01*
X148397631Y-95978635D01*
X148450435Y-95932880D01*
X148501946Y-95921674D01*
X149861062Y-95921674D01*
X149928101Y-95941359D01*
X149948738Y-95957988D01*
X150003579Y-96012829D01*
X150059296Y-96040068D01*
X150110165Y-96064937D01*
X150110166Y-96064937D01*
X150110168Y-96064938D01*
X150179266Y-96075005D01*
X150179272Y-96075005D01*
X150671744Y-96075005D01*
X150671750Y-96075005D01*
X150740848Y-96064938D01*
X150847437Y-96012829D01*
X150847438Y-96012828D01*
X150847440Y-96012827D01*
X150905327Y-95954940D01*
X150966650Y-95921455D01*
X151036342Y-95926439D01*
X151080689Y-95954940D01*
X151138577Y-96012828D01*
X151245165Y-96064937D01*
X151245166Y-96064937D01*
X151245168Y-96064938D01*
X151314266Y-96075005D01*
X151314272Y-96075005D01*
X151806744Y-96075005D01*
X151806750Y-96075005D01*
X151875848Y-96064938D01*
X151982437Y-96012829D01*
X151982438Y-96012828D01*
X151982440Y-96012827D01*
X152066330Y-95928937D01*
X152066331Y-95928935D01*
X152066332Y-95928934D01*
X152079416Y-95902169D01*
X152126544Y-95850588D01*
X152194078Y-95832674D01*
X152260576Y-95854115D01*
X152304926Y-95908104D01*
X152314816Y-95956631D01*
X152314816Y-97320286D01*
X152295131Y-97387325D01*
X152278497Y-97407967D01*
X152102615Y-97583848D01*
X152041292Y-97617333D01*
X152008481Y-97618702D01*
X152008481Y-97619318D01*
X152000352Y-97619318D01*
X151843593Y-97639955D01*
X151843591Y-97639956D01*
X151697514Y-97700463D01*
X151572072Y-97796718D01*
X151475817Y-97922160D01*
X151415310Y-98068237D01*
X151415309Y-98068239D01*
X151394672Y-98224998D01*
X151394672Y-98225001D01*
X151415309Y-98381760D01*
X151415310Y-98381762D01*
X151467843Y-98508589D01*
X151475818Y-98527841D01*
X151572072Y-98653282D01*
X151697513Y-98749536D01*
X151843592Y-98810044D01*
X151921973Y-98820363D01*
X152000353Y-98830682D01*
X152000354Y-98830682D01*
X152000355Y-98830682D01*
X152052608Y-98823802D01*
X152157116Y-98810044D01*
X152303195Y-98749536D01*
X152303200Y-98749531D01*
X152303907Y-98749125D01*
X152304582Y-98748961D01*
X152304750Y-98748891D01*
X152308949Y-98745120D01*
X152428636Y-98653282D01*
X152524890Y-98527841D01*
X152585398Y-98381762D01*
X152606036Y-98225000D01*
X152587967Y-98087755D01*
X152598732Y-98018724D01*
X152623222Y-97983895D01*
X152853320Y-97753797D01*
X152914642Y-97720314D01*
X152984334Y-97725298D01*
X153040267Y-97767170D01*
X153064684Y-97832634D01*
X153065000Y-97841480D01*
X153065000Y-97908127D01*
X153080019Y-98002959D01*
X153138265Y-98117270D01*
X153138268Y-98117275D01*
X153228974Y-98207981D01*
X153228978Y-98207984D01*
X153343292Y-98266230D01*
X153432499Y-98280358D01*
X153432500Y-98280358D01*
X153432500Y-97162140D01*
X153343290Y-97176269D01*
X153228979Y-97234515D01*
X153228974Y-97234518D01*
X153177497Y-97285996D01*
X153116174Y-97319481D01*
X153046482Y-97314497D01*
X152990549Y-97272625D01*
X152966132Y-97207161D01*
X152965816Y-97198315D01*
X152965816Y-95685362D01*
X152985501Y-95618323D01*
X153038305Y-95572568D01*
X153042330Y-95570815D01*
X153112118Y-95541907D01*
X153181587Y-95534439D01*
X153244066Y-95565714D01*
X153270053Y-95600171D01*
X153276417Y-95612661D01*
X153276423Y-95612669D01*
X153367129Y-95703375D01*
X153367133Y-95703378D01*
X153481447Y-95761624D01*
X153570654Y-95775752D01*
X153570655Y-95775752D01*
X153570655Y-95090644D01*
X153590340Y-95023605D01*
X153617582Y-95000000D01*
X154025540Y-95000000D01*
X154059449Y-95039133D01*
X154070655Y-95090644D01*
X154070655Y-95775752D01*
X154159862Y-95761624D01*
X154159863Y-95761624D01*
X154274176Y-95703378D01*
X154335474Y-95642080D01*
X154396797Y-95608595D01*
X154466489Y-95613579D01*
X154510837Y-95642080D01*
X154533724Y-95664967D01*
X154640312Y-95717076D01*
X154640313Y-95717076D01*
X154640315Y-95717077D01*
X154709413Y-95727144D01*
X154709419Y-95727144D01*
X155201891Y-95727144D01*
X155201897Y-95727144D01*
X155270995Y-95717077D01*
X155301040Y-95702388D01*
X155369911Y-95690629D01*
X155434208Y-95717972D01*
X155473517Y-95775735D01*
X155479500Y-95813789D01*
X155479500Y-96082963D01*
X155485654Y-96125203D01*
X155489709Y-96153036D01*
X155489709Y-96153037D01*
X155489710Y-96153039D01*
X155489710Y-96153041D01*
X155542548Y-96261122D01*
X155542550Y-96261125D01*
X155592494Y-96311069D01*
X155625979Y-96372392D01*
X155620995Y-96442084D01*
X155592494Y-96486431D01*
X155542550Y-96536374D01*
X155542548Y-96536377D01*
X155489710Y-96644460D01*
X155489709Y-96644462D01*
X155489709Y-96644464D01*
X155479500Y-96714535D01*
X155479500Y-96714539D01*
X155479500Y-96714540D01*
X155479500Y-97213635D01*
X155459815Y-97280674D01*
X155407011Y-97326429D01*
X155337853Y-97336373D01*
X155274297Y-97307348D01*
X155267818Y-97301315D01*
X155239431Y-97272927D01*
X155239430Y-97272926D01*
X155132842Y-97220817D01*
X155115481Y-97218288D01*
X155063742Y-97210750D01*
X154571258Y-97210750D01*
X154525192Y-97217461D01*
X154502157Y-97220817D01*
X154395570Y-97272926D01*
X154372681Y-97295815D01*
X154311357Y-97329299D01*
X154241666Y-97324313D01*
X154197320Y-97295813D01*
X154136025Y-97234518D01*
X154136020Y-97234515D01*
X154021709Y-97176269D01*
X153932500Y-97162140D01*
X153932500Y-98280358D01*
X154021707Y-98266230D01*
X154021708Y-98266230D01*
X154136021Y-98207984D01*
X154197319Y-98146686D01*
X154258642Y-98113201D01*
X154328334Y-98118185D01*
X154372682Y-98146686D01*
X154395569Y-98169573D01*
X154502157Y-98221682D01*
X154502158Y-98221682D01*
X154502160Y-98221683D01*
X154571258Y-98231750D01*
X154571264Y-98231750D01*
X155063736Y-98231750D01*
X155063742Y-98231750D01*
X155132840Y-98221683D01*
X155239429Y-98169574D01*
X155267818Y-98141185D01*
X155329140Y-98107699D01*
X155398832Y-98112683D01*
X155454766Y-98154553D01*
X155479184Y-98220017D01*
X155479500Y-98228865D01*
X155479500Y-98582963D01*
X155485654Y-98625203D01*
X155489709Y-98653036D01*
X155489709Y-98653037D01*
X155489710Y-98653039D01*
X155489710Y-98653041D01*
X155542548Y-98761122D01*
X155542550Y-98761125D01*
X155592494Y-98811069D01*
X155625979Y-98872392D01*
X155620995Y-98942084D01*
X155592494Y-98986431D01*
X155542550Y-99036374D01*
X155542548Y-99036377D01*
X155489710Y-99144460D01*
X155489709Y-99144462D01*
X155489709Y-99144464D01*
X155479500Y-99214535D01*
X155479500Y-99214539D01*
X155479500Y-99214540D01*
X155479500Y-99675359D01*
X155459815Y-99742398D01*
X155407011Y-99788153D01*
X155337853Y-99798097D01*
X155301039Y-99786759D01*
X155196252Y-99735530D01*
X155178975Y-99733013D01*
X155127152Y-99725463D01*
X154634668Y-99725463D01*
X154588602Y-99732174D01*
X154565567Y-99735530D01*
X154458980Y-99787639D01*
X154436091Y-99810528D01*
X154374767Y-99844012D01*
X154305076Y-99839026D01*
X154260730Y-99810526D01*
X154199435Y-99749231D01*
X154199430Y-99749228D01*
X154085119Y-99690982D01*
X153995910Y-99676853D01*
X153995910Y-100361963D01*
X153976225Y-100429002D01*
X153923421Y-100474757D01*
X153871910Y-100485963D01*
X153138408Y-100485963D01*
X153143431Y-100517674D01*
X153201675Y-100631983D01*
X153201678Y-100631988D01*
X153292384Y-100722694D01*
X153292391Y-100722699D01*
X153322949Y-100738270D01*
X153373745Y-100786245D01*
X153390539Y-100854066D01*
X153368001Y-100920201D01*
X153313285Y-100963652D01*
X153290037Y-100969295D01*
X153290262Y-100970424D01*
X153283834Y-100971702D01*
X153283827Y-100971703D01*
X153283827Y-100971704D01*
X153228828Y-100988842D01*
X153121416Y-101022312D01*
X152975834Y-101110320D01*
X152855553Y-101230601D01*
X152767545Y-101376183D01*
X152716936Y-101538597D01*
X152712350Y-101589066D01*
X152710551Y-101608873D01*
X152710523Y-101609176D01*
X152710523Y-105604554D01*
X152709994Y-105615995D01*
X152705380Y-105665789D01*
X152705380Y-105665790D01*
X152709994Y-105715583D01*
X152710523Y-105727024D01*
X152710523Y-107722403D01*
X152716919Y-107792788D01*
X152703382Y-107861334D01*
X152654936Y-107911680D01*
X152593415Y-107928010D01*
X152061646Y-107927954D01*
X151994609Y-107908262D01*
X151948859Y-107855454D01*
X151938301Y-107791351D01*
X151946022Y-107715776D01*
X151946022Y-107269342D01*
X150907082Y-106230402D01*
X150927614Y-106224901D01*
X151064431Y-106145909D01*
X151176142Y-106034198D01*
X151255134Y-105897381D01*
X151260635Y-105876849D01*
X151946021Y-106562236D01*
X151946022Y-106562235D01*
X151946022Y-105725787D01*
X151946494Y-105714978D01*
X151950798Y-105665790D01*
X151950798Y-105665789D01*
X151946494Y-105616600D01*
X151946022Y-105605792D01*
X151946022Y-104769344D01*
X151946021Y-104769343D01*
X151260635Y-105454729D01*
X151255134Y-105434199D01*
X151176142Y-105297382D01*
X151064431Y-105185671D01*
X150927614Y-105106679D01*
X150907082Y-105101177D01*
X151946021Y-104062238D01*
X151946022Y-104062237D01*
X151946022Y-103615818D01*
X151946021Y-103615803D01*
X151935528Y-103513092D01*
X151880381Y-103346670D01*
X151880379Y-103346665D01*
X151788338Y-103197444D01*
X151664368Y-103073474D01*
X151515147Y-102981433D01*
X151515142Y-102981431D01*
X151348720Y-102926284D01*
X151348713Y-102926283D01*
X151246003Y-102915790D01*
X150146051Y-102915790D01*
X150146035Y-102915791D01*
X150043325Y-102926284D01*
X149876903Y-102981431D01*
X149876898Y-102981433D01*
X149727677Y-103073474D01*
X149603707Y-103197444D01*
X149511666Y-103346665D01*
X149511664Y-103346670D01*
X149456517Y-103513092D01*
X149456516Y-103513099D01*
X149446023Y-103615803D01*
X149446023Y-104062237D01*
X150484963Y-105101177D01*
X150464432Y-105106679D01*
X150327615Y-105185671D01*
X150215904Y-105297382D01*
X150136912Y-105434199D01*
X150131410Y-105454729D01*
X149446023Y-104769342D01*
X149446023Y-105605795D01*
X149445551Y-105616602D01*
X149441248Y-105665788D01*
X149441248Y-105665792D01*
X149445551Y-105714976D01*
X149446023Y-105725783D01*
X149446023Y-106012368D01*
X149426338Y-106079407D01*
X149373534Y-106125162D01*
X149304376Y-106135106D01*
X149240820Y-106106081D01*
X149207462Y-106059821D01*
X149191044Y-106020185D01*
X149170559Y-105970729D01*
X149074305Y-105845288D01*
X148948864Y-105749034D01*
X148938596Y-105744781D01*
X148868106Y-105715583D01*
X148802785Y-105688526D01*
X148784058Y-105686060D01*
X148758313Y-105682671D01*
X148694417Y-105654404D01*
X148655947Y-105596079D01*
X148650500Y-105559732D01*
X148650500Y-104845730D01*
X148647646Y-104815300D01*
X148647646Y-104815298D01*
X148602793Y-104687119D01*
X148602792Y-104687117D01*
X148522150Y-104577850D01*
X148412882Y-104497207D01*
X148408542Y-104495688D01*
X148351768Y-104454966D01*
X148326022Y-104390013D01*
X148325500Y-104378648D01*
X148325500Y-103982925D01*
X148345185Y-103915886D01*
X148349730Y-103909291D01*
X148379116Y-103869475D01*
X148422725Y-103744849D01*
X148425500Y-103715256D01*
X148425500Y-103109744D01*
X148422725Y-103080151D01*
X148379116Y-102955525D01*
X148357535Y-102926284D01*
X148300711Y-102849289D01*
X148300710Y-102849288D01*
X148194476Y-102770884D01*
X148069848Y-102727274D01*
X148069849Y-102727274D01*
X148040260Y-102724500D01*
X148040256Y-102724500D01*
X147459744Y-102724500D01*
X147459740Y-102724500D01*
X147430150Y-102727274D01*
X147305523Y-102770884D01*
X147199289Y-102849288D01*
X147199288Y-102849289D01*
X147120884Y-102955523D01*
X147077274Y-103080150D01*
X147074500Y-103109739D01*
X147074500Y-103715260D01*
X147077274Y-103744849D01*
X147108821Y-103835000D01*
X147120884Y-103869475D01*
X147150270Y-103909291D01*
X147174241Y-103974920D01*
X147174500Y-103982925D01*
X147174500Y-104378648D01*
X147154815Y-104445687D01*
X147102011Y-104491442D01*
X147091463Y-104495686D01*
X147089393Y-104496410D01*
X147087117Y-104497207D01*
X146977850Y-104577850D01*
X146897207Y-104687117D01*
X146897206Y-104687119D01*
X146867041Y-104773326D01*
X146826319Y-104830102D01*
X146761366Y-104855849D01*
X146692805Y-104842392D01*
X146642402Y-104794005D01*
X146632959Y-104773326D01*
X146602793Y-104687119D01*
X146602792Y-104687117D01*
X146522150Y-104577850D01*
X146412882Y-104497207D01*
X146408542Y-104495688D01*
X146351768Y-104454966D01*
X146326022Y-104390013D01*
X146325500Y-104378648D01*
X146325500Y-103982925D01*
X146345185Y-103915886D01*
X146349730Y-103909291D01*
X146379116Y-103869475D01*
X146422725Y-103744849D01*
X146425500Y-103715256D01*
X146425500Y-103109744D01*
X146422725Y-103080151D01*
X146379116Y-102955525D01*
X146357535Y-102926284D01*
X146300711Y-102849289D01*
X146300710Y-102849288D01*
X146194476Y-102770884D01*
X146069848Y-102727274D01*
X146069849Y-102727274D01*
X146040260Y-102724500D01*
X146040256Y-102724500D01*
X145459744Y-102724500D01*
X145459740Y-102724500D01*
X145430150Y-102727274D01*
X145305523Y-102770884D01*
X145199289Y-102849288D01*
X145199288Y-102849289D01*
X145120884Y-102955523D01*
X145077274Y-103080150D01*
X145074500Y-103109739D01*
X145074500Y-103715260D01*
X145077274Y-103744849D01*
X145108821Y-103835000D01*
X145120884Y-103869475D01*
X145150270Y-103909291D01*
X145174241Y-103974920D01*
X145174500Y-103982925D01*
X145174500Y-104378648D01*
X145154815Y-104445687D01*
X145102011Y-104491442D01*
X145091463Y-104495686D01*
X145089393Y-104496410D01*
X145087117Y-104497207D01*
X144977850Y-104577850D01*
X144897207Y-104687117D01*
X144897206Y-104687119D01*
X144867041Y-104773326D01*
X144826319Y-104830102D01*
X144761366Y-104855849D01*
X144692805Y-104842392D01*
X144642402Y-104794005D01*
X144632959Y-104773326D01*
X144602793Y-104687119D01*
X144602792Y-104687117D01*
X144522150Y-104577850D01*
X144412882Y-104497207D01*
X144412880Y-104497206D01*
X144284700Y-104452353D01*
X144254270Y-104449500D01*
X144254266Y-104449500D01*
X143582540Y-104449500D01*
X143515501Y-104429815D01*
X143469746Y-104377011D01*
X143459802Y-104307853D01*
X143479438Y-104256608D01*
X143485496Y-104247541D01*
X143485496Y-104247540D01*
X143499999Y-104174628D01*
X143500000Y-104174626D01*
X143500000Y-103650000D01*
X142750000Y-103650000D01*
X142750000Y-104400000D01*
X142863479Y-104400000D01*
X142930518Y-104419685D01*
X142976273Y-104472489D01*
X142986217Y-104541647D01*
X142963251Y-104597629D01*
X142962142Y-104599133D01*
X142906497Y-104641383D01*
X142862372Y-104649500D01*
X141459740Y-104649500D01*
X141430150Y-104652274D01*
X141305523Y-104695884D01*
X141199289Y-104774288D01*
X141199288Y-104774289D01*
X141120884Y-104880523D01*
X141077274Y-105005150D01*
X141074500Y-105034739D01*
X141074500Y-105640260D01*
X141077274Y-105669849D01*
X141120884Y-105794476D01*
X141199288Y-105900710D01*
X141199289Y-105900711D01*
X141305523Y-105979115D01*
X141305524Y-105979115D01*
X141305525Y-105979116D01*
X141430151Y-106022725D01*
X141430150Y-106022725D01*
X141459740Y-106025500D01*
X141459744Y-106025500D01*
X142040260Y-106025500D01*
X142069849Y-106022725D01*
X142099447Y-106012368D01*
X142194475Y-105979116D01*
X142300711Y-105900711D01*
X142337498Y-105850866D01*
X142393146Y-105808615D01*
X142437268Y-105800500D01*
X142862372Y-105800500D01*
X142929411Y-105820185D01*
X142962141Y-105850865D01*
X142977850Y-105872150D01*
X143087118Y-105952793D01*
X143129845Y-105967744D01*
X143215299Y-105997646D01*
X143245730Y-106000500D01*
X143245734Y-106000500D01*
X144007154Y-106000500D01*
X144074193Y-106020185D01*
X144119948Y-106072989D01*
X144130093Y-106140686D01*
X144119496Y-106221176D01*
X144119496Y-106221177D01*
X144137573Y-106358489D01*
X144126807Y-106427524D01*
X144102421Y-106462249D01*
X144101597Y-106463075D01*
X144040315Y-106496634D01*
X144013810Y-106499500D01*
X143245730Y-106499500D01*
X143215300Y-106502353D01*
X143215298Y-106502353D01*
X143087119Y-106547206D01*
X143087117Y-106547207D01*
X142977850Y-106627850D01*
X142897207Y-106737117D01*
X142897206Y-106737119D01*
X142852353Y-106865298D01*
X142852353Y-106865300D01*
X142849500Y-106895730D01*
X142849500Y-107654269D01*
X142852353Y-107684699D01*
X142852353Y-107684701D01*
X142879410Y-107762022D01*
X142882972Y-107831801D01*
X142848244Y-107892428D01*
X142786251Y-107924656D01*
X142762356Y-107926977D01*
X142459060Y-107926946D01*
X142392023Y-107907255D01*
X142346273Y-107854446D01*
X142336337Y-107785286D01*
X142359806Y-107728635D01*
X142419767Y-107648537D01*
X142468758Y-107517187D01*
X142474999Y-107459146D01*
X142475000Y-107459129D01*
X142475000Y-107412500D01*
X141025000Y-107412500D01*
X141025000Y-107459146D01*
X141031241Y-107517187D01*
X141080232Y-107648537D01*
X141140082Y-107728486D01*
X141164499Y-107793951D01*
X141149647Y-107862224D01*
X141100242Y-107911629D01*
X141040802Y-107926797D01*
X140385116Y-107926728D01*
X140318079Y-107907036D01*
X140272329Y-107854228D01*
X140261129Y-107802751D01*
X140261105Y-107672867D01*
X140260964Y-106912500D01*
X141025000Y-106912500D01*
X141500000Y-106912500D01*
X141500000Y-106425000D01*
X142000000Y-106425000D01*
X142000000Y-106912500D01*
X142475000Y-106912500D01*
X142475000Y-106865870D01*
X142474999Y-106865853D01*
X142468758Y-106807812D01*
X142419767Y-106676462D01*
X142335758Y-106564241D01*
X142223537Y-106480232D01*
X142092187Y-106431241D01*
X142034146Y-106425000D01*
X142000000Y-106425000D01*
X141500000Y-106425000D01*
X141465853Y-106425000D01*
X141407812Y-106431241D01*
X141276462Y-106480232D01*
X141164241Y-106564241D01*
X141080232Y-106676462D01*
X141031241Y-106807812D01*
X141025000Y-106865853D01*
X141025000Y-106912500D01*
X140260964Y-106912500D01*
X140260360Y-103650000D01*
X141500000Y-103650000D01*
X141500000Y-104174628D01*
X141514503Y-104247540D01*
X141514505Y-104247544D01*
X141569760Y-104330239D01*
X141652455Y-104385494D01*
X141652459Y-104385496D01*
X141725371Y-104399999D01*
X141725374Y-104400000D01*
X142250000Y-104400000D01*
X142250000Y-103650000D01*
X141500000Y-103650000D01*
X140260360Y-103650000D01*
X140260267Y-103150000D01*
X141500000Y-103150000D01*
X142250000Y-103150000D01*
X142250000Y-102400000D01*
X142750000Y-102400000D01*
X142750000Y-103150000D01*
X143500000Y-103150000D01*
X143500000Y-102625373D01*
X143499999Y-102625371D01*
X143485496Y-102552459D01*
X143485494Y-102552455D01*
X143430239Y-102469760D01*
X143347544Y-102414505D01*
X143347540Y-102414503D01*
X143274627Y-102400000D01*
X142750000Y-102400000D01*
X142250000Y-102400000D01*
X141725373Y-102400000D01*
X141652459Y-102414503D01*
X141652455Y-102414505D01*
X141569760Y-102469760D01*
X141514505Y-102552455D01*
X141514503Y-102552459D01*
X141500000Y-102625371D01*
X141500000Y-103150000D01*
X140260267Y-103150000D01*
X140260024Y-101837500D01*
X145025000Y-101837500D01*
X145025000Y-101884146D01*
X145031241Y-101942187D01*
X145080232Y-102073537D01*
X145164241Y-102185758D01*
X145276462Y-102269767D01*
X145407812Y-102318758D01*
X145465853Y-102324999D01*
X145465870Y-102325000D01*
X145500000Y-102325000D01*
X145500000Y-101837500D01*
X146000000Y-101837500D01*
X146000000Y-102325000D01*
X146034130Y-102325000D01*
X146034146Y-102324999D01*
X146092187Y-102318758D01*
X146223537Y-102269767D01*
X146335758Y-102185758D01*
X146419767Y-102073537D01*
X146468758Y-101942187D01*
X146474999Y-101884146D01*
X146475000Y-101884129D01*
X146475000Y-101837500D01*
X147025000Y-101837500D01*
X147025000Y-101884146D01*
X147031241Y-101942187D01*
X147080232Y-102073537D01*
X147164241Y-102185758D01*
X147276462Y-102269767D01*
X147407812Y-102318758D01*
X147465853Y-102324999D01*
X147465870Y-102325000D01*
X147500000Y-102325000D01*
X147500000Y-101837500D01*
X148000000Y-101837500D01*
X148000000Y-102325000D01*
X148034130Y-102325000D01*
X148034146Y-102324999D01*
X148092187Y-102318758D01*
X148223537Y-102269767D01*
X148335758Y-102185758D01*
X148419767Y-102073537D01*
X148468758Y-101942187D01*
X148474999Y-101884146D01*
X148475000Y-101884129D01*
X148475000Y-101837500D01*
X148000000Y-101837500D01*
X147500000Y-101837500D01*
X147025000Y-101837500D01*
X146475000Y-101837500D01*
X146000000Y-101837500D01*
X145500000Y-101837500D01*
X145025000Y-101837500D01*
X140260024Y-101837500D01*
X140259931Y-101337500D01*
X145025000Y-101337500D01*
X145500000Y-101337500D01*
X145500000Y-100850000D01*
X146000000Y-100850000D01*
X146000000Y-101337500D01*
X146475000Y-101337500D01*
X147025000Y-101337500D01*
X147500000Y-101337500D01*
X147500000Y-100850000D01*
X148000000Y-100850000D01*
X148000000Y-101337500D01*
X148475000Y-101337500D01*
X148475000Y-101290870D01*
X148474999Y-101290853D01*
X148468758Y-101232812D01*
X148419767Y-101101462D01*
X148335758Y-100989241D01*
X148223537Y-100905232D01*
X148092187Y-100856241D01*
X148034146Y-100850000D01*
X148000000Y-100850000D01*
X147500000Y-100850000D01*
X147465853Y-100850000D01*
X147407812Y-100856241D01*
X147276462Y-100905232D01*
X147164241Y-100989241D01*
X147080232Y-101101462D01*
X147031241Y-101232812D01*
X147025000Y-101290853D01*
X147025000Y-101337500D01*
X146475000Y-101337500D01*
X146475000Y-101290870D01*
X146474999Y-101290853D01*
X146468758Y-101232812D01*
X146419767Y-101101462D01*
X146335758Y-100989241D01*
X146223537Y-100905232D01*
X146092187Y-100856241D01*
X146034146Y-100850000D01*
X146000000Y-100850000D01*
X145500000Y-100850000D01*
X145465853Y-100850000D01*
X145407812Y-100856241D01*
X145276462Y-100905232D01*
X145164241Y-100989241D01*
X145080232Y-101101462D01*
X145031241Y-101232812D01*
X145025000Y-101290853D01*
X145025000Y-101337500D01*
X140259931Y-101337500D01*
X140259637Y-99750000D01*
X146074998Y-99750000D01*
X146080021Y-99781711D01*
X146138265Y-99896020D01*
X146138268Y-99896025D01*
X146228974Y-99986731D01*
X146228978Y-99986734D01*
X146343292Y-100044980D01*
X146432499Y-100059108D01*
X146432500Y-100059108D01*
X146432500Y-99750000D01*
X146074998Y-99750000D01*
X140259637Y-99750000D01*
X140259544Y-99250000D01*
X146074998Y-99250000D01*
X146432500Y-99250000D01*
X146432500Y-98940890D01*
X146343290Y-98955019D01*
X146228979Y-99013265D01*
X146228974Y-99013268D01*
X146138268Y-99103974D01*
X146138265Y-99103979D01*
X146080021Y-99218288D01*
X146074998Y-99249999D01*
X146074998Y-99250000D01*
X140259544Y-99250000D01*
X140259266Y-97750000D01*
X146074998Y-97750000D01*
X146080021Y-97781711D01*
X146138265Y-97896020D01*
X146138268Y-97896025D01*
X146228974Y-97986731D01*
X146228978Y-97986734D01*
X146343292Y-98044980D01*
X146432499Y-98059108D01*
X146432500Y-98059108D01*
X146432500Y-97750000D01*
X146074998Y-97750000D01*
X140259266Y-97750000D01*
X140259010Y-96369752D01*
X141549500Y-96369752D01*
X141561131Y-96428229D01*
X141561132Y-96428230D01*
X141605447Y-96494552D01*
X141671769Y-96538867D01*
X141671770Y-96538868D01*
X141730247Y-96550499D01*
X141730250Y-96550500D01*
X141730252Y-96550500D01*
X143269750Y-96550500D01*
X143269751Y-96550499D01*
X143284568Y-96547552D01*
X143328229Y-96538868D01*
X143328229Y-96538867D01*
X143328231Y-96538867D01*
X143394552Y-96494552D01*
X143438867Y-96428231D01*
X143438867Y-96428229D01*
X143438868Y-96428229D01*
X143450499Y-96369752D01*
X143450500Y-96369750D01*
X143450500Y-94830249D01*
X143450499Y-94830247D01*
X143438868Y-94771770D01*
X143438867Y-94771769D01*
X143394552Y-94705447D01*
X143328230Y-94661132D01*
X143328229Y-94661131D01*
X143269752Y-94649500D01*
X143269748Y-94649500D01*
X141730252Y-94649500D01*
X141730247Y-94649500D01*
X141671770Y-94661131D01*
X141671769Y-94661132D01*
X141605447Y-94705447D01*
X141561132Y-94771769D01*
X141561131Y-94771770D01*
X141549500Y-94830247D01*
X141549500Y-96369752D01*
X140259010Y-96369752D01*
X140258122Y-91579999D01*
X141177471Y-91579999D01*
X141177472Y-91580000D01*
X141816988Y-91580000D01*
X141784075Y-91637007D01*
X141750000Y-91764174D01*
X141750000Y-91895826D01*
X141784075Y-92022993D01*
X141816988Y-92080000D01*
X141177472Y-92080000D01*
X141219885Y-92229065D01*
X141219890Y-92229078D01*
X141310754Y-92411556D01*
X141433608Y-92574242D01*
X141584260Y-92711578D01*
X141757584Y-92818897D01*
X141947678Y-92892539D01*
X142000000Y-92902320D01*
X142000000Y-92263012D01*
X142057007Y-92295925D01*
X142184174Y-92330000D01*
X142315826Y-92330000D01*
X142442993Y-92295925D01*
X142500000Y-92263012D01*
X142500000Y-92902320D01*
X142552321Y-92892539D01*
X142742415Y-92818897D01*
X142915739Y-92711578D01*
X143066391Y-92574242D01*
X143189245Y-92411556D01*
X143280109Y-92229078D01*
X143280114Y-92229065D01*
X143322528Y-92080000D01*
X142683012Y-92080000D01*
X142715925Y-92022993D01*
X142750000Y-91895826D01*
X142750000Y-91764174D01*
X142715925Y-91637007D01*
X142683012Y-91580000D01*
X143322528Y-91580000D01*
X143322528Y-91579999D01*
X143280114Y-91430934D01*
X143280109Y-91430921D01*
X143189245Y-91248443D01*
X143066391Y-91085757D01*
X142915739Y-90948421D01*
X142742413Y-90841101D01*
X142552315Y-90767458D01*
X142552309Y-90767456D01*
X142500001Y-90757677D01*
X142500000Y-90757679D01*
X142500000Y-91396988D01*
X142442993Y-91364075D01*
X142315826Y-91330000D01*
X142184174Y-91330000D01*
X142057007Y-91364075D01*
X142000000Y-91396988D01*
X142000000Y-90757679D01*
X141999998Y-90757677D01*
X141947690Y-90767456D01*
X141947684Y-90767458D01*
X141757586Y-90841101D01*
X141584260Y-90948421D01*
X141433608Y-91085757D01*
X141310754Y-91248443D01*
X141219890Y-91430921D01*
X141219885Y-91430934D01*
X141177471Y-91579999D01*
X140258122Y-91579999D01*
X140257414Y-87760612D01*
X140277086Y-87693572D01*
X140329882Y-87647807D01*
X140399038Y-87637851D01*
X140462599Y-87666864D01*
G37*
%TD.AperFunction*%
%TA.AperFunction,Conductor*%
G36*
X150136912Y-105897381D02*
G01*
X150215904Y-106034198D01*
X150327615Y-106145909D01*
X150464432Y-106224901D01*
X150484963Y-106230402D01*
X149446023Y-107269341D01*
X149446023Y-107715761D01*
X149446025Y-107715781D01*
X149453715Y-107791067D01*
X149440945Y-107859759D01*
X149393063Y-107910643D01*
X149330344Y-107927667D01*
X148737397Y-107927605D01*
X148670360Y-107907913D01*
X148624610Y-107855105D01*
X148614674Y-107785945D01*
X148620365Y-107762662D01*
X148647646Y-107684699D01*
X148650500Y-107654266D01*
X148650500Y-106987407D01*
X148670185Y-106920368D01*
X148722989Y-106874613D01*
X148758314Y-106864468D01*
X148802785Y-106858614D01*
X148948864Y-106798106D01*
X149074305Y-106701852D01*
X149170559Y-106576411D01*
X149207462Y-106487318D01*
X149251303Y-106432915D01*
X149317597Y-106410850D01*
X149385296Y-106428129D01*
X149432907Y-106479266D01*
X149446023Y-106534771D01*
X149446023Y-106562236D01*
X150131410Y-105876849D01*
X150136912Y-105897381D01*
G37*
%TD.AperFunction*%
%TA.AperFunction,Conductor*%
G36*
X151593833Y-88469006D02*
G01*
X151649767Y-88510877D01*
X151674184Y-88576342D01*
X151674500Y-88585188D01*
X151674500Y-89325500D01*
X151654815Y-89392539D01*
X151602011Y-89438294D01*
X151550501Y-89449500D01*
X151411601Y-89449500D01*
X151334881Y-89464760D01*
X151334879Y-89464761D01*
X151247888Y-89522888D01*
X151189760Y-89609883D01*
X151189758Y-89609887D01*
X151184327Y-89637192D01*
X151151942Y-89699103D01*
X151091226Y-89733677D01*
X151062710Y-89737000D01*
X148685161Y-89737000D01*
X148602373Y-89759182D01*
X148528152Y-89802034D01*
X148347849Y-89982337D01*
X148286525Y-90015821D01*
X148243983Y-90017594D01*
X148176167Y-90008666D01*
X148176165Y-90008666D01*
X148019405Y-90029303D01*
X148019403Y-90029304D01*
X147873326Y-90089811D01*
X147747884Y-90186066D01*
X147651630Y-90311507D01*
X147622102Y-90382793D01*
X147578260Y-90437196D01*
X147511966Y-90459260D01*
X147444267Y-90441980D01*
X147419860Y-90423020D01*
X147311819Y-90314979D01*
X147278334Y-90253656D01*
X147275500Y-90227298D01*
X147275500Y-89622584D01*
X147295185Y-89555545D01*
X147311819Y-89534903D01*
X147459903Y-89386819D01*
X147521226Y-89353334D01*
X147547584Y-89350500D01*
X148654247Y-89350500D01*
X148654249Y-89350500D01*
X148737035Y-89328318D01*
X148811258Y-89285465D01*
X149147843Y-88948880D01*
X149209166Y-88915395D01*
X149235524Y-88912561D01*
X150955790Y-88912561D01*
X150955792Y-88912561D01*
X151038578Y-88890379D01*
X151112801Y-88847526D01*
X151256780Y-88703547D01*
X151462819Y-88497507D01*
X151524142Y-88464022D01*
X151593833Y-88469006D01*
G37*
%TD.AperFunction*%
%TA.AperFunction,Conductor*%
G36*
X156274085Y-84445185D02*
G01*
X156319840Y-84497989D01*
X156329784Y-84567147D01*
X156328190Y-84575959D01*
X156327274Y-84580150D01*
X156324500Y-84609739D01*
X156324500Y-85215260D01*
X156327274Y-85244849D01*
X156370884Y-85369476D01*
X156449288Y-85475710D01*
X156449289Y-85475711D01*
X156555522Y-85554114D01*
X156555525Y-85554116D01*
X156591454Y-85566688D01*
X156648230Y-85607410D01*
X156673978Y-85672362D01*
X156674500Y-85683730D01*
X156674500Y-86759712D01*
X156654815Y-86826751D01*
X156612908Y-86865241D01*
X156613001Y-86865366D01*
X156611839Y-86866223D01*
X156608446Y-86869340D01*
X156605522Y-86870885D01*
X156499289Y-86949288D01*
X156499288Y-86949289D01*
X156420884Y-87055523D01*
X156393696Y-87133221D01*
X156352974Y-87189997D01*
X156288021Y-87215743D01*
X156219459Y-87202286D01*
X156169057Y-87153898D01*
X156160473Y-87135599D01*
X156119767Y-87026462D01*
X156035758Y-86914241D01*
X155923537Y-86830232D01*
X155792187Y-86781241D01*
X155734146Y-86775000D01*
X155637500Y-86775000D01*
X155637500Y-87626000D01*
X155617815Y-87693039D01*
X155565011Y-87738794D01*
X155513500Y-87750000D01*
X155277778Y-87750000D01*
X155137500Y-87497500D01*
X155137500Y-86775000D01*
X155045446Y-86775000D01*
X154978407Y-86755315D01*
X154932652Y-86702511D01*
X154922708Y-86633353D01*
X154930885Y-86603547D01*
X154967863Y-86514275D01*
X154988501Y-86357513D01*
X154970517Y-86220914D01*
X154981282Y-86151883D01*
X155005776Y-86117050D01*
X155086010Y-86036818D01*
X155147333Y-86003333D01*
X155173690Y-86000500D01*
X155592286Y-86000500D01*
X155592287Y-86000499D01*
X155605257Y-85997919D01*
X155643475Y-85990318D01*
X155643475Y-85990317D01*
X155643477Y-85990317D01*
X155701528Y-85951528D01*
X155740317Y-85893477D01*
X155740317Y-85893475D01*
X155740318Y-85893475D01*
X155750499Y-85842288D01*
X155750500Y-85842286D01*
X155750500Y-85657713D01*
X155750499Y-85657711D01*
X155740318Y-85606524D01*
X155740317Y-85606523D01*
X155715172Y-85568891D01*
X155694294Y-85502214D01*
X155712778Y-85434834D01*
X155715172Y-85431109D01*
X155725996Y-85414910D01*
X155740317Y-85393477D01*
X155740317Y-85393475D01*
X155740318Y-85393475D01*
X155750499Y-85342288D01*
X155750500Y-85342286D01*
X155750500Y-85157713D01*
X155750499Y-85157711D01*
X155740318Y-85106524D01*
X155740317Y-85106523D01*
X155715172Y-85068891D01*
X155694294Y-85002214D01*
X155712778Y-84934834D01*
X155715172Y-84931109D01*
X155722269Y-84920487D01*
X155740317Y-84893477D01*
X155740317Y-84893475D01*
X155740318Y-84893475D01*
X155750499Y-84842288D01*
X155750500Y-84842286D01*
X155750500Y-84657713D01*
X155739068Y-84600242D01*
X155745295Y-84530650D01*
X155788158Y-84475473D01*
X155798685Y-84468663D01*
X155844671Y-84442113D01*
X155906671Y-84425500D01*
X156207046Y-84425500D01*
X156274085Y-84445185D01*
G37*
%TD.AperFunction*%
%TA.AperFunction,Conductor*%
G36*
X144421421Y-63548904D02*
G01*
X144467176Y-63601708D01*
X144477120Y-63670866D01*
X144475999Y-63677410D01*
X144464749Y-63733966D01*
X144464749Y-64773471D01*
X144476380Y-64831948D01*
X144476381Y-64831949D01*
X144520696Y-64898271D01*
X144587018Y-64942586D01*
X144587019Y-64942587D01*
X144645496Y-64954218D01*
X144645499Y-64954219D01*
X144645501Y-64954219D01*
X145250507Y-64954219D01*
X145317546Y-64973904D01*
X145338188Y-64990538D01*
X145920681Y-65573031D01*
X145954166Y-65634354D01*
X145957000Y-65660712D01*
X145957000Y-67677758D01*
X145937315Y-67744797D01*
X145920681Y-67765439D01*
X143772854Y-69913266D01*
X143711531Y-69946751D01*
X143685173Y-69949585D01*
X143179471Y-69949585D01*
X143120994Y-69961216D01*
X143120993Y-69961217D01*
X143054671Y-70005532D01*
X143010356Y-70071854D01*
X143010355Y-70071855D01*
X142998724Y-70130332D01*
X142998724Y-70869837D01*
X143010355Y-70928314D01*
X143010356Y-70928315D01*
X143054671Y-70994637D01*
X143120993Y-71038952D01*
X143120994Y-71038953D01*
X143179471Y-71050584D01*
X143179474Y-71050585D01*
X143179476Y-71050585D01*
X144718974Y-71050585D01*
X144718975Y-71050584D01*
X144733792Y-71047637D01*
X144777453Y-71038953D01*
X144777453Y-71038952D01*
X144777455Y-71038952D01*
X144843776Y-70994637D01*
X144888091Y-70928316D01*
X144888091Y-70928314D01*
X144888092Y-70928314D01*
X144899723Y-70869837D01*
X144899724Y-70869835D01*
X144899724Y-70465518D01*
X144919409Y-70398479D01*
X144936043Y-70377837D01*
X146444819Y-68869061D01*
X146506142Y-68835576D01*
X146575834Y-68840560D01*
X146620181Y-68869061D01*
X146647221Y-68896101D01*
X146680706Y-68957424D01*
X146683540Y-68983782D01*
X146683540Y-74033559D01*
X146663855Y-74100598D01*
X146611051Y-74146353D01*
X146541893Y-74156297D01*
X146527448Y-74153334D01*
X146416816Y-74123691D01*
X146416815Y-74123691D01*
X146265283Y-74123691D01*
X146118914Y-74162909D01*
X146118910Y-74162911D01*
X146106178Y-74170262D01*
X146062059Y-74185578D01*
X146039263Y-74188899D01*
X146039260Y-74188900D01*
X145931176Y-74241739D01*
X145931173Y-74241741D01*
X145846098Y-74326816D01*
X145844463Y-74329107D01*
X145841426Y-74331488D01*
X145838834Y-74334081D01*
X145838520Y-74333767D01*
X145789485Y-74372226D01*
X145719924Y-74378778D01*
X145657863Y-74346681D01*
X145642635Y-74329107D01*
X145640999Y-74326816D01*
X145555924Y-74241741D01*
X145555921Y-74241739D01*
X145447840Y-74188901D01*
X145447830Y-74188898D01*
X145425038Y-74185578D01*
X145380918Y-74170262D01*
X145368184Y-74162910D01*
X145221816Y-74123691D01*
X145070283Y-74123691D01*
X144923920Y-74162908D01*
X144923917Y-74162909D01*
X144923914Y-74162910D01*
X144923911Y-74162911D01*
X144918727Y-74165060D01*
X144871270Y-74174500D01*
X144204468Y-74174500D01*
X144164736Y-74166597D01*
X144164613Y-74167060D01*
X144157557Y-74165169D01*
X144157018Y-74165062D01*
X144156762Y-74164956D01*
X144156760Y-74164955D01*
X143991942Y-74143257D01*
X143992290Y-74140612D01*
X143937871Y-74124633D01*
X143892116Y-74071829D01*
X143882172Y-74002671D01*
X143886082Y-73988419D01*
X143899723Y-73919837D01*
X143899724Y-73919835D01*
X143899724Y-72880334D01*
X143899723Y-72880332D01*
X143888092Y-72821855D01*
X143888091Y-72821854D01*
X143836991Y-72745378D01*
X143840139Y-72743274D01*
X143817025Y-72700943D01*
X143822009Y-72631251D01*
X143863881Y-72575318D01*
X143929345Y-72550901D01*
X143938191Y-72550585D01*
X144718974Y-72550585D01*
X144718975Y-72550584D01*
X144733792Y-72547637D01*
X144777453Y-72538953D01*
X144777453Y-72538952D01*
X144777455Y-72538952D01*
X144843776Y-72494637D01*
X144888091Y-72428316D01*
X144888091Y-72428314D01*
X144888092Y-72428314D01*
X144899723Y-72369837D01*
X144899724Y-72369835D01*
X144899724Y-71630334D01*
X144899723Y-71630332D01*
X144888092Y-71571855D01*
X144888091Y-71571854D01*
X144843776Y-71505532D01*
X144777454Y-71461217D01*
X144777453Y-71461216D01*
X144718976Y-71449585D01*
X144718972Y-71449585D01*
X143179476Y-71449585D01*
X143179471Y-71449585D01*
X143120994Y-71461216D01*
X143120993Y-71461217D01*
X143054671Y-71505532D01*
X143010356Y-71571854D01*
X143010355Y-71571855D01*
X142998724Y-71630332D01*
X142998724Y-72369837D01*
X143010355Y-72428314D01*
X143010356Y-72428315D01*
X143061457Y-72504792D01*
X143058308Y-72506895D01*
X143081423Y-72549227D01*
X143076439Y-72618919D01*
X143034567Y-72674852D01*
X142969103Y-72699269D01*
X142960257Y-72699585D01*
X142879471Y-72699585D01*
X142820994Y-72711216D01*
X142820993Y-72711217D01*
X142754671Y-72755532D01*
X142710356Y-72821854D01*
X142710355Y-72821855D01*
X142698724Y-72880332D01*
X142698724Y-73919837D01*
X142710355Y-73978314D01*
X142710356Y-73978315D01*
X142754671Y-74044637D01*
X142820993Y-74088952D01*
X142820994Y-74088953D01*
X142879471Y-74100584D01*
X142879474Y-74100585D01*
X143494612Y-74100585D01*
X143561651Y-74120270D01*
X143607406Y-74173074D01*
X143617350Y-74242232D01*
X143588325Y-74305788D01*
X143576609Y-74316826D01*
X143571722Y-74321713D01*
X143475463Y-74447160D01*
X143414956Y-74593237D01*
X143414955Y-74593239D01*
X143394318Y-74749998D01*
X143394318Y-74750000D01*
X143414955Y-74906760D01*
X143414956Y-74906762D01*
X143475464Y-75052841D01*
X143571718Y-75178282D01*
X143697159Y-75274536D01*
X143843238Y-75335044D01*
X143905478Y-75343238D01*
X143999999Y-75355682D01*
X144000000Y-75355682D01*
X144000001Y-75355682D01*
X144094514Y-75343239D01*
X144156762Y-75335044D01*
X144157018Y-75334937D01*
X144157557Y-75334830D01*
X144164613Y-75332940D01*
X144164736Y-75333402D01*
X144204468Y-75325500D01*
X144424102Y-75325500D01*
X144491141Y-75345185D01*
X144518392Y-75368968D01*
X144548801Y-75404572D01*
X145273157Y-75404572D01*
X145340196Y-75424257D01*
X145385951Y-75477061D01*
X145397157Y-75528572D01*
X145397157Y-75780572D01*
X145377472Y-75847611D01*
X145324668Y-75893366D01*
X145273157Y-75904572D01*
X144548800Y-75904572D01*
X144554861Y-75942843D01*
X144557878Y-75952126D01*
X144555836Y-75952789D01*
X144566344Y-76008736D01*
X144540069Y-76073477D01*
X144482963Y-76113735D01*
X144442963Y-76120364D01*
X142539943Y-76120364D01*
X142531441Y-76176495D01*
X142540135Y-76196315D01*
X142541146Y-76212094D01*
X142541196Y-76497586D01*
X142521523Y-76564629D01*
X142468727Y-76610393D01*
X142399570Y-76620349D01*
X142342885Y-76596875D01*
X142272028Y-76543831D01*
X142140678Y-76494840D01*
X142082637Y-76488599D01*
X142048491Y-76488599D01*
X142048491Y-77402099D01*
X142028806Y-77469138D01*
X141976002Y-77514893D01*
X141924491Y-77526099D01*
X141073491Y-77526099D01*
X141073491Y-77622745D01*
X141079732Y-77680786D01*
X141128723Y-77812136D01*
X141212732Y-77924357D01*
X141324953Y-78008366D01*
X141434090Y-78049072D01*
X141490023Y-78090944D01*
X141514440Y-78156408D01*
X141499588Y-78224681D01*
X141450183Y-78274086D01*
X141431712Y-78282295D01*
X141354014Y-78309483D01*
X141247780Y-78387887D01*
X141247779Y-78387888D01*
X141169375Y-78494122D01*
X141125765Y-78618749D01*
X141122991Y-78648338D01*
X141122991Y-79353859D01*
X141125765Y-79383448D01*
X141169375Y-79508075D01*
X141247779Y-79614309D01*
X141247780Y-79614310D01*
X141354014Y-79692714D01*
X141354015Y-79692714D01*
X141354016Y-79692715D01*
X141478642Y-79736324D01*
X141478641Y-79736324D01*
X141508231Y-79739099D01*
X141508235Y-79739099D01*
X142088751Y-79739099D01*
X142118340Y-79736324D01*
X142242966Y-79692715D01*
X142344132Y-79618051D01*
X142409757Y-79594082D01*
X142477927Y-79609397D01*
X142526996Y-79659137D01*
X142541762Y-79717801D01*
X142541776Y-79800992D01*
X142541777Y-79800993D01*
X143200782Y-79802480D01*
X143267775Y-79822316D01*
X143313410Y-79875223D01*
X143324500Y-79926480D01*
X143324500Y-79978841D01*
X143324500Y-80064547D01*
X143335748Y-80106524D01*
X143342297Y-80130966D01*
X143346522Y-80163059D01*
X143346522Y-80474958D01*
X143351602Y-80509827D01*
X143356589Y-80544058D01*
X143408698Y-80650646D01*
X143492591Y-80734539D01*
X143599179Y-80786648D01*
X143599180Y-80786648D01*
X143599182Y-80786649D01*
X143668280Y-80796716D01*
X143668286Y-80796716D01*
X143814813Y-80796716D01*
X143881852Y-80816401D01*
X143927607Y-80869205D01*
X143937551Y-80938363D01*
X143908526Y-81001919D01*
X143890299Y-81019092D01*
X143821716Y-81071716D01*
X143725460Y-81197160D01*
X143664953Y-81343237D01*
X143664952Y-81343239D01*
X143644315Y-81499998D01*
X143644315Y-81500001D01*
X143664952Y-81656760D01*
X143664953Y-81656762D01*
X143712590Y-81771769D01*
X143725461Y-81802841D01*
X143821715Y-81928282D01*
X143875984Y-81969924D01*
X143917186Y-82026349D01*
X143924497Y-82068298D01*
X143924497Y-82112813D01*
X143936529Y-82157716D01*
X143946679Y-82195598D01*
X143946678Y-82195598D01*
X143946679Y-82195599D01*
X143989532Y-82269822D01*
X144230175Y-82510465D01*
X144304398Y-82553318D01*
X144387184Y-82575500D01*
X144710108Y-82575500D01*
X144749425Y-82587044D01*
X144770786Y-82576981D01*
X144789892Y-82575500D01*
X145101071Y-82575500D01*
X145168110Y-82595185D01*
X145188752Y-82611819D01*
X145289752Y-82712819D01*
X145323237Y-82774142D01*
X145318253Y-82843834D01*
X145276381Y-82899767D01*
X145210917Y-82924184D01*
X145202071Y-82924500D01*
X145126257Y-82924500D01*
X145059218Y-82904815D01*
X145053900Y-82901075D01*
X145052836Y-82900461D01*
X144906765Y-82839957D01*
X144906760Y-82839955D01*
X144773707Y-82822439D01*
X144753077Y-82813313D01*
X144745043Y-82818477D01*
X144726293Y-82822439D01*
X144593239Y-82839955D01*
X144593237Y-82839956D01*
X144447160Y-82900463D01*
X144321718Y-82996718D01*
X144225463Y-83122160D01*
X144164956Y-83268237D01*
X144164955Y-83268239D01*
X144144318Y-83424998D01*
X144144318Y-83425001D01*
X144164955Y-83581760D01*
X144164956Y-83581762D01*
X144207052Y-83683392D01*
X144225464Y-83727841D01*
X144321718Y-83853282D01*
X144447159Y-83949536D01*
X144593238Y-84010044D01*
X144624465Y-84014155D01*
X144688362Y-84042421D01*
X144726833Y-84100746D01*
X144731219Y-84153279D01*
X144713802Y-84285579D01*
X144713802Y-84285582D01*
X144734439Y-84442341D01*
X144734440Y-84442343D01*
X144779005Y-84549932D01*
X144786474Y-84619402D01*
X144755199Y-84681881D01*
X144716755Y-84708575D01*
X144716854Y-84708745D01*
X144714818Y-84709920D01*
X144711907Y-84711942D01*
X144709818Y-84712807D01*
X144709811Y-84712811D01*
X144584372Y-84809063D01*
X144488116Y-84934507D01*
X144458589Y-85005792D01*
X144414748Y-85060196D01*
X144348453Y-85082260D01*
X144280754Y-85064980D01*
X144256347Y-85046020D01*
X143786819Y-84576492D01*
X143753334Y-84515169D01*
X143750500Y-84488811D01*
X143750500Y-82992148D01*
X143750500Y-82992147D01*
X143745677Y-82974148D01*
X143734444Y-82932223D01*
X143728319Y-82909363D01*
X143723181Y-82900464D01*
X143685465Y-82835138D01*
X143339862Y-82489535D01*
X143302637Y-82468043D01*
X143265640Y-82446682D01*
X143207522Y-82431110D01*
X143182853Y-82424500D01*
X141542853Y-82424500D01*
X141457147Y-82424500D01*
X141374359Y-82446682D01*
X141300138Y-82489535D01*
X141300135Y-82489537D01*
X140489537Y-83300135D01*
X140489530Y-83300144D01*
X140487961Y-83302863D01*
X140486037Y-83304697D01*
X140484587Y-83306587D01*
X140484292Y-83306360D01*
X140437392Y-83351076D01*
X140368784Y-83364296D01*
X140303921Y-83338325D01*
X140263395Y-83281409D01*
X140256577Y-83240881D01*
X140255425Y-77026099D01*
X141073491Y-77026099D01*
X141548491Y-77026099D01*
X141548491Y-76488599D01*
X141514344Y-76488599D01*
X141456303Y-76494840D01*
X141324953Y-76543831D01*
X141212732Y-76627840D01*
X141128723Y-76740061D01*
X141079732Y-76871411D01*
X141073491Y-76929452D01*
X141073491Y-77026099D01*
X140255425Y-77026099D01*
X140254865Y-74003163D01*
X140274537Y-73936121D01*
X140327333Y-73890356D01*
X140396489Y-73880400D01*
X140460050Y-73909413D01*
X140497836Y-73968184D01*
X140500284Y-73978140D01*
X140500356Y-73978315D01*
X140544671Y-74044637D01*
X140610993Y-74088952D01*
X140610994Y-74088953D01*
X140669471Y-74100584D01*
X140669474Y-74100585D01*
X140669476Y-74100585D01*
X141508974Y-74100585D01*
X141508975Y-74100584D01*
X141523792Y-74097637D01*
X141567453Y-74088953D01*
X141567453Y-74088952D01*
X141567455Y-74088952D01*
X141633776Y-74044637D01*
X141678091Y-73978316D01*
X141678091Y-73978314D01*
X141678092Y-73978314D01*
X141689723Y-73919837D01*
X141689724Y-73919835D01*
X141689724Y-72880334D01*
X141689723Y-72880332D01*
X141678092Y-72821855D01*
X141678091Y-72821854D01*
X141633776Y-72755532D01*
X141567454Y-72711217D01*
X141567453Y-72711216D01*
X141508976Y-72699585D01*
X141508972Y-72699585D01*
X140669476Y-72699585D01*
X140669471Y-72699585D01*
X140610994Y-72711216D01*
X140610993Y-72711217D01*
X140544671Y-72755532D01*
X140500356Y-72821854D01*
X140500259Y-72822344D01*
X140499752Y-72823311D01*
X140495682Y-72833139D01*
X140494802Y-72832774D01*
X140467873Y-72884254D01*
X140407157Y-72918828D01*
X140337388Y-72915087D01*
X140280716Y-72874220D01*
X140255135Y-72809202D01*
X140254642Y-72798174D01*
X140254368Y-71322560D01*
X141638724Y-71322560D01*
X141675878Y-71461218D01*
X141676241Y-71462573D01*
X141748712Y-71588096D01*
X141748714Y-71588098D01*
X141748715Y-71588100D01*
X141851209Y-71690594D01*
X141851210Y-71690595D01*
X141851212Y-71690596D01*
X141976735Y-71763067D01*
X141976736Y-71763067D01*
X141976739Y-71763069D01*
X142116749Y-71800585D01*
X142116752Y-71800585D01*
X142261696Y-71800585D01*
X142261699Y-71800585D01*
X142401709Y-71763069D01*
X142527239Y-71690594D01*
X142629733Y-71588100D01*
X142702208Y-71462570D01*
X142739724Y-71322560D01*
X142739724Y-71177610D01*
X142702208Y-71037600D01*
X142693309Y-71022187D01*
X142629735Y-70912073D01*
X142629730Y-70912067D01*
X142527241Y-70809578D01*
X142527235Y-70809573D01*
X142401712Y-70737102D01*
X142401713Y-70737102D01*
X142390230Y-70734025D01*
X142261699Y-70699585D01*
X142116749Y-70699585D01*
X141988217Y-70734025D01*
X141976735Y-70737102D01*
X141851212Y-70809573D01*
X141851206Y-70809578D01*
X141748717Y-70912067D01*
X141748712Y-70912073D01*
X141676241Y-71037596D01*
X141676240Y-71037600D01*
X141638724Y-71177610D01*
X141638724Y-71322560D01*
X140254368Y-71322560D01*
X140254214Y-70491500D01*
X140253511Y-66696356D01*
X140273183Y-66629314D01*
X140325979Y-66583549D01*
X140395135Y-66573593D01*
X140458696Y-66602606D01*
X140496482Y-66661377D01*
X140499128Y-66672141D01*
X140500356Y-66678314D01*
X140500356Y-66678315D01*
X140544671Y-66744637D01*
X140610993Y-66788952D01*
X140610994Y-66788953D01*
X140669471Y-66800584D01*
X140669474Y-66800585D01*
X140669476Y-66800585D01*
X141508974Y-66800585D01*
X141526308Y-66797137D01*
X141595900Y-66803364D01*
X141651077Y-66846227D01*
X141674322Y-66912116D01*
X141674500Y-66918754D01*
X141674500Y-66924234D01*
X141674500Y-67075766D01*
X141678326Y-67090044D01*
X141713719Y-67222136D01*
X141751602Y-67287750D01*
X141789485Y-67353365D01*
X141789487Y-67353367D01*
X141987035Y-67550915D01*
X142020520Y-67612238D01*
X142015536Y-67681930D01*
X141973664Y-67737863D01*
X141961355Y-67745982D01*
X141861383Y-67803702D01*
X141851209Y-67809576D01*
X141851206Y-67809578D01*
X141748717Y-67912067D01*
X141748712Y-67912073D01*
X141676241Y-68037596D01*
X141676240Y-68037600D01*
X141638724Y-68177610D01*
X141638724Y-68322560D01*
X141674346Y-68455500D01*
X141676241Y-68462573D01*
X141748712Y-68588096D01*
X141748714Y-68588098D01*
X141748715Y-68588100D01*
X141851209Y-68690594D01*
X141851210Y-68690595D01*
X141851212Y-68690596D01*
X141976735Y-68763067D01*
X141976736Y-68763067D01*
X141976739Y-68763069D01*
X142116749Y-68800585D01*
X142116752Y-68800585D01*
X142261696Y-68800585D01*
X142261699Y-68800585D01*
X142401709Y-68763069D01*
X142527239Y-68690594D01*
X142629733Y-68588100D01*
X142702208Y-68462570D01*
X142739724Y-68322560D01*
X142739724Y-68199585D01*
X142759409Y-68132546D01*
X142812213Y-68086791D01*
X142863724Y-68075585D01*
X144024988Y-68075585D01*
X144024990Y-68075585D01*
X144102524Y-68054810D01*
X144134617Y-68050585D01*
X144718974Y-68050585D01*
X144718975Y-68050584D01*
X144733792Y-68047637D01*
X144777453Y-68038953D01*
X144777453Y-68038952D01*
X144777455Y-68038952D01*
X144843776Y-67994637D01*
X144888091Y-67928316D01*
X144888091Y-67928314D01*
X144888092Y-67928314D01*
X144899723Y-67869837D01*
X144899724Y-67869835D01*
X144899724Y-67130334D01*
X144899723Y-67130332D01*
X144888092Y-67071855D01*
X144888091Y-67071854D01*
X144843776Y-67005532D01*
X144777454Y-66961217D01*
X144777453Y-66961216D01*
X144718976Y-66949585D01*
X144718972Y-66949585D01*
X144134617Y-66949585D01*
X144102524Y-66945360D01*
X144099685Y-66944599D01*
X144024990Y-66924585D01*
X144024989Y-66924585D01*
X143955527Y-66924585D01*
X143888488Y-66904900D01*
X143842733Y-66852096D01*
X143832789Y-66782938D01*
X143852425Y-66731694D01*
X143876037Y-66696356D01*
X143888091Y-66678316D01*
X143888091Y-66678314D01*
X143888092Y-66678314D01*
X143899723Y-66619837D01*
X143899724Y-66619835D01*
X143899724Y-65580334D01*
X143899723Y-65580332D01*
X143888092Y-65521855D01*
X143888091Y-65521854D01*
X143843776Y-65455532D01*
X143777454Y-65411217D01*
X143777453Y-65411216D01*
X143718976Y-65399585D01*
X143718972Y-65399585D01*
X142949500Y-65399585D01*
X142882461Y-65379900D01*
X142836706Y-65327096D01*
X142825500Y-65275585D01*
X142825500Y-64626657D01*
X142845185Y-64559618D01*
X142897989Y-64513863D01*
X142949500Y-64502657D01*
X143164181Y-64502657D01*
X143164182Y-64502656D01*
X143178999Y-64499709D01*
X143222660Y-64491025D01*
X143222660Y-64491024D01*
X143222662Y-64491024D01*
X143288983Y-64446709D01*
X143333298Y-64380388D01*
X143333298Y-64380386D01*
X143333299Y-64380386D01*
X143344930Y-64321909D01*
X143344931Y-64321907D01*
X143344931Y-63653219D01*
X143364616Y-63586180D01*
X143417420Y-63540425D01*
X143468931Y-63529219D01*
X144354382Y-63529219D01*
X144421421Y-63548904D01*
G37*
%TD.AperFunction*%
%TA.AperFunction,Conductor*%
G36*
X145668834Y-80639672D02*
G01*
X145724767Y-80681544D01*
X145749184Y-80747008D01*
X145749500Y-80755854D01*
X145749500Y-80842288D01*
X145759681Y-80893475D01*
X145784828Y-80931110D01*
X145805705Y-80997788D01*
X145787220Y-81065168D01*
X145784828Y-81068890D01*
X145759682Y-81106524D01*
X145759681Y-81106524D01*
X145749500Y-81157711D01*
X145749500Y-81342288D01*
X145759681Y-81393475D01*
X145784828Y-81431110D01*
X145805705Y-81497788D01*
X145787220Y-81565168D01*
X145784828Y-81568890D01*
X145759682Y-81606524D01*
X145759681Y-81606524D01*
X145749500Y-81657711D01*
X145749500Y-81839518D01*
X145729815Y-81906557D01*
X145713180Y-81927200D01*
X145656654Y-81983725D01*
X145595331Y-82017209D01*
X145525639Y-82012224D01*
X145493491Y-81994422D01*
X145487123Y-81989536D01*
X145487122Y-81989535D01*
X145427793Y-81955281D01*
X145412900Y-81946682D01*
X145371506Y-81935591D01*
X145330113Y-81924500D01*
X145330112Y-81924500D01*
X144909719Y-81924500D01*
X144842680Y-81904815D01*
X144796925Y-81852011D01*
X144786981Y-81782853D01*
X144795158Y-81753047D01*
X144835041Y-81656762D01*
X144855679Y-81500000D01*
X144835041Y-81343238D01*
X144774533Y-81197159D01*
X144678279Y-81071718D01*
X144552838Y-80975464D01*
X144552836Y-80975463D01*
X144400923Y-80912538D01*
X144346520Y-80868697D01*
X144324455Y-80802402D01*
X144341735Y-80734703D01*
X144360692Y-80710298D01*
X144394342Y-80676649D01*
X144455666Y-80643165D01*
X144525357Y-80648151D01*
X144569703Y-80676651D01*
X144627591Y-80734539D01*
X144734179Y-80786648D01*
X144734180Y-80786648D01*
X144734182Y-80786649D01*
X144803280Y-80796716D01*
X144803286Y-80796716D01*
X145295758Y-80796716D01*
X145295764Y-80796716D01*
X145364862Y-80786649D01*
X145471451Y-80734540D01*
X145471452Y-80734539D01*
X145471454Y-80734538D01*
X145537819Y-80668173D01*
X145599142Y-80634688D01*
X145668834Y-80639672D01*
G37*
%TD.AperFunction*%
%TA.AperFunction,Conductor*%
G36*
X153955703Y-78414225D02*
G01*
X153972876Y-78432452D01*
X154024048Y-78499142D01*
X154030878Y-78508042D01*
X154156319Y-78604296D01*
X154302398Y-78664804D01*
X154330708Y-78668531D01*
X154459159Y-78685442D01*
X154459159Y-78685441D01*
X154459160Y-78685442D01*
X154526977Y-78676513D01*
X154596012Y-78687278D01*
X154630844Y-78711771D01*
X154638181Y-78719108D01*
X154671666Y-78780431D01*
X154674500Y-78806789D01*
X154674500Y-79875500D01*
X154654815Y-79942539D01*
X154602011Y-79988294D01*
X154550500Y-79999500D01*
X154232711Y-79999500D01*
X154181524Y-80009681D01*
X154181523Y-80009682D01*
X154123471Y-80048471D01*
X154084682Y-80106523D01*
X154084681Y-80106524D01*
X154074500Y-80157711D01*
X154074500Y-80339518D01*
X154054815Y-80406557D01*
X154038181Y-80427199D01*
X153979667Y-80485712D01*
X153979666Y-80485713D01*
X153976587Y-80492318D01*
X153930414Y-80544757D01*
X153863220Y-80563908D01*
X153796340Y-80543691D01*
X153776525Y-80527593D01*
X153238469Y-79989537D01*
X153238468Y-79989536D01*
X153238467Y-79989535D01*
X153182039Y-79956956D01*
X153164245Y-79946682D01*
X153090829Y-79927011D01*
X153081458Y-79924500D01*
X153081457Y-79924500D01*
X152336533Y-79924500D01*
X152269494Y-79904815D01*
X152223739Y-79852011D01*
X152213795Y-79782853D01*
X152242820Y-79719297D01*
X152248848Y-79712823D01*
X152253917Y-79707754D01*
X152259467Y-79702203D01*
X152320786Y-79668717D01*
X152371342Y-79668265D01*
X152407713Y-79675500D01*
X152407716Y-79675500D01*
X152592286Y-79675500D01*
X152592287Y-79675499D01*
X152609362Y-79672103D01*
X152643475Y-79665318D01*
X152643475Y-79665317D01*
X152643477Y-79665317D01*
X152681109Y-79640172D01*
X152747786Y-79619294D01*
X152815166Y-79637778D01*
X152818891Y-79640172D01*
X152856523Y-79665317D01*
X152856524Y-79665318D01*
X152907711Y-79675499D01*
X152907714Y-79675500D01*
X152907716Y-79675500D01*
X153092286Y-79675500D01*
X153092287Y-79675499D01*
X153109362Y-79672103D01*
X153143475Y-79665318D01*
X153143475Y-79665317D01*
X153143477Y-79665317D01*
X153181109Y-79640172D01*
X153247786Y-79619294D01*
X153315166Y-79637778D01*
X153318891Y-79640172D01*
X153356523Y-79665317D01*
X153356524Y-79665318D01*
X153407711Y-79675499D01*
X153407714Y-79675500D01*
X153407716Y-79675500D01*
X153592286Y-79675500D01*
X153592287Y-79675499D01*
X153609362Y-79672103D01*
X153643475Y-79665318D01*
X153643475Y-79665317D01*
X153643477Y-79665317D01*
X153701528Y-79626528D01*
X153740317Y-79568477D01*
X153740317Y-79568475D01*
X153740318Y-79568475D01*
X153750499Y-79517288D01*
X153750500Y-79517286D01*
X153750500Y-78507938D01*
X153770185Y-78440899D01*
X153822989Y-78395144D01*
X153892147Y-78385200D01*
X153955703Y-78414225D01*
G37*
%TD.AperFunction*%
%TA.AperFunction,Conductor*%
G36*
X157867539Y-74530916D02*
G01*
X157913294Y-74583720D01*
X157924500Y-74635231D01*
X157924500Y-77914811D01*
X157904815Y-77981850D01*
X157852011Y-78027605D01*
X157782853Y-78037549D01*
X157719297Y-78008524D01*
X157712819Y-78002492D01*
X156525650Y-76815324D01*
X156492165Y-76754001D01*
X156490392Y-76711457D01*
X156492480Y-76695602D01*
X156499321Y-76643639D01*
X156498473Y-76637201D01*
X156478683Y-76486878D01*
X156478683Y-76486877D01*
X156418175Y-76340798D01*
X156321921Y-76215357D01*
X156196480Y-76119103D01*
X156050401Y-76058595D01*
X156050399Y-76058594D01*
X155893640Y-76037957D01*
X155893638Y-76037957D01*
X155736878Y-76058594D01*
X155736876Y-76058595D01*
X155590799Y-76119102D01*
X155465357Y-76215357D01*
X155369102Y-76340799D01*
X155308595Y-76486876D01*
X155308595Y-76486877D01*
X155288804Y-76637201D01*
X155260537Y-76701097D01*
X155202213Y-76739568D01*
X155149683Y-76743954D01*
X155141298Y-76742851D01*
X155141296Y-76742851D01*
X155141295Y-76742851D01*
X154984537Y-76763488D01*
X154984535Y-76763489D01*
X154838458Y-76823996D01*
X154713016Y-76920251D01*
X154616761Y-77045693D01*
X154556254Y-77191770D01*
X154556253Y-77191772D01*
X154535616Y-77348531D01*
X154535616Y-77355267D01*
X154515931Y-77422306D01*
X154463127Y-77468061D01*
X154427801Y-77478206D01*
X154391341Y-77483006D01*
X154322306Y-77472240D01*
X154287475Y-77447748D01*
X154066489Y-77226762D01*
X154033004Y-77165439D01*
X154030170Y-77139081D01*
X154030170Y-77102554D01*
X154026361Y-77076410D01*
X154019962Y-77032482D01*
X154019960Y-77032477D01*
X154019960Y-77032476D01*
X153967122Y-76924395D01*
X153967120Y-76924392D01*
X153882046Y-76839318D01*
X153882043Y-76839316D01*
X153773960Y-76786478D01*
X153773958Y-76786477D01*
X153773957Y-76786477D01*
X153703886Y-76776268D01*
X153703880Y-76776268D01*
X153463360Y-76776268D01*
X153396321Y-76756583D01*
X153375679Y-76739949D01*
X152557767Y-75922037D01*
X152557765Y-75922035D01*
X152520653Y-75900608D01*
X152483543Y-75879182D01*
X152442149Y-75868091D01*
X152400756Y-75857000D01*
X152400755Y-75857000D01*
X151822870Y-75857000D01*
X151755831Y-75837315D01*
X151711471Y-75787463D01*
X151699688Y-75763362D01*
X151687927Y-75694489D01*
X151712710Y-75633414D01*
X151774536Y-75552841D01*
X151835044Y-75406762D01*
X151852452Y-75274536D01*
X151855682Y-75250001D01*
X151855682Y-75249998D01*
X151835044Y-75093239D01*
X151835044Y-75093238D01*
X151774536Y-74947159D01*
X151678282Y-74821718D01*
X151678280Y-74821717D01*
X151678280Y-74821716D01*
X151563453Y-74733607D01*
X151522250Y-74677179D01*
X151518095Y-74607433D01*
X151552307Y-74546513D01*
X151614025Y-74513760D01*
X151638939Y-74511231D01*
X157800500Y-74511231D01*
X157867539Y-74530916D01*
G37*
%TD.AperFunction*%
%TA.AperFunction,Conductor*%
G36*
X150592935Y-75095185D02*
G01*
X150638690Y-75147989D01*
X150648835Y-75215684D01*
X150644318Y-75249997D01*
X150644318Y-75250001D01*
X150664955Y-75406760D01*
X150664957Y-75406765D01*
X150687479Y-75461139D01*
X150694948Y-75530609D01*
X150663672Y-75593088D01*
X150603583Y-75628739D01*
X150555042Y-75631296D01*
X150495663Y-75622645D01*
X150003179Y-75622645D01*
X149961351Y-75628739D01*
X149934078Y-75632712D01*
X149827491Y-75684821D01*
X149804602Y-75707710D01*
X149743278Y-75741194D01*
X149673587Y-75736208D01*
X149629241Y-75707708D01*
X149567946Y-75646413D01*
X149567941Y-75646410D01*
X149453630Y-75588164D01*
X149364421Y-75574035D01*
X149364421Y-77220782D01*
X149344736Y-77287821D01*
X149291932Y-77333576D01*
X149240421Y-77344782D01*
X148988421Y-77344782D01*
X148921382Y-77325097D01*
X148875627Y-77272293D01*
X148864421Y-77220782D01*
X148864421Y-75550599D01*
X148860804Y-75545059D01*
X148857819Y-75508128D01*
X148855682Y-75508128D01*
X148855682Y-75499999D01*
X148846753Y-75432181D01*
X148857518Y-75363146D01*
X148882005Y-75328320D01*
X149098509Y-75111816D01*
X149159831Y-75078334D01*
X149186189Y-75075500D01*
X150525896Y-75075500D01*
X150592935Y-75095185D01*
G37*
%TD.AperFunction*%
%TA.AperFunction,Conductor*%
G36*
X155137539Y-48269685D02*
G01*
X155183294Y-48322489D01*
X155194500Y-48374000D01*
X155194500Y-49078544D01*
X155174815Y-49145583D01*
X155122011Y-49191338D01*
X155052853Y-49201282D01*
X155032180Y-49196474D01*
X155028275Y-49195205D01*
X154932274Y-49180000D01*
X154927500Y-49180000D01*
X154927500Y-50319999D01*
X154932267Y-50319999D01*
X155028279Y-50304793D01*
X155032182Y-50303525D01*
X155037189Y-50303381D01*
X155037915Y-50303267D01*
X155037929Y-50303360D01*
X155102023Y-50301530D01*
X155161856Y-50337611D01*
X155192684Y-50400312D01*
X155194500Y-50421456D01*
X155194500Y-50518500D01*
X155174815Y-50585539D01*
X155122011Y-50631294D01*
X155070500Y-50642500D01*
X155000000Y-50642500D01*
X155000000Y-52942500D01*
X155174626Y-52942500D01*
X155174628Y-52942499D01*
X155247540Y-52927996D01*
X155247544Y-52927994D01*
X155287110Y-52901558D01*
X155353787Y-52880680D01*
X155380193Y-52883043D01*
X155430249Y-52893000D01*
X155430252Y-52893000D01*
X156269750Y-52893000D01*
X156319806Y-52883043D01*
X156389398Y-52889270D01*
X156412888Y-52901557D01*
X156452456Y-52927995D01*
X156452459Y-52927996D01*
X156525371Y-52942499D01*
X156525374Y-52942500D01*
X156700000Y-52942500D01*
X156700000Y-52042500D01*
X157200000Y-52042500D01*
X157200000Y-52942500D01*
X157374626Y-52942500D01*
X157374628Y-52942499D01*
X157447540Y-52927996D01*
X157447544Y-52927994D01*
X157530239Y-52872739D01*
X157585494Y-52790044D01*
X157585496Y-52790040D01*
X157599999Y-52717128D01*
X157600000Y-52717126D01*
X157600000Y-52042500D01*
X157200000Y-52042500D01*
X156700000Y-52042500D01*
X156700000Y-50642500D01*
X157200000Y-50642500D01*
X157200000Y-51542500D01*
X157600000Y-51542500D01*
X157600000Y-50867873D01*
X157599999Y-50867871D01*
X157585496Y-50794959D01*
X157585494Y-50794955D01*
X157530239Y-50712260D01*
X157447544Y-50657005D01*
X157447540Y-50657003D01*
X157374627Y-50642500D01*
X157200000Y-50642500D01*
X156700000Y-50642500D01*
X156525375Y-50642500D01*
X156493689Y-50648802D01*
X156424097Y-50642573D01*
X156368921Y-50599709D01*
X156345678Y-50533818D01*
X156345500Y-50527184D01*
X156345500Y-50144821D01*
X156358100Y-50090360D01*
X156362879Y-50080586D01*
X156395291Y-50014286D01*
X156405500Y-49944215D01*
X156405499Y-49555786D01*
X156395291Y-49485714D01*
X156358100Y-49409638D01*
X156345500Y-49355178D01*
X156345500Y-48374000D01*
X156365185Y-48306961D01*
X156417989Y-48261206D01*
X156469500Y-48250000D01*
X158626000Y-48250000D01*
X158693039Y-48269685D01*
X158738794Y-48322489D01*
X158750000Y-48374000D01*
X158750000Y-57627250D01*
X158730315Y-57694289D01*
X158677511Y-57740044D01*
X158608353Y-57749988D01*
X158544797Y-57720963D01*
X158518613Y-57689250D01*
X158510467Y-57675141D01*
X158510463Y-57675136D01*
X153940008Y-53104681D01*
X153906523Y-53043358D01*
X153911507Y-52973666D01*
X153953379Y-52917733D01*
X154018843Y-52893316D01*
X154027689Y-52893000D01*
X154069750Y-52893000D01*
X154119806Y-52883043D01*
X154189398Y-52889270D01*
X154212888Y-52901557D01*
X154252456Y-52927995D01*
X154252459Y-52927996D01*
X154325371Y-52942499D01*
X154325374Y-52942500D01*
X154500000Y-52942500D01*
X154500000Y-50642500D01*
X154325373Y-50642500D01*
X154252459Y-50657003D01*
X154252456Y-50657004D01*
X154212887Y-50683443D01*
X154146209Y-50704319D01*
X154119808Y-50701957D01*
X154069748Y-50692000D01*
X153230252Y-50692000D01*
X153230247Y-50692000D01*
X153171770Y-50703631D01*
X153171768Y-50703632D01*
X153168887Y-50705558D01*
X153161655Y-50707822D01*
X153160487Y-50708306D01*
X153160443Y-50708201D01*
X153102209Y-50726433D01*
X153034829Y-50707946D01*
X153031113Y-50705558D01*
X153028231Y-50703632D01*
X153028229Y-50703631D01*
X152969752Y-50692000D01*
X152969748Y-50692000D01*
X152130252Y-50692000D01*
X152130247Y-50692000D01*
X152071770Y-50703631D01*
X152071768Y-50703632D01*
X152068887Y-50705558D01*
X152061655Y-50707822D01*
X152060487Y-50708306D01*
X152060443Y-50708201D01*
X152002209Y-50726433D01*
X151934829Y-50707946D01*
X151931113Y-50705558D01*
X151928231Y-50703632D01*
X151928229Y-50703631D01*
X151869752Y-50692000D01*
X151869748Y-50692000D01*
X151030252Y-50692000D01*
X151030247Y-50692000D01*
X150971770Y-50703631D01*
X150971768Y-50703632D01*
X150968887Y-50705558D01*
X150961655Y-50707822D01*
X150960487Y-50708306D01*
X150960443Y-50708201D01*
X150902209Y-50726433D01*
X150834829Y-50707946D01*
X150831113Y-50705558D01*
X150828231Y-50703632D01*
X150828229Y-50703631D01*
X150769752Y-50692000D01*
X150769748Y-50692000D01*
X149930252Y-50692000D01*
X149930247Y-50692000D01*
X149871770Y-50703631D01*
X149871768Y-50703632D01*
X149868887Y-50705558D01*
X149861655Y-50707822D01*
X149860487Y-50708306D01*
X149860443Y-50708201D01*
X149802209Y-50726433D01*
X149734829Y-50707946D01*
X149731113Y-50705558D01*
X149728231Y-50703632D01*
X149728229Y-50703631D01*
X149669752Y-50692000D01*
X149669748Y-50692000D01*
X148830252Y-50692000D01*
X148830247Y-50692000D01*
X148771770Y-50703631D01*
X148771768Y-50703632D01*
X148768887Y-50705558D01*
X148761655Y-50707822D01*
X148760487Y-50708306D01*
X148760443Y-50708201D01*
X148702209Y-50726433D01*
X148634829Y-50707946D01*
X148631113Y-50705558D01*
X148628231Y-50703632D01*
X148628229Y-50703631D01*
X148569752Y-50692000D01*
X148569748Y-50692000D01*
X147730252Y-50692000D01*
X147730247Y-50692000D01*
X147671770Y-50703631D01*
X147671769Y-50703632D01*
X147605447Y-50747947D01*
X147561132Y-50814269D01*
X147561131Y-50814270D01*
X147549500Y-50872747D01*
X147549500Y-52568000D01*
X147529815Y-52635039D01*
X147477011Y-52680794D01*
X147425500Y-52692000D01*
X147203689Y-52692000D01*
X147136650Y-52672315D01*
X147116008Y-52655681D01*
X145861819Y-51401492D01*
X145828334Y-51340169D01*
X145825500Y-51313811D01*
X145825500Y-50707148D01*
X145825500Y-50707147D01*
X145814568Y-50666349D01*
X145803318Y-50624361D01*
X145778845Y-50581974D01*
X145775107Y-50575500D01*
X145760467Y-50550141D01*
X145760466Y-50550140D01*
X145760465Y-50550138D01*
X145699862Y-50489535D01*
X145699861Y-50489534D01*
X145695531Y-50485204D01*
X145695520Y-50485194D01*
X145210327Y-50000000D01*
X154054143Y-50000000D01*
X154060204Y-50038271D01*
X154060204Y-50038272D01*
X154119169Y-50153997D01*
X154119172Y-50154001D01*
X154210998Y-50245827D01*
X154211002Y-50245830D01*
X154326728Y-50304795D01*
X154422726Y-50319999D01*
X154427500Y-50319998D01*
X154427500Y-50000000D01*
X154054143Y-50000000D01*
X145210327Y-50000000D01*
X145199864Y-49989537D01*
X145199863Y-49989536D01*
X145199862Y-49989535D01*
X145162750Y-49968108D01*
X145125640Y-49946682D01*
X145080197Y-49934506D01*
X145042853Y-49924500D01*
X143292853Y-49924500D01*
X143207147Y-49924500D01*
X143124359Y-49946682D01*
X143050138Y-49989535D01*
X142993652Y-50046021D01*
X142932328Y-50079505D01*
X142862637Y-50074520D01*
X142806703Y-50032649D01*
X142791410Y-50005791D01*
X142789011Y-50000000D01*
X142773591Y-49962771D01*
X142761884Y-49934508D01*
X142761883Y-49934507D01*
X142761883Y-49934506D01*
X142665629Y-49809065D01*
X142540188Y-49712811D01*
X142394109Y-49652303D01*
X142394107Y-49652302D01*
X142237348Y-49631665D01*
X142237346Y-49631665D01*
X142080586Y-49652302D01*
X142080584Y-49652303D01*
X141934507Y-49712810D01*
X141809065Y-49809065D01*
X141712810Y-49934507D01*
X141652303Y-50080584D01*
X141652302Y-50080586D01*
X141631665Y-50237345D01*
X141631665Y-50237348D01*
X141640593Y-50305165D01*
X141629827Y-50374200D01*
X141605335Y-50409031D01*
X141296716Y-50717651D01*
X141235393Y-50751136D01*
X141209035Y-50753970D01*
X141115467Y-50753970D01*
X141056990Y-50765601D01*
X141056989Y-50765602D01*
X140990667Y-50809917D01*
X140946352Y-50876239D01*
X140946351Y-50876240D01*
X140934720Y-50934717D01*
X140934720Y-51324222D01*
X140946351Y-51382699D01*
X140946352Y-51382701D01*
X140948278Y-51385583D01*
X140950542Y-51392814D01*
X140951026Y-51393983D01*
X140950921Y-51394026D01*
X140969153Y-51452261D01*
X140950666Y-51519641D01*
X140948278Y-51523357D01*
X140946352Y-51526238D01*
X140946351Y-51526240D01*
X140934720Y-51584717D01*
X140934720Y-51974222D01*
X140946351Y-52032699D01*
X140946352Y-52032701D01*
X140948278Y-52035583D01*
X140950542Y-52042814D01*
X140951026Y-52043983D01*
X140950921Y-52044026D01*
X140969153Y-52102261D01*
X140950666Y-52169641D01*
X140948278Y-52173357D01*
X140946352Y-52176238D01*
X140946351Y-52176240D01*
X140934720Y-52234717D01*
X140934720Y-52624217D01*
X140944677Y-52674278D01*
X140938448Y-52743870D01*
X140926163Y-52767357D01*
X140899724Y-52806926D01*
X140899723Y-52806929D01*
X140885220Y-52879841D01*
X140885220Y-52904470D01*
X141436220Y-52904470D01*
X141503259Y-52924155D01*
X141549014Y-52976959D01*
X141560220Y-53028470D01*
X141560220Y-53504470D01*
X141661641Y-53504470D01*
X141728680Y-53524155D01*
X141774435Y-53576959D01*
X141784379Y-53646117D01*
X141773041Y-53682931D01*
X141726781Y-53777554D01*
X141726781Y-53777557D01*
X141716572Y-53847628D01*
X141716572Y-53847632D01*
X141716572Y-53847633D01*
X141716572Y-54236056D01*
X141720790Y-54265003D01*
X141726781Y-54306129D01*
X141726781Y-54306130D01*
X141726782Y-54306132D01*
X141726782Y-54306134D01*
X141779620Y-54414215D01*
X141779622Y-54414218D01*
X141797712Y-54432308D01*
X141831197Y-54493631D01*
X141826213Y-54563323D01*
X141797714Y-54607668D01*
X141782830Y-54622552D01*
X141782826Y-54622558D01*
X141724582Y-54736867D01*
X141719559Y-54768578D01*
X141719559Y-54768579D01*
X142453061Y-54768579D01*
X142520100Y-54788264D01*
X142565855Y-54841068D01*
X142577061Y-54892579D01*
X142577061Y-55577687D01*
X142666268Y-55563559D01*
X142666269Y-55563559D01*
X142780582Y-55505313D01*
X142841880Y-55444015D01*
X142903203Y-55410530D01*
X142972895Y-55415514D01*
X143017243Y-55444015D01*
X143040130Y-55466902D01*
X143146718Y-55519011D01*
X143146719Y-55519011D01*
X143146721Y-55519012D01*
X143215819Y-55529079D01*
X143215825Y-55529079D01*
X143708297Y-55529079D01*
X143708303Y-55529079D01*
X143777401Y-55519012D01*
X143863963Y-55476693D01*
X143932834Y-55464934D01*
X143997132Y-55492277D01*
X144036440Y-55550041D01*
X144042423Y-55588094D01*
X144042423Y-55598649D01*
X144048664Y-55656690D01*
X144097655Y-55788040D01*
X144181664Y-55900261D01*
X144293885Y-55984270D01*
X144425235Y-56033261D01*
X144483276Y-56039502D01*
X144483293Y-56039503D01*
X144517423Y-56039503D01*
X144517423Y-55502003D01*
X145017423Y-55502003D01*
X145017423Y-56039503D01*
X145051553Y-56039503D01*
X145051569Y-56039502D01*
X145109610Y-56033261D01*
X145240960Y-55984270D01*
X145353181Y-55900261D01*
X145437190Y-55788040D01*
X145486181Y-55656690D01*
X145492422Y-55598649D01*
X145492423Y-55598632D01*
X145492423Y-55502003D01*
X145017423Y-55502003D01*
X144517423Y-55502003D01*
X144517423Y-55126003D01*
X144537108Y-55058964D01*
X144589912Y-55013209D01*
X144641423Y-55002003D01*
X145492423Y-55002003D01*
X145492423Y-54905373D01*
X145492422Y-54905356D01*
X145486181Y-54847315D01*
X145437190Y-54715965D01*
X145353181Y-54603744D01*
X145240959Y-54519735D01*
X145240954Y-54519732D01*
X145131823Y-54479028D01*
X145075889Y-54437157D01*
X145051473Y-54371692D01*
X145066325Y-54303419D01*
X145115731Y-54254014D01*
X145134192Y-54245809D01*
X145211898Y-54218619D01*
X145318134Y-54140214D01*
X145396539Y-54033978D01*
X145440148Y-53909352D01*
X145442923Y-53879759D01*
X145442923Y-53174247D01*
X145440148Y-53144654D01*
X145396539Y-53020028D01*
X145328615Y-52927994D01*
X145318134Y-52913792D01*
X145318133Y-52913791D01*
X145211899Y-52835387D01*
X145211900Y-52835387D01*
X145080879Y-52789540D01*
X145024104Y-52748818D01*
X144998357Y-52683865D01*
X145011351Y-52616203D01*
X145064129Y-52512621D01*
X145076130Y-52436849D01*
X144383334Y-52436849D01*
X144316295Y-52417164D01*
X144270540Y-52364360D01*
X144259334Y-52312849D01*
X144259334Y-52060849D01*
X144279019Y-51993810D01*
X144331823Y-51948055D01*
X144383334Y-51936849D01*
X145076128Y-51936849D01*
X145064127Y-51861073D01*
X145061718Y-51853657D01*
X145059723Y-51783816D01*
X145095802Y-51723983D01*
X145158503Y-51693154D01*
X145227917Y-51701118D01*
X145267330Y-51727657D01*
X146817638Y-53277965D01*
X146891861Y-53320818D01*
X146974647Y-53343000D01*
X147060353Y-53343000D01*
X153206311Y-53343000D01*
X153273350Y-53362685D01*
X153293992Y-53379319D01*
X157888181Y-57973508D01*
X157921666Y-58034831D01*
X157924500Y-58061189D01*
X157924500Y-74137231D01*
X157904815Y-74204270D01*
X157852011Y-74250025D01*
X157800500Y-74261231D01*
X147057540Y-74261231D01*
X146990501Y-74241546D01*
X146944746Y-74188742D01*
X146933540Y-74137231D01*
X146933540Y-70867500D01*
X148420000Y-70867500D01*
X148420000Y-70964146D01*
X148426241Y-71022187D01*
X148475232Y-71153537D01*
X148559241Y-71265758D01*
X148671462Y-71349767D01*
X148802812Y-71398758D01*
X148860853Y-71404999D01*
X148860870Y-71405000D01*
X148895000Y-71405000D01*
X148895000Y-70867500D01*
X148420000Y-70867500D01*
X146933540Y-70867500D01*
X146933540Y-69469296D01*
X146953225Y-69402257D01*
X147006029Y-69356502D01*
X147075187Y-69346558D01*
X147119537Y-69361907D01*
X147235365Y-69428781D01*
X147241089Y-69430314D01*
X147300751Y-69466675D01*
X147318433Y-69491775D01*
X147355899Y-69562083D01*
X147355901Y-69562086D01*
X147401660Y-69614895D01*
X147414340Y-69627836D01*
X147419246Y-69632843D01*
X147419247Y-69632844D01*
X147419249Y-69632845D01*
X147485730Y-69670032D01*
X147499063Y-69677490D01*
X147566102Y-69697175D01*
X147624000Y-69705500D01*
X148538998Y-69705500D01*
X148606037Y-69725185D01*
X148651792Y-69777989D01*
X148661736Y-69847147D01*
X148632711Y-69910703D01*
X148613308Y-69928767D01*
X148559242Y-69969239D01*
X148475232Y-70081462D01*
X148426241Y-70212812D01*
X148420000Y-70270853D01*
X148420000Y-70367500D01*
X149271000Y-70367500D01*
X149338039Y-70387185D01*
X149383794Y-70439989D01*
X149395000Y-70491500D01*
X149395000Y-71405000D01*
X149429130Y-71405000D01*
X149429146Y-71404999D01*
X149487187Y-71398758D01*
X149618537Y-71349767D01*
X149730758Y-71265758D01*
X149814767Y-71153537D01*
X149863758Y-71022187D01*
X149869999Y-70964146D01*
X149870000Y-70964129D01*
X149870000Y-70753367D01*
X149889685Y-70686328D01*
X149942489Y-70640573D01*
X150011647Y-70630629D01*
X150050296Y-70642883D01*
X150113283Y-70674977D01*
X150113286Y-70674978D01*
X150145000Y-70680000D01*
X150145000Y-69946500D01*
X150164685Y-69879461D01*
X150217489Y-69833706D01*
X150269000Y-69822500D01*
X150521000Y-69822500D01*
X150588039Y-69842185D01*
X150633794Y-69894989D01*
X150645000Y-69946500D01*
X150645000Y-70679999D01*
X150676713Y-70674978D01*
X150676719Y-70674976D01*
X150791016Y-70616738D01*
X150791025Y-70616731D01*
X150888637Y-70519120D01*
X150890247Y-70520730D01*
X150934949Y-70486248D01*
X151004561Y-70480258D01*
X151066362Y-70512854D01*
X151099730Y-70569696D01*
X151106681Y-70595638D01*
X151124793Y-70627008D01*
X151149535Y-70669862D01*
X151149536Y-70669863D01*
X151149537Y-70669864D01*
X151925194Y-71445520D01*
X151925204Y-71445531D01*
X151929534Y-71449861D01*
X151929535Y-71449862D01*
X151990138Y-71510465D01*
X152029721Y-71533318D01*
X152029722Y-71533319D01*
X152064356Y-71553315D01*
X152064359Y-71553317D01*
X152064361Y-71553317D01*
X152064362Y-71553318D01*
X152147148Y-71575501D01*
X152147150Y-71575501D01*
X152172994Y-71575501D01*
X152240033Y-71595186D01*
X152285788Y-71647990D01*
X152294611Y-71675310D01*
X152306131Y-71733229D01*
X152308900Y-71739912D01*
X152316369Y-71809381D01*
X152285094Y-71871861D01*
X152225005Y-71907513D01*
X152194341Y-71911365D01*
X152145121Y-71911365D01*
X152075047Y-71921574D01*
X151997114Y-71959674D01*
X151928241Y-71971433D01*
X151867169Y-71946650D01*
X151808963Y-71901988D01*
X151662884Y-71841480D01*
X151662882Y-71841479D01*
X151506123Y-71820842D01*
X151506121Y-71820842D01*
X151349361Y-71841479D01*
X151349359Y-71841480D01*
X151203282Y-71901987D01*
X151077840Y-71998242D01*
X150981585Y-72123684D01*
X150921078Y-72269761D01*
X150921077Y-72269763D01*
X150900440Y-72426522D01*
X150900440Y-72426525D01*
X150921077Y-72583284D01*
X150921078Y-72583286D01*
X150980839Y-72727563D01*
X150981586Y-72729365D01*
X151077840Y-72854806D01*
X151203281Y-72951060D01*
X151349360Y-73011568D01*
X151427741Y-73021887D01*
X151506121Y-73032206D01*
X151506122Y-73032206D01*
X151506123Y-73032206D01*
X151558376Y-73025326D01*
X151662884Y-73011568D01*
X151808963Y-72951060D01*
X151858662Y-72912923D01*
X151923831Y-72887729D01*
X151988609Y-72899898D01*
X152019679Y-72915087D01*
X152075049Y-72942156D01*
X152145120Y-72952365D01*
X152608549Y-72952364D01*
X152678621Y-72942156D01*
X152678625Y-72942154D01*
X152678626Y-72942154D01*
X152786707Y-72889316D01*
X152786710Y-72889314D01*
X152871782Y-72804242D01*
X152871784Y-72804240D01*
X152871785Y-72804237D01*
X152873418Y-72801952D01*
X152876455Y-72799569D01*
X152879050Y-72796975D01*
X152879363Y-72797288D01*
X152928393Y-72758831D01*
X152997955Y-72752276D01*
X153060017Y-72784370D01*
X153075252Y-72801952D01*
X153076887Y-72804242D01*
X153161959Y-72889314D01*
X153161962Y-72889316D01*
X153255659Y-72935121D01*
X153270049Y-72942156D01*
X153340120Y-72952365D01*
X153803549Y-72952364D01*
X153873621Y-72942156D01*
X153873625Y-72942154D01*
X153873626Y-72942154D01*
X153981707Y-72889316D01*
X153981710Y-72889314D01*
X154013346Y-72857678D01*
X154074668Y-72824192D01*
X154144360Y-72829176D01*
X154188709Y-72857677D01*
X154227772Y-72896740D01*
X154227775Y-72896742D01*
X154320668Y-72942154D01*
X154335862Y-72949582D01*
X154405933Y-72959791D01*
X154869362Y-72959790D01*
X154939434Y-72949582D01*
X154939438Y-72949580D01*
X154939439Y-72949580D01*
X155047520Y-72896742D01*
X155047521Y-72896740D01*
X155047523Y-72896740D01*
X155113192Y-72831070D01*
X155174513Y-72797587D01*
X155244205Y-72802571D01*
X155291115Y-72837686D01*
X155292415Y-72836387D01*
X155391146Y-72935118D01*
X155391151Y-72935121D01*
X155506870Y-72994084D01*
X155582648Y-73006085D01*
X155582648Y-72689291D01*
X156082648Y-72689291D01*
X156082648Y-73006083D01*
X156158425Y-72994084D01*
X156274144Y-72935121D01*
X156274149Y-72935118D01*
X156365975Y-72843292D01*
X156365978Y-72843288D01*
X156424943Y-72727563D01*
X156424943Y-72727562D01*
X156431004Y-72689291D01*
X156082648Y-72689291D01*
X155582648Y-72689291D01*
X155582648Y-71872496D01*
X155506870Y-71884497D01*
X155391151Y-71943460D01*
X155391146Y-71943463D01*
X155292415Y-72042195D01*
X155290884Y-72040664D01*
X155245844Y-72075386D01*
X155176230Y-72081355D01*
X155114439Y-72048740D01*
X155113191Y-72047509D01*
X155047526Y-71981844D01*
X155047523Y-71981842D01*
X155030037Y-71973293D01*
X154978456Y-71926164D01*
X154963461Y-71872494D01*
X156082648Y-71872494D01*
X156082648Y-72189291D01*
X156431004Y-72189291D01*
X156431004Y-72189290D01*
X156424943Y-72151019D01*
X156424943Y-72151018D01*
X156365978Y-72035293D01*
X156365975Y-72035289D01*
X156274149Y-71943463D01*
X156274145Y-71943460D01*
X156158419Y-71884495D01*
X156082648Y-71872494D01*
X154963461Y-71872494D01*
X154960500Y-71861894D01*
X154960500Y-71762370D01*
X154962883Y-71738178D01*
X154975500Y-71674750D01*
X154975500Y-70900173D01*
X154972731Y-70889840D01*
X154974394Y-70819991D01*
X155008025Y-70770298D01*
X155006604Y-70768877D01*
X155015237Y-70760243D01*
X155070495Y-70677543D01*
X155070496Y-70677540D01*
X155084999Y-70604628D01*
X155085000Y-70604626D01*
X155085000Y-70572500D01*
X156335891Y-70572500D01*
X156350019Y-70661709D01*
X156408265Y-70776020D01*
X156408268Y-70776025D01*
X156498974Y-70866731D01*
X156498983Y-70866738D01*
X156613280Y-70924976D01*
X156613286Y-70924978D01*
X156645000Y-70930000D01*
X156645000Y-70572500D01*
X157145000Y-70572500D01*
X157145000Y-70929999D01*
X157176713Y-70924978D01*
X157176719Y-70924976D01*
X157291016Y-70866738D01*
X157291025Y-70866731D01*
X157381731Y-70776025D01*
X157381734Y-70776020D01*
X157439980Y-70661709D01*
X157454109Y-70572500D01*
X157145000Y-70572500D01*
X156645000Y-70572500D01*
X156335891Y-70572500D01*
X155085000Y-70572500D01*
X155085000Y-70438000D01*
X155081319Y-70434319D01*
X155047834Y-70372996D01*
X155045000Y-70346638D01*
X155045000Y-70145000D01*
X155395000Y-70145000D01*
X155395000Y-70395000D01*
X155559626Y-70395000D01*
X155559628Y-70394999D01*
X155632540Y-70380496D01*
X155632544Y-70380494D01*
X155715239Y-70325239D01*
X155770494Y-70242544D01*
X155770496Y-70242540D01*
X155784999Y-70169628D01*
X155785000Y-70169626D01*
X155785000Y-70145000D01*
X155395000Y-70145000D01*
X155045000Y-70145000D01*
X155045000Y-69645000D01*
X155395000Y-69645000D01*
X155395000Y-69865000D01*
X155785000Y-69865000D01*
X155785000Y-69840375D01*
X155772829Y-69779193D01*
X155772829Y-69730807D01*
X155785000Y-69669624D01*
X155785000Y-69645000D01*
X155395000Y-69645000D01*
X155045000Y-69645000D01*
X155045000Y-69163362D01*
X155059201Y-69115000D01*
X155395000Y-69115000D01*
X155395000Y-69365000D01*
X155785000Y-69365000D01*
X155785000Y-69340373D01*
X155784999Y-69340371D01*
X155770496Y-69267459D01*
X155770494Y-69267455D01*
X155715239Y-69184760D01*
X155632544Y-69129505D01*
X155632540Y-69129503D01*
X155559627Y-69115000D01*
X155395000Y-69115000D01*
X155059201Y-69115000D01*
X155064685Y-69096323D01*
X155081319Y-69075681D01*
X155085000Y-69072000D01*
X155085000Y-68905373D01*
X155084999Y-68905371D01*
X155070496Y-68832459D01*
X155070493Y-68832452D01*
X155047734Y-68798390D01*
X155026856Y-68731713D01*
X155045341Y-68664333D01*
X155097320Y-68617643D01*
X155150836Y-68605500D01*
X155801311Y-68605500D01*
X155868350Y-68625185D01*
X155888992Y-68641819D01*
X156348181Y-69101007D01*
X156381666Y-69162330D01*
X156384500Y-69188688D01*
X156384500Y-69433742D01*
X156392050Y-69485565D01*
X156394567Y-69502842D01*
X156446676Y-69609430D01*
X156469563Y-69632317D01*
X156503048Y-69693640D01*
X156498064Y-69763332D01*
X156469564Y-69807679D01*
X156408265Y-69868977D01*
X156408265Y-69868979D01*
X156350019Y-69983290D01*
X156335891Y-70072500D01*
X157454109Y-70072500D01*
X157439980Y-69983290D01*
X157381734Y-69868979D01*
X157381731Y-69868974D01*
X157320436Y-69807679D01*
X157286951Y-69746356D01*
X157291935Y-69676664D01*
X157320435Y-69632317D01*
X157343324Y-69609429D01*
X157395433Y-69502840D01*
X157405500Y-69433742D01*
X157405500Y-68941258D01*
X157395433Y-68872160D01*
X157379984Y-68840560D01*
X157343323Y-68765569D01*
X157259430Y-68681676D01*
X157152842Y-68629567D01*
X157135565Y-68627050D01*
X157083742Y-68619500D01*
X157083736Y-68619500D01*
X156838688Y-68619500D01*
X156771649Y-68599815D01*
X156751007Y-68583181D01*
X156187364Y-68019537D01*
X156187363Y-68019536D01*
X156187362Y-68019535D01*
X156144238Y-67994637D01*
X156113140Y-67976682D01*
X156071746Y-67965591D01*
X156030353Y-67954500D01*
X156030352Y-67954500D01*
X155099500Y-67954500D01*
X155032461Y-67934815D01*
X154986706Y-67882011D01*
X154977815Y-67841142D01*
X154976097Y-67841312D01*
X154975500Y-67835257D01*
X154975500Y-67835252D01*
X154970393Y-67809576D01*
X154963868Y-67776770D01*
X154963867Y-67776769D01*
X154919552Y-67710447D01*
X154853230Y-67666132D01*
X154853229Y-67666131D01*
X154794752Y-67654500D01*
X154794748Y-67654500D01*
X154584500Y-67654500D01*
X154517461Y-67634815D01*
X154471706Y-67582011D01*
X154460500Y-67530500D01*
X154460500Y-67204500D01*
X154480185Y-67137461D01*
X154532989Y-67091706D01*
X154584500Y-67080500D01*
X155403264Y-67080500D01*
X155403266Y-67080500D01*
X155549635Y-67041281D01*
X155580629Y-67023385D01*
X155624751Y-67008068D01*
X155642840Y-67005433D01*
X155749429Y-66953324D01*
X155772317Y-66930435D01*
X155833638Y-66896951D01*
X155903330Y-66901935D01*
X155947679Y-66930436D01*
X156008974Y-66991731D01*
X156008978Y-66991734D01*
X156123292Y-67049980D01*
X156212499Y-67064108D01*
X156212500Y-67064108D01*
X156212500Y-66755000D01*
X156712500Y-66755000D01*
X156712500Y-67064108D01*
X156801707Y-67049980D01*
X156801708Y-67049980D01*
X156916021Y-66991734D01*
X156916025Y-66991731D01*
X157006731Y-66901025D01*
X157006734Y-66901020D01*
X157064978Y-66786711D01*
X157070001Y-66755000D01*
X156712500Y-66755000D01*
X156212500Y-66755000D01*
X156212500Y-66023000D01*
X156131500Y-66023000D01*
X156064461Y-66003315D01*
X156018706Y-65950511D01*
X156007500Y-65899000D01*
X156007500Y-65505000D01*
X156507500Y-65505000D01*
X156507500Y-65902000D01*
X156588500Y-65902000D01*
X156655539Y-65921685D01*
X156701294Y-65974489D01*
X156712500Y-66026000D01*
X156712500Y-66255000D01*
X157070002Y-66255000D01*
X157070001Y-66254999D01*
X157064978Y-66223288D01*
X157006734Y-66108979D01*
X157006731Y-66108974D01*
X156909818Y-66012061D01*
X156876333Y-65950738D01*
X156881317Y-65881046D01*
X156901934Y-65848973D01*
X156900444Y-65847858D01*
X156989767Y-65728537D01*
X157038758Y-65597187D01*
X157044999Y-65539146D01*
X157045000Y-65539129D01*
X157045000Y-65505000D01*
X156507500Y-65505000D01*
X156007500Y-65505000D01*
X156007500Y-64530000D01*
X156507500Y-64530000D01*
X156507500Y-65005000D01*
X157045000Y-65005000D01*
X157045000Y-64970870D01*
X157044999Y-64970853D01*
X157038758Y-64912812D01*
X156989767Y-64781462D01*
X156905758Y-64669241D01*
X156793537Y-64585232D01*
X156662187Y-64536241D01*
X156604146Y-64530000D01*
X156507500Y-64530000D01*
X156007500Y-64530000D01*
X155910853Y-64530000D01*
X155852812Y-64536241D01*
X155721462Y-64585232D01*
X155609241Y-64669241D01*
X155525232Y-64781463D01*
X155525231Y-64781466D01*
X155484525Y-64890600D01*
X155442653Y-64946533D01*
X155377189Y-64970949D01*
X155308916Y-64956097D01*
X155259511Y-64906691D01*
X155251303Y-64888220D01*
X155231613Y-64831950D01*
X155224116Y-64810525D01*
X155202667Y-64781463D01*
X155145711Y-64704289D01*
X155145710Y-64704288D01*
X155039476Y-64625884D01*
X155039477Y-64625884D01*
X155016044Y-64617685D01*
X154959269Y-64576963D01*
X154933522Y-64512010D01*
X154933000Y-64500644D01*
X154933000Y-64322116D01*
X154942439Y-64274663D01*
X154962649Y-64225873D01*
X154983287Y-64069111D01*
X154962649Y-63912349D01*
X154942437Y-63863554D01*
X154933000Y-63816104D01*
X154933000Y-63204467D01*
X154940903Y-63164737D01*
X154940440Y-63164613D01*
X154942333Y-63157545D01*
X154942439Y-63157015D01*
X154942544Y-63156762D01*
X154963182Y-63000000D01*
X154942544Y-62843238D01*
X154882036Y-62697159D01*
X154785782Y-62571718D01*
X154660341Y-62475464D01*
X154590562Y-62446560D01*
X154536160Y-62402720D01*
X154514095Y-62336426D01*
X154531374Y-62268726D01*
X154582512Y-62221116D01*
X154638016Y-62208000D01*
X155169750Y-62208000D01*
X155169751Y-62207999D01*
X155188500Y-62204270D01*
X155228229Y-62196368D01*
X155228231Y-62196367D01*
X155231108Y-62194445D01*
X155238335Y-62192181D01*
X155239513Y-62191694D01*
X155239556Y-62191799D01*
X155297785Y-62173566D01*
X155365165Y-62192050D01*
X155368892Y-62194445D01*
X155371768Y-62196367D01*
X155371770Y-62196368D01*
X155430247Y-62207999D01*
X155430250Y-62208000D01*
X155430252Y-62208000D01*
X156269750Y-62208000D01*
X156319806Y-62198043D01*
X156389398Y-62204270D01*
X156412888Y-62216557D01*
X156452456Y-62242995D01*
X156452459Y-62242996D01*
X156525371Y-62257499D01*
X156525374Y-62257500D01*
X156700000Y-62257500D01*
X156700000Y-61357500D01*
X157200000Y-61357500D01*
X157200000Y-62257500D01*
X157374626Y-62257500D01*
X157374628Y-62257499D01*
X157447540Y-62242996D01*
X157447544Y-62242994D01*
X157530239Y-62187739D01*
X157585494Y-62105044D01*
X157585496Y-62105040D01*
X157599999Y-62032128D01*
X157600000Y-62032126D01*
X157600000Y-61357500D01*
X157200000Y-61357500D01*
X156700000Y-61357500D01*
X156700000Y-59957500D01*
X157200000Y-59957500D01*
X157200000Y-60857500D01*
X157600000Y-60857500D01*
X157600000Y-60182873D01*
X157599999Y-60182871D01*
X157585496Y-60109959D01*
X157585494Y-60109955D01*
X157530239Y-60027260D01*
X157447544Y-59972005D01*
X157447540Y-59972003D01*
X157374627Y-59957500D01*
X157200000Y-59957500D01*
X156700000Y-59957500D01*
X156525373Y-59957500D01*
X156452459Y-59972003D01*
X156452456Y-59972004D01*
X156412887Y-59998443D01*
X156346209Y-60019319D01*
X156319808Y-60016957D01*
X156269748Y-60007000D01*
X156111188Y-60007000D01*
X156044149Y-59987315D01*
X156023507Y-59970681D01*
X155309336Y-59256509D01*
X155282456Y-59216281D01*
X155274536Y-59197159D01*
X155178282Y-59071718D01*
X155052841Y-58975464D01*
X155012149Y-58958609D01*
X154906762Y-58914956D01*
X154906760Y-58914955D01*
X154750001Y-58894318D01*
X154749999Y-58894318D01*
X154593239Y-58914955D01*
X154593237Y-58914956D01*
X154447160Y-58975463D01*
X154447159Y-58975464D01*
X154321718Y-59071718D01*
X154321716Y-59071719D01*
X154321711Y-59071724D01*
X154316954Y-59076481D01*
X154255629Y-59109963D01*
X154185938Y-59104976D01*
X154130006Y-59063102D01*
X154106338Y-59004981D01*
X154085044Y-58843239D01*
X154085044Y-58843238D01*
X154024536Y-58697159D01*
X153928282Y-58571718D01*
X153802841Y-58475464D01*
X153656762Y-58414956D01*
X153656760Y-58414955D01*
X153500001Y-58394318D01*
X153499999Y-58394318D01*
X153343239Y-58414955D01*
X153343237Y-58414956D01*
X153197160Y-58475463D01*
X153071718Y-58571718D01*
X152975463Y-58697160D01*
X152914956Y-58843237D01*
X152914955Y-58843239D01*
X152894318Y-58999998D01*
X152894318Y-59000001D01*
X152903246Y-59067817D01*
X152892480Y-59136852D01*
X152867988Y-59171683D01*
X152289537Y-59750135D01*
X152289533Y-59750141D01*
X152246681Y-59824361D01*
X152246682Y-59824362D01*
X152233127Y-59874953D01*
X152222397Y-59914997D01*
X152219839Y-59914311D01*
X152196854Y-59966248D01*
X152138523Y-60004710D01*
X152126386Y-60007768D01*
X152071770Y-60018632D01*
X152071768Y-60018632D01*
X152068887Y-60020558D01*
X152061655Y-60022822D01*
X152060487Y-60023306D01*
X152060443Y-60023201D01*
X152002209Y-60041433D01*
X151934829Y-60022946D01*
X151931113Y-60020558D01*
X151928231Y-60018632D01*
X151928229Y-60018631D01*
X151869752Y-60007000D01*
X151869748Y-60007000D01*
X151030252Y-60007000D01*
X151030247Y-60007000D01*
X150971770Y-60018631D01*
X150971768Y-60018632D01*
X150968887Y-60020558D01*
X150961655Y-60022822D01*
X150960487Y-60023306D01*
X150960443Y-60023201D01*
X150902209Y-60041433D01*
X150834829Y-60022946D01*
X150831113Y-60020558D01*
X150828230Y-60018632D01*
X150775308Y-60008105D01*
X150713397Y-59975720D01*
X150678823Y-59915004D01*
X150675500Y-59886488D01*
X150675500Y-59202053D01*
X150695185Y-59135014D01*
X150747989Y-59089259D01*
X150817147Y-59079315D01*
X150880703Y-59108340D01*
X150914061Y-59154600D01*
X150914955Y-59156760D01*
X150914956Y-59156762D01*
X150975464Y-59302841D01*
X151071718Y-59428282D01*
X151197159Y-59524536D01*
X151343238Y-59585044D01*
X151371548Y-59588771D01*
X151499999Y-59605682D01*
X151500000Y-59605682D01*
X151500001Y-59605682D01*
X151552254Y-59598802D01*
X151656762Y-59585044D01*
X151802841Y-59524536D01*
X151928282Y-59428282D01*
X152024536Y-59302841D01*
X152085044Y-59156762D01*
X152105682Y-59000000D01*
X152085044Y-58843238D01*
X152024536Y-58697159D01*
X151928282Y-58571718D01*
X151802841Y-58475464D01*
X151656762Y-58414956D01*
X151656760Y-58414955D01*
X151500001Y-58394318D01*
X151499999Y-58394318D01*
X151343239Y-58414955D01*
X151343237Y-58414956D01*
X151197160Y-58475463D01*
X151071718Y-58571718D01*
X150975463Y-58697160D01*
X150924279Y-58820730D01*
X150914957Y-58843237D01*
X150914061Y-58845399D01*
X150870220Y-58899802D01*
X150803926Y-58921867D01*
X150736226Y-58904588D01*
X150688616Y-58853450D01*
X150675500Y-58797946D01*
X150675500Y-58336187D01*
X150695185Y-58269148D01*
X150711814Y-58248511D01*
X151210324Y-57750001D01*
X151894318Y-57750001D01*
X151914955Y-57906760D01*
X151914956Y-57906762D01*
X151963667Y-58024362D01*
X151975464Y-58052841D01*
X152071718Y-58178282D01*
X152197159Y-58274536D01*
X152343238Y-58335044D01*
X152421619Y-58345363D01*
X152499999Y-58355682D01*
X152500000Y-58355682D01*
X152500001Y-58355682D01*
X152552254Y-58348802D01*
X152656762Y-58335044D01*
X152802841Y-58274536D01*
X152928282Y-58178282D01*
X153024536Y-58052841D01*
X153085044Y-57906762D01*
X153105682Y-57750000D01*
X153105680Y-57749988D01*
X153085044Y-57593239D01*
X153085044Y-57593238D01*
X153024536Y-57447159D01*
X152928282Y-57321718D01*
X152802841Y-57225464D01*
X152656762Y-57164956D01*
X152656760Y-57164955D01*
X152500001Y-57144318D01*
X152499999Y-57144318D01*
X152343239Y-57164955D01*
X152343237Y-57164956D01*
X152197160Y-57225463D01*
X152071718Y-57321718D01*
X151975463Y-57447160D01*
X151914956Y-57593237D01*
X151914955Y-57593239D01*
X151894318Y-57749998D01*
X151894318Y-57750001D01*
X151210324Y-57750001D01*
X152078315Y-56882009D01*
X152139636Y-56848526D01*
X152182180Y-56846753D01*
X152249999Y-56855682D01*
X152250000Y-56855682D01*
X152250001Y-56855682D01*
X152302254Y-56848802D01*
X152406762Y-56835044D01*
X152552841Y-56774536D01*
X152678282Y-56678282D01*
X152774536Y-56552841D01*
X152835044Y-56406762D01*
X152855682Y-56250000D01*
X152835044Y-56093238D01*
X152774536Y-55947159D01*
X152678282Y-55821718D01*
X152552841Y-55725464D01*
X152406762Y-55664956D01*
X152406760Y-55664955D01*
X152250001Y-55644318D01*
X152249999Y-55644318D01*
X152100391Y-55664014D01*
X152031356Y-55653248D01*
X151979100Y-55606868D01*
X151960215Y-55539599D01*
X151961253Y-55525089D01*
X151961253Y-55524998D01*
X151946719Y-55414604D01*
X151940615Y-55368238D01*
X151880107Y-55222159D01*
X151783853Y-55096718D01*
X151658412Y-55000464D01*
X151512333Y-54939956D01*
X151512331Y-54939955D01*
X151355572Y-54919318D01*
X151355570Y-54919318D01*
X151198810Y-54939955D01*
X151198808Y-54939956D01*
X151052731Y-55000463D01*
X150927289Y-55096718D01*
X150831034Y-55222160D01*
X150770527Y-55368237D01*
X150770526Y-55368239D01*
X150749889Y-55524998D01*
X150749889Y-55525001D01*
X150758817Y-55592817D01*
X150748051Y-55661852D01*
X150723559Y-55696683D01*
X149084120Y-57336122D01*
X149022797Y-57369607D01*
X148953105Y-57364623D01*
X148920953Y-57346817D01*
X148827842Y-57275370D01*
X148681762Y-57214862D01*
X148681760Y-57214861D01*
X148525001Y-57194224D01*
X148524999Y-57194224D01*
X148368239Y-57214861D01*
X148368237Y-57214862D01*
X148222160Y-57275369D01*
X148096718Y-57371624D01*
X148000463Y-57497066D01*
X147939956Y-57643144D01*
X147928511Y-57730068D01*
X147925352Y-57745956D01*
X147924500Y-57749137D01*
X147924500Y-57752418D01*
X147923439Y-57768603D01*
X147919318Y-57799904D01*
X147919318Y-57799906D01*
X147923439Y-57831207D01*
X147924500Y-57847393D01*
X147924500Y-58118000D01*
X147904815Y-58185039D01*
X147852011Y-58230794D01*
X147800500Y-58242000D01*
X146885086Y-58242000D01*
X146818047Y-58222315D01*
X146772292Y-58169511D01*
X146762348Y-58100353D01*
X146774601Y-58061705D01*
X146794980Y-58021709D01*
X146809109Y-57932500D01*
X145690891Y-57932500D01*
X145705019Y-58021709D01*
X145763265Y-58136020D01*
X145763268Y-58136025D01*
X145824563Y-58197320D01*
X145858048Y-58258643D01*
X145853064Y-58328335D01*
X145824565Y-58372681D01*
X145801677Y-58395569D01*
X145756843Y-58487276D01*
X145733124Y-58520495D01*
X145044442Y-59209176D01*
X145044443Y-59209177D01*
X144954734Y-59298886D01*
X144878968Y-59430114D01*
X144839749Y-59576485D01*
X144839749Y-62129219D01*
X144820064Y-62196258D01*
X144767260Y-62242013D01*
X144715749Y-62253219D01*
X144645496Y-62253219D01*
X144587019Y-62264850D01*
X144587018Y-62264851D01*
X144520696Y-62309166D01*
X144511380Y-62323110D01*
X144457767Y-62367915D01*
X144408278Y-62378219D01*
X142717103Y-62378219D01*
X142645398Y-62397432D01*
X142613305Y-62401657D01*
X141424678Y-62401657D01*
X141366201Y-62413288D01*
X141366200Y-62413289D01*
X141299878Y-62457604D01*
X141255563Y-62523926D01*
X141255562Y-62523927D01*
X141243931Y-62582404D01*
X141243931Y-64321909D01*
X141255562Y-64380386D01*
X141255563Y-64380387D01*
X141299878Y-64446709D01*
X141366200Y-64491024D01*
X141366201Y-64491025D01*
X141424678Y-64502656D01*
X141424681Y-64502657D01*
X141424683Y-64502657D01*
X141550500Y-64502657D01*
X141617539Y-64522342D01*
X141663294Y-64575146D01*
X141674500Y-64626657D01*
X141674500Y-65281415D01*
X141654815Y-65348454D01*
X141602011Y-65394209D01*
X141532853Y-65404153D01*
X141526313Y-65403033D01*
X141508976Y-65399585D01*
X141508972Y-65399585D01*
X140669476Y-65399585D01*
X140669471Y-65399585D01*
X140610994Y-65411216D01*
X140610993Y-65411217D01*
X140544671Y-65455532D01*
X140500356Y-65521854D01*
X140500354Y-65521858D01*
X140498906Y-65529141D01*
X140466519Y-65591051D01*
X140405802Y-65625623D01*
X140336033Y-65621880D01*
X140279362Y-65581012D01*
X140253783Y-65515993D01*
X140253290Y-65504968D01*
X140253271Y-65404153D01*
X140252393Y-60662156D01*
X141221902Y-60662156D01*
X141221903Y-60662157D01*
X141861419Y-60662157D01*
X141828506Y-60719164D01*
X141794431Y-60846331D01*
X141794431Y-60977983D01*
X141828506Y-61105150D01*
X141861419Y-61162157D01*
X141221903Y-61162157D01*
X141264316Y-61311222D01*
X141264321Y-61311235D01*
X141355185Y-61493713D01*
X141478039Y-61656399D01*
X141628691Y-61793735D01*
X141802015Y-61901054D01*
X141992109Y-61974696D01*
X142044431Y-61984477D01*
X142044431Y-61345169D01*
X142101438Y-61378082D01*
X142228605Y-61412157D01*
X142360257Y-61412157D01*
X142487424Y-61378082D01*
X142544431Y-61345169D01*
X142544431Y-61984477D01*
X142596752Y-61974696D01*
X142786846Y-61901054D01*
X142960170Y-61793735D01*
X143110822Y-61656399D01*
X143233676Y-61493713D01*
X143324540Y-61311235D01*
X143324545Y-61311222D01*
X143366959Y-61162157D01*
X142727443Y-61162157D01*
X142760356Y-61105150D01*
X142794431Y-60977983D01*
X142794431Y-60846331D01*
X142760356Y-60719164D01*
X142727443Y-60662157D01*
X143366959Y-60662157D01*
X143366959Y-60662156D01*
X143324545Y-60513091D01*
X143324540Y-60513078D01*
X143233676Y-60330600D01*
X143110822Y-60167914D01*
X142960170Y-60030578D01*
X142786844Y-59923258D01*
X142596746Y-59849615D01*
X142596740Y-59849613D01*
X142544432Y-59839834D01*
X142544431Y-59839836D01*
X142544431Y-60479145D01*
X142487424Y-60446232D01*
X142360257Y-60412157D01*
X142228605Y-60412157D01*
X142101438Y-60446232D01*
X142044431Y-60479145D01*
X142044431Y-59839836D01*
X142044429Y-59839834D01*
X141992121Y-59849613D01*
X141992115Y-59849615D01*
X141802017Y-59923258D01*
X141628691Y-60030578D01*
X141478039Y-60167914D01*
X141355185Y-60330600D01*
X141264321Y-60513078D01*
X141264316Y-60513091D01*
X141221902Y-60662156D01*
X140252393Y-60662156D01*
X140251969Y-58372157D01*
X141238848Y-58372157D01*
X141259130Y-58578089D01*
X141259131Y-58578091D01*
X141319199Y-58776111D01*
X141416746Y-58958607D01*
X141416748Y-58958609D01*
X141548020Y-59118567D01*
X141594562Y-59156762D01*
X141707981Y-59249842D01*
X141890477Y-59347389D01*
X142088497Y-59407457D01*
X142088496Y-59407457D01*
X142106960Y-59409275D01*
X142294431Y-59427740D01*
X142500365Y-59407457D01*
X142698385Y-59347389D01*
X142880881Y-59249842D01*
X143040841Y-59118567D01*
X143172116Y-58958607D01*
X143269663Y-58776111D01*
X143329731Y-58578091D01*
X143350014Y-58372157D01*
X143329731Y-58166223D01*
X143269663Y-57968203D01*
X143172116Y-57785707D01*
X143097092Y-57694289D01*
X143040841Y-57625746D01*
X142923108Y-57529126D01*
X142880881Y-57494472D01*
X142764941Y-57432500D01*
X145690891Y-57432500D01*
X146000000Y-57432500D01*
X146000000Y-57074998D01*
X146500000Y-57074998D01*
X146500000Y-57432500D01*
X146809109Y-57432500D01*
X146794980Y-57343290D01*
X146736734Y-57228979D01*
X146736731Y-57228974D01*
X146646025Y-57138268D01*
X146646020Y-57138265D01*
X146531711Y-57080021D01*
X146500000Y-57074998D01*
X146000000Y-57074998D01*
X145999999Y-57074998D01*
X145968288Y-57080021D01*
X145853979Y-57138265D01*
X145853974Y-57138268D01*
X145763268Y-57228974D01*
X145763265Y-57228979D01*
X145705019Y-57343290D01*
X145690891Y-57432500D01*
X142764941Y-57432500D01*
X142698385Y-57396925D01*
X142500365Y-57336857D01*
X142500363Y-57336856D01*
X142500365Y-57336856D01*
X142294431Y-57316574D01*
X142088498Y-57336856D01*
X141890474Y-57396926D01*
X141796495Y-57447160D01*
X141707981Y-57494472D01*
X141707979Y-57494473D01*
X141707978Y-57494474D01*
X141548020Y-57625746D01*
X141416748Y-57785704D01*
X141416746Y-57785707D01*
X141400148Y-57816759D01*
X141319200Y-57968200D01*
X141259130Y-58166224D01*
X141238848Y-58372157D01*
X140251969Y-58372157D01*
X140251394Y-55268579D01*
X141719559Y-55268579D01*
X141724582Y-55300290D01*
X141782826Y-55414599D01*
X141782829Y-55414604D01*
X141873535Y-55505310D01*
X141873539Y-55505313D01*
X141987853Y-55563559D01*
X142077060Y-55577687D01*
X142077061Y-55577687D01*
X142077061Y-55268579D01*
X141719559Y-55268579D01*
X140251394Y-55268579D01*
X140251344Y-55000463D01*
X140251020Y-53254470D01*
X140885220Y-53254470D01*
X140885220Y-53279098D01*
X140899723Y-53352010D01*
X140899725Y-53352014D01*
X140954980Y-53434709D01*
X141037675Y-53489964D01*
X141037679Y-53489966D01*
X141110591Y-53504469D01*
X141110594Y-53504470D01*
X141210220Y-53504470D01*
X141210220Y-53254470D01*
X140885220Y-53254470D01*
X140251020Y-53254470D01*
X140250325Y-49499999D01*
X154054143Y-49499999D01*
X154054144Y-49500000D01*
X154427500Y-49500000D01*
X154427500Y-49179999D01*
X154422733Y-49180000D01*
X154326722Y-49195206D01*
X154211003Y-49254169D01*
X154210998Y-49254172D01*
X154119172Y-49345998D01*
X154119169Y-49346002D01*
X154060204Y-49461727D01*
X154060204Y-49461728D01*
X154054143Y-49499999D01*
X140250325Y-49499999D01*
X140250116Y-48374023D01*
X140269788Y-48306980D01*
X140322584Y-48261215D01*
X140374116Y-48250000D01*
X155070500Y-48250000D01*
X155137539Y-48269685D01*
G37*
%TD.AperFunction*%
%TA.AperFunction,Conductor*%
G36*
X154218039Y-71394685D02*
G01*
X154263794Y-71447489D01*
X154275000Y-71499000D01*
X154275000Y-71531000D01*
X154255315Y-71598039D01*
X154202511Y-71643794D01*
X154151000Y-71655000D01*
X153619000Y-71655000D01*
X153551961Y-71635315D01*
X153506206Y-71582511D01*
X153495000Y-71531000D01*
X153495000Y-71499000D01*
X153514685Y-71431961D01*
X153567489Y-71386206D01*
X153619000Y-71375000D01*
X154151000Y-71375000D01*
X154218039Y-71394685D01*
G37*
%TD.AperFunction*%
%TA.AperFunction,Conductor*%
G36*
X153218039Y-67850185D02*
G01*
X153263794Y-67902989D01*
X153275000Y-67954500D01*
X153275000Y-68921638D01*
X153255315Y-68988677D01*
X153250000Y-68995272D01*
X153250000Y-69055000D01*
X154231447Y-69055000D01*
X154231447Y-69054999D01*
X154297319Y-68989128D01*
X154358642Y-68955643D01*
X154428334Y-68960627D01*
X154472681Y-68989128D01*
X154650872Y-69167319D01*
X154684357Y-69228642D01*
X154679373Y-69298334D01*
X154650872Y-69342681D01*
X154520000Y-69473552D01*
X154520000Y-70036447D01*
X154650872Y-70167319D01*
X154684357Y-70228642D01*
X154679373Y-70298334D01*
X154650872Y-70342681D01*
X154520000Y-70473552D01*
X154520000Y-70546628D01*
X154500315Y-70613667D01*
X154458000Y-70654015D01*
X154425931Y-70672529D01*
X154425926Y-70672533D01*
X154362533Y-70735926D01*
X154362529Y-70735931D01*
X154339398Y-70775998D01*
X154288832Y-70824215D01*
X154288769Y-70824230D01*
X154275000Y-70838000D01*
X154275000Y-71246000D01*
X154255315Y-71313039D01*
X154202511Y-71358794D01*
X154151000Y-71370000D01*
X153619000Y-71370000D01*
X153551961Y-71350315D01*
X153506206Y-71297511D01*
X153495000Y-71246000D01*
X153495000Y-71090000D01*
X153775000Y-71090000D01*
X153995000Y-71090000D01*
X153995000Y-70588362D01*
X154014685Y-70521323D01*
X154020000Y-70514727D01*
X154020000Y-70455000D01*
X153885000Y-70455000D01*
X153885000Y-70749000D01*
X153865315Y-70816039D01*
X153812511Y-70861794D01*
X153778892Y-70869107D01*
X153775000Y-70873000D01*
X153775000Y-71090000D01*
X153495000Y-71090000D01*
X153495000Y-70873000D01*
X153481560Y-70859560D01*
X153454678Y-70819326D01*
X153452295Y-70813573D01*
X153452295Y-70813572D01*
X153407468Y-70735928D01*
X153407467Y-70735927D01*
X153403404Y-70728889D01*
X153405780Y-70727517D01*
X153385429Y-70674855D01*
X153385000Y-70664554D01*
X153385000Y-70455000D01*
X153038552Y-70455000D01*
X152972681Y-70520872D01*
X152911358Y-70554357D01*
X152841666Y-70549373D01*
X152797319Y-70520872D01*
X152619128Y-70342681D01*
X152587543Y-70284837D01*
X152735000Y-70284837D01*
X152757836Y-70339968D01*
X152800032Y-70382164D01*
X152855163Y-70405000D01*
X152914837Y-70405000D01*
X152969968Y-70382164D01*
X153012164Y-70339968D01*
X153035000Y-70284837D01*
X154235000Y-70284837D01*
X154257836Y-70339968D01*
X154300032Y-70382164D01*
X154355163Y-70405000D01*
X154414837Y-70405000D01*
X154469968Y-70382164D01*
X154512164Y-70339968D01*
X154535000Y-70284837D01*
X154535000Y-70225163D01*
X154512164Y-70170032D01*
X154469968Y-70127836D01*
X154414837Y-70105000D01*
X154355163Y-70105000D01*
X154300032Y-70127836D01*
X154257836Y-70170032D01*
X154235000Y-70225163D01*
X154235000Y-70284837D01*
X153035000Y-70284837D01*
X153035000Y-70225163D01*
X153012164Y-70170032D01*
X152969968Y-70127836D01*
X152914837Y-70105000D01*
X152855163Y-70105000D01*
X152800032Y-70127836D01*
X152757836Y-70170032D01*
X152735000Y-70225163D01*
X152735000Y-70284837D01*
X152587543Y-70284837D01*
X152585643Y-70281358D01*
X152590627Y-70211666D01*
X152619128Y-70167319D01*
X152749999Y-70036447D01*
X152750000Y-70036446D01*
X152750000Y-69784837D01*
X153485000Y-69784837D01*
X153507836Y-69839968D01*
X153550032Y-69882164D01*
X153605163Y-69905000D01*
X153664837Y-69905000D01*
X153719968Y-69882164D01*
X153762164Y-69839968D01*
X153785000Y-69784837D01*
X153785000Y-69755000D01*
X153988553Y-69755000D01*
X154017462Y-69783908D01*
X154020000Y-69781370D01*
X154020000Y-69728628D01*
X154017462Y-69726090D01*
X153988553Y-69755000D01*
X153785000Y-69755000D01*
X153785000Y-69725163D01*
X153762164Y-69670032D01*
X153719968Y-69627836D01*
X153664837Y-69605000D01*
X153605163Y-69605000D01*
X153550032Y-69627836D01*
X153507836Y-69670032D01*
X153485000Y-69725163D01*
X153485000Y-69784837D01*
X152750000Y-69784837D01*
X152750000Y-69781370D01*
X153250000Y-69781370D01*
X153252537Y-69783908D01*
X153281446Y-69754999D01*
X153252536Y-69726089D01*
X153250000Y-69728627D01*
X153250000Y-69781370D01*
X152750000Y-69781370D01*
X152750000Y-69473553D01*
X152619128Y-69342681D01*
X152587543Y-69284837D01*
X152735000Y-69284837D01*
X152757836Y-69339968D01*
X152800032Y-69382164D01*
X152855163Y-69405000D01*
X152914837Y-69405000D01*
X152969968Y-69382164D01*
X153012164Y-69339968D01*
X153035000Y-69284837D01*
X154235000Y-69284837D01*
X154257836Y-69339968D01*
X154300032Y-69382164D01*
X154355163Y-69405000D01*
X154414837Y-69405000D01*
X154469968Y-69382164D01*
X154512164Y-69339968D01*
X154535000Y-69284837D01*
X154535000Y-69225163D01*
X154512164Y-69170032D01*
X154469968Y-69127836D01*
X154414837Y-69105000D01*
X154355163Y-69105000D01*
X154300032Y-69127836D01*
X154257836Y-69170032D01*
X154235000Y-69225163D01*
X154235000Y-69284837D01*
X153035000Y-69284837D01*
X153035000Y-69225163D01*
X153012164Y-69170032D01*
X152969968Y-69127836D01*
X152914837Y-69105000D01*
X152855163Y-69105000D01*
X152800032Y-69127836D01*
X152757836Y-69170032D01*
X152735000Y-69225163D01*
X152735000Y-69284837D01*
X152587543Y-69284837D01*
X152585643Y-69281358D01*
X152590627Y-69211666D01*
X152619128Y-69167319D01*
X152749999Y-69036447D01*
X152750000Y-69036446D01*
X152750000Y-68963371D01*
X152769685Y-68896332D01*
X152811998Y-68855985D01*
X152844072Y-68837468D01*
X152907468Y-68774072D01*
X152930602Y-68734001D01*
X152981168Y-68685785D01*
X152981230Y-68685769D01*
X152995000Y-68672000D01*
X152995000Y-67954500D01*
X153014685Y-67887461D01*
X153067489Y-67841706D01*
X153119000Y-67830500D01*
X153151000Y-67830500D01*
X153218039Y-67850185D01*
G37*
%TD.AperFunction*%
%TA.AperFunction,Conductor*%
G36*
X152115668Y-69369307D02*
G01*
X152168039Y-69384685D01*
X152213794Y-69437489D01*
X152225000Y-69489000D01*
X152225000Y-70021000D01*
X152205315Y-70088039D01*
X152152511Y-70133794D01*
X152101000Y-70145000D01*
X152006362Y-70145000D01*
X151939323Y-70125315D01*
X151918681Y-70108681D01*
X151911319Y-70101319D01*
X151877834Y-70039996D01*
X151875000Y-70013638D01*
X151875000Y-69496362D01*
X151894685Y-69429323D01*
X151911319Y-69408681D01*
X151918681Y-69401319D01*
X151978593Y-69368604D01*
X152115668Y-69369307D01*
G37*
%TD.AperFunction*%
%TA.AperFunction,Conductor*%
G36*
X148872426Y-59311740D02*
G01*
X148915617Y-59366661D01*
X148924500Y-59412748D01*
X148924500Y-59886488D01*
X148904815Y-59953527D01*
X148852011Y-59999282D01*
X148824690Y-60008106D01*
X148780191Y-60016957D01*
X148710600Y-60010728D01*
X148687111Y-59998442D01*
X148647543Y-59972004D01*
X148647540Y-59972003D01*
X148574627Y-59957500D01*
X148400000Y-59957500D01*
X148400000Y-61887398D01*
X148380315Y-61954437D01*
X148327511Y-62000192D01*
X148275987Y-62011398D01*
X148023987Y-62011371D01*
X147956949Y-61991679D01*
X147911200Y-61938870D01*
X147900000Y-61887371D01*
X147900000Y-61357500D01*
X147500000Y-61357500D01*
X147500000Y-61887303D01*
X147480315Y-61954342D01*
X147427511Y-62000097D01*
X147375987Y-62011303D01*
X146683540Y-62011231D01*
X146683540Y-64408768D01*
X146663855Y-64475807D01*
X146611051Y-64521562D01*
X146541893Y-64531506D01*
X146478337Y-64502481D01*
X146471859Y-64496449D01*
X146402068Y-64426658D01*
X146368583Y-64365335D01*
X146365749Y-64338977D01*
X146365749Y-63733968D01*
X146365748Y-63733966D01*
X146354117Y-63675489D01*
X146354116Y-63675487D01*
X146352194Y-63672611D01*
X146349930Y-63665383D01*
X146349443Y-63664206D01*
X146349548Y-63664162D01*
X146331315Y-63605934D01*
X146349799Y-63538554D01*
X146352194Y-63534827D01*
X146354116Y-63531950D01*
X146354117Y-63531948D01*
X146365748Y-63473471D01*
X146365749Y-63473469D01*
X146365749Y-62433968D01*
X146365748Y-62433966D01*
X146354117Y-62375489D01*
X146354116Y-62375488D01*
X146309801Y-62309166D01*
X146243479Y-62264851D01*
X146243478Y-62264850D01*
X146185001Y-62253219D01*
X146184997Y-62253219D01*
X146114749Y-62253219D01*
X146047710Y-62233534D01*
X146001955Y-62180730D01*
X145990749Y-62129219D01*
X145990749Y-60857500D01*
X147500000Y-60857500D01*
X147900000Y-60857500D01*
X147900000Y-59957500D01*
X147725373Y-59957500D01*
X147652459Y-59972003D01*
X147652455Y-59972005D01*
X147569760Y-60027260D01*
X147514505Y-60109955D01*
X147514503Y-60109959D01*
X147500000Y-60182871D01*
X147500000Y-60857500D01*
X145990749Y-60857500D01*
X145990749Y-59941992D01*
X146010434Y-59874953D01*
X146027068Y-59854311D01*
X146452060Y-59429319D01*
X146513383Y-59395834D01*
X146539741Y-59393000D01*
X148508264Y-59393000D01*
X148508266Y-59393000D01*
X148654635Y-59353781D01*
X148738500Y-59305360D01*
X148806399Y-59288888D01*
X148872426Y-59311740D01*
G37*
%TD.AperFunction*%
%TD*%
M02*
