%TF.GenerationSoftware,KiCad,Pcbnew,8.0.1*%
%TF.CreationDate,2024-07-18T12:12:42-04:00*%
%TF.ProjectId,Tiny4FSK,54696e79-3446-4534-9b2e-6b696361645f,rev?*%
%TF.SameCoordinates,Original*%
%TF.FileFunction,Soldermask,Bot*%
%TF.FilePolarity,Negative*%
%FSLAX46Y46*%
G04 Gerber Fmt 4.6, Leading zero omitted, Abs format (unit mm)*
G04 Created by KiCad (PCBNEW 8.0.1) date 2024-07-18 12:12:42*
%MOMM*%
%LPD*%
G01*
G04 APERTURE LIST*
G04 Aperture macros list*
%AMRoundRect*
0 Rectangle with rounded corners*
0 $1 Rounding radius*
0 $2 $3 $4 $5 $6 $7 $8 $9 X,Y pos of 4 corners*
0 Add a 4 corners polygon primitive as box body*
4,1,4,$2,$3,$4,$5,$6,$7,$8,$9,$2,$3,0*
0 Add four circle primitives for the rounded corners*
1,1,$1+$1,$2,$3*
1,1,$1+$1,$4,$5*
1,1,$1+$1,$6,$7*
1,1,$1+$1,$8,$9*
0 Add four rect primitives between the rounded corners*
20,1,$1+$1,$2,$3,$4,$5,0*
20,1,$1+$1,$4,$5,$6,$7,0*
20,1,$1+$1,$6,$7,$8,$9,0*
20,1,$1+$1,$8,$9,$2,$3,0*%
G04 Aperture macros list end*
%ADD10C,0.650000*%
%ADD11O,1.000000X2.100000*%
%ADD12O,1.000000X1.800000*%
%ADD13R,1.700000X1.700000*%
%ADD14O,1.700000X1.700000*%
%ADD15C,2.200000*%
%ADD16C,0.600000*%
%ADD17C,2.000000*%
%ADD18RoundRect,0.500000X0.500000X2.000000X-0.500000X2.000000X-0.500000X-2.000000X0.500000X-2.000000X0*%
%ADD19C,0.900000*%
%ADD20RoundRect,0.102000X1.170000X-1.980000X1.170000X1.980000X-1.170000X1.980000X-1.170000X-1.980000X0*%
%ADD21RoundRect,0.102000X2.540000X-1.980000X2.540000X1.980000X-2.540000X1.980000X-2.540000X-1.980000X0*%
%ADD22RoundRect,0.102000X-2.540000X1.980000X-2.540000X-1.980000X2.540000X-1.980000X2.540000X1.980000X0*%
%ADD23RoundRect,0.102000X-1.170000X1.980000X-1.170000X-1.980000X1.170000X-1.980000X1.170000X1.980000X0*%
%ADD24R,2.400000X0.740000*%
G04 APERTURE END LIST*
D10*
%TO.C,J7*%
X129786776Y-101405139D03*
X135566776Y-101405139D03*
D11*
X128356776Y-100905139D03*
D12*
X128356776Y-105085139D03*
D11*
X136996776Y-100905139D03*
D12*
X136996776Y-105085139D03*
%TD*%
D13*
%TO.C,J5*%
X136241300Y-87746215D03*
D14*
X133701300Y-87746215D03*
X131161300Y-87746215D03*
X128621300Y-87746215D03*
%TD*%
D15*
%TO.C,H4*%
X142740304Y-110576559D03*
%TD*%
%TO.C,H2*%
X158250000Y-45600000D03*
%TD*%
D13*
%TO.C,J4*%
X142250000Y-84210000D03*
D14*
X142250000Y-86750000D03*
X142250000Y-89290000D03*
X142250000Y-91830000D03*
%TD*%
D13*
%TO.C,J3*%
X162250000Y-82700000D03*
D14*
X162250000Y-85240000D03*
X162250000Y-87780000D03*
X162250000Y-90320000D03*
%TD*%
D15*
%TO.C,H3*%
X122000000Y-58050000D03*
%TD*%
%TO.C,H1*%
X141750000Y-45250000D03*
%TD*%
D13*
%TO.C,J1*%
X142294431Y-63452157D03*
D14*
X142294431Y-60912157D03*
X142294431Y-58372157D03*
%TD*%
D16*
%TO.C,U3*%
X154385000Y-69255000D03*
X152885000Y-69255000D03*
X153635000Y-69755000D03*
X154385000Y-70255000D03*
X152885000Y-70255000D03*
%TD*%
D17*
%TO.C,AE2*%
X153911023Y-105665790D03*
D18*
X150696023Y-105665790D03*
X157126023Y-105665790D03*
%TD*%
D13*
%TO.C,J2*%
X162250000Y-71250000D03*
D14*
X162250000Y-73790000D03*
X162250000Y-76330000D03*
X162250000Y-78870000D03*
%TD*%
D13*
%TO.C,J6*%
X162250000Y-94175000D03*
D14*
X162250000Y-96715000D03*
X162250000Y-99255000D03*
X162250000Y-101795000D03*
X162250000Y-104335000D03*
%TD*%
D19*
%TO.C,SW1*%
X142189224Y-71250085D03*
X142189224Y-68250085D03*
%TD*%
D20*
%TO.C,BT1*%
X150250000Y-100750000D03*
D21*
X150250000Y-87900000D03*
D22*
X150250000Y-59325000D03*
D23*
X150250000Y-46475000D03*
%TD*%
D24*
%TO.C,J8*%
X146750000Y-101250000D03*
X142850000Y-101250000D03*
X146750000Y-102520000D03*
X142850000Y-102520000D03*
X146750000Y-103790000D03*
X142850000Y-103790000D03*
X146750000Y-105060000D03*
X142850000Y-105060000D03*
X146750000Y-106330000D03*
X142850000Y-106330000D03*
%TD*%
M02*
