%TF.GenerationSoftware,KiCad,Pcbnew,8.0.1*%
%TF.CreationDate,2024-07-18T12:12:42-04:00*%
%TF.ProjectId,Tiny4FSK,54696e79-3446-4534-9b2e-6b696361645f,rev?*%
%TF.SameCoordinates,Original*%
%TF.FileFunction,Legend,Bot*%
%TF.FilePolarity,Positive*%
%FSLAX46Y46*%
G04 Gerber Fmt 4.6, Leading zero omitted, Abs format (unit mm)*
G04 Created by KiCad (PCBNEW 8.0.1) date 2024-07-18 12:12:42*
%MOMM*%
%LPD*%
G01*
G04 APERTURE LIST*
%ADD10C,0.150000*%
%ADD11C,0.175000*%
%ADD12C,0.125000*%
%ADD13C,0.000000*%
%ADD14C,0.127000*%
%ADD15C,0.120000*%
G04 APERTURE END LIST*
D10*
X161619819Y-53122493D02*
X162334104Y-53122493D01*
X162334104Y-53122493D02*
X162476961Y-53074874D01*
X162476961Y-53074874D02*
X162572200Y-52979636D01*
X162572200Y-52979636D02*
X162619819Y-52836779D01*
X162619819Y-52836779D02*
X162619819Y-52741541D01*
X162619819Y-54074874D02*
X162619819Y-53598684D01*
X162619819Y-53598684D02*
X161619819Y-53598684D01*
X162524580Y-54979636D02*
X162572200Y-54932017D01*
X162572200Y-54932017D02*
X162619819Y-54789160D01*
X162619819Y-54789160D02*
X162619819Y-54693922D01*
X162619819Y-54693922D02*
X162572200Y-54551065D01*
X162572200Y-54551065D02*
X162476961Y-54455827D01*
X162476961Y-54455827D02*
X162381723Y-54408208D01*
X162381723Y-54408208D02*
X162191247Y-54360589D01*
X162191247Y-54360589D02*
X162048390Y-54360589D01*
X162048390Y-54360589D02*
X161857914Y-54408208D01*
X161857914Y-54408208D02*
X161762676Y-54455827D01*
X161762676Y-54455827D02*
X161667438Y-54551065D01*
X161667438Y-54551065D02*
X161619819Y-54693922D01*
X161619819Y-54693922D02*
X161619819Y-54789160D01*
X161619819Y-54789160D02*
X161667438Y-54932017D01*
X161667438Y-54932017D02*
X161715057Y-54979636D01*
X161619819Y-55693922D02*
X162334104Y-55693922D01*
X162334104Y-55693922D02*
X162476961Y-55646303D01*
X162476961Y-55646303D02*
X162572200Y-55551065D01*
X162572200Y-55551065D02*
X162619819Y-55408208D01*
X162619819Y-55408208D02*
X162619819Y-55312970D01*
X162619819Y-56646303D02*
X162619819Y-56170113D01*
X162619819Y-56170113D02*
X161619819Y-56170113D01*
X162524580Y-57551065D02*
X162572200Y-57503446D01*
X162572200Y-57503446D02*
X162619819Y-57360589D01*
X162619819Y-57360589D02*
X162619819Y-57265351D01*
X162619819Y-57265351D02*
X162572200Y-57122494D01*
X162572200Y-57122494D02*
X162476961Y-57027256D01*
X162476961Y-57027256D02*
X162381723Y-56979637D01*
X162381723Y-56979637D02*
X162191247Y-56932018D01*
X162191247Y-56932018D02*
X162048390Y-56932018D01*
X162048390Y-56932018D02*
X161857914Y-56979637D01*
X161857914Y-56979637D02*
X161762676Y-57027256D01*
X161762676Y-57027256D02*
X161667438Y-57122494D01*
X161667438Y-57122494D02*
X161619819Y-57265351D01*
X161619819Y-57265351D02*
X161619819Y-57360589D01*
X161619819Y-57360589D02*
X161667438Y-57503446D01*
X161667438Y-57503446D02*
X161715057Y-57551065D01*
X161619819Y-58265351D02*
X162334104Y-58265351D01*
X162334104Y-58265351D02*
X162476961Y-58217732D01*
X162476961Y-58217732D02*
X162572200Y-58122494D01*
X162572200Y-58122494D02*
X162619819Y-57979637D01*
X162619819Y-57979637D02*
X162619819Y-57884399D01*
X162619819Y-59217732D02*
X162619819Y-58741542D01*
X162619819Y-58741542D02*
X161619819Y-58741542D01*
X162524580Y-60122494D02*
X162572200Y-60074875D01*
X162572200Y-60074875D02*
X162619819Y-59932018D01*
X162619819Y-59932018D02*
X162619819Y-59836780D01*
X162619819Y-59836780D02*
X162572200Y-59693923D01*
X162572200Y-59693923D02*
X162476961Y-59598685D01*
X162476961Y-59598685D02*
X162381723Y-59551066D01*
X162381723Y-59551066D02*
X162191247Y-59503447D01*
X162191247Y-59503447D02*
X162048390Y-59503447D01*
X162048390Y-59503447D02*
X161857914Y-59551066D01*
X161857914Y-59551066D02*
X161762676Y-59598685D01*
X161762676Y-59598685D02*
X161667438Y-59693923D01*
X161667438Y-59693923D02*
X161619819Y-59836780D01*
X161619819Y-59836780D02*
X161619819Y-59932018D01*
X161619819Y-59932018D02*
X161667438Y-60074875D01*
X161667438Y-60074875D02*
X161715057Y-60122494D01*
X161619819Y-60836780D02*
X162334104Y-60836780D01*
X162334104Y-60836780D02*
X162476961Y-60789161D01*
X162476961Y-60789161D02*
X162572200Y-60693923D01*
X162572200Y-60693923D02*
X162619819Y-60551066D01*
X162619819Y-60551066D02*
X162619819Y-60455828D01*
X162619819Y-61789161D02*
X162619819Y-61312971D01*
X162619819Y-61312971D02*
X161619819Y-61312971D01*
X162524580Y-62693923D02*
X162572200Y-62646304D01*
X162572200Y-62646304D02*
X162619819Y-62503447D01*
X162619819Y-62503447D02*
X162619819Y-62408209D01*
X162619819Y-62408209D02*
X162572200Y-62265352D01*
X162572200Y-62265352D02*
X162476961Y-62170114D01*
X162476961Y-62170114D02*
X162381723Y-62122495D01*
X162381723Y-62122495D02*
X162191247Y-62074876D01*
X162191247Y-62074876D02*
X162048390Y-62074876D01*
X162048390Y-62074876D02*
X161857914Y-62122495D01*
X161857914Y-62122495D02*
X161762676Y-62170114D01*
X161762676Y-62170114D02*
X161667438Y-62265352D01*
X161667438Y-62265352D02*
X161619819Y-62408209D01*
X161619819Y-62408209D02*
X161619819Y-62503447D01*
X161619819Y-62503447D02*
X161667438Y-62646304D01*
X161667438Y-62646304D02*
X161715057Y-62693923D01*
D11*
X150288911Y-83655233D02*
X150522244Y-83321900D01*
X150688911Y-83655233D02*
X150688911Y-82955233D01*
X150688911Y-82955233D02*
X150422244Y-82955233D01*
X150422244Y-82955233D02*
X150355578Y-82988566D01*
X150355578Y-82988566D02*
X150322244Y-83021900D01*
X150322244Y-83021900D02*
X150288911Y-83088566D01*
X150288911Y-83088566D02*
X150288911Y-83188566D01*
X150288911Y-83188566D02*
X150322244Y-83255233D01*
X150322244Y-83255233D02*
X150355578Y-83288566D01*
X150355578Y-83288566D02*
X150422244Y-83321900D01*
X150422244Y-83321900D02*
X150688911Y-83321900D01*
X149722244Y-83621900D02*
X149788911Y-83655233D01*
X149788911Y-83655233D02*
X149922244Y-83655233D01*
X149922244Y-83655233D02*
X149988911Y-83621900D01*
X149988911Y-83621900D02*
X150022244Y-83555233D01*
X150022244Y-83555233D02*
X150022244Y-83288566D01*
X150022244Y-83288566D02*
X149988911Y-83221900D01*
X149988911Y-83221900D02*
X149922244Y-83188566D01*
X149922244Y-83188566D02*
X149788911Y-83188566D01*
X149788911Y-83188566D02*
X149722244Y-83221900D01*
X149722244Y-83221900D02*
X149688911Y-83288566D01*
X149688911Y-83288566D02*
X149688911Y-83355233D01*
X149688911Y-83355233D02*
X150022244Y-83421900D01*
X149455578Y-83188566D02*
X149288911Y-83655233D01*
X149288911Y-83655233D02*
X149122244Y-83188566D01*
X148855578Y-83588566D02*
X148822245Y-83621900D01*
X148822245Y-83621900D02*
X148855578Y-83655233D01*
X148855578Y-83655233D02*
X148888911Y-83621900D01*
X148888911Y-83621900D02*
X148855578Y-83588566D01*
X148855578Y-83588566D02*
X148855578Y-83655233D01*
X148022245Y-83021900D02*
X147988912Y-82988566D01*
X147988912Y-82988566D02*
X147922245Y-82955233D01*
X147922245Y-82955233D02*
X147755579Y-82955233D01*
X147755579Y-82955233D02*
X147688912Y-82988566D01*
X147688912Y-82988566D02*
X147655579Y-83021900D01*
X147655579Y-83021900D02*
X147622245Y-83088566D01*
X147622245Y-83088566D02*
X147622245Y-83155233D01*
X147622245Y-83155233D02*
X147655579Y-83255233D01*
X147655579Y-83255233D02*
X148055579Y-83655233D01*
X148055579Y-83655233D02*
X147622245Y-83655233D01*
X147322245Y-83588566D02*
X147288912Y-83621900D01*
X147288912Y-83621900D02*
X147322245Y-83655233D01*
X147322245Y-83655233D02*
X147355578Y-83621900D01*
X147355578Y-83621900D02*
X147322245Y-83588566D01*
X147322245Y-83588566D02*
X147322245Y-83655233D01*
X146855579Y-82955233D02*
X146788912Y-82955233D01*
X146788912Y-82955233D02*
X146722245Y-82988566D01*
X146722245Y-82988566D02*
X146688912Y-83021900D01*
X146688912Y-83021900D02*
X146655579Y-83088566D01*
X146655579Y-83088566D02*
X146622245Y-83221900D01*
X146622245Y-83221900D02*
X146622245Y-83388566D01*
X146622245Y-83388566D02*
X146655579Y-83521900D01*
X146655579Y-83521900D02*
X146688912Y-83588566D01*
X146688912Y-83588566D02*
X146722245Y-83621900D01*
X146722245Y-83621900D02*
X146788912Y-83655233D01*
X146788912Y-83655233D02*
X146855579Y-83655233D01*
X146855579Y-83655233D02*
X146922245Y-83621900D01*
X146922245Y-83621900D02*
X146955579Y-83588566D01*
X146955579Y-83588566D02*
X146988912Y-83521900D01*
X146988912Y-83521900D02*
X147022245Y-83388566D01*
X147022245Y-83388566D02*
X147022245Y-83221900D01*
X147022245Y-83221900D02*
X146988912Y-83088566D01*
X146988912Y-83088566D02*
X146955579Y-83021900D01*
X146955579Y-83021900D02*
X146922245Y-82988566D01*
X146922245Y-82988566D02*
X146855579Y-82955233D01*
X135218202Y-94155233D02*
X135218202Y-93455233D01*
X135218202Y-93455233D02*
X134984869Y-93955233D01*
X134984869Y-93955233D02*
X134751535Y-93455233D01*
X134751535Y-93455233D02*
X134751535Y-94155233D01*
X134118202Y-94155233D02*
X134118202Y-93788566D01*
X134118202Y-93788566D02*
X134151535Y-93721900D01*
X134151535Y-93721900D02*
X134218202Y-93688566D01*
X134218202Y-93688566D02*
X134351535Y-93688566D01*
X134351535Y-93688566D02*
X134418202Y-93721900D01*
X134118202Y-94121900D02*
X134184869Y-94155233D01*
X134184869Y-94155233D02*
X134351535Y-94155233D01*
X134351535Y-94155233D02*
X134418202Y-94121900D01*
X134418202Y-94121900D02*
X134451535Y-94055233D01*
X134451535Y-94055233D02*
X134451535Y-93988566D01*
X134451535Y-93988566D02*
X134418202Y-93921900D01*
X134418202Y-93921900D02*
X134351535Y-93888566D01*
X134351535Y-93888566D02*
X134184869Y-93888566D01*
X134184869Y-93888566D02*
X134118202Y-93855233D01*
X133851536Y-94155233D02*
X133484869Y-93688566D01*
X133851536Y-93688566D02*
X133484869Y-94155233D01*
X132751536Y-93455233D02*
X132584869Y-94155233D01*
X132584869Y-94155233D02*
X132451536Y-93655233D01*
X132451536Y-93655233D02*
X132318202Y-94155233D01*
X132318202Y-94155233D02*
X132151536Y-93455233D01*
X131751536Y-93455233D02*
X131684869Y-93455233D01*
X131684869Y-93455233D02*
X131618202Y-93488566D01*
X131618202Y-93488566D02*
X131584869Y-93521900D01*
X131584869Y-93521900D02*
X131551536Y-93588566D01*
X131551536Y-93588566D02*
X131518202Y-93721900D01*
X131518202Y-93721900D02*
X131518202Y-93888566D01*
X131518202Y-93888566D02*
X131551536Y-94021900D01*
X131551536Y-94021900D02*
X131584869Y-94088566D01*
X131584869Y-94088566D02*
X131618202Y-94121900D01*
X131618202Y-94121900D02*
X131684869Y-94155233D01*
X131684869Y-94155233D02*
X131751536Y-94155233D01*
X131751536Y-94155233D02*
X131818202Y-94121900D01*
X131818202Y-94121900D02*
X131851536Y-94088566D01*
X131851536Y-94088566D02*
X131884869Y-94021900D01*
X131884869Y-94021900D02*
X131918202Y-93888566D01*
X131918202Y-93888566D02*
X131918202Y-93721900D01*
X131918202Y-93721900D02*
X131884869Y-93588566D01*
X131884869Y-93588566D02*
X131851536Y-93521900D01*
X131851536Y-93521900D02*
X131818202Y-93488566D01*
X131818202Y-93488566D02*
X131751536Y-93455233D01*
X131218202Y-94155233D02*
X131218202Y-93455233D01*
X131218202Y-93455233D02*
X130984869Y-93955233D01*
X130984869Y-93955233D02*
X130751535Y-93455233D01*
X130751535Y-93455233D02*
X130751535Y-94155233D01*
X130484869Y-93455233D02*
X130018202Y-94155233D01*
X130018202Y-93455233D02*
X130484869Y-94155233D01*
X129818202Y-93455233D02*
X129351535Y-94155233D01*
X129351535Y-93455233D02*
X129818202Y-94155233D01*
X135718202Y-91955233D02*
X135718202Y-92521900D01*
X135718202Y-92521900D02*
X135684869Y-92588566D01*
X135684869Y-92588566D02*
X135651535Y-92621900D01*
X135651535Y-92621900D02*
X135584869Y-92655233D01*
X135584869Y-92655233D02*
X135451535Y-92655233D01*
X135451535Y-92655233D02*
X135384869Y-92621900D01*
X135384869Y-92621900D02*
X135351535Y-92588566D01*
X135351535Y-92588566D02*
X135318202Y-92521900D01*
X135318202Y-92521900D02*
X135318202Y-91955233D01*
X135018202Y-92621900D02*
X134918202Y-92655233D01*
X134918202Y-92655233D02*
X134751536Y-92655233D01*
X134751536Y-92655233D02*
X134684869Y-92621900D01*
X134684869Y-92621900D02*
X134651536Y-92588566D01*
X134651536Y-92588566D02*
X134618202Y-92521900D01*
X134618202Y-92521900D02*
X134618202Y-92455233D01*
X134618202Y-92455233D02*
X134651536Y-92388566D01*
X134651536Y-92388566D02*
X134684869Y-92355233D01*
X134684869Y-92355233D02*
X134751536Y-92321900D01*
X134751536Y-92321900D02*
X134884869Y-92288566D01*
X134884869Y-92288566D02*
X134951536Y-92255233D01*
X134951536Y-92255233D02*
X134984869Y-92221900D01*
X134984869Y-92221900D02*
X135018202Y-92155233D01*
X135018202Y-92155233D02*
X135018202Y-92088566D01*
X135018202Y-92088566D02*
X134984869Y-92021900D01*
X134984869Y-92021900D02*
X134951536Y-91988566D01*
X134951536Y-91988566D02*
X134884869Y-91955233D01*
X134884869Y-91955233D02*
X134718202Y-91955233D01*
X134718202Y-91955233D02*
X134618202Y-91988566D01*
X134084869Y-92288566D02*
X133984869Y-92321900D01*
X133984869Y-92321900D02*
X133951535Y-92355233D01*
X133951535Y-92355233D02*
X133918202Y-92421900D01*
X133918202Y-92421900D02*
X133918202Y-92521900D01*
X133918202Y-92521900D02*
X133951535Y-92588566D01*
X133951535Y-92588566D02*
X133984869Y-92621900D01*
X133984869Y-92621900D02*
X134051535Y-92655233D01*
X134051535Y-92655233D02*
X134318202Y-92655233D01*
X134318202Y-92655233D02*
X134318202Y-91955233D01*
X134318202Y-91955233D02*
X134084869Y-91955233D01*
X134084869Y-91955233D02*
X134018202Y-91988566D01*
X134018202Y-91988566D02*
X133984869Y-92021900D01*
X133984869Y-92021900D02*
X133951535Y-92088566D01*
X133951535Y-92088566D02*
X133951535Y-92155233D01*
X133951535Y-92155233D02*
X133984869Y-92221900D01*
X133984869Y-92221900D02*
X134018202Y-92255233D01*
X134018202Y-92255233D02*
X134084869Y-92288566D01*
X134084869Y-92288566D02*
X134318202Y-92288566D01*
X132851536Y-92288566D02*
X132751536Y-92321900D01*
X132751536Y-92321900D02*
X132718202Y-92355233D01*
X132718202Y-92355233D02*
X132684869Y-92421900D01*
X132684869Y-92421900D02*
X132684869Y-92521900D01*
X132684869Y-92521900D02*
X132718202Y-92588566D01*
X132718202Y-92588566D02*
X132751536Y-92621900D01*
X132751536Y-92621900D02*
X132818202Y-92655233D01*
X132818202Y-92655233D02*
X133084869Y-92655233D01*
X133084869Y-92655233D02*
X133084869Y-91955233D01*
X133084869Y-91955233D02*
X132851536Y-91955233D01*
X132851536Y-91955233D02*
X132784869Y-91988566D01*
X132784869Y-91988566D02*
X132751536Y-92021900D01*
X132751536Y-92021900D02*
X132718202Y-92088566D01*
X132718202Y-92088566D02*
X132718202Y-92155233D01*
X132718202Y-92155233D02*
X132751536Y-92221900D01*
X132751536Y-92221900D02*
X132784869Y-92255233D01*
X132784869Y-92255233D02*
X132851536Y-92288566D01*
X132851536Y-92288566D02*
X133084869Y-92288566D01*
X132384869Y-92655233D02*
X132384869Y-92188566D01*
X132384869Y-92321900D02*
X132351536Y-92255233D01*
X132351536Y-92255233D02*
X132318202Y-92221900D01*
X132318202Y-92221900D02*
X132251536Y-92188566D01*
X132251536Y-92188566D02*
X132184869Y-92188566D01*
X131684869Y-92621900D02*
X131751536Y-92655233D01*
X131751536Y-92655233D02*
X131884869Y-92655233D01*
X131884869Y-92655233D02*
X131951536Y-92621900D01*
X131951536Y-92621900D02*
X131984869Y-92555233D01*
X131984869Y-92555233D02*
X131984869Y-92288566D01*
X131984869Y-92288566D02*
X131951536Y-92221900D01*
X131951536Y-92221900D02*
X131884869Y-92188566D01*
X131884869Y-92188566D02*
X131751536Y-92188566D01*
X131751536Y-92188566D02*
X131684869Y-92221900D01*
X131684869Y-92221900D02*
X131651536Y-92288566D01*
X131651536Y-92288566D02*
X131651536Y-92355233D01*
X131651536Y-92355233D02*
X131984869Y-92421900D01*
X131051536Y-92655233D02*
X131051536Y-92288566D01*
X131051536Y-92288566D02*
X131084869Y-92221900D01*
X131084869Y-92221900D02*
X131151536Y-92188566D01*
X131151536Y-92188566D02*
X131284869Y-92188566D01*
X131284869Y-92188566D02*
X131351536Y-92221900D01*
X131051536Y-92621900D02*
X131118203Y-92655233D01*
X131118203Y-92655233D02*
X131284869Y-92655233D01*
X131284869Y-92655233D02*
X131351536Y-92621900D01*
X131351536Y-92621900D02*
X131384869Y-92555233D01*
X131384869Y-92555233D02*
X131384869Y-92488566D01*
X131384869Y-92488566D02*
X131351536Y-92421900D01*
X131351536Y-92421900D02*
X131284869Y-92388566D01*
X131284869Y-92388566D02*
X131118203Y-92388566D01*
X131118203Y-92388566D02*
X131051536Y-92355233D01*
X130718203Y-92655233D02*
X130718203Y-91955233D01*
X130651536Y-92388566D02*
X130451536Y-92655233D01*
X130451536Y-92188566D02*
X130718203Y-92455233D01*
X130051536Y-92655233D02*
X130118203Y-92621900D01*
X130118203Y-92621900D02*
X130151536Y-92588566D01*
X130151536Y-92588566D02*
X130184869Y-92521900D01*
X130184869Y-92521900D02*
X130184869Y-92321900D01*
X130184869Y-92321900D02*
X130151536Y-92255233D01*
X130151536Y-92255233D02*
X130118203Y-92221900D01*
X130118203Y-92221900D02*
X130051536Y-92188566D01*
X130051536Y-92188566D02*
X129951536Y-92188566D01*
X129951536Y-92188566D02*
X129884869Y-92221900D01*
X129884869Y-92221900D02*
X129851536Y-92255233D01*
X129851536Y-92255233D02*
X129818203Y-92321900D01*
X129818203Y-92321900D02*
X129818203Y-92521900D01*
X129818203Y-92521900D02*
X129851536Y-92588566D01*
X129851536Y-92588566D02*
X129884869Y-92621900D01*
X129884869Y-92621900D02*
X129951536Y-92655233D01*
X129951536Y-92655233D02*
X130051536Y-92655233D01*
X129218203Y-92188566D02*
X129218203Y-92655233D01*
X129518203Y-92188566D02*
X129518203Y-92555233D01*
X129518203Y-92555233D02*
X129484870Y-92621900D01*
X129484870Y-92621900D02*
X129418203Y-92655233D01*
X129418203Y-92655233D02*
X129318203Y-92655233D01*
X129318203Y-92655233D02*
X129251536Y-92621900D01*
X129251536Y-92621900D02*
X129218203Y-92588566D01*
X128984870Y-92188566D02*
X128718203Y-92188566D01*
X128884870Y-91955233D02*
X128884870Y-92555233D01*
X128884870Y-92555233D02*
X128851537Y-92621900D01*
X128851537Y-92621900D02*
X128784870Y-92655233D01*
X128784870Y-92655233D02*
X128718203Y-92655233D01*
X152038912Y-77455233D02*
X152038912Y-77955233D01*
X152038912Y-77955233D02*
X152072245Y-78055233D01*
X152072245Y-78055233D02*
X152138912Y-78121900D01*
X152138912Y-78121900D02*
X152238912Y-78155233D01*
X152238912Y-78155233D02*
X152305579Y-78155233D01*
X151405579Y-77688566D02*
X151405579Y-78155233D01*
X151705579Y-77688566D02*
X151705579Y-78055233D01*
X151705579Y-78055233D02*
X151672246Y-78121900D01*
X151672246Y-78121900D02*
X151605579Y-78155233D01*
X151605579Y-78155233D02*
X151505579Y-78155233D01*
X151505579Y-78155233D02*
X151438912Y-78121900D01*
X151438912Y-78121900D02*
X151405579Y-78088566D01*
X150972246Y-78155233D02*
X151038913Y-78121900D01*
X151038913Y-78121900D02*
X151072246Y-78055233D01*
X151072246Y-78055233D02*
X151072246Y-77455233D01*
X150772246Y-77688566D02*
X150605579Y-78155233D01*
X150438912Y-77688566D02*
X150605579Y-78155233D01*
X150605579Y-78155233D02*
X150672246Y-78321900D01*
X150672246Y-78321900D02*
X150705579Y-78355233D01*
X150705579Y-78355233D02*
X150772246Y-78388566D01*
X149272246Y-78155233D02*
X149672246Y-78155233D01*
X149472246Y-78155233D02*
X149472246Y-77455233D01*
X149472246Y-77455233D02*
X149538913Y-77555233D01*
X149538913Y-77555233D02*
X149605580Y-77621900D01*
X149605580Y-77621900D02*
X149672246Y-77655233D01*
X148872246Y-77755233D02*
X148938913Y-77721900D01*
X148938913Y-77721900D02*
X148972246Y-77688566D01*
X148972246Y-77688566D02*
X149005579Y-77621900D01*
X149005579Y-77621900D02*
X149005579Y-77588566D01*
X149005579Y-77588566D02*
X148972246Y-77521900D01*
X148972246Y-77521900D02*
X148938913Y-77488566D01*
X148938913Y-77488566D02*
X148872246Y-77455233D01*
X148872246Y-77455233D02*
X148738913Y-77455233D01*
X148738913Y-77455233D02*
X148672246Y-77488566D01*
X148672246Y-77488566D02*
X148638913Y-77521900D01*
X148638913Y-77521900D02*
X148605579Y-77588566D01*
X148605579Y-77588566D02*
X148605579Y-77621900D01*
X148605579Y-77621900D02*
X148638913Y-77688566D01*
X148638913Y-77688566D02*
X148672246Y-77721900D01*
X148672246Y-77721900D02*
X148738913Y-77755233D01*
X148738913Y-77755233D02*
X148872246Y-77755233D01*
X148872246Y-77755233D02*
X148938913Y-77788566D01*
X148938913Y-77788566D02*
X148972246Y-77821900D01*
X148972246Y-77821900D02*
X149005579Y-77888566D01*
X149005579Y-77888566D02*
X149005579Y-78021900D01*
X149005579Y-78021900D02*
X148972246Y-78088566D01*
X148972246Y-78088566D02*
X148938913Y-78121900D01*
X148938913Y-78121900D02*
X148872246Y-78155233D01*
X148872246Y-78155233D02*
X148738913Y-78155233D01*
X148738913Y-78155233D02*
X148672246Y-78121900D01*
X148672246Y-78121900D02*
X148638913Y-78088566D01*
X148638913Y-78088566D02*
X148605579Y-78021900D01*
X148605579Y-78021900D02*
X148605579Y-77888566D01*
X148605579Y-77888566D02*
X148638913Y-77821900D01*
X148638913Y-77821900D02*
X148672246Y-77788566D01*
X148672246Y-77788566D02*
X148738913Y-77755233D01*
X148272246Y-78121900D02*
X148272246Y-78155233D01*
X148272246Y-78155233D02*
X148305579Y-78221900D01*
X148305579Y-78221900D02*
X148338912Y-78255233D01*
X147472246Y-77521900D02*
X147438913Y-77488566D01*
X147438913Y-77488566D02*
X147372246Y-77455233D01*
X147372246Y-77455233D02*
X147205580Y-77455233D01*
X147205580Y-77455233D02*
X147138913Y-77488566D01*
X147138913Y-77488566D02*
X147105580Y-77521900D01*
X147105580Y-77521900D02*
X147072246Y-77588566D01*
X147072246Y-77588566D02*
X147072246Y-77655233D01*
X147072246Y-77655233D02*
X147105580Y-77755233D01*
X147105580Y-77755233D02*
X147505580Y-78155233D01*
X147505580Y-78155233D02*
X147072246Y-78155233D01*
X146638913Y-77455233D02*
X146572246Y-77455233D01*
X146572246Y-77455233D02*
X146505579Y-77488566D01*
X146505579Y-77488566D02*
X146472246Y-77521900D01*
X146472246Y-77521900D02*
X146438913Y-77588566D01*
X146438913Y-77588566D02*
X146405579Y-77721900D01*
X146405579Y-77721900D02*
X146405579Y-77888566D01*
X146405579Y-77888566D02*
X146438913Y-78021900D01*
X146438913Y-78021900D02*
X146472246Y-78088566D01*
X146472246Y-78088566D02*
X146505579Y-78121900D01*
X146505579Y-78121900D02*
X146572246Y-78155233D01*
X146572246Y-78155233D02*
X146638913Y-78155233D01*
X146638913Y-78155233D02*
X146705579Y-78121900D01*
X146705579Y-78121900D02*
X146738913Y-78088566D01*
X146738913Y-78088566D02*
X146772246Y-78021900D01*
X146772246Y-78021900D02*
X146805579Y-77888566D01*
X146805579Y-77888566D02*
X146805579Y-77721900D01*
X146805579Y-77721900D02*
X146772246Y-77588566D01*
X146772246Y-77588566D02*
X146738913Y-77521900D01*
X146738913Y-77521900D02*
X146705579Y-77488566D01*
X146705579Y-77488566D02*
X146638913Y-77455233D01*
X146138912Y-77521900D02*
X146105579Y-77488566D01*
X146105579Y-77488566D02*
X146038912Y-77455233D01*
X146038912Y-77455233D02*
X145872246Y-77455233D01*
X145872246Y-77455233D02*
X145805579Y-77488566D01*
X145805579Y-77488566D02*
X145772246Y-77521900D01*
X145772246Y-77521900D02*
X145738912Y-77588566D01*
X145738912Y-77588566D02*
X145738912Y-77655233D01*
X145738912Y-77655233D02*
X145772246Y-77755233D01*
X145772246Y-77755233D02*
X146172246Y-78155233D01*
X146172246Y-78155233D02*
X145738912Y-78155233D01*
X145138912Y-77688566D02*
X145138912Y-78155233D01*
X145305579Y-77421900D02*
X145472245Y-77921900D01*
X145472245Y-77921900D02*
X145038912Y-77921900D01*
X157441167Y-78884869D02*
X157441167Y-79218202D01*
X157441167Y-79218202D02*
X158141167Y-79218202D01*
X157441167Y-78651535D02*
X157907834Y-78651535D01*
X158141167Y-78651535D02*
X158107834Y-78684868D01*
X158107834Y-78684868D02*
X158074501Y-78651535D01*
X158074501Y-78651535D02*
X158107834Y-78618202D01*
X158107834Y-78618202D02*
X158141167Y-78651535D01*
X158141167Y-78651535D02*
X158074501Y-78651535D01*
X157474501Y-78018202D02*
X157441167Y-78084869D01*
X157441167Y-78084869D02*
X157441167Y-78218202D01*
X157441167Y-78218202D02*
X157474501Y-78284869D01*
X157474501Y-78284869D02*
X157507834Y-78318202D01*
X157507834Y-78318202D02*
X157574501Y-78351535D01*
X157574501Y-78351535D02*
X157774501Y-78351535D01*
X157774501Y-78351535D02*
X157841167Y-78318202D01*
X157841167Y-78318202D02*
X157874501Y-78284869D01*
X157874501Y-78284869D02*
X157907834Y-78218202D01*
X157907834Y-78218202D02*
X157907834Y-78084869D01*
X157907834Y-78084869D02*
X157874501Y-78018202D01*
X157474501Y-77451535D02*
X157441167Y-77518202D01*
X157441167Y-77518202D02*
X157441167Y-77651535D01*
X157441167Y-77651535D02*
X157474501Y-77718202D01*
X157474501Y-77718202D02*
X157541167Y-77751535D01*
X157541167Y-77751535D02*
X157807834Y-77751535D01*
X157807834Y-77751535D02*
X157874501Y-77718202D01*
X157874501Y-77718202D02*
X157907834Y-77651535D01*
X157907834Y-77651535D02*
X157907834Y-77518202D01*
X157907834Y-77518202D02*
X157874501Y-77451535D01*
X157874501Y-77451535D02*
X157807834Y-77418202D01*
X157807834Y-77418202D02*
X157741167Y-77418202D01*
X157741167Y-77418202D02*
X157674501Y-77751535D01*
X157907834Y-77118202D02*
X157441167Y-77118202D01*
X157841167Y-77118202D02*
X157874501Y-77084869D01*
X157874501Y-77084869D02*
X157907834Y-77018202D01*
X157907834Y-77018202D02*
X157907834Y-76918202D01*
X157907834Y-76918202D02*
X157874501Y-76851535D01*
X157874501Y-76851535D02*
X157807834Y-76818202D01*
X157807834Y-76818202D02*
X157441167Y-76818202D01*
X157474501Y-76518202D02*
X157441167Y-76451536D01*
X157441167Y-76451536D02*
X157441167Y-76318202D01*
X157441167Y-76318202D02*
X157474501Y-76251536D01*
X157474501Y-76251536D02*
X157541167Y-76218202D01*
X157541167Y-76218202D02*
X157574501Y-76218202D01*
X157574501Y-76218202D02*
X157641167Y-76251536D01*
X157641167Y-76251536D02*
X157674501Y-76318202D01*
X157674501Y-76318202D02*
X157674501Y-76418202D01*
X157674501Y-76418202D02*
X157707834Y-76484869D01*
X157707834Y-76484869D02*
X157774501Y-76518202D01*
X157774501Y-76518202D02*
X157807834Y-76518202D01*
X157807834Y-76518202D02*
X157874501Y-76484869D01*
X157874501Y-76484869D02*
X157907834Y-76418202D01*
X157907834Y-76418202D02*
X157907834Y-76318202D01*
X157907834Y-76318202D02*
X157874501Y-76251536D01*
X157474501Y-75651535D02*
X157441167Y-75718202D01*
X157441167Y-75718202D02*
X157441167Y-75851535D01*
X157441167Y-75851535D02*
X157474501Y-75918202D01*
X157474501Y-75918202D02*
X157541167Y-75951535D01*
X157541167Y-75951535D02*
X157807834Y-75951535D01*
X157807834Y-75951535D02*
X157874501Y-75918202D01*
X157874501Y-75918202D02*
X157907834Y-75851535D01*
X157907834Y-75851535D02*
X157907834Y-75718202D01*
X157907834Y-75718202D02*
X157874501Y-75651535D01*
X157874501Y-75651535D02*
X157807834Y-75618202D01*
X157807834Y-75618202D02*
X157741167Y-75618202D01*
X157741167Y-75618202D02*
X157674501Y-75951535D01*
X157441167Y-75018202D02*
X158141167Y-75018202D01*
X157474501Y-75018202D02*
X157441167Y-75084869D01*
X157441167Y-75084869D02*
X157441167Y-75218202D01*
X157441167Y-75218202D02*
X157474501Y-75284869D01*
X157474501Y-75284869D02*
X157507834Y-75318202D01*
X157507834Y-75318202D02*
X157574501Y-75351535D01*
X157574501Y-75351535D02*
X157774501Y-75351535D01*
X157774501Y-75351535D02*
X157841167Y-75318202D01*
X157841167Y-75318202D02*
X157874501Y-75284869D01*
X157874501Y-75284869D02*
X157907834Y-75218202D01*
X157907834Y-75218202D02*
X157907834Y-75084869D01*
X157907834Y-75084869D02*
X157874501Y-75018202D01*
X157907834Y-73851536D02*
X157441167Y-73851536D01*
X157907834Y-74151536D02*
X157541167Y-74151536D01*
X157541167Y-74151536D02*
X157474501Y-74118203D01*
X157474501Y-74118203D02*
X157441167Y-74051536D01*
X157441167Y-74051536D02*
X157441167Y-73951536D01*
X157441167Y-73951536D02*
X157474501Y-73884869D01*
X157474501Y-73884869D02*
X157507834Y-73851536D01*
X157907834Y-73518203D02*
X157441167Y-73518203D01*
X157841167Y-73518203D02*
X157874501Y-73484870D01*
X157874501Y-73484870D02*
X157907834Y-73418203D01*
X157907834Y-73418203D02*
X157907834Y-73318203D01*
X157907834Y-73318203D02*
X157874501Y-73251536D01*
X157874501Y-73251536D02*
X157807834Y-73218203D01*
X157807834Y-73218203D02*
X157441167Y-73218203D01*
X157441167Y-72584870D02*
X158141167Y-72584870D01*
X157474501Y-72584870D02*
X157441167Y-72651537D01*
X157441167Y-72651537D02*
X157441167Y-72784870D01*
X157441167Y-72784870D02*
X157474501Y-72851537D01*
X157474501Y-72851537D02*
X157507834Y-72884870D01*
X157507834Y-72884870D02*
X157574501Y-72918203D01*
X157574501Y-72918203D02*
X157774501Y-72918203D01*
X157774501Y-72918203D02*
X157841167Y-72884870D01*
X157841167Y-72884870D02*
X157874501Y-72851537D01*
X157874501Y-72851537D02*
X157907834Y-72784870D01*
X157907834Y-72784870D02*
X157907834Y-72651537D01*
X157907834Y-72651537D02*
X157874501Y-72584870D01*
X157474501Y-71984870D02*
X157441167Y-72051537D01*
X157441167Y-72051537D02*
X157441167Y-72184870D01*
X157441167Y-72184870D02*
X157474501Y-72251537D01*
X157474501Y-72251537D02*
X157541167Y-72284870D01*
X157541167Y-72284870D02*
X157807834Y-72284870D01*
X157807834Y-72284870D02*
X157874501Y-72251537D01*
X157874501Y-72251537D02*
X157907834Y-72184870D01*
X157907834Y-72184870D02*
X157907834Y-72051537D01*
X157907834Y-72051537D02*
X157874501Y-71984870D01*
X157874501Y-71984870D02*
X157807834Y-71951537D01*
X157807834Y-71951537D02*
X157741167Y-71951537D01*
X157741167Y-71951537D02*
X157674501Y-72284870D01*
X157441167Y-71651537D02*
X157907834Y-71651537D01*
X157774501Y-71651537D02*
X157841167Y-71618204D01*
X157841167Y-71618204D02*
X157874501Y-71584870D01*
X157874501Y-71584870D02*
X157907834Y-71518204D01*
X157907834Y-71518204D02*
X157907834Y-71451537D01*
X157507834Y-70284871D02*
X157474501Y-70318204D01*
X157474501Y-70318204D02*
X157441167Y-70418204D01*
X157441167Y-70418204D02*
X157441167Y-70484871D01*
X157441167Y-70484871D02*
X157474501Y-70584871D01*
X157474501Y-70584871D02*
X157541167Y-70651538D01*
X157541167Y-70651538D02*
X157607834Y-70684871D01*
X157607834Y-70684871D02*
X157741167Y-70718204D01*
X157741167Y-70718204D02*
X157841167Y-70718204D01*
X157841167Y-70718204D02*
X157974501Y-70684871D01*
X157974501Y-70684871D02*
X158041167Y-70651538D01*
X158041167Y-70651538D02*
X158107834Y-70584871D01*
X158107834Y-70584871D02*
X158141167Y-70484871D01*
X158141167Y-70484871D02*
X158141167Y-70418204D01*
X158141167Y-70418204D02*
X158107834Y-70318204D01*
X158107834Y-70318204D02*
X158074501Y-70284871D01*
X157807834Y-69984871D02*
X157807834Y-69751538D01*
X157441167Y-69651538D02*
X157441167Y-69984871D01*
X157441167Y-69984871D02*
X158141167Y-69984871D01*
X158141167Y-69984871D02*
X158141167Y-69651538D01*
X157441167Y-68951538D02*
X157774501Y-69184871D01*
X157441167Y-69351538D02*
X158141167Y-69351538D01*
X158141167Y-69351538D02*
X158141167Y-69084871D01*
X158141167Y-69084871D02*
X158107834Y-69018205D01*
X158107834Y-69018205D02*
X158074501Y-68984871D01*
X158074501Y-68984871D02*
X158007834Y-68951538D01*
X158007834Y-68951538D02*
X157907834Y-68951538D01*
X157907834Y-68951538D02*
X157841167Y-68984871D01*
X157841167Y-68984871D02*
X157807834Y-69018205D01*
X157807834Y-69018205D02*
X157774501Y-69084871D01*
X157774501Y-69084871D02*
X157774501Y-69351538D01*
X157441167Y-68651538D02*
X158141167Y-68651538D01*
X158141167Y-68651538D02*
X157441167Y-68251538D01*
X157441167Y-68251538D02*
X158141167Y-68251538D01*
X157707834Y-67918205D02*
X157707834Y-67384872D01*
X158141167Y-66918205D02*
X158141167Y-66784871D01*
X158141167Y-66784871D02*
X158107834Y-66718205D01*
X158107834Y-66718205D02*
X158041167Y-66651538D01*
X158041167Y-66651538D02*
X157907834Y-66618205D01*
X157907834Y-66618205D02*
X157674501Y-66618205D01*
X157674501Y-66618205D02*
X157541167Y-66651538D01*
X157541167Y-66651538D02*
X157474501Y-66718205D01*
X157474501Y-66718205D02*
X157441167Y-66784871D01*
X157441167Y-66784871D02*
X157441167Y-66918205D01*
X157441167Y-66918205D02*
X157474501Y-66984871D01*
X157474501Y-66984871D02*
X157541167Y-67051538D01*
X157541167Y-67051538D02*
X157674501Y-67084871D01*
X157674501Y-67084871D02*
X157907834Y-67084871D01*
X157907834Y-67084871D02*
X158041167Y-67051538D01*
X158041167Y-67051538D02*
X158107834Y-66984871D01*
X158107834Y-66984871D02*
X158141167Y-66918205D01*
X157441167Y-66318205D02*
X158141167Y-66318205D01*
X157807834Y-66318205D02*
X157807834Y-65918205D01*
X157441167Y-65918205D02*
X158141167Y-65918205D01*
X157441167Y-65251539D02*
X157441167Y-65584872D01*
X157441167Y-65584872D02*
X158141167Y-65584872D01*
X157707834Y-65018205D02*
X157707834Y-64484872D01*
X158141167Y-64218205D02*
X157441167Y-64051538D01*
X157441167Y-64051538D02*
X157941167Y-63918205D01*
X157941167Y-63918205D02*
X157441167Y-63784871D01*
X157441167Y-63784871D02*
X158141167Y-63618205D01*
X157707834Y-63351538D02*
X157707834Y-62818205D01*
X158074501Y-62518204D02*
X158107834Y-62484871D01*
X158107834Y-62484871D02*
X158141167Y-62418204D01*
X158141167Y-62418204D02*
X158141167Y-62251538D01*
X158141167Y-62251538D02*
X158107834Y-62184871D01*
X158107834Y-62184871D02*
X158074501Y-62151538D01*
X158074501Y-62151538D02*
X158007834Y-62118204D01*
X158007834Y-62118204D02*
X157941167Y-62118204D01*
X157941167Y-62118204D02*
X157841167Y-62151538D01*
X157841167Y-62151538D02*
X157441167Y-62551538D01*
X157441167Y-62551538D02*
X157441167Y-62118204D01*
X157507834Y-61818204D02*
X157474501Y-61784871D01*
X157474501Y-61784871D02*
X157441167Y-61818204D01*
X157441167Y-61818204D02*
X157474501Y-61851537D01*
X157474501Y-61851537D02*
X157507834Y-61818204D01*
X157507834Y-61818204D02*
X157441167Y-61818204D01*
X158141167Y-61351538D02*
X158141167Y-61284871D01*
X158141167Y-61284871D02*
X158107834Y-61218204D01*
X158107834Y-61218204D02*
X158074501Y-61184871D01*
X158074501Y-61184871D02*
X158007834Y-61151538D01*
X158007834Y-61151538D02*
X157874501Y-61118204D01*
X157874501Y-61118204D02*
X157707834Y-61118204D01*
X157707834Y-61118204D02*
X157574501Y-61151538D01*
X157574501Y-61151538D02*
X157507834Y-61184871D01*
X157507834Y-61184871D02*
X157474501Y-61218204D01*
X157474501Y-61218204D02*
X157441167Y-61284871D01*
X157441167Y-61284871D02*
X157441167Y-61351538D01*
X157441167Y-61351538D02*
X157474501Y-61418204D01*
X157474501Y-61418204D02*
X157507834Y-61451538D01*
X157507834Y-61451538D02*
X157574501Y-61484871D01*
X157574501Y-61484871D02*
X157707834Y-61518204D01*
X157707834Y-61518204D02*
X157874501Y-61518204D01*
X157874501Y-61518204D02*
X158007834Y-61484871D01*
X158007834Y-61484871D02*
X158074501Y-61451538D01*
X158074501Y-61451538D02*
X158107834Y-61418204D01*
X158107834Y-61418204D02*
X158141167Y-61351538D01*
X157907834Y-99639446D02*
X157341167Y-99639446D01*
X157341167Y-99639446D02*
X157274501Y-99672779D01*
X157274501Y-99672779D02*
X157241167Y-99706113D01*
X157241167Y-99706113D02*
X157207834Y-99772779D01*
X157207834Y-99772779D02*
X157207834Y-99872779D01*
X157207834Y-99872779D02*
X157241167Y-99939446D01*
X157474501Y-99639446D02*
X157441167Y-99706113D01*
X157441167Y-99706113D02*
X157441167Y-99839446D01*
X157441167Y-99839446D02*
X157474501Y-99906113D01*
X157474501Y-99906113D02*
X157507834Y-99939446D01*
X157507834Y-99939446D02*
X157574501Y-99972779D01*
X157574501Y-99972779D02*
X157774501Y-99972779D01*
X157774501Y-99972779D02*
X157841167Y-99939446D01*
X157841167Y-99939446D02*
X157874501Y-99906113D01*
X157874501Y-99906113D02*
X157907834Y-99839446D01*
X157907834Y-99839446D02*
X157907834Y-99706113D01*
X157907834Y-99706113D02*
X157874501Y-99639446D01*
X157441167Y-99306113D02*
X157907834Y-99306113D01*
X158141167Y-99306113D02*
X158107834Y-99339446D01*
X158107834Y-99339446D02*
X158074501Y-99306113D01*
X158074501Y-99306113D02*
X158107834Y-99272780D01*
X158107834Y-99272780D02*
X158141167Y-99306113D01*
X158141167Y-99306113D02*
X158074501Y-99306113D01*
X157907834Y-99072780D02*
X157907834Y-98806113D01*
X158141167Y-98972780D02*
X157541167Y-98972780D01*
X157541167Y-98972780D02*
X157474501Y-98939447D01*
X157474501Y-98939447D02*
X157441167Y-98872780D01*
X157441167Y-98872780D02*
X157441167Y-98806113D01*
X157441167Y-98572780D02*
X158141167Y-98572780D01*
X157441167Y-98272780D02*
X157807834Y-98272780D01*
X157807834Y-98272780D02*
X157874501Y-98306113D01*
X157874501Y-98306113D02*
X157907834Y-98372780D01*
X157907834Y-98372780D02*
X157907834Y-98472780D01*
X157907834Y-98472780D02*
X157874501Y-98539447D01*
X157874501Y-98539447D02*
X157841167Y-98572780D01*
X157907834Y-97639447D02*
X157441167Y-97639447D01*
X157907834Y-97939447D02*
X157541167Y-97939447D01*
X157541167Y-97939447D02*
X157474501Y-97906114D01*
X157474501Y-97906114D02*
X157441167Y-97839447D01*
X157441167Y-97839447D02*
X157441167Y-97739447D01*
X157441167Y-97739447D02*
X157474501Y-97672780D01*
X157474501Y-97672780D02*
X157507834Y-97639447D01*
X157441167Y-97306114D02*
X158141167Y-97306114D01*
X157874501Y-97306114D02*
X157907834Y-97239447D01*
X157907834Y-97239447D02*
X157907834Y-97106114D01*
X157907834Y-97106114D02*
X157874501Y-97039447D01*
X157874501Y-97039447D02*
X157841167Y-97006114D01*
X157841167Y-97006114D02*
X157774501Y-96972781D01*
X157774501Y-96972781D02*
X157574501Y-96972781D01*
X157574501Y-96972781D02*
X157507834Y-97006114D01*
X157507834Y-97006114D02*
X157474501Y-97039447D01*
X157474501Y-97039447D02*
X157441167Y-97106114D01*
X157441167Y-97106114D02*
X157441167Y-97239447D01*
X157441167Y-97239447D02*
X157474501Y-97306114D01*
X157507834Y-96672781D02*
X157474501Y-96639448D01*
X157474501Y-96639448D02*
X157441167Y-96672781D01*
X157441167Y-96672781D02*
X157474501Y-96706114D01*
X157474501Y-96706114D02*
X157507834Y-96672781D01*
X157507834Y-96672781D02*
X157441167Y-96672781D01*
X157474501Y-96039448D02*
X157441167Y-96106115D01*
X157441167Y-96106115D02*
X157441167Y-96239448D01*
X157441167Y-96239448D02*
X157474501Y-96306115D01*
X157474501Y-96306115D02*
X157507834Y-96339448D01*
X157507834Y-96339448D02*
X157574501Y-96372781D01*
X157574501Y-96372781D02*
X157774501Y-96372781D01*
X157774501Y-96372781D02*
X157841167Y-96339448D01*
X157841167Y-96339448D02*
X157874501Y-96306115D01*
X157874501Y-96306115D02*
X157907834Y-96239448D01*
X157907834Y-96239448D02*
X157907834Y-96106115D01*
X157907834Y-96106115D02*
X157874501Y-96039448D01*
X157441167Y-95639448D02*
X157474501Y-95706115D01*
X157474501Y-95706115D02*
X157507834Y-95739448D01*
X157507834Y-95739448D02*
X157574501Y-95772781D01*
X157574501Y-95772781D02*
X157774501Y-95772781D01*
X157774501Y-95772781D02*
X157841167Y-95739448D01*
X157841167Y-95739448D02*
X157874501Y-95706115D01*
X157874501Y-95706115D02*
X157907834Y-95639448D01*
X157907834Y-95639448D02*
X157907834Y-95539448D01*
X157907834Y-95539448D02*
X157874501Y-95472781D01*
X157874501Y-95472781D02*
X157841167Y-95439448D01*
X157841167Y-95439448D02*
X157774501Y-95406115D01*
X157774501Y-95406115D02*
X157574501Y-95406115D01*
X157574501Y-95406115D02*
X157507834Y-95439448D01*
X157507834Y-95439448D02*
X157474501Y-95472781D01*
X157474501Y-95472781D02*
X157441167Y-95539448D01*
X157441167Y-95539448D02*
X157441167Y-95639448D01*
X157441167Y-95106115D02*
X157907834Y-95106115D01*
X157841167Y-95106115D02*
X157874501Y-95072782D01*
X157874501Y-95072782D02*
X157907834Y-95006115D01*
X157907834Y-95006115D02*
X157907834Y-94906115D01*
X157907834Y-94906115D02*
X157874501Y-94839448D01*
X157874501Y-94839448D02*
X157807834Y-94806115D01*
X157807834Y-94806115D02*
X157441167Y-94806115D01*
X157807834Y-94806115D02*
X157874501Y-94772782D01*
X157874501Y-94772782D02*
X157907834Y-94706115D01*
X157907834Y-94706115D02*
X157907834Y-94606115D01*
X157907834Y-94606115D02*
X157874501Y-94539448D01*
X157874501Y-94539448D02*
X157807834Y-94506115D01*
X157807834Y-94506115D02*
X157441167Y-94506115D01*
X158174501Y-93672782D02*
X157274501Y-94272782D01*
X157441167Y-93439449D02*
X157907834Y-93439449D01*
X157841167Y-93439449D02*
X157874501Y-93406116D01*
X157874501Y-93406116D02*
X157907834Y-93339449D01*
X157907834Y-93339449D02*
X157907834Y-93239449D01*
X157907834Y-93239449D02*
X157874501Y-93172782D01*
X157874501Y-93172782D02*
X157807834Y-93139449D01*
X157807834Y-93139449D02*
X157441167Y-93139449D01*
X157807834Y-93139449D02*
X157874501Y-93106116D01*
X157874501Y-93106116D02*
X157907834Y-93039449D01*
X157907834Y-93039449D02*
X157907834Y-92939449D01*
X157907834Y-92939449D02*
X157874501Y-92872782D01*
X157874501Y-92872782D02*
X157807834Y-92839449D01*
X157807834Y-92839449D02*
X157441167Y-92839449D01*
X157441167Y-92206116D02*
X157807834Y-92206116D01*
X157807834Y-92206116D02*
X157874501Y-92239449D01*
X157874501Y-92239449D02*
X157907834Y-92306116D01*
X157907834Y-92306116D02*
X157907834Y-92439449D01*
X157907834Y-92439449D02*
X157874501Y-92506116D01*
X157474501Y-92206116D02*
X157441167Y-92272783D01*
X157441167Y-92272783D02*
X157441167Y-92439449D01*
X157441167Y-92439449D02*
X157474501Y-92506116D01*
X157474501Y-92506116D02*
X157541167Y-92539449D01*
X157541167Y-92539449D02*
X157607834Y-92539449D01*
X157607834Y-92539449D02*
X157674501Y-92506116D01*
X157674501Y-92506116D02*
X157707834Y-92439449D01*
X157707834Y-92439449D02*
X157707834Y-92272783D01*
X157707834Y-92272783D02*
X157741167Y-92206116D01*
X157441167Y-91939450D02*
X157907834Y-91572783D01*
X157907834Y-91939450D02*
X157441167Y-91572783D01*
X157474501Y-91339449D02*
X157441167Y-91272783D01*
X157441167Y-91272783D02*
X157441167Y-91139449D01*
X157441167Y-91139449D02*
X157474501Y-91072783D01*
X157474501Y-91072783D02*
X157541167Y-91039449D01*
X157541167Y-91039449D02*
X157574501Y-91039449D01*
X157574501Y-91039449D02*
X157641167Y-91072783D01*
X157641167Y-91072783D02*
X157674501Y-91139449D01*
X157674501Y-91139449D02*
X157674501Y-91239449D01*
X157674501Y-91239449D02*
X157707834Y-91306116D01*
X157707834Y-91306116D02*
X157774501Y-91339449D01*
X157774501Y-91339449D02*
X157807834Y-91339449D01*
X157807834Y-91339449D02*
X157874501Y-91306116D01*
X157874501Y-91306116D02*
X157907834Y-91239449D01*
X157907834Y-91239449D02*
X157907834Y-91139449D01*
X157907834Y-91139449D02*
X157874501Y-91072783D01*
X157441167Y-90739449D02*
X157907834Y-90739449D01*
X157774501Y-90739449D02*
X157841167Y-90706116D01*
X157841167Y-90706116D02*
X157874501Y-90672782D01*
X157874501Y-90672782D02*
X157907834Y-90606116D01*
X157907834Y-90606116D02*
X157907834Y-90539449D01*
X157441167Y-90206116D02*
X157474501Y-90272783D01*
X157474501Y-90272783D02*
X157507834Y-90306116D01*
X157507834Y-90306116D02*
X157574501Y-90339449D01*
X157574501Y-90339449D02*
X157774501Y-90339449D01*
X157774501Y-90339449D02*
X157841167Y-90306116D01*
X157841167Y-90306116D02*
X157874501Y-90272783D01*
X157874501Y-90272783D02*
X157907834Y-90206116D01*
X157907834Y-90206116D02*
X157907834Y-90106116D01*
X157907834Y-90106116D02*
X157874501Y-90039449D01*
X157874501Y-90039449D02*
X157841167Y-90006116D01*
X157841167Y-90006116D02*
X157774501Y-89972783D01*
X157774501Y-89972783D02*
X157574501Y-89972783D01*
X157574501Y-89972783D02*
X157507834Y-90006116D01*
X157507834Y-90006116D02*
X157474501Y-90039449D01*
X157474501Y-90039449D02*
X157441167Y-90106116D01*
X157441167Y-90106116D02*
X157441167Y-90206116D01*
X157441167Y-89672783D02*
X158141167Y-89672783D01*
X157874501Y-89672783D02*
X157907834Y-89606116D01*
X157907834Y-89606116D02*
X157907834Y-89472783D01*
X157907834Y-89472783D02*
X157874501Y-89406116D01*
X157874501Y-89406116D02*
X157841167Y-89372783D01*
X157841167Y-89372783D02*
X157774501Y-89339450D01*
X157774501Y-89339450D02*
X157574501Y-89339450D01*
X157574501Y-89339450D02*
X157507834Y-89372783D01*
X157507834Y-89372783D02*
X157474501Y-89406116D01*
X157474501Y-89406116D02*
X157441167Y-89472783D01*
X157441167Y-89472783D02*
X157441167Y-89606116D01*
X157441167Y-89606116D02*
X157474501Y-89672783D01*
X157441167Y-88939450D02*
X157474501Y-89006117D01*
X157474501Y-89006117D02*
X157507834Y-89039450D01*
X157507834Y-89039450D02*
X157574501Y-89072783D01*
X157574501Y-89072783D02*
X157774501Y-89072783D01*
X157774501Y-89072783D02*
X157841167Y-89039450D01*
X157841167Y-89039450D02*
X157874501Y-89006117D01*
X157874501Y-89006117D02*
X157907834Y-88939450D01*
X157907834Y-88939450D02*
X157907834Y-88839450D01*
X157907834Y-88839450D02*
X157874501Y-88772783D01*
X157874501Y-88772783D02*
X157841167Y-88739450D01*
X157841167Y-88739450D02*
X157774501Y-88706117D01*
X157774501Y-88706117D02*
X157574501Y-88706117D01*
X157574501Y-88706117D02*
X157507834Y-88739450D01*
X157507834Y-88739450D02*
X157474501Y-88772783D01*
X157474501Y-88772783D02*
X157441167Y-88839450D01*
X157441167Y-88839450D02*
X157441167Y-88939450D01*
X157907834Y-88506117D02*
X157907834Y-88239450D01*
X158141167Y-88406117D02*
X157541167Y-88406117D01*
X157541167Y-88406117D02*
X157474501Y-88372784D01*
X157474501Y-88372784D02*
X157441167Y-88306117D01*
X157441167Y-88306117D02*
X157441167Y-88239450D01*
X157441167Y-88006117D02*
X157907834Y-88006117D01*
X158141167Y-88006117D02*
X158107834Y-88039450D01*
X158107834Y-88039450D02*
X158074501Y-88006117D01*
X158074501Y-88006117D02*
X158107834Y-87972784D01*
X158107834Y-87972784D02*
X158141167Y-88006117D01*
X158141167Y-88006117D02*
X158074501Y-88006117D01*
X157474501Y-87372784D02*
X157441167Y-87439451D01*
X157441167Y-87439451D02*
X157441167Y-87572784D01*
X157441167Y-87572784D02*
X157474501Y-87639451D01*
X157474501Y-87639451D02*
X157507834Y-87672784D01*
X157507834Y-87672784D02*
X157574501Y-87706117D01*
X157574501Y-87706117D02*
X157774501Y-87706117D01*
X157774501Y-87706117D02*
X157841167Y-87672784D01*
X157841167Y-87672784D02*
X157874501Y-87639451D01*
X157874501Y-87639451D02*
X157907834Y-87572784D01*
X157907834Y-87572784D02*
X157907834Y-87439451D01*
X157907834Y-87439451D02*
X157874501Y-87372784D01*
X157474501Y-87106117D02*
X157441167Y-87039451D01*
X157441167Y-87039451D02*
X157441167Y-86906117D01*
X157441167Y-86906117D02*
X157474501Y-86839451D01*
X157474501Y-86839451D02*
X157541167Y-86806117D01*
X157541167Y-86806117D02*
X157574501Y-86806117D01*
X157574501Y-86806117D02*
X157641167Y-86839451D01*
X157641167Y-86839451D02*
X157674501Y-86906117D01*
X157674501Y-86906117D02*
X157674501Y-87006117D01*
X157674501Y-87006117D02*
X157707834Y-87072784D01*
X157707834Y-87072784D02*
X157774501Y-87106117D01*
X157774501Y-87106117D02*
X157807834Y-87106117D01*
X157807834Y-87106117D02*
X157874501Y-87072784D01*
X157874501Y-87072784D02*
X157907834Y-87006117D01*
X157907834Y-87006117D02*
X157907834Y-86906117D01*
X157907834Y-86906117D02*
X157874501Y-86839451D01*
X158174501Y-86006117D02*
X157274501Y-86606117D01*
X158141167Y-85872784D02*
X158141167Y-85472784D01*
X157441167Y-85672784D02*
X158141167Y-85672784D01*
X157441167Y-85239451D02*
X157907834Y-85239451D01*
X158141167Y-85239451D02*
X158107834Y-85272784D01*
X158107834Y-85272784D02*
X158074501Y-85239451D01*
X158074501Y-85239451D02*
X158107834Y-85206118D01*
X158107834Y-85206118D02*
X158141167Y-85239451D01*
X158141167Y-85239451D02*
X158074501Y-85239451D01*
X157907834Y-84906118D02*
X157441167Y-84906118D01*
X157841167Y-84906118D02*
X157874501Y-84872785D01*
X157874501Y-84872785D02*
X157907834Y-84806118D01*
X157907834Y-84806118D02*
X157907834Y-84706118D01*
X157907834Y-84706118D02*
X157874501Y-84639451D01*
X157874501Y-84639451D02*
X157807834Y-84606118D01*
X157807834Y-84606118D02*
X157441167Y-84606118D01*
X157907834Y-84339452D02*
X157441167Y-84172785D01*
X157907834Y-84006118D02*
X157441167Y-84172785D01*
X157441167Y-84172785D02*
X157274501Y-84239452D01*
X157274501Y-84239452D02*
X157241167Y-84272785D01*
X157241167Y-84272785D02*
X157207834Y-84339452D01*
X157907834Y-83439452D02*
X157441167Y-83439452D01*
X158174501Y-83606119D02*
X157674501Y-83772785D01*
X157674501Y-83772785D02*
X157674501Y-83339452D01*
X157807834Y-82839452D02*
X157807834Y-83072785D01*
X157441167Y-83072785D02*
X158141167Y-83072785D01*
X158141167Y-83072785D02*
X158141167Y-82739452D01*
X157474501Y-82506118D02*
X157441167Y-82406118D01*
X157441167Y-82406118D02*
X157441167Y-82239452D01*
X157441167Y-82239452D02*
X157474501Y-82172785D01*
X157474501Y-82172785D02*
X157507834Y-82139452D01*
X157507834Y-82139452D02*
X157574501Y-82106118D01*
X157574501Y-82106118D02*
X157641167Y-82106118D01*
X157641167Y-82106118D02*
X157707834Y-82139452D01*
X157707834Y-82139452D02*
X157741167Y-82172785D01*
X157741167Y-82172785D02*
X157774501Y-82239452D01*
X157774501Y-82239452D02*
X157807834Y-82372785D01*
X157807834Y-82372785D02*
X157841167Y-82439452D01*
X157841167Y-82439452D02*
X157874501Y-82472785D01*
X157874501Y-82472785D02*
X157941167Y-82506118D01*
X157941167Y-82506118D02*
X158007834Y-82506118D01*
X158007834Y-82506118D02*
X158074501Y-82472785D01*
X158074501Y-82472785D02*
X158107834Y-82439452D01*
X158107834Y-82439452D02*
X158141167Y-82372785D01*
X158141167Y-82372785D02*
X158141167Y-82206118D01*
X158141167Y-82206118D02*
X158107834Y-82106118D01*
X157441167Y-81806118D02*
X158141167Y-81806118D01*
X157441167Y-81406118D02*
X157841167Y-81706118D01*
X158141167Y-81406118D02*
X157741167Y-81806118D01*
X156422244Y-76275597D02*
X156422244Y-75575597D01*
X156422244Y-75575597D02*
X156188911Y-76075597D01*
X156188911Y-76075597D02*
X155955577Y-75575597D01*
X155955577Y-75575597D02*
X155955577Y-76275597D01*
X155322244Y-76275597D02*
X155322244Y-75908930D01*
X155322244Y-75908930D02*
X155355577Y-75842264D01*
X155355577Y-75842264D02*
X155422244Y-75808930D01*
X155422244Y-75808930D02*
X155555577Y-75808930D01*
X155555577Y-75808930D02*
X155622244Y-75842264D01*
X155322244Y-76242264D02*
X155388911Y-76275597D01*
X155388911Y-76275597D02*
X155555577Y-76275597D01*
X155555577Y-76275597D02*
X155622244Y-76242264D01*
X155622244Y-76242264D02*
X155655577Y-76175597D01*
X155655577Y-76175597D02*
X155655577Y-76108930D01*
X155655577Y-76108930D02*
X155622244Y-76042264D01*
X155622244Y-76042264D02*
X155555577Y-76008930D01*
X155555577Y-76008930D02*
X155388911Y-76008930D01*
X155388911Y-76008930D02*
X155322244Y-75975597D01*
X154688911Y-76275597D02*
X154688911Y-75575597D01*
X154688911Y-76242264D02*
X154755578Y-76275597D01*
X154755578Y-76275597D02*
X154888911Y-76275597D01*
X154888911Y-76275597D02*
X154955578Y-76242264D01*
X154955578Y-76242264D02*
X154988911Y-76208930D01*
X154988911Y-76208930D02*
X155022244Y-76142264D01*
X155022244Y-76142264D02*
X155022244Y-75942264D01*
X155022244Y-75942264D02*
X154988911Y-75875597D01*
X154988911Y-75875597D02*
X154955578Y-75842264D01*
X154955578Y-75842264D02*
X154888911Y-75808930D01*
X154888911Y-75808930D02*
X154755578Y-75808930D01*
X154755578Y-75808930D02*
X154688911Y-75842264D01*
X154088911Y-76242264D02*
X154155578Y-76275597D01*
X154155578Y-76275597D02*
X154288911Y-76275597D01*
X154288911Y-76275597D02*
X154355578Y-76242264D01*
X154355578Y-76242264D02*
X154388911Y-76175597D01*
X154388911Y-76175597D02*
X154388911Y-75908930D01*
X154388911Y-75908930D02*
X154355578Y-75842264D01*
X154355578Y-75842264D02*
X154288911Y-75808930D01*
X154288911Y-75808930D02*
X154155578Y-75808930D01*
X154155578Y-75808930D02*
X154088911Y-75842264D01*
X154088911Y-75842264D02*
X154055578Y-75908930D01*
X154055578Y-75908930D02*
X154055578Y-75975597D01*
X154055578Y-75975597D02*
X154388911Y-76042264D01*
X153222245Y-76275597D02*
X153222245Y-75575597D01*
X153222245Y-75842264D02*
X153155578Y-75808930D01*
X153155578Y-75808930D02*
X153022245Y-75808930D01*
X153022245Y-75808930D02*
X152955578Y-75842264D01*
X152955578Y-75842264D02*
X152922245Y-75875597D01*
X152922245Y-75875597D02*
X152888912Y-75942264D01*
X152888912Y-75942264D02*
X152888912Y-76142264D01*
X152888912Y-76142264D02*
X152922245Y-76208930D01*
X152922245Y-76208930D02*
X152955578Y-76242264D01*
X152955578Y-76242264D02*
X153022245Y-76275597D01*
X153022245Y-76275597D02*
X153155578Y-76275597D01*
X153155578Y-76275597D02*
X153222245Y-76242264D01*
X152655579Y-75808930D02*
X152488912Y-76275597D01*
X152322245Y-75808930D02*
X152488912Y-76275597D01*
X152488912Y-76275597D02*
X152555579Y-76442264D01*
X152555579Y-76442264D02*
X152588912Y-76475597D01*
X152588912Y-76475597D02*
X152655579Y-76508930D01*
X151522246Y-76275597D02*
X151522246Y-75575597D01*
X151522246Y-75575597D02*
X151288913Y-76075597D01*
X151288913Y-76075597D02*
X151055579Y-75575597D01*
X151055579Y-75575597D02*
X151055579Y-76275597D01*
X150422246Y-76275597D02*
X150422246Y-75908930D01*
X150422246Y-75908930D02*
X150455579Y-75842264D01*
X150455579Y-75842264D02*
X150522246Y-75808930D01*
X150522246Y-75808930D02*
X150655579Y-75808930D01*
X150655579Y-75808930D02*
X150722246Y-75842264D01*
X150422246Y-76242264D02*
X150488913Y-76275597D01*
X150488913Y-76275597D02*
X150655579Y-76275597D01*
X150655579Y-76275597D02*
X150722246Y-76242264D01*
X150722246Y-76242264D02*
X150755579Y-76175597D01*
X150755579Y-76175597D02*
X150755579Y-76108930D01*
X150755579Y-76108930D02*
X150722246Y-76042264D01*
X150722246Y-76042264D02*
X150655579Y-76008930D01*
X150655579Y-76008930D02*
X150488913Y-76008930D01*
X150488913Y-76008930D02*
X150422246Y-75975597D01*
X150155580Y-76275597D02*
X149788913Y-75808930D01*
X150155580Y-75808930D02*
X149788913Y-76275597D01*
X148988913Y-76275597D02*
X148988913Y-75575597D01*
X148588913Y-76275597D02*
X148888913Y-75875597D01*
X148588913Y-75575597D02*
X148988913Y-75975597D01*
X148022246Y-76242264D02*
X148088913Y-76275597D01*
X148088913Y-76275597D02*
X148222246Y-76275597D01*
X148222246Y-76275597D02*
X148288913Y-76242264D01*
X148288913Y-76242264D02*
X148322246Y-76175597D01*
X148322246Y-76175597D02*
X148322246Y-75908930D01*
X148322246Y-75908930D02*
X148288913Y-75842264D01*
X148288913Y-75842264D02*
X148222246Y-75808930D01*
X148222246Y-75808930D02*
X148088913Y-75808930D01*
X148088913Y-75808930D02*
X148022246Y-75842264D01*
X148022246Y-75842264D02*
X147988913Y-75908930D01*
X147988913Y-75908930D02*
X147988913Y-75975597D01*
X147988913Y-75975597D02*
X148322246Y-76042264D01*
X147688913Y-75808930D02*
X147688913Y-76275597D01*
X147688913Y-75875597D02*
X147655580Y-75842264D01*
X147655580Y-75842264D02*
X147588913Y-75808930D01*
X147588913Y-75808930D02*
X147488913Y-75808930D01*
X147488913Y-75808930D02*
X147422246Y-75842264D01*
X147422246Y-75842264D02*
X147388913Y-75908930D01*
X147388913Y-75908930D02*
X147388913Y-76275597D01*
X146755580Y-76275597D02*
X146755580Y-75575597D01*
X146755580Y-76242264D02*
X146822247Y-76275597D01*
X146822247Y-76275597D02*
X146955580Y-76275597D01*
X146955580Y-76275597D02*
X147022247Y-76242264D01*
X147022247Y-76242264D02*
X147055580Y-76208930D01*
X147055580Y-76208930D02*
X147088913Y-76142264D01*
X147088913Y-76142264D02*
X147088913Y-75942264D01*
X147088913Y-75942264D02*
X147055580Y-75875597D01*
X147055580Y-75875597D02*
X147022247Y-75842264D01*
X147022247Y-75842264D02*
X146955580Y-75808930D01*
X146955580Y-75808930D02*
X146822247Y-75808930D01*
X146822247Y-75808930D02*
X146755580Y-75842264D01*
X146122247Y-76275597D02*
X146122247Y-75908930D01*
X146122247Y-75908930D02*
X146155580Y-75842264D01*
X146155580Y-75842264D02*
X146222247Y-75808930D01*
X146222247Y-75808930D02*
X146355580Y-75808930D01*
X146355580Y-75808930D02*
X146422247Y-75842264D01*
X146122247Y-76242264D02*
X146188914Y-76275597D01*
X146188914Y-76275597D02*
X146355580Y-76275597D01*
X146355580Y-76275597D02*
X146422247Y-76242264D01*
X146422247Y-76242264D02*
X146455580Y-76175597D01*
X146455580Y-76175597D02*
X146455580Y-76108930D01*
X146455580Y-76108930D02*
X146422247Y-76042264D01*
X146422247Y-76042264D02*
X146355580Y-76008930D01*
X146355580Y-76008930D02*
X146188914Y-76008930D01*
X146188914Y-76008930D02*
X146122247Y-75975597D01*
X145688914Y-76275597D02*
X145755581Y-76242264D01*
X145755581Y-76242264D02*
X145788914Y-76175597D01*
X145788914Y-76175597D02*
X145788914Y-75575597D01*
X145322247Y-76275597D02*
X145388914Y-76242264D01*
X145388914Y-76242264D02*
X145422247Y-76175597D01*
X145422247Y-76175597D02*
X145422247Y-75575597D01*
X145022247Y-76242264D02*
X145022247Y-76275597D01*
X145022247Y-76275597D02*
X145055580Y-76342264D01*
X145055580Y-76342264D02*
X145088913Y-76375597D01*
X144255581Y-75575597D02*
X144088914Y-76275597D01*
X144088914Y-76275597D02*
X143955581Y-75775597D01*
X143955581Y-75775597D02*
X143822247Y-76275597D01*
X143822247Y-76275597D02*
X143655581Y-75575597D01*
X143255581Y-75575597D02*
X143188914Y-75575597D01*
X143188914Y-75575597D02*
X143122247Y-75608930D01*
X143122247Y-75608930D02*
X143088914Y-75642264D01*
X143088914Y-75642264D02*
X143055581Y-75708930D01*
X143055581Y-75708930D02*
X143022247Y-75842264D01*
X143022247Y-75842264D02*
X143022247Y-76008930D01*
X143022247Y-76008930D02*
X143055581Y-76142264D01*
X143055581Y-76142264D02*
X143088914Y-76208930D01*
X143088914Y-76208930D02*
X143122247Y-76242264D01*
X143122247Y-76242264D02*
X143188914Y-76275597D01*
X143188914Y-76275597D02*
X143255581Y-76275597D01*
X143255581Y-76275597D02*
X143322247Y-76242264D01*
X143322247Y-76242264D02*
X143355581Y-76208930D01*
X143355581Y-76208930D02*
X143388914Y-76142264D01*
X143388914Y-76142264D02*
X143422247Y-76008930D01*
X143422247Y-76008930D02*
X143422247Y-75842264D01*
X143422247Y-75842264D02*
X143388914Y-75708930D01*
X143388914Y-75708930D02*
X143355581Y-75642264D01*
X143355581Y-75642264D02*
X143322247Y-75608930D01*
X143322247Y-75608930D02*
X143255581Y-75575597D01*
X142722247Y-76275597D02*
X142722247Y-75575597D01*
X142722247Y-75575597D02*
X142488914Y-76075597D01*
X142488914Y-76075597D02*
X142255580Y-75575597D01*
X142255580Y-75575597D02*
X142255580Y-76275597D01*
X141988914Y-75575597D02*
X141522247Y-76275597D01*
X141522247Y-75575597D02*
X141988914Y-76275597D01*
X141322247Y-75575597D02*
X140855580Y-76275597D01*
X140855580Y-75575597D02*
X141322247Y-76275597D01*
D12*
X145292856Y-49900404D02*
X145221428Y-49924214D01*
X145221428Y-49924214D02*
X145197618Y-49948023D01*
X145197618Y-49948023D02*
X145173809Y-49995642D01*
X145173809Y-49995642D02*
X145173809Y-50067071D01*
X145173809Y-50067071D02*
X145197618Y-50114690D01*
X145197618Y-50114690D02*
X145221428Y-50138500D01*
X145221428Y-50138500D02*
X145269047Y-50162309D01*
X145269047Y-50162309D02*
X145459523Y-50162309D01*
X145459523Y-50162309D02*
X145459523Y-49662309D01*
X145459523Y-49662309D02*
X145292856Y-49662309D01*
X145292856Y-49662309D02*
X145245237Y-49686119D01*
X145245237Y-49686119D02*
X145221428Y-49709928D01*
X145221428Y-49709928D02*
X145197618Y-49757547D01*
X145197618Y-49757547D02*
X145197618Y-49805166D01*
X145197618Y-49805166D02*
X145221428Y-49852785D01*
X145221428Y-49852785D02*
X145245237Y-49876595D01*
X145245237Y-49876595D02*
X145292856Y-49900404D01*
X145292856Y-49900404D02*
X145459523Y-49900404D01*
X145030951Y-49662309D02*
X144745237Y-49662309D01*
X144888094Y-50162309D02*
X144888094Y-49662309D01*
X144316666Y-50162309D02*
X144602380Y-50162309D01*
X144459523Y-50162309D02*
X144459523Y-49662309D01*
X144459523Y-49662309D02*
X144507142Y-49733738D01*
X144507142Y-49733738D02*
X144554761Y-49781357D01*
X144554761Y-49781357D02*
X144602380Y-49805166D01*
X144966666Y-99279809D02*
X144966666Y-99636952D01*
X144966666Y-99636952D02*
X144990475Y-99708380D01*
X144990475Y-99708380D02*
X145038094Y-99756000D01*
X145038094Y-99756000D02*
X145109523Y-99779809D01*
X145109523Y-99779809D02*
X145157142Y-99779809D01*
X144657142Y-99494095D02*
X144704761Y-99470285D01*
X144704761Y-99470285D02*
X144728571Y-99446476D01*
X144728571Y-99446476D02*
X144752380Y-99398857D01*
X144752380Y-99398857D02*
X144752380Y-99375047D01*
X144752380Y-99375047D02*
X144728571Y-99327428D01*
X144728571Y-99327428D02*
X144704761Y-99303619D01*
X144704761Y-99303619D02*
X144657142Y-99279809D01*
X144657142Y-99279809D02*
X144561904Y-99279809D01*
X144561904Y-99279809D02*
X144514285Y-99303619D01*
X144514285Y-99303619D02*
X144490476Y-99327428D01*
X144490476Y-99327428D02*
X144466666Y-99375047D01*
X144466666Y-99375047D02*
X144466666Y-99398857D01*
X144466666Y-99398857D02*
X144490476Y-99446476D01*
X144490476Y-99446476D02*
X144514285Y-99470285D01*
X144514285Y-99470285D02*
X144561904Y-99494095D01*
X144561904Y-99494095D02*
X144657142Y-99494095D01*
X144657142Y-99494095D02*
X144704761Y-99517904D01*
X144704761Y-99517904D02*
X144728571Y-99541714D01*
X144728571Y-99541714D02*
X144752380Y-99589333D01*
X144752380Y-99589333D02*
X144752380Y-99684571D01*
X144752380Y-99684571D02*
X144728571Y-99732190D01*
X144728571Y-99732190D02*
X144704761Y-99756000D01*
X144704761Y-99756000D02*
X144657142Y-99779809D01*
X144657142Y-99779809D02*
X144561904Y-99779809D01*
X144561904Y-99779809D02*
X144514285Y-99756000D01*
X144514285Y-99756000D02*
X144490476Y-99732190D01*
X144490476Y-99732190D02*
X144466666Y-99684571D01*
X144466666Y-99684571D02*
X144466666Y-99589333D01*
X144466666Y-99589333D02*
X144490476Y-99541714D01*
X144490476Y-99541714D02*
X144514285Y-99517904D01*
X144514285Y-99517904D02*
X144561904Y-99494095D01*
D13*
%TO.C,G\u002A\u002A\u002A*%
G36*
X155881623Y-46840366D02*
G01*
X155881658Y-46856909D01*
X155881715Y-46884323D01*
X155881770Y-46909411D01*
X155881825Y-46932285D01*
X155881884Y-46953057D01*
X155881949Y-46971837D01*
X155882024Y-46988738D01*
X155882110Y-47003870D01*
X155882210Y-47017346D01*
X155882328Y-47029276D01*
X155882465Y-47039773D01*
X155882626Y-47048947D01*
X155882812Y-47056910D01*
X155883027Y-47063775D01*
X155883273Y-47069651D01*
X155883553Y-47074651D01*
X155883869Y-47078886D01*
X155884225Y-47082468D01*
X155884624Y-47085508D01*
X155885067Y-47088117D01*
X155885558Y-47090408D01*
X155886100Y-47092491D01*
X155886696Y-47094478D01*
X155887347Y-47096481D01*
X155888057Y-47098611D01*
X155889369Y-47101974D01*
X155893096Y-47109148D01*
X155897990Y-47116674D01*
X155903521Y-47123773D01*
X155909161Y-47129668D01*
X155911971Y-47132137D01*
X155923001Y-47140176D01*
X155935136Y-47146484D01*
X155948625Y-47151152D01*
X155963714Y-47154271D01*
X155980649Y-47155932D01*
X155988694Y-47156182D01*
X156006195Y-47155374D01*
X156022445Y-47152707D01*
X156037335Y-47148247D01*
X156050758Y-47142060D01*
X156062605Y-47134214D01*
X156072767Y-47124775D01*
X156081135Y-47113810D01*
X156087602Y-47101384D01*
X156092058Y-47087565D01*
X156092070Y-47087513D01*
X156092338Y-47086251D01*
X156092584Y-47084785D01*
X156092810Y-47083004D01*
X156093015Y-47080800D01*
X156093202Y-47078063D01*
X156093371Y-47074684D01*
X156093524Y-47070554D01*
X156093662Y-47065563D01*
X156093787Y-47059603D01*
X156093898Y-47052562D01*
X156093998Y-47044334D01*
X156094087Y-47034807D01*
X156094168Y-47023874D01*
X156094240Y-47011424D01*
X156094305Y-46997348D01*
X156094365Y-46981537D01*
X156094420Y-46963882D01*
X156094471Y-46944273D01*
X156094521Y-46922602D01*
X156094569Y-46898758D01*
X156094618Y-46872632D01*
X156094668Y-46844116D01*
X156095069Y-46610042D01*
X156136285Y-46610042D01*
X156177500Y-46610042D01*
X156177495Y-46812864D01*
X156177492Y-46833077D01*
X156177481Y-46859609D01*
X156177460Y-46883855D01*
X156177427Y-46905943D01*
X156177379Y-46925999D01*
X156177315Y-46944150D01*
X156177234Y-46960520D01*
X156177133Y-46975237D01*
X156177011Y-46988427D01*
X156176865Y-47000215D01*
X156176693Y-47010729D01*
X156176495Y-47020094D01*
X156176267Y-47028437D01*
X156176009Y-47035884D01*
X156175718Y-47042561D01*
X156175392Y-47048594D01*
X156175030Y-47054110D01*
X156174629Y-47059234D01*
X156174188Y-47064094D01*
X156173705Y-47068814D01*
X156173002Y-47074757D01*
X156169287Y-47096177D01*
X156163915Y-47115740D01*
X156156878Y-47133463D01*
X156148168Y-47149365D01*
X156137776Y-47163464D01*
X156125694Y-47175781D01*
X156121301Y-47179537D01*
X156104522Y-47191791D01*
X156086268Y-47202030D01*
X156066534Y-47210257D01*
X156045318Y-47216473D01*
X156022616Y-47220678D01*
X156020907Y-47220896D01*
X156011372Y-47221741D01*
X156000275Y-47222235D01*
X155988374Y-47222378D01*
X155976425Y-47222170D01*
X155965187Y-47221610D01*
X155955415Y-47220698D01*
X155937027Y-47217688D01*
X155916404Y-47212379D01*
X155897258Y-47205266D01*
X155879669Y-47196417D01*
X155863720Y-47185905D01*
X155849492Y-47173800D01*
X155837067Y-47160173D01*
X155826526Y-47145094D01*
X155817950Y-47128635D01*
X155811422Y-47110866D01*
X155807023Y-47091857D01*
X155806959Y-47091478D01*
X155806113Y-47086333D01*
X155805339Y-47081303D01*
X155804633Y-47076261D01*
X155803992Y-47071084D01*
X155803413Y-47065647D01*
X155802893Y-47059826D01*
X155802428Y-47053496D01*
X155802016Y-47046533D01*
X155801653Y-47038812D01*
X155801337Y-47030209D01*
X155801064Y-47020600D01*
X155800831Y-47009859D01*
X155800634Y-46997863D01*
X155800472Y-46984487D01*
X155800340Y-46969606D01*
X155800235Y-46953097D01*
X155800155Y-46934834D01*
X155800097Y-46914694D01*
X155800056Y-46892551D01*
X155800030Y-46868281D01*
X155800017Y-46841761D01*
X155800012Y-46812864D01*
X155800000Y-46610042D01*
X155840573Y-46610042D01*
X155881145Y-46610042D01*
X155881623Y-46840366D01*
G37*
G36*
X155499976Y-46599445D02*
G01*
X155523125Y-46601395D01*
X155536824Y-46603546D01*
X155555751Y-46607926D01*
X155573824Y-46613736D01*
X155590556Y-46620815D01*
X155605459Y-46628998D01*
X155620694Y-46639593D01*
X155636010Y-46652876D01*
X155649216Y-46667497D01*
X155660318Y-46683465D01*
X155669319Y-46700786D01*
X155676226Y-46719468D01*
X155681042Y-46739520D01*
X155683771Y-46760949D01*
X155684407Y-46774705D01*
X155683660Y-46795102D01*
X155680791Y-46814179D01*
X155675799Y-46831935D01*
X155668683Y-46848373D01*
X155659443Y-46863493D01*
X155648078Y-46877298D01*
X155634587Y-46889787D01*
X155618969Y-46900963D01*
X155601224Y-46910827D01*
X155593679Y-46914410D01*
X155585704Y-46917909D01*
X155577562Y-46921139D01*
X155568926Y-46924203D01*
X155559468Y-46927205D01*
X155548861Y-46930248D01*
X155536779Y-46933436D01*
X155522893Y-46936873D01*
X155506875Y-46940661D01*
X155501671Y-46941877D01*
X155486494Y-46945511D01*
X155473413Y-46948808D01*
X155462149Y-46951861D01*
X155452427Y-46954760D01*
X155443967Y-46957596D01*
X155436495Y-46960461D01*
X155429732Y-46963445D01*
X155423403Y-46966639D01*
X155417228Y-46970135D01*
X155415144Y-46971429D01*
X155407437Y-46977104D01*
X155400085Y-46983777D01*
X155393743Y-46990810D01*
X155389069Y-46997561D01*
X155383844Y-47008914D01*
X155380027Y-47021764D01*
X155377664Y-47035548D01*
X155376762Y-47049776D01*
X155377325Y-47063957D01*
X155379360Y-47077601D01*
X155382872Y-47090218D01*
X155387867Y-47101316D01*
X155394981Y-47112202D01*
X155405053Y-47123532D01*
X155416926Y-47133172D01*
X155430617Y-47141131D01*
X155446142Y-47147420D01*
X155463519Y-47152048D01*
X155482764Y-47155024D01*
X155492641Y-47155859D01*
X155516344Y-47156112D01*
X155540367Y-47153923D01*
X155564724Y-47149287D01*
X155589432Y-47142200D01*
X155614503Y-47132659D01*
X155639954Y-47120659D01*
X155665799Y-47106196D01*
X155668372Y-47104661D01*
X155672447Y-47102298D01*
X155675410Y-47100672D01*
X155676753Y-47100066D01*
X155676899Y-47100905D01*
X155677046Y-47103972D01*
X155677159Y-47109017D01*
X155677234Y-47115756D01*
X155677268Y-47123904D01*
X155677259Y-47133177D01*
X155677204Y-47143290D01*
X155676875Y-47186515D01*
X155662500Y-47192026D01*
X155638981Y-47200408D01*
X155608150Y-47209412D01*
X155577344Y-47216117D01*
X155546250Y-47220600D01*
X155542812Y-47220929D01*
X155535030Y-47221488D01*
X155526069Y-47221952D01*
X155516784Y-47222281D01*
X155508030Y-47222433D01*
X155494094Y-47222299D01*
X155468091Y-47220751D01*
X155443884Y-47217504D01*
X155421481Y-47212561D01*
X155400890Y-47205927D01*
X155382118Y-47197607D01*
X155365172Y-47187603D01*
X155350060Y-47175920D01*
X155336789Y-47162563D01*
X155325366Y-47147535D01*
X155315799Y-47130840D01*
X155308096Y-47112482D01*
X155305326Y-47103221D01*
X155302627Y-47090550D01*
X155300588Y-47076533D01*
X155299258Y-47061758D01*
X155298688Y-47046815D01*
X155298930Y-47032293D01*
X155300032Y-47018779D01*
X155300938Y-47012170D01*
X155305080Y-46992224D01*
X155311141Y-46973781D01*
X155319095Y-46956887D01*
X155328917Y-46941592D01*
X155340582Y-46927944D01*
X155354063Y-46915991D01*
X155360128Y-46911402D01*
X155366006Y-46907230D01*
X155371684Y-46903593D01*
X155377787Y-46900115D01*
X155384943Y-46896419D01*
X155393776Y-46892130D01*
X155400388Y-46889073D01*
X155408908Y-46885439D01*
X155417765Y-46882038D01*
X155427262Y-46878777D01*
X155437704Y-46875563D01*
X155449395Y-46872305D01*
X155462638Y-46868909D01*
X155477739Y-46865283D01*
X155495000Y-46861334D01*
X155502562Y-46859575D01*
X155520824Y-46854769D01*
X155537392Y-46849577D01*
X155551999Y-46844087D01*
X155564375Y-46838388D01*
X155574004Y-46832715D01*
X155584264Y-46824481D01*
X155592495Y-46814913D01*
X155598839Y-46803843D01*
X155603435Y-46791102D01*
X155603900Y-46789274D01*
X155604714Y-46784802D01*
X155605237Y-46779418D01*
X155605510Y-46772592D01*
X155605575Y-46763799D01*
X155605573Y-46763318D01*
X155605514Y-46755790D01*
X155605339Y-46750125D01*
X155604978Y-46745722D01*
X155604359Y-46741977D01*
X155603412Y-46738289D01*
X155602065Y-46734054D01*
X155601707Y-46732998D01*
X155595873Y-46719477D01*
X155588202Y-46707503D01*
X155578589Y-46696960D01*
X155566931Y-46687734D01*
X155553125Y-46679711D01*
X155544754Y-46675942D01*
X155531486Y-46671505D01*
X155516547Y-46668225D01*
X155507488Y-46666879D01*
X155485516Y-46665372D01*
X155463016Y-46666225D01*
X155440113Y-46669408D01*
X155416935Y-46674896D01*
X155393608Y-46682661D01*
X155370257Y-46692675D01*
X155347011Y-46704911D01*
X155346749Y-46705062D01*
X155341640Y-46707974D01*
X155337375Y-46710353D01*
X155334391Y-46711958D01*
X155333128Y-46712547D01*
X155333026Y-46712002D01*
X155332884Y-46709291D01*
X155332758Y-46704567D01*
X155332652Y-46698121D01*
X155332571Y-46690244D01*
X155332519Y-46681229D01*
X155332500Y-46671367D01*
X155332500Y-46630186D01*
X155351599Y-46623923D01*
X155370431Y-46618049D01*
X155398658Y-46610485D01*
X155425582Y-46604861D01*
X155451348Y-46601159D01*
X155476098Y-46599360D01*
X155499976Y-46599445D01*
G37*
G36*
X155190396Y-46910677D02*
G01*
X155190132Y-46932990D01*
X155189378Y-46954832D01*
X155188142Y-46975705D01*
X155186431Y-46995114D01*
X155184252Y-47012562D01*
X155180349Y-47035762D01*
X155174769Y-47061288D01*
X155168116Y-47084728D01*
X155160343Y-47106197D01*
X155151403Y-47125810D01*
X155141247Y-47143682D01*
X155129828Y-47159928D01*
X155117098Y-47174663D01*
X155107442Y-47183995D01*
X155093552Y-47194938D01*
X155078587Y-47203955D01*
X155062307Y-47211166D01*
X155044469Y-47216692D01*
X155024833Y-47220653D01*
X155023397Y-47220865D01*
X155013487Y-47221851D01*
X155002183Y-47222319D01*
X154990384Y-47222269D01*
X154978993Y-47221703D01*
X154968911Y-47220621D01*
X154951668Y-47217447D01*
X154934564Y-47212685D01*
X154918999Y-47206421D01*
X154904627Y-47198487D01*
X154891102Y-47188717D01*
X154878078Y-47176945D01*
X154877410Y-47176278D01*
X154868435Y-47166817D01*
X154860735Y-47157561D01*
X154853840Y-47147851D01*
X154847280Y-47137031D01*
X154840587Y-47124442D01*
X154833086Y-47108354D01*
X154826074Y-47090341D01*
X154820021Y-47071214D01*
X154814882Y-47050755D01*
X154810607Y-47028751D01*
X154807151Y-47004985D01*
X154804465Y-46979243D01*
X154802502Y-46951309D01*
X154802250Y-46946498D01*
X154801375Y-46916446D01*
X154801402Y-46913840D01*
X154883973Y-46913840D01*
X154884437Y-46945526D01*
X154885884Y-46974938D01*
X154888319Y-47002092D01*
X154891748Y-47027006D01*
X154896176Y-47049699D01*
X154901610Y-47070187D01*
X154908055Y-47088488D01*
X154915516Y-47104620D01*
X154924000Y-47118600D01*
X154933511Y-47130446D01*
X154944057Y-47140176D01*
X154955642Y-47147807D01*
X154968272Y-47153356D01*
X154971548Y-47154426D01*
X154976100Y-47155622D01*
X154980794Y-47156389D01*
X154986416Y-47156843D01*
X154993750Y-47157098D01*
X154996845Y-47157159D01*
X155004144Y-47157146D01*
X155010014Y-47156774D01*
X155015237Y-47155933D01*
X155020596Y-47154512D01*
X155026875Y-47152398D01*
X155032258Y-47150199D01*
X155043449Y-47143786D01*
X155054017Y-47135237D01*
X155063727Y-47124789D01*
X155072343Y-47112680D01*
X155079630Y-47099147D01*
X155084030Y-47088931D01*
X155088986Y-47075276D01*
X155093326Y-47060529D01*
X155097113Y-47044412D01*
X155100413Y-47026647D01*
X155103288Y-47006956D01*
X155105803Y-46985060D01*
X155105873Y-46984358D01*
X155106486Y-46976369D01*
X155107003Y-46966335D01*
X155107422Y-46954666D01*
X155107741Y-46941773D01*
X155107958Y-46928066D01*
X155108072Y-46913956D01*
X155108080Y-46899853D01*
X155107980Y-46886167D01*
X155107771Y-46873309D01*
X155107450Y-46861688D01*
X155107016Y-46851716D01*
X155106467Y-46843803D01*
X155105570Y-46834348D01*
X155103233Y-46813671D01*
X155100532Y-46795063D01*
X155097401Y-46778229D01*
X155093774Y-46762875D01*
X155089586Y-46748709D01*
X155084769Y-46735436D01*
X155079259Y-46722764D01*
X155075689Y-46715583D01*
X155068200Y-46702915D01*
X155060047Y-46692272D01*
X155050978Y-46683349D01*
X155040742Y-46675839D01*
X155030303Y-46670445D01*
X155017810Y-46666421D01*
X155004471Y-46664293D01*
X154990732Y-46664097D01*
X154977040Y-46665869D01*
X154963842Y-46669645D01*
X154953797Y-46674412D01*
X154942964Y-46682015D01*
X154932880Y-46691801D01*
X154923650Y-46703635D01*
X154915377Y-46717382D01*
X154908166Y-46732905D01*
X154902121Y-46750071D01*
X154901729Y-46751373D01*
X154897666Y-46766065D01*
X154894216Y-46781011D01*
X154891339Y-46796528D01*
X154888995Y-46812935D01*
X154887145Y-46830548D01*
X154885750Y-46849686D01*
X154884769Y-46870666D01*
X154884162Y-46893806D01*
X154883973Y-46913840D01*
X154801402Y-46913840D01*
X154801679Y-46886637D01*
X154803130Y-46857366D01*
X154805697Y-46828929D01*
X154809347Y-46801621D01*
X154814050Y-46775737D01*
X154819772Y-46751572D01*
X154826482Y-46729423D01*
X154827185Y-46727427D01*
X154830689Y-46718518D01*
X154835074Y-46708581D01*
X154840002Y-46698294D01*
X154845140Y-46688339D01*
X154850152Y-46679395D01*
X154854703Y-46672141D01*
X154864282Y-46659234D01*
X154877942Y-46644215D01*
X154892867Y-46631350D01*
X154909077Y-46620626D01*
X154926593Y-46612030D01*
X154945435Y-46605548D01*
X154965625Y-46601168D01*
X154966758Y-46600998D01*
X154974191Y-46600254D01*
X154983298Y-46599801D01*
X154993399Y-46599632D01*
X155003812Y-46599743D01*
X155013855Y-46600128D01*
X155022846Y-46600781D01*
X155030104Y-46601697D01*
X155035160Y-46602633D01*
X155054371Y-46607689D01*
X155072491Y-46614895D01*
X155089364Y-46624170D01*
X155104836Y-46635430D01*
X155118751Y-46648595D01*
X155125556Y-46656255D01*
X155135798Y-46669471D01*
X155144813Y-46683595D01*
X155153138Y-46699421D01*
X155162426Y-46720980D01*
X155170757Y-46745583D01*
X155177612Y-46772167D01*
X155182996Y-46800748D01*
X155186912Y-46831341D01*
X155188180Y-46845866D01*
X155189428Y-46866618D01*
X155190164Y-46888387D01*
X155190283Y-46899853D01*
X155190396Y-46910677D01*
G37*
G36*
X154694355Y-46940401D02*
G01*
X154692972Y-46966472D01*
X154690665Y-46991878D01*
X154687414Y-47016312D01*
X154687370Y-47016590D01*
X154684190Y-47035446D01*
X154680840Y-47052268D01*
X154677187Y-47067515D01*
X154673097Y-47081647D01*
X154668440Y-47095122D01*
X154663081Y-47108401D01*
X154656889Y-47121942D01*
X154650680Y-47134062D01*
X154641939Y-47148598D01*
X154632341Y-47161723D01*
X154621464Y-47174057D01*
X154610245Y-47184786D01*
X154596381Y-47195539D01*
X154581571Y-47204358D01*
X154565528Y-47211386D01*
X154547961Y-47216769D01*
X154528583Y-47220653D01*
X154527701Y-47220787D01*
X154513229Y-47222183D01*
X154497411Y-47222378D01*
X154481018Y-47221416D01*
X154464819Y-47219340D01*
X154449586Y-47216193D01*
X154442522Y-47214133D01*
X154430511Y-47209625D01*
X154418221Y-47203914D01*
X154406528Y-47197384D01*
X154405312Y-47196618D01*
X154397680Y-47191081D01*
X154389341Y-47183989D01*
X154380795Y-47175840D01*
X154372541Y-47167130D01*
X154365081Y-47158358D01*
X154358914Y-47150021D01*
X154356365Y-47146070D01*
X154350987Y-47136877D01*
X154345419Y-47126391D01*
X154340023Y-47115338D01*
X154335162Y-47104446D01*
X154331198Y-47094441D01*
X154329934Y-47090893D01*
X154323551Y-47070157D01*
X154318087Y-47047424D01*
X154313560Y-47022978D01*
X154309987Y-46997103D01*
X154307387Y-46970082D01*
X154305775Y-46942201D01*
X154305415Y-46925257D01*
X154387749Y-46925257D01*
X154387889Y-46938733D01*
X154388183Y-46950906D01*
X154388637Y-46961309D01*
X154390132Y-46982408D01*
X154392941Y-47008846D01*
X154396671Y-47033013D01*
X154401332Y-47054944D01*
X154406934Y-47074673D01*
X154413487Y-47092236D01*
X154421002Y-47107667D01*
X154429489Y-47121000D01*
X154438958Y-47132272D01*
X154442328Y-47135577D01*
X154453172Y-47144174D01*
X154465086Y-47150626D01*
X154478445Y-47155150D01*
X154483816Y-47156227D01*
X154492890Y-47157188D01*
X154502621Y-47157438D01*
X154511996Y-47156962D01*
X154520000Y-47155745D01*
X154520886Y-47155538D01*
X154534113Y-47151168D01*
X154546293Y-47144633D01*
X154557431Y-47135923D01*
X154567529Y-47125028D01*
X154576592Y-47111939D01*
X154584621Y-47096646D01*
X154591622Y-47079139D01*
X154597596Y-47059409D01*
X154602548Y-47037447D01*
X154606481Y-47013242D01*
X154609398Y-46986785D01*
X154611303Y-46958066D01*
X154612199Y-46927076D01*
X154612089Y-46893806D01*
X154611656Y-46876091D01*
X154610704Y-46853828D01*
X154609299Y-46833500D01*
X154607401Y-46814797D01*
X154604974Y-46797412D01*
X154601977Y-46781035D01*
X154598373Y-46765358D01*
X154594123Y-46750071D01*
X154593301Y-46747410D01*
X154586771Y-46729676D01*
X154579046Y-46713948D01*
X154570186Y-46700270D01*
X154560253Y-46688688D01*
X154549307Y-46679247D01*
X154537409Y-46671994D01*
X154524619Y-46666973D01*
X154510999Y-46664230D01*
X154496609Y-46663811D01*
X154481510Y-46665761D01*
X154478589Y-46666409D01*
X154465583Y-46670698D01*
X154453618Y-46677078D01*
X154442679Y-46685575D01*
X154432753Y-46696211D01*
X154423829Y-46709010D01*
X154415893Y-46723996D01*
X154408932Y-46741193D01*
X154402934Y-46760623D01*
X154397885Y-46782311D01*
X154393773Y-46806279D01*
X154390585Y-46832553D01*
X154390475Y-46833688D01*
X154389738Y-46843204D01*
X154389105Y-46854687D01*
X154388584Y-46867670D01*
X154388180Y-46881686D01*
X154387902Y-46896267D01*
X154387756Y-46910946D01*
X154387749Y-46925257D01*
X154305415Y-46925257D01*
X154305170Y-46913742D01*
X154305588Y-46884990D01*
X154307048Y-46856228D01*
X154309567Y-46827741D01*
X154313161Y-46799813D01*
X154314741Y-46790147D01*
X154319420Y-46767578D01*
X154325330Y-46745664D01*
X154332345Y-46724761D01*
X154340340Y-46705223D01*
X154349187Y-46687402D01*
X154358762Y-46671655D01*
X154358772Y-46671640D01*
X154364007Y-46664556D01*
X154370467Y-46656790D01*
X154377628Y-46648894D01*
X154384970Y-46641423D01*
X154391970Y-46634928D01*
X154398108Y-46629961D01*
X154412669Y-46620612D01*
X154430328Y-46612044D01*
X154449276Y-46605544D01*
X154469375Y-46601168D01*
X154470508Y-46600998D01*
X154477941Y-46600254D01*
X154487048Y-46599801D01*
X154497149Y-46599632D01*
X154507562Y-46599743D01*
X154517605Y-46600128D01*
X154526596Y-46600781D01*
X154533854Y-46601697D01*
X154537901Y-46602433D01*
X154557279Y-46607410D01*
X154575554Y-46614572D01*
X154592604Y-46623853D01*
X154608305Y-46635189D01*
X154622532Y-46648513D01*
X154627809Y-46654371D01*
X154639588Y-46669540D01*
X154650208Y-46686441D01*
X154659798Y-46705289D01*
X154668485Y-46726298D01*
X154674519Y-46744574D01*
X154679816Y-46764959D01*
X154684347Y-46787125D01*
X154688094Y-46810767D01*
X154691036Y-46835578D01*
X154693153Y-46861253D01*
X154694425Y-46887486D01*
X154694832Y-46913971D01*
X154694595Y-46927076D01*
X154694355Y-46940401D01*
G37*
G36*
X153691335Y-47043641D02*
G01*
X153686300Y-47067359D01*
X153680285Y-47089106D01*
X153673260Y-47108973D01*
X153665192Y-47127049D01*
X153656051Y-47143426D01*
X153645805Y-47158194D01*
X153634424Y-47171443D01*
X153621875Y-47183263D01*
X153606884Y-47194459D01*
X153590426Y-47203807D01*
X153572507Y-47211259D01*
X153553024Y-47216858D01*
X153531875Y-47220646D01*
X153521260Y-47221734D01*
X153503941Y-47222439D01*
X153485975Y-47222035D01*
X153468305Y-47220551D01*
X153451875Y-47218021D01*
X153438896Y-47214883D01*
X153423780Y-47209876D01*
X153409111Y-47203653D01*
X153395565Y-47196504D01*
X153383820Y-47188721D01*
X153374520Y-47181144D01*
X153360575Y-47167221D01*
X153348397Y-47151570D01*
X153338000Y-47134231D01*
X153329398Y-47115243D01*
X153322606Y-47094649D01*
X153317639Y-47072486D01*
X153314512Y-47048797D01*
X153313239Y-47023620D01*
X153313475Y-47013078D01*
X153394248Y-47013078D01*
X153394249Y-47024445D01*
X153394484Y-47035495D01*
X153394953Y-47045686D01*
X153395657Y-47054473D01*
X153396597Y-47061314D01*
X153398264Y-47069518D01*
X153402758Y-47086370D01*
X153408353Y-47101186D01*
X153415121Y-47114146D01*
X153423138Y-47125431D01*
X153425698Y-47128422D01*
X153435425Y-47137892D01*
X153446137Y-47145405D01*
X153458102Y-47151100D01*
X153471592Y-47155111D01*
X153486875Y-47157575D01*
X153488587Y-47157750D01*
X153494477Y-47158247D01*
X153499861Y-47158563D01*
X153503750Y-47158635D01*
X153507784Y-47158473D01*
X153524296Y-47156426D01*
X153539591Y-47152230D01*
X153553613Y-47145944D01*
X153566302Y-47137627D01*
X153577601Y-47127340D01*
X153587453Y-47115140D01*
X153595799Y-47101088D01*
X153602581Y-47085243D01*
X153607742Y-47067664D01*
X153611223Y-47048410D01*
X153611473Y-47046206D01*
X153611981Y-47039148D01*
X153612307Y-47030549D01*
X153612450Y-47021080D01*
X153612411Y-47011415D01*
X153612190Y-47002225D01*
X153611787Y-46994184D01*
X153611202Y-46987963D01*
X153610352Y-46982011D01*
X153607925Y-46968976D01*
X153604795Y-46957281D01*
X153600724Y-46946125D01*
X153595475Y-46934706D01*
X153590742Y-46926124D01*
X153581460Y-46913043D01*
X153570718Y-46901957D01*
X153558592Y-46892902D01*
X153545159Y-46885915D01*
X153530496Y-46881032D01*
X153514679Y-46878291D01*
X153497784Y-46877727D01*
X153479888Y-46879377D01*
X153472068Y-46880842D01*
X153457502Y-46885317D01*
X153444372Y-46891832D01*
X153432711Y-46900363D01*
X153422551Y-46910882D01*
X153413925Y-46923364D01*
X153406865Y-46937782D01*
X153404477Y-46943903D01*
X153402246Y-46950443D01*
X153400345Y-46957226D01*
X153398567Y-46965000D01*
X153396704Y-46974510D01*
X153396564Y-46975299D01*
X153395638Y-46982504D01*
X153394943Y-46991564D01*
X153394479Y-47001937D01*
X153394248Y-47013078D01*
X153313475Y-47013078D01*
X153313834Y-46996996D01*
X153314118Y-46992397D01*
X153316110Y-46971833D01*
X153319238Y-46953063D01*
X153323600Y-46935682D01*
X153329295Y-46919285D01*
X153336419Y-46903468D01*
X153340650Y-46895527D01*
X153351566Y-46878557D01*
X153364049Y-46863526D01*
X153378074Y-46850448D01*
X153393614Y-46839338D01*
X153410643Y-46830211D01*
X153429135Y-46823082D01*
X153449063Y-46817966D01*
X153470402Y-46814879D01*
X153493125Y-46813834D01*
X153502365Y-46814001D01*
X153519589Y-46815430D01*
X153535358Y-46818421D01*
X153550091Y-46823093D01*
X153564207Y-46829564D01*
X153578125Y-46837954D01*
X153578913Y-46838490D01*
X153588649Y-46846138D01*
X153598450Y-46855540D01*
X153607774Y-46866087D01*
X153616079Y-46877170D01*
X153622824Y-46888181D01*
X153627523Y-46896931D01*
X153626907Y-46884430D01*
X153626735Y-46880946D01*
X153626355Y-46873263D01*
X153625948Y-46865042D01*
X153625575Y-46857554D01*
X153625522Y-46856516D01*
X153623496Y-46833727D01*
X153619912Y-46811186D01*
X153614883Y-46789394D01*
X153608524Y-46768849D01*
X153600950Y-46750049D01*
X153593726Y-46736221D01*
X153583779Y-46721404D01*
X153572348Y-46708083D01*
X153559666Y-46696491D01*
X153545965Y-46686865D01*
X153531477Y-46679442D01*
X153520472Y-46675405D01*
X153503349Y-46671130D01*
X153485117Y-46668695D01*
X153466096Y-46668077D01*
X153446605Y-46669252D01*
X153426962Y-46672197D01*
X153407486Y-46676888D01*
X153388497Y-46683301D01*
X153370313Y-46691412D01*
X153356250Y-46698535D01*
X153356250Y-46660785D01*
X153356250Y-46623035D01*
X153368438Y-46618544D01*
X153380240Y-46614452D01*
X153405232Y-46607425D01*
X153430339Y-46602523D01*
X153455340Y-46599757D01*
X153480012Y-46599137D01*
X153504136Y-46600672D01*
X153527489Y-46604373D01*
X153549850Y-46610251D01*
X153568898Y-46617546D01*
X153587428Y-46627224D01*
X153604723Y-46639018D01*
X153620740Y-46652876D01*
X153635434Y-46668743D01*
X153648761Y-46686566D01*
X153660677Y-46706292D01*
X153671137Y-46727867D01*
X153680097Y-46751239D01*
X153687514Y-46776353D01*
X153689852Y-46786090D01*
X153694569Y-46810413D01*
X153698191Y-46836559D01*
X153700692Y-46864218D01*
X153702050Y-46893081D01*
X153702240Y-46922840D01*
X153701239Y-46953184D01*
X153700872Y-46959755D01*
X153698590Y-46989929D01*
X153695421Y-47017861D01*
X153694911Y-47021080D01*
X153691335Y-47043641D01*
G37*
G36*
X154035646Y-46599683D02*
G01*
X154045985Y-46599968D01*
X154055144Y-46600456D01*
X154062500Y-46601147D01*
X154082882Y-46604448D01*
X154105390Y-46609542D01*
X154128371Y-46616119D01*
X154151196Y-46623999D01*
X154173238Y-46633000D01*
X154185625Y-46638489D01*
X154185955Y-46679945D01*
X154186284Y-46721401D01*
X154177205Y-46716242D01*
X154175928Y-46715523D01*
X154168822Y-46711694D01*
X154160412Y-46707381D01*
X154151199Y-46702820D01*
X154141684Y-46698250D01*
X154132367Y-46693909D01*
X154123752Y-46690034D01*
X154116337Y-46686864D01*
X154110625Y-46684637D01*
X154100523Y-46681189D01*
X154077621Y-46674654D01*
X154055828Y-46670287D01*
X154035166Y-46668088D01*
X154015662Y-46668060D01*
X153997338Y-46670205D01*
X153980221Y-46674524D01*
X153975588Y-46676148D01*
X153961410Y-46682657D01*
X153949022Y-46690909D01*
X153938416Y-46700913D01*
X153929587Y-46712674D01*
X153922527Y-46726201D01*
X153917229Y-46741501D01*
X153915980Y-46747476D01*
X153914922Y-46756261D01*
X153914324Y-46766265D01*
X153914192Y-46776818D01*
X153914533Y-46787248D01*
X153915353Y-46796883D01*
X153916657Y-46805051D01*
X153917011Y-46806650D01*
X153920506Y-46819098D01*
X153925437Y-46831937D01*
X153931905Y-46845344D01*
X153940009Y-46859496D01*
X153949849Y-46874568D01*
X153961526Y-46890738D01*
X153975139Y-46908182D01*
X153976613Y-46910002D01*
X153981091Y-46915438D01*
X153986096Y-46921376D01*
X153991703Y-46927899D01*
X153997988Y-46935087D01*
X154005025Y-46943022D01*
X154012890Y-46951786D01*
X154021656Y-46961461D01*
X154031400Y-46972127D01*
X154042196Y-46983867D01*
X154054119Y-46996762D01*
X154067244Y-47010894D01*
X154081646Y-47026345D01*
X154097399Y-47043195D01*
X154114580Y-47061527D01*
X154133263Y-47081422D01*
X154153522Y-47102962D01*
X154175433Y-47126228D01*
X154191250Y-47143015D01*
X154191250Y-47177168D01*
X154191250Y-47211321D01*
X154008125Y-47211321D01*
X153825000Y-47211321D01*
X153825000Y-47176950D01*
X153825000Y-47142579D01*
X153963133Y-47142261D01*
X154101266Y-47141943D01*
X154080321Y-47119994D01*
X154075751Y-47115200D01*
X154067189Y-47106198D01*
X154057600Y-47096097D01*
X154047329Y-47085260D01*
X154036719Y-47074051D01*
X154026114Y-47062834D01*
X154015859Y-47051972D01*
X154006296Y-47041830D01*
X153997770Y-47032769D01*
X153990625Y-47025155D01*
X153989551Y-47024006D01*
X153983233Y-47017212D01*
X153975999Y-47009376D01*
X153968087Y-47000760D01*
X153959734Y-46991626D01*
X153951176Y-46982235D01*
X153942653Y-46972850D01*
X153934400Y-46963732D01*
X153926655Y-46955143D01*
X153919657Y-46947344D01*
X153913641Y-46940597D01*
X153908846Y-46935165D01*
X153905509Y-46931308D01*
X153899575Y-46924222D01*
X153884133Y-46904749D01*
X153870802Y-46886206D01*
X153859503Y-46868424D01*
X153850158Y-46851234D01*
X153842689Y-46834468D01*
X153837018Y-46817957D01*
X153833066Y-46801533D01*
X153830755Y-46785025D01*
X153830008Y-46768267D01*
X153830341Y-46756534D01*
X153832622Y-46736198D01*
X153837066Y-46717110D01*
X153843677Y-46699260D01*
X153852457Y-46682639D01*
X153863410Y-46667240D01*
X153874094Y-46655238D01*
X153889353Y-46641341D01*
X153906134Y-46629408D01*
X153924451Y-46619433D01*
X153944317Y-46611410D01*
X153965746Y-46605331D01*
X153988750Y-46601189D01*
X153994971Y-46600559D01*
X154003791Y-46600038D01*
X154013926Y-46599718D01*
X154024752Y-46599599D01*
X154035646Y-46599683D01*
G37*
G36*
X152985313Y-46610091D02*
G01*
X153026875Y-46610140D01*
X153093750Y-46624828D01*
X153160625Y-46639516D01*
X153160957Y-46676656D01*
X153160982Y-46679851D01*
X153161015Y-46688944D01*
X153160990Y-46697073D01*
X153160910Y-46703929D01*
X153160780Y-46709207D01*
X153160606Y-46712598D01*
X153160391Y-46713797D01*
X153159904Y-46713709D01*
X153157261Y-46713150D01*
X153152533Y-46712118D01*
X153145944Y-46710663D01*
X153137721Y-46708835D01*
X153128086Y-46706684D01*
X153117267Y-46704261D01*
X153105487Y-46701615D01*
X153092971Y-46698796D01*
X153085738Y-46697166D01*
X153073626Y-46694441D01*
X153062382Y-46691917D01*
X153052231Y-46689644D01*
X153043398Y-46687672D01*
X153036107Y-46686051D01*
X153030581Y-46684831D01*
X153027046Y-46684063D01*
X153025724Y-46683795D01*
X153025669Y-46684470D01*
X153025595Y-46687469D01*
X153025524Y-46692752D01*
X153025456Y-46700198D01*
X153025391Y-46709681D01*
X153025330Y-46721079D01*
X153025273Y-46734268D01*
X153025220Y-46749125D01*
X153025172Y-46765525D01*
X153025128Y-46783346D01*
X153025091Y-46802464D01*
X153025059Y-46822755D01*
X153025034Y-46844096D01*
X153025016Y-46866363D01*
X153025004Y-46889433D01*
X153025000Y-46913182D01*
X153025000Y-47142568D01*
X153088125Y-47142568D01*
X153151250Y-47142568D01*
X153151250Y-47176945D01*
X153151250Y-47211321D01*
X152985000Y-47211321D01*
X152818750Y-47211321D01*
X152818750Y-47176945D01*
X152818750Y-47142568D01*
X152881250Y-47142568D01*
X152943750Y-47142568D01*
X152943750Y-46876305D01*
X152943750Y-46610042D01*
X152985313Y-46610091D01*
G37*
G36*
X152489063Y-46610091D02*
G01*
X152530625Y-46610140D01*
X152597500Y-46624828D01*
X152664375Y-46639516D01*
X152664707Y-46676656D01*
X152664732Y-46679851D01*
X152664765Y-46688944D01*
X152664740Y-46697073D01*
X152664660Y-46703929D01*
X152664530Y-46709207D01*
X152664356Y-46712598D01*
X152664141Y-46713797D01*
X152663654Y-46713709D01*
X152661011Y-46713150D01*
X152656283Y-46712118D01*
X152649694Y-46710663D01*
X152641471Y-46708835D01*
X152631836Y-46706684D01*
X152621017Y-46704261D01*
X152609237Y-46701615D01*
X152596721Y-46698796D01*
X152589488Y-46697166D01*
X152577376Y-46694441D01*
X152566132Y-46691917D01*
X152555981Y-46689644D01*
X152547148Y-46687672D01*
X152539857Y-46686051D01*
X152534331Y-46684831D01*
X152530796Y-46684063D01*
X152529474Y-46683795D01*
X152529419Y-46684470D01*
X152529345Y-46687469D01*
X152529274Y-46692752D01*
X152529206Y-46700198D01*
X152529141Y-46709681D01*
X152529080Y-46721079D01*
X152529023Y-46734268D01*
X152528970Y-46749125D01*
X152528922Y-46765525D01*
X152528878Y-46783346D01*
X152528841Y-46802464D01*
X152528809Y-46822755D01*
X152528784Y-46844096D01*
X152528766Y-46866363D01*
X152528754Y-46889433D01*
X152528750Y-46913182D01*
X152528750Y-47142568D01*
X152591875Y-47142568D01*
X152655000Y-47142568D01*
X152655000Y-47176945D01*
X152655000Y-47211321D01*
X152488750Y-47211321D01*
X152322500Y-47211321D01*
X152322500Y-47176945D01*
X152322500Y-47142568D01*
X152385000Y-47142568D01*
X152447500Y-47142568D01*
X152447500Y-46876305D01*
X152447500Y-46610042D01*
X152489063Y-46610091D01*
G37*
G36*
X152344169Y-44937147D02*
G01*
X152344213Y-44959903D01*
X152344288Y-44997947D01*
X152344366Y-45038097D01*
X152344448Y-45080111D01*
X152344533Y-45123747D01*
X152344620Y-45168763D01*
X152344709Y-45214918D01*
X152344799Y-45261969D01*
X152344890Y-45309674D01*
X152344982Y-45357792D01*
X152345074Y-45406081D01*
X152345166Y-45454298D01*
X152345257Y-45502202D01*
X152345346Y-45549551D01*
X152345434Y-45596103D01*
X152345520Y-45641616D01*
X152345603Y-45685848D01*
X152345682Y-45728557D01*
X152345759Y-45769502D01*
X152345831Y-45808440D01*
X152346662Y-46258775D01*
X154250206Y-46258775D01*
X156153750Y-46258775D01*
X156153750Y-45471861D01*
X156153750Y-44684947D01*
X154533750Y-44684947D01*
X152913750Y-44684947D01*
X152913750Y-44600568D01*
X152913750Y-44516189D01*
X154618125Y-44516189D01*
X156322500Y-44516189D01*
X156322500Y-45472486D01*
X156322500Y-46428783D01*
X154250000Y-46428783D01*
X152177500Y-46428783D01*
X152177500Y-45472486D01*
X152177500Y-44516189D01*
X152260420Y-44516189D01*
X152343339Y-44516189D01*
X152344169Y-44937147D01*
G37*
G36*
X155868480Y-45483707D02*
G01*
X155868544Y-45505512D01*
X155868365Y-45526697D01*
X155867937Y-45546796D01*
X155867256Y-45565341D01*
X155866317Y-45581866D01*
X155866223Y-45583217D01*
X155862955Y-45621655D01*
X155858720Y-45657867D01*
X155853491Y-45691941D01*
X155847241Y-45723965D01*
X155839947Y-45754027D01*
X155831580Y-45782213D01*
X155822116Y-45808613D01*
X155811528Y-45833313D01*
X155799791Y-45856402D01*
X155786879Y-45877966D01*
X155772764Y-45898094D01*
X155770944Y-45900398D01*
X155765990Y-45906160D01*
X155759823Y-45912866D01*
X155752902Y-45920053D01*
X155745687Y-45927259D01*
X155738638Y-45934019D01*
X155732214Y-45939871D01*
X155726875Y-45944350D01*
X155712156Y-45955018D01*
X155690941Y-45967751D01*
X155668249Y-45978559D01*
X155644193Y-45987403D01*
X155618890Y-45994241D01*
X155592454Y-45999034D01*
X155565000Y-46001739D01*
X155561544Y-46001882D01*
X155554578Y-46001987D01*
X155546112Y-46001965D01*
X155536720Y-46001829D01*
X155526971Y-46001595D01*
X155517437Y-46001277D01*
X155508690Y-46000891D01*
X155501300Y-46000449D01*
X155495838Y-45999968D01*
X155472733Y-45996438D01*
X155447166Y-45990447D01*
X155422590Y-45982441D01*
X155399375Y-45972523D01*
X155390050Y-45967764D01*
X155368964Y-45955015D01*
X155349165Y-45940140D01*
X155330668Y-45923156D01*
X155313488Y-45904084D01*
X155297636Y-45882943D01*
X155283127Y-45859752D01*
X155269976Y-45834531D01*
X155258194Y-45807298D01*
X155247797Y-45778073D01*
X155238797Y-45746874D01*
X155235691Y-45734382D01*
X155229071Y-45703998D01*
X155223533Y-45672579D01*
X155219054Y-45639911D01*
X155215611Y-45605781D01*
X155213181Y-45569976D01*
X155211740Y-45532282D01*
X155211459Y-45508714D01*
X155350575Y-45508714D01*
X155351196Y-45541589D01*
X155352446Y-45574056D01*
X155354329Y-45605775D01*
X155356848Y-45636409D01*
X155360010Y-45665620D01*
X155360339Y-45668268D01*
X155364770Y-45698273D01*
X155370210Y-45726013D01*
X155376672Y-45751514D01*
X155384170Y-45774804D01*
X155392717Y-45795907D01*
X155402326Y-45814851D01*
X155413010Y-45831663D01*
X155424784Y-45846368D01*
X155437659Y-45858992D01*
X155451649Y-45869564D01*
X155466768Y-45878108D01*
X155471012Y-45880112D01*
X155478545Y-45883391D01*
X155485526Y-45885929D01*
X155492965Y-45888075D01*
X155501875Y-45890176D01*
X155502871Y-45890385D01*
X155510692Y-45891597D01*
X155520210Y-45892504D01*
X155530743Y-45893091D01*
X155541609Y-45893339D01*
X155552125Y-45893232D01*
X155561608Y-45892752D01*
X155569375Y-45891882D01*
X155577005Y-45890404D01*
X155586808Y-45887944D01*
X155596659Y-45884958D01*
X155605714Y-45881705D01*
X155613125Y-45878445D01*
X155624892Y-45871821D01*
X155640221Y-45860768D01*
X155654188Y-45847646D01*
X155666802Y-45832443D01*
X155678074Y-45815149D01*
X155688011Y-45795751D01*
X155696623Y-45774240D01*
X155698943Y-45767179D01*
X155701918Y-45757055D01*
X155705005Y-45745572D01*
X155708053Y-45733335D01*
X155710913Y-45720946D01*
X155713437Y-45709008D01*
X155715474Y-45698122D01*
X155718101Y-45681467D01*
X155721345Y-45656203D01*
X155724063Y-45629061D01*
X155726251Y-45600374D01*
X155727903Y-45570474D01*
X155729014Y-45539693D01*
X155729579Y-45508364D01*
X155729592Y-45476819D01*
X155729049Y-45445390D01*
X155727944Y-45414409D01*
X155726272Y-45384209D01*
X155724029Y-45355121D01*
X155721208Y-45327479D01*
X155718417Y-45305814D01*
X155713748Y-45277201D01*
X155708205Y-45250856D01*
X155701763Y-45226725D01*
X155694395Y-45204756D01*
X155686077Y-45184896D01*
X155676783Y-45167092D01*
X155666487Y-45151291D01*
X155655163Y-45137440D01*
X155642787Y-45125486D01*
X155629331Y-45115375D01*
X155614772Y-45107056D01*
X155614383Y-45106865D01*
X155602549Y-45101500D01*
X155591288Y-45097397D01*
X155580002Y-45094427D01*
X155568092Y-45092462D01*
X155554958Y-45091373D01*
X155540000Y-45091032D01*
X155532962Y-45091106D01*
X155517795Y-45091943D01*
X155504113Y-45093814D01*
X155491309Y-45096852D01*
X155478775Y-45101186D01*
X155465902Y-45106948D01*
X155452154Y-45114769D01*
X155438113Y-45125296D01*
X155425205Y-45137862D01*
X155413413Y-45152498D01*
X155402718Y-45169237D01*
X155393102Y-45188110D01*
X155384548Y-45209151D01*
X155377035Y-45232392D01*
X155370548Y-45257865D01*
X155365066Y-45285602D01*
X155363437Y-45295507D01*
X155359787Y-45321786D01*
X155356733Y-45350022D01*
X155354281Y-45379875D01*
X155352434Y-45411009D01*
X155351198Y-45443086D01*
X155350577Y-45475766D01*
X155350575Y-45508714D01*
X155211459Y-45508714D01*
X155211266Y-45492487D01*
X155211266Y-45492418D01*
X155211876Y-45448354D01*
X155213706Y-45406436D01*
X155216763Y-45366626D01*
X155221057Y-45328882D01*
X155226593Y-45293165D01*
X155233382Y-45259434D01*
X155241430Y-45227651D01*
X155250746Y-45197774D01*
X155261338Y-45169764D01*
X155273213Y-45143581D01*
X155286381Y-45119184D01*
X155295721Y-45104172D01*
X155306663Y-45088830D01*
X155318664Y-45074370D01*
X155332379Y-45059947D01*
X155333030Y-45059302D01*
X155349461Y-45044261D01*
X155366485Y-45031073D01*
X155384340Y-45019628D01*
X155403263Y-45009817D01*
X155423491Y-45001528D01*
X155445261Y-44994653D01*
X155468810Y-44989080D01*
X155494375Y-44984700D01*
X155495820Y-44984511D01*
X155502669Y-44983906D01*
X155511403Y-44983463D01*
X155521539Y-44983179D01*
X155532594Y-44983050D01*
X155544088Y-44983074D01*
X155555537Y-44983247D01*
X155566460Y-44983565D01*
X155576375Y-44984025D01*
X155584799Y-44984625D01*
X155591250Y-44985360D01*
X155603952Y-44987473D01*
X155629064Y-44992939D01*
X155652382Y-44999907D01*
X155674116Y-45008474D01*
X155694475Y-45018741D01*
X155713668Y-45030808D01*
X155731904Y-45044773D01*
X155749391Y-45060737D01*
X155749479Y-45060824D01*
X155766227Y-45079103D01*
X155781732Y-45099537D01*
X155795989Y-45122109D01*
X155808991Y-45146800D01*
X155820731Y-45173593D01*
X155831203Y-45202469D01*
X155840401Y-45233412D01*
X155848317Y-45266402D01*
X155854946Y-45301423D01*
X155860280Y-45338455D01*
X155864314Y-45377481D01*
X155864658Y-45381707D01*
X155865874Y-45399615D01*
X155866868Y-45419235D01*
X155867637Y-45440102D01*
X155868176Y-45461748D01*
X155868385Y-45476819D01*
X155868480Y-45483707D01*
G37*
G36*
X154728186Y-44982815D02*
G01*
X154741456Y-44983174D01*
X154754096Y-44983740D01*
X154765485Y-44984501D01*
X154775000Y-44985444D01*
X154792955Y-44988027D01*
X154822042Y-44993939D01*
X154849573Y-45001800D01*
X154875560Y-45011615D01*
X154900015Y-45023388D01*
X154922949Y-45037125D01*
X154944375Y-45052830D01*
X154944870Y-45053232D01*
X154952344Y-45059736D01*
X154960668Y-45067655D01*
X154969282Y-45076405D01*
X154977631Y-45085403D01*
X154985154Y-45094068D01*
X154991296Y-45101817D01*
X154991528Y-45102131D01*
X155005219Y-45122599D01*
X155016747Y-45144081D01*
X155026135Y-45166653D01*
X155033407Y-45190390D01*
X155038585Y-45215368D01*
X155041693Y-45241663D01*
X155042754Y-45269351D01*
X155042711Y-45277258D01*
X155042077Y-45295769D01*
X155040632Y-45312626D01*
X155038307Y-45328362D01*
X155035029Y-45343509D01*
X155030726Y-45358600D01*
X155025273Y-45373807D01*
X155016117Y-45393517D01*
X155004974Y-45411949D01*
X154991797Y-45429152D01*
X154976540Y-45445174D01*
X154959155Y-45460064D01*
X154939595Y-45473868D01*
X154917813Y-45486637D01*
X154893762Y-45498416D01*
X154891241Y-45499539D01*
X154878873Y-45504817D01*
X154866441Y-45509702D01*
X154853603Y-45514303D01*
X154840013Y-45518727D01*
X154825327Y-45523083D01*
X154809201Y-45527479D01*
X154791290Y-45532022D01*
X154771250Y-45536820D01*
X154770332Y-45537035D01*
X154752535Y-45541202D01*
X154736963Y-45544864D01*
X154723413Y-45548073D01*
X154711683Y-45550882D01*
X154701572Y-45553346D01*
X154692877Y-45555516D01*
X154685396Y-45557445D01*
X154678927Y-45559188D01*
X154673269Y-45560797D01*
X154668219Y-45562326D01*
X154663575Y-45563827D01*
X154659135Y-45565353D01*
X154654697Y-45566958D01*
X154650059Y-45568696D01*
X154640742Y-45572349D01*
X154624891Y-45579270D01*
X154611125Y-45586320D01*
X154599171Y-45593632D01*
X154587578Y-45602344D01*
X154574785Y-45614684D01*
X154563941Y-45628581D01*
X154555061Y-45644014D01*
X154548158Y-45660962D01*
X154543246Y-45679403D01*
X154541853Y-45687840D01*
X154540647Y-45699544D01*
X154539954Y-45712312D01*
X154539783Y-45725441D01*
X154540139Y-45738233D01*
X154541030Y-45749986D01*
X154542462Y-45760000D01*
X154542541Y-45760407D01*
X154544357Y-45768115D01*
X154546892Y-45776862D01*
X154549858Y-45785772D01*
X154552963Y-45793972D01*
X154555919Y-45800585D01*
X154557112Y-45802902D01*
X154566913Y-45818857D01*
X154578746Y-45833450D01*
X154592512Y-45846616D01*
X154608111Y-45858287D01*
X154625446Y-45868398D01*
X154644418Y-45876882D01*
X154664927Y-45883672D01*
X154686875Y-45888702D01*
X154702865Y-45891078D01*
X154722370Y-45892825D01*
X154743064Y-45893627D01*
X154764354Y-45893486D01*
X154785648Y-45892410D01*
X154806357Y-45890402D01*
X154825887Y-45887468D01*
X154829183Y-45886856D01*
X154857916Y-45880311D01*
X154887321Y-45871494D01*
X154917229Y-45860474D01*
X154947469Y-45847319D01*
X154977872Y-45832096D01*
X155008266Y-45814872D01*
X155009151Y-45814341D01*
X155015614Y-45810464D01*
X155021305Y-45807051D01*
X155025880Y-45804309D01*
X155028997Y-45802441D01*
X155030313Y-45801655D01*
X155030446Y-45802292D01*
X155030610Y-45805166D01*
X155030763Y-45810153D01*
X155030900Y-45817032D01*
X155031018Y-45825584D01*
X155031115Y-45835589D01*
X155031189Y-45846827D01*
X155031235Y-45859079D01*
X155031250Y-45872124D01*
X155031250Y-45943143D01*
X155012763Y-45950326D01*
X155000690Y-45954921D01*
X154963525Y-45967812D01*
X154926883Y-45978553D01*
X154890363Y-45987231D01*
X154853561Y-45993936D01*
X154816075Y-45998755D01*
X154777500Y-46001777D01*
X154773081Y-46001943D01*
X154765320Y-46002045D01*
X154755945Y-46002019D01*
X154745461Y-46001880D01*
X154734375Y-46001640D01*
X154723192Y-46001313D01*
X154712417Y-46000913D01*
X154702557Y-46000452D01*
X154694117Y-45999943D01*
X154687603Y-45999402D01*
X154683106Y-45998921D01*
X154652355Y-45994615D01*
X154623513Y-45988723D01*
X154596551Y-45981233D01*
X154571441Y-45972132D01*
X154548151Y-45961410D01*
X154526654Y-45949054D01*
X154506920Y-45935052D01*
X154488919Y-45919393D01*
X154486508Y-45917050D01*
X154472901Y-45902694D01*
X154461123Y-45888042D01*
X154450806Y-45872548D01*
X154441582Y-45855669D01*
X154433082Y-45836859D01*
X154432737Y-45836020D01*
X154425519Y-45815619D01*
X154419784Y-45793474D01*
X154415573Y-45769875D01*
X154412928Y-45745110D01*
X154411890Y-45719468D01*
X154412500Y-45693237D01*
X154414065Y-45673418D01*
X154417693Y-45647689D01*
X154423079Y-45623463D01*
X154430266Y-45600698D01*
X154439292Y-45579353D01*
X154450198Y-45559385D01*
X154463024Y-45540753D01*
X154477812Y-45523415D01*
X154494601Y-45507330D01*
X154513432Y-45492456D01*
X154534346Y-45478752D01*
X154557382Y-45466175D01*
X154582581Y-45454685D01*
X154609983Y-45444239D01*
X154639630Y-45434796D01*
X154671561Y-45426314D01*
X154672996Y-45425966D01*
X154684055Y-45423306D01*
X154696475Y-45420340D01*
X154709315Y-45417294D01*
X154721637Y-45414388D01*
X154732500Y-45411848D01*
X154744728Y-45408952D01*
X154763868Y-45404156D01*
X154780966Y-45399490D01*
X154796300Y-45394865D01*
X154810150Y-45390188D01*
X154822795Y-45385369D01*
X154834513Y-45380316D01*
X154845585Y-45374939D01*
X154853036Y-45370946D01*
X154866077Y-45362903D01*
X154877049Y-45354473D01*
X154886238Y-45345391D01*
X154893932Y-45335391D01*
X154900415Y-45324210D01*
X154903048Y-45318749D01*
X154907827Y-45307006D01*
X154911333Y-45295127D01*
X154913683Y-45282556D01*
X154914995Y-45268733D01*
X154915387Y-45253100D01*
X154914836Y-45236921D01*
X154912967Y-45220838D01*
X154909680Y-45206096D01*
X154904875Y-45192259D01*
X154898451Y-45178887D01*
X154888898Y-45163776D01*
X154876891Y-45149297D01*
X154862914Y-45136261D01*
X154847037Y-45124720D01*
X154829331Y-45114725D01*
X154809866Y-45106327D01*
X154788713Y-45099575D01*
X154779887Y-45097402D01*
X154764274Y-45094480D01*
X154747464Y-45092473D01*
X154729066Y-45091337D01*
X154708687Y-45091032D01*
X154691621Y-45091530D01*
X154662324Y-45094293D01*
X154632708Y-45099435D01*
X154602906Y-45106913D01*
X154573054Y-45116687D01*
X154543285Y-45128717D01*
X154513732Y-45142961D01*
X154484531Y-45159379D01*
X154469375Y-45168525D01*
X154469052Y-45101506D01*
X154469026Y-45095132D01*
X154469000Y-45082760D01*
X154469009Y-45071260D01*
X154469050Y-45060864D01*
X154469123Y-45051804D01*
X154469224Y-45044314D01*
X154469351Y-45038626D01*
X154469503Y-45034972D01*
X154469677Y-45033586D01*
X154469867Y-45033461D01*
X154471912Y-45032552D01*
X154475737Y-45031067D01*
X154480879Y-45029180D01*
X154486875Y-45027067D01*
X154499191Y-45022895D01*
X154537470Y-45011064D01*
X154575023Y-45001188D01*
X154611692Y-44993301D01*
X154647317Y-44987439D01*
X154681739Y-44983639D01*
X154690807Y-44983095D01*
X154702240Y-44982763D01*
X154714907Y-44982674D01*
X154728186Y-44982815D01*
G37*
G36*
X153736250Y-45201223D02*
G01*
X153736250Y-45402482D01*
X153918125Y-45402482D01*
X154100000Y-45402482D01*
X154100000Y-45201223D01*
X154100000Y-44999963D01*
X154166875Y-44999963D01*
X154233750Y-44999963D01*
X154233750Y-45491862D01*
X154233750Y-45983761D01*
X154166875Y-45983761D01*
X154100000Y-45983761D01*
X154100000Y-45749375D01*
X154100000Y-45514988D01*
X153918125Y-45514988D01*
X153736250Y-45514988D01*
X153736250Y-45749375D01*
X153736250Y-45983761D01*
X153669375Y-45983761D01*
X153602500Y-45983761D01*
X153602500Y-45491862D01*
X153602500Y-44999963D01*
X153669375Y-44999963D01*
X153736250Y-44999963D01*
X153736250Y-45201223D01*
G37*
G36*
X152606857Y-44272739D02*
G01*
X152606896Y-44272917D01*
X152607351Y-44275070D01*
X152608288Y-44279541D01*
X152609688Y-44286231D01*
X152611530Y-44295040D01*
X152613792Y-44305869D01*
X152616455Y-44318617D01*
X152619496Y-44333185D01*
X152622896Y-44349474D01*
X152626634Y-44367383D01*
X152630688Y-44386814D01*
X152635038Y-44407665D01*
X152639664Y-44429839D01*
X152644544Y-44453235D01*
X152649657Y-44477753D01*
X152654984Y-44503294D01*
X152660502Y-44529759D01*
X152666192Y-44557046D01*
X152672032Y-44585058D01*
X152678001Y-44613694D01*
X152681346Y-44629740D01*
X152687805Y-44660722D01*
X152694705Y-44693820D01*
X152702002Y-44728821D01*
X152709650Y-44765512D01*
X152717607Y-44803679D01*
X152725827Y-44843109D01*
X152734266Y-44883587D01*
X152742878Y-44924901D01*
X152751621Y-44966837D01*
X152760449Y-45009181D01*
X152769317Y-45051719D01*
X152778181Y-45094239D01*
X152786998Y-45136527D01*
X152795721Y-45178369D01*
X152804307Y-45219552D01*
X152812710Y-45259862D01*
X152820888Y-45299085D01*
X152828794Y-45337009D01*
X152836385Y-45373419D01*
X152840166Y-45391549D01*
X152846763Y-45423173D01*
X152853223Y-45454115D01*
X152859525Y-45484286D01*
X152865653Y-45513599D01*
X152871586Y-45541965D01*
X152877307Y-45569295D01*
X152882797Y-45595503D01*
X152888038Y-45620498D01*
X152893010Y-45644194D01*
X152897696Y-45666501D01*
X152902077Y-45687331D01*
X152906134Y-45706597D01*
X152909848Y-45724209D01*
X152913202Y-45740080D01*
X152916176Y-45754122D01*
X152918752Y-45766245D01*
X152920912Y-45776362D01*
X152922636Y-45784384D01*
X152923907Y-45790224D01*
X152924705Y-45793793D01*
X152925013Y-45795002D01*
X152925108Y-45794784D01*
X152925684Y-45792608D01*
X152926720Y-45788247D01*
X152928177Y-45781882D01*
X152930013Y-45773696D01*
X152932189Y-45763872D01*
X152934664Y-45752591D01*
X152937397Y-45740037D01*
X152940350Y-45726392D01*
X152943481Y-45711839D01*
X152946750Y-45696559D01*
X152948169Y-45689905D01*
X152951430Y-45674631D01*
X152955123Y-45657331D01*
X152959189Y-45638289D01*
X152963568Y-45617785D01*
X152968199Y-45596102D01*
X152973023Y-45573523D01*
X152977978Y-45550328D01*
X152983005Y-45526800D01*
X152988044Y-45503221D01*
X152993034Y-45479872D01*
X152997915Y-45457036D01*
X153002627Y-45434994D01*
X153004390Y-45426743D01*
X153008560Y-45407227D01*
X153012571Y-45388442D01*
X153016391Y-45370532D01*
X153019993Y-45353639D01*
X153023343Y-45337905D01*
X153026414Y-45323474D01*
X153029173Y-45310489D01*
X153031591Y-45299091D01*
X153033638Y-45289425D01*
X153035282Y-45281632D01*
X153036494Y-45275856D01*
X153037244Y-45272239D01*
X153037500Y-45270924D01*
X153038092Y-45270801D01*
X153040910Y-45270632D01*
X153045849Y-45270476D01*
X153052685Y-45270336D01*
X153061195Y-45270214D01*
X153071156Y-45270115D01*
X153082342Y-45270040D01*
X153094532Y-45269992D01*
X153107500Y-45269976D01*
X153116584Y-45269984D01*
X153129035Y-45270023D01*
X153140551Y-45270091D01*
X153150910Y-45270185D01*
X153159886Y-45270302D01*
X153167257Y-45270439D01*
X153172799Y-45270593D01*
X153176288Y-45270760D01*
X153177500Y-45270939D01*
X153177501Y-45270944D01*
X153177768Y-45272352D01*
X153178515Y-45276009D01*
X153179703Y-45281721D01*
X153181290Y-45289297D01*
X153183237Y-45298544D01*
X153185502Y-45309271D01*
X153188045Y-45321286D01*
X153190825Y-45334395D01*
X153193803Y-45348408D01*
X153196937Y-45363131D01*
X153199035Y-45372983D01*
X153202158Y-45387662D01*
X153205699Y-45404324D01*
X153209604Y-45422706D01*
X153213817Y-45442548D01*
X153218283Y-45463589D01*
X153222946Y-45485567D01*
X153227750Y-45508221D01*
X153232642Y-45531291D01*
X153237564Y-45554514D01*
X153242461Y-45577629D01*
X153247279Y-45600376D01*
X153251961Y-45622493D01*
X153254556Y-45634746D01*
X153258737Y-45654471D01*
X153262765Y-45673451D01*
X153266610Y-45691543D01*
X153270242Y-45708607D01*
X153273631Y-45724500D01*
X153276745Y-45739082D01*
X153279555Y-45752209D01*
X153282031Y-45763740D01*
X153284141Y-45773535D01*
X153285856Y-45781450D01*
X153287146Y-45787343D01*
X153287980Y-45791075D01*
X153288328Y-45792502D01*
X153288550Y-45792036D01*
X153289060Y-45789402D01*
X153289797Y-45784713D01*
X153290728Y-45778206D01*
X153291822Y-45770119D01*
X153293045Y-45760689D01*
X153294364Y-45750153D01*
X153295747Y-45738749D01*
X153296415Y-45733142D01*
X153297755Y-45721879D01*
X153299310Y-45708785D01*
X153301066Y-45693977D01*
X153303009Y-45677571D01*
X153305126Y-45659685D01*
X153307402Y-45640435D01*
X153309825Y-45619936D01*
X153312379Y-45598307D01*
X153315053Y-45575664D01*
X153317831Y-45552122D01*
X153320701Y-45527799D01*
X153323648Y-45502812D01*
X153326658Y-45477276D01*
X153329719Y-45451309D01*
X153332816Y-45425026D01*
X153335936Y-45398546D01*
X153339064Y-45371983D01*
X153342187Y-45345455D01*
X153345292Y-45319078D01*
X153348365Y-45292970D01*
X153351391Y-45267245D01*
X153354358Y-45242022D01*
X153357251Y-45217417D01*
X153360058Y-45193545D01*
X153362763Y-45170525D01*
X153365353Y-45148471D01*
X153367815Y-45127502D01*
X153370135Y-45107733D01*
X153372299Y-45089282D01*
X153374294Y-45072264D01*
X153376105Y-45056796D01*
X153377720Y-45042995D01*
X153379123Y-45030977D01*
X153380302Y-45020860D01*
X153381244Y-45012759D01*
X153381933Y-45006791D01*
X153382356Y-45003073D01*
X153382500Y-45001721D01*
X153382547Y-45001555D01*
X153383128Y-45001184D01*
X153384524Y-45000874D01*
X153386922Y-45000619D01*
X153390510Y-45000414D01*
X153395475Y-45000255D01*
X153402003Y-45000136D01*
X153410283Y-45000053D01*
X153420501Y-44999999D01*
X153432844Y-44999971D01*
X153447500Y-44999963D01*
X153461471Y-44999971D01*
X153474087Y-45000003D01*
X153484549Y-45000061D01*
X153493037Y-45000152D01*
X153499729Y-45000279D01*
X153504803Y-45000446D01*
X153508439Y-45000659D01*
X153510814Y-45000922D01*
X153512109Y-45001240D01*
X153512500Y-45001617D01*
X153512491Y-45001741D01*
X153512229Y-45003750D01*
X153511630Y-45007995D01*
X153510722Y-45014284D01*
X153509533Y-45022427D01*
X153508092Y-45032229D01*
X153506428Y-45043501D01*
X153504567Y-45056049D01*
X153502539Y-45069682D01*
X153500372Y-45084207D01*
X153498094Y-45099434D01*
X153496682Y-45108866D01*
X153494574Y-45122947D01*
X153492209Y-45138755D01*
X153489602Y-45156186D01*
X153486770Y-45175133D01*
X153483727Y-45195492D01*
X153480489Y-45217159D01*
X153477072Y-45240027D01*
X153473492Y-45263993D01*
X153469765Y-45288951D01*
X153465905Y-45314795D01*
X153461929Y-45341422D01*
X153457853Y-45368726D01*
X153453691Y-45396602D01*
X153449460Y-45424945D01*
X153445175Y-45453650D01*
X153440853Y-45482612D01*
X153436508Y-45511726D01*
X153432156Y-45540888D01*
X153427813Y-45569991D01*
X153423495Y-45598932D01*
X153419217Y-45627605D01*
X153414996Y-45655905D01*
X153410845Y-45683727D01*
X153406783Y-45710966D01*
X153402823Y-45737518D01*
X153398982Y-45763276D01*
X153395275Y-45788137D01*
X153391718Y-45811995D01*
X153388326Y-45834745D01*
X153385116Y-45856283D01*
X153382103Y-45876503D01*
X153379302Y-45895300D01*
X153376730Y-45912569D01*
X153374402Y-45928205D01*
X153372333Y-45942104D01*
X153370540Y-45954160D01*
X153369038Y-45964268D01*
X153367842Y-45972323D01*
X153366968Y-45978221D01*
X153366433Y-45981856D01*
X153366250Y-45983123D01*
X153366173Y-45983155D01*
X153364373Y-45983278D01*
X153360368Y-45983392D01*
X153354394Y-45983494D01*
X153346686Y-45983584D01*
X153337479Y-45983658D01*
X153327009Y-45983714D01*
X153315513Y-45983749D01*
X153303226Y-45983761D01*
X153240201Y-45983761D01*
X153238144Y-45974698D01*
X153237861Y-45973457D01*
X153237004Y-45969689D01*
X153235640Y-45963699D01*
X153233799Y-45955612D01*
X153231510Y-45945557D01*
X153228801Y-45933658D01*
X153225701Y-45920045D01*
X153222239Y-45904842D01*
X153218444Y-45888178D01*
X153214345Y-45870179D01*
X153209971Y-45850971D01*
X153205351Y-45830682D01*
X153200513Y-45809439D01*
X153195486Y-45787368D01*
X153190300Y-45764595D01*
X153184983Y-45741249D01*
X153183197Y-45733406D01*
X153177697Y-45709254D01*
X153172232Y-45685252D01*
X153166838Y-45661563D01*
X153161554Y-45638352D01*
X153156416Y-45615781D01*
X153151462Y-45594014D01*
X153146728Y-45573213D01*
X153142253Y-45553544D01*
X153138072Y-45535168D01*
X153134223Y-45518249D01*
X153130744Y-45502952D01*
X153127672Y-45489438D01*
X153125043Y-45477872D01*
X153122895Y-45468416D01*
X153121265Y-45461235D01*
X153119134Y-45451864D01*
X153116634Y-45440932D01*
X153114327Y-45430911D01*
X153112271Y-45422055D01*
X153110526Y-45414618D01*
X153109152Y-45408855D01*
X153108209Y-45405022D01*
X153107755Y-45403373D01*
X153107632Y-45403291D01*
X153106952Y-45404660D01*
X153105807Y-45408314D01*
X153104231Y-45414133D01*
X153102254Y-45421997D01*
X153099909Y-45431784D01*
X153097227Y-45443375D01*
X153090396Y-45473324D01*
X153082718Y-45506984D01*
X153075142Y-45540192D01*
X153067688Y-45572861D01*
X153060376Y-45604905D01*
X153053225Y-45636237D01*
X153046255Y-45666772D01*
X153039486Y-45696422D01*
X153032938Y-45725102D01*
X153026629Y-45752725D01*
X153020581Y-45779205D01*
X153014812Y-45804455D01*
X153009343Y-45828390D01*
X153004193Y-45850923D01*
X152999381Y-45871967D01*
X152994929Y-45891438D01*
X152990854Y-45909247D01*
X152987178Y-45925309D01*
X152983919Y-45939537D01*
X152981097Y-45951846D01*
X152978733Y-45962149D01*
X152976846Y-45970359D01*
X152975455Y-45976391D01*
X152974581Y-45980158D01*
X152974242Y-45981573D01*
X152974148Y-45981811D01*
X152973729Y-45982267D01*
X152972852Y-45982645D01*
X152971313Y-45982954D01*
X152968907Y-45983201D01*
X152965430Y-45983392D01*
X152960677Y-45983534D01*
X152954446Y-45983634D01*
X152946531Y-45983700D01*
X152936729Y-45983739D01*
X152924835Y-45983757D01*
X152910645Y-45983761D01*
X152847708Y-45983761D01*
X152846430Y-45977823D01*
X152845742Y-45974630D01*
X152844178Y-45967382D01*
X152842141Y-45957955D01*
X152839649Y-45946428D01*
X152836717Y-45932874D01*
X152833362Y-45917371D01*
X152829600Y-45899993D01*
X152825448Y-45880817D01*
X152820922Y-45859918D01*
X152816038Y-45837372D01*
X152810814Y-45813255D01*
X152805265Y-45787642D01*
X152799408Y-45760609D01*
X152793259Y-45732233D01*
X152786835Y-45702588D01*
X152780152Y-45671750D01*
X152773227Y-45639796D01*
X152766075Y-45606800D01*
X152758715Y-45572840D01*
X152751160Y-45537990D01*
X152743430Y-45502326D01*
X152735539Y-45465923D01*
X152727504Y-45428859D01*
X152719341Y-45391208D01*
X152711068Y-45353046D01*
X152702700Y-45314450D01*
X152694254Y-45275494D01*
X152685746Y-45236254D01*
X152677192Y-45196806D01*
X152668610Y-45157227D01*
X152660016Y-45117591D01*
X152651425Y-45077975D01*
X152642855Y-45038453D01*
X152634321Y-44999103D01*
X152625841Y-44959999D01*
X152617430Y-44921218D01*
X152609106Y-44882835D01*
X152600884Y-44844926D01*
X152592781Y-44807567D01*
X152584813Y-44770833D01*
X152576997Y-44734800D01*
X152569350Y-44699544D01*
X152561887Y-44665141D01*
X152554625Y-44631666D01*
X152547580Y-44599195D01*
X152540770Y-44567804D01*
X152534210Y-44537569D01*
X152527916Y-44508566D01*
X152521906Y-44480869D01*
X152516195Y-44454555D01*
X152510801Y-44429700D01*
X152505739Y-44406380D01*
X152501026Y-44384669D01*
X152496678Y-44364645D01*
X152492712Y-44346382D01*
X152489144Y-44329956D01*
X152485991Y-44315444D01*
X152483268Y-44302921D01*
X152480994Y-44292462D01*
X152479183Y-44284143D01*
X152477852Y-44278041D01*
X152477018Y-44274231D01*
X152476698Y-44272788D01*
X152475979Y-44269927D01*
X152541091Y-44269927D01*
X152606203Y-44269927D01*
X152606857Y-44272739D01*
G37*
G36*
X154999165Y-46855682D02*
G01*
X155004715Y-46855774D01*
X155008735Y-46856090D01*
X155011953Y-46856765D01*
X155015097Y-46857931D01*
X155018892Y-46859723D01*
X155028169Y-46865470D01*
X155036282Y-46873098D01*
X155042586Y-46882036D01*
X155046980Y-46891974D01*
X155049366Y-46902607D01*
X155049643Y-46913625D01*
X155047713Y-46924723D01*
X155043475Y-46935591D01*
X155038127Y-46943613D01*
X155030892Y-46950815D01*
X155022381Y-46956681D01*
X155013193Y-46960711D01*
X155012612Y-46960877D01*
X155008533Y-46961625D01*
X155003162Y-46962176D01*
X154997500Y-46962422D01*
X154995047Y-46962415D01*
X154984446Y-46961443D01*
X154975253Y-46958770D01*
X154966953Y-46954197D01*
X154959033Y-46947524D01*
X154952149Y-46939649D01*
X154946724Y-46930415D01*
X154943558Y-46920436D01*
X154942530Y-46909432D01*
X154942684Y-46905282D01*
X154944710Y-46894063D01*
X154948965Y-46883708D01*
X154955287Y-46874473D01*
X154963514Y-46866612D01*
X154973488Y-46860378D01*
X154976039Y-46859129D01*
X154979711Y-46857484D01*
X154982875Y-46856467D01*
X154986282Y-46855928D01*
X154990686Y-46855716D01*
X154996837Y-46855679D01*
X154999165Y-46855682D01*
G37*
G36*
X154502893Y-46855682D02*
G01*
X154508446Y-46855774D01*
X154512469Y-46856090D01*
X154515690Y-46856765D01*
X154518836Y-46857931D01*
X154522635Y-46859723D01*
X154530160Y-46864172D01*
X154538722Y-46871591D01*
X154545477Y-46880438D01*
X154550293Y-46890417D01*
X154553036Y-46901234D01*
X154553574Y-46912595D01*
X154551772Y-46924205D01*
X154549192Y-46931903D01*
X154544477Y-46940388D01*
X154537703Y-46948291D01*
X154534874Y-46950913D01*
X154526552Y-46956730D01*
X154516875Y-46960806D01*
X154515994Y-46961059D01*
X154510533Y-46961971D01*
X154503733Y-46962384D01*
X154496512Y-46962301D01*
X154489789Y-46961728D01*
X154484481Y-46960668D01*
X154481708Y-46959736D01*
X154471945Y-46954888D01*
X154463377Y-46948167D01*
X154456265Y-46939922D01*
X154450869Y-46930499D01*
X154447449Y-46920248D01*
X154446265Y-46909517D01*
X154446417Y-46905469D01*
X154448435Y-46894176D01*
X154452681Y-46883774D01*
X154458999Y-46874510D01*
X154467236Y-46866629D01*
X154477235Y-46860378D01*
X154479782Y-46859130D01*
X154483454Y-46857484D01*
X154486617Y-46856467D01*
X154490024Y-46855928D01*
X154494427Y-46855716D01*
X154500577Y-46855679D01*
X154502893Y-46855682D01*
G37*
G36*
X151049147Y-69721715D02*
G01*
X151441047Y-69732870D01*
X151876522Y-69752645D01*
X152369639Y-69781446D01*
X152934468Y-69819676D01*
X153585078Y-69867741D01*
X154335537Y-69926047D01*
X154489917Y-69937662D01*
X154621953Y-69955182D01*
X154695345Y-69992499D01*
X154712860Y-70066711D01*
X154677265Y-70194911D01*
X154591326Y-70394194D01*
X154457809Y-70681657D01*
X154208259Y-71166536D01*
X153741466Y-71876227D01*
X153191915Y-72512433D01*
X152566582Y-73069963D01*
X151872443Y-73543628D01*
X151116474Y-73928238D01*
X150305651Y-74218602D01*
X149446950Y-74409531D01*
X149373318Y-74418517D01*
X149148953Y-74432075D01*
X148858898Y-74438216D01*
X148533157Y-74437455D01*
X148201733Y-74430306D01*
X147894630Y-74417284D01*
X147641852Y-74398904D01*
X147473403Y-74375680D01*
X147380758Y-74347989D01*
X147348381Y-74292328D01*
X147380205Y-74172618D01*
X147403255Y-74088694D01*
X147414271Y-73790826D01*
X147338386Y-73434676D01*
X147177374Y-73030234D01*
X147062007Y-72773280D01*
X146928130Y-72395606D01*
X146875251Y-72098015D01*
X146903440Y-71880799D01*
X146956907Y-71794446D01*
X147086554Y-71654754D01*
X147252008Y-71517887D01*
X147385212Y-71417118D01*
X147496993Y-71320731D01*
X147539942Y-71266610D01*
X147544452Y-71252658D01*
X147597519Y-71161717D01*
X147697698Y-71012340D01*
X147829084Y-70828620D01*
X147909963Y-70717244D01*
X148021267Y-70550305D01*
X148081351Y-70423930D01*
X148103455Y-70305698D01*
X148100818Y-70163187D01*
X148096930Y-70112111D01*
X148091293Y-70024619D01*
X148100710Y-69959569D01*
X148139311Y-69912309D01*
X148221226Y-69878189D01*
X148360587Y-69852557D01*
X148571522Y-69830762D01*
X148868163Y-69808151D01*
X149264640Y-69780073D01*
X149635911Y-69755194D01*
X149994203Y-69735919D01*
X150339793Y-69723644D01*
X150686752Y-69718775D01*
X151049147Y-69721715D01*
G37*
G36*
X143263272Y-69817214D02*
G01*
X143344765Y-69842931D01*
X143425020Y-69922657D01*
X143483466Y-70082646D01*
X143562275Y-70321734D01*
X143752860Y-70738591D01*
X144006781Y-71171792D01*
X144305473Y-71590860D01*
X144630369Y-71965318D01*
X144665639Y-72001728D01*
X144879994Y-72224806D01*
X145098981Y-72455139D01*
X145280257Y-72648229D01*
X145408708Y-72773025D01*
X145629816Y-72961681D01*
X145888134Y-73162649D01*
X146150490Y-73349211D01*
X146414761Y-73533793D01*
X146640785Y-73713012D01*
X146807533Y-73877713D01*
X146937673Y-74048022D01*
X147029939Y-74199699D01*
X147081040Y-74311166D01*
X147077005Y-74353742D01*
X146974348Y-74336133D01*
X146783616Y-74280280D01*
X146538385Y-74195836D01*
X146264915Y-74092745D01*
X145989468Y-73980948D01*
X145738306Y-73870386D01*
X145537690Y-73771002D01*
X144911236Y-73381285D01*
X144262387Y-72862812D01*
X143677474Y-72269508D01*
X143172314Y-71617605D01*
X142762725Y-70923336D01*
X142750532Y-70898696D01*
X142671925Y-70728846D01*
X142581433Y-70520104D01*
X142490729Y-70301157D01*
X142411488Y-70100693D01*
X142355382Y-69947401D01*
X142334086Y-69869967D01*
X142342151Y-69863067D01*
X142429175Y-69845163D01*
X142585910Y-69828916D01*
X142780022Y-69816161D01*
X142979175Y-69808736D01*
X143151037Y-69808475D01*
X143263272Y-69817214D01*
G37*
G36*
X152237689Y-69318996D02*
G01*
X152278649Y-69430451D01*
X152281155Y-69489286D01*
X152253004Y-69527569D01*
X152203293Y-69485500D01*
X152156529Y-69374339D01*
X152148833Y-69300832D01*
X152192529Y-69277816D01*
X152237689Y-69318996D01*
G37*
G36*
X156461940Y-68805137D02*
G01*
X156585598Y-68824038D01*
X156635888Y-68861850D01*
X156634226Y-68875524D01*
X156578681Y-68919057D01*
X156565857Y-68924892D01*
X156534161Y-69004593D01*
X156521474Y-69147886D01*
X156520015Y-69199180D01*
X156500090Y-69325963D01*
X156464266Y-69376715D01*
X156456387Y-69374792D01*
X156421309Y-69307748D01*
X156407059Y-69174694D01*
X156386151Y-69022511D01*
X156321248Y-68939745D01*
X156276469Y-68918743D01*
X156236235Y-68864845D01*
X156293318Y-68822066D01*
X156435663Y-68804643D01*
X156461940Y-68805137D01*
G37*
G36*
X156027216Y-68823946D02*
G01*
X156053526Y-68927511D01*
X156063816Y-69090679D01*
X156059955Y-69193713D01*
X156039242Y-69325264D01*
X156006609Y-69376715D01*
X155973358Y-69355260D01*
X155949401Y-69262300D01*
X155930598Y-69188338D01*
X155834987Y-69147886D01*
X155761024Y-69166690D01*
X155720573Y-69262300D01*
X155709845Y-69328801D01*
X155663365Y-69376715D01*
X155642759Y-69357412D01*
X155616448Y-69253846D01*
X155606158Y-69090679D01*
X155610019Y-68987644D01*
X155630732Y-68856093D01*
X155663365Y-68804643D01*
X155696616Y-68826097D01*
X155720573Y-68919057D01*
X155739376Y-68993020D01*
X155834987Y-69033472D01*
X155908950Y-69014668D01*
X155949401Y-68919057D01*
X155960129Y-68852557D01*
X156006609Y-68804643D01*
X156027216Y-68823946D01*
G37*
G36*
X155290459Y-68807854D02*
G01*
X155350526Y-68836916D01*
X155373580Y-68921352D01*
X155377329Y-69090679D01*
X155375402Y-69231930D01*
X155357966Y-69332042D01*
X155307304Y-69370466D01*
X155205708Y-69376715D01*
X155203573Y-69376710D01*
X155083797Y-69359675D01*
X155034086Y-69319508D01*
X155043767Y-69293191D01*
X155119897Y-69262300D01*
X155159372Y-69255846D01*
X155205708Y-69205093D01*
X155196027Y-69178776D01*
X155119897Y-69147886D01*
X155080422Y-69141432D01*
X155034086Y-69090679D01*
X155043767Y-69064362D01*
X155119897Y-69033472D01*
X155159372Y-69027017D01*
X155205708Y-68976264D01*
X155196027Y-68949947D01*
X155119897Y-68919057D01*
X155080422Y-68912603D01*
X155034086Y-68861850D01*
X155034099Y-68861138D01*
X155085207Y-68821213D01*
X155205708Y-68804643D01*
X155290459Y-68807854D01*
G37*
G36*
X154441209Y-68807524D02*
G01*
X154551670Y-68836551D01*
X154572158Y-68885369D01*
X154490618Y-68939745D01*
X154429384Y-69012466D01*
X154404807Y-69174694D01*
X154404262Y-69202519D01*
X154385277Y-69326393D01*
X154347600Y-69376715D01*
X154334776Y-69370880D01*
X154303080Y-69291179D01*
X154290392Y-69147886D01*
X154288934Y-69096592D01*
X154269009Y-68969808D01*
X154233185Y-68919057D01*
X154219511Y-68917395D01*
X154175978Y-68861850D01*
X154177707Y-68854342D01*
X154243860Y-68819011D01*
X154376203Y-68804643D01*
X154441209Y-68807524D01*
G37*
G36*
X153967756Y-68823946D02*
G01*
X153994066Y-68927511D01*
X154004356Y-69090679D01*
X154000496Y-69193713D01*
X153979783Y-69325264D01*
X153947149Y-69376715D01*
X153926542Y-69357412D01*
X153900232Y-69253846D01*
X153889942Y-69090679D01*
X153893803Y-68987644D01*
X153914516Y-68856093D01*
X153947149Y-68804643D01*
X153967756Y-68823946D01*
G37*
G36*
X153207782Y-68805173D02*
G01*
X153245391Y-68864012D01*
X153261040Y-68990566D01*
X153261417Y-69176490D01*
X153374538Y-69004868D01*
X153479247Y-68874394D01*
X153564131Y-68840451D01*
X153620801Y-68917230D01*
X153649946Y-69104981D01*
X153653876Y-69252738D01*
X153634230Y-69349618D01*
X153582237Y-69376715D01*
X153519674Y-69338818D01*
X153476478Y-69219395D01*
X153455864Y-69062075D01*
X153377685Y-69219395D01*
X153371487Y-69231655D01*
X153283702Y-69357186D01*
X153212119Y-69372875D01*
X153163911Y-69282710D01*
X153146248Y-69090679D01*
X153150109Y-68987644D01*
X153170822Y-68856093D01*
X153203456Y-68804643D01*
X153207782Y-68805173D01*
G37*
G36*
X152631910Y-68891088D02*
G01*
X152654005Y-68916411D01*
X152711702Y-68944348D01*
X152777255Y-68876876D01*
X152838737Y-68814217D01*
X152887561Y-68815605D01*
X152891799Y-68885952D01*
X152839358Y-69001070D01*
X152776611Y-69127086D01*
X152745798Y-69260288D01*
X152734801Y-69328714D01*
X152688591Y-69376715D01*
X152654819Y-69353951D01*
X152631383Y-69259459D01*
X152606056Y-69128091D01*
X152544104Y-68973423D01*
X152521077Y-68924296D01*
X152500061Y-68825366D01*
X152541447Y-68810132D01*
X152631910Y-68891088D01*
G37*
G36*
X151601654Y-69090679D02*
G01*
X151594822Y-69205533D01*
X151568150Y-69325904D01*
X151532552Y-69383919D01*
X151500226Y-69363358D01*
X151483368Y-69247999D01*
X151479496Y-69119282D01*
X151417418Y-69247999D01*
X151359163Y-69330467D01*
X151276259Y-69376715D01*
X151266063Y-69376453D01*
X151226092Y-69349263D01*
X151260368Y-69258644D01*
X151294156Y-69160589D01*
X151255376Y-69058418D01*
X151233590Y-69023657D01*
X151235015Y-68976264D01*
X151372825Y-68976264D01*
X151374487Y-68989938D01*
X151430032Y-69033472D01*
X151443706Y-69031809D01*
X151487239Y-68976264D01*
X151485577Y-68962590D01*
X151430032Y-68919057D01*
X151416358Y-68920719D01*
X151372825Y-68976264D01*
X151235015Y-68976264D01*
X151236686Y-68920681D01*
X151321782Y-68838327D01*
X151465640Y-68804643D01*
X151515926Y-68807104D01*
X151572782Y-68835855D01*
X151596743Y-68920675D01*
X151598349Y-68976264D01*
X151601654Y-69090679D01*
G37*
G36*
X150892061Y-68822187D02*
G01*
X150965886Y-68855681D01*
X151001535Y-68939217D01*
X151018414Y-69104981D01*
X151025230Y-69234961D01*
X151014868Y-69333838D01*
X150965982Y-69371027D01*
X150861095Y-69376715D01*
X150856367Y-69376694D01*
X150736120Y-69359395D01*
X150686338Y-69319508D01*
X150696020Y-69293191D01*
X150772149Y-69262300D01*
X150811625Y-69255846D01*
X150857960Y-69205093D01*
X150848279Y-69178776D01*
X150772149Y-69147886D01*
X150732674Y-69141432D01*
X150686338Y-69090679D01*
X150696020Y-69064362D01*
X150772149Y-69033472D01*
X150811625Y-69027017D01*
X150857960Y-68976264D01*
X150848279Y-68949947D01*
X150772149Y-68919057D01*
X150732613Y-68912152D01*
X150686338Y-68858050D01*
X150730203Y-68820941D01*
X150843658Y-68815145D01*
X150892061Y-68822187D01*
G37*
G36*
X150420909Y-68823946D02*
G01*
X150447219Y-68927511D01*
X150457510Y-69090679D01*
X150456155Y-69205472D01*
X150441716Y-69320113D01*
X150399371Y-69367441D01*
X150314492Y-69376715D01*
X150220430Y-69362512D01*
X150171474Y-69319508D01*
X150181155Y-69293191D01*
X150257284Y-69262300D01*
X150281954Y-69258147D01*
X150328925Y-69192583D01*
X150343095Y-69033472D01*
X150344554Y-68982177D01*
X150364479Y-68855394D01*
X150400302Y-68804643D01*
X150420909Y-68823946D01*
G37*
G36*
X149960094Y-68915163D02*
G01*
X149988685Y-69109452D01*
X149992512Y-69261885D01*
X149971555Y-69352164D01*
X149917176Y-69376715D01*
X149866354Y-69354919D01*
X149836592Y-69265705D01*
X149828230Y-69085911D01*
X149836345Y-68944060D01*
X149869652Y-68830373D01*
X149915659Y-68821439D01*
X149960094Y-68915163D01*
G37*
G36*
X149606610Y-69207631D02*
G01*
X149642210Y-69305206D01*
X149637371Y-69362007D01*
X149579421Y-69372216D01*
X149513591Y-69319508D01*
X149510305Y-69314599D01*
X149422568Y-69267330D01*
X149311294Y-69274844D01*
X149240154Y-69333809D01*
X149224960Y-69360790D01*
X149172220Y-69365988D01*
X149159503Y-69288093D01*
X149189048Y-69152586D01*
X149206464Y-69105953D01*
X149340892Y-69105953D01*
X149372368Y-69147886D01*
X149397841Y-69138219D01*
X149427780Y-69062075D01*
X149425295Y-69022979D01*
X149405297Y-68976264D01*
X149390490Y-68986804D01*
X149349885Y-69062075D01*
X149340892Y-69105953D01*
X149206464Y-69105953D01*
X149245575Y-69001226D01*
X149313553Y-68875550D01*
X149377453Y-68817092D01*
X149387328Y-68816225D01*
X149464377Y-68870039D01*
X149538117Y-69017317D01*
X149551977Y-69055993D01*
X149554168Y-69062075D01*
X149606610Y-69207631D01*
G37*
G36*
X148912915Y-69086879D02*
G01*
X148911242Y-69205093D01*
X148910818Y-69235025D01*
X148892917Y-69333294D01*
X148841660Y-69370748D01*
X148739498Y-69376715D01*
X148669517Y-69373007D01*
X148567139Y-69330317D01*
X148537273Y-69234567D01*
X148650101Y-69234567D01*
X148709314Y-69262300D01*
X148751936Y-69255299D01*
X148798501Y-69205093D01*
X148796960Y-69191520D01*
X148744670Y-69147886D01*
X148728620Y-69150068D01*
X148655483Y-69205093D01*
X148650101Y-69234567D01*
X148537273Y-69234567D01*
X148533913Y-69223795D01*
X148559357Y-69033472D01*
X148574440Y-68976264D01*
X148684086Y-68976264D01*
X148685749Y-68989938D01*
X148741293Y-69033472D01*
X148754967Y-69031809D01*
X148798501Y-68976264D01*
X148796838Y-68962590D01*
X148741293Y-68919057D01*
X148727619Y-68920719D01*
X148684086Y-68976264D01*
X148574440Y-68976264D01*
X148581755Y-68948521D01*
X148643995Y-68851348D01*
X148757630Y-68815145D01*
X148834144Y-68809700D01*
X148888342Y-68833351D01*
X148909381Y-68916612D01*
X148910619Y-68976264D01*
X148912915Y-69086879D01*
G37*
G36*
X148323768Y-68905809D02*
G01*
X148340843Y-69085911D01*
X148338528Y-69243994D01*
X148319255Y-69337059D01*
X148264296Y-69370987D01*
X148154920Y-69374895D01*
X148050205Y-69370409D01*
X148014003Y-69349636D01*
X148064644Y-69300344D01*
X148067860Y-69297799D01*
X148138970Y-69189395D01*
X148179059Y-69034835D01*
X148191647Y-68946405D01*
X148233669Y-68831162D01*
X148282876Y-68819261D01*
X148323768Y-68905809D01*
G37*
G36*
X147739107Y-68807854D02*
G01*
X147799174Y-68836916D01*
X147822229Y-68921352D01*
X147825978Y-69090679D01*
X147823999Y-69234281D01*
X147806217Y-69333093D01*
X147754564Y-69370730D01*
X147650980Y-69376715D01*
X147644993Y-69376687D01*
X147533693Y-69360023D01*
X147511338Y-69319508D01*
X147531731Y-69297165D01*
X147629129Y-69262300D01*
X147665473Y-69256403D01*
X147711564Y-69205093D01*
X147701882Y-69178776D01*
X147625753Y-69147886D01*
X147586277Y-69141432D01*
X147539942Y-69090679D01*
X147549623Y-69064362D01*
X147625753Y-69033472D01*
X147665228Y-69027017D01*
X147711564Y-68976264D01*
X147690109Y-68943014D01*
X147597149Y-68919057D01*
X147530649Y-68908330D01*
X147482735Y-68861850D01*
X147482748Y-68861138D01*
X147533855Y-68821213D01*
X147654356Y-68804643D01*
X147739107Y-68807854D01*
G37*
G36*
X146931270Y-68823946D02*
G01*
X146957580Y-68927511D01*
X146967870Y-69090679D01*
X146964009Y-69193713D01*
X146943296Y-69325264D01*
X146910663Y-69376715D01*
X146877412Y-69355260D01*
X146853456Y-69262300D01*
X146834652Y-69188338D01*
X146739041Y-69147886D01*
X146665078Y-69166690D01*
X146624627Y-69262300D01*
X146613899Y-69328801D01*
X146567420Y-69376715D01*
X146546813Y-69357412D01*
X146520502Y-69253846D01*
X146510212Y-69090679D01*
X146514073Y-68987644D01*
X146534786Y-68856093D01*
X146567420Y-68804643D01*
X146600670Y-68826097D01*
X146624627Y-68919057D01*
X146643430Y-68993020D01*
X146739041Y-69033472D01*
X146813004Y-69014668D01*
X146853456Y-68919057D01*
X146864183Y-68852557D01*
X146910663Y-68804643D01*
X146931270Y-68823946D01*
G37*
G36*
X146230954Y-69107558D02*
G01*
X146252919Y-69164341D01*
X146297334Y-69298808D01*
X146296330Y-69361359D01*
X146251824Y-69376715D01*
X146213237Y-69370417D01*
X146166969Y-69319508D01*
X146145514Y-69286257D01*
X146052555Y-69262300D01*
X145986054Y-69273028D01*
X145938140Y-69319508D01*
X145928459Y-69345824D01*
X145852329Y-69376715D01*
X145831408Y-69376675D01*
X145784774Y-69368975D01*
X145775978Y-69330557D01*
X145807279Y-69236543D01*
X145868858Y-69090679D01*
X145995347Y-69090679D01*
X145997010Y-69104353D01*
X146052555Y-69147886D01*
X146066229Y-69146224D01*
X146109762Y-69090679D01*
X146108099Y-69077005D01*
X146052555Y-69033472D01*
X146038881Y-69035134D01*
X145995347Y-69090679D01*
X145868858Y-69090679D01*
X145880942Y-69062054D01*
X145927420Y-68965735D01*
X146003071Y-68851978D01*
X146060297Y-68816758D01*
X146089423Y-68841068D01*
X146158096Y-68948496D01*
X146223223Y-69090679D01*
X146230954Y-69107558D01*
G37*
G36*
X145594897Y-69090679D02*
G01*
X145594897Y-69205093D01*
X145594897Y-69376715D01*
X145392880Y-69376715D01*
X145346364Y-69376481D01*
X145239427Y-69362575D01*
X145201483Y-69302455D01*
X145202122Y-69205093D01*
X145308861Y-69205093D01*
X145318542Y-69231410D01*
X145394672Y-69262300D01*
X145434147Y-69255846D01*
X145480483Y-69205093D01*
X145470801Y-69178776D01*
X145394672Y-69147886D01*
X145355196Y-69154340D01*
X145308861Y-69205093D01*
X145202122Y-69205093D01*
X145202404Y-69162188D01*
X145203542Y-69143086D01*
X145233181Y-68976264D01*
X145366068Y-68976264D01*
X145367731Y-68989938D01*
X145423275Y-69033472D01*
X145436949Y-69031809D01*
X145480483Y-68976264D01*
X145478820Y-68962590D01*
X145423275Y-68919057D01*
X145409601Y-68920719D01*
X145366068Y-68976264D01*
X145233181Y-68976264D01*
X145238908Y-68944031D01*
X145320066Y-68836732D01*
X145458884Y-68804643D01*
X145509170Y-68807104D01*
X145566025Y-68835855D01*
X145589986Y-68920675D01*
X145591592Y-68976264D01*
X145594897Y-69090679D01*
G37*
G36*
X144562841Y-68805137D02*
G01*
X144686499Y-68824038D01*
X144736789Y-68861850D01*
X144735126Y-68875524D01*
X144679582Y-68919057D01*
X144666758Y-68924892D01*
X144635062Y-69004593D01*
X144622374Y-69147886D01*
X144620817Y-69213672D01*
X144596231Y-69338929D01*
X144536564Y-69376715D01*
X144511894Y-69372562D01*
X144464923Y-69306998D01*
X144450753Y-69147886D01*
X144449294Y-69096592D01*
X144429369Y-68969808D01*
X144393546Y-68919057D01*
X144379872Y-68917395D01*
X144336338Y-68861850D01*
X144338068Y-68854342D01*
X144404221Y-68819011D01*
X144536564Y-68804643D01*
X144562841Y-68805137D01*
G37*
G36*
X144164717Y-69090679D02*
G01*
X144160856Y-69193713D01*
X144140143Y-69325264D01*
X144107510Y-69376715D01*
X144071589Y-69348496D01*
X144049030Y-69247999D01*
X144047758Y-69119282D01*
X143938528Y-69261446D01*
X143932428Y-69269235D01*
X143845979Y-69350989D01*
X143786295Y-69360605D01*
X143773491Y-69331926D01*
X143806886Y-69254005D01*
X143840857Y-69194480D01*
X143806514Y-69087983D01*
X143790718Y-69056907D01*
X143791107Y-69005738D01*
X143901903Y-69005738D01*
X143961115Y-69033472D01*
X144003738Y-69026470D01*
X144050302Y-68976264D01*
X144048762Y-68962691D01*
X143996471Y-68919057D01*
X143980421Y-68921239D01*
X143907284Y-68976264D01*
X143901903Y-69005738D01*
X143791107Y-69005738D01*
X143791637Y-68935925D01*
X143878479Y-68842254D01*
X144028704Y-68804643D01*
X144078989Y-68807104D01*
X144135845Y-68835855D01*
X144159806Y-68920675D01*
X144161412Y-68976264D01*
X144164717Y-69090679D01*
G37*
G36*
X143507206Y-69118759D02*
G01*
X143568032Y-69256302D01*
X143592645Y-69352854D01*
X143576844Y-69375002D01*
X143511317Y-69367658D01*
X143449627Y-69319508D01*
X143412747Y-69288569D01*
X143303233Y-69262300D01*
X143239957Y-69272567D01*
X143192194Y-69319508D01*
X143182853Y-69345522D01*
X143107339Y-69376715D01*
X143089860Y-69375640D01*
X143057939Y-69348980D01*
X143070084Y-69267860D01*
X143122734Y-69122659D01*
X143249401Y-69122659D01*
X143250889Y-69128368D01*
X143306609Y-69147886D01*
X143322289Y-69145558D01*
X143363816Y-69087303D01*
X143359324Y-69066611D01*
X143306609Y-69062075D01*
X143289489Y-69073817D01*
X143249401Y-69122659D01*
X143122734Y-69122659D01*
X143128210Y-69107558D01*
X143168942Y-69012828D01*
X143242011Y-68878729D01*
X143298866Y-68816758D01*
X143302593Y-68816308D01*
X143354971Y-68863150D01*
X143429680Y-68975838D01*
X143490143Y-69087303D01*
X143507206Y-69118759D01*
G37*
G36*
X142632767Y-68806366D02*
G01*
X142753353Y-68862530D01*
X142860132Y-68966355D01*
X142906158Y-69074702D01*
X142895783Y-69139580D01*
X142846938Y-69266061D01*
X142798807Y-69320946D01*
X142663946Y-69372314D01*
X142509919Y-69361501D01*
X142387454Y-69286277D01*
X142383886Y-69281955D01*
X142351157Y-69228213D01*
X142391262Y-69215108D01*
X142523467Y-69235437D01*
X142557046Y-69241627D01*
X142677604Y-69254452D01*
X142725792Y-69220997D01*
X142734537Y-69123854D01*
X142734331Y-69112098D01*
X142691757Y-68980763D01*
X142595470Y-68930540D01*
X142474993Y-68978016D01*
X142418226Y-69011495D01*
X142347095Y-69008343D01*
X142344252Y-68967024D01*
X142406094Y-68895974D01*
X142507898Y-68832266D01*
X142612250Y-68804643D01*
X142632767Y-68806366D01*
G37*
G36*
X142110789Y-68818106D02*
G01*
X142147686Y-68917384D01*
X142162465Y-69090679D01*
X142156973Y-69240075D01*
X142130617Y-69346093D01*
X142076654Y-69376715D01*
X142032943Y-69363422D01*
X141990843Y-69282038D01*
X141987907Y-69236558D01*
X141958789Y-69224307D01*
X141876078Y-69291221D01*
X141826476Y-69330773D01*
X141740048Y-69361993D01*
X141721445Y-69313672D01*
X141790300Y-69205444D01*
X141849892Y-69133728D01*
X141859995Y-69065967D01*
X141790300Y-68975914D01*
X141731113Y-68886385D01*
X141729151Y-68818594D01*
X141788741Y-68825415D01*
X141875057Y-68903318D01*
X141942571Y-68981661D01*
X141981621Y-68991629D01*
X142007795Y-68917619D01*
X142015260Y-68891525D01*
X142062928Y-68805325D01*
X142110789Y-68818106D01*
G37*
G36*
X141389107Y-68807854D02*
G01*
X141449174Y-68836916D01*
X141472229Y-68921352D01*
X141475978Y-69090679D01*
X141474051Y-69231930D01*
X141456614Y-69332042D01*
X141405952Y-69370466D01*
X141304356Y-69376715D01*
X141302221Y-69376710D01*
X141182446Y-69359675D01*
X141132735Y-69319508D01*
X141154189Y-69286257D01*
X141247149Y-69262300D01*
X141313650Y-69251573D01*
X141361564Y-69205093D01*
X141351882Y-69178776D01*
X141275753Y-69147886D01*
X141236277Y-69141432D01*
X141189942Y-69090679D01*
X141199623Y-69064362D01*
X141275753Y-69033472D01*
X141315228Y-69027017D01*
X141361564Y-68976264D01*
X141340109Y-68943014D01*
X141247149Y-68919057D01*
X141180649Y-68908330D01*
X141132735Y-68861850D01*
X141132748Y-68861138D01*
X141183855Y-68821213D01*
X141304356Y-68804643D01*
X141389107Y-68807854D01*
G37*
G36*
X140949946Y-69104981D02*
G01*
X140953672Y-69263122D01*
X140932493Y-69352467D01*
X140878437Y-69376715D01*
X140830868Y-69361289D01*
X140787672Y-69276602D01*
X140785949Y-69231824D01*
X140768255Y-69207793D01*
X140709857Y-69276602D01*
X140654158Y-69332749D01*
X140576026Y-69373749D01*
X140527681Y-69366502D01*
X140542985Y-69305206D01*
X140546153Y-69299843D01*
X140576707Y-69189662D01*
X140589266Y-69033472D01*
X140593163Y-68976264D01*
X140675077Y-68976264D01*
X140676740Y-68989938D01*
X140732284Y-69033472D01*
X140745958Y-69031809D01*
X140789492Y-68976264D01*
X140787829Y-68962590D01*
X140732284Y-68919057D01*
X140718610Y-68920719D01*
X140675077Y-68976264D01*
X140593163Y-68976264D01*
X140598288Y-68901023D01*
X140645582Y-68844408D01*
X140760888Y-68833246D01*
X140831380Y-68835384D01*
X140902005Y-68861206D01*
X140934527Y-68941011D01*
X140937842Y-68976264D01*
X140949946Y-69104981D01*
G37*
G36*
X157036338Y-66401940D02*
G01*
X157036338Y-66687976D01*
X156693095Y-66687976D01*
X156349852Y-66687976D01*
X156349852Y-67603291D01*
X156349852Y-68518607D01*
X156035212Y-68518607D01*
X155720573Y-68518607D01*
X155720573Y-67603291D01*
X155720573Y-66687976D01*
X155377329Y-66687976D01*
X155034086Y-66687976D01*
X155034086Y-66401940D01*
X155034086Y-66115904D01*
X156035212Y-66115904D01*
X157036338Y-66115904D01*
X157036338Y-66401940D01*
G37*
G36*
X151614195Y-66812340D02*
G01*
X151630257Y-67508776D01*
X152087915Y-66813435D01*
X152545573Y-66118094D01*
X152845910Y-66116999D01*
X153146248Y-66115904D01*
X153146248Y-67320245D01*
X153146248Y-68524586D01*
X152845910Y-68507294D01*
X152545573Y-68490003D01*
X152516969Y-67850403D01*
X152488365Y-67210804D01*
X152059311Y-67863657D01*
X151630257Y-68516511D01*
X151329920Y-68517559D01*
X151029582Y-68518607D01*
X151029582Y-67317255D01*
X151029582Y-66115904D01*
X151313857Y-66115904D01*
X151598132Y-66115904D01*
X151614195Y-66812340D01*
G37*
G36*
X150471811Y-66127216D02*
G01*
X150772149Y-66144508D01*
X150764974Y-66548320D01*
X150757483Y-66703779D01*
X150722915Y-66952951D01*
X150666916Y-67127880D01*
X150654181Y-67151168D01*
X150541538Y-67305756D01*
X150396691Y-67451846D01*
X150251664Y-67560628D01*
X150138481Y-67603291D01*
X150107695Y-67614550D01*
X150077312Y-67680847D01*
X150061560Y-67823319D01*
X150057059Y-68060949D01*
X150057059Y-68518607D01*
X149742420Y-68518607D01*
X149427780Y-68518607D01*
X149427780Y-68060949D01*
X149425074Y-67859235D01*
X149412477Y-67703528D01*
X149386095Y-67624971D01*
X149342134Y-67603291D01*
X149247918Y-67572276D01*
X149104478Y-67466840D01*
X148955427Y-67314313D01*
X148828387Y-67143641D01*
X148750975Y-66983766D01*
X148728685Y-66890859D01*
X148696667Y-66667784D01*
X148684086Y-66438208D01*
X148684086Y-66115904D01*
X148998726Y-66115904D01*
X149313365Y-66115904D01*
X149313365Y-66497548D01*
X149314580Y-66586453D01*
X149340915Y-66830484D01*
X149410193Y-66984637D01*
X149533690Y-67065192D01*
X149722682Y-67088426D01*
X149761521Y-67087749D01*
X149956309Y-67050690D01*
X150082705Y-66947066D01*
X150150996Y-66763036D01*
X150171474Y-66484761D01*
X150171474Y-66109925D01*
X150471811Y-66127216D01*
G37*
G36*
X148110171Y-66926131D02*
G01*
X148177082Y-67023233D01*
X148327454Y-67248476D01*
X148425066Y-67413493D01*
X148481029Y-67541989D01*
X148506458Y-67657670D01*
X148512465Y-67784239D01*
X148512465Y-68060949D01*
X148026203Y-68060949D01*
X147539942Y-68060949D01*
X147539942Y-68289778D01*
X147539942Y-68518607D01*
X147253906Y-68518607D01*
X146967870Y-68518607D01*
X146967870Y-68289778D01*
X146967422Y-68222256D01*
X146952813Y-68110650D01*
X146895842Y-68067877D01*
X146767645Y-68060949D01*
X146681793Y-68059530D01*
X146601760Y-68037550D01*
X146571882Y-67963873D01*
X146567420Y-67807141D01*
X146568351Y-67714898D01*
X146584341Y-67602614D01*
X146638337Y-67553990D01*
X146753343Y-67535407D01*
X146854874Y-67519064D01*
X146929457Y-67462614D01*
X146957193Y-67331557D01*
X146968895Y-67240836D01*
X147003463Y-67174882D01*
X147089123Y-67149680D01*
X147257531Y-67145634D01*
X147539942Y-67145634D01*
X147539942Y-67345859D01*
X147546828Y-67465115D01*
X147586964Y-67531471D01*
X147684973Y-67546084D01*
X147717563Y-67545819D01*
X147771884Y-67538232D01*
X147791714Y-67509199D01*
X147770811Y-67444276D01*
X147702932Y-67329017D01*
X147581833Y-67148981D01*
X147401272Y-66889721D01*
X147316961Y-66767576D01*
X147196174Y-66585973D01*
X147113154Y-66452310D01*
X147082284Y-66389158D01*
X147109710Y-66371018D01*
X147223324Y-66352079D01*
X147395080Y-66344733D01*
X147707877Y-66344733D01*
X148110171Y-66926131D01*
G37*
G36*
X146281383Y-67317255D02*
G01*
X146281383Y-68518607D01*
X145995347Y-68518607D01*
X145709311Y-68518607D01*
X145709311Y-68060949D01*
X145709311Y-67603291D01*
X145223050Y-67603291D01*
X144736789Y-67603291D01*
X144736789Y-67317255D01*
X144736789Y-67031219D01*
X145223050Y-67031219D01*
X145709311Y-67031219D01*
X145709311Y-66859598D01*
X145709311Y-66687976D01*
X145108636Y-66687976D01*
X144507960Y-66687976D01*
X144507960Y-66401940D01*
X144507960Y-66115904D01*
X145394672Y-66115904D01*
X146281383Y-66115904D01*
X146281383Y-67317255D01*
G37*
G36*
X143476579Y-66123057D02*
G01*
X143705424Y-66143333D01*
X143860655Y-66176751D01*
X143870727Y-66180723D01*
X144027022Y-66268087D01*
X144179019Y-66387679D01*
X144182713Y-66391216D01*
X144279621Y-66506076D01*
X144325049Y-66636380D01*
X144336338Y-66830994D01*
X144336318Y-66842964D01*
X144324034Y-67032129D01*
X144277352Y-67158710D01*
X144179019Y-67270959D01*
X144089049Y-67350306D01*
X143938018Y-67453536D01*
X143758345Y-67529611D01*
X143507595Y-67599282D01*
X143434865Y-67617926D01*
X143226171Y-67689801D01*
X143112299Y-67770845D01*
X143077780Y-67870831D01*
X143084920Y-67894985D01*
X143133994Y-67922744D01*
X143244742Y-67938570D01*
X143434689Y-67944408D01*
X143721361Y-67942200D01*
X144364942Y-67931662D01*
X144382955Y-68176559D01*
X144383594Y-68185679D01*
X144376200Y-68373174D01*
X144325748Y-68469155D01*
X144223447Y-68496833D01*
X144036564Y-68513370D01*
X143797510Y-68518601D01*
X143537434Y-68513190D01*
X143287481Y-68497799D01*
X143078797Y-68473091D01*
X142942530Y-68439728D01*
X142705252Y-68287517D01*
X142556593Y-68068005D01*
X142505708Y-67791401D01*
X142530426Y-67603824D01*
X142644018Y-67397568D01*
X142855085Y-67237596D01*
X143169435Y-67118019D01*
X143371999Y-67060401D01*
X143574542Y-66993821D01*
X143694215Y-66936747D01*
X143747942Y-66880415D01*
X143752650Y-66816063D01*
X143737850Y-66779180D01*
X143689446Y-66746931D01*
X143588784Y-66728474D01*
X143415168Y-66720515D01*
X143147901Y-66719756D01*
X142562915Y-66722932D01*
X142562915Y-66455172D01*
X142564084Y-66354749D01*
X142580537Y-66237893D01*
X142632905Y-66181798D01*
X142741688Y-66151658D01*
X142749795Y-66150076D01*
X142958621Y-66125528D01*
X143214264Y-66116822D01*
X143476579Y-66123057D01*
G37*
G36*
X141947938Y-66127216D02*
G01*
X142248275Y-66144508D01*
X142263857Y-67258362D01*
X142264297Y-67290727D01*
X142267452Y-67637018D01*
X142267535Y-67944537D01*
X142264746Y-68194378D01*
X142259285Y-68367638D01*
X142251350Y-68445412D01*
X142239406Y-68462475D01*
X142132895Y-68503870D01*
X141937503Y-68518607D01*
X141651743Y-68518607D01*
X141635369Y-67980568D01*
X141618996Y-67442529D01*
X141244355Y-67966266D01*
X140869714Y-68490003D01*
X140514963Y-68507035D01*
X140347606Y-68510597D01*
X140212167Y-68503516D01*
X140160212Y-68486497D01*
X140179861Y-68447407D01*
X140255124Y-68331266D01*
X140373636Y-68160104D01*
X140521356Y-67954601D01*
X140636292Y-67796590D01*
X140774022Y-67605229D01*
X140876607Y-67460285D01*
X140927732Y-67384639D01*
X140930003Y-67347354D01*
X140877414Y-67215317D01*
X140754404Y-67002321D01*
X140563190Y-66712454D01*
X140153415Y-66115904D01*
X140519966Y-66115904D01*
X140886517Y-66115904D01*
X141267059Y-66670131D01*
X141647600Y-67224357D01*
X141647600Y-66667141D01*
X141647600Y-66109925D01*
X141947938Y-66127216D01*
G37*
G36*
X154182240Y-66162520D02*
G01*
X154394150Y-66216899D01*
X154529088Y-66349175D01*
X154576429Y-66549738D01*
X154570236Y-66630742D01*
X154486007Y-66821903D01*
X154298582Y-66969629D01*
X154287126Y-66976516D01*
X154243528Y-67029094D01*
X154215284Y-67130381D01*
X154198365Y-67302264D01*
X154188746Y-67566627D01*
X154187224Y-67682307D01*
X154192429Y-67913269D01*
X154208374Y-68075724D01*
X154233304Y-68146833D01*
X154269345Y-68200659D01*
X154290392Y-68321758D01*
X154289898Y-68344759D01*
X154256485Y-68437531D01*
X154147374Y-68461399D01*
X154121018Y-68460795D01*
X154027984Y-68427247D01*
X154004356Y-68318381D01*
X154018502Y-68224322D01*
X154061336Y-68175363D01*
X154073697Y-68164810D01*
X154095800Y-68065313D01*
X154108014Y-67873039D01*
X154109095Y-67602875D01*
X154099876Y-67030387D01*
X153909098Y-66884874D01*
X153849776Y-66833549D01*
X153734006Y-66658690D01*
X153714161Y-66478941D01*
X153781961Y-66319433D01*
X153929125Y-66205299D01*
X154147374Y-66161670D01*
X154182240Y-66162520D01*
G37*
G36*
X151421443Y-62263611D02*
G01*
X152173726Y-62694033D01*
X152205477Y-62715186D01*
X152699541Y-63095152D01*
X153186589Y-63557922D01*
X153641748Y-64075381D01*
X154040147Y-64619414D01*
X154356914Y-65161906D01*
X154583547Y-65612658D01*
X153350429Y-65592547D01*
X152117311Y-65572435D01*
X152116915Y-65385083D01*
X152106530Y-65281577D01*
X152062871Y-65082082D01*
X151996777Y-64870218D01*
X151946092Y-64727444D01*
X151871834Y-64504975D01*
X151818400Y-64328978D01*
X151805077Y-64284359D01*
X151757936Y-64172815D01*
X151718921Y-64140492D01*
X151706042Y-64108837D01*
X151698976Y-63991795D01*
X151698851Y-63817506D01*
X151704744Y-63616037D01*
X151715735Y-63417458D01*
X151730901Y-63251836D01*
X151749320Y-63149240D01*
X151800818Y-63104559D01*
X151937950Y-63096315D01*
X152135565Y-63137063D01*
X152371348Y-63224117D01*
X152442807Y-63255405D01*
X152539899Y-63292899D01*
X152558296Y-63282809D01*
X152515589Y-63225277D01*
X152509943Y-63218801D01*
X152407151Y-63128477D01*
X152234870Y-62999473D01*
X152019471Y-62849306D01*
X151787328Y-62695496D01*
X151564815Y-62555560D01*
X151378305Y-62447017D01*
X151254171Y-62387386D01*
X151183708Y-62368861D01*
X151061189Y-62366741D01*
X150896186Y-62401480D01*
X150657623Y-62477788D01*
X150600668Y-62497402D01*
X150367906Y-62574800D01*
X150224040Y-62613863D01*
X150153634Y-62615671D01*
X150141257Y-62581306D01*
X150171474Y-62511850D01*
X150178024Y-62499425D01*
X150199951Y-62431529D01*
X150153671Y-62403480D01*
X150016167Y-62398476D01*
X149824253Y-62430388D01*
X149707575Y-62489372D01*
X149547888Y-62570098D01*
X149543688Y-62572932D01*
X149309017Y-62696254D01*
X149100677Y-62740679D01*
X148979915Y-62747115D01*
X148930143Y-62782645D01*
X148943001Y-62869395D01*
X148982360Y-62956196D01*
X149069506Y-63055318D01*
X149192662Y-63142624D01*
X149319741Y-63248439D01*
X149407044Y-63337391D01*
X149427780Y-63384839D01*
X149350175Y-63446340D01*
X149183108Y-63561544D01*
X148993624Y-63678507D01*
X148810817Y-63780468D01*
X148663779Y-63850666D01*
X148581607Y-63872338D01*
X148551783Y-63862282D01*
X148510812Y-63811175D01*
X148493499Y-63697950D01*
X148493801Y-63496752D01*
X148496086Y-63321304D01*
X148485054Y-63203984D01*
X148452183Y-63152537D01*
X148389928Y-63141129D01*
X148296746Y-63154758D01*
X148151159Y-63209143D01*
X148141766Y-63213995D01*
X147992363Y-63262491D01*
X147813261Y-63288919D01*
X147595169Y-63344256D01*
X147320276Y-63506250D01*
X147290522Y-63528129D01*
X147096248Y-63676304D01*
X146986694Y-63779665D01*
X146953217Y-63855880D01*
X146987171Y-63922618D01*
X147079914Y-63997549D01*
X147154143Y-64059516D01*
X147239694Y-64186932D01*
X147236020Y-64298375D01*
X147139492Y-64371084D01*
X147072695Y-64407424D01*
X147025077Y-64487341D01*
X147031111Y-64517445D01*
X147104006Y-64603116D01*
X147216984Y-64659041D01*
X147315900Y-64654162D01*
X147367459Y-64651085D01*
X147466821Y-64704045D01*
X147557506Y-64793664D01*
X147597149Y-64885149D01*
X147634334Y-64950554D01*
X147737430Y-65027502D01*
X147871210Y-65153938D01*
X147964297Y-65369224D01*
X147997600Y-65644546D01*
X147997600Y-65842601D01*
X147783073Y-65801324D01*
X147526673Y-65756823D01*
X147235983Y-65719086D01*
X146916234Y-65691906D01*
X146546116Y-65673925D01*
X146104317Y-65663782D01*
X145569529Y-65660118D01*
X145464243Y-65659718D01*
X145076504Y-65654727D01*
X144669429Y-65644806D01*
X144259734Y-65630824D01*
X143864136Y-65613648D01*
X143499351Y-65594147D01*
X143182097Y-65573188D01*
X142929089Y-65551638D01*
X142757044Y-65530367D01*
X142682680Y-65510241D01*
X142678062Y-65501232D01*
X142696441Y-65410657D01*
X142768419Y-65246791D01*
X142885126Y-65026640D01*
X143037692Y-64767208D01*
X143217246Y-64485499D01*
X143429487Y-64190968D01*
X143778051Y-63776147D01*
X144168228Y-63372724D01*
X144569824Y-63011368D01*
X144590504Y-62995777D01*
X146658877Y-62995777D01*
X146709747Y-63048256D01*
X146834689Y-63021119D01*
X146981570Y-62943351D01*
X147911789Y-62943351D01*
X147916938Y-62987242D01*
X147972381Y-63043636D01*
X148112014Y-63064294D01*
X148262991Y-63066797D01*
X148412835Y-63047399D01*
X148468045Y-62995156D01*
X148439050Y-62904989D01*
X148423214Y-62877574D01*
X148405280Y-62788169D01*
X148480493Y-62708591D01*
X148580751Y-62657929D01*
X148741293Y-62626264D01*
X148857281Y-62607096D01*
X149002094Y-62536569D01*
X149053433Y-62489372D01*
X149046142Y-62465200D01*
X148959478Y-62462296D01*
X148776239Y-62476050D01*
X148538749Y-62519081D01*
X148303532Y-62601742D01*
X148103265Y-62709396D01*
X147964000Y-62827960D01*
X147911789Y-62943351D01*
X146981570Y-62943351D01*
X147036373Y-62914335D01*
X147317469Y-62727876D01*
X147348139Y-62706331D01*
X147636213Y-62508774D01*
X147854020Y-62371554D01*
X148019573Y-62285154D01*
X148150882Y-62240060D01*
X148265958Y-62226755D01*
X148417778Y-62206374D01*
X148495534Y-62132533D01*
X148484980Y-62010888D01*
X148580813Y-62010888D01*
X148673538Y-62130457D01*
X148676979Y-62132533D01*
X148800892Y-62207282D01*
X148966114Y-62262197D01*
X148971872Y-62263346D01*
X149094060Y-62281092D01*
X149132526Y-62253538D01*
X149113904Y-62162764D01*
X149074458Y-62068006D01*
X148936389Y-61929729D01*
X148730359Y-61882571D01*
X148698483Y-61883733D01*
X148590217Y-61923898D01*
X148580813Y-62010888D01*
X148484980Y-62010888D01*
X148483741Y-61996606D01*
X148411000Y-61896968D01*
X148258617Y-61845734D01*
X148020257Y-61847839D01*
X147687804Y-61902322D01*
X147607980Y-61919621D01*
X147315625Y-61997634D01*
X147113629Y-62084763D01*
X146982393Y-62191654D01*
X146902317Y-62328952D01*
X146883681Y-62375495D01*
X146811914Y-62546737D01*
X146730059Y-62734578D01*
X146679408Y-62863713D01*
X146658877Y-62995777D01*
X144590504Y-62995777D01*
X144952646Y-62722750D01*
X145018000Y-62679742D01*
X145774810Y-62252819D01*
X146561455Y-61932943D01*
X147369249Y-61720149D01*
X148189505Y-61614471D01*
X149013539Y-61615943D01*
X149832664Y-61724601D01*
X150638194Y-61940479D01*
X151397027Y-62253538D01*
X151421443Y-62263611D01*
G37*
G36*
X149427780Y-64699955D02*
G01*
X149427380Y-64727134D01*
X149388740Y-64930031D01*
X149277260Y-65092139D01*
X149079083Y-65227361D01*
X148780352Y-65349602D01*
X148667834Y-65387239D01*
X148514698Y-65426313D01*
X148418262Y-65412948D01*
X148362077Y-65331740D01*
X148329692Y-65167287D01*
X148304657Y-64904185D01*
X148293825Y-64769718D01*
X148290903Y-64690456D01*
X148640421Y-64690456D01*
X148716776Y-64824656D01*
X148774070Y-64872753D01*
X148905854Y-64908735D01*
X149024716Y-64831891D01*
X149052593Y-64790163D01*
X149080145Y-64652614D01*
X149033277Y-64530224D01*
X148924068Y-64466805D01*
X148760848Y-64483085D01*
X148660612Y-64567104D01*
X148640421Y-64690456D01*
X148290903Y-64690456D01*
X148287563Y-64599831D01*
X148304851Y-64488412D01*
X148353764Y-64399982D01*
X148442377Y-64299062D01*
X148446317Y-64294877D01*
X148648052Y-64151011D01*
X148865934Y-64104476D01*
X149076406Y-64145686D01*
X149255908Y-64265059D01*
X149380886Y-64453009D01*
X149418790Y-64652614D01*
X149427780Y-64699955D01*
G37*
G36*
X144276093Y-79637171D02*
G01*
X144395118Y-79650944D01*
X144492114Y-79677812D01*
X144575431Y-79720226D01*
X144653419Y-79780636D01*
X144684608Y-79810317D01*
X144734584Y-79868937D01*
X144774469Y-79935783D01*
X144806406Y-80016879D01*
X144832540Y-80118244D01*
X144855012Y-80245901D01*
X144875967Y-80405871D01*
X144888638Y-80470948D01*
X144924794Y-80541697D01*
X144985810Y-80585946D01*
X145076285Y-80608347D01*
X145181373Y-80621172D01*
X145186648Y-80946355D01*
X145187666Y-81028591D01*
X145187979Y-81128928D01*
X145187160Y-81211559D01*
X145185292Y-81269609D01*
X145182457Y-81296204D01*
X145166439Y-81307377D01*
X145119162Y-81316758D01*
X145050166Y-81320740D01*
X144968537Y-81319245D01*
X144883358Y-81312192D01*
X144803713Y-81299504D01*
X144730425Y-81280552D01*
X144579544Y-81217542D01*
X144446757Y-81128722D01*
X144338159Y-81018661D01*
X144259844Y-80891925D01*
X144248932Y-80865243D01*
X144222376Y-80777905D01*
X144199299Y-80673146D01*
X144182692Y-80565907D01*
X144175550Y-80471132D01*
X144175286Y-80466728D01*
X144155173Y-80419961D01*
X144111784Y-80373631D01*
X144057300Y-80338178D01*
X144003905Y-80324040D01*
X143944921Y-80324040D01*
X143944921Y-79978984D01*
X143944921Y-79633927D01*
X144153587Y-79633927D01*
X144276093Y-79637171D01*
G37*
G36*
X152436687Y-78934283D02*
G01*
X152518141Y-78935772D01*
X152577843Y-78941210D01*
X152627965Y-78953118D01*
X152680676Y-78974015D01*
X152748148Y-79006420D01*
X152784666Y-79025430D01*
X152921333Y-79118499D01*
X153033498Y-79235770D01*
X153124076Y-79380826D01*
X153195980Y-79557248D01*
X153203991Y-79584478D01*
X153211187Y-79617800D01*
X153217127Y-79659155D01*
X153221979Y-79712331D01*
X153225913Y-79781116D01*
X153229098Y-79869299D01*
X153231703Y-79980669D01*
X153233898Y-80119012D01*
X153235852Y-80288119D01*
X153237734Y-80491776D01*
X153244832Y-81320871D01*
X152888914Y-81320871D01*
X152532996Y-81320871D01*
X152531914Y-80568455D01*
X152531777Y-80484575D01*
X152531173Y-80291587D01*
X152529871Y-80132379D01*
X152527444Y-80003656D01*
X152523465Y-79902124D01*
X152517508Y-79824491D01*
X152509147Y-79767461D01*
X152497954Y-79727742D01*
X152483503Y-79702039D01*
X152465367Y-79687058D01*
X152443121Y-79679507D01*
X152416336Y-79676090D01*
X152392134Y-79674109D01*
X152367266Y-79674046D01*
X152346935Y-79679632D01*
X152330631Y-79694137D01*
X152317842Y-79720828D01*
X152308056Y-79762975D01*
X152300763Y-79823845D01*
X152295451Y-79906708D01*
X152291609Y-80014832D01*
X152288725Y-80151485D01*
X152286289Y-80319937D01*
X152283789Y-80523455D01*
X152274204Y-81311286D01*
X151919562Y-81311286D01*
X151564921Y-81311286D01*
X151566161Y-80525323D01*
X151566238Y-80480733D01*
X151566818Y-80287282D01*
X151567846Y-80127313D01*
X151569471Y-79996805D01*
X151571842Y-79891735D01*
X151575107Y-79808079D01*
X151579416Y-79741816D01*
X151584916Y-79688921D01*
X151591756Y-79645373D01*
X151600085Y-79607147D01*
X151619851Y-79537225D01*
X151692876Y-79364698D01*
X151793462Y-79215159D01*
X151919151Y-79091809D01*
X152067490Y-78997848D01*
X152079707Y-78991858D01*
X152137884Y-78965071D01*
X152187125Y-78948180D01*
X152239246Y-78938920D01*
X152306065Y-78935024D01*
X152399398Y-78934229D01*
X152436687Y-78934283D01*
G37*
G36*
X150459680Y-78967534D02*
G01*
X150617601Y-78976005D01*
X150748319Y-78993740D01*
X150857193Y-79021486D01*
X150949586Y-79059990D01*
X151023480Y-79106860D01*
X151115798Y-79187448D01*
X151196124Y-79280462D01*
X151252354Y-79373373D01*
X151262079Y-79395538D01*
X151272106Y-79422474D01*
X151280063Y-79452698D01*
X151286242Y-79490592D01*
X151290932Y-79540537D01*
X151294426Y-79606913D01*
X151297014Y-79694103D01*
X151298988Y-79806488D01*
X151300639Y-79948449D01*
X151302258Y-80124367D01*
X151303267Y-80243815D01*
X151304312Y-80397450D01*
X151304573Y-80520126D01*
X151303845Y-80616302D01*
X151301924Y-80690438D01*
X151298605Y-80746993D01*
X151293683Y-80790426D01*
X151286953Y-80825196D01*
X151278210Y-80855764D01*
X151267250Y-80886588D01*
X151253211Y-80920568D01*
X151177076Y-81044042D01*
X151070534Y-81149459D01*
X150937963Y-81233153D01*
X150783738Y-81291460D01*
X150754861Y-81298060D01*
X150687854Y-81307218D01*
X150597839Y-81312923D01*
X150479737Y-81315438D01*
X150328468Y-81315026D01*
X149973826Y-81311286D01*
X149973826Y-80966229D01*
X149973826Y-80621172D01*
X150276497Y-80611588D01*
X150383939Y-80607773D01*
X150476391Y-80602486D01*
X150540314Y-80594671D01*
X150580959Y-80582681D01*
X150603575Y-80564870D01*
X150613412Y-80539590D01*
X150615721Y-80505195D01*
X150615318Y-80490694D01*
X150608591Y-80463446D01*
X150589557Y-80444173D01*
X150553012Y-80431528D01*
X150493755Y-80424164D01*
X150406583Y-80420734D01*
X150286294Y-80419889D01*
X150002581Y-80419889D01*
X150002581Y-80141927D01*
X150002581Y-79863965D01*
X150250419Y-79863965D01*
X150341686Y-79863107D01*
X150433497Y-79858520D01*
X150495969Y-79848598D01*
X150534187Y-79831812D01*
X150553239Y-79806635D01*
X150558212Y-79771539D01*
X150557791Y-79758143D01*
X150552004Y-79728550D01*
X150535127Y-79707393D01*
X150501712Y-79692928D01*
X150446307Y-79683414D01*
X150363463Y-79677108D01*
X150247730Y-79672267D01*
X149973826Y-79662682D01*
X149973826Y-79317625D01*
X149973826Y-78972569D01*
X150284308Y-78967306D01*
X150459680Y-78967534D01*
G37*
G36*
X147020837Y-79758531D02*
G01*
X147020725Y-79840786D01*
X147020200Y-80026572D01*
X147019213Y-80179582D01*
X147017615Y-80303818D01*
X147015255Y-80403283D01*
X147011984Y-80481978D01*
X147007652Y-80543905D01*
X147002111Y-80593066D01*
X146995209Y-80633463D01*
X146986799Y-80669097D01*
X146924600Y-80848070D01*
X146834447Y-81009325D01*
X146718734Y-81142286D01*
X146576927Y-81247562D01*
X146408492Y-81325758D01*
X146365903Y-81338828D01*
X146300723Y-81350549D01*
X146219451Y-81355441D01*
X146111109Y-81354570D01*
X146016515Y-81351009D01*
X145947360Y-81344514D01*
X145890774Y-81332304D01*
X145833871Y-81311601D01*
X145763766Y-81279621D01*
X145646068Y-81212508D01*
X145507168Y-81096731D01*
X145395413Y-80956150D01*
X145313540Y-80794407D01*
X145264284Y-80615142D01*
X145252490Y-80476748D01*
X145269098Y-80307451D01*
X145317242Y-80144957D01*
X145393731Y-79994180D01*
X145495374Y-79860033D01*
X145618980Y-79747429D01*
X145761359Y-79661280D01*
X145919321Y-79606500D01*
X145985973Y-79593555D01*
X146080361Y-79581645D01*
X146167373Y-79577242D01*
X146237021Y-79580734D01*
X146279312Y-79592509D01*
X146281178Y-79593981D01*
X146289894Y-79612838D01*
X146295746Y-79652770D01*
X146298971Y-79718083D01*
X146299804Y-79813080D01*
X146298482Y-79942064D01*
X146298258Y-79956070D01*
X146295891Y-80074467D01*
X146292894Y-80159889D01*
X146288760Y-80217209D01*
X146282981Y-80251298D01*
X146275053Y-80267028D01*
X146264468Y-80269272D01*
X146177065Y-80254782D01*
X146077553Y-80260529D01*
X146001530Y-80296136D01*
X145948490Y-80361752D01*
X145947869Y-80362961D01*
X145920147Y-80453218D01*
X145930204Y-80539542D01*
X145977724Y-80619159D01*
X146047625Y-80677660D01*
X146127384Y-80701308D01*
X146216810Y-80688179D01*
X146239532Y-80680434D01*
X146266786Y-80668679D01*
X146289202Y-80652767D01*
X146307309Y-80629281D01*
X146321633Y-80594801D01*
X146332702Y-80545911D01*
X146341044Y-80479192D01*
X146347187Y-80391226D01*
X146351658Y-80278594D01*
X146354985Y-80137880D01*
X146357695Y-79965665D01*
X146360317Y-79758531D01*
X146369902Y-78972569D01*
X146695789Y-78972569D01*
X147021675Y-78972569D01*
X147020837Y-79758531D01*
G37*
G36*
X147917087Y-79783923D02*
G01*
X147917090Y-79784424D01*
X147918516Y-79991378D01*
X147920035Y-80163256D01*
X147922095Y-80303314D01*
X147925145Y-80414808D01*
X147929632Y-80500993D01*
X147936005Y-80565125D01*
X147944711Y-80610459D01*
X147956200Y-80640250D01*
X147970918Y-80657753D01*
X147989315Y-80666226D01*
X148011838Y-80668922D01*
X148038936Y-80669097D01*
X148066366Y-80668794D01*
X148090444Y-80665769D01*
X148110112Y-80656783D01*
X148125817Y-80638599D01*
X148138004Y-80607979D01*
X148147120Y-80561684D01*
X148153610Y-80496477D01*
X148157920Y-80409121D01*
X148160496Y-80296376D01*
X148161784Y-80155005D01*
X148162230Y-79981771D01*
X148162279Y-79773435D01*
X148162279Y-78962984D01*
X148507336Y-78962984D01*
X148852392Y-78962984D01*
X148852392Y-79773435D01*
X148852434Y-79972622D01*
X148852851Y-80147463D01*
X148854088Y-80290286D01*
X148856592Y-80404327D01*
X148860809Y-80492825D01*
X148867184Y-80559019D01*
X148876164Y-80606145D01*
X148888194Y-80637442D01*
X148903721Y-80656148D01*
X148923189Y-80665500D01*
X148947045Y-80668737D01*
X148975736Y-80669097D01*
X148975787Y-80669097D01*
X149002873Y-80668919D01*
X149025387Y-80666214D01*
X149043776Y-80657725D01*
X149058491Y-80640198D01*
X149069979Y-80610376D01*
X149078690Y-80565004D01*
X149085073Y-80500828D01*
X149089575Y-80414590D01*
X149092647Y-80303037D01*
X149094736Y-80162912D01*
X149096291Y-79990960D01*
X149097762Y-79783925D01*
X149103510Y-78962107D01*
X149438791Y-78967338D01*
X149774073Y-78972569D01*
X149772943Y-79861163D01*
X149772737Y-79954547D01*
X149771705Y-80150046D01*
X149769937Y-80328143D01*
X149767506Y-80485347D01*
X149764485Y-80618171D01*
X149760946Y-80723124D01*
X149756962Y-80796717D01*
X149752607Y-80835461D01*
X149730549Y-80913030D01*
X149661615Y-81056344D01*
X149563205Y-81178488D01*
X149439154Y-81275229D01*
X149293298Y-81342335D01*
X149278294Y-81345652D01*
X149224101Y-81350894D01*
X149148593Y-81353397D01*
X149063260Y-81352646D01*
X149051437Y-81352281D01*
X148960427Y-81347468D01*
X148893994Y-81338328D01*
X148839748Y-81322388D01*
X148785298Y-81297176D01*
X148731422Y-81266234D01*
X148623751Y-81184995D01*
X148542769Y-81094770D01*
X148512113Y-81050783D01*
X148399357Y-81163539D01*
X148353237Y-81207253D01*
X148252312Y-81282960D01*
X148147201Y-81330300D01*
X148027878Y-81352993D01*
X147884317Y-81354764D01*
X147879220Y-81354517D01*
X147740181Y-81338963D01*
X147626033Y-81304907D01*
X147526297Y-81247937D01*
X147430494Y-81163638D01*
X147387286Y-81115799D01*
X147350286Y-81065046D01*
X147319113Y-81008218D01*
X147293320Y-80942090D01*
X147272464Y-80863441D01*
X147256100Y-80769044D01*
X147243782Y-80655677D01*
X147235065Y-80520114D01*
X147229505Y-80359133D01*
X147226656Y-80169509D01*
X147226074Y-79948018D01*
X147227314Y-79691437D01*
X147232543Y-78972569D01*
X147572030Y-78967337D01*
X147911517Y-78962105D01*
X147917087Y-79783923D01*
G37*
G36*
X143941996Y-45687867D02*
G01*
X143974690Y-45695092D01*
X144009311Y-45705845D01*
X144039947Y-45717692D01*
X144015604Y-45775310D01*
X144005112Y-45798586D01*
X143991871Y-45823325D01*
X143983583Y-45832928D01*
X143975423Y-45828618D01*
X143954237Y-45812618D01*
X143926246Y-45788860D01*
X143899742Y-45764438D01*
X143885993Y-45747005D01*
X143884039Y-45732036D01*
X143890952Y-45713264D01*
X143899397Y-45697475D01*
X143914932Y-45686416D01*
X143941996Y-45687867D01*
G37*
G36*
X146935602Y-45599108D02*
G01*
X146953858Y-45620536D01*
X146979018Y-45654057D01*
X147008022Y-45695752D01*
X147013996Y-45704613D01*
X147042805Y-45747284D01*
X147059566Y-45774988D01*
X147064097Y-45791621D01*
X147056215Y-45801078D01*
X147035738Y-45807254D01*
X147002484Y-45814044D01*
X146998587Y-45814863D01*
X146961822Y-45820704D01*
X146940939Y-45816292D01*
X146930307Y-45797853D01*
X146924299Y-45761612D01*
X146920783Y-45727806D01*
X146917620Y-45675485D01*
X146917836Y-45632729D01*
X146921335Y-45603886D01*
X146928021Y-45593306D01*
X146935602Y-45599108D01*
G37*
G36*
X143910573Y-45897882D02*
G01*
X143942312Y-45909896D01*
X143963881Y-45925805D01*
X143968958Y-45943951D01*
X143968651Y-45945057D01*
X143962380Y-45970991D01*
X143955364Y-46004087D01*
X143954502Y-46008353D01*
X143947873Y-46036455D01*
X143942491Y-46052480D01*
X143938969Y-46054939D01*
X143919949Y-46052959D01*
X143891285Y-46042038D01*
X143859288Y-46025311D01*
X143830270Y-46005911D01*
X143810543Y-45986971D01*
X143809010Y-45984617D01*
X143802431Y-45958144D01*
X143804858Y-45926745D01*
X143815503Y-45903674D01*
X143817561Y-45901812D01*
X143841875Y-45892181D01*
X143874987Y-45891424D01*
X143910573Y-45897882D01*
G37*
G36*
X148621924Y-45892673D02*
G01*
X148689798Y-46102325D01*
X148744733Y-46309523D01*
X148787870Y-46517564D01*
X148797112Y-46571399D01*
X148809239Y-46648708D01*
X148820558Y-46727813D01*
X148830446Y-46803860D01*
X148838281Y-46871992D01*
X148843439Y-46927354D01*
X148845296Y-46965090D01*
X148845296Y-47008220D01*
X148761501Y-47008220D01*
X148677706Y-47008220D01*
X148670278Y-46828503D01*
X148669974Y-46821368D01*
X148665611Y-46742316D01*
X148659430Y-46659189D01*
X148651840Y-46575344D01*
X148643247Y-46494137D01*
X148634058Y-46418924D01*
X148624682Y-46353061D01*
X148615524Y-46299905D01*
X148606993Y-46262812D01*
X148599495Y-46245138D01*
X148594686Y-46242485D01*
X148569367Y-46236584D01*
X148527666Y-46231165D01*
X148474050Y-46226644D01*
X148412984Y-46223433D01*
X148348935Y-46221945D01*
X148324645Y-46221934D01*
X148244735Y-46224337D01*
X148160448Y-46230742D01*
X148070074Y-46241519D01*
X147971901Y-46257037D01*
X147864219Y-46277663D01*
X147745316Y-46303767D01*
X147613482Y-46335717D01*
X147467005Y-46373883D01*
X147389593Y-46395158D01*
X147304175Y-46418633D01*
X147123280Y-46470336D01*
X146922610Y-46529361D01*
X146866155Y-46546065D01*
X146684520Y-46598342D01*
X146519742Y-46643156D01*
X146368444Y-46681241D01*
X146227249Y-46713333D01*
X146092780Y-46740168D01*
X145961662Y-46762480D01*
X145830517Y-46781005D01*
X145695970Y-46796478D01*
X145650384Y-46800912D01*
X145544484Y-46809396D01*
X145435328Y-46815942D01*
X145327237Y-46820433D01*
X145224531Y-46822752D01*
X145131531Y-46822782D01*
X145052558Y-46820407D01*
X144991932Y-46815510D01*
X144982230Y-46814276D01*
X144809257Y-46782401D01*
X144626880Y-46730861D01*
X144436340Y-46660114D01*
X144238876Y-46570617D01*
X144035728Y-46462827D01*
X144019295Y-46453399D01*
X143925202Y-46396647D01*
X143855914Y-46352328D01*
X144520678Y-46352328D01*
X144526739Y-46373142D01*
X144551875Y-46396229D01*
X144597564Y-46416739D01*
X144664921Y-46435313D01*
X144709597Y-46445305D01*
X144777471Y-46459135D01*
X144827679Y-46466103D01*
X144863097Y-46465490D01*
X144886602Y-46456575D01*
X144893108Y-46448509D01*
X145022745Y-46448509D01*
X145022761Y-46449796D01*
X145034120Y-46484273D01*
X145063457Y-46515875D01*
X145106215Y-46539625D01*
X145140957Y-46549421D01*
X145203996Y-46550655D01*
X145262864Y-46531406D01*
X145313960Y-46493162D01*
X145353683Y-46437409D01*
X145376396Y-46377633D01*
X145392011Y-46300131D01*
X145398399Y-46215649D01*
X145395446Y-46131098D01*
X145383039Y-46053390D01*
X145361063Y-45989435D01*
X145345953Y-45963101D01*
X145307568Y-45919901D01*
X145262660Y-45892028D01*
X145248065Y-45888368D01*
X145718792Y-45888368D01*
X145718854Y-45890255D01*
X145727685Y-45919372D01*
X145749038Y-45958883D01*
X145779451Y-46003650D01*
X145815461Y-46048534D01*
X145853603Y-46088397D01*
X145888799Y-46121360D01*
X145866743Y-46164593D01*
X145862708Y-46173087D01*
X145847964Y-46209760D01*
X145845896Y-46215649D01*
X145831167Y-46257598D01*
X145815220Y-46308495D01*
X145814172Y-46312095D01*
X145797155Y-46382130D01*
X145791945Y-46435936D01*
X145798571Y-46476691D01*
X145817062Y-46507569D01*
X145817588Y-46508143D01*
X145847987Y-46526333D01*
X145882885Y-46524631D01*
X145916202Y-46503301D01*
X145920071Y-46498952D01*
X145932151Y-46478459D01*
X145943523Y-46446263D01*
X145955306Y-46398709D01*
X145968620Y-46332142D01*
X145977830Y-46283684D01*
X145987104Y-46239217D01*
X145994817Y-46210857D01*
X146002271Y-46195028D01*
X146010770Y-46188154D01*
X146021615Y-46186657D01*
X146038747Y-46191032D01*
X146052876Y-46207921D01*
X146067402Y-46242260D01*
X146090248Y-46293859D01*
X146123074Y-46345877D01*
X146160190Y-46387997D01*
X146198507Y-46417356D01*
X146234930Y-46431095D01*
X146266368Y-46426351D01*
X146281138Y-46414395D01*
X146287456Y-46395158D01*
X146282938Y-46366396D01*
X146267038Y-46324913D01*
X146239212Y-46267514D01*
X146229299Y-46247819D01*
X146189316Y-46158233D01*
X146161115Y-46072372D01*
X146142272Y-45981538D01*
X146130362Y-45877031D01*
X146127894Y-45848671D01*
X146119948Y-45782599D01*
X146109813Y-45735780D01*
X146096478Y-45705591D01*
X146078930Y-45689403D01*
X146073886Y-45688337D01*
X146245099Y-45688337D01*
X146245723Y-45727370D01*
X146261610Y-45757944D01*
X146266154Y-45762245D01*
X146288434Y-45774259D01*
X146313161Y-45769149D01*
X146345703Y-45746163D01*
X146377269Y-45726253D01*
X146409296Y-45723792D01*
X146440146Y-45742673D01*
X146471961Y-45783528D01*
X146475059Y-45788483D01*
X146518555Y-45876926D01*
X146546780Y-45973342D01*
X146557075Y-46068820D01*
X146556559Y-46096952D01*
X146549155Y-46150550D01*
X146531125Y-46187687D01*
X146500081Y-46212019D01*
X146453637Y-46227198D01*
X146440180Y-46230379D01*
X146406912Y-46243224D01*
X146393899Y-46259480D01*
X146392222Y-46279605D01*
X146404107Y-46319108D01*
X146436098Y-46349373D01*
X146440866Y-46352103D01*
X146477855Y-46366043D01*
X146518011Y-46365987D01*
X146568881Y-46352088D01*
X146601630Y-46336699D01*
X146649098Y-46295157D01*
X146683513Y-46235854D01*
X146704415Y-46159705D01*
X146711345Y-46067627D01*
X146708935Y-46014000D01*
X146694675Y-45921535D01*
X146669150Y-45832596D01*
X146634134Y-45751016D01*
X146591399Y-45680630D01*
X146556528Y-45640975D01*
X146803071Y-45640975D01*
X146803769Y-45689070D01*
X146811529Y-45797000D01*
X146828542Y-45912093D01*
X146855654Y-46040782D01*
X146862245Y-46067627D01*
X146868387Y-46092642D01*
X146880094Y-46132360D01*
X146891744Y-46159644D01*
X146905596Y-46179685D01*
X146923909Y-46197678D01*
X146926451Y-46199875D01*
X146965808Y-46225036D01*
X147001030Y-46231505D01*
X147028729Y-46218607D01*
X147031970Y-46215035D01*
X147040080Y-46198122D01*
X147040799Y-46173106D01*
X147033808Y-46135607D01*
X147018791Y-46081246D01*
X147017349Y-46076364D01*
X147006832Y-46037947D01*
X147000525Y-46009657D01*
X146999747Y-45997316D01*
X147009447Y-45994435D01*
X147036324Y-45990008D01*
X147073521Y-45985498D01*
X147111552Y-45982194D01*
X147134329Y-45983331D01*
X147147224Y-45990565D01*
X147156672Y-46005440D01*
X147163135Y-46016147D01*
X147184694Y-46044883D01*
X147211540Y-46075404D01*
X147238982Y-46099769D01*
X147273572Y-46117303D01*
X147301761Y-46116450D01*
X147320736Y-46097559D01*
X147327686Y-46060980D01*
X147327058Y-46057656D01*
X147318335Y-46035729D01*
X147300618Y-45998258D01*
X147275536Y-45948500D01*
X147244717Y-45889710D01*
X147209788Y-45825143D01*
X147204118Y-45814814D01*
X147165829Y-45744835D01*
X147128638Y-45676523D01*
X147095026Y-45614457D01*
X147067473Y-45563217D01*
X147048461Y-45527381D01*
X147013776Y-45468063D01*
X146976222Y-45421604D01*
X146949273Y-45402853D01*
X147285484Y-45402853D01*
X147292915Y-45454062D01*
X147308962Y-45522781D01*
X147313789Y-45541260D01*
X147332159Y-45608396D01*
X147352949Y-45680500D01*
X147374940Y-45753720D01*
X147396917Y-45824206D01*
X147417661Y-45888107D01*
X147435956Y-45941570D01*
X147450585Y-45980744D01*
X147460331Y-46001779D01*
X147461478Y-46003486D01*
X147484131Y-46027846D01*
X147513729Y-46050232D01*
X147532447Y-46060504D01*
X147534172Y-46060980D01*
X147568518Y-46070456D01*
X147595125Y-46060417D01*
X147613925Y-46030054D01*
X147616301Y-46021506D01*
X147617576Y-45992814D01*
X147612436Y-45949466D01*
X147600550Y-45887943D01*
X147593525Y-45854084D01*
X147585550Y-45812107D01*
X147580876Y-45782609D01*
X147580346Y-45770486D01*
X147593949Y-45762605D01*
X147622096Y-45750474D01*
X147658584Y-45736493D01*
X147697514Y-45722742D01*
X147732984Y-45711301D01*
X147759095Y-45704247D01*
X147769946Y-45703662D01*
X147771340Y-45706684D01*
X147781743Y-45726353D01*
X147799576Y-45758695D01*
X147821983Y-45798505D01*
X147843975Y-45834477D01*
X147888822Y-45890762D01*
X147933903Y-45924431D01*
X147979377Y-45935624D01*
X147989277Y-45935072D01*
X148016475Y-45923852D01*
X148031107Y-45897403D01*
X148033271Y-45854706D01*
X148023066Y-45794743D01*
X148000591Y-45716495D01*
X147997132Y-45705816D01*
X147946143Y-45530798D01*
X147904005Y-45347981D01*
X147890298Y-45293570D01*
X147868557Y-45242852D01*
X147841762Y-45213654D01*
X147809380Y-45205455D01*
X147770876Y-45217732D01*
X147759050Y-45226393D01*
X147735068Y-45259255D01*
X147715678Y-45305794D01*
X147702610Y-45359768D01*
X147697591Y-45414937D01*
X147702352Y-45465058D01*
X147704241Y-45473989D01*
X147707334Y-45506462D01*
X147700097Y-45522995D01*
X147699913Y-45523138D01*
X147683535Y-45531874D01*
X147654854Y-45544216D01*
X147620531Y-45557654D01*
X147587223Y-45569677D01*
X147561593Y-45577777D01*
X147550298Y-45579444D01*
X147550295Y-45579439D01*
X147544617Y-45568430D01*
X147531131Y-45540970D01*
X147511851Y-45501189D01*
X147488789Y-45453221D01*
X147465223Y-45405139D01*
X147443762Y-45365466D01*
X147425961Y-45339292D01*
X147409010Y-45322578D01*
X147390100Y-45311283D01*
X147382811Y-45307842D01*
X147358566Y-45298768D01*
X147341005Y-45301121D01*
X147319035Y-45315569D01*
X147316673Y-45317368D01*
X147297183Y-45338200D01*
X147286846Y-45365464D01*
X147285484Y-45402853D01*
X146949273Y-45402853D01*
X146939370Y-45395963D01*
X146902176Y-45390163D01*
X146867229Y-45402033D01*
X146838872Y-45432330D01*
X146818947Y-45481696D01*
X146807123Y-45550966D01*
X146803071Y-45640975D01*
X146556528Y-45640975D01*
X146542719Y-45625271D01*
X146489867Y-45588773D01*
X146464642Y-45579612D01*
X146411322Y-45571506D01*
X146356830Y-45574213D01*
X146311769Y-45587793D01*
X146281920Y-45611089D01*
X146257808Y-45647394D01*
X146245099Y-45688337D01*
X146073886Y-45688337D01*
X146056156Y-45684590D01*
X146055808Y-45684592D01*
X146027672Y-45694689D01*
X146015845Y-45705320D01*
X145997863Y-45721484D01*
X145992314Y-45728142D01*
X145980213Y-45744779D01*
X145973140Y-45762002D01*
X145970181Y-45785360D01*
X145970423Y-45820401D01*
X145972950Y-45872674D01*
X145974885Y-45903621D01*
X145979000Y-45951497D01*
X145983613Y-45988951D01*
X145988045Y-46009793D01*
X145986356Y-46012935D01*
X145971807Y-46004570D01*
X145946068Y-45984242D01*
X145912100Y-45954123D01*
X145875978Y-45921876D01*
X145819886Y-45877880D01*
X145775935Y-45852469D01*
X145744312Y-45845704D01*
X145725203Y-45857649D01*
X145718792Y-45888368D01*
X145248065Y-45888368D01*
X145215194Y-45880125D01*
X145169135Y-45884834D01*
X145128451Y-45906798D01*
X145109430Y-45930989D01*
X145097107Y-45946661D01*
X145084591Y-45976452D01*
X145080585Y-46010390D01*
X145092348Y-46030464D01*
X145118203Y-46034582D01*
X145156470Y-46020653D01*
X145157196Y-46020263D01*
X145184642Y-46007483D01*
X145204044Y-46006423D01*
X145226297Y-46016422D01*
X145246229Y-46030635D01*
X145271218Y-46065175D01*
X145285219Y-46114902D01*
X145289346Y-46182761D01*
X145289330Y-46185065D01*
X145286402Y-46238939D01*
X145276991Y-46282186D01*
X145258652Y-46326243D01*
X145254961Y-46333653D01*
X145227233Y-46378584D01*
X145197240Y-46403970D01*
X145160051Y-46412497D01*
X145110738Y-46406853D01*
X145074037Y-46401129D01*
X145043337Y-46403813D01*
X145027342Y-46419085D01*
X145022745Y-46448509D01*
X144893108Y-46448509D01*
X144901069Y-46438638D01*
X144909373Y-46410957D01*
X144914392Y-46372812D01*
X144914677Y-46369985D01*
X144919507Y-46326875D01*
X144926593Y-46269028D01*
X144935028Y-46203664D01*
X144943905Y-46138005D01*
X144949979Y-46093383D01*
X144958693Y-46022931D01*
X144963501Y-45969909D01*
X144964398Y-45930989D01*
X144961380Y-45902843D01*
X144954444Y-45882147D01*
X144943585Y-45865572D01*
X144935910Y-45856797D01*
X144918799Y-45845650D01*
X144900796Y-45851015D01*
X144894529Y-45855612D01*
X144884712Y-45868918D01*
X144876732Y-45879734D01*
X144860839Y-45920018D01*
X144846566Y-45977794D01*
X144833624Y-46054393D01*
X144821727Y-46151146D01*
X144810588Y-46269384D01*
X144804127Y-46346405D01*
X144757227Y-46346405D01*
X144737387Y-46345610D01*
X144692075Y-46340836D01*
X144646315Y-46333184D01*
X144601209Y-46326664D01*
X144559029Y-46327285D01*
X144530906Y-46336034D01*
X144520678Y-46352328D01*
X143855914Y-46352328D01*
X143819097Y-46328779D01*
X143705440Y-46252919D01*
X143588690Y-46172191D01*
X143473305Y-46089722D01*
X143363744Y-46008635D01*
X143282008Y-45945586D01*
X143714328Y-45945586D01*
X143715603Y-45988530D01*
X143717334Y-45994299D01*
X143739000Y-46031150D01*
X143776234Y-46068959D01*
X143823629Y-46103000D01*
X143875779Y-46128549D01*
X143922483Y-46143383D01*
X143966428Y-46151271D01*
X143997656Y-46149622D01*
X144012287Y-46138162D01*
X144013252Y-46134976D01*
X144021201Y-46107948D01*
X144028973Y-46081116D01*
X144171288Y-46081116D01*
X144175035Y-46159003D01*
X144190042Y-46222576D01*
X144215887Y-46269769D01*
X144252151Y-46298514D01*
X144288127Y-46309537D01*
X144345945Y-46310087D01*
X144403185Y-46293408D01*
X144453752Y-46261582D01*
X144491551Y-46216692D01*
X144498978Y-46202188D01*
X144516525Y-46159515D01*
X144536071Y-46103789D01*
X144555730Y-46041183D01*
X144573611Y-45977866D01*
X144587828Y-45920009D01*
X144596491Y-45873781D01*
X144597110Y-45868918D01*
X144596471Y-45824159D01*
X144582387Y-45796652D01*
X144555281Y-45787286D01*
X144549853Y-45787603D01*
X144531694Y-45794954D01*
X144515368Y-45814072D01*
X144499518Y-45847648D01*
X144482790Y-45898376D01*
X144463827Y-45968948D01*
X144444004Y-46044666D01*
X144425007Y-46109521D01*
X144408569Y-46155736D01*
X144393962Y-46185337D01*
X144380456Y-46200346D01*
X144354932Y-46208875D01*
X144324935Y-46204775D01*
X144304278Y-46187407D01*
X144297262Y-46165604D01*
X144293055Y-46119450D01*
X144294999Y-46058121D01*
X144302926Y-45985509D01*
X144316663Y-45905504D01*
X144327482Y-45844428D01*
X144332339Y-45791463D01*
X144328627Y-45756111D01*
X144316091Y-45736369D01*
X144294479Y-45730233D01*
X144268982Y-45737640D01*
X144244148Y-45763407D01*
X144222034Y-45808691D01*
X144202118Y-45874584D01*
X144183881Y-45962176D01*
X144179218Y-45990982D01*
X144171288Y-46081116D01*
X144028973Y-46081116D01*
X144033603Y-46065131D01*
X144048998Y-46011627D01*
X144065926Y-45952536D01*
X144082930Y-45892960D01*
X144098549Y-45838000D01*
X144111324Y-45792757D01*
X144119796Y-45762332D01*
X144128300Y-45729470D01*
X144131883Y-45705320D01*
X144128460Y-45689768D01*
X144117875Y-45675691D01*
X144103778Y-45662753D01*
X144062930Y-45636418D01*
X144011721Y-45612178D01*
X143958278Y-45593616D01*
X143910724Y-45584316D01*
X143889416Y-45582827D01*
X143861537Y-45583888D01*
X143843365Y-45592297D01*
X143826452Y-45610698D01*
X143813921Y-45632993D01*
X143802884Y-45678109D01*
X143802935Y-45726479D01*
X143814857Y-45767522D01*
X143816425Y-45770516D01*
X143821940Y-45788714D01*
X143812114Y-45797164D01*
X143781461Y-45815950D01*
X143750837Y-45852198D01*
X143727266Y-45897776D01*
X143714328Y-45945586D01*
X143282008Y-45945586D01*
X143264467Y-45932055D01*
X143179933Y-45863107D01*
X143128013Y-45818928D01*
X143048484Y-45750278D01*
X142981590Y-45691210D01*
X142928361Y-45642669D01*
X142889825Y-45605601D01*
X142867009Y-45580951D01*
X142860941Y-45569666D01*
X142865217Y-45567959D01*
X142889203Y-45565050D01*
X142931608Y-45562598D01*
X142989566Y-45560713D01*
X143060208Y-45559502D01*
X143140669Y-45559074D01*
X143193633Y-45558940D01*
X143264586Y-45558302D01*
X143325206Y-45557211D01*
X143372371Y-45555747D01*
X143402960Y-45553991D01*
X143413850Y-45552024D01*
X143411963Y-45547143D01*
X143401257Y-45524561D01*
X143382365Y-45486414D01*
X143356749Y-45435610D01*
X143325868Y-45375062D01*
X143291186Y-45307679D01*
X143269706Y-45265731D01*
X143237962Y-45202118D01*
X143211474Y-45146997D01*
X143191596Y-45103288D01*
X143179684Y-45073910D01*
X143177091Y-45061783D01*
X143185202Y-45060988D01*
X143208562Y-45068648D01*
X143239849Y-45084437D01*
X143254220Y-45092417D01*
X143292754Y-45112753D01*
X143344065Y-45139024D01*
X143403198Y-45168707D01*
X143465198Y-45199277D01*
X143616967Y-45269418D01*
X143867428Y-45368340D01*
X144119584Y-45447595D01*
X144372051Y-45507041D01*
X144623442Y-45546536D01*
X144872372Y-45565940D01*
X145117457Y-45565109D01*
X145357310Y-45543902D01*
X145590547Y-45502178D01*
X145815782Y-45439794D01*
X145855700Y-45425941D01*
X145926992Y-45399128D01*
X146006862Y-45367227D01*
X146088177Y-45333109D01*
X146163805Y-45299646D01*
X146388577Y-45201163D01*
X146601657Y-45116949D01*
X146802023Y-45047831D01*
X146991463Y-44993352D01*
X147171765Y-44953054D01*
X147344714Y-44926480D01*
X147512100Y-44913173D01*
X147675710Y-44912674D01*
X147771585Y-44917416D01*
X147857030Y-44925294D01*
X147931653Y-44937063D01*
X148001585Y-44953703D01*
X148072963Y-44976194D01*
X148082130Y-44979329D01*
X148119328Y-44990101D01*
X148143421Y-44992037D01*
X148160756Y-44985836D01*
X148161907Y-44985136D01*
X148175240Y-44980408D01*
X148189103Y-44983417D01*
X148204774Y-44996024D01*
X148223535Y-45020088D01*
X148246666Y-45057469D01*
X148275446Y-45110025D01*
X148311156Y-45179617D01*
X148355076Y-45268103D01*
X148442792Y-45452824D01*
X148539969Y-45677271D01*
X148607479Y-45854706D01*
X148621924Y-45892673D01*
G37*
D14*
%TO.C,BT1*%
X157160000Y-96661300D02*
X157160000Y-90311300D01*
X157160000Y-90311300D02*
X152790000Y-90311300D01*
X157160000Y-56913700D02*
X157160000Y-50563700D01*
X157160000Y-50563700D02*
X154210000Y-50563700D01*
X154210000Y-99503800D02*
X154210000Y-96661300D01*
X154210000Y-96661300D02*
X157160000Y-96661300D01*
X154210000Y-50563700D02*
X154210000Y-47721200D01*
X154210000Y-47721200D02*
X151735000Y-47721200D01*
X152790000Y-90311300D02*
X152790000Y-90193500D01*
X152790000Y-57031500D02*
X152790000Y-56913700D01*
X152790000Y-56913700D02*
X157160000Y-56913700D01*
X151735000Y-99503800D02*
X154210000Y-99503800D01*
X148765000Y-47721200D02*
X146290000Y-47721200D01*
X147710000Y-90311300D02*
X143340000Y-90311300D01*
X147710000Y-90193500D02*
X147710000Y-90311300D01*
X147710000Y-56913700D02*
X147710000Y-57031500D01*
X146290000Y-99503800D02*
X148765000Y-99503800D01*
X146290000Y-96661300D02*
X146290000Y-99503800D01*
X146290000Y-50563700D02*
X143340000Y-50563700D01*
X146290000Y-47721200D02*
X146290000Y-50563700D01*
X143340000Y-96661300D02*
X146290000Y-96661300D01*
X143340000Y-90311300D02*
X143340000Y-96661300D01*
X143340000Y-56913700D02*
X147710000Y-56913700D01*
X143340000Y-50563700D02*
X143340000Y-56913700D01*
D15*
%TO.C,J8*%
X143035000Y-100555000D02*
X146565000Y-100555000D01*
X143035000Y-100620000D02*
X143035000Y-100555000D01*
X143035000Y-107025000D02*
X143035000Y-106960000D01*
X143035000Y-107025000D02*
X146565000Y-107025000D01*
X146565000Y-100620000D02*
X146565000Y-100555000D01*
X146565000Y-100620000D02*
X147890000Y-100620000D01*
X146565000Y-107025000D02*
X146565000Y-106960000D01*
%TD*%
M02*
