%TF.GenerationSoftware,KiCad,Pcbnew,8.0.1*%
%TF.CreationDate,2024-07-17T16:46:35-04:00*%
%TF.ProjectId,Tiny4FSK,54696e79-3446-4534-9b2e-6b696361645f,rev?*%
%TF.SameCoordinates,Original*%
%TF.FileFunction,Paste,Top*%
%TF.FilePolarity,Positive*%
%FSLAX46Y46*%
G04 Gerber Fmt 4.6, Leading zero omitted, Abs format (unit mm)*
G04 Created by KiCad (PCBNEW 8.0.1) date 2024-07-17 16:46:35*
%MOMM*%
%LPD*%
G01*
G04 APERTURE LIST*
G04 Aperture macros list*
%AMRoundRect*
0 Rectangle with rounded corners*
0 $1 Rounding radius*
0 $2 $3 $4 $5 $6 $7 $8 $9 X,Y pos of 4 corners*
0 Add a 4 corners polygon primitive as box body*
4,1,4,$2,$3,$4,$5,$6,$7,$8,$9,$2,$3,0*
0 Add four circle primitives for the rounded corners*
1,1,$1+$1,$2,$3*
1,1,$1+$1,$4,$5*
1,1,$1+$1,$6,$7*
1,1,$1+$1,$8,$9*
0 Add four rect primitives between the rounded corners*
20,1,$1+$1,$2,$3,$4,$5,0*
20,1,$1+$1,$4,$5,$6,$7,0*
20,1,$1+$1,$6,$7,$8,$9,0*
20,1,$1+$1,$8,$9,$2,$3,0*%
%AMFreePoly0*
4,1,9,3.862500,-0.866500,0.737500,-0.866500,0.737500,-0.450000,-0.737500,-0.450000,-0.737500,0.450000,0.737500,0.450000,0.737500,0.866500,3.862500,0.866500,3.862500,-0.866500,3.862500,-0.866500,$1*%
G04 Aperture macros list end*
%ADD10R,0.800000X1.800000*%
%ADD11RoundRect,0.160000X0.160000X-0.197500X0.160000X0.197500X-0.160000X0.197500X-0.160000X-0.197500X0*%
%ADD12RoundRect,0.155000X0.155000X-0.212500X0.155000X0.212500X-0.155000X0.212500X-0.155000X-0.212500X0*%
%ADD13RoundRect,0.155000X-0.212500X-0.155000X0.212500X-0.155000X0.212500X0.155000X-0.212500X0.155000X0*%
%ADD14RoundRect,0.155000X0.212500X0.155000X-0.212500X0.155000X-0.212500X-0.155000X0.212500X-0.155000X0*%
%ADD15FreePoly0,0.000000*%
%ADD16RoundRect,0.225000X-0.425000X-0.225000X0.425000X-0.225000X0.425000X0.225000X-0.425000X0.225000X0*%
%ADD17RoundRect,0.250000X0.350000X0.450000X-0.350000X0.450000X-0.350000X-0.450000X0.350000X-0.450000X0*%
%ADD18RoundRect,0.150000X-0.150000X-0.425000X0.150000X-0.425000X0.150000X0.425000X-0.150000X0.425000X0*%
%ADD19RoundRect,0.075000X-0.075000X-0.500000X0.075000X-0.500000X0.075000X0.500000X-0.075000X0.500000X0*%
%ADD20O,1.000000X2.100000*%
%ADD21O,1.000000X1.800000*%
%ADD22RoundRect,0.237500X0.237500X-0.250000X0.237500X0.250000X-0.237500X0.250000X-0.237500X-0.250000X0*%
%ADD23RoundRect,0.250000X-0.475000X0.337500X-0.475000X-0.337500X0.475000X-0.337500X0.475000X0.337500X0*%
%ADD24RoundRect,0.160000X-0.160000X0.222500X-0.160000X-0.222500X0.160000X-0.222500X0.160000X0.222500X0*%
%ADD25R,1.400000X1.200000*%
%ADD26RoundRect,0.160000X-0.197500X-0.160000X0.197500X-0.160000X0.197500X0.160000X-0.197500X0.160000X0*%
%ADD27RoundRect,0.237500X-0.237500X0.300000X-0.237500X-0.300000X0.237500X-0.300000X0.237500X0.300000X0*%
%ADD28RoundRect,0.160000X-0.222500X-0.160000X0.222500X-0.160000X0.222500X0.160000X-0.222500X0.160000X0*%
%ADD29RoundRect,0.160000X0.197500X0.160000X-0.197500X0.160000X-0.197500X-0.160000X0.197500X-0.160000X0*%
%ADD30RoundRect,0.237500X0.300000X0.237500X-0.300000X0.237500X-0.300000X-0.237500X0.300000X-0.237500X0*%
%ADD31RoundRect,0.155000X-0.155000X0.212500X-0.155000X-0.212500X0.155000X-0.212500X0.155000X0.212500X0*%
%ADD32RoundRect,0.062500X0.062500X0.350000X-0.062500X0.350000X-0.062500X-0.350000X0.062500X-0.350000X0*%
%ADD33RoundRect,0.062500X0.350000X0.062500X-0.350000X0.062500X-0.350000X-0.062500X0.350000X-0.062500X0*%
%ADD34RoundRect,0.249999X0.290001X0.290001X-0.290001X0.290001X-0.290001X-0.290001X0.290001X-0.290001X0*%
%ADD35RoundRect,0.237500X-0.237500X0.250000X-0.237500X-0.250000X0.237500X-0.250000X0.237500X0.250000X0*%
%ADD36RoundRect,0.250000X-0.450000X0.325000X-0.450000X-0.325000X0.450000X-0.325000X0.450000X0.325000X0*%
%ADD37RoundRect,0.160000X-0.160000X0.197500X-0.160000X-0.197500X0.160000X-0.197500X0.160000X0.197500X0*%
%ADD38R,0.230000X0.230000*%
%ADD39O,0.230000X0.800000*%
%ADD40R,1.050000X0.680000*%
%ADD41R,0.500000X0.260000*%
%ADD42RoundRect,0.237500X0.237500X-0.300000X0.237500X0.300000X-0.237500X0.300000X-0.237500X-0.300000X0*%
%ADD43RoundRect,0.160000X0.222500X0.160000X-0.222500X0.160000X-0.222500X-0.160000X0.222500X-0.160000X0*%
%ADD44R,0.500000X0.350000*%
%ADD45RoundRect,0.237500X-0.300000X-0.237500X0.300000X-0.237500X0.300000X0.237500X-0.300000X0.237500X0*%
%ADD46R,1.140000X3.050000*%
%ADD47R,1.100000X1.300000*%
%ADD48RoundRect,0.075000X-0.662500X-0.075000X0.662500X-0.075000X0.662500X0.075000X-0.662500X0.075000X0*%
%ADD49RoundRect,0.075000X-0.075000X-0.662500X0.075000X-0.662500X0.075000X0.662500X-0.075000X0.662500X0*%
%ADD50R,1.400000X3.000000*%
%ADD51R,1.500000X0.700000*%
%ADD52R,0.800000X1.000000*%
%ADD53R,1.500000X1.500000*%
G04 APERTURE END LIST*
D10*
%TO.C,U2*%
X147650000Y-51792500D03*
X148750000Y-51792500D03*
X149850000Y-51792500D03*
X150950000Y-51792500D03*
X152050000Y-51792500D03*
X153150000Y-51792500D03*
X154250000Y-51792500D03*
X155350000Y-51792500D03*
X156450000Y-51792500D03*
X156450000Y-61107500D03*
X155350000Y-61107500D03*
X154250000Y-61107500D03*
X153150000Y-61107500D03*
X152050000Y-61107500D03*
X150950000Y-61107500D03*
X149850000Y-61107500D03*
X148750000Y-61107500D03*
X147650000Y-61107500D03*
%TD*%
D11*
%TO.C,R3*%
X138361918Y-97613080D03*
X138361918Y-96418080D03*
%TD*%
D12*
%TO.C,C6*%
X131181512Y-93020813D03*
X131181512Y-91885813D03*
%TD*%
D13*
%TO.C,C5*%
X131164767Y-95942151D03*
X132299767Y-95942151D03*
%TD*%
D12*
%TO.C,C4*%
X129170231Y-93014638D03*
X129170231Y-91879638D03*
%TD*%
D14*
%TO.C,C3*%
X132314592Y-97936046D03*
X131179592Y-97936046D03*
%TD*%
D15*
%TO.C,U8*%
X133222500Y-91840000D03*
D16*
X133135000Y-93340000D03*
X133135000Y-90340000D03*
%TD*%
D17*
%TO.C,R7*%
X134522329Y-95967676D03*
X136522329Y-95967676D03*
%TD*%
%TO.C,R5*%
X134535858Y-97917619D03*
X136535858Y-97917619D03*
%TD*%
D18*
%TO.C,J3*%
X130726776Y-100080139D03*
X131526776Y-100080139D03*
D19*
X132676776Y-100080139D03*
X133676776Y-100080139D03*
X134176776Y-100080139D03*
X135176776Y-100080139D03*
D18*
X136326776Y-100080139D03*
X137126776Y-100080139D03*
X137126776Y-100080139D03*
X136326776Y-100080139D03*
D19*
X135676776Y-100080139D03*
X134676776Y-100080139D03*
X133176776Y-100080139D03*
X132176776Y-100080139D03*
D18*
X131526776Y-100080139D03*
X130726776Y-100080139D03*
D20*
X129606776Y-100655139D03*
D21*
X129606776Y-104835139D03*
D20*
X138246776Y-100655139D03*
D21*
X138246776Y-104835139D03*
%TD*%
D22*
%TO.C,FB1*%
X129115000Y-96202500D03*
X129115000Y-98027500D03*
%TD*%
D23*
%TO.C,C1*%
X138381627Y-94280116D03*
X138381627Y-92205116D03*
%TD*%
D24*
%TO.C,L5*%
X156000000Y-95826250D03*
X156000000Y-96971250D03*
%TD*%
D14*
%TO.C,C10*%
X150249421Y-77094782D03*
X149114421Y-77094782D03*
%TD*%
D25*
%TO.C,U5*%
X145850000Y-77125000D03*
X143650000Y-77125000D03*
X143650000Y-78875000D03*
X145850000Y-78875000D03*
%TD*%
D26*
%TO.C,R14*%
X145146049Y-74699191D03*
X146341049Y-74699191D03*
%TD*%
D12*
%TO.C,C20*%
X157020822Y-92035999D03*
X157020822Y-90900999D03*
%TD*%
%TO.C,C15*%
X146250000Y-58817500D03*
X146250000Y-57682500D03*
%TD*%
D14*
%TO.C,C22*%
X154955655Y-95216644D03*
X153820655Y-95216644D03*
%TD*%
D27*
%TO.C,C13*%
X149145000Y-68892500D03*
X149145000Y-70617500D03*
%TD*%
D24*
%TO.C,L7*%
X156000000Y-100898750D03*
X156000000Y-102043750D03*
%TD*%
D28*
%TO.C,L1*%
X155511485Y-49712967D03*
X154366485Y-49712967D03*
%TD*%
D29*
%TO.C,R1*%
X143469572Y-54041843D03*
X142274572Y-54041843D03*
%TD*%
D30*
%TO.C,C14*%
X157112500Y-87500000D03*
X155387500Y-87500000D03*
%TD*%
D31*
%TO.C,C12*%
X150395000Y-68937500D03*
X150395000Y-70072500D03*
%TD*%
D32*
%TO.C,U3*%
X153500000Y-93937500D03*
X153000000Y-93937500D03*
X152500000Y-93937500D03*
X152000000Y-93937500D03*
X151500000Y-93937500D03*
D33*
X150562500Y-93000000D03*
X150562500Y-92500000D03*
X150562500Y-92000000D03*
X150562500Y-91500000D03*
X150562500Y-91000000D03*
D32*
X151500000Y-90062500D03*
X152000000Y-90062500D03*
X152500000Y-90062500D03*
X153000000Y-90062500D03*
X153500000Y-90062500D03*
D33*
X154437500Y-91000000D03*
X154437500Y-91500000D03*
X154437500Y-92000000D03*
X154437500Y-92500000D03*
X154437500Y-93000000D03*
D34*
X151875000Y-91375000D03*
X151875000Y-92625000D03*
X153125000Y-91375000D03*
X153125000Y-92625000D03*
%TD*%
D14*
%TO.C,C2*%
X143462061Y-55018579D03*
X142327061Y-55018579D03*
%TD*%
D35*
%TO.C,R8*%
X157000000Y-83087500D03*
X157000000Y-84912500D03*
%TD*%
D26*
%TO.C,R12*%
X152376835Y-72431865D03*
X153571835Y-72431865D03*
%TD*%
D13*
%TO.C,C23*%
X150425508Y-95564505D03*
X151560508Y-95564505D03*
%TD*%
D36*
%TO.C,D1*%
X143750000Y-105225000D03*
X143750000Y-107275000D03*
%TD*%
D37*
%TO.C,R2*%
X144509334Y-50991849D03*
X144509334Y-52186849D03*
%TD*%
D36*
%TO.C,D3*%
X147750000Y-105225000D03*
X147750000Y-107275000D03*
%TD*%
D38*
%TO.C,U6*%
X154635000Y-67995000D03*
D39*
X154635000Y-68280000D03*
D38*
X154135000Y-67995000D03*
D39*
X154135000Y-68280000D03*
D38*
X153635000Y-67995000D03*
D39*
X153635000Y-68280000D03*
D38*
X153135000Y-67995000D03*
D39*
X153135000Y-68280000D03*
D38*
X152635000Y-67995000D03*
D39*
X152635000Y-68280000D03*
X152635000Y-71230000D03*
D38*
X152635000Y-71515000D03*
D39*
X153135000Y-71230000D03*
D38*
X153135000Y-71515000D03*
D39*
X153635000Y-71230000D03*
D38*
X153635000Y-71515000D03*
D39*
X154135000Y-71230000D03*
D38*
X154135000Y-71515000D03*
D39*
X154635000Y-71230000D03*
D38*
X154635000Y-71515000D03*
D40*
X154270000Y-69305000D03*
X153000000Y-69305000D03*
D41*
X155265000Y-69505000D03*
X152005000Y-69505000D03*
X155265000Y-70005000D03*
X152005000Y-70005000D03*
D40*
X154270000Y-70205000D03*
X153000000Y-70205000D03*
%TD*%
D22*
%TO.C,R6*%
X157000000Y-81162500D03*
X157000000Y-79337500D03*
%TD*%
D42*
%TO.C,C7*%
X141798491Y-79001099D03*
X141798491Y-77276099D03*
%TD*%
D43*
%TO.C,L3*%
X157089522Y-89867029D03*
X155944522Y-89867029D03*
%TD*%
D22*
%TO.C,R10*%
X145759462Y-101192515D03*
X145759462Y-103017515D03*
%TD*%
D14*
%TO.C,C18*%
X147817500Y-97500000D03*
X146682500Y-97500000D03*
%TD*%
D35*
%TO.C,R9*%
X141750000Y-105337500D03*
X141750000Y-107162500D03*
%TD*%
D42*
%TO.C,C28*%
X144767423Y-55252003D03*
X144767423Y-53527003D03*
%TD*%
D13*
%TO.C,C24*%
X146682500Y-99500000D03*
X147817500Y-99500000D03*
%TD*%
D44*
%TO.C,U1*%
X141385220Y-53079470D03*
X141385220Y-52429470D03*
X141385220Y-51779470D03*
X141385220Y-51129470D03*
X143435220Y-51129470D03*
X143435220Y-51779470D03*
X143435220Y-52429470D03*
X143435220Y-53079470D03*
%TD*%
D36*
%TO.C,D2*%
X145750000Y-105225000D03*
X145750000Y-107275000D03*
%TD*%
D45*
%TO.C,C17*%
X154532500Y-65255000D03*
X156257500Y-65255000D03*
%TD*%
D14*
%TO.C,C25*%
X154817500Y-97721250D03*
X153682500Y-97721250D03*
%TD*%
D46*
%TO.C,L2*%
X151895000Y-65005000D03*
X149735000Y-65005000D03*
%TD*%
D31*
%TO.C,C9*%
X151250000Y-76182500D03*
X151250000Y-77317500D03*
%TD*%
D24*
%TO.C,L6*%
X156000000Y-98326250D03*
X156000000Y-99471250D03*
%TD*%
D14*
%TO.C,C11*%
X145049522Y-80286216D03*
X143914522Y-80286216D03*
%TD*%
D47*
%TO.C,U7*%
X145375696Y-93296174D03*
X145375696Y-95596174D03*
X147275696Y-95596174D03*
X147275696Y-93296174D03*
%TD*%
D29*
%TO.C,R15*%
X146342157Y-75654572D03*
X145147157Y-75654572D03*
%TD*%
D26*
%TO.C,R4*%
X152277171Y-77296768D03*
X153472171Y-77296768D03*
%TD*%
D31*
%TO.C,C16*%
X156395000Y-69187500D03*
X156395000Y-70322500D03*
%TD*%
D22*
%TO.C,R13*%
X147759462Y-101192515D03*
X147759462Y-103017515D03*
%TD*%
D48*
%TO.C,U4*%
X146587500Y-80250000D03*
X146587500Y-80750000D03*
X146587500Y-81250000D03*
X146587500Y-81750000D03*
X146587500Y-82250000D03*
X146587500Y-82750000D03*
X146587500Y-83250000D03*
X146587500Y-83750000D03*
X146587500Y-84250000D03*
X146587500Y-84750000D03*
X146587500Y-85250000D03*
X146587500Y-85750000D03*
D49*
X148000000Y-87162500D03*
X148500000Y-87162500D03*
X149000000Y-87162500D03*
X149500000Y-87162500D03*
X150000000Y-87162500D03*
X150500000Y-87162500D03*
X151000000Y-87162500D03*
X151500000Y-87162500D03*
X152000000Y-87162500D03*
X152500000Y-87162500D03*
X153000000Y-87162500D03*
X153500000Y-87162500D03*
D48*
X154912500Y-85750000D03*
X154912500Y-85250000D03*
X154912500Y-84750000D03*
X154912500Y-84250000D03*
X154912500Y-83750000D03*
X154912500Y-83250000D03*
X154912500Y-82750000D03*
X154912500Y-82250000D03*
X154912500Y-81750000D03*
X154912500Y-81250000D03*
X154912500Y-80750000D03*
X154912500Y-80250000D03*
D49*
X153500000Y-78837500D03*
X153000000Y-78837500D03*
X152500000Y-78837500D03*
X152000000Y-78837500D03*
X151500000Y-78837500D03*
X151000000Y-78837500D03*
X150500000Y-78837500D03*
X150000000Y-78837500D03*
X149500000Y-78837500D03*
X149000000Y-78837500D03*
X148500000Y-78837500D03*
X148000000Y-78837500D03*
%TD*%
D50*
%TO.C,AE1*%
X145020000Y-45433000D03*
X155020000Y-45433000D03*
%TD*%
D51*
%TO.C,SW2*%
X143949224Y-72000085D03*
X143949224Y-70500085D03*
X143949224Y-67500085D03*
D52*
X141089224Y-73400085D03*
X143299224Y-73400085D03*
X141089224Y-66100085D03*
X143299224Y-66100085D03*
%TD*%
D13*
%TO.C,C8*%
X149114421Y-76133145D03*
X150249421Y-76133145D03*
%TD*%
%TO.C,C21*%
X155327500Y-66505000D03*
X156462500Y-66505000D03*
%TD*%
D26*
%TO.C,R11*%
X154637648Y-72439291D03*
X155832648Y-72439291D03*
%TD*%
D53*
%TO.C,SW1*%
X142500000Y-103400000D03*
X142500000Y-95600000D03*
%TD*%
D24*
%TO.C,L4*%
X156000000Y-93326250D03*
X156000000Y-94471250D03*
%TD*%
D14*
%TO.C,C27*%
X154880910Y-100235963D03*
X153745910Y-100235963D03*
%TD*%
D31*
%TO.C,C19*%
X156000000Y-90903750D03*
X156000000Y-92038750D03*
%TD*%
M02*
