%TF.GenerationSoftware,KiCad,Pcbnew,8.0.1*%
%TF.CreationDate,2024-07-16T16:14:44-04:00*%
%TF.ProjectId,Tiny4FSK,54696e79-3446-4534-9b2e-6b696361645f,rev?*%
%TF.SameCoordinates,Original*%
%TF.FileFunction,Copper,L4,Bot*%
%TF.FilePolarity,Positive*%
%FSLAX46Y46*%
G04 Gerber Fmt 4.6, Leading zero omitted, Abs format (unit mm)*
G04 Created by KiCad (PCBNEW 8.0.1) date 2024-07-16 16:14:44*
%MOMM*%
%LPD*%
G01*
G04 APERTURE LIST*
G04 Aperture macros list*
%AMRoundRect*
0 Rectangle with rounded corners*
0 $1 Rounding radius*
0 $2 $3 $4 $5 $6 $7 $8 $9 X,Y pos of 4 corners*
0 Add a 4 corners polygon primitive as box body*
4,1,4,$2,$3,$4,$5,$6,$7,$8,$9,$2,$3,0*
0 Add four circle primitives for the rounded corners*
1,1,$1+$1,$2,$3*
1,1,$1+$1,$4,$5*
1,1,$1+$1,$6,$7*
1,1,$1+$1,$8,$9*
0 Add four rect primitives between the rounded corners*
20,1,$1+$1,$2,$3,$4,$5,0*
20,1,$1+$1,$4,$5,$6,$7,0*
20,1,$1+$1,$6,$7,$8,$9,0*
20,1,$1+$1,$8,$9,$2,$3,0*%
G04 Aperture macros list end*
%TA.AperFunction,SMDPad,CuDef*%
%ADD10R,2.340000X3.960000*%
%TD*%
%TA.AperFunction,SMDPad,CuDef*%
%ADD11R,5.080000X3.960000*%
%TD*%
%TA.AperFunction,ComponentPad*%
%ADD12R,1.700000X1.700000*%
%TD*%
%TA.AperFunction,ComponentPad*%
%ADD13O,1.700000X1.700000*%
%TD*%
%TA.AperFunction,HeatsinkPad*%
%ADD14C,0.500000*%
%TD*%
%TA.AperFunction,HeatsinkPad*%
%ADD15R,2.500000X2.500000*%
%TD*%
%TA.AperFunction,ComponentPad*%
%ADD16C,0.600000*%
%TD*%
%TA.AperFunction,SMDPad,CuDef*%
%ADD17R,2.800000X2.300000*%
%TD*%
%TA.AperFunction,ComponentPad*%
%ADD18C,2.000000*%
%TD*%
%TA.AperFunction,SMDPad,CuDef*%
%ADD19RoundRect,0.500000X0.500000X2.000000X-0.500000X2.000000X-0.500000X-2.000000X0.500000X-2.000000X0*%
%TD*%
%TA.AperFunction,SMDPad,CuDef*%
%ADD20R,2.400000X0.740000*%
%TD*%
%TA.AperFunction,ViaPad*%
%ADD21C,0.800000*%
%TD*%
%TA.AperFunction,Conductor*%
%ADD22C,0.250000*%
%TD*%
%TA.AperFunction,Conductor*%
%ADD23C,0.200000*%
%TD*%
%TA.AperFunction,Conductor*%
%ADD24C,0.750000*%
%TD*%
G04 APERTURE END LIST*
D10*
%TO.P,BT1,*%
%TO.N,*%
X150250000Y-46475000D03*
D11*
%TO.P,BT1,1,+*%
%TO.N,+BATT*%
X150250000Y-59325000D03*
%TO.P,BT1,2,-*%
%TO.N,Earth*%
X150250000Y-87900000D03*
D10*
X150250000Y-100750000D03*
%TD*%
D12*
%TO.P,J4,1,Pin_1*%
%TO.N,D+*%
X142250000Y-84210000D03*
D13*
%TO.P,J4,2,Pin_2*%
%TO.N,D-*%
X142250000Y-86750000D03*
%TO.P,J4,3,Pin_3*%
%TO.N,+3.3V*%
X142250000Y-89290000D03*
%TO.P,J4,4,Pin_4*%
%TO.N,Earth*%
X142250000Y-91830000D03*
%TD*%
D12*
%TO.P,J5,1,Pin_1*%
%TO.N,+3.3V*%
X161000000Y-82700000D03*
D13*
%TO.P,J5,2,Pin_2*%
%TO.N,SDA*%
X161000000Y-85240000D03*
%TO.P,J5,3,Pin_3*%
%TO.N,SCL*%
X161000000Y-87780000D03*
%TO.P,J5,4,Pin_4*%
%TO.N,Earth*%
X161000000Y-90320000D03*
%TD*%
D14*
%TO.P,IC1,21,GND_2*%
%TO.N,Earth*%
X153500000Y-93000000D03*
X153500000Y-91000000D03*
D15*
X152500000Y-92000000D03*
D14*
X151500000Y-93000000D03*
X151500000Y-91000000D03*
%TD*%
D12*
%TO.P,J6,1,Pin_1*%
%TO.N,+BATT*%
X142294431Y-63452157D03*
D13*
%TO.P,J6,2,Pin_2*%
%TO.N,Earth*%
X142294431Y-60912157D03*
%TO.P,J6,3,Pin_3*%
%TO.N,+3.3V*%
X142294431Y-58372157D03*
%TD*%
D16*
%TO.P,U6,11,PAD*%
%TO.N,Earth*%
X154385000Y-69255000D03*
X152885000Y-69255000D03*
X153635000Y-69755000D03*
D17*
X153635000Y-69755000D03*
D16*
X154385000Y-70255000D03*
X152885000Y-70255000D03*
%TD*%
D18*
%TO.P,AE2,1,RF*%
%TO.N,Net-(AE2-RF)*%
X153911023Y-105665790D03*
%TO.P,AE2,2,Shield*%
%TO.N,Earth*%
X150696023Y-105665790D03*
D19*
X150696023Y-105665790D03*
D18*
X157126023Y-105665790D03*
D19*
X157126023Y-105665790D03*
%TD*%
D12*
%TO.P,J2,1,Pin_1*%
%TO.N,D12*%
X161000000Y-71250000D03*
D13*
%TO.P,J2,2,Pin_2*%
%TO.N,D13*%
X161000000Y-73790000D03*
%TO.P,J2,3,Pin_3*%
%TO.N,A1*%
X161000000Y-76330000D03*
%TO.P,J2,4,Pin_4*%
%TO.N,A2*%
X161000000Y-78870000D03*
%TD*%
D12*
%TO.P,J7,1,Pin_1*%
%TO.N,+3.3V*%
X161000000Y-94175000D03*
D13*
%TO.P,J7,2,Pin_2*%
%TO.N,MOSI*%
X161000000Y-96715000D03*
%TO.P,J7,3,Pin_3*%
%TO.N,MISO*%
X161000000Y-99255000D03*
%TO.P,J7,4,Pin_4*%
%TO.N,SCK*%
X161000000Y-101795000D03*
%TO.P,J7,5,Pin_5*%
%TO.N,Earth*%
X161000000Y-104335000D03*
%TD*%
D20*
%TO.P,J1,1,Pin_1*%
%TO.N,+3.3V*%
X146750000Y-101250000D03*
%TO.P,J1,2,Pin_2*%
%TO.N,SWDIO*%
X142850000Y-101250000D03*
%TO.P,J1,3,Pin_3*%
%TO.N,Earth*%
X146750000Y-102520000D03*
%TO.P,J1,4,Pin_4*%
%TO.N,SWCLK*%
X142850000Y-102520000D03*
%TO.P,J1,5,Pin_5*%
%TO.N,Earth*%
X146750000Y-103790000D03*
%TO.P,J1,6,Pin_6*%
%TO.N,unconnected-(J1-Pin_6-Pad6)*%
X142850000Y-103790000D03*
%TO.P,J1,7,Pin_7*%
%TO.N,unconnected-(J1-Pin_7-Pad7)*%
X146750000Y-105060000D03*
%TO.P,J1,8,Pin_8*%
%TO.N,unconnected-(J1-Pin_8-Pad8)*%
X142850000Y-105060000D03*
%TO.P,J1,9,Pin_9*%
%TO.N,unconnected-(J1-Pin_9-Pad9)*%
X146750000Y-106330000D03*
%TO.P,J1,10,Pin_10*%
%TO.N,nRST*%
X142850000Y-106330000D03*
%TD*%
D21*
%TO.N,Earth*%
X148500000Y-55500000D03*
%TO.N,+BATT*%
X152500000Y-57750000D03*
X151500000Y-59000000D03*
%TO.N,Earth*%
X143250000Y-82000000D03*
X153750000Y-75750000D03*
X159250000Y-82750000D03*
X159250000Y-78500000D03*
X159250000Y-71750000D03*
X157250000Y-101750000D03*
X161000000Y-107000000D03*
X142250000Y-56250000D03*
X157000000Y-67750000D03*
X150250000Y-73500000D03*
X154250000Y-73750000D03*
X158750000Y-96500000D03*
X158750000Y-97500000D03*
X158750000Y-85500000D03*
X158750000Y-86500000D03*
X158750000Y-87500000D03*
X158750000Y-106750000D03*
X158750000Y-105750000D03*
X158750000Y-104750000D03*
X158750000Y-103750000D03*
X158750000Y-102750000D03*
X158750000Y-101750000D03*
X143000000Y-98500000D03*
X149500000Y-96750000D03*
X150250000Y-102000000D03*
X149500000Y-101250000D03*
X150750000Y-101250000D03*
X152000000Y-102000000D03*
X155000000Y-98750000D03*
X158750000Y-88500000D03*
X158750000Y-89500000D03*
X158750000Y-90500000D03*
X158750000Y-91500000D03*
X158750000Y-92500000D03*
X158750000Y-93500000D03*
X158750000Y-94500000D03*
X158750000Y-95500000D03*
X146750000Y-50250000D03*
X155250000Y-53500000D03*
X154500000Y-55500000D03*
X153250000Y-54250000D03*
X150250000Y-54000000D03*
X157750000Y-53250000D03*
X156500000Y-54250000D03*
X157750000Y-55250000D03*
X156750000Y-57750000D03*
X155750000Y-56750000D03*
X154500000Y-57000000D03*
X155500000Y-58000000D03*
X156500000Y-59000000D03*
X146500000Y-54500000D03*
X140750000Y-50000000D03*
X140750000Y-54750000D03*
X140750000Y-57000000D03*
X144000000Y-57000000D03*
X140750000Y-64750000D03*
X141000000Y-68250000D03*
X141000000Y-71250000D03*
X142250000Y-69750000D03*
X145750000Y-71750000D03*
X145750000Y-73250000D03*
X141000000Y-75250000D03*
X141250000Y-80750000D03*
X141000000Y-95500000D03*
X140750000Y-107250000D03*
X143000000Y-99750000D03*
X158750000Y-100750000D03*
X159250000Y-50250000D03*
X159250000Y-65750000D03*
X159250000Y-52250000D03*
X159250000Y-62000000D03*
X159250000Y-58250000D03*
X159250000Y-67750000D03*
X159250000Y-63750000D03*
X159250000Y-54250000D03*
X159250000Y-60250000D03*
X159250000Y-56250000D03*
X160750000Y-51250000D03*
X160750000Y-53250000D03*
X160750000Y-55250000D03*
X160750000Y-68750000D03*
X160750000Y-59250000D03*
X160750000Y-61250000D03*
X160750000Y-57250000D03*
X160750000Y-66750000D03*
X160750000Y-64750000D03*
X160750000Y-63000000D03*
X162250000Y-62000000D03*
X162250000Y-63750000D03*
X162250000Y-65750000D03*
X162250000Y-67750000D03*
X162250000Y-56250000D03*
X162250000Y-58250000D03*
X162250000Y-60250000D03*
X162250000Y-54250000D03*
X162250000Y-50250000D03*
X162250000Y-52250000D03*
X142000000Y-48750000D03*
X141000000Y-48750000D03*
X143000000Y-48750000D03*
X145000000Y-48750000D03*
X146000000Y-48750000D03*
X144000000Y-48750000D03*
%TO.N,GPS_EN*%
X145012653Y-85237347D03*
X153500000Y-59000000D03*
%TO.N,Earth*%
X155386182Y-87492574D03*
%TO.N,+3.3V*%
X157250000Y-88750000D03*
X157112500Y-87500000D03*
X154377605Y-64069111D03*
%TO.N,Earth*%
X153500000Y-49750000D03*
X157000000Y-49750000D03*
X148000000Y-49250000D03*
X149000000Y-49250000D03*
X151000000Y-49250000D03*
X147000000Y-48750000D03*
X152000000Y-49250000D03*
X150000000Y-49250000D03*
X146750000Y-60500000D03*
%TO.N,+BATT*%
X148500000Y-58750000D03*
%TO.N,+3.3V*%
X148250000Y-75500000D03*
%TO.N,Earth*%
X149471497Y-75475000D03*
X151250000Y-77250000D03*
%TO.N,+3.3V*%
X151250000Y-75250000D03*
%TO.N,Earth*%
X149145000Y-70617500D03*
X148500000Y-72500000D03*
X149393582Y-89315344D03*
X157398495Y-66500000D03*
X161500000Y-48750000D03*
X144000000Y-75750000D03*
X156640503Y-72436099D03*
X157398495Y-63363147D03*
X145712500Y-97500000D03*
X152750000Y-100500000D03*
X145712500Y-99500000D03*
X159500000Y-48750000D03*
X153000000Y-48750000D03*
X154795000Y-48750000D03*
X145575000Y-93296174D03*
X151338438Y-84795769D03*
X157398495Y-65454381D03*
X156895000Y-71250000D03*
X153750000Y-96000000D03*
X154250000Y-79250000D03*
X149479180Y-99004485D03*
X153317735Y-98651785D03*
X157398495Y-64408764D03*
X145250000Y-81500000D03*
X158500000Y-48750000D03*
X156750000Y-48750000D03*
X160500000Y-48750000D03*
%TO.N,+3.3V*%
X154532500Y-65255000D03*
X148646023Y-106273570D03*
X154357500Y-63000000D03*
X153390002Y-88978107D03*
X145850000Y-77125000D03*
X154357500Y-66505000D03*
X144767423Y-53527003D03*
X141798491Y-79001099D03*
X144249997Y-81500000D03*
X154459160Y-78079760D03*
X157000000Y-81250000D03*
X150233148Y-85258148D03*
X154750000Y-59500000D03*
X151506122Y-72426524D03*
X147372669Y-98397974D03*
%TO.N,GPIO1*%
X146637653Y-87887653D03*
X148176166Y-90614348D03*
%TO.N,RF_RST*%
X145603155Y-89977849D03*
X149405728Y-90905728D03*
%TO.N,SCK*%
X148828931Y-92063576D03*
%TO.N,MISO*%
X149087390Y-93388488D03*
X152257005Y-85191040D03*
%TO.N,MOSI*%
X152750000Y-99475000D03*
X158750000Y-99750000D03*
%TO.N,RF_SS*%
X150549890Y-93679485D03*
X153798960Y-84682384D03*
%TO.N,SDA*%
X157000000Y-83000000D03*
X157750153Y-85974847D03*
%TO.N,SCL*%
X142237347Y-50237347D03*
X155141298Y-77348533D03*
X157000000Y-79250000D03*
%TO.N,SWDIO*%
X147822340Y-82874802D03*
%TO.N,SWCLK*%
X148696470Y-82389104D03*
%TO.N,nRST*%
X147820789Y-83897149D03*
X142500000Y-95625000D03*
%TO.N,A1*%
X144750000Y-83425000D03*
%TO.N,A2*%
X145319484Y-84285581D03*
%TO.N,D-*%
X153449585Y-81798519D03*
%TO.N,SUCCESS*%
X145125000Y-88750000D03*
X144725178Y-106221176D03*
%TO.N,ERROR*%
X145794878Y-107319877D03*
X152000354Y-98225000D03*
X152855075Y-94998402D03*
X154777739Y-89928107D03*
%TO.N,SDN*%
X155052263Y-94223043D03*
X154382819Y-86357513D03*
%TO.N,D13*%
X152299750Y-82824750D03*
%TO.N,D12*%
X155893639Y-76643639D03*
%TO.N,+BATT*%
X148525000Y-57799906D03*
X144000000Y-74750000D03*
%TO.N,TXD*%
X151749999Y-80975000D03*
X152250000Y-56250000D03*
%TO.N,RXD*%
X151355571Y-55525000D03*
X152743299Y-81090588D03*
%TD*%
D22*
%TO.N,RF_RST*%
X148476471Y-91339348D02*
X146964654Y-91339348D01*
X148910091Y-90905728D02*
X148476471Y-91339348D01*
X146964654Y-91339348D02*
X145603155Y-89977849D01*
X149405728Y-90905728D02*
X148910091Y-90905728D01*
%TO.N,SCK*%
X159750000Y-100545000D02*
X161000000Y-101795000D01*
X159750000Y-99724695D02*
X159750000Y-100545000D01*
X159025305Y-99000000D02*
X159750000Y-99724695D01*
X156275305Y-99000000D02*
X159025305Y-99000000D01*
X154775305Y-97500000D02*
X156275305Y-99000000D01*
X151700049Y-97500000D02*
X154775305Y-97500000D01*
X148828931Y-92063576D02*
X148362390Y-92530117D01*
X151425000Y-97550000D02*
X151650049Y-97550000D01*
X151650049Y-97550000D02*
X151700049Y-97500000D01*
X148362390Y-92530117D02*
X148362390Y-94487390D01*
X148362390Y-94487390D02*
X151425000Y-97550000D01*
%TO.N,MISO*%
X155025305Y-95750000D02*
X157250000Y-95750000D01*
X154050305Y-96725000D02*
X155025305Y-95750000D01*
X149087390Y-93388488D02*
X149087390Y-93562850D01*
X152249540Y-96725000D02*
X154050305Y-96725000D01*
X149087390Y-93562850D02*
X152249540Y-96725000D01*
X158050000Y-98550000D02*
X160295000Y-98550000D01*
X160295000Y-98550000D02*
X161000000Y-99255000D01*
X157500000Y-98000000D02*
X158050000Y-98550000D01*
X157500000Y-96000000D02*
X157500000Y-98000000D01*
X157250000Y-95750000D02*
X157500000Y-96000000D01*
%TO.N,Earth*%
X147700000Y-102520000D02*
X146750000Y-102520000D01*
X148275000Y-101945000D02*
X147700000Y-102520000D01*
X147500000Y-97500000D02*
X148275000Y-98275000D01*
X145712500Y-97500000D02*
X147500000Y-97500000D01*
X148275000Y-98275000D02*
X148275000Y-101945000D01*
%TO.N,+3.3V*%
X147372669Y-98397974D02*
X146750000Y-99020643D01*
X146750000Y-99020643D02*
X146750000Y-101250000D01*
%TO.N,ERROR*%
X151775354Y-98000000D02*
X152000354Y-98225000D01*
X148725000Y-98525000D02*
X149250000Y-98000000D01*
X148725000Y-103025000D02*
X148725000Y-98525000D01*
X149250000Y-98000000D02*
X151775354Y-98000000D01*
X149371023Y-103671023D02*
X148725000Y-103025000D01*
X148750000Y-107250000D02*
X149371023Y-106628977D01*
X145864755Y-107250000D02*
X148750000Y-107250000D01*
X149371023Y-106628977D02*
X149371023Y-103671023D01*
X145794878Y-107319877D02*
X145864755Y-107250000D01*
%TO.N,D12*%
X159070000Y-75430000D02*
X159825000Y-74675000D01*
X159825000Y-74675000D02*
X159825000Y-72425000D01*
X155893639Y-76643639D02*
X157107278Y-75430000D01*
X157107278Y-75430000D02*
X159070000Y-75430000D01*
X159825000Y-72425000D02*
X161000000Y-71250000D01*
%TO.N,A2*%
X161000000Y-78250000D02*
X161000000Y-78870000D01*
X159530000Y-76780000D02*
X161000000Y-78250000D01*
X158220000Y-76780000D02*
X159530000Y-76780000D01*
X155900000Y-79100000D02*
X158220000Y-76780000D01*
X155900000Y-82986701D02*
X155900000Y-79100000D01*
X152786200Y-84000000D02*
X153286200Y-83500000D01*
X151540977Y-84000000D02*
X152786200Y-84000000D01*
X149040977Y-81500000D02*
X151540977Y-84000000D01*
X147863536Y-81500000D02*
X149040977Y-81500000D01*
X155386701Y-83500000D02*
X155900000Y-82986701D01*
X153286200Y-83500000D02*
X155386701Y-83500000D01*
X145319484Y-84285581D02*
X145319484Y-84044052D01*
X145319484Y-84044052D02*
X147863536Y-81500000D01*
%TO.N,D13*%
X157682584Y-75880000D02*
X159370000Y-75880000D01*
X161000000Y-74250000D02*
X161000000Y-73790000D01*
X155000000Y-82362500D02*
X155000000Y-78562584D01*
X155000000Y-78562584D02*
X157682584Y-75880000D01*
X154812500Y-82550000D02*
X155000000Y-82362500D01*
X159370000Y-75880000D02*
X161000000Y-74250000D01*
X152299750Y-82824750D02*
X152574500Y-82550000D01*
X152574500Y-82550000D02*
X154812500Y-82550000D01*
%TO.N,SDA*%
X160510000Y-84750000D02*
X161000000Y-85240000D01*
X157750153Y-84750000D02*
X160510000Y-84750000D01*
X157750153Y-85974847D02*
X157750153Y-84750000D01*
X157750153Y-85974847D02*
X157750153Y-83750153D01*
X157750153Y-83750153D02*
X157000000Y-83000000D01*
%TO.N,MISO*%
X154700000Y-83950000D02*
X157975000Y-87225000D01*
X157975000Y-87225000D02*
X157975000Y-95025000D01*
X157975000Y-95025000D02*
X157250000Y-95750000D01*
X152257005Y-85191040D02*
X153498046Y-83950000D01*
X153498046Y-83950000D02*
X154700000Y-83950000D01*
%TO.N,MOSI*%
X158750000Y-99750000D02*
X158475000Y-99475000D01*
X158475000Y-99475000D02*
X152750000Y-99475000D01*
%TO.N,SCL*%
X144237347Y-50237347D02*
X142237347Y-50237347D01*
X158123495Y-57623495D02*
X153500000Y-53000000D01*
X153500000Y-53000000D02*
X147000000Y-53000000D01*
X147000000Y-53000000D02*
X144237347Y-50237347D01*
X158123495Y-72963547D02*
X158123495Y-57623495D01*
X155141298Y-75945744D02*
X158123495Y-72963547D01*
X155141298Y-77348533D02*
X155141298Y-75945744D01*
D23*
%TO.N,D-*%
X144050000Y-84950000D02*
X142250000Y-86750000D01*
X145926100Y-82200000D02*
X144985050Y-82200000D01*
X151273654Y-82125000D02*
X149648654Y-80500000D01*
X149648654Y-80500000D02*
X147626100Y-80500000D01*
X153123104Y-82125000D02*
X151273654Y-82125000D01*
X144050000Y-83135050D02*
X144050000Y-84950000D01*
X153449585Y-81798519D02*
X153123104Y-82125000D01*
X147626100Y-80500000D02*
X145926100Y-82200000D01*
X144985050Y-82200000D02*
X144050000Y-83135050D01*
D22*
%TO.N,A1*%
X157868980Y-76330000D02*
X161000000Y-76330000D01*
X155450000Y-78748980D02*
X157868980Y-76330000D01*
X155450000Y-82800305D02*
X155450000Y-78748980D01*
X155250305Y-83000000D02*
X155450000Y-82800305D01*
X153149804Y-83000000D02*
X155250305Y-83000000D01*
X152600055Y-83549750D02*
X153149804Y-83000000D01*
X151799750Y-83549750D02*
X152600055Y-83549750D01*
X147727140Y-81000000D02*
X149250000Y-81000000D01*
X145302140Y-83425000D02*
X147727140Y-81000000D01*
X144750000Y-83425000D02*
X145302140Y-83425000D01*
X149250000Y-81000000D02*
X151799750Y-83549750D01*
%TO.N,GPS_EN*%
X144250000Y-86000000D02*
X145012653Y-85237347D01*
X144250000Y-86500000D02*
X144250000Y-86000000D01*
X142825000Y-87925000D02*
X144250000Y-86500000D01*
X141675000Y-87925000D02*
X142825000Y-87925000D01*
X141075000Y-83210000D02*
X141075000Y-87325000D01*
X141075000Y-87325000D02*
X141675000Y-87925000D01*
X144750000Y-58113604D02*
X144750000Y-79535000D01*
X148063604Y-54800000D02*
X144750000Y-58113604D01*
X153500000Y-55750000D02*
X152550000Y-54800000D01*
X153500000Y-59000000D02*
X153500000Y-55750000D01*
X152550000Y-54800000D02*
X148063604Y-54800000D01*
X144750000Y-79535000D02*
X141075000Y-83210000D01*
D24*
%TO.N,+BATT*%
X142294431Y-66794431D02*
X142294431Y-63452157D01*
X143500000Y-68000000D02*
X142294431Y-66794431D01*
X143500000Y-74250000D02*
X143500000Y-68000000D01*
X144000000Y-74750000D02*
X143500000Y-74250000D01*
D22*
%TO.N,SDN*%
X155357513Y-86357513D02*
X154382819Y-86357513D01*
X156250000Y-93025306D02*
X156250000Y-87250000D01*
X155052263Y-94223043D02*
X156250000Y-93025306D01*
X156250000Y-87250000D02*
X155357513Y-86357513D01*
%TO.N,+3.3V*%
X150500000Y-68362500D02*
X150500000Y-71420402D01*
X153607500Y-65255000D02*
X150500000Y-68362500D01*
X154532500Y-65255000D02*
X153607500Y-65255000D01*
X150500000Y-71420402D02*
X151506122Y-72426524D01*
%TO.N,ERROR*%
X153251598Y-94998402D02*
X152855075Y-94998402D01*
X155000000Y-93250000D02*
X153251598Y-94998402D01*
X154777739Y-89928107D02*
X155000000Y-90150368D01*
X155000000Y-90150368D02*
X155000000Y-93250000D01*
%TO.N,RF_SS*%
X151120405Y-94250000D02*
X150549890Y-93679485D01*
X153363604Y-94250000D02*
X151120405Y-94250000D01*
X154250000Y-93363604D02*
X153363604Y-94250000D01*
X154052739Y-89627802D02*
X154052739Y-90228412D01*
X154477434Y-89203107D02*
X154052739Y-89627802D01*
X154500000Y-89203107D02*
X154477434Y-89203107D01*
X154500000Y-87500000D02*
X154500000Y-89203107D01*
X153500000Y-86500000D02*
X154500000Y-87500000D01*
X153798960Y-84682384D02*
X153500000Y-84981344D01*
X154250000Y-90425673D02*
X154250000Y-93363604D01*
X154052739Y-90228412D02*
X154250000Y-90425673D01*
X153500000Y-84981344D02*
X153500000Y-86500000D01*
%TO.N,TXD*%
X151361090Y-80975000D02*
X151749999Y-80975000D01*
X147175000Y-76788910D02*
X151361090Y-80975000D01*
X147175000Y-70048654D02*
X147175000Y-76788910D01*
X150805266Y-56000000D02*
X148136396Y-56000000D01*
X146000000Y-68873654D02*
X147175000Y-70048654D01*
X151055266Y-56250000D02*
X150805266Y-56000000D01*
X148136396Y-56000000D02*
X146000000Y-58136396D01*
X146000000Y-58136396D02*
X146000000Y-68873654D01*
X152250000Y-56250000D02*
X151055266Y-56250000D01*
%TO.N,RXD*%
X151449694Y-81700000D02*
X152133887Y-81700000D01*
X145500000Y-69010050D02*
X146725000Y-70235050D01*
X145500000Y-58000000D02*
X145500000Y-69010050D01*
X146725000Y-70235050D02*
X146725000Y-76975306D01*
X147975000Y-55525000D02*
X145500000Y-58000000D01*
X152133887Y-81700000D02*
X152743299Y-81090588D01*
X151355571Y-55525000D02*
X147975000Y-55525000D01*
X146725000Y-76975306D02*
X151449694Y-81700000D01*
%TO.N,+BATT*%
X148500000Y-58750000D02*
X148075000Y-59175000D01*
%TO.N,nRST*%
X141250000Y-106060000D02*
X141250000Y-96875000D01*
X141520000Y-106330000D02*
X141250000Y-106060000D01*
%TO.N,SWCLK*%
X144300000Y-102520000D02*
X142850000Y-102520000D01*
X143750000Y-100000000D02*
X144500000Y-100750000D01*
X144400000Y-95986396D02*
X143750000Y-96636396D01*
X144400000Y-88372792D02*
X144400000Y-95986396D01*
X148995789Y-84383850D02*
X148307490Y-85072149D01*
X148995789Y-82688423D02*
X148995789Y-84383850D01*
X148696470Y-82389104D02*
X148995789Y-82688423D01*
%TO.N,SWDIO*%
X142250000Y-100650000D02*
X142850000Y-101250000D01*
X142250000Y-97500000D02*
X142250000Y-100650000D01*
X143950000Y-95800000D02*
X142250000Y-97500000D01*
X143950000Y-88186396D02*
X143950000Y-95800000D01*
X147514247Y-84622149D02*
X143950000Y-88186396D01*
%TO.N,SWCLK*%
X148307490Y-85072149D02*
X147700643Y-85072149D01*
%TO.N,SWDIO*%
X148545789Y-84197454D02*
X148121094Y-84622149D01*
X148545789Y-83596844D02*
X148545789Y-84197454D01*
X148121094Y-83172149D02*
X148545789Y-83596844D01*
%TO.N,SWCLK*%
X147700643Y-85072149D02*
X144400000Y-88372792D01*
%TO.N,SWDIO*%
X148119687Y-83172149D02*
X148121094Y-83172149D01*
%TO.N,SWCLK*%
X144500000Y-100750000D02*
X144500000Y-102320000D01*
%TO.N,SWDIO*%
X147822340Y-82874802D02*
X148119687Y-83172149D01*
%TO.N,Earth*%
X146750000Y-103790000D02*
X146750000Y-102520000D01*
%TO.N,SWCLK*%
X144500000Y-102320000D02*
X144300000Y-102520000D01*
%TO.N,nRST*%
X141250000Y-96875000D02*
X142500000Y-95625000D01*
%TO.N,SWDIO*%
X148121094Y-84622149D02*
X147514247Y-84622149D01*
%TO.N,nRST*%
X142850000Y-106330000D02*
X141520000Y-106330000D01*
%TO.N,SWCLK*%
X143750000Y-96636396D02*
X143750000Y-100000000D01*
%TO.N,SUCCESS*%
X144850000Y-89025000D02*
X145125000Y-88750000D01*
X144250000Y-99863604D02*
X144250000Y-96772792D01*
X144950000Y-102800000D02*
X144950000Y-100563604D01*
X144658181Y-103091819D02*
X144950000Y-102800000D01*
X144850000Y-96172792D02*
X144850000Y-89025000D01*
X144658181Y-106154179D02*
X144658181Y-103091819D01*
X144950000Y-100563604D02*
X144250000Y-99863604D01*
X144250000Y-96772792D02*
X144850000Y-96172792D01*
X144725178Y-106221176D02*
X144658181Y-106154179D01*
%TO.N,GPIO1*%
X148040514Y-90750000D02*
X147500000Y-90750000D01*
X148176166Y-90614348D02*
X148040514Y-90750000D01*
X147500000Y-90750000D02*
X146637653Y-89887653D01*
X146637653Y-89887653D02*
X146637653Y-87887653D01*
%TO.N,SCL*%
X162500000Y-81250000D02*
X162000000Y-80750000D01*
X162000000Y-80750000D02*
X158500000Y-80750000D01*
X161000000Y-87780000D02*
X162500000Y-86280000D01*
X158500000Y-80750000D02*
X157000000Y-79250000D01*
X162500000Y-86280000D02*
X162500000Y-81250000D01*
%TO.N,nRST*%
X143500000Y-94625000D02*
X142500000Y-95625000D01*
X147602851Y-83897149D02*
X143500000Y-88000000D01*
X147820789Y-83897149D02*
X147602851Y-83897149D01*
X143500000Y-88000000D02*
X143500000Y-94625000D01*
%TD*%
%TA.AperFunction,Conductor*%
%TO.N,Earth*%
G36*
X159890845Y-85095185D02*
G01*
X159936600Y-85147989D01*
X159947209Y-85211655D01*
X159944417Y-85240000D01*
X159964699Y-85445932D01*
X159982593Y-85504921D01*
X160024768Y-85643954D01*
X160122315Y-85826450D01*
X160122317Y-85826452D01*
X160253589Y-85986410D01*
X160336187Y-86054195D01*
X160413550Y-86117685D01*
X160596046Y-86215232D01*
X160794066Y-86275300D01*
X160794065Y-86275300D01*
X160812529Y-86277118D01*
X161000000Y-86295583D01*
X161205934Y-86275300D01*
X161403954Y-86215232D01*
X161586450Y-86117685D01*
X161746410Y-85986410D01*
X161877685Y-85826450D01*
X161941142Y-85707730D01*
X161990105Y-85657887D01*
X162058243Y-85642427D01*
X162123922Y-85666259D01*
X162166291Y-85721817D01*
X162174500Y-85766185D01*
X162174500Y-86093810D01*
X162154815Y-86160849D01*
X162138181Y-86181491D01*
X161540994Y-86778677D01*
X161479671Y-86812162D01*
X161409979Y-86807178D01*
X161405869Y-86805561D01*
X161403958Y-86804769D01*
X161270689Y-86764343D01*
X161205934Y-86744700D01*
X161205932Y-86744699D01*
X161205934Y-86744699D01*
X161000000Y-86724417D01*
X160794067Y-86744699D01*
X160596043Y-86804769D01*
X160523743Y-86843415D01*
X160413550Y-86902315D01*
X160413548Y-86902316D01*
X160413547Y-86902317D01*
X160253589Y-87033589D01*
X160122317Y-87193547D01*
X160122315Y-87193550D01*
X160097735Y-87239535D01*
X160024769Y-87376043D01*
X159964699Y-87574067D01*
X159944417Y-87780000D01*
X159964699Y-87985932D01*
X159979835Y-88035827D01*
X160024768Y-88183954D01*
X160122315Y-88366450D01*
X160122317Y-88366452D01*
X160253589Y-88526410D01*
X160335022Y-88593239D01*
X160413550Y-88657685D01*
X160596046Y-88755232D01*
X160794066Y-88815300D01*
X160794065Y-88815300D01*
X160812529Y-88817118D01*
X161000000Y-88835583D01*
X161205934Y-88815300D01*
X161403954Y-88755232D01*
X161586450Y-88657685D01*
X161746410Y-88526410D01*
X161877685Y-88366450D01*
X161975232Y-88183954D01*
X162035300Y-87985934D01*
X162055583Y-87780000D01*
X162035300Y-87574066D01*
X161975232Y-87376046D01*
X161975230Y-87376043D01*
X161975230Y-87376041D01*
X161974444Y-87374144D01*
X161974328Y-87373068D01*
X161973463Y-87370216D01*
X161974003Y-87370051D01*
X161966971Y-87304675D01*
X161998242Y-87242194D01*
X162001291Y-87239034D01*
X162760465Y-86479862D01*
X162767783Y-86467185D01*
X162818344Y-86418972D01*
X162886950Y-86405745D01*
X162951816Y-86431709D01*
X162992348Y-86488621D01*
X162999170Y-86529187D01*
X162998712Y-107805093D01*
X162979026Y-107872132D01*
X162926221Y-107917885D01*
X162874699Y-107929090D01*
X146337092Y-107927354D01*
X146270055Y-107907662D01*
X146224305Y-107854854D01*
X146214369Y-107785694D01*
X146238729Y-107727868D01*
X146274427Y-107681345D01*
X146318421Y-107624013D01*
X146374849Y-107582811D01*
X146416796Y-107575500D01*
X148792851Y-107575500D01*
X148792853Y-107575500D01*
X148875639Y-107553318D01*
X148949862Y-107510465D01*
X149631488Y-106828839D01*
X149674341Y-106754616D01*
X149696523Y-106671830D01*
X149696523Y-106586124D01*
X149696523Y-105665790D01*
X152705380Y-105665790D01*
X152725907Y-105887325D01*
X152725908Y-105887327D01*
X152786792Y-106101313D01*
X152786798Y-106101328D01*
X152885961Y-106300473D01*
X152885966Y-106300481D01*
X153020043Y-106478028D01*
X153184460Y-106627913D01*
X153184462Y-106627915D01*
X153373618Y-106745035D01*
X153373619Y-106745035D01*
X153373622Y-106745037D01*
X153581083Y-106825408D01*
X153799780Y-106866290D01*
X153799782Y-106866290D01*
X154022264Y-106866290D01*
X154022266Y-106866290D01*
X154240963Y-106825408D01*
X154448424Y-106745037D01*
X154637585Y-106627914D01*
X154802004Y-106478026D01*
X154936081Y-106300479D01*
X155035252Y-106101318D01*
X155096138Y-105887326D01*
X155116666Y-105665790D01*
X155111694Y-105612138D01*
X155096138Y-105444254D01*
X155096137Y-105444252D01*
X155035253Y-105230266D01*
X155035252Y-105230262D01*
X155035247Y-105230251D01*
X154936084Y-105031106D01*
X154936079Y-105031098D01*
X154802002Y-104853551D01*
X154637585Y-104703666D01*
X154637583Y-104703664D01*
X154448427Y-104586544D01*
X154448421Y-104586542D01*
X154240963Y-104506172D01*
X154022266Y-104465290D01*
X153799780Y-104465290D01*
X153581083Y-104506172D01*
X153479703Y-104545447D01*
X153373624Y-104586542D01*
X153373618Y-104586544D01*
X153184462Y-104703664D01*
X153184460Y-104703666D01*
X153020043Y-104853551D01*
X152885966Y-105031098D01*
X152885961Y-105031106D01*
X152786798Y-105230251D01*
X152786792Y-105230266D01*
X152725908Y-105444252D01*
X152725907Y-105444254D01*
X152705380Y-105665789D01*
X152705380Y-105665790D01*
X149696523Y-105665790D01*
X149696523Y-103628170D01*
X149674341Y-103545385D01*
X149674337Y-103545378D01*
X149631492Y-103471167D01*
X149631486Y-103471159D01*
X149086819Y-102926492D01*
X149053334Y-102865169D01*
X149050500Y-102838811D01*
X149050500Y-98711189D01*
X149070185Y-98644150D01*
X149086819Y-98623508D01*
X149348508Y-98361819D01*
X149409831Y-98328334D01*
X149436189Y-98325500D01*
X151309152Y-98325500D01*
X151376191Y-98345185D01*
X151421946Y-98397989D01*
X151423713Y-98402048D01*
X151475816Y-98527838D01*
X151475817Y-98527839D01*
X151475818Y-98527841D01*
X151572072Y-98653282D01*
X151697513Y-98749536D01*
X151843592Y-98810044D01*
X151921973Y-98820363D01*
X152000353Y-98830682D01*
X152000354Y-98830682D01*
X152000355Y-98830682D01*
X152075560Y-98820781D01*
X152157116Y-98810044D01*
X152303195Y-98749536D01*
X152303200Y-98749531D01*
X152303907Y-98749125D01*
X152304582Y-98748961D01*
X152304750Y-98748891D01*
X152308949Y-98745120D01*
X152428636Y-98653282D01*
X152524890Y-98527841D01*
X152585398Y-98381762D01*
X152606036Y-98225000D01*
X152602726Y-98199861D01*
X152585398Y-98068239D01*
X152585396Y-98068234D01*
X152555871Y-97996952D01*
X152548402Y-97927483D01*
X152579678Y-97865004D01*
X152639767Y-97829352D01*
X152670432Y-97825500D01*
X154589116Y-97825500D01*
X154656155Y-97845185D01*
X154676797Y-97861819D01*
X155752797Y-98937819D01*
X155786282Y-98999142D01*
X155781298Y-99068834D01*
X155739426Y-99124767D01*
X155673962Y-99149184D01*
X155665116Y-99149500D01*
X153318299Y-99149500D01*
X153251260Y-99129815D01*
X153219923Y-99100986D01*
X153178283Y-99046719D01*
X153122162Y-99003656D01*
X153052841Y-98950464D01*
X153022313Y-98937819D01*
X152906762Y-98889956D01*
X152906760Y-98889955D01*
X152750001Y-98869318D01*
X152749999Y-98869318D01*
X152593239Y-98889955D01*
X152593237Y-98889956D01*
X152447150Y-98950467D01*
X152446429Y-98950884D01*
X152445744Y-98951049D01*
X152445599Y-98951109D01*
X152441396Y-98954885D01*
X152377838Y-99003656D01*
X152321718Y-99046718D01*
X152225463Y-99172160D01*
X152164956Y-99318237D01*
X152164955Y-99318239D01*
X152144318Y-99474998D01*
X152144318Y-99475001D01*
X152164955Y-99631760D01*
X152164956Y-99631762D01*
X152225464Y-99777841D01*
X152321718Y-99903282D01*
X152447159Y-99999536D01*
X152593238Y-100060044D01*
X152671619Y-100070363D01*
X152749999Y-100080682D01*
X152750000Y-100080682D01*
X152750001Y-100080682D01*
X152802254Y-100073802D01*
X152906762Y-100060044D01*
X153052841Y-99999536D01*
X153178282Y-99903282D01*
X153219923Y-99849013D01*
X153276351Y-99807811D01*
X153318299Y-99800500D01*
X158042222Y-99800500D01*
X158109261Y-99820185D01*
X158155016Y-99872989D01*
X158162487Y-99899009D01*
X158162853Y-99898912D01*
X158164956Y-99906762D01*
X158224449Y-100050392D01*
X158225464Y-100052841D01*
X158321718Y-100178282D01*
X158447159Y-100274536D01*
X158593238Y-100335044D01*
X158642028Y-100341467D01*
X158705925Y-100369733D01*
X158744396Y-100428057D01*
X158749843Y-100464406D01*
X158749843Y-107672867D01*
X159249843Y-107672867D01*
X159249843Y-100792477D01*
X159269528Y-100725438D01*
X159322332Y-100679683D01*
X159391490Y-100669739D01*
X159455046Y-100698764D01*
X159481230Y-100730478D01*
X159489535Y-100744862D01*
X159489537Y-100744864D01*
X159998678Y-101254005D01*
X160032163Y-101315328D01*
X160027179Y-101385020D01*
X160025561Y-101389132D01*
X160024770Y-101391041D01*
X159964699Y-101589067D01*
X159944417Y-101795000D01*
X159964699Y-102000932D01*
X159964700Y-102000934D01*
X160024768Y-102198954D01*
X160122315Y-102381450D01*
X160122317Y-102381452D01*
X160253589Y-102541410D01*
X160350209Y-102620702D01*
X160413550Y-102672685D01*
X160596046Y-102770232D01*
X160794066Y-102830300D01*
X160794065Y-102830300D01*
X160812529Y-102832118D01*
X161000000Y-102850583D01*
X161205934Y-102830300D01*
X161403954Y-102770232D01*
X161586450Y-102672685D01*
X161746410Y-102541410D01*
X161877685Y-102381450D01*
X161975232Y-102198954D01*
X162035300Y-102000934D01*
X162055583Y-101795000D01*
X162035300Y-101589066D01*
X161975232Y-101391046D01*
X161877685Y-101208550D01*
X161825702Y-101145209D01*
X161746410Y-101048589D01*
X161586452Y-100917317D01*
X161586453Y-100917317D01*
X161586450Y-100917315D01*
X161403954Y-100819768D01*
X161205934Y-100759700D01*
X161205932Y-100759699D01*
X161205934Y-100759699D01*
X161000000Y-100739417D01*
X160794067Y-100759699D01*
X160686013Y-100792477D01*
X160596046Y-100819768D01*
X160596043Y-100819769D01*
X160596041Y-100819770D01*
X160594132Y-100820561D01*
X160593051Y-100820677D01*
X160590217Y-100821537D01*
X160590053Y-100820999D01*
X160524662Y-100828026D01*
X160462185Y-100796747D01*
X160459005Y-100793678D01*
X160111819Y-100446492D01*
X160078334Y-100385169D01*
X160075500Y-100358811D01*
X160075500Y-100117431D01*
X160095185Y-100050392D01*
X160147989Y-100004637D01*
X160217147Y-99994693D01*
X160278165Y-100021578D01*
X160404965Y-100125640D01*
X160413550Y-100132685D01*
X160596046Y-100230232D01*
X160794066Y-100290300D01*
X160794065Y-100290300D01*
X160812529Y-100292118D01*
X161000000Y-100310583D01*
X161205934Y-100290300D01*
X161403954Y-100230232D01*
X161586450Y-100132685D01*
X161746410Y-100001410D01*
X161877685Y-99841450D01*
X161975232Y-99658954D01*
X162035300Y-99460934D01*
X162055583Y-99255000D01*
X162035300Y-99049066D01*
X161975232Y-98851046D01*
X161877685Y-98668550D01*
X161784281Y-98554736D01*
X161746410Y-98508589D01*
X161613317Y-98399364D01*
X161586450Y-98377315D01*
X161403954Y-98279768D01*
X161205934Y-98219700D01*
X161205932Y-98219699D01*
X161205934Y-98219699D01*
X161000000Y-98199417D01*
X160794067Y-98219699D01*
X160636689Y-98267439D01*
X160596046Y-98279768D01*
X160596045Y-98279768D01*
X160596040Y-98279770D01*
X160595480Y-98280070D01*
X160595150Y-98280138D01*
X160590415Y-98282100D01*
X160590042Y-98281201D01*
X160527076Y-98294303D01*
X160475041Y-98278091D01*
X160455430Y-98266769D01*
X160420640Y-98246682D01*
X160379246Y-98235591D01*
X160337853Y-98224500D01*
X160337852Y-98224500D01*
X159324862Y-98224500D01*
X159257823Y-98204815D01*
X159212068Y-98152011D01*
X159202124Y-98082853D01*
X159231149Y-98019297D01*
X159237181Y-98012819D01*
X159250000Y-98000000D01*
X159250000Y-96715000D01*
X159944417Y-96715000D01*
X159964699Y-96920932D01*
X159984275Y-96985465D01*
X160024768Y-97118954D01*
X160122315Y-97301450D01*
X160122317Y-97301452D01*
X160253589Y-97461410D01*
X160350209Y-97540702D01*
X160413550Y-97592685D01*
X160596046Y-97690232D01*
X160794066Y-97750300D01*
X160794065Y-97750300D01*
X160812529Y-97752118D01*
X161000000Y-97770583D01*
X161205934Y-97750300D01*
X161403954Y-97690232D01*
X161586450Y-97592685D01*
X161746410Y-97461410D01*
X161877685Y-97301450D01*
X161975232Y-97118954D01*
X162035300Y-96920934D01*
X162055583Y-96715000D01*
X162035300Y-96509066D01*
X161975232Y-96311046D01*
X161877685Y-96128550D01*
X161812784Y-96049467D01*
X161746410Y-95968589D01*
X161586452Y-95837317D01*
X161586453Y-95837317D01*
X161586450Y-95837315D01*
X161403954Y-95739768D01*
X161205934Y-95679700D01*
X161205932Y-95679699D01*
X161205934Y-95679699D01*
X161000000Y-95659417D01*
X160794067Y-95679699D01*
X160596043Y-95739769D01*
X160517485Y-95781760D01*
X160413550Y-95837315D01*
X160413548Y-95837316D01*
X160413547Y-95837317D01*
X160253589Y-95968589D01*
X160122317Y-96128547D01*
X160024769Y-96311043D01*
X159964699Y-96509067D01*
X159944417Y-96715000D01*
X159250000Y-96715000D01*
X159250000Y-95044752D01*
X159949500Y-95044752D01*
X159961131Y-95103229D01*
X159961132Y-95103230D01*
X160005447Y-95169552D01*
X160071769Y-95213867D01*
X160071770Y-95213868D01*
X160130247Y-95225499D01*
X160130250Y-95225500D01*
X160130252Y-95225500D01*
X161869750Y-95225500D01*
X161869751Y-95225499D01*
X161884568Y-95222552D01*
X161928229Y-95213868D01*
X161928229Y-95213867D01*
X161928231Y-95213867D01*
X161994552Y-95169552D01*
X162038867Y-95103231D01*
X162038867Y-95103229D01*
X162038868Y-95103229D01*
X162050499Y-95044752D01*
X162050500Y-95044750D01*
X162050500Y-93305249D01*
X162050499Y-93305247D01*
X162038868Y-93246770D01*
X162038867Y-93246769D01*
X161994552Y-93180447D01*
X161928230Y-93136132D01*
X161928229Y-93136131D01*
X161869752Y-93124500D01*
X161869748Y-93124500D01*
X160130252Y-93124500D01*
X160130247Y-93124500D01*
X160071770Y-93136131D01*
X160071769Y-93136132D01*
X160005447Y-93180447D01*
X159961132Y-93246769D01*
X159961131Y-93246770D01*
X159949500Y-93305247D01*
X159949500Y-95044752D01*
X159250000Y-95044752D01*
X159250000Y-85500000D01*
X158750000Y-85500000D01*
X158750000Y-98000000D01*
X158762819Y-98012819D01*
X158796304Y-98074142D01*
X158791320Y-98143834D01*
X158749448Y-98199767D01*
X158683984Y-98224184D01*
X158675138Y-98224500D01*
X158236189Y-98224500D01*
X158169150Y-98204815D01*
X158148508Y-98188181D01*
X157861819Y-97901492D01*
X157828334Y-97840169D01*
X157825500Y-97813811D01*
X157825500Y-95957149D01*
X157825500Y-95957147D01*
X157803318Y-95874362D01*
X157771333Y-95818962D01*
X157754861Y-95751066D01*
X157777713Y-95685039D01*
X157791034Y-95669290D01*
X158164652Y-95295673D01*
X158164657Y-95295669D01*
X158174860Y-95285465D01*
X158174862Y-95285465D01*
X158235465Y-95224862D01*
X158275705Y-95155164D01*
X158278318Y-95150639D01*
X158300500Y-95067853D01*
X158300500Y-94982147D01*
X158300500Y-87182147D01*
X158278318Y-87099362D01*
X158278314Y-87099355D01*
X158235469Y-87025144D01*
X158235463Y-87025136D01*
X157941479Y-86731152D01*
X157907994Y-86669829D01*
X157912978Y-86600137D01*
X157954850Y-86544204D01*
X157981697Y-86528915D01*
X158052994Y-86499383D01*
X158178435Y-86403129D01*
X158274689Y-86277688D01*
X158335197Y-86131609D01*
X158355835Y-85974847D01*
X158353504Y-85957145D01*
X158337755Y-85837514D01*
X158335197Y-85818085D01*
X158274689Y-85672006D01*
X158178435Y-85546565D01*
X158178433Y-85546563D01*
X158178432Y-85546562D01*
X158124165Y-85504921D01*
X158082963Y-85448493D01*
X158075653Y-85406546D01*
X158075653Y-85199500D01*
X158095338Y-85132461D01*
X158148142Y-85086706D01*
X158199653Y-85075500D01*
X159823806Y-85075500D01*
X159890845Y-85095185D01*
G37*
%TD.AperFunction*%
%TA.AperFunction,Conductor*%
G36*
X148822539Y-48269685D02*
G01*
X148868294Y-48322489D01*
X148879500Y-48374000D01*
X148879500Y-48474752D01*
X148891131Y-48533229D01*
X148891132Y-48533230D01*
X148935447Y-48599552D01*
X149001769Y-48643867D01*
X149001770Y-48643868D01*
X149060247Y-48655499D01*
X149060250Y-48655500D01*
X149060252Y-48655500D01*
X151439750Y-48655500D01*
X151439751Y-48655499D01*
X151454568Y-48652552D01*
X151498229Y-48643868D01*
X151498229Y-48643867D01*
X151498231Y-48643867D01*
X151564552Y-48599552D01*
X151608867Y-48533231D01*
X151608867Y-48533229D01*
X151608868Y-48533229D01*
X151620499Y-48474752D01*
X151620500Y-48474750D01*
X151620500Y-48374000D01*
X151640185Y-48306961D01*
X151692989Y-48261206D01*
X151744500Y-48250000D01*
X158626000Y-48250000D01*
X158693039Y-48269685D01*
X158738794Y-48322489D01*
X158750000Y-48374000D01*
X158750000Y-62637231D01*
X158730315Y-62704270D01*
X158677511Y-62750025D01*
X158626000Y-62761231D01*
X158572995Y-62761231D01*
X158505956Y-62741546D01*
X158460201Y-62688742D01*
X158448995Y-62637231D01*
X158448995Y-57580644D01*
X158448995Y-57580642D01*
X158426813Y-57497857D01*
X158397543Y-57447159D01*
X158383964Y-57423639D01*
X158383958Y-57423631D01*
X153699864Y-52739537D01*
X153699862Y-52739535D01*
X153662750Y-52718108D01*
X153625640Y-52696682D01*
X153584246Y-52685591D01*
X153542853Y-52674500D01*
X153542852Y-52674500D01*
X147186189Y-52674500D01*
X147119150Y-52654815D01*
X147098508Y-52638181D01*
X144437211Y-49976884D01*
X144437209Y-49976882D01*
X144400097Y-49955455D01*
X144362987Y-49934029D01*
X144321593Y-49922938D01*
X144280200Y-49911847D01*
X144280199Y-49911847D01*
X142805646Y-49911847D01*
X142738607Y-49892162D01*
X142707270Y-49863333D01*
X142665630Y-49809066D01*
X142665629Y-49809065D01*
X142540188Y-49712811D01*
X142394109Y-49652303D01*
X142394107Y-49652302D01*
X142237348Y-49631665D01*
X142237346Y-49631665D01*
X142080586Y-49652302D01*
X142080584Y-49652303D01*
X141934507Y-49712810D01*
X141809065Y-49809065D01*
X141712810Y-49934507D01*
X141652303Y-50080584D01*
X141652302Y-50080586D01*
X141631665Y-50237345D01*
X141631665Y-50237348D01*
X141652302Y-50394107D01*
X141652303Y-50394109D01*
X141712811Y-50540188D01*
X141809065Y-50665629D01*
X141934506Y-50761883D01*
X142080585Y-50822391D01*
X142158966Y-50832710D01*
X142237346Y-50843029D01*
X142237347Y-50843029D01*
X142237348Y-50843029D01*
X142289601Y-50836149D01*
X142394109Y-50822391D01*
X142540188Y-50761883D01*
X142665629Y-50665629D01*
X142707270Y-50611360D01*
X142763698Y-50570158D01*
X142805646Y-50562847D01*
X144051158Y-50562847D01*
X144118197Y-50582532D01*
X144138839Y-50599166D01*
X146739534Y-53199861D01*
X146739535Y-53199862D01*
X146800138Y-53260465D01*
X146800140Y-53260466D01*
X146800144Y-53260469D01*
X146874355Y-53303314D01*
X146874362Y-53303318D01*
X146957147Y-53325500D01*
X147042853Y-53325500D01*
X153313811Y-53325500D01*
X153380850Y-53345185D01*
X153401492Y-53361819D01*
X157761676Y-57722003D01*
X157795161Y-57783326D01*
X157797995Y-57809684D01*
X157797995Y-72777358D01*
X157778310Y-72844397D01*
X157761676Y-72865039D01*
X156401803Y-74224912D01*
X156340480Y-74258397D01*
X156314122Y-74261231D01*
X147624500Y-74261231D01*
X147557461Y-74241546D01*
X147511706Y-74188742D01*
X147500500Y-74137231D01*
X147500500Y-71463255D01*
X150174500Y-71463255D01*
X150184283Y-71499767D01*
X150196682Y-71546042D01*
X150218108Y-71583152D01*
X150239535Y-71620264D01*
X150239537Y-71620266D01*
X150874110Y-72254839D01*
X150907595Y-72316162D01*
X150909368Y-72358705D01*
X150900440Y-72426522D01*
X150900440Y-72426525D01*
X150921077Y-72583284D01*
X150921078Y-72583286D01*
X150981586Y-72729365D01*
X151077840Y-72854806D01*
X151203281Y-72951060D01*
X151349360Y-73011568D01*
X151427741Y-73021887D01*
X151506121Y-73032206D01*
X151506122Y-73032206D01*
X151506123Y-73032206D01*
X151558376Y-73025326D01*
X151662884Y-73011568D01*
X151808963Y-72951060D01*
X151934404Y-72854806D01*
X152030658Y-72729365D01*
X152091166Y-72583286D01*
X152111804Y-72426524D01*
X152091166Y-72269762D01*
X152030658Y-72123683D01*
X151934404Y-71998242D01*
X151808963Y-71901988D01*
X151747410Y-71876492D01*
X151662884Y-71841480D01*
X151662882Y-71841479D01*
X151506123Y-71820842D01*
X151506121Y-71820842D01*
X151438303Y-71829770D01*
X151369267Y-71819004D01*
X151334437Y-71794512D01*
X150861819Y-71321894D01*
X150828334Y-71260571D01*
X150825500Y-71234213D01*
X150825500Y-68548688D01*
X150845185Y-68481649D01*
X150861819Y-68461007D01*
X153706007Y-65616819D01*
X153767330Y-65583334D01*
X153793688Y-65580500D01*
X153964201Y-65580500D01*
X154031240Y-65600185D01*
X154062576Y-65629013D01*
X154104218Y-65683282D01*
X154167974Y-65732203D01*
X154209175Y-65788630D01*
X154213330Y-65858376D01*
X154179118Y-65919296D01*
X154139940Y-65945139D01*
X154054659Y-65980464D01*
X153929218Y-66076718D01*
X153832963Y-66202160D01*
X153772456Y-66348237D01*
X153772455Y-66348239D01*
X153751818Y-66504998D01*
X153751818Y-66505001D01*
X153772455Y-66661760D01*
X153772456Y-66661762D01*
X153832964Y-66807841D01*
X153929218Y-66933282D01*
X154054659Y-67029536D01*
X154200738Y-67090044D01*
X154279119Y-67100363D01*
X154357499Y-67110682D01*
X154357500Y-67110682D01*
X154357501Y-67110682D01*
X154409754Y-67103802D01*
X154514262Y-67090044D01*
X154660341Y-67029536D01*
X154785782Y-66933282D01*
X154882036Y-66807841D01*
X154942544Y-66661762D01*
X154963182Y-66505000D01*
X154942544Y-66348238D01*
X154882036Y-66202159D01*
X154785782Y-66076718D01*
X154722025Y-66027795D01*
X154680824Y-65971369D01*
X154676669Y-65901623D01*
X154710882Y-65840702D01*
X154750061Y-65814860D01*
X154813386Y-65788630D01*
X154835341Y-65779536D01*
X154960782Y-65683282D01*
X155057036Y-65557841D01*
X155117544Y-65411762D01*
X155138182Y-65255000D01*
X155117544Y-65098238D01*
X155057036Y-64952159D01*
X154960782Y-64826718D01*
X154835341Y-64730464D01*
X154817377Y-64723023D01*
X154762973Y-64679181D01*
X154740909Y-64612887D01*
X154758189Y-64545188D01*
X154789341Y-64510088D01*
X154805887Y-64497393D01*
X154902141Y-64371952D01*
X154962649Y-64225873D01*
X154983287Y-64069111D01*
X154962649Y-63912349D01*
X154902141Y-63766270D01*
X154805887Y-63640829D01*
X154785540Y-63625216D01*
X154744338Y-63568788D01*
X154740183Y-63499042D01*
X154774396Y-63438122D01*
X154785531Y-63428474D01*
X154785782Y-63428282D01*
X154882036Y-63302841D01*
X154942544Y-63156762D01*
X154963182Y-63000000D01*
X154942544Y-62843238D01*
X154882036Y-62697159D01*
X154785782Y-62571718D01*
X154660341Y-62475464D01*
X154617223Y-62457604D01*
X154514262Y-62414956D01*
X154514260Y-62414955D01*
X154357501Y-62394318D01*
X154357499Y-62394318D01*
X154200739Y-62414955D01*
X154200737Y-62414956D01*
X154054660Y-62475463D01*
X153929218Y-62571718D01*
X153832963Y-62697160D01*
X153772456Y-62843237D01*
X153772455Y-62843239D01*
X153751818Y-62999998D01*
X153751818Y-63000001D01*
X153772455Y-63156760D01*
X153772456Y-63156762D01*
X153832964Y-63302841D01*
X153929215Y-63428278D01*
X153929219Y-63428283D01*
X153949563Y-63443893D01*
X153990766Y-63500321D01*
X153994921Y-63570067D01*
X153960709Y-63630987D01*
X153949571Y-63640637D01*
X153949384Y-63640781D01*
X153949324Y-63640828D01*
X153853068Y-63766271D01*
X153792561Y-63912348D01*
X153792560Y-63912350D01*
X153771923Y-64069109D01*
X153771923Y-64069112D01*
X153792560Y-64225871D01*
X153792561Y-64225873D01*
X153853069Y-64371952D01*
X153949323Y-64497393D01*
X154074764Y-64593647D01*
X154092726Y-64601087D01*
X154147129Y-64644927D01*
X154169195Y-64711220D01*
X154151917Y-64778920D01*
X154120764Y-64814021D01*
X154104218Y-64826717D01*
X154062577Y-64880986D01*
X154006149Y-64922189D01*
X153964201Y-64929500D01*
X153657965Y-64929500D01*
X153657949Y-64929499D01*
X153650353Y-64929499D01*
X153564647Y-64929499D01*
X153531533Y-64938372D01*
X153481859Y-64951682D01*
X153481858Y-64951683D01*
X153407641Y-64994532D01*
X153407636Y-64994536D01*
X150239537Y-68162635D01*
X150239533Y-68162641D01*
X150196681Y-68236861D01*
X150196682Y-68236862D01*
X150174500Y-68319647D01*
X150174500Y-71377549D01*
X150174500Y-71463255D01*
X147500500Y-71463255D01*
X147500500Y-70005804D01*
X147500500Y-70005801D01*
X147492136Y-69974585D01*
X147478318Y-69923015D01*
X147435465Y-69848792D01*
X146969859Y-69383186D01*
X146936374Y-69321863D01*
X146933540Y-69295505D01*
X146933540Y-62385244D01*
X146953225Y-62318205D01*
X147006029Y-62272450D01*
X147057551Y-62261244D01*
X153684462Y-62261970D01*
X153684462Y-62011969D01*
X146683540Y-62011231D01*
X146683540Y-68797505D01*
X146663855Y-68864544D01*
X146611051Y-68910299D01*
X146541893Y-68920243D01*
X146478337Y-68891218D01*
X146471859Y-68885186D01*
X146361819Y-68775146D01*
X146328334Y-68713823D01*
X146325500Y-68687465D01*
X146325500Y-58322585D01*
X146345185Y-58255546D01*
X146361819Y-58234904D01*
X147297819Y-57298904D01*
X147359142Y-57265419D01*
X147428834Y-57270403D01*
X147484767Y-57312275D01*
X147509184Y-57377739D01*
X147509500Y-57386585D01*
X147509500Y-61324752D01*
X147521131Y-61383229D01*
X147521132Y-61383230D01*
X147565447Y-61449552D01*
X147631769Y-61493867D01*
X147631770Y-61493868D01*
X147690247Y-61505499D01*
X147690250Y-61505500D01*
X147690252Y-61505500D01*
X152809750Y-61505500D01*
X152809751Y-61505499D01*
X152824568Y-61502552D01*
X152868229Y-61493868D01*
X152868229Y-61493867D01*
X152868231Y-61493867D01*
X152934552Y-61449552D01*
X152978867Y-61383231D01*
X152978867Y-61383229D01*
X152978868Y-61383229D01*
X152990499Y-61324752D01*
X152990500Y-61324750D01*
X152990500Y-59617408D01*
X153010185Y-59550369D01*
X153062989Y-59504614D01*
X153132147Y-59494670D01*
X153189986Y-59519032D01*
X153197159Y-59524536D01*
X153343238Y-59585044D01*
X153421619Y-59595363D01*
X153499999Y-59605682D01*
X153500000Y-59605682D01*
X153500001Y-59605682D01*
X153552254Y-59598802D01*
X153656762Y-59585044D01*
X153802841Y-59524536D01*
X153928282Y-59428282D01*
X153928285Y-59428277D01*
X153933037Y-59423526D01*
X153994358Y-59390038D01*
X154064050Y-59395019D01*
X154119986Y-59436888D01*
X154143661Y-59495017D01*
X154150949Y-59550369D01*
X154164956Y-59656762D01*
X154225464Y-59802841D01*
X154321718Y-59928282D01*
X154447159Y-60024536D01*
X154593238Y-60085044D01*
X154671619Y-60095363D01*
X154749999Y-60105682D01*
X154750000Y-60105682D01*
X154750001Y-60105682D01*
X154802254Y-60098802D01*
X154906762Y-60085044D01*
X155052841Y-60024536D01*
X155178282Y-59928282D01*
X155274536Y-59802841D01*
X155335044Y-59656762D01*
X155355682Y-59500000D01*
X155354980Y-59494670D01*
X155335044Y-59343239D01*
X155335044Y-59343238D01*
X155274536Y-59197159D01*
X155178282Y-59071718D01*
X155052841Y-58975464D01*
X155012149Y-58958609D01*
X154906762Y-58914956D01*
X154906760Y-58914955D01*
X154750001Y-58894318D01*
X154749999Y-58894318D01*
X154593239Y-58914955D01*
X154593237Y-58914956D01*
X154447160Y-58975463D01*
X154447159Y-58975464D01*
X154321718Y-59071718D01*
X154321716Y-59071719D01*
X154321711Y-59071724D01*
X154316954Y-59076481D01*
X154255629Y-59109963D01*
X154185938Y-59104976D01*
X154130006Y-59063102D01*
X154106338Y-59004981D01*
X154085044Y-58843239D01*
X154085044Y-58843238D01*
X154024536Y-58697159D01*
X153928282Y-58571718D01*
X153928280Y-58571716D01*
X153928279Y-58571715D01*
X153874012Y-58530074D01*
X153832810Y-58473646D01*
X153825500Y-58431699D01*
X153825500Y-55707149D01*
X153825500Y-55707147D01*
X153803318Y-55624362D01*
X153803318Y-55624361D01*
X153760465Y-55550138D01*
X152749862Y-54539535D01*
X152712750Y-54518108D01*
X152675640Y-54496682D01*
X152634246Y-54485591D01*
X152592853Y-54474500D01*
X152592852Y-54474500D01*
X148114069Y-54474500D01*
X148114053Y-54474499D01*
X148106457Y-54474499D01*
X148020751Y-54474499D01*
X147965560Y-54489287D01*
X147937964Y-54496682D01*
X147919409Y-54507395D01*
X147900854Y-54518108D01*
X147863742Y-54539535D01*
X147863739Y-54539537D01*
X144489537Y-57913739D01*
X144489533Y-57913745D01*
X144446681Y-57987965D01*
X144446682Y-57987966D01*
X144424500Y-58070751D01*
X144424500Y-74061258D01*
X144404815Y-74128297D01*
X144352011Y-74174052D01*
X144282853Y-74183996D01*
X144219297Y-74154971D01*
X144212819Y-74148939D01*
X144111819Y-74047939D01*
X144078334Y-73986616D01*
X144075500Y-73960258D01*
X144075500Y-67924236D01*
X144075500Y-67924234D01*
X144036281Y-67777865D01*
X143960515Y-67646635D01*
X143853365Y-67539485D01*
X142906250Y-66592370D01*
X142872765Y-66531047D01*
X142869931Y-66504689D01*
X142869931Y-64626657D01*
X142889616Y-64559618D01*
X142942420Y-64513863D01*
X142993931Y-64502657D01*
X143164181Y-64502657D01*
X143164182Y-64502656D01*
X143178999Y-64499709D01*
X143222660Y-64491025D01*
X143222660Y-64491024D01*
X143222662Y-64491024D01*
X143288983Y-64446709D01*
X143333298Y-64380388D01*
X143333298Y-64380386D01*
X143333299Y-64380386D01*
X143344930Y-64321909D01*
X143344931Y-64321907D01*
X143344931Y-62582406D01*
X143344930Y-62582404D01*
X143333299Y-62523927D01*
X143333298Y-62523926D01*
X143288983Y-62457604D01*
X143222661Y-62413289D01*
X143222660Y-62413288D01*
X143164183Y-62401657D01*
X143164179Y-62401657D01*
X141424683Y-62401657D01*
X141424678Y-62401657D01*
X141366201Y-62413288D01*
X141366200Y-62413289D01*
X141299878Y-62457604D01*
X141255563Y-62523926D01*
X141255562Y-62523927D01*
X141243931Y-62582404D01*
X141243931Y-64321909D01*
X141255562Y-64380386D01*
X141255563Y-64380387D01*
X141299878Y-64446709D01*
X141366200Y-64491024D01*
X141366201Y-64491025D01*
X141424678Y-64502656D01*
X141424681Y-64502657D01*
X141424683Y-64502657D01*
X141594931Y-64502657D01*
X141661970Y-64522342D01*
X141707725Y-64575146D01*
X141718931Y-64626657D01*
X141718931Y-66870196D01*
X141758150Y-67016567D01*
X141765638Y-67029536D01*
X141833916Y-67147796D01*
X141833918Y-67147798D01*
X142176999Y-67490879D01*
X142210484Y-67552202D01*
X142205500Y-67621894D01*
X142163628Y-67677827D01*
X142121413Y-67698334D01*
X141976739Y-67737100D01*
X141976735Y-67737102D01*
X141851212Y-67809573D01*
X141851206Y-67809578D01*
X141748717Y-67912067D01*
X141748712Y-67912073D01*
X141676241Y-68037596D01*
X141676240Y-68037600D01*
X141638724Y-68177610D01*
X141638724Y-68322560D01*
X141670957Y-68442853D01*
X141676241Y-68462573D01*
X141748712Y-68588096D01*
X141748714Y-68588098D01*
X141748715Y-68588100D01*
X141851209Y-68690594D01*
X141851210Y-68690595D01*
X141851212Y-68690596D01*
X141976735Y-68763067D01*
X141976736Y-68763067D01*
X141976739Y-68763069D01*
X142116749Y-68800585D01*
X142116752Y-68800585D01*
X142261696Y-68800585D01*
X142261699Y-68800585D01*
X142401709Y-68763069D01*
X142527239Y-68690594D01*
X142629733Y-68588100D01*
X142693113Y-68478323D01*
X142743680Y-68430107D01*
X142812287Y-68416885D01*
X142877152Y-68442853D01*
X142917680Y-68499767D01*
X142924500Y-68540323D01*
X142924500Y-70959846D01*
X142904815Y-71026885D01*
X142852011Y-71072640D01*
X142782853Y-71082584D01*
X142719297Y-71053559D01*
X142693113Y-71021847D01*
X142691477Y-71019014D01*
X142629733Y-70912070D01*
X142527239Y-70809576D01*
X142527237Y-70809575D01*
X142527235Y-70809573D01*
X142401712Y-70737102D01*
X142401713Y-70737102D01*
X142390230Y-70734025D01*
X142261699Y-70699585D01*
X142116749Y-70699585D01*
X141988217Y-70734025D01*
X141976735Y-70737102D01*
X141851212Y-70809573D01*
X141851206Y-70809578D01*
X141748717Y-70912067D01*
X141748712Y-70912073D01*
X141676241Y-71037596D01*
X141676240Y-71037600D01*
X141638724Y-71177610D01*
X141638724Y-71322560D01*
X141670957Y-71442853D01*
X141676241Y-71462573D01*
X141748712Y-71588096D01*
X141748714Y-71588098D01*
X141748715Y-71588100D01*
X141851209Y-71690594D01*
X141851210Y-71690595D01*
X141851212Y-71690596D01*
X141976735Y-71763067D01*
X141976736Y-71763067D01*
X141976739Y-71763069D01*
X142116749Y-71800585D01*
X142116752Y-71800585D01*
X142261696Y-71800585D01*
X142261699Y-71800585D01*
X142401709Y-71763069D01*
X142527239Y-71690594D01*
X142629733Y-71588100D01*
X142693113Y-71478323D01*
X142743680Y-71430107D01*
X142812287Y-71416885D01*
X142877152Y-71442853D01*
X142917680Y-71499767D01*
X142924500Y-71540323D01*
X142924500Y-74325765D01*
X142963719Y-74472136D01*
X142973347Y-74488811D01*
X143039485Y-74603365D01*
X143039487Y-74603367D01*
X143448478Y-75012358D01*
X143470983Y-75046038D01*
X143471398Y-75045799D01*
X143475054Y-75052132D01*
X143475358Y-75052586D01*
X143475462Y-75052838D01*
X143475464Y-75052841D01*
X143565007Y-75169537D01*
X143571718Y-75178282D01*
X143697159Y-75274536D01*
X143843238Y-75335044D01*
X143905478Y-75343238D01*
X143999999Y-75355682D01*
X144000000Y-75355682D01*
X144000001Y-75355682D01*
X144094514Y-75343239D01*
X144156762Y-75335044D01*
X144253048Y-75295160D01*
X144322516Y-75287692D01*
X144384996Y-75318967D01*
X144420648Y-75379056D01*
X144424500Y-75409722D01*
X144424500Y-79348811D01*
X144404815Y-79415850D01*
X144388181Y-79436492D01*
X140814537Y-83010135D01*
X140814535Y-83010138D01*
X140771682Y-83084360D01*
X140753344Y-83152801D01*
X140753343Y-83152803D01*
X140749500Y-83167141D01*
X140749500Y-83167147D01*
X140749500Y-87282147D01*
X140749500Y-87367853D01*
X140751695Y-87376046D01*
X140771682Y-87450640D01*
X140776723Y-87459371D01*
X140814535Y-87524862D01*
X141475138Y-88185465D01*
X141549361Y-88228318D01*
X141549360Y-88228318D01*
X141560535Y-88231312D01*
X141571277Y-88234190D01*
X141630938Y-88270553D01*
X141661469Y-88333400D01*
X141653175Y-88402776D01*
X141617851Y-88449818D01*
X141503590Y-88543589D01*
X141372317Y-88703547D01*
X141274769Y-88886043D01*
X141214699Y-89084067D01*
X141194417Y-89290000D01*
X141214699Y-89495932D01*
X141235090Y-89563151D01*
X141274768Y-89693954D01*
X141372315Y-89876450D01*
X141372317Y-89876452D01*
X141503589Y-90036410D01*
X141568661Y-90089812D01*
X141663550Y-90167685D01*
X141846046Y-90265232D01*
X142044066Y-90325300D01*
X142044065Y-90325300D01*
X142062529Y-90327118D01*
X142250000Y-90345583D01*
X142455934Y-90325300D01*
X142653954Y-90265232D01*
X142836450Y-90167685D01*
X142971835Y-90056577D01*
X143036145Y-90029265D01*
X143105013Y-90041056D01*
X143156573Y-90088208D01*
X143174500Y-90152431D01*
X143174500Y-94438811D01*
X143154815Y-94505850D01*
X143138181Y-94526492D01*
X142671684Y-94992988D01*
X142610361Y-95026473D01*
X142567818Y-95028246D01*
X142500001Y-95019318D01*
X142499999Y-95019318D01*
X142343239Y-95039955D01*
X142343237Y-95039956D01*
X142197160Y-95100463D01*
X142071718Y-95196718D01*
X141975463Y-95322160D01*
X141914956Y-95468237D01*
X141914955Y-95468239D01*
X141894318Y-95624998D01*
X141894318Y-95625001D01*
X141903246Y-95692817D01*
X141892480Y-95761852D01*
X141867988Y-95796683D01*
X140989537Y-96675135D01*
X140989535Y-96675138D01*
X140946681Y-96749361D01*
X140946681Y-96749362D01*
X140941726Y-96767851D01*
X140941727Y-96767852D01*
X140924500Y-96832145D01*
X140924500Y-106102852D01*
X140946682Y-106185640D01*
X140967199Y-106221176D01*
X140989535Y-106259862D01*
X141259533Y-106529860D01*
X141259535Y-106529862D01*
X141320138Y-106590465D01*
X141382844Y-106626668D01*
X141382846Y-106626670D01*
X141382847Y-106626670D01*
X141388642Y-106630016D01*
X141436855Y-106680585D01*
X141446759Y-106714082D01*
X141448311Y-106713774D01*
X141461131Y-106778229D01*
X141461132Y-106778230D01*
X141505447Y-106844552D01*
X141571769Y-106888867D01*
X141571770Y-106888868D01*
X141630247Y-106900499D01*
X141630250Y-106900500D01*
X141630252Y-106900500D01*
X144069750Y-106900500D01*
X144069751Y-106900499D01*
X144084568Y-106897552D01*
X144128229Y-106888868D01*
X144128229Y-106888867D01*
X144128231Y-106888867D01*
X144194552Y-106844552D01*
X144207345Y-106825407D01*
X144241861Y-106773750D01*
X144295473Y-106728944D01*
X144364798Y-106720237D01*
X144415116Y-106741960D01*
X144415297Y-106741648D01*
X144417982Y-106743198D01*
X144420446Y-106744262D01*
X144422334Y-106745710D01*
X144422337Y-106745712D01*
X144568416Y-106806220D01*
X144646797Y-106816539D01*
X144725177Y-106826858D01*
X144725178Y-106826858D01*
X144725179Y-106826858D01*
X144777432Y-106819978D01*
X144881940Y-106806220D01*
X145028019Y-106745712D01*
X145153211Y-106649648D01*
X145218377Y-106624456D01*
X145286822Y-106638494D01*
X145336812Y-106687308D01*
X145350312Y-106723834D01*
X145361132Y-106778229D01*
X145365806Y-106789513D01*
X145361820Y-106791164D01*
X145375677Y-106835474D01*
X145357168Y-106902847D01*
X145350072Y-106913128D01*
X145270342Y-107017034D01*
X145209834Y-107163114D01*
X145209833Y-107163116D01*
X145189196Y-107319875D01*
X145189196Y-107319878D01*
X145209833Y-107476637D01*
X145209834Y-107476639D01*
X145241595Y-107553318D01*
X145270342Y-107622718D01*
X145350940Y-107727755D01*
X145376133Y-107792923D01*
X145362095Y-107861367D01*
X145313281Y-107911357D01*
X145252550Y-107927240D01*
X140385116Y-107926729D01*
X140318079Y-107907037D01*
X140272329Y-107854229D01*
X140261129Y-107802752D01*
X140260761Y-105819618D01*
X140260037Y-101909712D01*
X140255792Y-79001100D01*
X141192809Y-79001100D01*
X141213446Y-79157859D01*
X141213447Y-79157861D01*
X141273955Y-79303940D01*
X141370209Y-79429381D01*
X141495650Y-79525635D01*
X141641729Y-79586143D01*
X141720110Y-79596462D01*
X141798490Y-79606781D01*
X141798491Y-79606781D01*
X141798492Y-79606781D01*
X141850745Y-79599901D01*
X141955253Y-79586143D01*
X142101332Y-79525635D01*
X142226773Y-79429381D01*
X142323027Y-79303940D01*
X142383535Y-79157861D01*
X142404173Y-79001099D01*
X142383535Y-78844337D01*
X142323027Y-78698258D01*
X142226773Y-78572817D01*
X142101332Y-78476563D01*
X141955253Y-78416055D01*
X141955251Y-78416054D01*
X141798492Y-78395417D01*
X141798490Y-78395417D01*
X141641730Y-78416054D01*
X141641728Y-78416055D01*
X141495651Y-78476562D01*
X141370209Y-78572817D01*
X141273954Y-78698259D01*
X141213447Y-78844336D01*
X141213446Y-78844338D01*
X141192809Y-79001097D01*
X141192809Y-79001100D01*
X140255792Y-79001100D01*
X140251969Y-58372157D01*
X141238848Y-58372157D01*
X141259130Y-58578089D01*
X141259131Y-58578091D01*
X141319199Y-58776111D01*
X141416746Y-58958607D01*
X141416748Y-58958609D01*
X141548020Y-59118567D01*
X141594562Y-59156762D01*
X141707981Y-59249842D01*
X141890477Y-59347389D01*
X142088497Y-59407457D01*
X142088496Y-59407457D01*
X142106960Y-59409275D01*
X142294431Y-59427740D01*
X142500365Y-59407457D01*
X142698385Y-59347389D01*
X142880881Y-59249842D01*
X143040841Y-59118567D01*
X143172116Y-58958607D01*
X143269663Y-58776111D01*
X143329731Y-58578091D01*
X143350014Y-58372157D01*
X143329731Y-58166223D01*
X143269663Y-57968203D01*
X143172116Y-57785707D01*
X143119836Y-57722003D01*
X143040841Y-57625746D01*
X142923108Y-57529126D01*
X142880881Y-57494472D01*
X142698385Y-57396925D01*
X142500365Y-57336857D01*
X142500363Y-57336856D01*
X142500365Y-57336856D01*
X142294431Y-57316574D01*
X142088498Y-57336856D01*
X141890474Y-57396926D01*
X141780329Y-57455800D01*
X141707981Y-57494472D01*
X141707979Y-57494473D01*
X141707978Y-57494474D01*
X141548020Y-57625746D01*
X141416748Y-57785704D01*
X141319200Y-57968200D01*
X141259130Y-58166224D01*
X141238848Y-58372157D01*
X140251969Y-58372157D01*
X140251071Y-53527004D01*
X144161741Y-53527004D01*
X144182378Y-53683763D01*
X144182379Y-53683765D01*
X144242887Y-53829844D01*
X144339141Y-53955285D01*
X144464582Y-54051539D01*
X144610661Y-54112047D01*
X144689042Y-54122366D01*
X144767422Y-54132685D01*
X144767423Y-54132685D01*
X144767424Y-54132685D01*
X144819677Y-54125805D01*
X144924185Y-54112047D01*
X145070264Y-54051539D01*
X145195705Y-53955285D01*
X145291959Y-53829844D01*
X145352467Y-53683765D01*
X145373105Y-53527003D01*
X145352467Y-53370241D01*
X145291959Y-53224162D01*
X145195705Y-53098721D01*
X145070264Y-53002467D01*
X144924185Y-52941959D01*
X144924183Y-52941958D01*
X144767424Y-52921321D01*
X144767422Y-52921321D01*
X144610662Y-52941958D01*
X144610660Y-52941959D01*
X144464583Y-53002466D01*
X144339141Y-53098721D01*
X144242886Y-53224163D01*
X144182379Y-53370240D01*
X144182378Y-53370242D01*
X144161741Y-53527001D01*
X144161741Y-53527004D01*
X140251071Y-53527004D01*
X140250116Y-48374023D01*
X140269788Y-48306980D01*
X140322584Y-48261215D01*
X140374116Y-48250000D01*
X148755500Y-48250000D01*
X148822539Y-48269685D01*
G37*
%TD.AperFunction*%
%TA.AperFunction,Conductor*%
G36*
X145346949Y-90521701D02*
G01*
X145446393Y-90562893D01*
X145474703Y-90566620D01*
X145603154Y-90583531D01*
X145603154Y-90583530D01*
X145603155Y-90583531D01*
X145670972Y-90574602D01*
X145740007Y-90585367D01*
X145774839Y-90609860D01*
X146704188Y-91539209D01*
X146704189Y-91539210D01*
X146764792Y-91599813D01*
X146764794Y-91599814D01*
X146764798Y-91599817D01*
X146826247Y-91635294D01*
X146839016Y-91642666D01*
X146921801Y-91664848D01*
X147007507Y-91664848D01*
X148158534Y-91664848D01*
X148225573Y-91684533D01*
X148271328Y-91737337D01*
X148281272Y-91806495D01*
X148273096Y-91836297D01*
X148256945Y-91875287D01*
X148243887Y-91906813D01*
X148243886Y-91906815D01*
X148223249Y-92063574D01*
X148223249Y-92063577D01*
X148232177Y-92131394D01*
X148221411Y-92200429D01*
X148196920Y-92235260D01*
X148101924Y-92330256D01*
X148101923Y-92330258D01*
X148059071Y-92404478D01*
X148059072Y-92404479D01*
X148036890Y-92487264D01*
X148036890Y-94530242D01*
X148059072Y-94613030D01*
X148079256Y-94647989D01*
X148101925Y-94687252D01*
X149588071Y-96173398D01*
X150877493Y-97462819D01*
X150910978Y-97524142D01*
X150905994Y-97593834D01*
X150864122Y-97649767D01*
X150798658Y-97674184D01*
X150789812Y-97674500D01*
X149207147Y-97674500D01*
X149124359Y-97696682D01*
X149050138Y-97739535D01*
X149050135Y-97739537D01*
X148464537Y-98325135D01*
X148464533Y-98325141D01*
X148421681Y-98399362D01*
X148421680Y-98399364D01*
X148404540Y-98463338D01*
X148404539Y-98463343D01*
X148399500Y-98482146D01*
X148399500Y-103067852D01*
X148421682Y-103150640D01*
X148443108Y-103187750D01*
X148464535Y-103224862D01*
X148464537Y-103224864D01*
X149009204Y-103769531D01*
X149042689Y-103830854D01*
X149045523Y-103857212D01*
X149045523Y-105603492D01*
X149025838Y-105670531D01*
X148973034Y-105716286D01*
X148903876Y-105726230D01*
X148874071Y-105718053D01*
X148802788Y-105688527D01*
X148802783Y-105688525D01*
X148646024Y-105667888D01*
X148646022Y-105667888D01*
X148489262Y-105688525D01*
X148489260Y-105688526D01*
X148343183Y-105749033D01*
X148343182Y-105749034D01*
X148251193Y-105819618D01*
X148186026Y-105844812D01*
X148117582Y-105830774D01*
X148105145Y-105821579D01*
X148104708Y-105822234D01*
X148094552Y-105815448D01*
X148068591Y-105798101D01*
X148023787Y-105744491D01*
X148015080Y-105675166D01*
X148045234Y-105612138D01*
X148068592Y-105591898D01*
X148094552Y-105574552D01*
X148138867Y-105508231D01*
X148138867Y-105508229D01*
X148138868Y-105508229D01*
X148150499Y-105449752D01*
X148150500Y-105449750D01*
X148150500Y-104670249D01*
X148150499Y-104670247D01*
X148138868Y-104611770D01*
X148138867Y-104611769D01*
X148094552Y-104545447D01*
X148028230Y-104501132D01*
X148028229Y-104501131D01*
X147969752Y-104489500D01*
X147969748Y-104489500D01*
X145530252Y-104489500D01*
X145530247Y-104489500D01*
X145471770Y-104501131D01*
X145471769Y-104501132D01*
X145405447Y-104545447D01*
X145361132Y-104611769D01*
X145361131Y-104611770D01*
X145349500Y-104670247D01*
X145349500Y-105449752D01*
X145361131Y-105508229D01*
X145361132Y-105508230D01*
X145405447Y-105574552D01*
X145431407Y-105591898D01*
X145476212Y-105645511D01*
X145484919Y-105714836D01*
X145454764Y-105777863D01*
X145431407Y-105798102D01*
X145405448Y-105815447D01*
X145392345Y-105835056D01*
X145338731Y-105879859D01*
X145269405Y-105888564D01*
X145206379Y-105858406D01*
X145190869Y-105841647D01*
X145153461Y-105792895D01*
X145124132Y-105770390D01*
X145032193Y-105699843D01*
X144990992Y-105643416D01*
X144983681Y-105601468D01*
X144983681Y-103278008D01*
X145003366Y-103210969D01*
X145020000Y-103190327D01*
X145059688Y-103150639D01*
X145210465Y-102999862D01*
X145228727Y-102968231D01*
X145253318Y-102925638D01*
X145275500Y-102842853D01*
X145275500Y-101909712D01*
X145295185Y-101842673D01*
X145347989Y-101796918D01*
X145417147Y-101786974D01*
X145468390Y-101806609D01*
X145471769Y-101808867D01*
X145471771Y-101808867D01*
X145471772Y-101808868D01*
X145471770Y-101808868D01*
X145530247Y-101820499D01*
X145530250Y-101820500D01*
X145530252Y-101820500D01*
X147969750Y-101820500D01*
X147969751Y-101820499D01*
X147984568Y-101817552D01*
X148028229Y-101808868D01*
X148028229Y-101808867D01*
X148028231Y-101808867D01*
X148094552Y-101764552D01*
X148138867Y-101698231D01*
X148138867Y-101698229D01*
X148138868Y-101698229D01*
X148150499Y-101639752D01*
X148150500Y-101639750D01*
X148150500Y-100860249D01*
X148150499Y-100860247D01*
X148138868Y-100801770D01*
X148138867Y-100801769D01*
X148094552Y-100735447D01*
X148028230Y-100691132D01*
X148028229Y-100691131D01*
X147969752Y-100679500D01*
X147969748Y-100679500D01*
X147199500Y-100679500D01*
X147132461Y-100659815D01*
X147086706Y-100607011D01*
X147075500Y-100555500D01*
X147075500Y-99206832D01*
X147095185Y-99139793D01*
X147111814Y-99119155D01*
X147200985Y-99029983D01*
X147262306Y-98996500D01*
X147304850Y-98994727D01*
X147318317Y-98996500D01*
X147372668Y-99003656D01*
X147372669Y-99003656D01*
X147372670Y-99003656D01*
X147424923Y-98996776D01*
X147529431Y-98983018D01*
X147675510Y-98922510D01*
X147800951Y-98826256D01*
X147897205Y-98700815D01*
X147957713Y-98554736D01*
X147978168Y-98399362D01*
X147978351Y-98397975D01*
X147978351Y-98397972D01*
X147957713Y-98241213D01*
X147957713Y-98241212D01*
X147897205Y-98095133D01*
X147800951Y-97969692D01*
X147675510Y-97873438D01*
X147647459Y-97861819D01*
X147529431Y-97812930D01*
X147529429Y-97812929D01*
X147372670Y-97792292D01*
X147372668Y-97792292D01*
X147215908Y-97812929D01*
X147215906Y-97812930D01*
X147069829Y-97873437D01*
X146944387Y-97969692D01*
X146848132Y-98095134D01*
X146787625Y-98241211D01*
X146787624Y-98241213D01*
X146766987Y-98397972D01*
X146766987Y-98397975D01*
X146775915Y-98465791D01*
X146765149Y-98534826D01*
X146740658Y-98569657D01*
X146489534Y-98820782D01*
X146489533Y-98820784D01*
X146446681Y-98895004D01*
X146446682Y-98895005D01*
X146424500Y-98977790D01*
X146424500Y-100555500D01*
X146404815Y-100622539D01*
X146352011Y-100668294D01*
X146300500Y-100679500D01*
X145530247Y-100679500D01*
X145471770Y-100691131D01*
X145471768Y-100691132D01*
X145468387Y-100693392D01*
X145401708Y-100714267D01*
X145334329Y-100695780D01*
X145287641Y-100643799D01*
X145275500Y-100590287D01*
X145275500Y-100520753D01*
X145275500Y-100520751D01*
X145253318Y-100437966D01*
X145213924Y-100369733D01*
X145210469Y-100363748D01*
X145210463Y-100363740D01*
X144611819Y-99765096D01*
X144578334Y-99703773D01*
X144575500Y-99677415D01*
X144575500Y-96958981D01*
X144595185Y-96891942D01*
X144611819Y-96871300D01*
X144807984Y-96675135D01*
X145110465Y-96372654D01*
X145153318Y-96298431D01*
X145175500Y-96215645D01*
X145175500Y-96129939D01*
X145175500Y-90636264D01*
X145195185Y-90569225D01*
X145247989Y-90523470D01*
X145317147Y-90513526D01*
X145346949Y-90521701D01*
G37*
%TD.AperFunction*%
%TA.AperFunction,Conductor*%
G36*
X143343834Y-96969007D02*
G01*
X143399767Y-97010879D01*
X143424184Y-97076343D01*
X143424500Y-97085189D01*
X143424500Y-100042852D01*
X143446682Y-100125640D01*
X143450748Y-100132682D01*
X143489535Y-100199862D01*
X143489537Y-100199864D01*
X143757492Y-100467819D01*
X143790977Y-100529142D01*
X143785993Y-100598834D01*
X143744121Y-100654767D01*
X143678657Y-100679184D01*
X143669811Y-100679500D01*
X142791189Y-100679500D01*
X142724150Y-100659815D01*
X142703508Y-100643181D01*
X142611819Y-100551492D01*
X142578334Y-100490169D01*
X142575500Y-100463811D01*
X142575500Y-97686189D01*
X142595185Y-97619150D01*
X142611819Y-97598508D01*
X143212819Y-96997508D01*
X143274142Y-96964023D01*
X143343834Y-96969007D01*
G37*
%TD.AperFunction*%
%TA.AperFunction,Conductor*%
G36*
X156780703Y-89128983D02*
G01*
X156797876Y-89147210D01*
X156821517Y-89178021D01*
X156821718Y-89178282D01*
X156947159Y-89274536D01*
X157093238Y-89335044D01*
X157138175Y-89340960D01*
X157249999Y-89355682D01*
X157250000Y-89355682D01*
X157250001Y-89355682D01*
X157306984Y-89348180D01*
X157406762Y-89335044D01*
X157478049Y-89305515D01*
X157547516Y-89298047D01*
X157609995Y-89329322D01*
X157645648Y-89389410D01*
X157649500Y-89420077D01*
X157649500Y-94838811D01*
X157629815Y-94905850D01*
X157613181Y-94926492D01*
X157151492Y-95388181D01*
X157090169Y-95421666D01*
X157063811Y-95424500D01*
X154982452Y-95424500D01*
X154899664Y-95446682D01*
X154825443Y-95489535D01*
X154825440Y-95489537D01*
X153951797Y-96363181D01*
X153890474Y-96396666D01*
X153864116Y-96399500D01*
X152435729Y-96399500D01*
X152368690Y-96379815D01*
X152348048Y-96363181D01*
X150480391Y-94495524D01*
X150446906Y-94434201D01*
X150451890Y-94364509D01*
X150493762Y-94308576D01*
X150551885Y-94284904D01*
X150617707Y-94276238D01*
X150686742Y-94287003D01*
X150721574Y-94311496D01*
X150920543Y-94510465D01*
X150994766Y-94553318D01*
X151077552Y-94575500D01*
X152194691Y-94575500D01*
X152261730Y-94595185D01*
X152307485Y-94647989D01*
X152317429Y-94717147D01*
X152309252Y-94746950D01*
X152292856Y-94786534D01*
X152270031Y-94841639D01*
X152270030Y-94841641D01*
X152249393Y-94998400D01*
X152249393Y-94998403D01*
X152270030Y-95155162D01*
X152270031Y-95155164D01*
X152294347Y-95213867D01*
X152324003Y-95285465D01*
X152330539Y-95301243D01*
X152426793Y-95426684D01*
X152552234Y-95522938D01*
X152698313Y-95583446D01*
X152776694Y-95593765D01*
X152855074Y-95604084D01*
X152855075Y-95604084D01*
X152855076Y-95604084D01*
X152907329Y-95597204D01*
X153011837Y-95583446D01*
X153157916Y-95522938D01*
X153283357Y-95426684D01*
X153365828Y-95319204D01*
X153402204Y-95287304D01*
X153451460Y-95258867D01*
X154295957Y-94414368D01*
X154357280Y-94380884D01*
X154426971Y-94385868D01*
X154482905Y-94427740D01*
X154498198Y-94454596D01*
X154527727Y-94525884D01*
X154623981Y-94651325D01*
X154749422Y-94747579D01*
X154895501Y-94808087D01*
X154973882Y-94818406D01*
X155052262Y-94828725D01*
X155052263Y-94828725D01*
X155052264Y-94828725D01*
X155104517Y-94821845D01*
X155209025Y-94808087D01*
X155355104Y-94747579D01*
X155480545Y-94651325D01*
X155576799Y-94525884D01*
X155637307Y-94379805D01*
X155657945Y-94223043D01*
X155649016Y-94155224D01*
X155659781Y-94086189D01*
X155684271Y-94051360D01*
X156510465Y-93225168D01*
X156553318Y-93150945D01*
X156575500Y-93068159D01*
X156575500Y-92982453D01*
X156575500Y-89222696D01*
X156595185Y-89155657D01*
X156647989Y-89109902D01*
X156717147Y-89099958D01*
X156780703Y-89128983D01*
G37*
%TD.AperFunction*%
%TA.AperFunction,Conductor*%
G36*
X149499449Y-82418799D02*
G01*
X151341115Y-84260465D01*
X151415338Y-84303318D01*
X151498124Y-84325500D01*
X151583830Y-84325500D01*
X152362856Y-84325500D01*
X152429895Y-84345185D01*
X152475650Y-84397989D01*
X152485594Y-84467147D01*
X152456569Y-84530703D01*
X152450535Y-84537183D01*
X152428687Y-84559030D01*
X152367363Y-84592514D01*
X152324823Y-84594286D01*
X152257006Y-84585358D01*
X152257004Y-84585358D01*
X152100244Y-84605995D01*
X152100242Y-84605996D01*
X151954165Y-84666503D01*
X151828723Y-84762758D01*
X151732468Y-84888200D01*
X151671961Y-85034277D01*
X151671960Y-85034279D01*
X151651323Y-85191038D01*
X151651323Y-85191041D01*
X151671960Y-85347800D01*
X151671961Y-85347802D01*
X151724989Y-85475824D01*
X151732469Y-85493881D01*
X151828723Y-85619322D01*
X151954164Y-85715576D01*
X152100243Y-85776084D01*
X152178624Y-85786403D01*
X152257004Y-85796722D01*
X152257005Y-85796722D01*
X152257006Y-85796722D01*
X152319131Y-85788543D01*
X152413767Y-85776084D01*
X152559846Y-85715576D01*
X152685287Y-85619322D01*
X152781541Y-85493881D01*
X152842049Y-85347802D01*
X152862687Y-85191040D01*
X152853758Y-85123219D01*
X152864523Y-85054187D01*
X152889011Y-85019360D01*
X152962821Y-84945550D01*
X153024143Y-84912068D01*
X153093834Y-84917053D01*
X153149768Y-84958924D01*
X153174184Y-85024389D01*
X153174500Y-85033234D01*
X153174500Y-86457147D01*
X153174500Y-86542853D01*
X153174862Y-86544204D01*
X153196682Y-86625640D01*
X153218108Y-86662750D01*
X153239535Y-86699862D01*
X153239536Y-86699863D01*
X153239537Y-86699864D01*
X154138181Y-87598507D01*
X154171666Y-87659830D01*
X154174500Y-87686188D01*
X154174500Y-88679479D01*
X154154815Y-88746518D01*
X154102011Y-88792273D01*
X154032853Y-88802217D01*
X153969297Y-88773192D01*
X153935939Y-88726932D01*
X153914538Y-88675267D01*
X153914538Y-88675266D01*
X153818284Y-88549825D01*
X153692843Y-88453571D01*
X153683782Y-88449818D01*
X153546764Y-88393063D01*
X153546762Y-88393062D01*
X153390003Y-88372425D01*
X153390001Y-88372425D01*
X153233241Y-88393062D01*
X153233239Y-88393063D01*
X153087162Y-88453570D01*
X152961720Y-88549825D01*
X152865465Y-88675267D01*
X152804958Y-88821344D01*
X152804957Y-88821346D01*
X152784320Y-88978105D01*
X152784320Y-88978108D01*
X152804957Y-89134867D01*
X152804958Y-89134869D01*
X152865466Y-89280948D01*
X152961720Y-89406389D01*
X153087161Y-89502643D01*
X153233240Y-89563151D01*
X153311621Y-89573470D01*
X153390001Y-89583789D01*
X153390002Y-89583789D01*
X153390003Y-89583789D01*
X153416129Y-89580349D01*
X153546764Y-89563151D01*
X153555787Y-89559413D01*
X153625252Y-89551943D01*
X153687732Y-89583216D01*
X153723386Y-89643304D01*
X153727239Y-89673974D01*
X153727239Y-90185559D01*
X153727239Y-90271265D01*
X153730911Y-90284968D01*
X153749421Y-90354052D01*
X153765090Y-90381191D01*
X153792274Y-90428274D01*
X153792276Y-90428276D01*
X153888181Y-90524181D01*
X153921666Y-90585504D01*
X153924500Y-90611862D01*
X153924500Y-93177415D01*
X153904815Y-93244454D01*
X153888181Y-93265096D01*
X153265096Y-93888181D01*
X153203773Y-93921666D01*
X153177415Y-93924500D01*
X151306594Y-93924500D01*
X151239555Y-93904815D01*
X151218913Y-93888181D01*
X151181901Y-93851169D01*
X151148416Y-93789846D01*
X151146643Y-93747301D01*
X151152283Y-93704469D01*
X151155572Y-93679485D01*
X151149619Y-93634271D01*
X151134934Y-93522724D01*
X151134934Y-93522723D01*
X151074426Y-93376644D01*
X150978172Y-93251203D01*
X150852731Y-93154949D01*
X150807305Y-93136133D01*
X150706652Y-93094441D01*
X150706650Y-93094440D01*
X150549891Y-93073803D01*
X150549889Y-93073803D01*
X150393129Y-93094440D01*
X150393127Y-93094441D01*
X150247050Y-93154948D01*
X150121608Y-93251203D01*
X150025353Y-93376645D01*
X149964846Y-93522722D01*
X149964846Y-93522724D01*
X149944470Y-93677488D01*
X149916203Y-93741384D01*
X149857878Y-93779855D01*
X149788014Y-93780686D01*
X149733850Y-93748983D01*
X149689336Y-93704469D01*
X149655851Y-93643146D01*
X149660835Y-93573454D01*
X149662434Y-93569390D01*
X149672434Y-93545250D01*
X149693072Y-93388488D01*
X149691380Y-93375639D01*
X149674998Y-93251203D01*
X149672434Y-93231726D01*
X149611926Y-93085647D01*
X149515672Y-92960206D01*
X149390231Y-92863952D01*
X149244152Y-92803444D01*
X149231251Y-92801745D01*
X149205499Y-92798355D01*
X149141603Y-92770088D01*
X149103133Y-92711763D01*
X149102302Y-92641898D01*
X149139375Y-92582675D01*
X149146182Y-92577054D01*
X149257213Y-92491858D01*
X149353467Y-92366417D01*
X149413975Y-92220338D01*
X149434613Y-92063576D01*
X149413975Y-91906814D01*
X149353467Y-91760735D01*
X149353466Y-91760734D01*
X149353466Y-91760733D01*
X149315225Y-91710897D01*
X149290030Y-91645728D01*
X149304068Y-91577283D01*
X149352882Y-91527293D01*
X149398065Y-91515473D01*
X149397670Y-91512471D01*
X149457428Y-91504603D01*
X149562490Y-91490772D01*
X149708569Y-91430264D01*
X149834010Y-91334010D01*
X149930264Y-91208569D01*
X149990772Y-91062490D01*
X150011410Y-90905728D01*
X149990772Y-90748966D01*
X149930264Y-90602887D01*
X149834010Y-90477446D01*
X149708569Y-90381192D01*
X149643047Y-90354052D01*
X149562490Y-90320684D01*
X149562488Y-90320683D01*
X149405729Y-90300046D01*
X149405727Y-90300046D01*
X149248967Y-90320683D01*
X149248965Y-90320684D01*
X149102888Y-90381191D01*
X149102887Y-90381192D01*
X148977446Y-90477446D01*
X148977444Y-90477447D01*
X148977443Y-90477449D01*
X148973098Y-90483111D01*
X148916667Y-90524309D01*
X148846920Y-90528459D01*
X148786003Y-90494242D01*
X148760167Y-90455069D01*
X148749068Y-90428274D01*
X148700702Y-90311507D01*
X148604448Y-90186066D01*
X148479007Y-90089812D01*
X148467061Y-90084864D01*
X148332928Y-90029304D01*
X148332926Y-90029303D01*
X148176167Y-90008666D01*
X148176165Y-90008666D01*
X148019405Y-90029303D01*
X148019403Y-90029304D01*
X147873326Y-90089811D01*
X147873325Y-90089812D01*
X147747884Y-90186066D01*
X147747883Y-90186067D01*
X147747882Y-90186068D01*
X147681350Y-90272774D01*
X147624922Y-90313976D01*
X147555176Y-90318131D01*
X147495294Y-90284968D01*
X147266904Y-90056578D01*
X146999472Y-89789145D01*
X146965987Y-89727822D01*
X146963153Y-89701464D01*
X146963153Y-88455951D01*
X146982838Y-88388912D01*
X147011663Y-88357578D01*
X147065935Y-88315935D01*
X147162189Y-88190494D01*
X147222697Y-88044415D01*
X147243335Y-87887653D01*
X147222697Y-87730891D01*
X147162189Y-87584812D01*
X147065935Y-87459371D01*
X146940494Y-87363117D01*
X146794415Y-87302609D01*
X146794413Y-87302608D01*
X146637654Y-87281971D01*
X146637652Y-87281971D01*
X146480892Y-87302608D01*
X146480890Y-87302609D01*
X146334813Y-87363116D01*
X146209371Y-87459371D01*
X146113116Y-87584813D01*
X146052609Y-87730890D01*
X146052608Y-87730892D01*
X146031971Y-87887651D01*
X146031971Y-87887654D01*
X146052608Y-88044413D01*
X146052609Y-88044415D01*
X146111033Y-88185464D01*
X146113117Y-88190494D01*
X146209371Y-88315935D01*
X146263640Y-88357577D01*
X146304842Y-88414002D01*
X146312153Y-88455951D01*
X146312153Y-89550111D01*
X146292468Y-89617150D01*
X146239664Y-89662905D01*
X146170506Y-89672849D01*
X146106950Y-89643824D01*
X146089777Y-89625598D01*
X146089523Y-89625267D01*
X146031437Y-89549567D01*
X145905996Y-89453313D01*
X145759917Y-89392805D01*
X145739211Y-89390079D01*
X145635670Y-89376447D01*
X145571774Y-89348180D01*
X145533303Y-89289855D01*
X145532472Y-89219991D01*
X145553478Y-89178025D01*
X145649536Y-89052841D01*
X145710044Y-88906762D01*
X145729993Y-88755232D01*
X145730682Y-88750001D01*
X145730682Y-88749998D01*
X145710044Y-88593239D01*
X145710044Y-88593238D01*
X145649536Y-88447159D01*
X145553282Y-88321718D01*
X145427841Y-88225464D01*
X145302175Y-88173411D01*
X145247773Y-88129571D01*
X145225708Y-88063277D01*
X145242987Y-87995578D01*
X145261948Y-87971170D01*
X146460963Y-86772156D01*
X147799151Y-85433968D01*
X147860474Y-85400483D01*
X147886832Y-85397649D01*
X148350341Y-85397649D01*
X148350343Y-85397649D01*
X148433129Y-85375467D01*
X148507352Y-85332614D01*
X148581817Y-85258149D01*
X149627466Y-85258149D01*
X149648103Y-85414908D01*
X149648104Y-85414910D01*
X149708612Y-85560989D01*
X149804866Y-85686430D01*
X149930307Y-85782684D01*
X150076386Y-85843192D01*
X150154767Y-85853511D01*
X150233147Y-85863830D01*
X150233148Y-85863830D01*
X150233149Y-85863830D01*
X150285402Y-85856950D01*
X150389910Y-85843192D01*
X150535989Y-85782684D01*
X150661430Y-85686430D01*
X150757684Y-85560989D01*
X150818192Y-85414910D01*
X150838830Y-85258148D01*
X150835741Y-85234688D01*
X150819414Y-85110666D01*
X150818192Y-85101386D01*
X150757684Y-84955307D01*
X150661430Y-84829866D01*
X150535989Y-84733612D01*
X150488308Y-84713862D01*
X150389910Y-84673104D01*
X150389908Y-84673103D01*
X150233149Y-84652466D01*
X150233147Y-84652466D01*
X150076387Y-84673103D01*
X150076385Y-84673104D01*
X149930308Y-84733611D01*
X149804866Y-84829866D01*
X149708611Y-84955308D01*
X149648104Y-85101385D01*
X149648103Y-85101387D01*
X149627466Y-85258146D01*
X149627466Y-85258149D01*
X148581817Y-85258149D01*
X149185441Y-84654522D01*
X149185446Y-84654519D01*
X149195649Y-84644315D01*
X149195651Y-84644315D01*
X149256254Y-84583712D01*
X149290773Y-84523923D01*
X149299107Y-84509489D01*
X149321289Y-84426703D01*
X149321289Y-84340997D01*
X149321289Y-82645570D01*
X149299107Y-82562785D01*
X149299107Y-82562784D01*
X149294882Y-82547015D01*
X149297927Y-82546199D01*
X149287541Y-82503374D01*
X149288457Y-82493128D01*
X149288491Y-82492868D01*
X149288825Y-82490324D01*
X149317074Y-82426423D01*
X149375388Y-82387937D01*
X149445253Y-82387087D01*
X149499449Y-82418799D01*
G37*
%TD.AperFunction*%
%TA.AperFunction,Conductor*%
G36*
X155238363Y-86702698D02*
G01*
X155259005Y-86719332D01*
X155888181Y-87348508D01*
X155921666Y-87409831D01*
X155924500Y-87436189D01*
X155924500Y-92839116D01*
X155904815Y-92906155D01*
X155888181Y-92926797D01*
X155537181Y-93277797D01*
X155475858Y-93311282D01*
X155406166Y-93306298D01*
X155350233Y-93264426D01*
X155325816Y-93198962D01*
X155325500Y-93190116D01*
X155325500Y-90203223D01*
X155325501Y-90203210D01*
X155325501Y-90199540D01*
X155326021Y-90196924D01*
X155327187Y-90182838D01*
X155327188Y-90182832D01*
X155328771Y-90183095D01*
X155334940Y-90152087D01*
X155362783Y-90084869D01*
X155370099Y-90029303D01*
X155383421Y-89928108D01*
X155383421Y-89928105D01*
X155362783Y-89771346D01*
X155362783Y-89771345D01*
X155302275Y-89625266D01*
X155206021Y-89499825D01*
X155080580Y-89403571D01*
X155046392Y-89389410D01*
X154934501Y-89343063D01*
X154934490Y-89343060D01*
X154933302Y-89342904D01*
X154932374Y-89342493D01*
X154926651Y-89340960D01*
X154926890Y-89340066D01*
X154869408Y-89314631D01*
X154830943Y-89256302D01*
X154825500Y-89219967D01*
X154825500Y-87552855D01*
X154825501Y-87552842D01*
X154825501Y-87457149D01*
X154823757Y-87450639D01*
X154803318Y-87374362D01*
X154789621Y-87350638D01*
X154775043Y-87325388D01*
X154760466Y-87300139D01*
X154695542Y-87235215D01*
X154695530Y-87235204D01*
X154574143Y-87113817D01*
X154540660Y-87052495D01*
X154545644Y-86982803D01*
X154587516Y-86926870D01*
X154614363Y-86911581D01*
X154685660Y-86882049D01*
X154811101Y-86785795D01*
X154852742Y-86731526D01*
X154909170Y-86690324D01*
X154951118Y-86683013D01*
X155171324Y-86683013D01*
X155238363Y-86702698D01*
G37*
%TD.AperFunction*%
%TA.AperFunction,Conductor*%
G36*
X143577520Y-81270318D02*
G01*
X143633454Y-81312190D01*
X143657871Y-81377654D01*
X143657126Y-81402685D01*
X143644315Y-81499998D01*
X143644315Y-81500001D01*
X143664952Y-81656760D01*
X143664953Y-81656762D01*
X143712590Y-81771769D01*
X143725461Y-81802841D01*
X143821715Y-81928282D01*
X143947156Y-82024536D01*
X144093235Y-82085044D01*
X144146444Y-82092049D01*
X144249996Y-82105682D01*
X144249997Y-82105682D01*
X144353545Y-82092049D01*
X144422577Y-82102814D01*
X144474833Y-82149194D01*
X144493719Y-82216462D01*
X144473239Y-82283263D01*
X144457409Y-82302669D01*
X143865489Y-82894590D01*
X143809541Y-82950537D01*
X143809535Y-82950545D01*
X143769982Y-83019054D01*
X143769979Y-83019059D01*
X143756914Y-83067818D01*
X143751772Y-83087011D01*
X143749500Y-83095489D01*
X143749500Y-84774166D01*
X143729815Y-84841205D01*
X143713181Y-84861847D01*
X143512181Y-85062847D01*
X143450858Y-85096332D01*
X143381166Y-85091348D01*
X143325233Y-85049476D01*
X143300816Y-84984012D01*
X143300500Y-84975166D01*
X143300500Y-83340249D01*
X143300499Y-83340247D01*
X143288868Y-83281770D01*
X143288867Y-83281769D01*
X143244552Y-83215447D01*
X143178230Y-83171132D01*
X143178229Y-83171131D01*
X143119752Y-83159500D01*
X143119748Y-83159500D01*
X141885189Y-83159500D01*
X141818150Y-83139815D01*
X141772395Y-83087011D01*
X141762451Y-83017853D01*
X141791476Y-82954297D01*
X141797508Y-82947819D01*
X142208509Y-82536818D01*
X143446507Y-81298817D01*
X143507829Y-81265334D01*
X143577520Y-81270318D01*
G37*
%TD.AperFunction*%
%TA.AperFunction,Conductor*%
G36*
X161880850Y-81095185D02*
G01*
X161901492Y-81111819D01*
X162138181Y-81348507D01*
X162171666Y-81409830D01*
X162174500Y-81436188D01*
X162174500Y-81593697D01*
X162154815Y-81660736D01*
X162102011Y-81706491D01*
X162032853Y-81716435D01*
X161981609Y-81696799D01*
X161928230Y-81661132D01*
X161928229Y-81661131D01*
X161869752Y-81649500D01*
X161869748Y-81649500D01*
X160130252Y-81649500D01*
X160130247Y-81649500D01*
X160071770Y-81661131D01*
X160071769Y-81661132D01*
X160005447Y-81705447D01*
X159961132Y-81771769D01*
X159961131Y-81771770D01*
X159949500Y-81830247D01*
X159949500Y-83569752D01*
X159961131Y-83628229D01*
X159961132Y-83628230D01*
X160005447Y-83694552D01*
X160071769Y-83738867D01*
X160071770Y-83738868D01*
X160130247Y-83750499D01*
X160130250Y-83750500D01*
X160130252Y-83750500D01*
X161869750Y-83750500D01*
X161869751Y-83750499D01*
X161884568Y-83747552D01*
X161928229Y-83738868D01*
X161928231Y-83738867D01*
X161981608Y-83703201D01*
X162048285Y-83682322D01*
X162115665Y-83700806D01*
X162162356Y-83752784D01*
X162174500Y-83806302D01*
X162174500Y-84713814D01*
X162154815Y-84780853D01*
X162102011Y-84826608D01*
X162032853Y-84836552D01*
X161969297Y-84807527D01*
X161941142Y-84772268D01*
X161909923Y-84713863D01*
X161877685Y-84653550D01*
X161800115Y-84559030D01*
X161746410Y-84493589D01*
X161627926Y-84396353D01*
X161586450Y-84362315D01*
X161403954Y-84264768D01*
X161205934Y-84204700D01*
X161205932Y-84204699D01*
X161205934Y-84204699D01*
X161000000Y-84184417D01*
X160794067Y-84204699D01*
X160596043Y-84264769D01*
X160413546Y-84362317D01*
X160372074Y-84396353D01*
X160307764Y-84423666D01*
X160293409Y-84424500D01*
X159374000Y-84424500D01*
X159306961Y-84404815D01*
X159261206Y-84352011D01*
X159250000Y-84300500D01*
X159250000Y-81199500D01*
X159269685Y-81132461D01*
X159322489Y-81086706D01*
X159374000Y-81075500D01*
X161813811Y-81075500D01*
X161880850Y-81095185D01*
G37*
%TD.AperFunction*%
%TA.AperFunction,Conductor*%
G36*
X150928100Y-74530916D02*
G01*
X150973855Y-74583720D01*
X150983799Y-74652878D01*
X150954774Y-74716434D01*
X150936547Y-74733607D01*
X150821719Y-74821716D01*
X150725463Y-74947160D01*
X150664956Y-75093237D01*
X150664955Y-75093239D01*
X150644318Y-75249998D01*
X150644318Y-75250001D01*
X150664955Y-75406760D01*
X150664956Y-75406762D01*
X150703576Y-75500000D01*
X150725464Y-75552841D01*
X150821718Y-75678282D01*
X150947159Y-75774536D01*
X151093238Y-75835044D01*
X151115008Y-75837910D01*
X151249999Y-75855682D01*
X151250000Y-75855682D01*
X151250001Y-75855682D01*
X151302254Y-75848802D01*
X151406762Y-75835044D01*
X151552841Y-75774536D01*
X151678282Y-75678282D01*
X151774536Y-75552841D01*
X151835044Y-75406762D01*
X151852452Y-75274536D01*
X151855682Y-75250001D01*
X151855682Y-75249998D01*
X151836527Y-75104500D01*
X151835044Y-75093238D01*
X151774536Y-74947159D01*
X151678282Y-74821718D01*
X151678280Y-74821717D01*
X151678280Y-74821716D01*
X151563453Y-74733607D01*
X151522250Y-74677179D01*
X151518095Y-74607433D01*
X151552307Y-74546513D01*
X151614025Y-74513760D01*
X151638939Y-74511231D01*
X155816122Y-74511231D01*
X155883161Y-74530916D01*
X155928916Y-74583720D01*
X155938860Y-74652878D01*
X155909835Y-74716434D01*
X155903803Y-74722912D01*
X154880835Y-75745879D01*
X154880833Y-75745882D01*
X154837980Y-75820104D01*
X154821005Y-75883458D01*
X154815798Y-75902889D01*
X154815798Y-76780232D01*
X154796113Y-76847271D01*
X154767286Y-76878607D01*
X154713018Y-76920248D01*
X154616761Y-77045693D01*
X154556254Y-77191770D01*
X154556253Y-77191772D01*
X154535616Y-77348531D01*
X154535616Y-77355267D01*
X154515931Y-77422306D01*
X154463127Y-77468061D01*
X154427802Y-77478206D01*
X154302398Y-77494716D01*
X154302397Y-77494716D01*
X154156320Y-77555223D01*
X154030878Y-77651478D01*
X153934623Y-77776920D01*
X153874116Y-77922997D01*
X153874115Y-77922999D01*
X153853478Y-78079758D01*
X153853478Y-78079761D01*
X153874115Y-78236520D01*
X153874116Y-78236522D01*
X153934624Y-78382601D01*
X154030878Y-78508042D01*
X154156319Y-78604296D01*
X154302398Y-78664804D01*
X154380779Y-78675123D01*
X154459159Y-78685442D01*
X154459160Y-78685442D01*
X154534316Y-78675547D01*
X154603349Y-78686312D01*
X154655605Y-78732692D01*
X154674500Y-78798486D01*
X154674500Y-82100500D01*
X154654815Y-82167539D01*
X154602011Y-82213294D01*
X154550500Y-82224500D01*
X154108694Y-82224500D01*
X154041655Y-82204815D01*
X153995900Y-82152011D01*
X153985956Y-82082853D01*
X153994133Y-82053048D01*
X154009887Y-82015012D01*
X154034629Y-81955281D01*
X154055267Y-81798519D01*
X154051745Y-81771770D01*
X154034629Y-81641758D01*
X154034629Y-81641757D01*
X153974121Y-81495678D01*
X153877867Y-81370237D01*
X153752426Y-81273983D01*
X153606347Y-81213475D01*
X153558281Y-81207147D01*
X153455239Y-81193581D01*
X153391343Y-81165314D01*
X153352872Y-81106990D01*
X153348486Y-81086827D01*
X153333825Y-80975463D01*
X153328343Y-80933826D01*
X153267835Y-80787747D01*
X153171581Y-80662306D01*
X153046140Y-80566052D01*
X152999468Y-80546720D01*
X152900061Y-80505544D01*
X152900059Y-80505543D01*
X152743300Y-80484906D01*
X152743298Y-80484906D01*
X152586538Y-80505543D01*
X152586536Y-80505544D01*
X152440456Y-80566052D01*
X152383154Y-80610022D01*
X152317984Y-80635216D01*
X152249540Y-80621177D01*
X152209293Y-80587133D01*
X152193116Y-80566051D01*
X152178281Y-80546718D01*
X152052840Y-80450464D01*
X152043709Y-80446682D01*
X151906761Y-80389956D01*
X151906759Y-80389955D01*
X151750000Y-80369318D01*
X151749998Y-80369318D01*
X151593238Y-80389955D01*
X151593236Y-80389956D01*
X151447155Y-80450465D01*
X151440118Y-80454528D01*
X151439262Y-80453046D01*
X151383208Y-80474706D01*
X151314766Y-80460655D01*
X151285232Y-80438815D01*
X147536819Y-76690402D01*
X147503334Y-76629079D01*
X147500500Y-76602721D01*
X147500500Y-75874954D01*
X147520185Y-75807915D01*
X147572989Y-75762160D01*
X147642147Y-75752216D01*
X147705703Y-75781241D01*
X147722876Y-75799468D01*
X147725463Y-75802839D01*
X147725464Y-75802841D01*
X147738710Y-75820104D01*
X147818520Y-75924115D01*
X147821718Y-75928282D01*
X147947159Y-76024536D01*
X148093238Y-76085044D01*
X148171619Y-76095363D01*
X148249999Y-76105682D01*
X148250000Y-76105682D01*
X148250001Y-76105682D01*
X148302254Y-76098802D01*
X148406762Y-76085044D01*
X148552841Y-76024536D01*
X148678282Y-75928282D01*
X148774536Y-75802841D01*
X148835044Y-75656762D01*
X148855682Y-75500000D01*
X148849404Y-75452317D01*
X148841923Y-75395492D01*
X148835044Y-75343238D01*
X148774536Y-75197159D01*
X148678282Y-75071718D01*
X148552841Y-74975464D01*
X148406762Y-74914956D01*
X148406760Y-74914955D01*
X148250001Y-74894318D01*
X148249999Y-74894318D01*
X148093239Y-74914955D01*
X148093237Y-74914956D01*
X147947160Y-74975463D01*
X147821718Y-75071718D01*
X147722876Y-75200532D01*
X147666448Y-75241734D01*
X147596702Y-75245889D01*
X147535781Y-75211676D01*
X147503029Y-75149959D01*
X147500500Y-75125045D01*
X147500500Y-74635231D01*
X147520185Y-74568192D01*
X147572989Y-74522437D01*
X147624500Y-74511231D01*
X150861061Y-74511231D01*
X150928100Y-74530916D01*
G37*
%TD.AperFunction*%
%TA.AperFunction,Conductor*%
G36*
X146581718Y-77297799D02*
G01*
X146606126Y-77316760D01*
X149277186Y-79987819D01*
X149310671Y-80049142D01*
X149305687Y-80118834D01*
X149263815Y-80174767D01*
X149198351Y-80199184D01*
X149189505Y-80199500D01*
X147586538Y-80199500D01*
X147548324Y-80209739D01*
X147510109Y-80219979D01*
X147510104Y-80219982D01*
X147441595Y-80259535D01*
X147441587Y-80259541D01*
X145837948Y-81863181D01*
X145776625Y-81896666D01*
X145750267Y-81899500D01*
X144945488Y-81899500D01*
X144945487Y-81899500D01*
X144937431Y-81900561D01*
X144937052Y-81897686D01*
X144881153Y-81896342D01*
X144823300Y-81857164D01*
X144795812Y-81792929D01*
X144804377Y-81730790D01*
X144835041Y-81656762D01*
X144855679Y-81500000D01*
X144835041Y-81343238D01*
X144774533Y-81197159D01*
X144678279Y-81071718D01*
X144552838Y-80975464D01*
X144491029Y-80949862D01*
X144406759Y-80914956D01*
X144406757Y-80914955D01*
X144249998Y-80894318D01*
X144249994Y-80894318D01*
X144152680Y-80907129D01*
X144083645Y-80896363D01*
X144031390Y-80849983D01*
X144012505Y-80782714D01*
X144032986Y-80715913D01*
X144048808Y-80696517D01*
X144939652Y-79805672D01*
X144939657Y-79805669D01*
X144949860Y-79795465D01*
X144949862Y-79795465D01*
X145010465Y-79734862D01*
X145031891Y-79697750D01*
X145053318Y-79660639D01*
X145075500Y-79577853D01*
X145075500Y-79492147D01*
X145075500Y-77447764D01*
X145095185Y-77380725D01*
X145147989Y-77334970D01*
X145217147Y-77325026D01*
X145280703Y-77354051D01*
X145314061Y-77400312D01*
X145325462Y-77427838D01*
X145325463Y-77427839D01*
X145325464Y-77427841D01*
X145421718Y-77553282D01*
X145547159Y-77649536D01*
X145693238Y-77710044D01*
X145771619Y-77720363D01*
X145849999Y-77730682D01*
X145850000Y-77730682D01*
X145850001Y-77730682D01*
X145902254Y-77723802D01*
X146006762Y-77710044D01*
X146152841Y-77649536D01*
X146278282Y-77553282D01*
X146374536Y-77427841D01*
X146403884Y-77356987D01*
X146447725Y-77302585D01*
X146514019Y-77280520D01*
X146581718Y-77297799D01*
G37*
%TD.AperFunction*%
%TA.AperFunction,Conductor*%
G36*
X162943031Y-48269685D02*
G01*
X162988786Y-48322489D01*
X162999992Y-48374003D01*
X162999289Y-81001023D01*
X162979603Y-81068062D01*
X162926798Y-81113815D01*
X162857639Y-81123757D01*
X162794084Y-81094731D01*
X162767900Y-81063017D01*
X162760465Y-81050138D01*
X162699862Y-80989535D01*
X162699861Y-80989534D01*
X162695531Y-80985204D01*
X162695520Y-80985194D01*
X162199864Y-80489537D01*
X162199863Y-80489536D01*
X162199862Y-80489535D01*
X162136662Y-80453046D01*
X162125640Y-80446682D01*
X162084246Y-80435591D01*
X162042853Y-80424500D01*
X162042852Y-80424500D01*
X159374000Y-80424500D01*
X159306961Y-80404815D01*
X159261206Y-80352011D01*
X159250000Y-80300500D01*
X159250000Y-77259689D01*
X159269685Y-77192650D01*
X159322489Y-77146895D01*
X159391647Y-77136951D01*
X159455203Y-77165976D01*
X159461681Y-77172008D01*
X160246093Y-77956420D01*
X160279578Y-78017743D01*
X160274594Y-78087435D01*
X160254266Y-78122765D01*
X160122317Y-78283547D01*
X160024769Y-78466043D01*
X159964699Y-78664067D01*
X159944417Y-78870000D01*
X159964699Y-79075932D01*
X159969949Y-79093238D01*
X160024768Y-79273954D01*
X160122315Y-79456450D01*
X160122317Y-79456452D01*
X160253589Y-79616410D01*
X160350209Y-79695702D01*
X160413550Y-79747685D01*
X160596046Y-79845232D01*
X160794066Y-79905300D01*
X160794065Y-79905300D01*
X160812529Y-79907118D01*
X161000000Y-79925583D01*
X161205934Y-79905300D01*
X161403954Y-79845232D01*
X161586450Y-79747685D01*
X161746410Y-79616410D01*
X161877685Y-79456450D01*
X161975232Y-79273954D01*
X162035300Y-79075934D01*
X162055583Y-78870000D01*
X162035300Y-78664066D01*
X161975232Y-78466046D01*
X161877685Y-78283550D01*
X161825702Y-78220209D01*
X161746410Y-78123589D01*
X161586452Y-77992317D01*
X161586453Y-77992317D01*
X161586450Y-77992315D01*
X161403954Y-77894768D01*
X161205934Y-77834700D01*
X161205932Y-77834699D01*
X161205934Y-77834699D01*
X161071599Y-77821468D01*
X161006812Y-77795307D01*
X160996073Y-77785746D01*
X160796814Y-77586487D01*
X160763329Y-77525164D01*
X160768313Y-77455472D01*
X160810185Y-77399539D01*
X160875649Y-77375122D01*
X160896640Y-77375402D01*
X161000000Y-77385583D01*
X161205934Y-77365300D01*
X161403954Y-77305232D01*
X161586450Y-77207685D01*
X161746410Y-77076410D01*
X161877685Y-76916450D01*
X161975232Y-76733954D01*
X162035300Y-76535934D01*
X162055583Y-76330000D01*
X162035300Y-76124066D01*
X161975232Y-75926046D01*
X161877685Y-75743550D01*
X161824120Y-75678281D01*
X161746410Y-75583589D01*
X161586452Y-75452317D01*
X161586453Y-75452317D01*
X161586450Y-75452315D01*
X161403954Y-75354768D01*
X161205934Y-75294700D01*
X161205932Y-75294699D01*
X161205934Y-75294699D01*
X161000000Y-75274417D01*
X160794065Y-75294699D01*
X160724558Y-75315784D01*
X160654691Y-75316407D01*
X160595579Y-75279158D01*
X160565988Y-75215863D01*
X160575315Y-75146619D01*
X160600880Y-75109445D01*
X160835402Y-74874923D01*
X160896723Y-74841440D01*
X160935230Y-74839203D01*
X161000000Y-74845583D01*
X161205934Y-74825300D01*
X161403954Y-74765232D01*
X161586450Y-74667685D01*
X161746410Y-74536410D01*
X161877685Y-74376450D01*
X161975232Y-74193954D01*
X162035300Y-73995934D01*
X162055583Y-73790000D01*
X162035300Y-73584066D01*
X161975232Y-73386046D01*
X161877685Y-73203550D01*
X161825702Y-73140209D01*
X161746410Y-73043589D01*
X161586452Y-72912317D01*
X161586453Y-72912317D01*
X161586450Y-72912315D01*
X161403954Y-72814768D01*
X161205934Y-72754700D01*
X161205932Y-72754699D01*
X161205934Y-72754699D01*
X161000000Y-72734417D01*
X160794067Y-72754699D01*
X160596043Y-72814769D01*
X160413546Y-72912317D01*
X160353164Y-72961871D01*
X160288853Y-72989183D01*
X160219986Y-72977391D01*
X160168426Y-72930238D01*
X160150500Y-72866017D01*
X160150500Y-72611189D01*
X160170185Y-72544150D01*
X160186819Y-72523508D01*
X160373508Y-72336819D01*
X160434831Y-72303334D01*
X160461189Y-72300500D01*
X161869750Y-72300500D01*
X161869751Y-72300499D01*
X161884568Y-72297552D01*
X161928229Y-72288868D01*
X161928229Y-72288867D01*
X161928231Y-72288867D01*
X161994552Y-72244552D01*
X162038867Y-72178231D01*
X162038867Y-72178229D01*
X162038868Y-72178229D01*
X162050499Y-72119752D01*
X162050500Y-72119750D01*
X162050500Y-70380249D01*
X162050499Y-70380247D01*
X162038868Y-70321770D01*
X162038867Y-70321769D01*
X161994552Y-70255447D01*
X161928230Y-70211132D01*
X161928229Y-70211131D01*
X161869752Y-70199500D01*
X161869748Y-70199500D01*
X160130252Y-70199500D01*
X160130247Y-70199500D01*
X160071770Y-70211131D01*
X160071769Y-70211132D01*
X160005447Y-70255447D01*
X159961132Y-70321769D01*
X159961131Y-70321770D01*
X159949500Y-70380247D01*
X159949500Y-71788811D01*
X159929815Y-71855850D01*
X159913181Y-71876492D01*
X159564537Y-72225135D01*
X159564533Y-72225141D01*
X159521681Y-72299361D01*
X159521682Y-72299362D01*
X159499500Y-72382147D01*
X159499500Y-74488811D01*
X159479815Y-74555850D01*
X159463181Y-74576492D01*
X159461681Y-74577992D01*
X159400358Y-74611477D01*
X159330666Y-74606493D01*
X159274733Y-74564621D01*
X159250316Y-74499157D01*
X159250000Y-74490311D01*
X159250000Y-48374000D01*
X159269685Y-48306961D01*
X159322489Y-48261206D01*
X159374000Y-48250000D01*
X162875992Y-48250000D01*
X162943031Y-48269685D01*
G37*
%TD.AperFunction*%
%TA.AperFunction,Conductor*%
G36*
X145280703Y-69251525D02*
G01*
X145287167Y-69257544D01*
X145878413Y-69848789D01*
X146363181Y-70333557D01*
X146396666Y-70394880D01*
X146399500Y-70421238D01*
X146399500Y-76538284D01*
X146379815Y-76605323D01*
X146327011Y-76651078D01*
X146257853Y-76661022D01*
X146200015Y-76636661D01*
X146152841Y-76600464D01*
X146006762Y-76539956D01*
X146006760Y-76539955D01*
X145850001Y-76519318D01*
X145849999Y-76519318D01*
X145693239Y-76539955D01*
X145693237Y-76539956D01*
X145547160Y-76600463D01*
X145421718Y-76696718D01*
X145325463Y-76822160D01*
X145314061Y-76849688D01*
X145270220Y-76904092D01*
X145203925Y-76926156D01*
X145136226Y-76908876D01*
X145088616Y-76857739D01*
X145075500Y-76802235D01*
X145075500Y-69345238D01*
X145095185Y-69278199D01*
X145147989Y-69232444D01*
X145217147Y-69222500D01*
X145280703Y-69251525D01*
G37*
%TD.AperFunction*%
%TD*%
M02*
