%TF.GenerationSoftware,KiCad,Pcbnew,8.0.1*%
%TF.CreationDate,2024-07-17T16:46:35-04:00*%
%TF.ProjectId,Tiny4FSK,54696e79-3446-4534-9b2e-6b696361645f,rev?*%
%TF.SameCoordinates,Original*%
%TF.FileFunction,Copper,L4,Bot*%
%TF.FilePolarity,Positive*%
%FSLAX46Y46*%
G04 Gerber Fmt 4.6, Leading zero omitted, Abs format (unit mm)*
G04 Created by KiCad (PCBNEW 8.0.1) date 2024-07-17 16:46:35*
%MOMM*%
%LPD*%
G01*
G04 APERTURE LIST*
G04 Aperture macros list*
%AMRoundRect*
0 Rectangle with rounded corners*
0 $1 Rounding radius*
0 $2 $3 $4 $5 $6 $7 $8 $9 X,Y pos of 4 corners*
0 Add a 4 corners polygon primitive as box body*
4,1,4,$2,$3,$4,$5,$6,$7,$8,$9,$2,$3,0*
0 Add four circle primitives for the rounded corners*
1,1,$1+$1,$2,$3*
1,1,$1+$1,$4,$5*
1,1,$1+$1,$6,$7*
1,1,$1+$1,$8,$9*
0 Add four rect primitives between the rounded corners*
20,1,$1+$1,$2,$3,$4,$5,0*
20,1,$1+$1,$4,$5,$6,$7,0*
20,1,$1+$1,$6,$7,$8,$9,0*
20,1,$1+$1,$8,$9,$2,$3,0*%
G04 Aperture macros list end*
%TA.AperFunction,ComponentPad*%
%ADD10R,1.700000X1.700000*%
%TD*%
%TA.AperFunction,ComponentPad*%
%ADD11O,1.700000X1.700000*%
%TD*%
%TA.AperFunction,ComponentPad*%
%ADD12O,1.000000X2.100000*%
%TD*%
%TA.AperFunction,ComponentPad*%
%ADD13O,1.000000X1.800000*%
%TD*%
%TA.AperFunction,HeatsinkPad*%
%ADD14C,0.500000*%
%TD*%
%TA.AperFunction,HeatsinkPad*%
%ADD15R,2.500000X2.500000*%
%TD*%
%TA.AperFunction,ComponentPad*%
%ADD16C,0.600000*%
%TD*%
%TA.AperFunction,SMDPad,CuDef*%
%ADD17R,2.800000X2.300000*%
%TD*%
%TA.AperFunction,ComponentPad*%
%ADD18C,2.000000*%
%TD*%
%TA.AperFunction,SMDPad,CuDef*%
%ADD19RoundRect,0.500000X0.500000X2.000000X-0.500000X2.000000X-0.500000X-2.000000X0.500000X-2.000000X0*%
%TD*%
%TA.AperFunction,SMDPad,CuDef*%
%ADD20R,2.340000X3.960000*%
%TD*%
%TA.AperFunction,SMDPad,CuDef*%
%ADD21R,5.080000X3.960000*%
%TD*%
%TA.AperFunction,SMDPad,CuDef*%
%ADD22R,2.400000X0.740000*%
%TD*%
%TA.AperFunction,ViaPad*%
%ADD23C,0.800000*%
%TD*%
%TA.AperFunction,ViaPad*%
%ADD24C,0.600000*%
%TD*%
%TA.AperFunction,Conductor*%
%ADD25C,0.750000*%
%TD*%
%TA.AperFunction,Conductor*%
%ADD26C,0.250000*%
%TD*%
%TA.AperFunction,Conductor*%
%ADD27C,0.200000*%
%TD*%
G04 APERTURE END LIST*
D10*
%TO.P,J8,1,Pin_1*%
%TO.N,D+*%
X137491300Y-87496215D03*
D11*
%TO.P,J8,2,Pin_2*%
%TO.N,D-*%
X134951300Y-87496215D03*
%TO.P,J8,3,Pin_3*%
%TO.N,+3.3V*%
X132411300Y-87496215D03*
%TO.P,J8,4,Pin_4*%
%TO.N,Earth*%
X129871300Y-87496215D03*
%TD*%
D12*
%TO.P,J3,S1,SHIELD*%
%TO.N,Net-(J3-SHIELD)*%
X129606776Y-100655139D03*
D13*
X129606776Y-104835139D03*
D12*
X138246776Y-100655139D03*
D13*
X138246776Y-104835139D03*
%TD*%
D10*
%TO.P,J4,1,Pin_1*%
%TO.N,D+*%
X142250000Y-84210000D03*
D11*
%TO.P,J4,2,Pin_2*%
%TO.N,D-*%
X142250000Y-86750000D03*
%TO.P,J4,3,Pin_3*%
%TO.N,+3.3V*%
X142250000Y-89290000D03*
%TO.P,J4,4,Pin_4*%
%TO.N,Earth*%
X142250000Y-91830000D03*
%TD*%
D10*
%TO.P,J5,1,Pin_1*%
%TO.N,+3.3V*%
X162250000Y-82700000D03*
D11*
%TO.P,J5,2,Pin_2*%
%TO.N,SDA*%
X162250000Y-85240000D03*
%TO.P,J5,3,Pin_3*%
%TO.N,SCL*%
X162250000Y-87780000D03*
%TO.P,J5,4,Pin_4*%
%TO.N,Earth*%
X162250000Y-90320000D03*
%TD*%
D14*
%TO.P,U3,21,GND_2*%
%TO.N,Earth*%
X151500000Y-91000000D03*
X151500000Y-93000000D03*
D15*
X152500000Y-92000000D03*
D14*
X153500000Y-91000000D03*
X153500000Y-93000000D03*
%TD*%
D10*
%TO.P,J6,1,Pin_1*%
%TO.N,+BATT*%
X142294431Y-63452157D03*
D11*
%TO.P,J6,2,Pin_2*%
%TO.N,Earth*%
X142294431Y-60912157D03*
%TO.P,J6,3,Pin_3*%
%TO.N,+3.3V*%
X142294431Y-58372157D03*
%TD*%
D16*
%TO.P,U6,11,PAD*%
%TO.N,Earth*%
X154385000Y-69255000D03*
X152885000Y-69255000D03*
X153635000Y-69755000D03*
D17*
X153635000Y-69755000D03*
D16*
X154385000Y-70255000D03*
X152885000Y-70255000D03*
%TD*%
D18*
%TO.P,AE2,1,RF*%
%TO.N,Net-(AE2-RF)*%
X153911023Y-105665790D03*
%TO.P,AE2,2,Shield*%
%TO.N,Earth*%
X150696023Y-105665790D03*
D19*
X150696023Y-105665790D03*
D18*
X157126023Y-105665790D03*
D19*
X157126023Y-105665790D03*
%TD*%
D10*
%TO.P,J2,1,Pin_1*%
%TO.N,D12*%
X162250000Y-71250000D03*
D11*
%TO.P,J2,2,Pin_2*%
%TO.N,D13*%
X162250000Y-73790000D03*
%TO.P,J2,3,Pin_3*%
%TO.N,A1*%
X162250000Y-76330000D03*
%TO.P,J2,4,Pin_4*%
%TO.N,A2*%
X162250000Y-78870000D03*
%TD*%
D10*
%TO.P,J7,1,Pin_1*%
%TO.N,+3.3V*%
X162250000Y-94175000D03*
D11*
%TO.P,J7,2,Pin_2*%
%TO.N,MOSI*%
X162250000Y-96715000D03*
%TO.P,J7,3,Pin_3*%
%TO.N,MISO*%
X162250000Y-99255000D03*
%TO.P,J7,4,Pin_4*%
%TO.N,SCK*%
X162250000Y-101795000D03*
%TO.P,J7,5,Pin_5*%
%TO.N,Earth*%
X162250000Y-104335000D03*
%TD*%
D20*
%TO.P,BT1,2,-*%
%TO.N,Earth*%
X150250000Y-100750000D03*
D21*
X150250000Y-87900000D03*
%TO.P,BT1,1,+*%
%TO.N,+BATT*%
X150250000Y-59325000D03*
D20*
%TO.P,BT1,*%
%TO.N,*%
X150250000Y-46475000D03*
%TD*%
D22*
%TO.P,J1,1,Pin_1*%
%TO.N,+3.3V*%
X146750000Y-101250000D03*
%TO.P,J1,2,Pin_2*%
%TO.N,SWDIO*%
X142850000Y-101250000D03*
%TO.P,J1,3,Pin_3*%
%TO.N,Earth*%
X146750000Y-102520000D03*
%TO.P,J1,4,Pin_4*%
%TO.N,SWCLK*%
X142850000Y-102520000D03*
%TO.P,J1,5,Pin_5*%
%TO.N,Earth*%
X146750000Y-103790000D03*
%TO.P,J1,6,Pin_6*%
%TO.N,unconnected-(J1-Pin_6-Pad6)*%
X142850000Y-103790000D03*
%TO.P,J1,7,Pin_7*%
%TO.N,unconnected-(J1-Pin_7-Pad7)*%
X146750000Y-105060000D03*
%TO.P,J1,8,Pin_8*%
%TO.N,unconnected-(J1-Pin_8-Pad8)*%
X142850000Y-105060000D03*
%TO.P,J1,9,Pin_9*%
%TO.N,unconnected-(J1-Pin_9-Pad9)*%
X146750000Y-106330000D03*
%TO.P,J1,10,Pin_10*%
%TO.N,nRST*%
X142850000Y-106330000D03*
%TD*%
D23*
%TO.N,Earth*%
X130000000Y-90750000D03*
X130750000Y-102500000D03*
X137000000Y-102500000D03*
X131500000Y-103500000D03*
X134000000Y-103500000D03*
X132750000Y-103500000D03*
X135250000Y-103500000D03*
X136500000Y-103500000D03*
X136507753Y-93870555D03*
X130406247Y-96961402D03*
X130442696Y-94745323D03*
X133103448Y-96830187D03*
%TO.N,D-*%
X140852223Y-81666787D03*
%TO.N,GPS_EN*%
X142927084Y-80076633D03*
X142500000Y-82025000D03*
D24*
%TO.N,Net-(J3-SHIELD)*%
X138250000Y-94250000D03*
%TO.N,Earth*%
X138500000Y-89250000D03*
X132250000Y-94500000D03*
X139000000Y-95750000D03*
D23*
%TO.N,+3.3V*%
X131150000Y-93505000D03*
D24*
%TO.N,Net-(J3-SHIELD)*%
X138250000Y-98750000D03*
%TO.N,Earth*%
X138500000Y-90500000D03*
D23*
%TO.N,D-*%
X133250000Y-101800000D03*
D24*
%TO.N,Net-(J3-CC1)*%
X134250000Y-98000000D03*
D23*
%TO.N,D+*%
X134302482Y-101599196D03*
D24*
%TO.N,Net-(J3-CC1)*%
X132331765Y-101233235D03*
D23*
%TO.N,USB*%
X129102305Y-98083575D03*
X133130025Y-98130025D03*
D24*
%TO.N,Earth*%
X138381627Y-92205116D03*
X136500000Y-98000000D03*
X129000000Y-89250000D03*
D23*
X148636558Y-56728370D03*
X157000000Y-67750000D03*
X158750000Y-93500000D03*
X146750000Y-54750000D03*
X150250000Y-73500000D03*
X149145000Y-70617500D03*
X160750000Y-56250000D03*
X154100761Y-73460013D03*
X140750000Y-64750000D03*
X155250000Y-53500000D03*
X148500000Y-72500000D03*
X146750000Y-60500000D03*
X158750000Y-89500000D03*
X150000000Y-49250000D03*
X158750000Y-100750000D03*
X149393582Y-89315344D03*
X157398495Y-66500000D03*
X156500000Y-59000000D03*
X157250000Y-49750000D03*
X143000000Y-98500000D03*
X145750000Y-71500000D03*
X162250000Y-64750000D03*
X161500000Y-48750000D03*
X158750000Y-91500000D03*
X162250000Y-59250000D03*
X140750000Y-57000000D03*
X163750000Y-58250000D03*
X160750000Y-50250000D03*
X156750000Y-57750000D03*
X143517594Y-75736303D03*
X147000000Y-48750000D03*
X158750000Y-94500000D03*
X163750000Y-65750000D03*
X156640503Y-72436099D03*
X157398495Y-63363147D03*
X140750000Y-50000000D03*
X156500000Y-54250000D03*
X142250000Y-69750000D03*
X162250000Y-63000000D03*
X144000000Y-48750000D03*
X142000000Y-48750000D03*
X145712500Y-97500000D03*
X158750000Y-101750000D03*
X152750000Y-100500000D03*
X145712500Y-99500000D03*
X143000000Y-99750000D03*
X141000000Y-71250000D03*
X141000000Y-75250000D03*
X145750000Y-72750000D03*
X141000000Y-95500000D03*
X158750000Y-106750000D03*
X163750000Y-63750000D03*
X153250000Y-54250000D03*
X162250000Y-53250000D03*
X163750000Y-62000000D03*
X158750000Y-86500000D03*
X153000000Y-48750000D03*
X141051040Y-80478020D03*
X141000000Y-48750000D03*
X160750000Y-65750000D03*
X158750000Y-104750000D03*
X158750000Y-95500000D03*
X148000000Y-49250000D03*
X155500000Y-58000000D03*
X154500000Y-57000000D03*
X158750000Y-87500000D03*
X145575000Y-93296174D03*
X158750000Y-92500000D03*
X157750000Y-53250000D03*
X143000000Y-48750000D03*
X158750000Y-90500000D03*
X151000000Y-49250000D03*
X158750000Y-88500000D03*
X160750000Y-63750000D03*
X141221524Y-55000270D03*
X151338438Y-84795769D03*
X157398495Y-65454381D03*
X162250000Y-51250000D03*
X163750000Y-60250000D03*
X156895000Y-71250000D03*
X162250000Y-57250000D03*
X155750000Y-56750000D03*
X157750000Y-55250000D03*
X146750000Y-50250000D03*
X140750000Y-107250000D03*
X148750000Y-75000000D03*
X153750000Y-96000000D03*
X158750000Y-85500000D03*
X158750000Y-105750000D03*
X162250000Y-68500000D03*
X149000000Y-49250000D03*
X141000000Y-68250000D03*
X150206745Y-101598744D03*
X162250000Y-107250000D03*
X160750000Y-52250000D03*
X153750000Y-75750000D03*
X144000000Y-57000000D03*
X154250000Y-79250000D03*
X160750000Y-62000000D03*
X151250000Y-77250000D03*
X154000000Y-48750000D03*
X163750000Y-50250000D03*
X153317735Y-98651785D03*
X163750000Y-52250000D03*
X150924913Y-100777203D03*
X157398495Y-64408764D03*
X152000000Y-49250000D03*
X145246210Y-81889939D03*
X150217626Y-99825086D03*
X163750000Y-56250000D03*
X150250000Y-54000000D03*
X162250000Y-61250000D03*
X162250000Y-66750000D03*
X158000000Y-48750000D03*
X155386182Y-87492574D03*
X160750000Y-58250000D03*
X149548424Y-100809847D03*
X157000000Y-48750000D03*
X146000000Y-48750000D03*
X158750000Y-103750000D03*
X158750000Y-102750000D03*
X160750000Y-54250000D03*
X162250000Y-55250000D03*
X154500000Y-55500000D03*
X155000000Y-98750000D03*
X158750000Y-97500000D03*
X163750000Y-54250000D03*
X160750000Y-60250000D03*
X163750000Y-67750000D03*
X158750000Y-96500000D03*
X160750000Y-67750000D03*
X145000000Y-48750000D03*
X149500000Y-96750000D03*
%TO.N,+3.3V*%
X154377605Y-64069111D03*
X147974083Y-76365498D03*
X154532500Y-65255000D03*
X148646023Y-106273570D03*
X154357500Y-63000000D03*
X153390002Y-88978107D03*
X152250000Y-74750000D03*
X145850000Y-77125000D03*
X154357500Y-66505000D03*
X144767423Y-53527003D03*
X141798491Y-79001099D03*
X144000000Y-81947607D03*
X154459160Y-78079760D03*
X157250000Y-88750000D03*
X157000000Y-81250000D03*
X157112500Y-87500000D03*
X150233148Y-85258148D03*
X154750000Y-59500000D03*
X151506122Y-72426524D03*
X147372669Y-98397974D03*
%TO.N,GPIO1*%
X146637653Y-87887653D03*
X148176166Y-90614348D03*
%TO.N,RF_RST*%
X145575000Y-89646586D03*
X149405728Y-90905728D03*
%TO.N,SCK*%
X148828931Y-92063576D03*
%TO.N,MISO*%
X149087390Y-93388488D03*
X152257005Y-85191040D03*
%TO.N,MOSI*%
X152750000Y-99475000D03*
X158750000Y-99538983D03*
%TO.N,RF_SS*%
X150549890Y-93679485D03*
X153798960Y-84682384D03*
%TO.N,SDA*%
X157000000Y-83000000D03*
X157750153Y-85974847D03*
%TO.N,SCL*%
X141746063Y-49911322D03*
X155141298Y-77348533D03*
X157000000Y-79250000D03*
%TO.N,SWDIO*%
X147822340Y-82874802D03*
%TO.N,SWCLK*%
X148696470Y-82389104D03*
%TO.N,nRST*%
X147820789Y-83897149D03*
X142500000Y-95625000D03*
%TO.N,A1*%
X144749134Y-83464176D03*
%TO.N,A2*%
X145319484Y-84285581D03*
%TO.N,D-*%
X153449585Y-81798519D03*
%TO.N,SUCCESS*%
X145125000Y-88750000D03*
X144725178Y-106221176D03*
%TO.N,ERROR*%
X145794878Y-107319877D03*
X152000354Y-98225000D03*
X152855075Y-94998402D03*
X154777739Y-89928107D03*
%TO.N,SDN*%
X155052263Y-94223043D03*
X154382819Y-86357513D03*
%TO.N,D13*%
X152299750Y-82824750D03*
%TO.N,D12*%
X155893639Y-76643639D03*
%TO.N,+BATT*%
X148500000Y-58750000D03*
X151500000Y-59000000D03*
X148525000Y-57799906D03*
X152500000Y-57750000D03*
X144025000Y-74699191D03*
%TO.N,TXD*%
X151749999Y-80975000D03*
X152250000Y-56250000D03*
%TO.N,RXD*%
X151355571Y-55525000D03*
X152743299Y-81090588D03*
%TO.N,GPS_EN*%
X145012653Y-85237347D03*
X153500000Y-58250000D03*
%TD*%
D25*
%TO.N,+3.3V*%
X131150000Y-93505000D02*
X131150000Y-88757515D01*
D26*
%TO.N,D-*%
X133250000Y-101152105D02*
X134942500Y-99459605D01*
D27*
%TO.N,D+*%
X143250000Y-83210000D02*
X142250000Y-84210000D01*
X143250000Y-81500000D02*
X143250000Y-83210000D01*
X143000000Y-81250000D02*
X143250000Y-81500000D01*
X142258960Y-81250000D02*
X143000000Y-81250000D01*
X140650000Y-82858960D02*
X142258960Y-81250000D01*
X140650000Y-86600000D02*
X140650000Y-82858960D01*
X139753785Y-87496215D02*
X140650000Y-86600000D01*
X137491300Y-87496215D02*
X139753785Y-87496215D01*
D26*
X137491300Y-87508700D02*
X137491300Y-87496215D01*
X135550000Y-89450000D02*
X137491300Y-87508700D01*
X135550000Y-100351678D02*
X135550000Y-89450000D01*
X134302482Y-101599196D02*
X135550000Y-100351678D01*
%TO.N,D-*%
X133250000Y-101800000D02*
X133250000Y-101152105D01*
X134942500Y-99459605D02*
X134942500Y-87505015D01*
X134942500Y-87505015D02*
X134951300Y-87496215D01*
D25*
%TO.N,+3.3V*%
X131150000Y-88757515D02*
X132411300Y-87496215D01*
D26*
%TO.N,RF_RST*%
X148910091Y-90905728D02*
X149405728Y-90905728D01*
X147452952Y-91339348D02*
X148476471Y-91339348D01*
X146187653Y-90074049D02*
X147452952Y-91339348D01*
X146002463Y-90074049D02*
X146187653Y-90074049D01*
X145575000Y-89646586D02*
X146002463Y-90074049D01*
X148476471Y-91339348D02*
X148910091Y-90905728D01*
%TO.N,SCL*%
X158123495Y-57623495D02*
X158123495Y-72963547D01*
X153500000Y-53000000D02*
X158123495Y-57623495D01*
X143911322Y-49911322D02*
X147000000Y-53000000D01*
X141746063Y-49911322D02*
X143911322Y-49911322D01*
X147000000Y-53000000D02*
X153500000Y-53000000D01*
X155141298Y-75945744D02*
X155141298Y-77348533D01*
X158123495Y-72963547D02*
X155141298Y-75945744D01*
D27*
%TO.N,D-*%
X144000000Y-85000000D02*
X142250000Y-86750000D01*
X144000000Y-83185050D02*
X144000000Y-85000000D01*
X144435050Y-82750000D02*
X144000000Y-83185050D01*
X145376100Y-82750000D02*
X144435050Y-82750000D01*
X146313050Y-81813050D02*
X145376100Y-82750000D01*
D25*
%TO.N,USB*%
X133130025Y-98130025D02*
X133083575Y-98083575D01*
X133083575Y-98083575D02*
X129102305Y-98083575D01*
%TO.N,Net-(J3-SHIELD)*%
X137375000Y-95125000D02*
X138250000Y-94250000D01*
X137375000Y-97875000D02*
X137375000Y-95125000D01*
X138250000Y-98750000D02*
X137375000Y-97875000D01*
D27*
%TO.N,D-*%
X145350000Y-80850000D02*
X146313050Y-81813050D01*
X141669010Y-80850000D02*
X145350000Y-80850000D01*
X140852223Y-81666787D02*
X141669010Y-80850000D01*
X147626100Y-80500000D02*
X146313050Y-81813050D01*
D26*
%TO.N,GPS_EN*%
X144250000Y-86000000D02*
X145012653Y-85237347D01*
X142825000Y-87925000D02*
X144250000Y-86500000D01*
X141075000Y-87325000D02*
X141675000Y-87925000D01*
X141075000Y-83035000D02*
X141075000Y-87325000D01*
X142085000Y-82025000D02*
X141075000Y-83035000D01*
X141675000Y-87925000D02*
X142825000Y-87925000D01*
X144250000Y-86500000D02*
X144250000Y-86000000D01*
X142500000Y-82025000D02*
X142085000Y-82025000D01*
X144148062Y-80076633D02*
X144750000Y-79474695D01*
X142927084Y-80076633D02*
X144148062Y-80076633D01*
D25*
%TO.N,Net-(J3-SHIELD)*%
X138250000Y-104760000D02*
X129610000Y-104760000D01*
D27*
%TO.N,Net-(J3-CC1)*%
X132331765Y-101233235D02*
X132331765Y-99918235D01*
X132331765Y-99918235D02*
X134250000Y-98000000D01*
D26*
%TO.N,GPS_EN*%
X148063604Y-54800000D02*
X144750000Y-58113604D01*
X144750000Y-58113604D02*
X144750000Y-79474695D01*
X152550000Y-54800000D02*
X148063604Y-54800000D01*
X153500000Y-55750000D02*
X152550000Y-54800000D01*
X153500000Y-58250000D02*
X153500000Y-55750000D01*
D27*
%TO.N,D-*%
X149648654Y-80500000D02*
X147626100Y-80500000D01*
X151273654Y-82125000D02*
X149648654Y-80500000D01*
X153123104Y-82125000D02*
X151273654Y-82125000D01*
X153449585Y-81798519D02*
X153123104Y-82125000D01*
D26*
%TO.N,A1*%
X157868980Y-76330000D02*
X162250000Y-76330000D01*
X155450000Y-82800305D02*
X155450000Y-78748980D01*
X152600055Y-83549750D02*
X153149804Y-83000000D01*
X155450000Y-78748980D02*
X157868980Y-76330000D01*
X151799750Y-83549750D02*
X152600055Y-83549750D01*
X149250000Y-81000000D02*
X151799750Y-83549750D01*
X147727140Y-81000000D02*
X149250000Y-81000000D01*
X144749134Y-83464176D02*
X145262964Y-83464176D01*
X145262964Y-83464176D02*
X147727140Y-81000000D01*
X155250305Y-83000000D02*
X155450000Y-82800305D01*
X153149804Y-83000000D02*
X155250305Y-83000000D01*
D25*
%TO.N,+BATT*%
X144025000Y-74699191D02*
X143500000Y-74174191D01*
X143500000Y-68000000D02*
X142294431Y-66794431D01*
X142294431Y-66794431D02*
X142294431Y-63452157D01*
X143500000Y-74174191D02*
X143500000Y-68000000D01*
D26*
%TO.N,MOSI*%
X158686017Y-99475000D02*
X152750000Y-99475000D01*
X158750000Y-99538983D02*
X158686017Y-99475000D01*
%TO.N,SCK*%
X162250000Y-101147500D02*
X162250000Y-101795000D01*
X159916483Y-98813983D02*
X162250000Y-101147500D01*
X151650049Y-97550000D02*
X151700049Y-97500000D01*
X154775305Y-97500000D02*
X156089288Y-98813983D01*
X148362390Y-94487390D02*
X151425000Y-97550000D01*
X156089288Y-98813983D02*
X159916483Y-98813983D01*
X148362390Y-92530117D02*
X148362390Y-94487390D01*
X151425000Y-97550000D02*
X151650049Y-97550000D01*
X151700049Y-97500000D02*
X154775305Y-97500000D01*
X148828931Y-92063576D02*
X148362390Y-92530117D01*
%TO.N,MISO*%
X161358983Y-98363983D02*
X162250000Y-99255000D01*
X157500000Y-98000000D02*
X157863983Y-98363983D01*
X157500000Y-96000000D02*
X157500000Y-98000000D01*
X157250000Y-95750000D02*
X157500000Y-96000000D01*
X157863983Y-98363983D02*
X161358983Y-98363983D01*
%TO.N,Earth*%
X147500000Y-97500000D02*
X148275000Y-98275000D01*
X146750000Y-103790000D02*
X146750000Y-102520000D01*
X145712500Y-97500000D02*
X147500000Y-97500000D01*
X148275000Y-101945000D02*
X147700000Y-102520000D01*
X148275000Y-98275000D02*
X148275000Y-101945000D01*
X147700000Y-102520000D02*
X146750000Y-102520000D01*
%TO.N,+3.3V*%
X150500000Y-71420402D02*
X151506122Y-72426524D01*
X150500000Y-68362500D02*
X150500000Y-71420402D01*
X153607500Y-65255000D02*
X150500000Y-68362500D01*
X154532500Y-65255000D02*
X153607500Y-65255000D01*
X147372669Y-98397974D02*
X146750000Y-99020643D01*
X146750000Y-99020643D02*
X146750000Y-101250000D01*
%TO.N,GPIO1*%
X148040514Y-90750000D02*
X147500000Y-90750000D01*
X148176166Y-90614348D02*
X148040514Y-90750000D01*
X147500000Y-90750000D02*
X146637653Y-89887653D01*
X146637653Y-89887653D02*
X146637653Y-87887653D01*
%TO.N,MISO*%
X154700000Y-83950000D02*
X157975000Y-87225000D01*
X149087390Y-93562850D02*
X152249540Y-96725000D01*
X152257005Y-85191040D02*
X153498046Y-83950000D01*
X153498046Y-83950000D02*
X154700000Y-83950000D01*
X157975000Y-87225000D02*
X157975000Y-95025000D01*
X152249540Y-96725000D02*
X154050305Y-96725000D01*
X157975000Y-95025000D02*
X157250000Y-95750000D01*
X155025305Y-95750000D02*
X157250000Y-95750000D01*
X149087390Y-93388488D02*
X149087390Y-93562850D01*
X154050305Y-96725000D02*
X155025305Y-95750000D01*
%TO.N,RF_SS*%
X154250000Y-90425673D02*
X154250000Y-93363604D01*
X153500000Y-84981344D02*
X153500000Y-86500000D01*
X153363604Y-94250000D02*
X151120405Y-94250000D01*
X154052739Y-89627802D02*
X154052739Y-90228412D01*
X154052739Y-90228412D02*
X154250000Y-90425673D01*
X154250000Y-93363604D02*
X153363604Y-94250000D01*
X154500000Y-87500000D02*
X154500000Y-89203107D01*
X153798960Y-84682384D02*
X153500000Y-84981344D01*
X154477434Y-89203107D02*
X154052739Y-89627802D01*
X151120405Y-94250000D02*
X150549890Y-93679485D01*
X153500000Y-86500000D02*
X154500000Y-87500000D01*
X154500000Y-89203107D02*
X154477434Y-89203107D01*
%TO.N,SDA*%
X157750153Y-85974847D02*
X157750153Y-83750153D01*
X161760000Y-84750000D02*
X162250000Y-85240000D01*
X157750153Y-84750000D02*
X161760000Y-84750000D01*
X157750153Y-85974847D02*
X157750153Y-84750000D01*
X157750153Y-83750153D02*
X157000000Y-83000000D01*
%TO.N,SCL*%
X163500000Y-86530000D02*
X163500000Y-81750000D01*
X162500000Y-80750000D02*
X158500000Y-80750000D01*
X158500000Y-80750000D02*
X157000000Y-79250000D01*
X162250000Y-87780000D02*
X163500000Y-86530000D01*
X163500000Y-81750000D02*
X162500000Y-80750000D01*
%TO.N,SWDIO*%
X148545789Y-83596844D02*
X148545789Y-84197454D01*
X142250000Y-97500000D02*
X142250000Y-100650000D01*
X148121094Y-84622149D02*
X147514247Y-84622149D01*
X147822340Y-82874802D02*
X148119687Y-83172149D01*
X148121094Y-83172149D02*
X148545789Y-83596844D01*
X148545789Y-84197454D02*
X148121094Y-84622149D01*
X147514247Y-84622149D02*
X143950000Y-88186396D01*
X148119687Y-83172149D02*
X148121094Y-83172149D01*
X142250000Y-100650000D02*
X142850000Y-101250000D01*
X143950000Y-88186396D02*
X143950000Y-95800000D01*
X143950000Y-95800000D02*
X142250000Y-97500000D01*
%TO.N,SWCLK*%
X147700643Y-85072149D02*
X144400000Y-88372792D01*
X144400000Y-95986396D02*
X143750000Y-96636396D01*
X148995789Y-82688423D02*
X148995789Y-84383850D01*
X148307490Y-85072149D02*
X147700643Y-85072149D01*
X143750000Y-100000000D02*
X144500000Y-100750000D01*
X144500000Y-102320000D02*
X144300000Y-102520000D01*
X148995789Y-84383850D02*
X148307490Y-85072149D01*
X144500000Y-100750000D02*
X144500000Y-102320000D01*
X148696470Y-82389104D02*
X148995789Y-82688423D01*
X144300000Y-102520000D02*
X142850000Y-102520000D01*
X144400000Y-88372792D02*
X144400000Y-95986396D01*
X143750000Y-96636396D02*
X143750000Y-100000000D01*
%TO.N,nRST*%
X143500000Y-94625000D02*
X142500000Y-95625000D01*
X147602851Y-83897149D02*
X143500000Y-88000000D01*
X147820789Y-83897149D02*
X147602851Y-83897149D01*
X142850000Y-106330000D02*
X141520000Y-106330000D01*
X141520000Y-106330000D02*
X141250000Y-106060000D01*
X141250000Y-106060000D02*
X141250000Y-96875000D01*
X141250000Y-96875000D02*
X142500000Y-95625000D01*
X143500000Y-88000000D02*
X143500000Y-94625000D01*
%TO.N,A2*%
X145319484Y-84285581D02*
X145319484Y-84044052D01*
X152786200Y-84000000D02*
X153286200Y-83500000D01*
X145319484Y-84044052D02*
X147863536Y-81500000D01*
X162250000Y-78250000D02*
X162250000Y-78870000D01*
X155900000Y-82986701D02*
X155900000Y-79100000D01*
X155900000Y-79100000D02*
X158220000Y-76780000D01*
X158220000Y-76780000D02*
X160780000Y-76780000D01*
X147863536Y-81500000D02*
X149040977Y-81500000D01*
X151540977Y-84000000D02*
X152786200Y-84000000D01*
X160780000Y-76780000D02*
X162250000Y-78250000D01*
X149040977Y-81500000D02*
X151540977Y-84000000D01*
X155386701Y-83500000D02*
X155900000Y-82986701D01*
X153286200Y-83500000D02*
X155386701Y-83500000D01*
%TO.N,SUCCESS*%
X144850000Y-96172792D02*
X144850000Y-89025000D01*
X144250000Y-99863604D02*
X144250000Y-96772792D01*
X144658181Y-106154179D02*
X144658181Y-103091819D01*
X144658181Y-103091819D02*
X144950000Y-102800000D01*
X144250000Y-96772792D02*
X144850000Y-96172792D01*
X144850000Y-89025000D02*
X145125000Y-88750000D01*
X144950000Y-102800000D02*
X144950000Y-100563604D01*
X144725178Y-106221176D02*
X144658181Y-106154179D01*
X144950000Y-100563604D02*
X144250000Y-99863604D01*
%TO.N,ERROR*%
X149371023Y-103671023D02*
X148725000Y-103025000D01*
X151775354Y-98000000D02*
X152000354Y-98225000D01*
X149250000Y-98000000D02*
X151775354Y-98000000D01*
X148750000Y-107250000D02*
X149371023Y-106628977D01*
X155000000Y-93250000D02*
X153251598Y-94998402D01*
X154777739Y-89928107D02*
X155000000Y-90150368D01*
X145794878Y-107319877D02*
X145864755Y-107250000D01*
X149371023Y-106628977D02*
X149371023Y-103671023D01*
X153251598Y-94998402D02*
X152855075Y-94998402D01*
X145864755Y-107250000D02*
X148750000Y-107250000D01*
X148725000Y-103025000D02*
X148725000Y-98525000D01*
X148725000Y-98525000D02*
X149250000Y-98000000D01*
X155000000Y-90150368D02*
X155000000Y-93250000D01*
%TO.N,SDN*%
X155357513Y-86357513D02*
X154382819Y-86357513D01*
X155052263Y-94223043D02*
X156250000Y-93025306D01*
X156250000Y-93025306D02*
X156250000Y-87250000D01*
X156250000Y-87250000D02*
X155357513Y-86357513D01*
%TO.N,D13*%
X160620000Y-75880000D02*
X162250000Y-74250000D01*
X155000000Y-78562584D02*
X157682584Y-75880000D01*
X162250000Y-74250000D02*
X162250000Y-73790000D01*
X152299750Y-82824750D02*
X152574500Y-82550000D01*
X152574500Y-82550000D02*
X154812500Y-82550000D01*
X155000000Y-82362500D02*
X155000000Y-78562584D01*
X154812500Y-82550000D02*
X155000000Y-82362500D01*
X157682584Y-75880000D02*
X160620000Y-75880000D01*
%TO.N,D12*%
X157107278Y-75430000D02*
X160416514Y-75430000D01*
X160416514Y-75430000D02*
X161000000Y-74846514D01*
X155893639Y-76643639D02*
X157107278Y-75430000D01*
X161000000Y-72500000D02*
X162250000Y-71250000D01*
X161000000Y-74846514D02*
X161000000Y-72500000D01*
%TO.N,+BATT*%
X148500000Y-58750000D02*
X148075000Y-59175000D01*
%TO.N,TXD*%
X147175000Y-70048654D02*
X147175000Y-76788910D01*
X150805266Y-56000000D02*
X148136396Y-56000000D01*
X148136396Y-56000000D02*
X146000000Y-58136396D01*
X146000000Y-68873654D02*
X147175000Y-70048654D01*
X151055266Y-56250000D02*
X150805266Y-56000000D01*
X146000000Y-58136396D02*
X146000000Y-68873654D01*
X147175000Y-76788910D02*
X151361090Y-80975000D01*
X152250000Y-56250000D02*
X151055266Y-56250000D01*
X151361090Y-80975000D02*
X151749999Y-80975000D01*
%TO.N,RXD*%
X146725000Y-70235050D02*
X146725000Y-76975306D01*
X147975000Y-55525000D02*
X145500000Y-58000000D01*
X145500000Y-69010050D02*
X146725000Y-70235050D01*
X151449694Y-81700000D02*
X152133887Y-81700000D01*
X145500000Y-58000000D02*
X145500000Y-69010050D01*
X146725000Y-76975306D02*
X151449694Y-81700000D01*
X152133887Y-81700000D02*
X152743299Y-81090588D01*
X151355571Y-55525000D02*
X147975000Y-55525000D01*
%TD*%
%TA.AperFunction,Conductor*%
%TO.N,Earth*%
G36*
X140292539Y-85833943D02*
G01*
X140338294Y-85886747D01*
X140349500Y-85938258D01*
X140349500Y-86424167D01*
X140329815Y-86491206D01*
X140313181Y-86511848D01*
X139665633Y-87159396D01*
X139604310Y-87192881D01*
X139577952Y-87195715D01*
X138665800Y-87195715D01*
X138598761Y-87176030D01*
X138553006Y-87123226D01*
X138541800Y-87071715D01*
X138541800Y-86626464D01*
X138541799Y-86626462D01*
X138530168Y-86567985D01*
X138530167Y-86567984D01*
X138485852Y-86501662D01*
X138419530Y-86457347D01*
X138419529Y-86457346D01*
X138361052Y-86445715D01*
X138361048Y-86445715D01*
X136621552Y-86445715D01*
X136621547Y-86445715D01*
X136563070Y-86457346D01*
X136563069Y-86457347D01*
X136496747Y-86501662D01*
X136452432Y-86567984D01*
X136452431Y-86567985D01*
X136440800Y-86626462D01*
X136440800Y-88047511D01*
X136421115Y-88114550D01*
X136404481Y-88135192D01*
X135479681Y-89059992D01*
X135418358Y-89093477D01*
X135348666Y-89088493D01*
X135292733Y-89046621D01*
X135268316Y-88981157D01*
X135268000Y-88972311D01*
X135268000Y-88589880D01*
X135287685Y-88522841D01*
X135340489Y-88477086D01*
X135353703Y-88472089D01*
X135355246Y-88471450D01*
X135355248Y-88471448D01*
X135355254Y-88471447D01*
X135537750Y-88373900D01*
X135697710Y-88242625D01*
X135828985Y-88082665D01*
X135926532Y-87900169D01*
X135986600Y-87702149D01*
X136006883Y-87496215D01*
X135986600Y-87290281D01*
X135926532Y-87092261D01*
X135828985Y-86909765D01*
X135748885Y-86812162D01*
X135697710Y-86749804D01*
X135547421Y-86626467D01*
X135537750Y-86618530D01*
X135355254Y-86520983D01*
X135157234Y-86460915D01*
X135157232Y-86460914D01*
X135157234Y-86460914D01*
X134951300Y-86440632D01*
X134745367Y-86460914D01*
X134547343Y-86520984D01*
X134474555Y-86559891D01*
X134364850Y-86618530D01*
X134364848Y-86618531D01*
X134364847Y-86618532D01*
X134204889Y-86749804D01*
X134079727Y-86902317D01*
X134073615Y-86909765D01*
X134065220Y-86925471D01*
X133976069Y-87092258D01*
X133915999Y-87290282D01*
X133895717Y-87496215D01*
X133915999Y-87702147D01*
X133944686Y-87796715D01*
X133976068Y-87900169D01*
X134073615Y-88082665D01*
X134099782Y-88114550D01*
X134204889Y-88242625D01*
X134292797Y-88314768D01*
X134364850Y-88373900D01*
X134547346Y-88471447D01*
X134547349Y-88471448D01*
X134551454Y-88473642D01*
X134601298Y-88522604D01*
X134617000Y-88583000D01*
X134617000Y-97420485D01*
X134597315Y-97487524D01*
X134544511Y-97533279D01*
X134475353Y-97543223D01*
X134458066Y-97539462D01*
X134321964Y-97499500D01*
X134321961Y-97499500D01*
X134178039Y-97499500D01*
X134178036Y-97499500D01*
X134039949Y-97540045D01*
X133918873Y-97617856D01*
X133824623Y-97726626D01*
X133824621Y-97726630D01*
X133818034Y-97741053D01*
X133772278Y-97793856D01*
X133705238Y-97813539D01*
X133638199Y-97793853D01*
X133606867Y-97765027D01*
X133558307Y-97701743D01*
X133558305Y-97701742D01*
X133558305Y-97701741D01*
X133432866Y-97605489D01*
X133432859Y-97605485D01*
X133347080Y-97569953D01*
X133332537Y-97562782D01*
X133326052Y-97559038D01*
X133305710Y-97547294D01*
X133159341Y-97508075D01*
X133159340Y-97508075D01*
X129306773Y-97508075D01*
X129267041Y-97500172D01*
X129266918Y-97500635D01*
X129259862Y-97498744D01*
X129259323Y-97498637D01*
X129259067Y-97498531D01*
X129259065Y-97498530D01*
X129102306Y-97477893D01*
X129102304Y-97477893D01*
X128945544Y-97498530D01*
X128945542Y-97498531D01*
X128799465Y-97559038D01*
X128674023Y-97655293D01*
X128577768Y-97780735D01*
X128517261Y-97926812D01*
X128517260Y-97926814D01*
X128496623Y-98083573D01*
X128496623Y-98083576D01*
X128517260Y-98240335D01*
X128517261Y-98240337D01*
X128567580Y-98361819D01*
X128577769Y-98386416D01*
X128674023Y-98511857D01*
X128799464Y-98608111D01*
X128945543Y-98668619D01*
X128988209Y-98674236D01*
X129102304Y-98689257D01*
X129102305Y-98689257D01*
X129102306Y-98689257D01*
X129154559Y-98682377D01*
X129259067Y-98668619D01*
X129259323Y-98668512D01*
X129259862Y-98668405D01*
X129266918Y-98666515D01*
X129267041Y-98666977D01*
X129306773Y-98659075D01*
X132813417Y-98659075D01*
X132860869Y-98668513D01*
X132860949Y-98668547D01*
X132898469Y-98684088D01*
X132952872Y-98727929D01*
X132974937Y-98794223D01*
X132957658Y-98861922D01*
X132938697Y-98886330D01*
X132147254Y-99677775D01*
X132091306Y-99733722D01*
X132091300Y-99733730D01*
X132051747Y-99802239D01*
X132051744Y-99802244D01*
X132031265Y-99878674D01*
X132031265Y-100769495D01*
X132011580Y-100836534D01*
X132000978Y-100850697D01*
X131906390Y-100959857D01*
X131906387Y-100959863D01*
X131846599Y-101090778D01*
X131826118Y-101233235D01*
X131846599Y-101375691D01*
X131871241Y-101429648D01*
X131906388Y-101506608D01*
X132000637Y-101615378D01*
X132121712Y-101693188D01*
X132121715Y-101693189D01*
X132121714Y-101693189D01*
X132259801Y-101733734D01*
X132259803Y-101733735D01*
X132259804Y-101733735D01*
X132403726Y-101733735D01*
X132487997Y-101708991D01*
X132557864Y-101708991D01*
X132616642Y-101746765D01*
X132645668Y-101810320D01*
X132645869Y-101811783D01*
X132664955Y-101956760D01*
X132664956Y-101956762D01*
X132694247Y-102027478D01*
X132725464Y-102102841D01*
X132821718Y-102228282D01*
X132947159Y-102324536D01*
X133093238Y-102385044D01*
X133171619Y-102395363D01*
X133249999Y-102405682D01*
X133250000Y-102405682D01*
X133250001Y-102405682D01*
X133302254Y-102398802D01*
X133406762Y-102385044D01*
X133552841Y-102324536D01*
X133678282Y-102228282D01*
X133772383Y-102105646D01*
X133828808Y-102064445D01*
X133898554Y-102060290D01*
X133946244Y-102082759D01*
X133999639Y-102123731D01*
X133999640Y-102123731D01*
X133999641Y-102123732D01*
X134145720Y-102184240D01*
X134224101Y-102194559D01*
X134302481Y-102204878D01*
X134302482Y-102204878D01*
X134302483Y-102204878D01*
X134354736Y-102197998D01*
X134459244Y-102184240D01*
X134605323Y-102123732D01*
X134730764Y-102027478D01*
X134827018Y-101902037D01*
X134887526Y-101755958D01*
X134908164Y-101599196D01*
X134906830Y-101589067D01*
X134899235Y-101531377D01*
X134910000Y-101462342D01*
X134934490Y-101427513D01*
X135150846Y-101211157D01*
X136391276Y-101211157D01*
X136420273Y-101319376D01*
X136476291Y-101416402D01*
X136555513Y-101495624D01*
X136652539Y-101551642D01*
X136760758Y-101580639D01*
X136760760Y-101580639D01*
X136872792Y-101580639D01*
X136872794Y-101580639D01*
X136981013Y-101551642D01*
X137078039Y-101495624D01*
X137157261Y-101416402D01*
X137213279Y-101319376D01*
X137242276Y-101211157D01*
X137242276Y-101099121D01*
X137213279Y-100990902D01*
X137157261Y-100893876D01*
X137078039Y-100814654D01*
X136981013Y-100758636D01*
X136872794Y-100729639D01*
X136760758Y-100729639D01*
X136652539Y-100758636D01*
X136652536Y-100758637D01*
X136555516Y-100814652D01*
X136555510Y-100814656D01*
X136476293Y-100893873D01*
X136476289Y-100893879D01*
X136420274Y-100990899D01*
X136420273Y-100990902D01*
X136391276Y-101099121D01*
X136391276Y-101211157D01*
X135150846Y-101211157D01*
X135810465Y-100551540D01*
X135853318Y-100477317D01*
X135875500Y-100394531D01*
X135875500Y-100308825D01*
X135875500Y-97950765D01*
X136799500Y-97950765D01*
X136838719Y-98097136D01*
X136842404Y-98103518D01*
X136914485Y-98228365D01*
X137896635Y-99210515D01*
X137962711Y-99248664D01*
X138010927Y-99299231D01*
X138024150Y-99367838D01*
X137998182Y-99432703D01*
X137948165Y-99470612D01*
X137914964Y-99484364D01*
X137914958Y-99484367D01*
X137800234Y-99561024D01*
X137800230Y-99561027D01*
X137702664Y-99658593D01*
X137702661Y-99658597D01*
X137626004Y-99773321D01*
X137625997Y-99773334D01*
X137573197Y-99900806D01*
X137573194Y-99900816D01*
X137546276Y-100036143D01*
X137546276Y-100036146D01*
X137546276Y-101274132D01*
X137546276Y-101274134D01*
X137546275Y-101274134D01*
X137573194Y-101409461D01*
X137573197Y-101409471D01*
X137625997Y-101536943D01*
X137626004Y-101536956D01*
X137702661Y-101651680D01*
X137702664Y-101651684D01*
X137800230Y-101749250D01*
X137800234Y-101749253D01*
X137914958Y-101825910D01*
X137914971Y-101825917D01*
X138042443Y-101878717D01*
X138042448Y-101878719D01*
X138042452Y-101878719D01*
X138042453Y-101878720D01*
X138177780Y-101905639D01*
X138177783Y-101905639D01*
X138315771Y-101905639D01*
X138406817Y-101887528D01*
X138451104Y-101878719D01*
X138578587Y-101825914D01*
X138693318Y-101749253D01*
X138790890Y-101651681D01*
X138867551Y-101536950D01*
X138920356Y-101409467D01*
X138938276Y-101319378D01*
X138947276Y-101274134D01*
X138947276Y-100036143D01*
X138920357Y-99900816D01*
X138920356Y-99900815D01*
X138920356Y-99900811D01*
X138898901Y-99849014D01*
X138867554Y-99773334D01*
X138867547Y-99773321D01*
X138790890Y-99658597D01*
X138790887Y-99658593D01*
X138693321Y-99561027D01*
X138693317Y-99561024D01*
X138578593Y-99484367D01*
X138578587Y-99484364D01*
X138549141Y-99472167D01*
X138494738Y-99428325D01*
X138472674Y-99362031D01*
X138489954Y-99294332D01*
X138534593Y-99250220D01*
X138603365Y-99210515D01*
X138710515Y-99103365D01*
X138786281Y-98972135D01*
X138825500Y-98825767D01*
X138825500Y-98674234D01*
X138786281Y-98527865D01*
X138786265Y-98527838D01*
X138763361Y-98488167D01*
X138710515Y-98396635D01*
X137986819Y-97672939D01*
X137953334Y-97611616D01*
X137950500Y-97585258D01*
X137950500Y-95414742D01*
X137970185Y-95347703D01*
X137986819Y-95327061D01*
X138331733Y-94982147D01*
X138710515Y-94603365D01*
X138786281Y-94472135D01*
X138825500Y-94325766D01*
X138825500Y-94174233D01*
X138786281Y-94027865D01*
X138710515Y-93896635D01*
X138603365Y-93789485D01*
X138533214Y-93748983D01*
X138472136Y-93713719D01*
X138344371Y-93679485D01*
X138325767Y-93674500D01*
X138174234Y-93674500D01*
X138027863Y-93713719D01*
X137896635Y-93789485D01*
X137896632Y-93789487D01*
X136914487Y-94771632D01*
X136914485Y-94771635D01*
X136838719Y-94902863D01*
X136799500Y-95049234D01*
X136799500Y-97950765D01*
X135875500Y-97950765D01*
X135875500Y-89636188D01*
X135895185Y-89569149D01*
X135911819Y-89548507D01*
X136877292Y-88583034D01*
X136938615Y-88549549D01*
X136964973Y-88546715D01*
X138361050Y-88546715D01*
X138361051Y-88546714D01*
X138376758Y-88543590D01*
X138419529Y-88535083D01*
X138419529Y-88535082D01*
X138419531Y-88535082D01*
X138485852Y-88490767D01*
X138530167Y-88424446D01*
X138530167Y-88424444D01*
X138530168Y-88424444D01*
X138541799Y-88365967D01*
X138541800Y-88365965D01*
X138541800Y-87920715D01*
X138561485Y-87853676D01*
X138614289Y-87807921D01*
X138665800Y-87796715D01*
X139793345Y-87796715D01*
X139793347Y-87796715D01*
X139869774Y-87776236D01*
X139938296Y-87736675D01*
X139994245Y-87680726D01*
X140537819Y-87137152D01*
X140599142Y-87103667D01*
X140668834Y-87108651D01*
X140724767Y-87150523D01*
X140749184Y-87215987D01*
X140749500Y-87224833D01*
X140749500Y-87282147D01*
X140749500Y-87367853D01*
X140751695Y-87376046D01*
X140771682Y-87450640D01*
X140776723Y-87459371D01*
X140814535Y-87524862D01*
X141475138Y-88185465D01*
X141549361Y-88228318D01*
X141549360Y-88228318D01*
X141560535Y-88231312D01*
X141571277Y-88234190D01*
X141630938Y-88270553D01*
X141661469Y-88333400D01*
X141653175Y-88402776D01*
X141617851Y-88449818D01*
X141503590Y-88543589D01*
X141372317Y-88703547D01*
X141274769Y-88886043D01*
X141214699Y-89084067D01*
X141194417Y-89290000D01*
X141214699Y-89495932D01*
X141235090Y-89563151D01*
X141274768Y-89693954D01*
X141372315Y-89876450D01*
X141372317Y-89876452D01*
X141503589Y-90036410D01*
X141568661Y-90089812D01*
X141663550Y-90167685D01*
X141846046Y-90265232D01*
X142044066Y-90325300D01*
X142044065Y-90325300D01*
X142062529Y-90327118D01*
X142250000Y-90345583D01*
X142455934Y-90325300D01*
X142653954Y-90265232D01*
X142836450Y-90167685D01*
X142971835Y-90056577D01*
X143036145Y-90029265D01*
X143105013Y-90041056D01*
X143156573Y-90088208D01*
X143174500Y-90152431D01*
X143174500Y-94438811D01*
X143154815Y-94505850D01*
X143138181Y-94526492D01*
X142671684Y-94992988D01*
X142610361Y-95026473D01*
X142567818Y-95028246D01*
X142500001Y-95019318D01*
X142499999Y-95019318D01*
X142343239Y-95039955D01*
X142343237Y-95039956D01*
X142197160Y-95100463D01*
X142071718Y-95196718D01*
X141975463Y-95322160D01*
X141914956Y-95468237D01*
X141914955Y-95468239D01*
X141894318Y-95624998D01*
X141894318Y-95625001D01*
X141903246Y-95692817D01*
X141892480Y-95761852D01*
X141867988Y-95796683D01*
X140989537Y-96675135D01*
X140989535Y-96675138D01*
X140946681Y-96749361D01*
X140946681Y-96749362D01*
X140941726Y-96767851D01*
X140941727Y-96767852D01*
X140924500Y-96832145D01*
X140924500Y-106102852D01*
X140946682Y-106185640D01*
X140967199Y-106221176D01*
X140989535Y-106259862D01*
X141259533Y-106529860D01*
X141259535Y-106529862D01*
X141320138Y-106590465D01*
X141382844Y-106626668D01*
X141382846Y-106626670D01*
X141382847Y-106626670D01*
X141388642Y-106630016D01*
X141436855Y-106680585D01*
X141446759Y-106714082D01*
X141448311Y-106713774D01*
X141461131Y-106778229D01*
X141461132Y-106778230D01*
X141505447Y-106844552D01*
X141571769Y-106888867D01*
X141571770Y-106888868D01*
X141630247Y-106900499D01*
X141630250Y-106900500D01*
X141630252Y-106900500D01*
X144069750Y-106900500D01*
X144069751Y-106900499D01*
X144084568Y-106897552D01*
X144128229Y-106888868D01*
X144128229Y-106888867D01*
X144128231Y-106888867D01*
X144194552Y-106844552D01*
X144207345Y-106825407D01*
X144241861Y-106773750D01*
X144295473Y-106728944D01*
X144364798Y-106720237D01*
X144415116Y-106741960D01*
X144415297Y-106741648D01*
X144417982Y-106743198D01*
X144420446Y-106744262D01*
X144422334Y-106745710D01*
X144422337Y-106745712D01*
X144568416Y-106806220D01*
X144646797Y-106816539D01*
X144725177Y-106826858D01*
X144725178Y-106826858D01*
X144725179Y-106826858D01*
X144777432Y-106819978D01*
X144881940Y-106806220D01*
X145028019Y-106745712D01*
X145153211Y-106649648D01*
X145218377Y-106624456D01*
X145286822Y-106638494D01*
X145336812Y-106687308D01*
X145350312Y-106723834D01*
X145361132Y-106778229D01*
X145365806Y-106789513D01*
X145361820Y-106791164D01*
X145375677Y-106835474D01*
X145357168Y-106902847D01*
X145350072Y-106913128D01*
X145270342Y-107017034D01*
X145209834Y-107163114D01*
X145209833Y-107163116D01*
X145189196Y-107319875D01*
X145189196Y-107319878D01*
X145209833Y-107476637D01*
X145209834Y-107476639D01*
X145270342Y-107622719D01*
X145354096Y-107731869D01*
X145379290Y-107797038D01*
X145365252Y-107865483D01*
X145316438Y-107915472D01*
X145255735Y-107931355D01*
X145250000Y-107931355D01*
X145250000Y-112876000D01*
X145230315Y-112943039D01*
X145177511Y-112988794D01*
X145126000Y-113000000D01*
X140374000Y-113000000D01*
X140306961Y-112980315D01*
X140261206Y-112927511D01*
X140250000Y-112876000D01*
X140250000Y-110671045D01*
X141539804Y-110671045D01*
X141569363Y-110857677D01*
X141627758Y-111037395D01*
X141713544Y-111205758D01*
X141824614Y-111358632D01*
X141958231Y-111492249D01*
X142111105Y-111603319D01*
X142190651Y-111643849D01*
X142279467Y-111689104D01*
X142279469Y-111689104D01*
X142279472Y-111689106D01*
X142375801Y-111720405D01*
X142459185Y-111747499D01*
X142645818Y-111777059D01*
X142645823Y-111777059D01*
X142834790Y-111777059D01*
X143021422Y-111747499D01*
X143201136Y-111689106D01*
X143369503Y-111603319D01*
X143522377Y-111492249D01*
X143655994Y-111358632D01*
X143767064Y-111205758D01*
X143852851Y-111037391D01*
X143911244Y-110857677D01*
X143940804Y-110671045D01*
X143940804Y-110482072D01*
X143911244Y-110295440D01*
X143852849Y-110115722D01*
X143767063Y-109947359D01*
X143655994Y-109794486D01*
X143522377Y-109660869D01*
X143369503Y-109549799D01*
X143201140Y-109464013D01*
X143021422Y-109405618D01*
X142834790Y-109376059D01*
X142834785Y-109376059D01*
X142645823Y-109376059D01*
X142645818Y-109376059D01*
X142459185Y-109405618D01*
X142279467Y-109464013D01*
X142111104Y-109549799D01*
X142023883Y-109613169D01*
X141958231Y-109660869D01*
X141958229Y-109660871D01*
X141958228Y-109660871D01*
X141824616Y-109794483D01*
X141824616Y-109794484D01*
X141824614Y-109794486D01*
X141776914Y-109860138D01*
X141713544Y-109947359D01*
X141627758Y-110115722D01*
X141569363Y-110295440D01*
X141539804Y-110482072D01*
X141539804Y-110671045D01*
X140250000Y-110671045D01*
X140250000Y-108250000D01*
X128123960Y-108250000D01*
X128056921Y-108230315D01*
X128011166Y-108177511D01*
X127999960Y-108126040D01*
X127999238Y-105887327D01*
X127999050Y-105304134D01*
X128906275Y-105304134D01*
X128933194Y-105439461D01*
X128933197Y-105439471D01*
X128985997Y-105566943D01*
X128986004Y-105566956D01*
X129062661Y-105681680D01*
X129062664Y-105681684D01*
X129160230Y-105779250D01*
X129160234Y-105779253D01*
X129274958Y-105855910D01*
X129274971Y-105855917D01*
X129353789Y-105888564D01*
X129402448Y-105908719D01*
X129402452Y-105908719D01*
X129402453Y-105908720D01*
X129537780Y-105935639D01*
X129537783Y-105935639D01*
X129675771Y-105935639D01*
X129766817Y-105917528D01*
X129811104Y-105908719D01*
X129938587Y-105855914D01*
X130053318Y-105779253D01*
X130150890Y-105681681D01*
X130227551Y-105566950D01*
X130280356Y-105439467D01*
X130280358Y-105439457D01*
X130281185Y-105435304D01*
X130313572Y-105373394D01*
X130374289Y-105338822D01*
X130402801Y-105335500D01*
X137450751Y-105335500D01*
X137517790Y-105355185D01*
X137563545Y-105407989D01*
X137572367Y-105435304D01*
X137573193Y-105439457D01*
X137573197Y-105439471D01*
X137625997Y-105566943D01*
X137626004Y-105566956D01*
X137702661Y-105681680D01*
X137702664Y-105681684D01*
X137800230Y-105779250D01*
X137800234Y-105779253D01*
X137914958Y-105855910D01*
X137914971Y-105855917D01*
X137993789Y-105888564D01*
X138042448Y-105908719D01*
X138042452Y-105908719D01*
X138042453Y-105908720D01*
X138177780Y-105935639D01*
X138177783Y-105935639D01*
X138315771Y-105935639D01*
X138406817Y-105917528D01*
X138451104Y-105908719D01*
X138578587Y-105855914D01*
X138693318Y-105779253D01*
X138790890Y-105681681D01*
X138867551Y-105566950D01*
X138920356Y-105439467D01*
X138940376Y-105338822D01*
X138947276Y-105304134D01*
X138947276Y-104366143D01*
X138920357Y-104230816D01*
X138920356Y-104230815D01*
X138920356Y-104230811D01*
X138920354Y-104230806D01*
X138867554Y-104103334D01*
X138867547Y-104103321D01*
X138790890Y-103988597D01*
X138790887Y-103988593D01*
X138693321Y-103891027D01*
X138693317Y-103891024D01*
X138578593Y-103814367D01*
X138578580Y-103814360D01*
X138451108Y-103761560D01*
X138451098Y-103761557D01*
X138315771Y-103734639D01*
X138315769Y-103734639D01*
X138177783Y-103734639D01*
X138177781Y-103734639D01*
X138042453Y-103761557D01*
X138042443Y-103761560D01*
X137914971Y-103814360D01*
X137914958Y-103814367D01*
X137800234Y-103891024D01*
X137800230Y-103891027D01*
X137702664Y-103988593D01*
X137702661Y-103988597D01*
X137626003Y-104103323D01*
X137625810Y-104103787D01*
X137624086Y-104107949D01*
X137580249Y-104162353D01*
X137513956Y-104184421D01*
X137509525Y-104184500D01*
X130344027Y-104184500D01*
X130276988Y-104164815D01*
X130231233Y-104112011D01*
X130229477Y-104107978D01*
X130227551Y-104103328D01*
X130227546Y-104103321D01*
X130150890Y-103988597D01*
X130150887Y-103988593D01*
X130053321Y-103891027D01*
X130053317Y-103891024D01*
X129938593Y-103814367D01*
X129938580Y-103814360D01*
X129811108Y-103761560D01*
X129811098Y-103761557D01*
X129675771Y-103734639D01*
X129675769Y-103734639D01*
X129537783Y-103734639D01*
X129537781Y-103734639D01*
X129402453Y-103761557D01*
X129402443Y-103761560D01*
X129274971Y-103814360D01*
X129274958Y-103814367D01*
X129160234Y-103891024D01*
X129160230Y-103891027D01*
X129062664Y-103988593D01*
X129062661Y-103988597D01*
X128986004Y-104103321D01*
X128985997Y-104103334D01*
X128933197Y-104230806D01*
X128933194Y-104230816D01*
X128906276Y-104366143D01*
X128906276Y-104366146D01*
X128906276Y-105304132D01*
X128906276Y-105304134D01*
X128906275Y-105304134D01*
X127999050Y-105304134D01*
X127997751Y-101274134D01*
X128906275Y-101274134D01*
X128933194Y-101409461D01*
X128933197Y-101409471D01*
X128985997Y-101536943D01*
X128986004Y-101536956D01*
X129062661Y-101651680D01*
X129062664Y-101651684D01*
X129160230Y-101749250D01*
X129160234Y-101749253D01*
X129274958Y-101825910D01*
X129274971Y-101825917D01*
X129402443Y-101878717D01*
X129402448Y-101878719D01*
X129402452Y-101878719D01*
X129402453Y-101878720D01*
X129537780Y-101905639D01*
X129537783Y-101905639D01*
X129675771Y-101905639D01*
X129766817Y-101887528D01*
X129811104Y-101878719D01*
X129938587Y-101825914D01*
X130053318Y-101749253D01*
X130150890Y-101651681D01*
X130227551Y-101536950D01*
X130280356Y-101409467D01*
X130298276Y-101319378D01*
X130307276Y-101274134D01*
X130307276Y-101211157D01*
X130611276Y-101211157D01*
X130640273Y-101319376D01*
X130696291Y-101416402D01*
X130775513Y-101495624D01*
X130872539Y-101551642D01*
X130980758Y-101580639D01*
X130980760Y-101580639D01*
X131092792Y-101580639D01*
X131092794Y-101580639D01*
X131201013Y-101551642D01*
X131298039Y-101495624D01*
X131377261Y-101416402D01*
X131433279Y-101319376D01*
X131462276Y-101211157D01*
X131462276Y-101099121D01*
X131433279Y-100990902D01*
X131377261Y-100893876D01*
X131298039Y-100814654D01*
X131201013Y-100758636D01*
X131092794Y-100729639D01*
X130980758Y-100729639D01*
X130872539Y-100758636D01*
X130872536Y-100758637D01*
X130775516Y-100814652D01*
X130775510Y-100814656D01*
X130696293Y-100893873D01*
X130696289Y-100893879D01*
X130640274Y-100990899D01*
X130640273Y-100990902D01*
X130611276Y-101099121D01*
X130611276Y-101211157D01*
X130307276Y-101211157D01*
X130307276Y-100036143D01*
X130280357Y-99900816D01*
X130280356Y-99900815D01*
X130280356Y-99900811D01*
X130258901Y-99849014D01*
X130227554Y-99773334D01*
X130227547Y-99773321D01*
X130150890Y-99658597D01*
X130150887Y-99658593D01*
X130053321Y-99561027D01*
X130053317Y-99561024D01*
X129938593Y-99484367D01*
X129938580Y-99484360D01*
X129811108Y-99431560D01*
X129811098Y-99431557D01*
X129675771Y-99404639D01*
X129675769Y-99404639D01*
X129537783Y-99404639D01*
X129537781Y-99404639D01*
X129402453Y-99431557D01*
X129402443Y-99431560D01*
X129274971Y-99484360D01*
X129274958Y-99484367D01*
X129160234Y-99561024D01*
X129160230Y-99561027D01*
X129062664Y-99658593D01*
X129062661Y-99658597D01*
X128986004Y-99773321D01*
X128985997Y-99773334D01*
X128933197Y-99900806D01*
X128933194Y-99900816D01*
X128906276Y-100036143D01*
X128906276Y-100036146D01*
X128906276Y-101274132D01*
X128906276Y-101274134D01*
X128906275Y-101274134D01*
X127997751Y-101274134D01*
X127995248Y-93505001D01*
X130544318Y-93505001D01*
X130564955Y-93661760D01*
X130564956Y-93661762D01*
X130617861Y-93789487D01*
X130625464Y-93807841D01*
X130721718Y-93933282D01*
X130847159Y-94029536D01*
X130993238Y-94090044D01*
X131071619Y-94100363D01*
X131149999Y-94110682D01*
X131150000Y-94110682D01*
X131150001Y-94110682D01*
X131202254Y-94103802D01*
X131306762Y-94090044D01*
X131452841Y-94029536D01*
X131578282Y-93933282D01*
X131674536Y-93807841D01*
X131735044Y-93661762D01*
X131753349Y-93522722D01*
X131755682Y-93505001D01*
X131755682Y-93504998D01*
X131740343Y-93388488D01*
X131735044Y-93348238D01*
X131735043Y-93348235D01*
X131734937Y-93347978D01*
X131734828Y-93347431D01*
X131732940Y-93340383D01*
X131733401Y-93340259D01*
X131725500Y-93300530D01*
X131725500Y-89047256D01*
X131745185Y-88980217D01*
X131761815Y-88959579D01*
X132149797Y-88571596D01*
X132211120Y-88538112D01*
X132249632Y-88535875D01*
X132268792Y-88537762D01*
X132411300Y-88551798D01*
X132617234Y-88531515D01*
X132815254Y-88471447D01*
X132997750Y-88373900D01*
X133157710Y-88242625D01*
X133288985Y-88082665D01*
X133386532Y-87900169D01*
X133446600Y-87702149D01*
X133466883Y-87496215D01*
X133446600Y-87290281D01*
X133386532Y-87092261D01*
X133288985Y-86909765D01*
X133208885Y-86812162D01*
X133157710Y-86749804D01*
X133007421Y-86626467D01*
X132997750Y-86618530D01*
X132815254Y-86520983D01*
X132617234Y-86460915D01*
X132617232Y-86460914D01*
X132617234Y-86460914D01*
X132411300Y-86440632D01*
X132205367Y-86460914D01*
X132007343Y-86520984D01*
X131934555Y-86559891D01*
X131824850Y-86618530D01*
X131824848Y-86618531D01*
X131824847Y-86618532D01*
X131664889Y-86749804D01*
X131539727Y-86902317D01*
X131533615Y-86909765D01*
X131525220Y-86925471D01*
X131436069Y-87092258D01*
X131375999Y-87290282D01*
X131355717Y-87496215D01*
X131371639Y-87657881D01*
X131358620Y-87726527D01*
X131335917Y-87757716D01*
X130796635Y-88297000D01*
X130689487Y-88404147D01*
X130689485Y-88404150D01*
X130613719Y-88535378D01*
X130574500Y-88681749D01*
X130574500Y-93300530D01*
X130566598Y-93340259D01*
X130567060Y-93340383D01*
X130565171Y-93347431D01*
X130565063Y-93347978D01*
X130564956Y-93348235D01*
X130544318Y-93504998D01*
X130544318Y-93505001D01*
X127995248Y-93505001D01*
X127994508Y-91208567D01*
X127992809Y-85938298D01*
X128012472Y-85871252D01*
X128065261Y-85825480D01*
X128116809Y-85814258D01*
X140225500Y-85814258D01*
X140292539Y-85833943D01*
G37*
%TD.AperFunction*%
%TA.AperFunction,Conductor*%
G36*
X164193031Y-48269685D02*
G01*
X164238786Y-48322489D01*
X164249991Y-48374002D01*
X164249952Y-50214161D01*
X164248712Y-107805121D01*
X164229026Y-107872160D01*
X164176221Y-107917913D01*
X164124727Y-107929118D01*
X146334148Y-107931227D01*
X146267106Y-107911550D01*
X146221345Y-107858752D01*
X146211393Y-107789595D01*
X146235757Y-107731742D01*
X146280933Y-107672867D01*
X146318421Y-107624013D01*
X146374849Y-107582811D01*
X146416796Y-107575500D01*
X148792851Y-107575500D01*
X148792853Y-107575500D01*
X148875639Y-107553318D01*
X148949862Y-107510465D01*
X149631488Y-106828839D01*
X149674341Y-106754616D01*
X149696523Y-106671830D01*
X149696523Y-106586124D01*
X149696523Y-105665790D01*
X152705380Y-105665790D01*
X152725907Y-105887325D01*
X152725908Y-105887327D01*
X152786792Y-106101313D01*
X152786798Y-106101328D01*
X152885961Y-106300473D01*
X152885966Y-106300481D01*
X153020043Y-106478028D01*
X153184460Y-106627913D01*
X153184462Y-106627915D01*
X153373618Y-106745035D01*
X153373619Y-106745035D01*
X153373622Y-106745037D01*
X153581083Y-106825408D01*
X153799780Y-106866290D01*
X153799782Y-106866290D01*
X154022264Y-106866290D01*
X154022266Y-106866290D01*
X154240963Y-106825408D01*
X154448424Y-106745037D01*
X154637585Y-106627914D01*
X154802004Y-106478026D01*
X154936081Y-106300479D01*
X155035252Y-106101318D01*
X155096138Y-105887326D01*
X155116666Y-105665790D01*
X155111694Y-105612138D01*
X155096138Y-105444254D01*
X155096137Y-105444252D01*
X155093591Y-105435304D01*
X155035252Y-105230262D01*
X155035247Y-105230251D01*
X154936084Y-105031106D01*
X154936079Y-105031098D01*
X154802002Y-104853551D01*
X154637585Y-104703666D01*
X154637583Y-104703664D01*
X154448427Y-104586544D01*
X154448421Y-104586542D01*
X154240963Y-104506172D01*
X154022266Y-104465290D01*
X153799780Y-104465290D01*
X153581083Y-104506172D01*
X153479703Y-104545447D01*
X153373624Y-104586542D01*
X153373618Y-104586544D01*
X153184462Y-104703664D01*
X153184460Y-104703666D01*
X153020043Y-104853551D01*
X152885966Y-105031098D01*
X152885961Y-105031106D01*
X152786798Y-105230251D01*
X152786792Y-105230266D01*
X152725908Y-105444252D01*
X152725907Y-105444254D01*
X152705380Y-105665789D01*
X152705380Y-105665790D01*
X149696523Y-105665790D01*
X149696523Y-103628170D01*
X149674341Y-103545385D01*
X149674337Y-103545378D01*
X149631492Y-103471167D01*
X149631486Y-103471159D01*
X149086819Y-102926492D01*
X149053334Y-102865169D01*
X149050500Y-102838811D01*
X149050500Y-98711189D01*
X149070185Y-98644150D01*
X149086819Y-98623508D01*
X149348508Y-98361819D01*
X149409831Y-98328334D01*
X149436189Y-98325500D01*
X151309152Y-98325500D01*
X151376191Y-98345185D01*
X151421946Y-98397989D01*
X151423713Y-98402048D01*
X151475816Y-98527838D01*
X151475817Y-98527839D01*
X151475818Y-98527841D01*
X151572072Y-98653282D01*
X151697513Y-98749536D01*
X151843592Y-98810044D01*
X151921973Y-98820363D01*
X152000353Y-98830682D01*
X152000354Y-98830682D01*
X152000355Y-98830682D01*
X152075560Y-98820781D01*
X152157116Y-98810044D01*
X152303195Y-98749536D01*
X152303200Y-98749531D01*
X152303907Y-98749125D01*
X152304582Y-98748961D01*
X152304750Y-98748891D01*
X152308949Y-98745120D01*
X152428636Y-98653282D01*
X152524890Y-98527841D01*
X152585398Y-98381762D01*
X152599216Y-98276801D01*
X152606036Y-98225001D01*
X152606036Y-98224998D01*
X152585398Y-98068239D01*
X152585396Y-98068234D01*
X152555871Y-97996952D01*
X152548402Y-97927483D01*
X152579678Y-97865004D01*
X152639767Y-97829352D01*
X152670432Y-97825500D01*
X154589116Y-97825500D01*
X154656155Y-97845185D01*
X154676797Y-97861819D01*
X155222794Y-98407816D01*
X155752798Y-98937819D01*
X155786283Y-98999142D01*
X155781299Y-99068834D01*
X155739427Y-99124767D01*
X155673963Y-99149184D01*
X155665117Y-99149500D01*
X153318299Y-99149500D01*
X153251260Y-99129815D01*
X153219923Y-99100986D01*
X153178283Y-99046719D01*
X153122162Y-99003656D01*
X153052841Y-98950464D01*
X153022313Y-98937819D01*
X152906762Y-98889956D01*
X152906760Y-98889955D01*
X152750001Y-98869318D01*
X152749999Y-98869318D01*
X152593239Y-98889955D01*
X152593237Y-98889956D01*
X152447150Y-98950467D01*
X152446429Y-98950884D01*
X152445744Y-98951049D01*
X152445599Y-98951109D01*
X152441396Y-98954885D01*
X152377838Y-99003656D01*
X152321718Y-99046718D01*
X152225463Y-99172160D01*
X152164956Y-99318237D01*
X152164955Y-99318239D01*
X152144318Y-99474998D01*
X152144318Y-99475001D01*
X152164955Y-99631760D01*
X152164956Y-99631762D01*
X152223594Y-99773328D01*
X152225464Y-99777841D01*
X152321718Y-99903282D01*
X152447159Y-99999536D01*
X152593238Y-100060044D01*
X152671619Y-100070363D01*
X152749999Y-100080682D01*
X152750000Y-100080682D01*
X152750001Y-100080682D01*
X152802254Y-100073802D01*
X152906762Y-100060044D01*
X153052841Y-99999536D01*
X153178282Y-99903282D01*
X153219923Y-99849013D01*
X153276351Y-99807811D01*
X153318299Y-99800500D01*
X158132605Y-99800500D01*
X158199644Y-99820185D01*
X158230981Y-99849014D01*
X158298720Y-99937294D01*
X158321718Y-99967265D01*
X158447159Y-100063519D01*
X158593238Y-100124027D01*
X158642028Y-100130450D01*
X158705925Y-100158716D01*
X158744396Y-100217040D01*
X158749843Y-100253389D01*
X158749843Y-107672867D01*
X160749843Y-107672867D01*
X160749843Y-100407032D01*
X160769528Y-100339993D01*
X160822332Y-100294238D01*
X160891490Y-100284294D01*
X160955046Y-100313319D01*
X160961524Y-100319351D01*
X161509652Y-100867479D01*
X161543137Y-100928802D01*
X161538153Y-100998494D01*
X161506470Y-101042855D01*
X161507897Y-101044282D01*
X161503592Y-101048586D01*
X161372317Y-101208547D01*
X161372315Y-101208550D01*
X161337260Y-101274132D01*
X161274769Y-101391043D01*
X161214699Y-101589067D01*
X161194417Y-101795000D01*
X161214699Y-102000932D01*
X161239521Y-102082759D01*
X161274768Y-102198954D01*
X161372315Y-102381450D01*
X161372317Y-102381452D01*
X161503589Y-102541410D01*
X161600209Y-102620702D01*
X161663550Y-102672685D01*
X161846046Y-102770232D01*
X162044066Y-102830300D01*
X162044065Y-102830300D01*
X162062529Y-102832118D01*
X162250000Y-102850583D01*
X162455934Y-102830300D01*
X162653954Y-102770232D01*
X162836450Y-102672685D01*
X162996410Y-102541410D01*
X163127685Y-102381450D01*
X163225232Y-102198954D01*
X163285300Y-102000934D01*
X163305583Y-101795000D01*
X163285300Y-101589066D01*
X163225232Y-101391046D01*
X163127685Y-101208550D01*
X163046194Y-101109252D01*
X162996410Y-101048589D01*
X162836452Y-100917317D01*
X162836453Y-100917317D01*
X162836450Y-100917315D01*
X162653954Y-100819768D01*
X162546396Y-100787141D01*
X162455932Y-100759699D01*
X162352102Y-100749472D01*
X162287315Y-100723310D01*
X162276577Y-100713750D01*
X162077319Y-100514492D01*
X162043834Y-100453169D01*
X162048818Y-100383477D01*
X162090690Y-100327544D01*
X162156154Y-100303127D01*
X162177151Y-100303407D01*
X162250000Y-100310583D01*
X162455934Y-100290300D01*
X162653954Y-100230232D01*
X162836450Y-100132685D01*
X162996410Y-100001410D01*
X163127685Y-99841450D01*
X163225232Y-99658954D01*
X163285300Y-99460934D01*
X163305583Y-99255000D01*
X163285300Y-99049066D01*
X163225232Y-98851046D01*
X163127685Y-98668550D01*
X163075702Y-98605209D01*
X162996410Y-98508589D01*
X162863316Y-98399363D01*
X162836450Y-98377315D01*
X162653954Y-98279768D01*
X162455934Y-98219700D01*
X162455932Y-98219699D01*
X162455934Y-98219699D01*
X162250000Y-98199417D01*
X162044067Y-98219699D01*
X161932054Y-98253678D01*
X161846046Y-98279768D01*
X161846043Y-98279769D01*
X161846041Y-98279770D01*
X161844132Y-98280561D01*
X161843051Y-98280677D01*
X161840217Y-98281537D01*
X161840053Y-98280999D01*
X161774662Y-98288026D01*
X161712185Y-98256747D01*
X161709005Y-98253678D01*
X161558847Y-98103520D01*
X161558845Y-98103518D01*
X161521733Y-98082091D01*
X161484623Y-98060665D01*
X161418145Y-98042853D01*
X161401836Y-98038483D01*
X161401835Y-98038483D01*
X160874000Y-98038483D01*
X160806961Y-98018798D01*
X160761206Y-97965994D01*
X160750000Y-97914483D01*
X160750000Y-96715000D01*
X161194417Y-96715000D01*
X161214699Y-96920932D01*
X161234275Y-96985465D01*
X161274768Y-97118954D01*
X161372315Y-97301450D01*
X161372317Y-97301452D01*
X161503589Y-97461410D01*
X161591163Y-97533279D01*
X161663550Y-97592685D01*
X161846046Y-97690232D01*
X162044066Y-97750300D01*
X162044065Y-97750300D01*
X162062529Y-97752118D01*
X162250000Y-97770583D01*
X162455934Y-97750300D01*
X162653954Y-97690232D01*
X162836450Y-97592685D01*
X162996410Y-97461410D01*
X163127685Y-97301450D01*
X163225232Y-97118954D01*
X163285300Y-96920934D01*
X163305583Y-96715000D01*
X163285300Y-96509066D01*
X163225232Y-96311046D01*
X163127685Y-96128550D01*
X163062784Y-96049467D01*
X162996410Y-95968589D01*
X162836452Y-95837317D01*
X162836453Y-95837317D01*
X162836450Y-95837315D01*
X162653954Y-95739768D01*
X162455934Y-95679700D01*
X162455932Y-95679699D01*
X162455934Y-95679699D01*
X162250000Y-95659417D01*
X162044067Y-95679699D01*
X161846043Y-95739769D01*
X161767485Y-95781760D01*
X161663550Y-95837315D01*
X161663548Y-95837316D01*
X161663547Y-95837317D01*
X161503589Y-95968589D01*
X161372317Y-96128547D01*
X161274769Y-96311043D01*
X161214699Y-96509067D01*
X161194417Y-96715000D01*
X160750000Y-96715000D01*
X160750000Y-95044752D01*
X161199500Y-95044752D01*
X161211131Y-95103229D01*
X161211132Y-95103230D01*
X161255447Y-95169552D01*
X161321769Y-95213867D01*
X161321770Y-95213868D01*
X161380247Y-95225499D01*
X161380250Y-95225500D01*
X161380252Y-95225500D01*
X163119750Y-95225500D01*
X163119751Y-95225499D01*
X163134568Y-95222552D01*
X163178229Y-95213868D01*
X163178229Y-95213867D01*
X163178231Y-95213867D01*
X163244552Y-95169552D01*
X163288867Y-95103231D01*
X163288867Y-95103229D01*
X163288868Y-95103229D01*
X163300499Y-95044752D01*
X163300500Y-95044750D01*
X163300500Y-93305249D01*
X163300499Y-93305247D01*
X163288868Y-93246770D01*
X163288867Y-93246769D01*
X163244552Y-93180447D01*
X163178230Y-93136132D01*
X163178229Y-93136131D01*
X163119752Y-93124500D01*
X163119748Y-93124500D01*
X161380252Y-93124500D01*
X161380247Y-93124500D01*
X161321770Y-93136131D01*
X161321769Y-93136132D01*
X161255447Y-93180447D01*
X161211132Y-93246769D01*
X161211131Y-93246770D01*
X161199500Y-93305247D01*
X161199500Y-95044752D01*
X160750000Y-95044752D01*
X160750000Y-85500000D01*
X158750000Y-85500000D01*
X158750000Y-97914483D01*
X158730315Y-97981522D01*
X158677511Y-98027277D01*
X158626000Y-98038483D01*
X158050171Y-98038483D01*
X157983132Y-98018798D01*
X157962495Y-98002169D01*
X157861817Y-97901490D01*
X157828334Y-97840168D01*
X157825500Y-97813811D01*
X157825500Y-95957149D01*
X157825500Y-95957147D01*
X157803318Y-95874362D01*
X157771333Y-95818962D01*
X157754861Y-95751066D01*
X157777713Y-95685039D01*
X157791034Y-95669290D01*
X158164652Y-95295673D01*
X158164657Y-95295669D01*
X158174860Y-95285465D01*
X158174862Y-95285465D01*
X158235465Y-95224862D01*
X158275705Y-95155164D01*
X158278318Y-95150639D01*
X158300500Y-95067853D01*
X158300500Y-94982147D01*
X158300500Y-87182147D01*
X158278318Y-87099362D01*
X158278314Y-87099355D01*
X158235469Y-87025144D01*
X158235463Y-87025136D01*
X157941479Y-86731152D01*
X157907994Y-86669829D01*
X157912978Y-86600137D01*
X157954850Y-86544204D01*
X157981697Y-86528915D01*
X158052994Y-86499383D01*
X158178435Y-86403129D01*
X158274689Y-86277688D01*
X158335197Y-86131609D01*
X158355835Y-85974847D01*
X158353504Y-85957145D01*
X158337285Y-85833943D01*
X158335197Y-85818085D01*
X158274689Y-85672006D01*
X158178435Y-85546565D01*
X158178433Y-85546563D01*
X158178432Y-85546562D01*
X158124165Y-85504921D01*
X158082963Y-85448493D01*
X158075653Y-85406546D01*
X158075653Y-85199500D01*
X158095338Y-85132461D01*
X158148142Y-85086706D01*
X158199653Y-85075500D01*
X161073806Y-85075500D01*
X161140845Y-85095185D01*
X161186600Y-85147989D01*
X161197209Y-85211655D01*
X161194417Y-85240000D01*
X161214699Y-85445932D01*
X161232593Y-85504921D01*
X161274768Y-85643954D01*
X161372315Y-85826450D01*
X161381395Y-85837514D01*
X161503589Y-85986410D01*
X161566706Y-86038208D01*
X161663550Y-86117685D01*
X161846046Y-86215232D01*
X162044066Y-86275300D01*
X162044065Y-86275300D01*
X162062529Y-86277118D01*
X162250000Y-86295583D01*
X162455934Y-86275300D01*
X162653954Y-86215232D01*
X162836450Y-86117685D01*
X162971835Y-86006577D01*
X163036145Y-85979265D01*
X163105013Y-85991056D01*
X163156573Y-86038208D01*
X163174500Y-86102431D01*
X163174500Y-86343810D01*
X163154815Y-86410849D01*
X163138181Y-86431491D01*
X162790994Y-86778677D01*
X162729671Y-86812162D01*
X162659979Y-86807178D01*
X162655869Y-86805561D01*
X162653958Y-86804769D01*
X162520689Y-86764343D01*
X162455934Y-86744700D01*
X162455932Y-86744699D01*
X162455934Y-86744699D01*
X162250000Y-86724417D01*
X162044067Y-86744699D01*
X161846043Y-86804769D01*
X161773743Y-86843415D01*
X161663550Y-86902315D01*
X161663548Y-86902316D01*
X161663547Y-86902317D01*
X161503589Y-87033589D01*
X161372317Y-87193547D01*
X161372315Y-87193550D01*
X161347735Y-87239535D01*
X161274769Y-87376043D01*
X161214699Y-87574067D01*
X161194417Y-87780000D01*
X161214699Y-87985932D01*
X161229835Y-88035827D01*
X161274768Y-88183954D01*
X161372315Y-88366450D01*
X161372317Y-88366452D01*
X161503589Y-88526410D01*
X161585022Y-88593239D01*
X161663550Y-88657685D01*
X161846046Y-88755232D01*
X162044066Y-88815300D01*
X162044065Y-88815300D01*
X162062529Y-88817118D01*
X162250000Y-88835583D01*
X162455934Y-88815300D01*
X162653954Y-88755232D01*
X162836450Y-88657685D01*
X162996410Y-88526410D01*
X163127685Y-88366450D01*
X163225232Y-88183954D01*
X163285300Y-87985934D01*
X163305583Y-87780000D01*
X163285300Y-87574066D01*
X163225232Y-87376046D01*
X163225230Y-87376043D01*
X163225230Y-87376041D01*
X163224444Y-87374144D01*
X163224328Y-87373068D01*
X163223463Y-87370216D01*
X163224003Y-87370051D01*
X163216971Y-87304675D01*
X163248242Y-87242194D01*
X163251290Y-87239035D01*
X163760465Y-86729862D01*
X163803318Y-86655639D01*
X163825500Y-86572853D01*
X163825500Y-86487147D01*
X163825500Y-81802855D01*
X163825501Y-81802842D01*
X163825501Y-81707149D01*
X163818491Y-81680988D01*
X163803318Y-81624362D01*
X163776580Y-81578050D01*
X163760465Y-81550138D01*
X163699862Y-81489535D01*
X163699861Y-81489534D01*
X163695531Y-81485204D01*
X163695520Y-81485194D01*
X162699864Y-80489537D01*
X162699863Y-80489536D01*
X162699862Y-80489535D01*
X162636662Y-80453046D01*
X162625640Y-80446682D01*
X162584246Y-80435591D01*
X162542853Y-80424500D01*
X162542852Y-80424500D01*
X160874000Y-80424500D01*
X160806961Y-80404815D01*
X160761206Y-80352011D01*
X160750000Y-80300500D01*
X160750000Y-77509689D01*
X160769685Y-77442650D01*
X160822489Y-77396895D01*
X160891647Y-77386951D01*
X160955203Y-77415976D01*
X160961681Y-77422008D01*
X161496093Y-77956420D01*
X161529578Y-78017743D01*
X161524594Y-78087435D01*
X161504266Y-78122765D01*
X161372317Y-78283547D01*
X161274769Y-78466043D01*
X161214699Y-78664067D01*
X161194417Y-78870000D01*
X161214699Y-79075932D01*
X161219949Y-79093238D01*
X161274768Y-79273954D01*
X161372315Y-79456450D01*
X161372317Y-79456452D01*
X161503589Y-79616410D01*
X161600209Y-79695702D01*
X161663550Y-79747685D01*
X161846046Y-79845232D01*
X162044066Y-79905300D01*
X162044065Y-79905300D01*
X162062529Y-79907118D01*
X162250000Y-79925583D01*
X162455934Y-79905300D01*
X162653954Y-79845232D01*
X162836450Y-79747685D01*
X162996410Y-79616410D01*
X163127685Y-79456450D01*
X163225232Y-79273954D01*
X163285300Y-79075934D01*
X163305583Y-78870000D01*
X163285300Y-78664066D01*
X163225232Y-78466046D01*
X163127685Y-78283550D01*
X163075702Y-78220209D01*
X162996410Y-78123589D01*
X162836452Y-77992317D01*
X162836453Y-77992317D01*
X162836450Y-77992315D01*
X162653954Y-77894768D01*
X162455934Y-77834700D01*
X162455932Y-77834699D01*
X162455934Y-77834699D01*
X162321599Y-77821468D01*
X162256812Y-77795307D01*
X162246073Y-77785746D01*
X162046814Y-77586487D01*
X162013329Y-77525164D01*
X162018313Y-77455472D01*
X162060185Y-77399539D01*
X162125649Y-77375122D01*
X162146640Y-77375402D01*
X162250000Y-77385583D01*
X162455934Y-77365300D01*
X162653954Y-77305232D01*
X162836450Y-77207685D01*
X162996410Y-77076410D01*
X163127685Y-76916450D01*
X163225232Y-76733954D01*
X163285300Y-76535934D01*
X163305583Y-76330000D01*
X163285300Y-76124066D01*
X163225232Y-75926046D01*
X163127685Y-75743550D01*
X163075702Y-75680209D01*
X162996410Y-75583589D01*
X162836452Y-75452317D01*
X162836453Y-75452317D01*
X162836450Y-75452315D01*
X162653954Y-75354768D01*
X162455934Y-75294700D01*
X162455932Y-75294699D01*
X162455934Y-75294699D01*
X162250000Y-75274417D01*
X162044065Y-75294699D01*
X161974558Y-75315784D01*
X161904691Y-75316407D01*
X161845579Y-75279158D01*
X161815988Y-75215863D01*
X161825315Y-75146619D01*
X161850880Y-75109445D01*
X162085402Y-74874923D01*
X162146723Y-74841440D01*
X162185230Y-74839203D01*
X162250000Y-74845583D01*
X162455934Y-74825300D01*
X162653954Y-74765232D01*
X162836450Y-74667685D01*
X162996410Y-74536410D01*
X163127685Y-74376450D01*
X163225232Y-74193954D01*
X163285300Y-73995934D01*
X163305583Y-73790000D01*
X163285300Y-73584066D01*
X163225232Y-73386046D01*
X163127685Y-73203550D01*
X163075702Y-73140209D01*
X162996410Y-73043589D01*
X162836452Y-72912317D01*
X162836453Y-72912317D01*
X162836450Y-72912315D01*
X162653954Y-72814768D01*
X162455934Y-72754700D01*
X162455932Y-72754699D01*
X162455934Y-72754699D01*
X162250000Y-72734417D01*
X162044067Y-72754699D01*
X161846043Y-72814769D01*
X161751996Y-72865039D01*
X161663550Y-72912315D01*
X161663548Y-72912316D01*
X161663547Y-72912317D01*
X161528164Y-73023422D01*
X161463854Y-73050734D01*
X161394987Y-73038943D01*
X161343427Y-72991790D01*
X161325500Y-72927568D01*
X161325500Y-72686189D01*
X161345185Y-72619150D01*
X161361819Y-72598508D01*
X161623508Y-72336819D01*
X161684831Y-72303334D01*
X161711189Y-72300500D01*
X163119750Y-72300500D01*
X163119751Y-72300499D01*
X163134568Y-72297552D01*
X163178229Y-72288868D01*
X163178229Y-72288867D01*
X163178231Y-72288867D01*
X163244552Y-72244552D01*
X163288867Y-72178231D01*
X163288867Y-72178229D01*
X163288868Y-72178229D01*
X163300499Y-72119752D01*
X163300500Y-72119750D01*
X163300500Y-70380249D01*
X163300499Y-70380247D01*
X163288868Y-70321770D01*
X163288867Y-70321769D01*
X163244552Y-70255447D01*
X163178230Y-70211132D01*
X163178229Y-70211131D01*
X163119752Y-70199500D01*
X163119748Y-70199500D01*
X161380252Y-70199500D01*
X161380247Y-70199500D01*
X161321770Y-70211131D01*
X161321769Y-70211132D01*
X161255447Y-70255447D01*
X161211132Y-70321769D01*
X161211131Y-70321770D01*
X161199500Y-70380247D01*
X161199500Y-71788811D01*
X161179815Y-71855850D01*
X161163181Y-71876492D01*
X160961681Y-72077992D01*
X160900358Y-72111477D01*
X160830666Y-72106493D01*
X160774733Y-72064621D01*
X160750316Y-71999157D01*
X160750000Y-71990311D01*
X160750000Y-48374000D01*
X160769685Y-48306961D01*
X160822489Y-48261206D01*
X160874000Y-48250000D01*
X164125992Y-48250000D01*
X164193031Y-48269685D01*
G37*
%TD.AperFunction*%
%TA.AperFunction,Conductor*%
G36*
X145346947Y-90202100D02*
G01*
X145418238Y-90231630D01*
X145446548Y-90235357D01*
X145574999Y-90252268D01*
X145574999Y-90252267D01*
X145575000Y-90252268D01*
X145642817Y-90243339D01*
X145711852Y-90254104D01*
X145746684Y-90278597D01*
X145802601Y-90334514D01*
X145876824Y-90377367D01*
X145959610Y-90399549D01*
X146001464Y-90399549D01*
X146068503Y-90419234D01*
X146089145Y-90435868D01*
X147253090Y-91599813D01*
X147327313Y-91642666D01*
X147410099Y-91664848D01*
X147495805Y-91664848D01*
X148158534Y-91664848D01*
X148225573Y-91684533D01*
X148271328Y-91737337D01*
X148281272Y-91806495D01*
X148273096Y-91836297D01*
X148256945Y-91875287D01*
X148243887Y-91906813D01*
X148243886Y-91906815D01*
X148223249Y-92063574D01*
X148223249Y-92063577D01*
X148232177Y-92131394D01*
X148221411Y-92200429D01*
X148196920Y-92235260D01*
X148101924Y-92330256D01*
X148101923Y-92330258D01*
X148059071Y-92404478D01*
X148059072Y-92404479D01*
X148036890Y-92487264D01*
X148036890Y-94530242D01*
X148059072Y-94613030D01*
X148079256Y-94647989D01*
X148101925Y-94687252D01*
X149588071Y-96173398D01*
X150877493Y-97462819D01*
X150910978Y-97524142D01*
X150905994Y-97593834D01*
X150864122Y-97649767D01*
X150798658Y-97674184D01*
X150789812Y-97674500D01*
X149207147Y-97674500D01*
X149124359Y-97696682D01*
X149050138Y-97739535D01*
X149050135Y-97739537D01*
X148464537Y-98325135D01*
X148464533Y-98325141D01*
X148421681Y-98399362D01*
X148421680Y-98399363D01*
X148407980Y-98450498D01*
X148407980Y-98450499D01*
X148399500Y-98482146D01*
X148399500Y-103067852D01*
X148421682Y-103150640D01*
X148443108Y-103187750D01*
X148464535Y-103224862D01*
X148464537Y-103224864D01*
X149009204Y-103769531D01*
X149042689Y-103830854D01*
X149045523Y-103857212D01*
X149045523Y-105603492D01*
X149025838Y-105670531D01*
X148973034Y-105716286D01*
X148903876Y-105726230D01*
X148874071Y-105718053D01*
X148802788Y-105688527D01*
X148802783Y-105688525D01*
X148646024Y-105667888D01*
X148646022Y-105667888D01*
X148489262Y-105688525D01*
X148489260Y-105688526D01*
X148343183Y-105749033D01*
X148343182Y-105749034D01*
X148251193Y-105819618D01*
X148186026Y-105844812D01*
X148117582Y-105830774D01*
X148105145Y-105821579D01*
X148104708Y-105822234D01*
X148094552Y-105815448D01*
X148068591Y-105798101D01*
X148023787Y-105744491D01*
X148015080Y-105675166D01*
X148045234Y-105612138D01*
X148068592Y-105591898D01*
X148094552Y-105574552D01*
X148138867Y-105508231D01*
X148138867Y-105508229D01*
X148138868Y-105508229D01*
X148150499Y-105449752D01*
X148150500Y-105449750D01*
X148150500Y-104670249D01*
X148150499Y-104670247D01*
X148138868Y-104611770D01*
X148138867Y-104611769D01*
X148094552Y-104545447D01*
X148028230Y-104501132D01*
X148028229Y-104501131D01*
X147969752Y-104489500D01*
X147969748Y-104489500D01*
X145530252Y-104489500D01*
X145530247Y-104489500D01*
X145471770Y-104501131D01*
X145471769Y-104501132D01*
X145405447Y-104545447D01*
X145361132Y-104611769D01*
X145361131Y-104611770D01*
X145349500Y-104670247D01*
X145349500Y-105449752D01*
X145361131Y-105508229D01*
X145361132Y-105508230D01*
X145405447Y-105574552D01*
X145431407Y-105591898D01*
X145476212Y-105645511D01*
X145484919Y-105714836D01*
X145454764Y-105777863D01*
X145431407Y-105798102D01*
X145405448Y-105815447D01*
X145392345Y-105835056D01*
X145338731Y-105879859D01*
X145269405Y-105888564D01*
X145206379Y-105858406D01*
X145190869Y-105841647D01*
X145153461Y-105792895D01*
X145153460Y-105792894D01*
X145032193Y-105699843D01*
X144990992Y-105643416D01*
X144983681Y-105601468D01*
X144983681Y-103278008D01*
X145003366Y-103210969D01*
X145020000Y-103190327D01*
X145059688Y-103150639D01*
X145210465Y-102999862D01*
X145228727Y-102968231D01*
X145253318Y-102925638D01*
X145275500Y-102842853D01*
X145275500Y-101909712D01*
X145295185Y-101842673D01*
X145347989Y-101796918D01*
X145417147Y-101786974D01*
X145468390Y-101806609D01*
X145471769Y-101808867D01*
X145471771Y-101808867D01*
X145471772Y-101808868D01*
X145471770Y-101808868D01*
X145530247Y-101820499D01*
X145530250Y-101820500D01*
X145530252Y-101820500D01*
X147969750Y-101820500D01*
X147969751Y-101820499D01*
X147984568Y-101817552D01*
X148028229Y-101808868D01*
X148028229Y-101808867D01*
X148028231Y-101808867D01*
X148094552Y-101764552D01*
X148138867Y-101698231D01*
X148138867Y-101698229D01*
X148138868Y-101698229D01*
X148150499Y-101639752D01*
X148150500Y-101639750D01*
X148150500Y-100860249D01*
X148150499Y-100860247D01*
X148138868Y-100801770D01*
X148138867Y-100801769D01*
X148094552Y-100735447D01*
X148028230Y-100691132D01*
X148028229Y-100691131D01*
X147969752Y-100679500D01*
X147969748Y-100679500D01*
X147199500Y-100679500D01*
X147132461Y-100659815D01*
X147086706Y-100607011D01*
X147075500Y-100555500D01*
X147075500Y-99206832D01*
X147095185Y-99139793D01*
X147111814Y-99119155D01*
X147200985Y-99029983D01*
X147262306Y-98996500D01*
X147304850Y-98994727D01*
X147318317Y-98996500D01*
X147372668Y-99003656D01*
X147372669Y-99003656D01*
X147372670Y-99003656D01*
X147424923Y-98996776D01*
X147529431Y-98983018D01*
X147675510Y-98922510D01*
X147800951Y-98826256D01*
X147897205Y-98700815D01*
X147957713Y-98554736D01*
X147978168Y-98399362D01*
X147978351Y-98397975D01*
X147978351Y-98397972D01*
X147957713Y-98241213D01*
X147957713Y-98241212D01*
X147897205Y-98095133D01*
X147800951Y-97969692D01*
X147675510Y-97873438D01*
X147647459Y-97861819D01*
X147529431Y-97812930D01*
X147529429Y-97812929D01*
X147372670Y-97792292D01*
X147372668Y-97792292D01*
X147215908Y-97812929D01*
X147215906Y-97812930D01*
X147069829Y-97873437D01*
X146944387Y-97969692D01*
X146848132Y-98095134D01*
X146787625Y-98241211D01*
X146787624Y-98241213D01*
X146766987Y-98397972D01*
X146766987Y-98397975D01*
X146775915Y-98465791D01*
X146765149Y-98534826D01*
X146740658Y-98569657D01*
X146489534Y-98820782D01*
X146489533Y-98820784D01*
X146446681Y-98895004D01*
X146446682Y-98895005D01*
X146424500Y-98977790D01*
X146424500Y-100555500D01*
X146404815Y-100622539D01*
X146352011Y-100668294D01*
X146300500Y-100679500D01*
X145530247Y-100679500D01*
X145471770Y-100691131D01*
X145471768Y-100691132D01*
X145468387Y-100693392D01*
X145401708Y-100714267D01*
X145334329Y-100695780D01*
X145287641Y-100643799D01*
X145275500Y-100590287D01*
X145275500Y-100520753D01*
X145275500Y-100520751D01*
X145253318Y-100437966D01*
X145253314Y-100437959D01*
X145210469Y-100363748D01*
X145210463Y-100363740D01*
X144611819Y-99765096D01*
X144578334Y-99703773D01*
X144575500Y-99677415D01*
X144575500Y-96958981D01*
X144595185Y-96891942D01*
X144611819Y-96871300D01*
X144807984Y-96675135D01*
X145110465Y-96372654D01*
X145153318Y-96298431D01*
X145175500Y-96215645D01*
X145175500Y-96129939D01*
X145175500Y-90316663D01*
X145195185Y-90249624D01*
X145247989Y-90203869D01*
X145317147Y-90193925D01*
X145346947Y-90202100D01*
G37*
%TD.AperFunction*%
%TA.AperFunction,Conductor*%
G36*
X143343834Y-96969007D02*
G01*
X143399767Y-97010879D01*
X143424184Y-97076343D01*
X143424500Y-97085189D01*
X143424500Y-100042852D01*
X143446682Y-100125640D01*
X143462584Y-100153182D01*
X143489535Y-100199862D01*
X143489537Y-100199864D01*
X143757492Y-100467819D01*
X143790977Y-100529142D01*
X143785993Y-100598834D01*
X143744121Y-100654767D01*
X143678657Y-100679184D01*
X143669811Y-100679500D01*
X142791189Y-100679500D01*
X142724150Y-100659815D01*
X142703508Y-100643181D01*
X142611819Y-100551492D01*
X142578334Y-100490169D01*
X142575500Y-100463811D01*
X142575500Y-97686189D01*
X142595185Y-97619150D01*
X142611819Y-97598508D01*
X143212819Y-96997508D01*
X143274142Y-96964023D01*
X143343834Y-96969007D01*
G37*
%TD.AperFunction*%
%TA.AperFunction,Conductor*%
G36*
X156780703Y-89128983D02*
G01*
X156797874Y-89147208D01*
X156821718Y-89178282D01*
X156947159Y-89274536D01*
X157093238Y-89335044D01*
X157138175Y-89340960D01*
X157249999Y-89355682D01*
X157250000Y-89355682D01*
X157250001Y-89355682D01*
X157302254Y-89348802D01*
X157406762Y-89335044D01*
X157478049Y-89305515D01*
X157547516Y-89298047D01*
X157609995Y-89329322D01*
X157645648Y-89389410D01*
X157649500Y-89420077D01*
X157649500Y-94838811D01*
X157629815Y-94905850D01*
X157613181Y-94926492D01*
X157151492Y-95388181D01*
X157090169Y-95421666D01*
X157063811Y-95424500D01*
X154982452Y-95424500D01*
X154899664Y-95446682D01*
X154825443Y-95489535D01*
X154825440Y-95489537D01*
X153951797Y-96363181D01*
X153890474Y-96396666D01*
X153864116Y-96399500D01*
X152435729Y-96399500D01*
X152368690Y-96379815D01*
X152348048Y-96363181D01*
X150480391Y-94495524D01*
X150446906Y-94434201D01*
X150451890Y-94364509D01*
X150493762Y-94308576D01*
X150551885Y-94284904D01*
X150617707Y-94276238D01*
X150686742Y-94287003D01*
X150721574Y-94311496D01*
X150920543Y-94510465D01*
X150994766Y-94553318D01*
X151077552Y-94575500D01*
X151163258Y-94575500D01*
X152194691Y-94575500D01*
X152261730Y-94595185D01*
X152307485Y-94647989D01*
X152317429Y-94717147D01*
X152309252Y-94746950D01*
X152299029Y-94771632D01*
X152270031Y-94841639D01*
X152270030Y-94841641D01*
X152249393Y-94998400D01*
X152249393Y-94998403D01*
X152270030Y-95155162D01*
X152270031Y-95155164D01*
X152294347Y-95213867D01*
X152324003Y-95285465D01*
X152330539Y-95301243D01*
X152426793Y-95426684D01*
X152552234Y-95522938D01*
X152698313Y-95583446D01*
X152776694Y-95593765D01*
X152855074Y-95604084D01*
X152855075Y-95604084D01*
X152855076Y-95604084D01*
X152907329Y-95597204D01*
X153011837Y-95583446D01*
X153157916Y-95522938D01*
X153283357Y-95426684D01*
X153365828Y-95319204D01*
X153402204Y-95287304D01*
X153451460Y-95258867D01*
X154295957Y-94414368D01*
X154357280Y-94380884D01*
X154426971Y-94385868D01*
X154482905Y-94427740D01*
X154498198Y-94454596D01*
X154527727Y-94525884D01*
X154623981Y-94651325D01*
X154749422Y-94747579D01*
X154895501Y-94808087D01*
X154973882Y-94818406D01*
X155052262Y-94828725D01*
X155052263Y-94828725D01*
X155052264Y-94828725D01*
X155104517Y-94821845D01*
X155209025Y-94808087D01*
X155355104Y-94747579D01*
X155480545Y-94651325D01*
X155576799Y-94525884D01*
X155637307Y-94379805D01*
X155657945Y-94223043D01*
X155649016Y-94155224D01*
X155659781Y-94086189D01*
X155684271Y-94051360D01*
X156510465Y-93225168D01*
X156553318Y-93150945D01*
X156575500Y-93068159D01*
X156575500Y-92982453D01*
X156575500Y-89222696D01*
X156595185Y-89155657D01*
X156647989Y-89109902D01*
X156717147Y-89099958D01*
X156780703Y-89128983D01*
G37*
%TD.AperFunction*%
%TA.AperFunction,Conductor*%
G36*
X149499449Y-82418799D02*
G01*
X151341115Y-84260465D01*
X151415338Y-84303318D01*
X151498124Y-84325500D01*
X151583830Y-84325500D01*
X152362856Y-84325500D01*
X152429895Y-84345185D01*
X152475650Y-84397989D01*
X152485594Y-84467147D01*
X152456569Y-84530703D01*
X152450535Y-84537183D01*
X152428687Y-84559030D01*
X152367363Y-84592514D01*
X152324823Y-84594286D01*
X152257006Y-84585358D01*
X152257004Y-84585358D01*
X152100244Y-84605995D01*
X152100242Y-84605996D01*
X151954165Y-84666503D01*
X151828723Y-84762758D01*
X151732468Y-84888200D01*
X151671961Y-85034277D01*
X151671960Y-85034279D01*
X151651323Y-85191038D01*
X151651323Y-85191041D01*
X151671960Y-85347800D01*
X151671961Y-85347802D01*
X151724989Y-85475824D01*
X151732469Y-85493881D01*
X151828723Y-85619322D01*
X151954164Y-85715576D01*
X152100243Y-85776084D01*
X152178624Y-85786403D01*
X152257004Y-85796722D01*
X152257005Y-85796722D01*
X152257006Y-85796722D01*
X152319131Y-85788543D01*
X152413767Y-85776084D01*
X152559846Y-85715576D01*
X152685287Y-85619322D01*
X152781541Y-85493881D01*
X152842049Y-85347802D01*
X152862687Y-85191040D01*
X152853758Y-85123219D01*
X152864523Y-85054187D01*
X152889011Y-85019360D01*
X152962821Y-84945550D01*
X153024143Y-84912068D01*
X153093834Y-84917053D01*
X153149768Y-84958924D01*
X153174184Y-85024389D01*
X153174500Y-85033234D01*
X153174500Y-86457147D01*
X153174500Y-86542853D01*
X153174862Y-86544204D01*
X153196682Y-86625640D01*
X153214003Y-86655639D01*
X153239535Y-86699862D01*
X153699069Y-87159396D01*
X154138181Y-87598507D01*
X154171666Y-87659830D01*
X154174500Y-87686188D01*
X154174500Y-88679479D01*
X154154815Y-88746518D01*
X154102011Y-88792273D01*
X154032853Y-88802217D01*
X153969297Y-88773192D01*
X153935939Y-88726932D01*
X153914538Y-88675267D01*
X153914538Y-88675266D01*
X153818284Y-88549825D01*
X153692843Y-88453571D01*
X153683782Y-88449818D01*
X153546764Y-88393063D01*
X153546762Y-88393062D01*
X153390003Y-88372425D01*
X153390001Y-88372425D01*
X153233241Y-88393062D01*
X153233239Y-88393063D01*
X153087162Y-88453570D01*
X152961720Y-88549825D01*
X152865465Y-88675267D01*
X152804958Y-88821344D01*
X152804957Y-88821346D01*
X152784320Y-88978105D01*
X152784320Y-88978108D01*
X152804957Y-89134867D01*
X152804958Y-89134869D01*
X152865466Y-89280948D01*
X152961720Y-89406389D01*
X153087161Y-89502643D01*
X153233240Y-89563151D01*
X153278800Y-89569149D01*
X153390001Y-89583789D01*
X153390002Y-89583789D01*
X153390003Y-89583789D01*
X153416129Y-89580349D01*
X153546764Y-89563151D01*
X153555787Y-89559413D01*
X153625252Y-89551943D01*
X153687732Y-89583216D01*
X153723386Y-89643304D01*
X153727239Y-89673974D01*
X153727239Y-90185559D01*
X153727239Y-90271265D01*
X153729204Y-90278597D01*
X153749421Y-90354052D01*
X153765090Y-90381191D01*
X153792274Y-90428274D01*
X153792276Y-90428276D01*
X153888181Y-90524181D01*
X153921666Y-90585504D01*
X153924500Y-90611862D01*
X153924500Y-93177415D01*
X153904815Y-93244454D01*
X153888181Y-93265096D01*
X153265096Y-93888181D01*
X153203773Y-93921666D01*
X153177415Y-93924500D01*
X151306594Y-93924500D01*
X151239555Y-93904815D01*
X151218913Y-93888181D01*
X151181901Y-93851169D01*
X151148416Y-93789846D01*
X151146643Y-93747301D01*
X151152283Y-93704469D01*
X151155572Y-93679485D01*
X151153238Y-93661760D01*
X151134934Y-93522724D01*
X151134934Y-93522723D01*
X151074426Y-93376644D01*
X150978172Y-93251203D01*
X150852731Y-93154949D01*
X150807305Y-93136133D01*
X150706652Y-93094441D01*
X150706650Y-93094440D01*
X150549891Y-93073803D01*
X150549889Y-93073803D01*
X150393129Y-93094440D01*
X150393127Y-93094441D01*
X150247050Y-93154948D01*
X150121608Y-93251203D01*
X150025353Y-93376645D01*
X149964846Y-93522722D01*
X149964846Y-93522724D01*
X149944470Y-93677488D01*
X149916203Y-93741384D01*
X149857878Y-93779855D01*
X149788014Y-93780686D01*
X149733850Y-93748983D01*
X149689336Y-93704469D01*
X149655851Y-93643146D01*
X149660835Y-93573454D01*
X149662434Y-93569390D01*
X149672434Y-93545250D01*
X149693072Y-93388488D01*
X149691380Y-93375639D01*
X149674998Y-93251203D01*
X149672434Y-93231726D01*
X149611926Y-93085647D01*
X149515672Y-92960206D01*
X149390231Y-92863952D01*
X149244152Y-92803444D01*
X149231251Y-92801745D01*
X149205499Y-92798355D01*
X149141603Y-92770088D01*
X149103133Y-92711763D01*
X149102302Y-92641898D01*
X149139375Y-92582675D01*
X149146182Y-92577054D01*
X149257213Y-92491858D01*
X149353467Y-92366417D01*
X149413975Y-92220338D01*
X149434613Y-92063576D01*
X149413975Y-91906814D01*
X149353467Y-91760735D01*
X149353466Y-91760734D01*
X149353466Y-91760733D01*
X149315225Y-91710897D01*
X149290030Y-91645728D01*
X149304068Y-91577283D01*
X149352882Y-91527293D01*
X149398065Y-91515473D01*
X149397670Y-91512471D01*
X149457428Y-91504603D01*
X149562490Y-91490772D01*
X149708569Y-91430264D01*
X149834010Y-91334010D01*
X149930264Y-91208569D01*
X149990772Y-91062490D01*
X150011410Y-90905728D01*
X149990772Y-90748966D01*
X149930264Y-90602887D01*
X149834010Y-90477446D01*
X149708569Y-90381192D01*
X149699332Y-90377366D01*
X149562490Y-90320684D01*
X149562488Y-90320683D01*
X149405729Y-90300046D01*
X149405727Y-90300046D01*
X149248967Y-90320683D01*
X149248965Y-90320684D01*
X149102888Y-90381191D01*
X149102887Y-90381192D01*
X148977446Y-90477446D01*
X148977444Y-90477447D01*
X148977443Y-90477449D01*
X148973098Y-90483111D01*
X148916667Y-90524309D01*
X148846920Y-90528459D01*
X148786003Y-90494242D01*
X148760167Y-90455069D01*
X148749068Y-90428274D01*
X148700702Y-90311507D01*
X148604448Y-90186066D01*
X148479007Y-90089812D01*
X148467061Y-90084864D01*
X148332928Y-90029304D01*
X148332926Y-90029303D01*
X148176167Y-90008666D01*
X148176165Y-90008666D01*
X148019405Y-90029303D01*
X148019403Y-90029304D01*
X147873326Y-90089811D01*
X147831511Y-90121896D01*
X147747884Y-90186066D01*
X147747883Y-90186067D01*
X147747882Y-90186068D01*
X147681350Y-90272774D01*
X147624922Y-90313976D01*
X147555176Y-90318131D01*
X147495294Y-90284968D01*
X147266904Y-90056578D01*
X146999472Y-89789145D01*
X146965987Y-89727822D01*
X146963153Y-89701464D01*
X146963153Y-88455951D01*
X146982838Y-88388912D01*
X147011663Y-88357578D01*
X147065935Y-88315935D01*
X147162189Y-88190494D01*
X147222697Y-88044415D01*
X147243335Y-87887653D01*
X147222697Y-87730891D01*
X147162189Y-87584812D01*
X147065935Y-87459371D01*
X146940494Y-87363117D01*
X146794415Y-87302609D01*
X146794413Y-87302608D01*
X146637654Y-87281971D01*
X146637652Y-87281971D01*
X146480892Y-87302608D01*
X146480890Y-87302609D01*
X146334813Y-87363116D01*
X146209371Y-87459371D01*
X146113116Y-87584813D01*
X146052609Y-87730890D01*
X146052608Y-87730892D01*
X146031971Y-87887651D01*
X146031971Y-87887654D01*
X146052608Y-88044413D01*
X146052609Y-88044415D01*
X146111033Y-88185464D01*
X146113117Y-88190494D01*
X146209371Y-88315935D01*
X146263640Y-88357577D01*
X146304842Y-88414002D01*
X146312153Y-88455951D01*
X146312153Y-89255540D01*
X146292468Y-89322579D01*
X146239664Y-89368334D01*
X146170506Y-89378278D01*
X146106950Y-89349253D01*
X146089777Y-89331027D01*
X146070202Y-89305516D01*
X146003282Y-89218304D01*
X145877841Y-89122050D01*
X145773060Y-89078648D01*
X145718658Y-89034808D01*
X145696593Y-88968514D01*
X145705955Y-88916632D01*
X145710044Y-88906762D01*
X145729993Y-88755232D01*
X145730682Y-88750001D01*
X145730682Y-88749998D01*
X145710044Y-88593239D01*
X145710044Y-88593238D01*
X145649536Y-88447159D01*
X145553282Y-88321718D01*
X145427841Y-88225464D01*
X145302175Y-88173411D01*
X145247773Y-88129571D01*
X145225708Y-88063277D01*
X145242987Y-87995578D01*
X145261948Y-87971170D01*
X146460963Y-86772156D01*
X147799151Y-85433968D01*
X147860474Y-85400483D01*
X147886832Y-85397649D01*
X148350341Y-85397649D01*
X148350343Y-85397649D01*
X148433129Y-85375467D01*
X148507352Y-85332614D01*
X148581817Y-85258149D01*
X149627466Y-85258149D01*
X149648103Y-85414908D01*
X149648104Y-85414910D01*
X149708612Y-85560989D01*
X149804866Y-85686430D01*
X149930307Y-85782684D01*
X150076386Y-85843192D01*
X150154767Y-85853511D01*
X150233147Y-85863830D01*
X150233148Y-85863830D01*
X150233149Y-85863830D01*
X150285402Y-85856950D01*
X150389910Y-85843192D01*
X150535989Y-85782684D01*
X150661430Y-85686430D01*
X150757684Y-85560989D01*
X150818192Y-85414910D01*
X150838830Y-85258148D01*
X150835741Y-85234688D01*
X150819414Y-85110666D01*
X150818192Y-85101386D01*
X150757684Y-84955307D01*
X150661430Y-84829866D01*
X150535989Y-84733612D01*
X150488308Y-84713862D01*
X150389910Y-84673104D01*
X150389908Y-84673103D01*
X150233149Y-84652466D01*
X150233147Y-84652466D01*
X150076387Y-84673103D01*
X150076385Y-84673104D01*
X149930308Y-84733611D01*
X149804866Y-84829866D01*
X149708611Y-84955308D01*
X149648104Y-85101385D01*
X149648103Y-85101387D01*
X149627466Y-85258146D01*
X149627466Y-85258149D01*
X148581817Y-85258149D01*
X149185441Y-84654522D01*
X149185446Y-84654519D01*
X149195649Y-84644315D01*
X149195651Y-84644315D01*
X149256254Y-84583712D01*
X149290773Y-84523923D01*
X149299107Y-84509489D01*
X149321289Y-84426703D01*
X149321289Y-84340997D01*
X149321289Y-82645570D01*
X149305437Y-82586408D01*
X149299107Y-82562784D01*
X149299105Y-82562780D01*
X149296782Y-82557172D01*
X149288402Y-82493541D01*
X149288829Y-82490297D01*
X149317092Y-82426403D01*
X149375414Y-82387929D01*
X149445279Y-82387094D01*
X149499449Y-82418799D01*
G37*
%TD.AperFunction*%
%TA.AperFunction,Conductor*%
G36*
X155238363Y-86702698D02*
G01*
X155259005Y-86719332D01*
X155888181Y-87348508D01*
X155921666Y-87409831D01*
X155924500Y-87436189D01*
X155924500Y-92839116D01*
X155904815Y-92906155D01*
X155888181Y-92926797D01*
X155537181Y-93277797D01*
X155475858Y-93311282D01*
X155406166Y-93306298D01*
X155350233Y-93264426D01*
X155325816Y-93198962D01*
X155325500Y-93190116D01*
X155325500Y-90203223D01*
X155325501Y-90203210D01*
X155325501Y-90199540D01*
X155326021Y-90196924D01*
X155327187Y-90182838D01*
X155327188Y-90182832D01*
X155328771Y-90183095D01*
X155334940Y-90152087D01*
X155362783Y-90084869D01*
X155370099Y-90029303D01*
X155383421Y-89928108D01*
X155383421Y-89928105D01*
X155362783Y-89771346D01*
X155362783Y-89771345D01*
X155302275Y-89625266D01*
X155206021Y-89499825D01*
X155080580Y-89403571D01*
X155046392Y-89389410D01*
X154934501Y-89343063D01*
X154934490Y-89343060D01*
X154933302Y-89342904D01*
X154932374Y-89342493D01*
X154926651Y-89340960D01*
X154926890Y-89340066D01*
X154869408Y-89314631D01*
X154830943Y-89256302D01*
X154825500Y-89219967D01*
X154825500Y-87552855D01*
X154825501Y-87552842D01*
X154825501Y-87457149D01*
X154823757Y-87450639D01*
X154803318Y-87374362D01*
X154789621Y-87350638D01*
X154775043Y-87325388D01*
X154760466Y-87300139D01*
X154695542Y-87235215D01*
X154695530Y-87235204D01*
X154574143Y-87113817D01*
X154540660Y-87052495D01*
X154545644Y-86982803D01*
X154587516Y-86926870D01*
X154614363Y-86911581D01*
X154685660Y-86882049D01*
X154811101Y-86785795D01*
X154852742Y-86731526D01*
X154909170Y-86690324D01*
X154951118Y-86683013D01*
X155171324Y-86683013D01*
X155238363Y-86702698D01*
G37*
%TD.AperFunction*%
%TA.AperFunction,Conductor*%
G36*
X145241206Y-81170185D02*
G01*
X145261848Y-81186819D01*
X145800398Y-81725369D01*
X145833883Y-81786692D01*
X145828899Y-81856384D01*
X145800398Y-81900731D01*
X145287948Y-82413181D01*
X145226625Y-82446666D01*
X145200267Y-82449500D01*
X144623245Y-82449500D01*
X144556206Y-82429815D01*
X144510451Y-82377011D01*
X144500507Y-82307853D01*
X144521477Y-82258068D01*
X144520472Y-82257488D01*
X144524534Y-82250450D01*
X144524536Y-82250448D01*
X144585044Y-82104369D01*
X144605682Y-81947607D01*
X144585044Y-81790845D01*
X144524536Y-81644766D01*
X144428282Y-81519325D01*
X144302841Y-81423071D01*
X144220732Y-81389060D01*
X144166330Y-81345220D01*
X144144265Y-81278926D01*
X144161544Y-81211227D01*
X144212681Y-81163616D01*
X144268186Y-81150500D01*
X145174167Y-81150500D01*
X145241206Y-81170185D01*
G37*
%TD.AperFunction*%
%TA.AperFunction,Conductor*%
G36*
X151601397Y-74530916D02*
G01*
X151647152Y-74583720D01*
X151657296Y-74651415D01*
X151655155Y-74667685D01*
X151644318Y-74750000D01*
X151664955Y-74906760D01*
X151664956Y-74906762D01*
X151704312Y-75001777D01*
X151725464Y-75052841D01*
X151821718Y-75178282D01*
X151947159Y-75274536D01*
X152093238Y-75335044D01*
X152171619Y-75345363D01*
X152249999Y-75355682D01*
X152250000Y-75355682D01*
X152250001Y-75355682D01*
X152302254Y-75348802D01*
X152406762Y-75335044D01*
X152552841Y-75274536D01*
X152678282Y-75178282D01*
X152774536Y-75052841D01*
X152835044Y-74906762D01*
X152855682Y-74750000D01*
X152842703Y-74651415D01*
X152853468Y-74582381D01*
X152899848Y-74530125D01*
X152965642Y-74511231D01*
X155816122Y-74511231D01*
X155883161Y-74530916D01*
X155928916Y-74583720D01*
X155938860Y-74652878D01*
X155909835Y-74716434D01*
X155903803Y-74722912D01*
X154880835Y-75745879D01*
X154880833Y-75745882D01*
X154837980Y-75820104D01*
X154821005Y-75883458D01*
X154815798Y-75902889D01*
X154815798Y-76780232D01*
X154796113Y-76847271D01*
X154767286Y-76878607D01*
X154713018Y-76920248D01*
X154616761Y-77045693D01*
X154556254Y-77191770D01*
X154556253Y-77191772D01*
X154535616Y-77348531D01*
X154535616Y-77355267D01*
X154515931Y-77422306D01*
X154463127Y-77468061D01*
X154427802Y-77478206D01*
X154302398Y-77494716D01*
X154302397Y-77494716D01*
X154156320Y-77555223D01*
X154030878Y-77651478D01*
X153934623Y-77776920D01*
X153874116Y-77922997D01*
X153874115Y-77922999D01*
X153853478Y-78079758D01*
X153853478Y-78079761D01*
X153874115Y-78236520D01*
X153874116Y-78236522D01*
X153934624Y-78382601D01*
X154030878Y-78508042D01*
X154156319Y-78604296D01*
X154302398Y-78664804D01*
X154380779Y-78675123D01*
X154459159Y-78685442D01*
X154459160Y-78685442D01*
X154534316Y-78675547D01*
X154603349Y-78686312D01*
X154655605Y-78732692D01*
X154674500Y-78798486D01*
X154674500Y-82100500D01*
X154654815Y-82167539D01*
X154602011Y-82213294D01*
X154550500Y-82224500D01*
X154108694Y-82224500D01*
X154041655Y-82204815D01*
X153995900Y-82152011D01*
X153985956Y-82082853D01*
X153994133Y-82053048D01*
X154028686Y-81969628D01*
X154034629Y-81955281D01*
X154055267Y-81798519D01*
X154054521Y-81792856D01*
X154034629Y-81641758D01*
X154034629Y-81641757D01*
X153974121Y-81495678D01*
X153877867Y-81370237D01*
X153752426Y-81273983D01*
X153606347Y-81213475D01*
X153565656Y-81208118D01*
X153455239Y-81193581D01*
X153391343Y-81165314D01*
X153352872Y-81106990D01*
X153348486Y-81086827D01*
X153334782Y-80982739D01*
X153328343Y-80933826D01*
X153267835Y-80787747D01*
X153171581Y-80662306D01*
X153046140Y-80566052D01*
X152999468Y-80546720D01*
X152900061Y-80505544D01*
X152900059Y-80505543D01*
X152743300Y-80484906D01*
X152743298Y-80484906D01*
X152586538Y-80505543D01*
X152586536Y-80505544D01*
X152440456Y-80566052D01*
X152383154Y-80610022D01*
X152317984Y-80635216D01*
X152249540Y-80621177D01*
X152209293Y-80587133D01*
X152193116Y-80566051D01*
X152178281Y-80546718D01*
X152052840Y-80450464D01*
X152045725Y-80447517D01*
X151906761Y-80389956D01*
X151906759Y-80389955D01*
X151750000Y-80369318D01*
X151749998Y-80369318D01*
X151593238Y-80389955D01*
X151593236Y-80389956D01*
X151447155Y-80450465D01*
X151440118Y-80454528D01*
X151439262Y-80453046D01*
X151383208Y-80474706D01*
X151314766Y-80460655D01*
X151285232Y-80438815D01*
X148013601Y-77167184D01*
X147980116Y-77105861D01*
X147985100Y-77036169D01*
X148026972Y-76980236D01*
X148085095Y-76956564D01*
X148130845Y-76950542D01*
X148276924Y-76890034D01*
X148402365Y-76793780D01*
X148498619Y-76668339D01*
X148559127Y-76522260D01*
X148579765Y-76365498D01*
X148559127Y-76208736D01*
X148498619Y-76062657D01*
X148402365Y-75937216D01*
X148276924Y-75840962D01*
X148226568Y-75820104D01*
X148130845Y-75780454D01*
X148130843Y-75780453D01*
X147974084Y-75759816D01*
X147974082Y-75759816D01*
X147817322Y-75780453D01*
X147817317Y-75780455D01*
X147671952Y-75840667D01*
X147602483Y-75848136D01*
X147540004Y-75816861D01*
X147504352Y-75756772D01*
X147500500Y-75726106D01*
X147500500Y-74635231D01*
X147520185Y-74568192D01*
X147572989Y-74522437D01*
X147624500Y-74511231D01*
X151534358Y-74511231D01*
X151601397Y-74530916D01*
G37*
%TD.AperFunction*%
%TA.AperFunction,Conductor*%
G36*
X148822539Y-48269685D02*
G01*
X148868294Y-48322489D01*
X148879500Y-48374000D01*
X148879500Y-48474752D01*
X148891131Y-48533229D01*
X148891132Y-48533230D01*
X148935447Y-48599552D01*
X149001769Y-48643867D01*
X149001770Y-48643868D01*
X149060247Y-48655499D01*
X149060250Y-48655500D01*
X149060252Y-48655500D01*
X151439750Y-48655500D01*
X151439751Y-48655499D01*
X151454568Y-48652552D01*
X151498229Y-48643868D01*
X151498229Y-48643867D01*
X151498231Y-48643867D01*
X151564552Y-48599552D01*
X151608867Y-48533231D01*
X151608867Y-48533229D01*
X151608868Y-48533229D01*
X151620499Y-48474752D01*
X151620500Y-48474750D01*
X151620500Y-48374000D01*
X151640185Y-48306961D01*
X151692989Y-48261206D01*
X151744500Y-48250000D01*
X158626000Y-48250000D01*
X158693039Y-48269685D01*
X158738794Y-48322489D01*
X158750000Y-48374000D01*
X158750000Y-62637231D01*
X158730315Y-62704270D01*
X158677511Y-62750025D01*
X158626000Y-62761231D01*
X158572995Y-62761231D01*
X158505956Y-62741546D01*
X158460201Y-62688742D01*
X158448995Y-62637231D01*
X158448995Y-57580644D01*
X158448995Y-57580642D01*
X158426813Y-57497857D01*
X158397543Y-57447159D01*
X158383964Y-57423639D01*
X158383958Y-57423631D01*
X153699864Y-52739537D01*
X153699862Y-52739535D01*
X153662750Y-52718108D01*
X153625640Y-52696682D01*
X153584246Y-52685591D01*
X153542853Y-52674500D01*
X153542852Y-52674500D01*
X147186189Y-52674500D01*
X147119150Y-52654815D01*
X147098508Y-52638181D01*
X144111186Y-49650859D01*
X144111184Y-49650857D01*
X144074072Y-49629430D01*
X144036962Y-49608004D01*
X143995568Y-49596913D01*
X143954175Y-49585822D01*
X143954174Y-49585822D01*
X142314362Y-49585822D01*
X142247323Y-49566137D01*
X142215986Y-49537308D01*
X142174346Y-49483041D01*
X142174345Y-49483040D01*
X142048904Y-49386786D01*
X141902825Y-49326278D01*
X141902823Y-49326277D01*
X141746064Y-49305640D01*
X141746062Y-49305640D01*
X141589302Y-49326277D01*
X141589300Y-49326278D01*
X141443223Y-49386785D01*
X141317781Y-49483040D01*
X141221526Y-49608482D01*
X141161019Y-49754559D01*
X141161018Y-49754561D01*
X141140381Y-49911320D01*
X141140381Y-49911323D01*
X141161018Y-50068082D01*
X141161019Y-50068084D01*
X141221527Y-50214163D01*
X141317781Y-50339604D01*
X141443222Y-50435858D01*
X141589301Y-50496366D01*
X141667682Y-50506685D01*
X141746062Y-50517004D01*
X141746063Y-50517004D01*
X141746064Y-50517004D01*
X141798317Y-50510124D01*
X141902825Y-50496366D01*
X142048904Y-50435858D01*
X142174345Y-50339604D01*
X142215986Y-50285335D01*
X142272414Y-50244133D01*
X142314362Y-50236822D01*
X143725133Y-50236822D01*
X143792172Y-50256507D01*
X143812814Y-50273141D01*
X146739534Y-53199861D01*
X146739535Y-53199862D01*
X146800138Y-53260465D01*
X146800140Y-53260466D01*
X146800144Y-53260469D01*
X146874355Y-53303314D01*
X146874362Y-53303318D01*
X146957147Y-53325500D01*
X153313811Y-53325500D01*
X153380850Y-53345185D01*
X153401492Y-53361819D01*
X157761676Y-57722003D01*
X157795161Y-57783326D01*
X157797995Y-57809684D01*
X157797995Y-72777358D01*
X157778310Y-72844397D01*
X157761676Y-72865039D01*
X156401803Y-74224912D01*
X156340480Y-74258397D01*
X156314122Y-74261231D01*
X152641546Y-74261231D01*
X152574507Y-74241546D01*
X152566060Y-74235607D01*
X152552842Y-74225464D01*
X152406762Y-74164956D01*
X152406760Y-74164955D01*
X152250001Y-74144318D01*
X152249999Y-74144318D01*
X152093239Y-74164955D01*
X152093237Y-74164956D01*
X151947157Y-74225464D01*
X151933940Y-74235607D01*
X151868771Y-74260801D01*
X151858454Y-74261231D01*
X147624500Y-74261231D01*
X147557461Y-74241546D01*
X147511706Y-74188742D01*
X147500500Y-74137231D01*
X147500500Y-71463255D01*
X150174500Y-71463255D01*
X150184283Y-71499767D01*
X150196682Y-71546042D01*
X150218108Y-71583152D01*
X150239535Y-71620264D01*
X150239537Y-71620266D01*
X150874110Y-72254839D01*
X150907595Y-72316162D01*
X150909368Y-72358705D01*
X150900440Y-72426522D01*
X150900440Y-72426525D01*
X150921077Y-72583284D01*
X150921078Y-72583286D01*
X150981586Y-72729365D01*
X151077840Y-72854806D01*
X151203281Y-72951060D01*
X151349360Y-73011568D01*
X151427741Y-73021887D01*
X151506121Y-73032206D01*
X151506122Y-73032206D01*
X151506123Y-73032206D01*
X151572843Y-73023422D01*
X151662884Y-73011568D01*
X151808963Y-72951060D01*
X151934404Y-72854806D01*
X152030658Y-72729365D01*
X152091166Y-72583286D01*
X152111804Y-72426524D01*
X152091166Y-72269762D01*
X152030658Y-72123683D01*
X151934404Y-71998242D01*
X151808963Y-71901988D01*
X151747410Y-71876492D01*
X151662884Y-71841480D01*
X151662882Y-71841479D01*
X151506123Y-71820842D01*
X151506121Y-71820842D01*
X151438303Y-71829770D01*
X151369267Y-71819004D01*
X151334437Y-71794512D01*
X150861819Y-71321894D01*
X150828334Y-71260571D01*
X150825500Y-71234213D01*
X150825500Y-68548688D01*
X150845185Y-68481649D01*
X150861819Y-68461007D01*
X153706007Y-65616819D01*
X153767330Y-65583334D01*
X153793688Y-65580500D01*
X153964201Y-65580500D01*
X154031240Y-65600185D01*
X154062576Y-65629013D01*
X154104218Y-65683282D01*
X154167974Y-65732203D01*
X154209175Y-65788630D01*
X154213330Y-65858376D01*
X154179118Y-65919296D01*
X154139940Y-65945139D01*
X154054659Y-65980464D01*
X153929218Y-66076718D01*
X153832963Y-66202160D01*
X153772456Y-66348237D01*
X153772455Y-66348239D01*
X153751818Y-66504998D01*
X153751818Y-66505001D01*
X153772455Y-66661760D01*
X153772456Y-66661762D01*
X153832964Y-66807841D01*
X153929218Y-66933282D01*
X154054659Y-67029536D01*
X154200738Y-67090044D01*
X154279119Y-67100363D01*
X154357499Y-67110682D01*
X154357500Y-67110682D01*
X154357501Y-67110682D01*
X154409754Y-67103802D01*
X154514262Y-67090044D01*
X154660341Y-67029536D01*
X154785782Y-66933282D01*
X154882036Y-66807841D01*
X154942544Y-66661762D01*
X154963182Y-66505000D01*
X154942544Y-66348238D01*
X154882036Y-66202159D01*
X154785782Y-66076718D01*
X154722025Y-66027795D01*
X154680824Y-65971369D01*
X154676669Y-65901623D01*
X154710882Y-65840702D01*
X154750061Y-65814860D01*
X154813386Y-65788630D01*
X154835341Y-65779536D01*
X154960782Y-65683282D01*
X155057036Y-65557841D01*
X155117544Y-65411762D01*
X155138182Y-65255000D01*
X155117544Y-65098238D01*
X155057036Y-64952159D01*
X154960782Y-64826718D01*
X154835341Y-64730464D01*
X154817377Y-64723023D01*
X154762973Y-64679181D01*
X154740909Y-64612887D01*
X154758189Y-64545188D01*
X154789341Y-64510088D01*
X154805887Y-64497393D01*
X154902141Y-64371952D01*
X154962649Y-64225873D01*
X154983287Y-64069111D01*
X154962649Y-63912349D01*
X154902141Y-63766270D01*
X154805887Y-63640829D01*
X154785540Y-63625216D01*
X154744338Y-63568788D01*
X154740183Y-63499042D01*
X154774396Y-63438122D01*
X154785531Y-63428474D01*
X154785782Y-63428282D01*
X154882036Y-63302841D01*
X154942544Y-63156762D01*
X154963182Y-63000000D01*
X154942544Y-62843238D01*
X154882036Y-62697159D01*
X154785782Y-62571718D01*
X154660341Y-62475464D01*
X154617223Y-62457604D01*
X154514262Y-62414956D01*
X154514260Y-62414955D01*
X154357501Y-62394318D01*
X154357499Y-62394318D01*
X154200739Y-62414955D01*
X154200737Y-62414956D01*
X154054660Y-62475463D01*
X153929218Y-62571718D01*
X153832963Y-62697160D01*
X153772456Y-62843237D01*
X153772455Y-62843239D01*
X153751818Y-62999998D01*
X153751818Y-63000001D01*
X153772455Y-63156760D01*
X153772456Y-63156762D01*
X153832964Y-63302841D01*
X153929215Y-63428278D01*
X153929219Y-63428283D01*
X153949563Y-63443893D01*
X153990766Y-63500321D01*
X153994921Y-63570067D01*
X153960709Y-63630987D01*
X153949571Y-63640637D01*
X153949384Y-63640781D01*
X153949324Y-63640828D01*
X153853068Y-63766271D01*
X153792561Y-63912348D01*
X153792560Y-63912350D01*
X153771923Y-64069109D01*
X153771923Y-64069112D01*
X153792560Y-64225871D01*
X153792561Y-64225873D01*
X153853069Y-64371952D01*
X153949323Y-64497393D01*
X154074764Y-64593647D01*
X154092726Y-64601087D01*
X154147129Y-64644927D01*
X154169195Y-64711220D01*
X154151917Y-64778920D01*
X154120764Y-64814021D01*
X154104218Y-64826717D01*
X154062577Y-64880986D01*
X154006149Y-64922189D01*
X153964201Y-64929500D01*
X153657965Y-64929500D01*
X153657949Y-64929499D01*
X153650353Y-64929499D01*
X153564647Y-64929499D01*
X153531533Y-64938372D01*
X153481859Y-64951682D01*
X153481858Y-64951683D01*
X153407641Y-64994532D01*
X153407636Y-64994536D01*
X150239537Y-68162635D01*
X150239533Y-68162641D01*
X150196681Y-68236861D01*
X150196682Y-68236862D01*
X150174500Y-68319647D01*
X150174500Y-71377549D01*
X150174500Y-71463255D01*
X147500500Y-71463255D01*
X147500500Y-70005804D01*
X147500500Y-70005801D01*
X147492136Y-69974585D01*
X147478318Y-69923015D01*
X147435465Y-69848792D01*
X146969859Y-69383186D01*
X146936374Y-69321863D01*
X146933540Y-69295505D01*
X146933540Y-62385244D01*
X146953225Y-62318205D01*
X147006029Y-62272450D01*
X147057551Y-62261244D01*
X153684462Y-62261970D01*
X153684462Y-62011969D01*
X146683540Y-62011231D01*
X146683540Y-68797505D01*
X146663855Y-68864544D01*
X146611051Y-68910299D01*
X146541893Y-68920243D01*
X146478337Y-68891218D01*
X146471859Y-68885186D01*
X146361819Y-68775146D01*
X146328334Y-68713823D01*
X146325500Y-68687465D01*
X146325500Y-58322585D01*
X146345185Y-58255546D01*
X146361819Y-58234904D01*
X147297819Y-57298904D01*
X147359142Y-57265419D01*
X147428834Y-57270403D01*
X147484767Y-57312275D01*
X147509184Y-57377739D01*
X147509500Y-57386585D01*
X147509500Y-61324752D01*
X147521131Y-61383229D01*
X147521132Y-61383230D01*
X147565447Y-61449552D01*
X147631769Y-61493867D01*
X147631770Y-61493868D01*
X147690247Y-61505499D01*
X147690250Y-61505500D01*
X147690252Y-61505500D01*
X152809750Y-61505500D01*
X152809751Y-61505499D01*
X152824568Y-61502552D01*
X152868229Y-61493868D01*
X152868229Y-61493867D01*
X152868231Y-61493867D01*
X152934552Y-61449552D01*
X152978867Y-61383231D01*
X152978867Y-61383229D01*
X152978868Y-61383229D01*
X152990499Y-61324752D01*
X152990500Y-61324750D01*
X152990500Y-59500001D01*
X154144318Y-59500001D01*
X154164955Y-59656760D01*
X154164956Y-59656762D01*
X154225464Y-59802841D01*
X154321718Y-59928282D01*
X154447159Y-60024536D01*
X154593238Y-60085044D01*
X154671619Y-60095363D01*
X154749999Y-60105682D01*
X154750000Y-60105682D01*
X154750001Y-60105682D01*
X154802254Y-60098802D01*
X154906762Y-60085044D01*
X155052841Y-60024536D01*
X155178282Y-59928282D01*
X155274536Y-59802841D01*
X155335044Y-59656762D01*
X155355682Y-59500000D01*
X155335044Y-59343238D01*
X155274536Y-59197159D01*
X155178282Y-59071718D01*
X155052841Y-58975464D01*
X155012149Y-58958609D01*
X154906762Y-58914956D01*
X154906760Y-58914955D01*
X154750001Y-58894318D01*
X154749999Y-58894318D01*
X154593239Y-58914955D01*
X154593237Y-58914956D01*
X154447160Y-58975463D01*
X154321718Y-59071718D01*
X154225463Y-59197160D01*
X154164956Y-59343237D01*
X154164955Y-59343239D01*
X154144318Y-59499998D01*
X154144318Y-59500001D01*
X152990500Y-59500001D01*
X152990500Y-58867408D01*
X153010185Y-58800369D01*
X153062989Y-58754614D01*
X153132147Y-58744670D01*
X153189986Y-58769032D01*
X153197159Y-58774536D01*
X153343238Y-58835044D01*
X153421619Y-58845363D01*
X153499999Y-58855682D01*
X153500000Y-58855682D01*
X153500001Y-58855682D01*
X153552254Y-58848802D01*
X153656762Y-58835044D01*
X153802841Y-58774536D01*
X153928282Y-58678282D01*
X154024536Y-58552841D01*
X154085044Y-58406762D01*
X154105682Y-58250000D01*
X154105475Y-58248430D01*
X154085044Y-58093239D01*
X154085044Y-58093238D01*
X154024536Y-57947159D01*
X153928282Y-57821718D01*
X153928280Y-57821716D01*
X153928279Y-57821715D01*
X153874012Y-57780074D01*
X153832810Y-57723646D01*
X153825500Y-57681699D01*
X153825500Y-55707149D01*
X153825500Y-55707147D01*
X153803318Y-55624362D01*
X153803318Y-55624361D01*
X153760465Y-55550138D01*
X152749862Y-54539535D01*
X152712750Y-54518108D01*
X152675640Y-54496682D01*
X152634246Y-54485591D01*
X152592853Y-54474500D01*
X152592852Y-54474500D01*
X148114069Y-54474500D01*
X148114053Y-54474499D01*
X148106457Y-54474499D01*
X148020751Y-54474499D01*
X147965560Y-54489287D01*
X147937964Y-54496682D01*
X147919409Y-54507395D01*
X147900854Y-54518108D01*
X147863742Y-54539535D01*
X147863739Y-54539537D01*
X144489537Y-57913739D01*
X144489533Y-57913745D01*
X144446681Y-57987965D01*
X144446682Y-57987966D01*
X144424500Y-58070751D01*
X144424500Y-73985449D01*
X144404815Y-74052488D01*
X144352011Y-74098243D01*
X144282853Y-74108187D01*
X144219297Y-74079162D01*
X144212819Y-74073130D01*
X144111819Y-73972130D01*
X144078334Y-73910807D01*
X144075500Y-73884449D01*
X144075500Y-67924236D01*
X144075500Y-67924234D01*
X144036281Y-67777865D01*
X143960515Y-67646635D01*
X143853365Y-67539485D01*
X142906250Y-66592370D01*
X142872765Y-66531047D01*
X142869931Y-66504689D01*
X142869931Y-64626657D01*
X142889616Y-64559618D01*
X142942420Y-64513863D01*
X142993931Y-64502657D01*
X143164181Y-64502657D01*
X143164182Y-64502656D01*
X143178999Y-64499709D01*
X143222660Y-64491025D01*
X143222660Y-64491024D01*
X143222662Y-64491024D01*
X143288983Y-64446709D01*
X143333298Y-64380388D01*
X143333298Y-64380386D01*
X143333299Y-64380386D01*
X143344930Y-64321909D01*
X143344931Y-64321907D01*
X143344931Y-62582406D01*
X143344930Y-62582404D01*
X143333299Y-62523927D01*
X143333298Y-62523926D01*
X143288983Y-62457604D01*
X143222661Y-62413289D01*
X143222660Y-62413288D01*
X143164183Y-62401657D01*
X143164179Y-62401657D01*
X141424683Y-62401657D01*
X141424678Y-62401657D01*
X141366201Y-62413288D01*
X141366200Y-62413289D01*
X141299878Y-62457604D01*
X141255563Y-62523926D01*
X141255562Y-62523927D01*
X141243931Y-62582404D01*
X141243931Y-64321909D01*
X141255562Y-64380386D01*
X141255563Y-64380387D01*
X141299878Y-64446709D01*
X141366200Y-64491024D01*
X141366201Y-64491025D01*
X141424678Y-64502656D01*
X141424681Y-64502657D01*
X141424683Y-64502657D01*
X141594931Y-64502657D01*
X141661970Y-64522342D01*
X141707725Y-64575146D01*
X141718931Y-64626657D01*
X141718931Y-66870196D01*
X141758150Y-67016567D01*
X141765638Y-67029536D01*
X141833916Y-67147796D01*
X141833918Y-67147798D01*
X142176999Y-67490879D01*
X142210484Y-67552202D01*
X142205500Y-67621894D01*
X142163628Y-67677827D01*
X142121413Y-67698334D01*
X141976739Y-67737100D01*
X141976735Y-67737102D01*
X141851212Y-67809573D01*
X141851206Y-67809578D01*
X141748717Y-67912067D01*
X141748712Y-67912073D01*
X141676241Y-68037596D01*
X141676240Y-68037600D01*
X141638724Y-68177610D01*
X141638724Y-68322560D01*
X141670957Y-68442853D01*
X141676241Y-68462573D01*
X141748712Y-68588096D01*
X141748714Y-68588098D01*
X141748715Y-68588100D01*
X141851209Y-68690594D01*
X141851210Y-68690595D01*
X141851212Y-68690596D01*
X141976735Y-68763067D01*
X141976736Y-68763067D01*
X141976739Y-68763069D01*
X142116749Y-68800585D01*
X142116752Y-68800585D01*
X142261696Y-68800585D01*
X142261699Y-68800585D01*
X142401709Y-68763069D01*
X142527239Y-68690594D01*
X142629733Y-68588100D01*
X142693113Y-68478323D01*
X142743680Y-68430107D01*
X142812287Y-68416885D01*
X142877152Y-68442853D01*
X142917680Y-68499767D01*
X142924500Y-68540323D01*
X142924500Y-70959846D01*
X142904815Y-71026885D01*
X142852011Y-71072640D01*
X142782853Y-71082584D01*
X142719297Y-71053559D01*
X142693113Y-71021847D01*
X142691477Y-71019014D01*
X142629733Y-70912070D01*
X142527239Y-70809576D01*
X142527237Y-70809575D01*
X142527235Y-70809573D01*
X142401712Y-70737102D01*
X142401713Y-70737102D01*
X142390230Y-70734025D01*
X142261699Y-70699585D01*
X142116749Y-70699585D01*
X141988217Y-70734025D01*
X141976735Y-70737102D01*
X141851212Y-70809573D01*
X141851206Y-70809578D01*
X141748717Y-70912067D01*
X141748712Y-70912073D01*
X141676241Y-71037596D01*
X141676240Y-71037600D01*
X141638724Y-71177610D01*
X141638724Y-71322560D01*
X141670957Y-71442853D01*
X141676241Y-71462573D01*
X141748712Y-71588096D01*
X141748714Y-71588098D01*
X141748715Y-71588100D01*
X141851209Y-71690594D01*
X141851210Y-71690595D01*
X141851212Y-71690596D01*
X141976735Y-71763067D01*
X141976736Y-71763067D01*
X141976739Y-71763069D01*
X142116749Y-71800585D01*
X142116752Y-71800585D01*
X142261696Y-71800585D01*
X142261699Y-71800585D01*
X142401709Y-71763069D01*
X142527239Y-71690594D01*
X142629733Y-71588100D01*
X142693113Y-71478323D01*
X142743680Y-71430107D01*
X142812287Y-71416885D01*
X142877152Y-71442853D01*
X142917680Y-71499767D01*
X142924500Y-71540323D01*
X142924500Y-74098425D01*
X142924500Y-74249957D01*
X142927406Y-74260801D01*
X142963719Y-74396327D01*
X143001602Y-74461941D01*
X143039485Y-74527556D01*
X143039487Y-74527558D01*
X143473478Y-74961549D01*
X143495983Y-74995229D01*
X143496398Y-74994990D01*
X143500054Y-75001323D01*
X143500358Y-75001777D01*
X143500462Y-75002029D01*
X143500464Y-75002032D01*
X143576915Y-75101666D01*
X143596718Y-75127473D01*
X143722159Y-75223727D01*
X143868238Y-75284235D01*
X143946619Y-75294554D01*
X144024999Y-75304873D01*
X144025000Y-75304873D01*
X144025001Y-75304873D01*
X144102272Y-75294700D01*
X144181762Y-75284235D01*
X144253049Y-75254706D01*
X144322516Y-75247238D01*
X144384995Y-75278513D01*
X144420648Y-75338601D01*
X144424500Y-75369268D01*
X144424500Y-79288506D01*
X144404815Y-79355545D01*
X144388181Y-79376187D01*
X144049554Y-79714814D01*
X143988231Y-79748299D01*
X143961873Y-79751133D01*
X143495383Y-79751133D01*
X143428344Y-79731448D01*
X143397007Y-79702619D01*
X143355367Y-79648352D01*
X143355366Y-79648351D01*
X143229925Y-79552097D01*
X143165260Y-79525312D01*
X143083846Y-79491589D01*
X143083844Y-79491588D01*
X142927085Y-79470951D01*
X142927083Y-79470951D01*
X142770323Y-79491588D01*
X142770321Y-79491589D01*
X142624244Y-79552096D01*
X142498802Y-79648351D01*
X142402547Y-79773793D01*
X142342040Y-79919870D01*
X142342039Y-79919872D01*
X142321402Y-80076631D01*
X142321402Y-80076634D01*
X142342039Y-80233393D01*
X142342040Y-80233395D01*
X142391626Y-80353105D01*
X142401957Y-80378047D01*
X142409426Y-80447517D01*
X142378151Y-80509996D01*
X142318062Y-80545648D01*
X142287396Y-80549500D01*
X141629448Y-80549500D01*
X141591234Y-80559739D01*
X141553019Y-80569979D01*
X141553018Y-80569980D01*
X141498999Y-80601167D01*
X141499000Y-80601168D01*
X141484497Y-80609541D01*
X141055149Y-81038888D01*
X140993826Y-81072373D01*
X140951283Y-81074146D01*
X140852224Y-81061105D01*
X140852222Y-81061105D01*
X140695462Y-81081742D01*
X140695460Y-81081743D01*
X140549380Y-81142251D01*
X140443060Y-81223834D01*
X140377891Y-81249028D01*
X140309446Y-81234989D01*
X140259457Y-81186175D01*
X140243575Y-81125440D01*
X140243940Y-79001100D01*
X141192809Y-79001100D01*
X141213446Y-79157859D01*
X141213447Y-79157861D01*
X141273955Y-79303940D01*
X141370209Y-79429381D01*
X141495650Y-79525635D01*
X141641729Y-79586143D01*
X141720110Y-79596462D01*
X141798490Y-79606781D01*
X141798491Y-79606781D01*
X141798492Y-79606781D01*
X141850745Y-79599901D01*
X141955253Y-79586143D01*
X142101332Y-79525635D01*
X142226773Y-79429381D01*
X142323027Y-79303940D01*
X142383535Y-79157861D01*
X142404173Y-79001099D01*
X142383535Y-78844337D01*
X142323027Y-78698258D01*
X142226773Y-78572817D01*
X142101332Y-78476563D01*
X141955253Y-78416055D01*
X141955251Y-78416054D01*
X141798492Y-78395417D01*
X141798490Y-78395417D01*
X141641730Y-78416054D01*
X141641728Y-78416055D01*
X141495651Y-78476562D01*
X141370209Y-78572817D01*
X141273954Y-78698259D01*
X141213447Y-78844336D01*
X141213446Y-78844338D01*
X141192809Y-79001097D01*
X141192809Y-79001100D01*
X140243940Y-79001100D01*
X140247486Y-58372157D01*
X141238848Y-58372157D01*
X141259130Y-58578089D01*
X141259131Y-58578091D01*
X141319199Y-58776111D01*
X141416746Y-58958607D01*
X141416748Y-58958609D01*
X141548020Y-59118567D01*
X141643786Y-59197159D01*
X141707981Y-59249842D01*
X141890477Y-59347389D01*
X142088497Y-59407457D01*
X142088496Y-59407457D01*
X142106960Y-59409275D01*
X142294431Y-59427740D01*
X142500365Y-59407457D01*
X142698385Y-59347389D01*
X142880881Y-59249842D01*
X143040841Y-59118567D01*
X143172116Y-58958607D01*
X143269663Y-58776111D01*
X143329731Y-58578091D01*
X143350014Y-58372157D01*
X143329731Y-58166223D01*
X143269663Y-57968203D01*
X143172116Y-57785707D01*
X143119836Y-57722003D01*
X143040841Y-57625746D01*
X142923108Y-57529126D01*
X142880881Y-57494472D01*
X142698385Y-57396925D01*
X142500365Y-57336857D01*
X142500363Y-57336856D01*
X142500365Y-57336856D01*
X142294431Y-57316574D01*
X142088498Y-57336856D01*
X141890474Y-57396926D01*
X141780329Y-57455800D01*
X141707981Y-57494472D01*
X141707979Y-57494473D01*
X141707978Y-57494474D01*
X141548020Y-57625746D01*
X141416748Y-57785704D01*
X141319200Y-57968200D01*
X141259130Y-58166224D01*
X141238848Y-58372157D01*
X140247486Y-58372157D01*
X140248319Y-53527004D01*
X144161741Y-53527004D01*
X144182378Y-53683763D01*
X144182379Y-53683765D01*
X144242887Y-53829844D01*
X144339141Y-53955285D01*
X144464582Y-54051539D01*
X144610661Y-54112047D01*
X144689042Y-54122366D01*
X144767422Y-54132685D01*
X144767423Y-54132685D01*
X144767424Y-54132685D01*
X144819677Y-54125805D01*
X144924185Y-54112047D01*
X145070264Y-54051539D01*
X145195705Y-53955285D01*
X145291959Y-53829844D01*
X145352467Y-53683765D01*
X145373105Y-53527003D01*
X145352467Y-53370241D01*
X145291959Y-53224162D01*
X145195705Y-53098721D01*
X145070264Y-53002467D01*
X144924185Y-52941959D01*
X144924183Y-52941958D01*
X144767424Y-52921321D01*
X144767422Y-52921321D01*
X144610662Y-52941958D01*
X144610660Y-52941959D01*
X144464583Y-53002466D01*
X144339141Y-53098721D01*
X144242886Y-53224163D01*
X144182379Y-53370240D01*
X144182378Y-53370242D01*
X144161741Y-53527001D01*
X144161741Y-53527004D01*
X140248319Y-53527004D01*
X140249205Y-48373978D01*
X140268901Y-48306943D01*
X140321713Y-48261197D01*
X140373205Y-48250000D01*
X148755500Y-48250000D01*
X148822539Y-48269685D01*
G37*
%TD.AperFunction*%
%TA.AperFunction,Conductor*%
G36*
X145280703Y-69251525D02*
G01*
X145287167Y-69257544D01*
X145878413Y-69848789D01*
X146363181Y-70333557D01*
X146396666Y-70394880D01*
X146399500Y-70421238D01*
X146399500Y-76538284D01*
X146379815Y-76605323D01*
X146327011Y-76651078D01*
X146257853Y-76661022D01*
X146200015Y-76636661D01*
X146152841Y-76600464D01*
X146006762Y-76539956D01*
X146006760Y-76539955D01*
X145850001Y-76519318D01*
X145849999Y-76519318D01*
X145693239Y-76539955D01*
X145693237Y-76539956D01*
X145547160Y-76600463D01*
X145421718Y-76696718D01*
X145325463Y-76822160D01*
X145314061Y-76849688D01*
X145270220Y-76904092D01*
X145203925Y-76926156D01*
X145136226Y-76908876D01*
X145088616Y-76857739D01*
X145075500Y-76802235D01*
X145075500Y-69345238D01*
X145095185Y-69278199D01*
X145147989Y-69232444D01*
X145217147Y-69222500D01*
X145280703Y-69251525D01*
G37*
%TD.AperFunction*%
%TA.AperFunction,Conductor*%
G36*
X152430850Y-55145185D02*
G01*
X152451492Y-55161819D01*
X153138181Y-55848508D01*
X153171666Y-55909831D01*
X153174500Y-55936189D01*
X153174500Y-57150781D01*
X153154815Y-57217820D01*
X153102011Y-57263575D01*
X153032853Y-57273519D01*
X152969297Y-57244494D01*
X152947399Y-57219673D01*
X152934553Y-57200448D01*
X152868230Y-57156132D01*
X152868229Y-57156131D01*
X152809752Y-57144500D01*
X152809748Y-57144500D01*
X152509512Y-57144500D01*
X152506735Y-57144318D01*
X152493265Y-57144318D01*
X152490488Y-57144500D01*
X147751585Y-57144500D01*
X147684546Y-57124815D01*
X147638791Y-57072011D01*
X147628847Y-57002853D01*
X147657872Y-56939297D01*
X147663904Y-56932819D01*
X148234904Y-56361819D01*
X148296227Y-56328334D01*
X148322585Y-56325500D01*
X150619077Y-56325500D01*
X150686116Y-56345185D01*
X150706758Y-56361819D01*
X150794800Y-56449861D01*
X150794801Y-56449862D01*
X150855404Y-56510465D01*
X150855406Y-56510466D01*
X150855410Y-56510469D01*
X150928798Y-56552839D01*
X150929628Y-56553318D01*
X151012413Y-56575500D01*
X151681701Y-56575500D01*
X151748740Y-56595185D01*
X151780076Y-56624013D01*
X151821718Y-56678282D01*
X151947159Y-56774536D01*
X152093238Y-56835044D01*
X152171619Y-56845363D01*
X152249999Y-56855682D01*
X152250000Y-56855682D01*
X152250001Y-56855682D01*
X152302254Y-56848802D01*
X152406762Y-56835044D01*
X152552841Y-56774536D01*
X152678282Y-56678282D01*
X152774536Y-56552841D01*
X152835044Y-56406762D01*
X152855682Y-56250000D01*
X152835044Y-56093238D01*
X152774536Y-55947159D01*
X152678282Y-55821718D01*
X152552841Y-55725464D01*
X152406762Y-55664956D01*
X152406760Y-55664955D01*
X152250001Y-55644318D01*
X152249999Y-55644318D01*
X152100391Y-55664014D01*
X152031356Y-55653248D01*
X151979100Y-55606868D01*
X151960215Y-55539599D01*
X151961253Y-55525089D01*
X151961253Y-55524998D01*
X151940615Y-55368239D01*
X151940613Y-55368234D01*
X151911088Y-55296952D01*
X151903619Y-55227483D01*
X151934895Y-55165004D01*
X151994984Y-55129352D01*
X152025649Y-55125500D01*
X152363811Y-55125500D01*
X152430850Y-55145185D01*
G37*
%TD.AperFunction*%
%TD*%
M02*
