M48
; DRILL file {KiCad 8.0.1} date 2024-07-16T16:14:48-0400
; FORMAT={-:-/ absolute / inch / decimal}
; #@! TF.CreationDate,2024-07-16T16:14:48-04:00
; #@! TF.GenerationSoftware,Kicad,Pcbnew,8.0.1
; #@! TF.FileFunction,Plated,1,4,PTH
FMAT,2
INCH
; #@! TA.AperFunction,Plated,PTH,ComponentDrill
T1C0.0079
; #@! TA.AperFunction,Plated,PTH,ComponentDrill
T2C0.0118
; #@! TA.AperFunction,Plated,PTH,ViaDrill
T3C0.0157
; #@! TA.AperFunction,Plated,PTH,ComponentDrill
T4C0.0394
; #@! TA.AperFunction,Plated,PTH,ComponentDrill
T5C0.0472
%
G90
G05
T1
X5.9646Y-3.5827
X5.9646Y-3.6614
X6.0433Y-3.5827
X6.0433Y-3.6614
T2
X6.0191Y-2.7266
X6.0191Y-2.7659
X6.0486Y-2.7463
X6.0781Y-2.7266
X6.0781Y-2.7659
T3
X5.5413Y-1.9685
X5.5413Y-2.1555
X5.5413Y-2.2441
X5.5413Y-2.5492
X5.5413Y-4.2224
X5.5512Y-1.9193
X5.5512Y-2.687
X5.5512Y-2.8051
X5.5512Y-2.9626
X5.5512Y-3.7598
X5.561Y-3.1791
X5.5826Y-3.1103
X5.5906Y-1.9193
X5.5999Y-1.9778
X5.6004Y-2.2146
X5.6004Y-2.7461
X5.6102Y-3.7648
X5.6299Y-1.9193
X5.6299Y-3.878
X5.6299Y-3.9272
X5.6398Y-3.2283
X5.6693Y-1.9193
X5.6693Y-2.2441
X5.6693Y-2.9429
X5.6693Y-2.9823
X5.6791Y-3.2087
X5.6978Y-4.1819
X5.6988Y-3.2844
X5.6995Y-2.1074
X5.7087Y-1.9193
X5.7092Y-3.3558
X5.7136Y-3.4941
X5.7185Y-3.2087
X5.7212Y-3.3183
X5.7313Y-3.6731
X5.7324Y-3.5424
X5.7367Y-3.8386
X5.7367Y-3.9173
X5.7382Y-2.8248
X5.7382Y-2.8839
X5.74Y-4.2252
X5.7421Y-3.0364
X5.748Y-1.9193
X5.7677Y-2.1457
X5.7731Y-3.4601
X5.7776Y-1.9783
X5.7776Y-2.3819
X5.7874Y-1.9193
X5.8021Y-3.8739
X5.8197Y-3.303
X5.8198Y-3.2628
X5.8268Y-1.939
X5.8337Y-3.5675
X5.8366Y-2.9724
X5.8465Y-2.185
X5.8465Y-2.313
X5.8465Y-2.8543
X5.8474Y-2.2756
X5.8522Y-4.184
X5.8542Y-3.2437
X5.8594Y-3.6246
X5.8661Y-1.939
X5.8696Y-3.6767
X5.8719Y-2.7802
X5.8816Y-3.5164
X5.8821Y-3.579
X5.8847Y-2.9715
X5.885Y-3.8978
X5.8858Y-3.8091
X5.8858Y-3.9862
X5.9055Y-1.939
X5.9147Y-3.3566
X5.9154Y-2.126
X5.9154Y-2.8937
X5.9154Y-4.0157
X5.9272Y-3.6882
X5.935Y-3.9862
X5.9449Y-1.939
X5.9547Y-2.9626
X5.9547Y-3.0413
X5.9582Y-3.3384
X5.9589Y-2.186
X5.9646Y-2.3228
X5.9648Y-2.8514
X5.9744Y-3.188
X5.9843Y-1.939
X5.9843Y-4.0157
X5.9843Y-3.8671
X5.9941Y-2.2146
X5.9944Y-3.354
X5.9961Y-3.2608
X6.0039Y-2.2736
X6.0135Y-3.1925
X6.0138Y-3.9163
X6.0138Y-3.9567
X6.0179Y-3.7401
X6.0236Y-1.9193
X6.0335Y-2.1358
X6.0361Y-3.8839
X6.039Y-3.5031
X6.0413Y-3.2204
X6.0433Y-1.9587
X6.0433Y-2.3228
X6.0531Y-2.9823
X6.0531Y-3.7795
X6.0551Y-3.334
X6.0728Y-2.9035
X6.0728Y-3.1201
X6.0771Y-2.4803
X6.0771Y-2.6183
X6.0779Y-2.5224
X6.0781Y-3.3999
X6.0811Y-3.074
X6.0827Y-2.185
X6.0827Y-2.2441
X6.084Y-2.5691
X6.0925Y-2.3425
X6.0936Y-3.5405
X6.0943Y-1.9193
X6.1024Y-3.8878
X6.1044Y-3.7096
X6.1079Y-3.0452
X6.1122Y-2.1063
X6.1176Y-3.4446
X6.122Y-2.2835
X6.1319Y-2.2343
X6.1375Y-3.0175
X6.1614Y-2.1358
X6.1614Y-2.3228
X6.1669Y-2.8518
X6.1713Y-1.9193
X6.1713Y-2.2736
X6.177Y-2.8051
X6.1811Y-1.9587
X6.1811Y-2.6673
X6.1811Y-3.1201
X6.1811Y-3.1988
X6.1811Y-3.2677
X6.1855Y-3.4449
X6.1909Y-3.4941
X6.1909Y-4.0059
X6.1968Y-2.4946
X6.1968Y-2.5358
X6.1968Y-2.5769
X6.1968Y-2.6181
X6.2106Y-2.0965
X6.2106Y-2.1752
X6.2106Y-3.3848
X6.2402Y-1.9193
X6.25Y-3.3661
X6.25Y-3.4055
X6.25Y-3.4449
X6.25Y-3.4843
X6.25Y-3.5236
X6.25Y-3.563
X6.25Y-3.6024
X6.25Y-3.6417
X6.25Y-3.6811
X6.25Y-3.7205
X6.25Y-3.7598
X6.25Y-3.7992
X6.25Y-3.8386
X6.25Y-3.9272
X6.25Y-3.9665
X6.25Y-4.0059
X6.25Y-4.0453
X6.25Y-4.0846
X6.25Y-4.124
X6.25Y-4.1634
X6.25Y-4.2028
X6.2697Y-1.9783
X6.2697Y-2.0571
X6.2697Y-2.1358
X6.2697Y-2.2146
X6.2697Y-2.2933
X6.2697Y-2.372
X6.2697Y-2.4409
X6.2697Y-2.5098
X6.2697Y-2.5886
X6.2697Y-2.6673
X6.2697Y-2.8248
X6.2697Y-3.0906
X6.2697Y-3.2579
X6.2795Y-1.9193
X6.3189Y-1.9193
X6.3287Y-2.0177
X6.3287Y-2.0965
X6.3287Y-2.1752
X6.3287Y-2.2539
X6.3287Y-2.3327
X6.3287Y-2.4114
X6.3287Y-2.4803
X6.3287Y-2.5492
X6.3287Y-2.628
X6.3287Y-2.7067
X6.3386Y-4.2126
X6.3583Y-1.9193
X6.3878Y-1.9783
X6.3878Y-2.0571
X6.3878Y-2.1358
X6.3878Y-2.2146
X6.3878Y-2.2933
X6.3878Y-2.372
X6.3878Y-2.4409
X6.3878Y-2.5098
X6.3878Y-2.5886
X6.3878Y-2.6673
T4
X5.6004Y-3.3154
X5.6004Y-3.4154
X5.6004Y-3.5154
X5.6004Y-3.6154
X5.6021Y-2.2981
X5.6021Y-2.3981
X5.6021Y-2.4981
X6.3386Y-2.8051
X6.3386Y-2.9051
X6.3386Y-3.0051
X6.3386Y-3.1051
X6.3386Y-3.2559
X6.3386Y-3.3559
X6.3386Y-3.4559
X6.3386Y-3.5559
X6.3386Y-3.7077
X6.3386Y-3.8077
X6.3386Y-3.9077
X6.3386Y-4.0077
X6.3386Y-4.1077
T5
X5.9329Y-4.1601
X6.0595Y-4.1601
X6.1861Y-4.1601
M30
