%TF.GenerationSoftware,KiCad,Pcbnew,8.0.1*%
%TF.CreationDate,2024-07-18T13:50:24-04:00*%
%TF.ProjectId,Tiny4FSK,54696e79-3446-4534-9b2e-6b696361645f,rev?*%
%TF.SameCoordinates,Original*%
%TF.FileFunction,Copper,L4,Bot*%
%TF.FilePolarity,Positive*%
%FSLAX46Y46*%
G04 Gerber Fmt 4.6, Leading zero omitted, Abs format (unit mm)*
G04 Created by KiCad (PCBNEW 8.0.1) date 2024-07-18 13:50:24*
%MOMM*%
%LPD*%
G01*
G04 APERTURE LIST*
G04 Aperture macros list*
%AMRoundRect*
0 Rectangle with rounded corners*
0 $1 Rounding radius*
0 $2 $3 $4 $5 $6 $7 $8 $9 X,Y pos of 4 corners*
0 Add a 4 corners polygon primitive as box body*
4,1,4,$2,$3,$4,$5,$6,$7,$8,$9,$2,$3,0*
0 Add four circle primitives for the rounded corners*
1,1,$1+$1,$2,$3*
1,1,$1+$1,$4,$5*
1,1,$1+$1,$6,$7*
1,1,$1+$1,$8,$9*
0 Add four rect primitives between the rounded corners*
20,1,$1+$1,$2,$3,$4,$5,0*
20,1,$1+$1,$4,$5,$6,$7,0*
20,1,$1+$1,$6,$7,$8,$9,0*
20,1,$1+$1,$8,$9,$2,$3,0*%
G04 Aperture macros list end*
%TA.AperFunction,ComponentPad*%
%ADD10O,1.000000X2.100000*%
%TD*%
%TA.AperFunction,ComponentPad*%
%ADD11O,1.000000X1.800000*%
%TD*%
%TA.AperFunction,ComponentPad*%
%ADD12R,1.700000X1.700000*%
%TD*%
%TA.AperFunction,ComponentPad*%
%ADD13O,1.700000X1.700000*%
%TD*%
%TA.AperFunction,HeatsinkPad*%
%ADD14C,0.500000*%
%TD*%
%TA.AperFunction,HeatsinkPad*%
%ADD15R,2.500000X2.500000*%
%TD*%
%TA.AperFunction,ComponentPad*%
%ADD16C,0.600000*%
%TD*%
%TA.AperFunction,SMDPad,CuDef*%
%ADD17R,2.800000X2.300000*%
%TD*%
%TA.AperFunction,ComponentPad*%
%ADD18C,2.000000*%
%TD*%
%TA.AperFunction,SMDPad,CuDef*%
%ADD19RoundRect,0.500000X0.500000X2.000000X-0.500000X2.000000X-0.500000X-2.000000X0.500000X-2.000000X0*%
%TD*%
%TA.AperFunction,SMDPad,CuDef*%
%ADD20R,2.340000X3.960000*%
%TD*%
%TA.AperFunction,SMDPad,CuDef*%
%ADD21R,5.080000X3.960000*%
%TD*%
%TA.AperFunction,SMDPad,CuDef*%
%ADD22R,2.400000X0.740000*%
%TD*%
%TA.AperFunction,ViaPad*%
%ADD23C,0.800000*%
%TD*%
%TA.AperFunction,ViaPad*%
%ADD24C,0.600000*%
%TD*%
%TA.AperFunction,Conductor*%
%ADD25C,0.200000*%
%TD*%
%TA.AperFunction,Conductor*%
%ADD26C,0.250000*%
%TD*%
%TA.AperFunction,Conductor*%
%ADD27C,0.750000*%
%TD*%
G04 APERTURE END LIST*
D10*
%TO.P,J7,S1,SHIELD*%
%TO.N,Net-(J7-SHIELD)*%
X128356776Y-100905139D03*
D11*
X128356776Y-105085139D03*
D10*
X136996776Y-100905139D03*
D11*
X136996776Y-105085139D03*
%TD*%
D12*
%TO.P,J5,1,Pin_1*%
%TO.N,D+*%
X136241300Y-87746215D03*
D13*
%TO.P,J5,2,Pin_2*%
%TO.N,D-*%
X133701300Y-87746215D03*
%TO.P,J5,3,Pin_3*%
%TO.N,+3.3V*%
X131161300Y-87746215D03*
%TO.P,J5,4,Pin_4*%
%TO.N,Earth*%
X128621300Y-87746215D03*
%TD*%
D12*
%TO.P,J4,1,Pin_1*%
%TO.N,D+*%
X142250000Y-84210000D03*
D13*
%TO.P,J4,2,Pin_2*%
%TO.N,D-*%
X142250000Y-86750000D03*
%TO.P,J4,3,Pin_3*%
%TO.N,+3.3V*%
X142250000Y-89290000D03*
%TO.P,J4,4,Pin_4*%
%TO.N,Earth*%
X142250000Y-91830000D03*
%TD*%
D12*
%TO.P,J3,1,Pin_1*%
%TO.N,+3.3V*%
X162250000Y-82700000D03*
D13*
%TO.P,J3,2,Pin_2*%
%TO.N,SDA*%
X162250000Y-85240000D03*
%TO.P,J3,3,Pin_3*%
%TO.N,SCL*%
X162250000Y-87780000D03*
%TO.P,J3,4,Pin_4*%
%TO.N,Earth*%
X162250000Y-90320000D03*
%TD*%
D14*
%TO.P,U6,21,GND_2*%
%TO.N,Earth*%
X151500000Y-91000000D03*
X151500000Y-93000000D03*
D15*
X152500000Y-92000000D03*
D14*
X153500000Y-91000000D03*
X153500000Y-93000000D03*
%TD*%
D12*
%TO.P,J1,1,Pin_1*%
%TO.N,+BATT*%
X142294431Y-63452157D03*
D13*
%TO.P,J1,2,Pin_2*%
%TO.N,Earth*%
X142294431Y-60912157D03*
%TO.P,J1,3,Pin_3*%
%TO.N,+3.3V*%
X142294431Y-58372157D03*
%TD*%
D16*
%TO.P,U3,11,PAD*%
%TO.N,Earth*%
X154385000Y-69255000D03*
X152885000Y-69255000D03*
X153635000Y-69755000D03*
D17*
X153635000Y-69755000D03*
D16*
X154385000Y-70255000D03*
X152885000Y-70255000D03*
%TD*%
D18*
%TO.P,AE2,1,RF*%
%TO.N,Net-(AE2-RF)*%
X153911023Y-105665790D03*
%TO.P,AE2,2,Shield*%
%TO.N,Earth*%
X150696023Y-105665790D03*
D19*
X150696023Y-105665790D03*
D18*
X157126023Y-105665790D03*
D19*
X157126023Y-105665790D03*
%TD*%
D12*
%TO.P,J2,1,Pin_1*%
%TO.N,D12*%
X162250000Y-71250000D03*
D13*
%TO.P,J2,2,Pin_2*%
%TO.N,D13*%
X162250000Y-73790000D03*
%TO.P,J2,3,Pin_3*%
%TO.N,A1*%
X162250000Y-76330000D03*
%TO.P,J2,4,Pin_4*%
%TO.N,A2*%
X162250000Y-78870000D03*
%TD*%
D12*
%TO.P,J6,1,Pin_1*%
%TO.N,+3.3V*%
X162250000Y-94175000D03*
D13*
%TO.P,J6,2,Pin_2*%
%TO.N,MOSI*%
X162250000Y-96715000D03*
%TO.P,J6,3,Pin_3*%
%TO.N,MISO*%
X162250000Y-99255000D03*
%TO.P,J6,4,Pin_4*%
%TO.N,SCK*%
X162250000Y-101795000D03*
%TO.P,J6,5,Pin_5*%
%TO.N,Earth*%
X162250000Y-104335000D03*
%TD*%
D20*
%TO.P,BT1,2,-*%
%TO.N,Earth*%
X150250000Y-100750000D03*
D21*
X150250000Y-87900000D03*
%TO.P,BT1,1,+*%
%TO.N,+BATT*%
X150250000Y-59325000D03*
D20*
%TO.P,BT1,*%
%TO.N,*%
X150250000Y-46475000D03*
%TD*%
D22*
%TO.P,J8,1,Pin_1*%
%TO.N,+3.3V*%
X146750000Y-101250000D03*
%TO.P,J8,2,Pin_2*%
%TO.N,SWDIO*%
X142850000Y-101250000D03*
%TO.P,J8,3,Pin_3*%
%TO.N,Earth*%
X146750000Y-102520000D03*
%TO.P,J8,4,Pin_4*%
%TO.N,SWCLK*%
X142850000Y-102520000D03*
%TO.P,J8,5,Pin_5*%
%TO.N,Earth*%
X146750000Y-103790000D03*
%TO.P,J8,6,Pin_6*%
%TO.N,unconnected-(J8-Pin_6-Pad6)*%
X142850000Y-103790000D03*
%TO.P,J8,7,Pin_7*%
%TO.N,unconnected-(J8-Pin_7-Pad7)*%
X146750000Y-105060000D03*
%TO.P,J8,8,Pin_8*%
%TO.N,unconnected-(J8-Pin_8-Pad8)*%
X142850000Y-105060000D03*
%TO.P,J8,9,Pin_9*%
%TO.N,unconnected-(J8-Pin_9-Pad9)*%
X146750000Y-106330000D03*
%TO.P,J8,10,Pin_10*%
%TO.N,nRST*%
X142850000Y-106330000D03*
%TD*%
D23*
%TO.N,SCK*%
X148778661Y-91930002D03*
%TO.N,D12*%
X159750000Y-75155000D03*
%TO.N,SDA*%
X159648186Y-77955000D03*
%TO.N,Earth*%
X139967157Y-107782843D03*
X128750000Y-91000000D03*
X129500000Y-102750000D03*
X135750000Y-102750000D03*
X130250000Y-103750000D03*
X132750000Y-103750000D03*
X131500000Y-103750000D03*
X134000000Y-103750000D03*
X135250000Y-103750000D03*
X135257753Y-94120555D03*
X129156247Y-97211402D03*
X129192696Y-94995323D03*
X131853448Y-97080187D03*
%TO.N,D-*%
X140852223Y-81666787D03*
%TO.N,GPS_EN*%
X142927084Y-80076633D03*
X142500000Y-82025000D03*
D24*
%TO.N,Net-(J7-SHIELD)*%
X137000000Y-94500000D03*
%TO.N,Earth*%
X137250000Y-89500000D03*
X131000000Y-94750000D03*
X137750000Y-96000000D03*
D23*
%TO.N,+3.3V*%
X129900000Y-93755000D03*
D24*
%TO.N,Net-(J7-SHIELD)*%
X137000000Y-99000000D03*
%TO.N,Earth*%
X137250000Y-90750000D03*
D23*
%TO.N,D-*%
X132000000Y-102050000D03*
D24*
%TO.N,Net-(J7-CC1)*%
X133000000Y-98250000D03*
D23*
%TO.N,D+*%
X133052482Y-101849196D03*
D24*
%TO.N,Net-(J7-CC1)*%
X131081765Y-101483235D03*
D23*
%TO.N,USB*%
X127852305Y-98333575D03*
X131880025Y-98380025D03*
D24*
%TO.N,Earth*%
X137131627Y-92455116D03*
X135250000Y-98250000D03*
X127750000Y-89500000D03*
D23*
X148636558Y-56728370D03*
X157000000Y-67750000D03*
X158750000Y-93500000D03*
X146750000Y-54750000D03*
X150250000Y-73500000D03*
X149145000Y-70617500D03*
X154100761Y-73460013D03*
X140750000Y-64750000D03*
X155250000Y-53500000D03*
X148500000Y-72500000D03*
X146750000Y-60500000D03*
X158750000Y-89500000D03*
X150000000Y-49250000D03*
X149393582Y-89315344D03*
X157398495Y-66500000D03*
X156500000Y-59000000D03*
X157250000Y-49750000D03*
X143000000Y-98500000D03*
X145750000Y-71500000D03*
X162250000Y-64750000D03*
X161500000Y-48750000D03*
X158750000Y-91500000D03*
X162250000Y-59250000D03*
X140750000Y-57000000D03*
X163750000Y-58250000D03*
X156750000Y-57750000D03*
X143517594Y-75736303D03*
X147000000Y-48750000D03*
X163750000Y-65750000D03*
X156640503Y-72436099D03*
X157398495Y-63363147D03*
X140750000Y-50000000D03*
X156500000Y-54250000D03*
X142250000Y-69750000D03*
X162250000Y-63000000D03*
X144000000Y-48750000D03*
X142000000Y-48750000D03*
X145712500Y-97500000D03*
X158750000Y-101750000D03*
X152750000Y-100500000D03*
X145712500Y-99500000D03*
X143000000Y-99750000D03*
X141000000Y-71250000D03*
X141000000Y-75250000D03*
X145750000Y-72750000D03*
X141000000Y-95500000D03*
X163750000Y-63750000D03*
X153250000Y-54250000D03*
X162250000Y-53250000D03*
X163750000Y-62000000D03*
X153000000Y-48750000D03*
X141051040Y-80478020D03*
X141000000Y-48750000D03*
X158750000Y-95500000D03*
X148000000Y-49250000D03*
X155500000Y-58000000D03*
X154500000Y-57000000D03*
X158750000Y-87500000D03*
X145575000Y-93296174D03*
X157750000Y-53250000D03*
X143000000Y-48750000D03*
X151000000Y-49250000D03*
X141221524Y-55000270D03*
X151338438Y-84795769D03*
X157398495Y-65454381D03*
X162250000Y-51250000D03*
X163750000Y-60250000D03*
X156895000Y-71250000D03*
X162250000Y-57250000D03*
X155750000Y-56750000D03*
X157750000Y-55250000D03*
X146750000Y-50250000D03*
X140750000Y-107250000D03*
X148750000Y-75000000D03*
X153750000Y-96000000D03*
X158750000Y-85500000D03*
X158750000Y-105750000D03*
X162250000Y-68500000D03*
X149000000Y-49250000D03*
X141000000Y-68250000D03*
X150206745Y-101598744D03*
X162250000Y-107250000D03*
X153750000Y-75750000D03*
X144000000Y-57000000D03*
X154250000Y-79250000D03*
X151250000Y-77250000D03*
X154000000Y-48750000D03*
X163750000Y-50250000D03*
X153317735Y-98651785D03*
X163750000Y-52250000D03*
X150924913Y-100777203D03*
X157398495Y-64408764D03*
X152000000Y-49250000D03*
X145246210Y-81889939D03*
X150217626Y-99825086D03*
X163750000Y-56250000D03*
X150250000Y-54000000D03*
X162250000Y-61250000D03*
X162250000Y-66750000D03*
X158000000Y-48750000D03*
X155386182Y-87492574D03*
X149548424Y-100809847D03*
X157000000Y-48750000D03*
X146000000Y-48750000D03*
X158750000Y-103750000D03*
X162250000Y-55250000D03*
X154500000Y-55500000D03*
X155000000Y-98750000D03*
X163750000Y-54250000D03*
X163750000Y-67750000D03*
X145000000Y-48750000D03*
X149500000Y-96750000D03*
%TO.N,+3.3V*%
X154377605Y-64069111D03*
X147974083Y-76365498D03*
X154532500Y-65255000D03*
X148646023Y-106273570D03*
X154357500Y-63000000D03*
X153390002Y-88978107D03*
X152250000Y-74750000D03*
X145850000Y-77125000D03*
X154357500Y-66505000D03*
X144767423Y-53527003D03*
X141798491Y-79001099D03*
X144000000Y-81947607D03*
X154459160Y-78079760D03*
X157250000Y-88750000D03*
X157000000Y-81250000D03*
X157112500Y-87500000D03*
X150233148Y-85258148D03*
X154750000Y-59500000D03*
X151506122Y-72426524D03*
X147372669Y-98397974D03*
%TO.N,GPIO1*%
X146637653Y-87887653D03*
X148088612Y-90479669D03*
%TO.N,RF_RST*%
X145575000Y-89646586D03*
X149040055Y-90787500D03*
%TO.N,MISO*%
X149087390Y-93388488D03*
X152257005Y-85191040D03*
%TO.N,MOSI*%
X152750000Y-99475000D03*
X159776427Y-99538983D03*
%TO.N,RF_SS*%
X150549890Y-93679485D03*
X153798960Y-84682384D03*
%TO.N,SDA*%
X157000000Y-83000000D03*
X157750153Y-85974847D03*
%TO.N,SCL*%
X141746063Y-49911322D03*
X155141298Y-77348533D03*
X157000000Y-79250000D03*
%TO.N,SWDIO*%
X147822340Y-82874802D03*
%TO.N,SWCLK*%
X148696470Y-82389104D03*
%TO.N,nRST*%
X147820789Y-83897149D03*
X142500000Y-95625000D03*
%TO.N,A1*%
X144749134Y-83464176D03*
%TO.N,A2*%
X145319484Y-84285581D03*
%TO.N,D-*%
X153449585Y-81798519D03*
%TO.N,SUCCESS*%
X145125000Y-88750000D03*
X144725178Y-106221176D03*
%TO.N,ERROR*%
X145794878Y-107319877D03*
X152000354Y-98225000D03*
X152855075Y-94998402D03*
X154777739Y-89928107D03*
%TO.N,SDN*%
X155052263Y-94223043D03*
X154382819Y-86357513D03*
%TO.N,D13*%
X152299750Y-82824750D03*
%TO.N,D12*%
X155893639Y-76643639D03*
%TO.N,+BATT*%
X148500000Y-58750000D03*
X151500000Y-59000000D03*
X148525000Y-57799906D03*
X152500000Y-57750000D03*
X144025000Y-74699191D03*
%TO.N,TXD*%
X151749999Y-80975000D03*
X152250000Y-56250000D03*
%TO.N,RXD*%
X151355571Y-55525000D03*
X152743299Y-81090588D03*
%TO.N,GPS_EN*%
X145012653Y-85237347D03*
X153500000Y-58250000D03*
%TD*%
D25*
%TO.N,D+*%
X137625480Y-86362035D02*
X138625480Y-86362035D01*
X136241300Y-87746215D02*
X137625480Y-86362035D01*
D26*
%TO.N,GPIO1*%
X146637653Y-89887653D02*
X146637653Y-87887653D01*
X147229669Y-90479669D02*
X146637653Y-89887653D01*
X148088612Y-90479669D02*
X147229669Y-90479669D01*
%TO.N,RF_RST*%
X146187653Y-90074049D02*
X146002463Y-90074049D01*
X146002463Y-90074049D02*
X145575000Y-89646586D01*
X147318606Y-91205002D02*
X146187653Y-90074049D01*
X148622553Y-91205002D02*
X147318606Y-91205002D01*
X149040055Y-90787500D02*
X148622553Y-91205002D01*
%TO.N,SCK*%
X162250000Y-100921840D02*
X162250000Y-101795000D01*
X156089288Y-98813983D02*
X160142143Y-98813983D01*
X154775305Y-97500000D02*
X156089288Y-98813983D01*
X151650049Y-97550000D02*
X151700049Y-97500000D01*
X160142143Y-98813983D02*
X162250000Y-100921840D01*
X148362390Y-94487390D02*
X151425000Y-97550000D01*
X151700049Y-97500000D02*
X154775305Y-97500000D01*
X148362390Y-92346273D02*
X148362390Y-94487390D01*
X148778661Y-91930002D02*
X148362390Y-92346273D01*
X151425000Y-97550000D02*
X151650049Y-97550000D01*
%TO.N,SDA*%
X157725000Y-82275000D02*
X157000000Y-83000000D01*
X157725000Y-78547792D02*
X157725000Y-82275000D01*
X159373186Y-77680000D02*
X158592792Y-77680000D01*
X158592792Y-77680000D02*
X157725000Y-78547792D01*
X159648186Y-77955000D02*
X159373186Y-77680000D01*
%TO.N,D12*%
X157107278Y-75430000D02*
X155893639Y-76643639D01*
X159750000Y-75155000D02*
X159475000Y-75430000D01*
X161000000Y-72500000D02*
X162250000Y-71250000D01*
X160025000Y-75430000D02*
X160416514Y-75430000D01*
X159750000Y-75155000D02*
X160025000Y-75430000D01*
X159475000Y-75430000D02*
X157107278Y-75430000D01*
X160416514Y-75430000D02*
X161000000Y-74846514D01*
X161000000Y-74846514D02*
X161000000Y-72500000D01*
%TO.N,MOSI*%
X159712444Y-99475000D02*
X152750000Y-99475000D01*
X159776427Y-99538983D02*
X159712444Y-99475000D01*
%TO.N,SCL*%
X157000000Y-78636396D02*
X157000000Y-79250000D01*
X160593604Y-77230000D02*
X158406396Y-77230000D01*
X161500000Y-80500000D02*
X161075000Y-80075000D01*
X161075000Y-77711396D02*
X160593604Y-77230000D01*
X163425000Y-81525000D02*
X162400000Y-80500000D01*
X163425000Y-86605000D02*
X163425000Y-81525000D01*
X158406396Y-77230000D02*
X157000000Y-78636396D01*
X162400000Y-80500000D02*
X161500000Y-80500000D01*
X161075000Y-80075000D02*
X161075000Y-77711396D01*
X162250000Y-87780000D02*
X163425000Y-86605000D01*
D25*
%TO.N,D+*%
X143250000Y-83210000D02*
X142250000Y-84210000D01*
X143000000Y-81250000D02*
X143250000Y-81500000D01*
X142258960Y-81250000D02*
X143000000Y-81250000D01*
X143250000Y-81500000D02*
X143250000Y-83210000D01*
X140650000Y-82858960D02*
X142258960Y-81250000D01*
X140407273Y-86362035D02*
X140650000Y-86119308D01*
X138625480Y-86362035D02*
X140407273Y-86362035D01*
X140650000Y-86119308D02*
X140650000Y-82858960D01*
D27*
%TO.N,+3.3V*%
X129900000Y-93755000D02*
X129900000Y-89007515D01*
D26*
%TO.N,D-*%
X132000000Y-101402105D02*
X133692500Y-99709605D01*
%TO.N,D+*%
X136241300Y-87758700D02*
X136241300Y-87746215D01*
X134300000Y-89700000D02*
X136241300Y-87758700D01*
X134300000Y-100601678D02*
X134300000Y-89700000D01*
X133052482Y-101849196D02*
X134300000Y-100601678D01*
%TO.N,D-*%
X132000000Y-102050000D02*
X132000000Y-101402105D01*
X133692500Y-99709605D02*
X133692500Y-87755015D01*
X133692500Y-87755015D02*
X133701300Y-87746215D01*
D27*
%TO.N,+3.3V*%
X129900000Y-89007515D02*
X131161300Y-87746215D01*
D26*
%TO.N,SCL*%
X158123495Y-57623495D02*
X158123495Y-72963547D01*
X153500000Y-53000000D02*
X158123495Y-57623495D01*
X143911322Y-49911322D02*
X147000000Y-53000000D01*
X141746063Y-49911322D02*
X143911322Y-49911322D01*
X147000000Y-53000000D02*
X153500000Y-53000000D01*
X155141298Y-75945744D02*
X155141298Y-77348533D01*
X158123495Y-72963547D02*
X155141298Y-75945744D01*
D25*
%TO.N,D-*%
X144000000Y-85000000D02*
X142250000Y-86750000D01*
X144000000Y-83185050D02*
X144000000Y-85000000D01*
X144435050Y-82750000D02*
X144000000Y-83185050D01*
X145376100Y-82750000D02*
X144435050Y-82750000D01*
X146313050Y-81813050D02*
X145376100Y-82750000D01*
D27*
%TO.N,USB*%
X131880025Y-98380025D02*
X131833575Y-98333575D01*
X131833575Y-98333575D02*
X127852305Y-98333575D01*
%TO.N,Net-(J7-SHIELD)*%
X136125000Y-95375000D02*
X137000000Y-94500000D01*
X136125000Y-98125000D02*
X136125000Y-95375000D01*
X137000000Y-99000000D02*
X136125000Y-98125000D01*
D25*
%TO.N,D-*%
X145350000Y-80850000D02*
X146313050Y-81813050D01*
X141669010Y-80850000D02*
X145350000Y-80850000D01*
X140852223Y-81666787D02*
X141669010Y-80850000D01*
X147626100Y-80500000D02*
X146313050Y-81813050D01*
D26*
%TO.N,GPS_EN*%
X144250000Y-86000000D02*
X145012653Y-85237347D01*
X142825000Y-87925000D02*
X144250000Y-86500000D01*
X141075000Y-87325000D02*
X141675000Y-87925000D01*
X141075000Y-83035000D02*
X141075000Y-87325000D01*
X142085000Y-82025000D02*
X141075000Y-83035000D01*
X141675000Y-87925000D02*
X142825000Y-87925000D01*
X144250000Y-86500000D02*
X144250000Y-86000000D01*
X142500000Y-82025000D02*
X142085000Y-82025000D01*
X144148062Y-80076633D02*
X144750000Y-79474695D01*
X142927084Y-80076633D02*
X144148062Y-80076633D01*
D27*
%TO.N,Net-(J7-SHIELD)*%
X137000000Y-105010000D02*
X128360000Y-105010000D01*
D25*
%TO.N,Net-(J7-CC1)*%
X131081765Y-101483235D02*
X131081765Y-100168235D01*
X131081765Y-100168235D02*
X133000000Y-98250000D01*
D26*
%TO.N,GPS_EN*%
X148063604Y-54800000D02*
X144750000Y-58113604D01*
X144750000Y-58113604D02*
X144750000Y-79474695D01*
X152550000Y-54800000D02*
X148063604Y-54800000D01*
X153500000Y-55750000D02*
X152550000Y-54800000D01*
X153500000Y-58250000D02*
X153500000Y-55750000D01*
D25*
%TO.N,D-*%
X149648654Y-80500000D02*
X147626100Y-80500000D01*
X151273654Y-82125000D02*
X149648654Y-80500000D01*
X153123104Y-82125000D02*
X151273654Y-82125000D01*
X153449585Y-81798519D02*
X153123104Y-82125000D01*
D26*
%TO.N,A1*%
X157868980Y-76330000D02*
X162250000Y-76330000D01*
X155450000Y-82800305D02*
X155450000Y-78748980D01*
X152600055Y-83549750D02*
X153149804Y-83000000D01*
X155450000Y-78748980D02*
X157868980Y-76330000D01*
X151799750Y-83549750D02*
X152600055Y-83549750D01*
X149250000Y-81000000D02*
X151799750Y-83549750D01*
X147727140Y-81000000D02*
X149250000Y-81000000D01*
X144749134Y-83464176D02*
X145262964Y-83464176D01*
X145262964Y-83464176D02*
X147727140Y-81000000D01*
X155250305Y-83000000D02*
X155450000Y-82800305D01*
X153149804Y-83000000D02*
X155250305Y-83000000D01*
D27*
%TO.N,+BATT*%
X144025000Y-74699191D02*
X143500000Y-74174191D01*
X143500000Y-68000000D02*
X142294431Y-66794431D01*
X142294431Y-66794431D02*
X142294431Y-63452157D01*
X143500000Y-74174191D02*
X143500000Y-68000000D01*
D26*
%TO.N,MISO*%
X161358983Y-98363983D02*
X162250000Y-99255000D01*
X157500000Y-98000000D02*
X157863983Y-98363983D01*
X157500000Y-96000000D02*
X157500000Y-98000000D01*
X157250000Y-95750000D02*
X157500000Y-96000000D01*
X157863983Y-98363983D02*
X161358983Y-98363983D01*
%TO.N,Earth*%
X147500000Y-97500000D02*
X148275000Y-98275000D01*
X146750000Y-103790000D02*
X146750000Y-102520000D01*
X145712500Y-97500000D02*
X147500000Y-97500000D01*
X148275000Y-101945000D02*
X147700000Y-102520000D01*
X148275000Y-98275000D02*
X148275000Y-101945000D01*
X147700000Y-102520000D02*
X146750000Y-102520000D01*
%TO.N,+3.3V*%
X150500000Y-71420402D02*
X151506122Y-72426524D01*
X150500000Y-68362500D02*
X150500000Y-71420402D01*
X153607500Y-65255000D02*
X150500000Y-68362500D01*
X154532500Y-65255000D02*
X153607500Y-65255000D01*
X147372669Y-98397974D02*
X146750000Y-99020643D01*
X146750000Y-99020643D02*
X146750000Y-101250000D01*
%TO.N,MISO*%
X154700000Y-83950000D02*
X157975000Y-87225000D01*
X149087390Y-93562850D02*
X152249540Y-96725000D01*
X152257005Y-85191040D02*
X153498046Y-83950000D01*
X153498046Y-83950000D02*
X154700000Y-83950000D01*
X157975000Y-87225000D02*
X157975000Y-95025000D01*
X152249540Y-96725000D02*
X154050305Y-96725000D01*
X157975000Y-95025000D02*
X157250000Y-95750000D01*
X155025305Y-95750000D02*
X157250000Y-95750000D01*
X149087390Y-93388488D02*
X149087390Y-93562850D01*
X154050305Y-96725000D02*
X155025305Y-95750000D01*
%TO.N,RF_SS*%
X154250000Y-90425673D02*
X154250000Y-93363604D01*
X153500000Y-84981344D02*
X153500000Y-86500000D01*
X153363604Y-94250000D02*
X151120405Y-94250000D01*
X154052739Y-89627802D02*
X154052739Y-90228412D01*
X154052739Y-90228412D02*
X154250000Y-90425673D01*
X154250000Y-93363604D02*
X153363604Y-94250000D01*
X154500000Y-87500000D02*
X154500000Y-89203107D01*
X153798960Y-84682384D02*
X153500000Y-84981344D01*
X154477434Y-89203107D02*
X154052739Y-89627802D01*
X151120405Y-94250000D02*
X150549890Y-93679485D01*
X153500000Y-86500000D02*
X154500000Y-87500000D01*
X154500000Y-89203107D02*
X154477434Y-89203107D01*
%TO.N,SDA*%
X157750153Y-85974847D02*
X157750153Y-83750153D01*
X157750153Y-85974847D02*
X157750153Y-84750000D01*
X157750153Y-83750153D02*
X157000000Y-83000000D01*
%TO.N,SWDIO*%
X148545789Y-83596844D02*
X148545789Y-84197454D01*
X142250000Y-97500000D02*
X142250000Y-100650000D01*
X148121094Y-84622149D02*
X147514247Y-84622149D01*
X147822340Y-82874802D02*
X148119687Y-83172149D01*
X148121094Y-83172149D02*
X148545789Y-83596844D01*
X148545789Y-84197454D02*
X148121094Y-84622149D01*
X147514247Y-84622149D02*
X143950000Y-88186396D01*
X148119687Y-83172149D02*
X148121094Y-83172149D01*
X142250000Y-100650000D02*
X142850000Y-101250000D01*
X143950000Y-88186396D02*
X143950000Y-95800000D01*
X143950000Y-95800000D02*
X142250000Y-97500000D01*
%TO.N,SWCLK*%
X147700643Y-85072149D02*
X144400000Y-88372792D01*
X144400000Y-95986396D02*
X143750000Y-96636396D01*
X148995789Y-82688423D02*
X148995789Y-84383850D01*
X148307490Y-85072149D02*
X147700643Y-85072149D01*
X143750000Y-100000000D02*
X144500000Y-100750000D01*
X144500000Y-102320000D02*
X144300000Y-102520000D01*
X148995789Y-84383850D02*
X148307490Y-85072149D01*
X144500000Y-100750000D02*
X144500000Y-102320000D01*
X148696470Y-82389104D02*
X148995789Y-82688423D01*
X144300000Y-102520000D02*
X142850000Y-102520000D01*
X144400000Y-88372792D02*
X144400000Y-95986396D01*
X143750000Y-96636396D02*
X143750000Y-100000000D01*
%TO.N,nRST*%
X143500000Y-94625000D02*
X142500000Y-95625000D01*
X147602851Y-83897149D02*
X143500000Y-88000000D01*
X147820789Y-83897149D02*
X147602851Y-83897149D01*
X142850000Y-106330000D02*
X141520000Y-106330000D01*
X141520000Y-106330000D02*
X141250000Y-106060000D01*
X141250000Y-106060000D02*
X141250000Y-96875000D01*
X141250000Y-96875000D02*
X142500000Y-95625000D01*
X143500000Y-88000000D02*
X143500000Y-94625000D01*
%TO.N,A2*%
X145319484Y-84285581D02*
X145319484Y-84044052D01*
X152786200Y-84000000D02*
X153286200Y-83500000D01*
X145319484Y-84044052D02*
X147863536Y-81500000D01*
X162250000Y-78250000D02*
X162250000Y-78870000D01*
X155900000Y-82986701D02*
X155900000Y-79100000D01*
X155900000Y-79100000D02*
X158220000Y-76780000D01*
X158220000Y-76780000D02*
X160780000Y-76780000D01*
X147863536Y-81500000D02*
X149040977Y-81500000D01*
X151540977Y-84000000D02*
X152786200Y-84000000D01*
X160780000Y-76780000D02*
X162250000Y-78250000D01*
X149040977Y-81500000D02*
X151540977Y-84000000D01*
X155386701Y-83500000D02*
X155900000Y-82986701D01*
X153286200Y-83500000D02*
X155386701Y-83500000D01*
%TO.N,SUCCESS*%
X144850000Y-96172792D02*
X144850000Y-89025000D01*
X144250000Y-99863604D02*
X144250000Y-96772792D01*
X144658181Y-106154179D02*
X144658181Y-103091819D01*
X144658181Y-103091819D02*
X144950000Y-102800000D01*
X144250000Y-96772792D02*
X144850000Y-96172792D01*
X144850000Y-89025000D02*
X145125000Y-88750000D01*
X144950000Y-102800000D02*
X144950000Y-100563604D01*
X144725178Y-106221176D02*
X144658181Y-106154179D01*
X144950000Y-100563604D02*
X144250000Y-99863604D01*
%TO.N,ERROR*%
X149371023Y-103671023D02*
X148725000Y-103025000D01*
X151775354Y-98000000D02*
X152000354Y-98225000D01*
X149250000Y-98000000D02*
X151775354Y-98000000D01*
X148750000Y-107250000D02*
X149371023Y-106628977D01*
X155000000Y-93250000D02*
X153251598Y-94998402D01*
X154777739Y-89928107D02*
X155000000Y-90150368D01*
X145794878Y-107319877D02*
X145864755Y-107250000D01*
X149371023Y-106628977D02*
X149371023Y-103671023D01*
X153251598Y-94998402D02*
X152855075Y-94998402D01*
X145864755Y-107250000D02*
X148750000Y-107250000D01*
X148725000Y-103025000D02*
X148725000Y-98525000D01*
X148725000Y-98525000D02*
X149250000Y-98000000D01*
X155000000Y-90150368D02*
X155000000Y-93250000D01*
%TO.N,SDN*%
X155357513Y-86357513D02*
X154382819Y-86357513D01*
X155052263Y-94223043D02*
X156250000Y-93025306D01*
X156250000Y-93025306D02*
X156250000Y-87250000D01*
X156250000Y-87250000D02*
X155357513Y-86357513D01*
%TO.N,D13*%
X160620000Y-75880000D02*
X162250000Y-74250000D01*
X155000000Y-78562584D02*
X157682584Y-75880000D01*
X162250000Y-74250000D02*
X162250000Y-73790000D01*
X152299750Y-82824750D02*
X152574500Y-82550000D01*
X152574500Y-82550000D02*
X154812500Y-82550000D01*
X155000000Y-82362500D02*
X155000000Y-78562584D01*
X154812500Y-82550000D02*
X155000000Y-82362500D01*
X157682584Y-75880000D02*
X160620000Y-75880000D01*
%TO.N,+BATT*%
X148500000Y-58750000D02*
X148075000Y-59175000D01*
%TO.N,TXD*%
X147175000Y-70048654D02*
X147175000Y-76788910D01*
X150805266Y-56000000D02*
X148136396Y-56000000D01*
X148136396Y-56000000D02*
X146000000Y-58136396D01*
X146000000Y-68873654D02*
X147175000Y-70048654D01*
X151055266Y-56250000D02*
X150805266Y-56000000D01*
X146000000Y-58136396D02*
X146000000Y-68873654D01*
X147175000Y-76788910D02*
X151361090Y-80975000D01*
X152250000Y-56250000D02*
X151055266Y-56250000D01*
X151361090Y-80975000D02*
X151749999Y-80975000D01*
%TO.N,RXD*%
X146725000Y-70235050D02*
X146725000Y-76975306D01*
X147975000Y-55525000D02*
X145500000Y-58000000D01*
X145500000Y-69010050D02*
X146725000Y-70235050D01*
X151449694Y-81700000D02*
X152133887Y-81700000D01*
X145500000Y-58000000D02*
X145500000Y-69010050D01*
X146725000Y-76975306D02*
X151449694Y-81700000D01*
X152133887Y-81700000D02*
X152743299Y-81090588D01*
X151355571Y-55525000D02*
X147975000Y-55525000D01*
%TD*%
%TA.AperFunction,Conductor*%
%TO.N,Earth*%
G36*
X137639338Y-85833943D02*
G01*
X137685093Y-85886747D01*
X137695037Y-85955905D01*
X137666012Y-86019461D01*
X137607234Y-86057235D01*
X137588486Y-86061197D01*
X137585920Y-86061534D01*
X137509489Y-86082014D01*
X137478754Y-86099760D01*
X137447707Y-86117685D01*
X137447702Y-86117688D01*
X137440968Y-86121575D01*
X137440966Y-86121576D01*
X136903148Y-86659396D01*
X136841825Y-86692881D01*
X136815467Y-86695715D01*
X135371547Y-86695715D01*
X135313070Y-86707346D01*
X135313069Y-86707347D01*
X135246747Y-86751662D01*
X135202432Y-86817984D01*
X135202431Y-86817985D01*
X135190800Y-86876462D01*
X135190800Y-88297511D01*
X135171115Y-88364550D01*
X135154481Y-88385192D01*
X134229681Y-89309992D01*
X134168358Y-89343477D01*
X134098666Y-89338493D01*
X134042733Y-89296621D01*
X134018316Y-89231157D01*
X134018000Y-89222311D01*
X134018000Y-88839880D01*
X134037685Y-88772841D01*
X134090489Y-88727086D01*
X134103703Y-88722089D01*
X134105246Y-88721450D01*
X134105248Y-88721448D01*
X134105254Y-88721447D01*
X134287750Y-88623900D01*
X134447710Y-88492625D01*
X134578985Y-88332665D01*
X134676532Y-88150169D01*
X134736600Y-87952149D01*
X134756883Y-87746215D01*
X134736600Y-87540281D01*
X134676532Y-87342261D01*
X134578985Y-87159765D01*
X134516238Y-87083307D01*
X134447710Y-86999804D01*
X134304223Y-86882049D01*
X134287750Y-86868530D01*
X134105254Y-86770983D01*
X133907234Y-86710915D01*
X133907232Y-86710914D01*
X133907234Y-86710914D01*
X133701300Y-86690632D01*
X133495367Y-86710914D01*
X133297343Y-86770984D01*
X133220306Y-86812162D01*
X133114850Y-86868530D01*
X133114848Y-86868531D01*
X133114847Y-86868532D01*
X132954889Y-86999804D01*
X132823617Y-87159762D01*
X132823615Y-87159765D01*
X132798289Y-87207147D01*
X132726069Y-87342258D01*
X132665999Y-87540282D01*
X132645717Y-87746215D01*
X132665999Y-87952147D01*
X132666000Y-87952149D01*
X132726068Y-88150169D01*
X132823615Y-88332665D01*
X132851343Y-88366452D01*
X132954889Y-88492625D01*
X133024589Y-88549825D01*
X133114850Y-88623900D01*
X133297346Y-88721447D01*
X133297349Y-88721448D01*
X133301454Y-88723642D01*
X133351298Y-88772604D01*
X133367000Y-88833000D01*
X133367000Y-97670485D01*
X133347315Y-97737524D01*
X133294511Y-97783279D01*
X133225353Y-97793223D01*
X133208066Y-97789462D01*
X133071964Y-97749500D01*
X133071961Y-97749500D01*
X132928039Y-97749500D01*
X132928036Y-97749500D01*
X132789949Y-97790045D01*
X132668873Y-97867856D01*
X132574623Y-97976626D01*
X132574621Y-97976630D01*
X132568034Y-97991053D01*
X132522278Y-98043856D01*
X132455238Y-98063539D01*
X132388199Y-98043853D01*
X132356867Y-98015027D01*
X132308307Y-97951743D01*
X132308305Y-97951742D01*
X132308305Y-97951741D01*
X132182866Y-97855489D01*
X132182859Y-97855485D01*
X132097080Y-97819953D01*
X132082537Y-97812782D01*
X132076052Y-97809038D01*
X132055710Y-97797294D01*
X131909341Y-97758075D01*
X131909340Y-97758075D01*
X128056773Y-97758075D01*
X128017041Y-97750172D01*
X128016918Y-97750635D01*
X128009862Y-97748744D01*
X128009323Y-97748637D01*
X128009067Y-97748531D01*
X128009065Y-97748530D01*
X127852306Y-97727893D01*
X127852304Y-97727893D01*
X127695544Y-97748530D01*
X127695542Y-97748531D01*
X127549465Y-97809038D01*
X127424023Y-97905293D01*
X127327768Y-98030735D01*
X127267261Y-98176812D01*
X127267260Y-98176814D01*
X127246623Y-98333573D01*
X127246623Y-98333576D01*
X127267260Y-98490335D01*
X127267261Y-98490337D01*
X127327769Y-98636416D01*
X127424023Y-98761857D01*
X127549464Y-98858111D01*
X127695543Y-98918619D01*
X127738209Y-98924236D01*
X127852304Y-98939257D01*
X127852305Y-98939257D01*
X127852306Y-98939257D01*
X127904559Y-98932377D01*
X128009067Y-98918619D01*
X128009323Y-98918512D01*
X128009862Y-98918405D01*
X128016918Y-98916515D01*
X128017041Y-98916977D01*
X128056773Y-98909075D01*
X131563417Y-98909075D01*
X131610870Y-98918514D01*
X131648469Y-98934088D01*
X131702872Y-98977929D01*
X131724937Y-99044223D01*
X131707658Y-99111922D01*
X131688697Y-99136330D01*
X130897254Y-99927775D01*
X130841306Y-99983722D01*
X130841300Y-99983730D01*
X130801747Y-100052239D01*
X130801744Y-100052244D01*
X130781265Y-100128674D01*
X130781265Y-101019495D01*
X130761580Y-101086534D01*
X130750978Y-101100697D01*
X130656390Y-101209857D01*
X130656387Y-101209863D01*
X130596599Y-101340778D01*
X130576118Y-101483235D01*
X130596599Y-101625691D01*
X130621241Y-101679648D01*
X130656388Y-101756608D01*
X130750637Y-101865378D01*
X130871712Y-101943188D01*
X130871715Y-101943189D01*
X130871714Y-101943189D01*
X131009801Y-101983734D01*
X131009803Y-101983735D01*
X131009804Y-101983735D01*
X131153726Y-101983735D01*
X131237997Y-101958991D01*
X131307864Y-101958991D01*
X131366642Y-101996765D01*
X131395668Y-102060320D01*
X131395869Y-102061783D01*
X131414955Y-102206760D01*
X131414956Y-102206762D01*
X131444247Y-102277478D01*
X131475464Y-102352841D01*
X131571718Y-102478282D01*
X131697159Y-102574536D01*
X131843238Y-102635044D01*
X131921619Y-102645363D01*
X131999999Y-102655682D01*
X132000000Y-102655682D01*
X132000001Y-102655682D01*
X132052254Y-102648802D01*
X132156762Y-102635044D01*
X132302841Y-102574536D01*
X132428282Y-102478282D01*
X132522383Y-102355646D01*
X132578808Y-102314445D01*
X132648554Y-102310290D01*
X132696244Y-102332759D01*
X132749639Y-102373731D01*
X132749640Y-102373731D01*
X132749641Y-102373732D01*
X132895720Y-102434240D01*
X132974101Y-102444559D01*
X133052481Y-102454878D01*
X133052482Y-102454878D01*
X133052483Y-102454878D01*
X133104736Y-102447998D01*
X133209244Y-102434240D01*
X133355323Y-102373732D01*
X133480764Y-102277478D01*
X133577018Y-102152037D01*
X133637526Y-102005958D01*
X133658164Y-101849196D01*
X133649235Y-101781377D01*
X133660000Y-101712342D01*
X133684490Y-101677513D01*
X133900846Y-101461157D01*
X135141276Y-101461157D01*
X135170273Y-101569376D01*
X135226291Y-101666402D01*
X135305513Y-101745624D01*
X135402539Y-101801642D01*
X135510758Y-101830639D01*
X135510760Y-101830639D01*
X135622792Y-101830639D01*
X135622794Y-101830639D01*
X135731013Y-101801642D01*
X135828039Y-101745624D01*
X135907261Y-101666402D01*
X135963279Y-101569376D01*
X135992276Y-101461157D01*
X135992276Y-101349121D01*
X135963279Y-101240902D01*
X135907261Y-101143876D01*
X135828039Y-101064654D01*
X135731013Y-101008636D01*
X135622794Y-100979639D01*
X135510758Y-100979639D01*
X135402539Y-101008636D01*
X135402536Y-101008637D01*
X135305516Y-101064652D01*
X135305510Y-101064656D01*
X135226293Y-101143873D01*
X135226289Y-101143879D01*
X135170274Y-101240899D01*
X135170273Y-101240902D01*
X135141276Y-101349121D01*
X135141276Y-101461157D01*
X133900846Y-101461157D01*
X134560465Y-100801540D01*
X134603318Y-100727317D01*
X134625500Y-100644531D01*
X134625500Y-100558825D01*
X134625500Y-98200766D01*
X135549500Y-98200766D01*
X135555994Y-98225001D01*
X135588719Y-98347136D01*
X135618080Y-98397989D01*
X135664485Y-98478365D01*
X136646635Y-99460515D01*
X136712711Y-99498664D01*
X136760927Y-99549231D01*
X136774150Y-99617838D01*
X136748182Y-99682703D01*
X136698165Y-99720612D01*
X136664964Y-99734364D01*
X136664958Y-99734367D01*
X136550234Y-99811024D01*
X136550230Y-99811027D01*
X136452664Y-99908593D01*
X136452661Y-99908597D01*
X136376004Y-100023321D01*
X136375997Y-100023334D01*
X136323197Y-100150806D01*
X136323194Y-100150816D01*
X136296276Y-100286143D01*
X136296276Y-100286146D01*
X136296276Y-101524132D01*
X136296276Y-101524134D01*
X136296275Y-101524134D01*
X136323194Y-101659461D01*
X136323197Y-101659471D01*
X136375997Y-101786943D01*
X136376004Y-101786956D01*
X136452661Y-101901680D01*
X136452664Y-101901684D01*
X136550230Y-101999250D01*
X136550234Y-101999253D01*
X136664958Y-102075910D01*
X136664971Y-102075917D01*
X136792443Y-102128717D01*
X136792448Y-102128719D01*
X136792452Y-102128719D01*
X136792453Y-102128720D01*
X136927780Y-102155639D01*
X136927783Y-102155639D01*
X137065771Y-102155639D01*
X137156817Y-102137528D01*
X137201104Y-102128719D01*
X137328587Y-102075914D01*
X137443318Y-101999253D01*
X137540890Y-101901681D01*
X137617551Y-101786950D01*
X137670356Y-101659467D01*
X137688276Y-101569378D01*
X137697276Y-101524134D01*
X137697276Y-100286143D01*
X137670357Y-100150816D01*
X137670356Y-100150815D01*
X137670356Y-100150811D01*
X137659930Y-100125640D01*
X137617554Y-100023334D01*
X137617547Y-100023321D01*
X137540890Y-99908597D01*
X137540887Y-99908593D01*
X137443321Y-99811027D01*
X137443317Y-99811024D01*
X137328593Y-99734367D01*
X137328587Y-99734364D01*
X137299141Y-99722167D01*
X137244738Y-99678325D01*
X137222674Y-99612031D01*
X137239954Y-99544332D01*
X137284593Y-99500220D01*
X137353365Y-99460515D01*
X137460515Y-99353365D01*
X137536281Y-99222135D01*
X137575500Y-99075767D01*
X137575500Y-98924234D01*
X137536281Y-98777865D01*
X137460515Y-98646635D01*
X136736819Y-97922939D01*
X136703334Y-97861616D01*
X136700500Y-97835258D01*
X136700500Y-95664742D01*
X136720185Y-95597703D01*
X136736819Y-95577061D01*
X137089022Y-95224858D01*
X137460515Y-94853365D01*
X137536281Y-94722135D01*
X137575500Y-94575766D01*
X137575500Y-94424233D01*
X137536281Y-94277865D01*
X137460515Y-94146635D01*
X137353365Y-94039485D01*
X137267260Y-93989772D01*
X137222136Y-93963719D01*
X137118040Y-93935827D01*
X137075767Y-93924500D01*
X136924234Y-93924500D01*
X136777863Y-93963719D01*
X136646635Y-94039485D01*
X136646632Y-94039487D01*
X135664487Y-95021632D01*
X135664485Y-95021635D01*
X135588719Y-95152863D01*
X135559962Y-95260187D01*
X135549500Y-95299234D01*
X135549500Y-98049234D01*
X135549500Y-98200766D01*
X134625500Y-98200766D01*
X134625500Y-89886188D01*
X134645185Y-89819149D01*
X134661819Y-89798507D01*
X135627292Y-88833034D01*
X135688615Y-88799549D01*
X135714973Y-88796715D01*
X137111050Y-88796715D01*
X137111051Y-88796714D01*
X137125868Y-88793767D01*
X137169529Y-88785083D01*
X137169529Y-88785082D01*
X137169531Y-88785082D01*
X137235852Y-88740767D01*
X137280167Y-88674446D01*
X137280167Y-88674444D01*
X137280168Y-88674444D01*
X137291799Y-88615967D01*
X137291800Y-88615965D01*
X137291800Y-87172048D01*
X137311485Y-87105009D01*
X137328119Y-87084367D01*
X137713632Y-86698854D01*
X137774955Y-86665369D01*
X137801313Y-86662535D01*
X139899657Y-86662535D01*
X139966696Y-86682220D01*
X140012451Y-86735024D01*
X140022395Y-86804182D01*
X139993370Y-86867738D01*
X139955111Y-86897444D01*
X138250001Y-87749998D01*
X138250000Y-87750000D01*
X138250000Y-106750000D01*
X140250000Y-107500000D01*
X140250000Y-107499999D01*
X140250000Y-86786535D01*
X140269685Y-86719496D01*
X140322489Y-86673741D01*
X140374000Y-86662535D01*
X140446833Y-86662535D01*
X140446835Y-86662535D01*
X140523262Y-86642056D01*
X140563502Y-86618823D01*
X140631399Y-86602351D01*
X140697426Y-86625203D01*
X140740617Y-86680124D01*
X140749500Y-86726211D01*
X140749500Y-87282147D01*
X140749500Y-87367853D01*
X140751695Y-87376046D01*
X140771682Y-87450640D01*
X140776723Y-87459371D01*
X140814535Y-87524862D01*
X141475138Y-88185465D01*
X141549361Y-88228318D01*
X141549360Y-88228318D01*
X141560535Y-88231312D01*
X141571277Y-88234190D01*
X141630938Y-88270553D01*
X141661469Y-88333400D01*
X141653175Y-88402776D01*
X141617851Y-88449818D01*
X141503590Y-88543589D01*
X141372317Y-88703547D01*
X141274769Y-88886043D01*
X141214699Y-89084067D01*
X141194417Y-89290000D01*
X141214699Y-89495932D01*
X141235090Y-89563151D01*
X141274768Y-89693954D01*
X141372315Y-89876450D01*
X141372317Y-89876452D01*
X141503589Y-90036410D01*
X141566706Y-90088208D01*
X141663550Y-90167685D01*
X141846046Y-90265232D01*
X142044066Y-90325300D01*
X142044065Y-90325300D01*
X142062529Y-90327118D01*
X142250000Y-90345583D01*
X142455934Y-90325300D01*
X142653954Y-90265232D01*
X142836450Y-90167685D01*
X142971835Y-90056577D01*
X143036145Y-90029265D01*
X143105013Y-90041056D01*
X143156573Y-90088208D01*
X143174500Y-90152431D01*
X143174500Y-94438811D01*
X143154815Y-94505850D01*
X143138181Y-94526492D01*
X142671684Y-94992988D01*
X142610361Y-95026473D01*
X142567818Y-95028246D01*
X142500001Y-95019318D01*
X142499999Y-95019318D01*
X142343239Y-95039955D01*
X142343237Y-95039956D01*
X142197160Y-95100463D01*
X142071718Y-95196718D01*
X141975463Y-95322160D01*
X141914956Y-95468237D01*
X141914955Y-95468239D01*
X141894318Y-95624998D01*
X141894318Y-95625001D01*
X141903246Y-95692817D01*
X141892480Y-95761852D01*
X141867988Y-95796683D01*
X140989537Y-96675135D01*
X140989535Y-96675138D01*
X140946681Y-96749361D01*
X140946681Y-96749362D01*
X140941726Y-96767851D01*
X140941727Y-96767852D01*
X140924500Y-96832145D01*
X140924500Y-96832147D01*
X140924500Y-106017147D01*
X140924500Y-106102853D01*
X140946682Y-106185639D01*
X140989535Y-106259862D01*
X141259533Y-106529860D01*
X141259535Y-106529862D01*
X141320138Y-106590465D01*
X141382844Y-106626668D01*
X141382846Y-106626670D01*
X141382847Y-106626670D01*
X141388642Y-106630016D01*
X141436855Y-106680585D01*
X141446759Y-106714082D01*
X141448311Y-106713774D01*
X141461131Y-106778229D01*
X141461132Y-106778230D01*
X141505447Y-106844552D01*
X141571769Y-106888867D01*
X141571770Y-106888868D01*
X141630247Y-106900499D01*
X141630250Y-106900500D01*
X141630252Y-106900500D01*
X144069750Y-106900500D01*
X144069751Y-106900499D01*
X144084568Y-106897552D01*
X144128229Y-106888868D01*
X144128229Y-106888867D01*
X144128231Y-106888867D01*
X144194552Y-106844552D01*
X144207345Y-106825407D01*
X144241861Y-106773750D01*
X144295473Y-106728944D01*
X144364798Y-106720237D01*
X144415116Y-106741960D01*
X144415297Y-106741648D01*
X144417982Y-106743198D01*
X144420446Y-106744262D01*
X144422334Y-106745710D01*
X144422337Y-106745712D01*
X144568416Y-106806220D01*
X144646797Y-106816539D01*
X144725177Y-106826858D01*
X144725178Y-106826858D01*
X144725179Y-106826858D01*
X144777432Y-106819978D01*
X144881940Y-106806220D01*
X145028019Y-106745712D01*
X145153211Y-106649648D01*
X145218377Y-106624456D01*
X145286822Y-106638494D01*
X145336812Y-106687308D01*
X145350312Y-106723834D01*
X145361132Y-106778229D01*
X145365806Y-106789513D01*
X145361820Y-106791164D01*
X145375677Y-106835474D01*
X145357168Y-106902847D01*
X145350072Y-106913128D01*
X145270342Y-107017034D01*
X145209834Y-107163114D01*
X145209833Y-107163116D01*
X145189196Y-107319875D01*
X145189196Y-107319878D01*
X145209833Y-107476637D01*
X145209834Y-107476639D01*
X145270342Y-107622719D01*
X145354096Y-107731869D01*
X145379290Y-107797038D01*
X145365252Y-107865483D01*
X145316438Y-107915472D01*
X145255735Y-107931355D01*
X145250000Y-107931355D01*
X145250000Y-112876000D01*
X145230315Y-112943039D01*
X145177511Y-112988794D01*
X145126000Y-113000000D01*
X140374000Y-113000000D01*
X140306961Y-112980315D01*
X140261206Y-112927511D01*
X140250000Y-112876000D01*
X140250000Y-110671045D01*
X141539804Y-110671045D01*
X141569363Y-110857677D01*
X141627758Y-111037395D01*
X141713544Y-111205758D01*
X141824614Y-111358632D01*
X141958231Y-111492249D01*
X142111105Y-111603319D01*
X142190651Y-111643849D01*
X142279467Y-111689104D01*
X142279469Y-111689104D01*
X142279472Y-111689106D01*
X142375801Y-111720405D01*
X142459185Y-111747499D01*
X142645818Y-111777059D01*
X142645823Y-111777059D01*
X142834790Y-111777059D01*
X143021422Y-111747499D01*
X143201136Y-111689106D01*
X143369503Y-111603319D01*
X143522377Y-111492249D01*
X143655994Y-111358632D01*
X143767064Y-111205758D01*
X143852851Y-111037391D01*
X143911244Y-110857677D01*
X143940804Y-110671045D01*
X143940804Y-110482072D01*
X143911244Y-110295440D01*
X143852849Y-110115722D01*
X143767063Y-109947359D01*
X143655994Y-109794486D01*
X143522377Y-109660869D01*
X143369503Y-109549799D01*
X143201140Y-109464013D01*
X143021422Y-109405618D01*
X142834790Y-109376059D01*
X142834785Y-109376059D01*
X142645823Y-109376059D01*
X142645818Y-109376059D01*
X142459185Y-109405618D01*
X142279467Y-109464013D01*
X142111104Y-109549799D01*
X142023883Y-109613169D01*
X141958231Y-109660869D01*
X141958229Y-109660871D01*
X141958228Y-109660871D01*
X141824616Y-109794483D01*
X141824616Y-109794484D01*
X141824614Y-109794486D01*
X141776914Y-109860138D01*
X141713544Y-109947359D01*
X141627758Y-110115722D01*
X141569363Y-110295440D01*
X141539804Y-110482072D01*
X141539804Y-110671045D01*
X140250000Y-110671045D01*
X140250000Y-108250000D01*
X126873960Y-108250000D01*
X126806921Y-108230315D01*
X126761166Y-108177511D01*
X126749960Y-108126040D01*
X126749238Y-105887327D01*
X126749131Y-105554134D01*
X127656275Y-105554134D01*
X127683194Y-105689461D01*
X127683197Y-105689471D01*
X127735997Y-105816943D01*
X127736004Y-105816956D01*
X127812661Y-105931680D01*
X127812664Y-105931684D01*
X127910230Y-106029250D01*
X127910234Y-106029253D01*
X128024958Y-106105910D01*
X128024971Y-106105917D01*
X128152443Y-106158717D01*
X128152448Y-106158719D01*
X128152452Y-106158719D01*
X128152453Y-106158720D01*
X128287780Y-106185639D01*
X128287783Y-106185639D01*
X128425771Y-106185639D01*
X128516817Y-106167528D01*
X128561104Y-106158719D01*
X128688587Y-106105914D01*
X128803318Y-106029253D01*
X128900890Y-105931681D01*
X128977551Y-105816950D01*
X129030356Y-105689467D01*
X129030543Y-105688526D01*
X129031185Y-105685304D01*
X129063572Y-105623394D01*
X129124289Y-105588822D01*
X129152801Y-105585500D01*
X136200751Y-105585500D01*
X136267790Y-105605185D01*
X136313545Y-105657989D01*
X136322367Y-105685304D01*
X136323193Y-105689457D01*
X136323197Y-105689471D01*
X136375997Y-105816943D01*
X136376004Y-105816956D01*
X136452661Y-105931680D01*
X136452664Y-105931684D01*
X136550230Y-106029250D01*
X136550234Y-106029253D01*
X136664958Y-106105910D01*
X136664971Y-106105917D01*
X136792443Y-106158717D01*
X136792448Y-106158719D01*
X136792452Y-106158719D01*
X136792453Y-106158720D01*
X136927780Y-106185639D01*
X136927783Y-106185639D01*
X137065771Y-106185639D01*
X137156817Y-106167528D01*
X137201104Y-106158719D01*
X137328587Y-106105914D01*
X137443318Y-106029253D01*
X137540890Y-105931681D01*
X137617551Y-105816950D01*
X137670356Y-105689467D01*
X137690376Y-105588822D01*
X137697276Y-105554134D01*
X137697276Y-104616143D01*
X137670357Y-104480816D01*
X137670356Y-104480815D01*
X137670356Y-104480811D01*
X137663927Y-104465290D01*
X137617554Y-104353334D01*
X137617547Y-104353321D01*
X137540890Y-104238597D01*
X137540887Y-104238593D01*
X137443321Y-104141027D01*
X137443317Y-104141024D01*
X137328593Y-104064367D01*
X137328580Y-104064360D01*
X137201108Y-104011560D01*
X137201098Y-104011557D01*
X137065771Y-103984639D01*
X137065769Y-103984639D01*
X136927783Y-103984639D01*
X136927781Y-103984639D01*
X136792453Y-104011557D01*
X136792443Y-104011560D01*
X136664971Y-104064360D01*
X136664958Y-104064367D01*
X136550234Y-104141024D01*
X136550230Y-104141027D01*
X136452664Y-104238593D01*
X136452661Y-104238597D01*
X136376003Y-104353323D01*
X136375810Y-104353787D01*
X136374086Y-104357949D01*
X136330249Y-104412353D01*
X136263956Y-104434421D01*
X136259525Y-104434500D01*
X129094027Y-104434500D01*
X129026988Y-104414815D01*
X128981233Y-104362011D01*
X128979477Y-104357978D01*
X128977551Y-104353328D01*
X128977546Y-104353321D01*
X128900890Y-104238597D01*
X128900887Y-104238593D01*
X128803321Y-104141027D01*
X128803317Y-104141024D01*
X128688593Y-104064367D01*
X128688580Y-104064360D01*
X128561108Y-104011560D01*
X128561098Y-104011557D01*
X128425771Y-103984639D01*
X128425769Y-103984639D01*
X128287783Y-103984639D01*
X128287781Y-103984639D01*
X128152453Y-104011557D01*
X128152443Y-104011560D01*
X128024971Y-104064360D01*
X128024958Y-104064367D01*
X127910234Y-104141024D01*
X127910230Y-104141027D01*
X127812664Y-104238593D01*
X127812661Y-104238597D01*
X127736004Y-104353321D01*
X127735997Y-104353334D01*
X127683197Y-104480806D01*
X127683194Y-104480816D01*
X127656276Y-104616143D01*
X127656276Y-104616146D01*
X127656276Y-105554132D01*
X127656276Y-105554134D01*
X127656275Y-105554134D01*
X126749131Y-105554134D01*
X126747832Y-101524134D01*
X127656275Y-101524134D01*
X127683194Y-101659461D01*
X127683197Y-101659471D01*
X127735997Y-101786943D01*
X127736004Y-101786956D01*
X127812661Y-101901680D01*
X127812664Y-101901684D01*
X127910230Y-101999250D01*
X127910234Y-101999253D01*
X128024958Y-102075910D01*
X128024971Y-102075917D01*
X128152443Y-102128717D01*
X128152448Y-102128719D01*
X128152452Y-102128719D01*
X128152453Y-102128720D01*
X128287780Y-102155639D01*
X128287783Y-102155639D01*
X128425771Y-102155639D01*
X128516817Y-102137528D01*
X128561104Y-102128719D01*
X128688587Y-102075914D01*
X128803318Y-101999253D01*
X128900890Y-101901681D01*
X128977551Y-101786950D01*
X129030356Y-101659467D01*
X129048276Y-101569378D01*
X129057276Y-101524134D01*
X129057276Y-101461157D01*
X129361276Y-101461157D01*
X129390273Y-101569376D01*
X129446291Y-101666402D01*
X129525513Y-101745624D01*
X129622539Y-101801642D01*
X129730758Y-101830639D01*
X129730760Y-101830639D01*
X129842792Y-101830639D01*
X129842794Y-101830639D01*
X129951013Y-101801642D01*
X130048039Y-101745624D01*
X130127261Y-101666402D01*
X130183279Y-101569376D01*
X130212276Y-101461157D01*
X130212276Y-101349121D01*
X130183279Y-101240902D01*
X130127261Y-101143876D01*
X130048039Y-101064654D01*
X129951013Y-101008636D01*
X129842794Y-100979639D01*
X129730758Y-100979639D01*
X129622539Y-101008636D01*
X129622536Y-101008637D01*
X129525516Y-101064652D01*
X129525510Y-101064656D01*
X129446293Y-101143873D01*
X129446289Y-101143879D01*
X129390274Y-101240899D01*
X129390273Y-101240902D01*
X129361276Y-101349121D01*
X129361276Y-101461157D01*
X129057276Y-101461157D01*
X129057276Y-100286143D01*
X129030357Y-100150816D01*
X129030356Y-100150815D01*
X129030356Y-100150811D01*
X129019930Y-100125640D01*
X128977554Y-100023334D01*
X128977547Y-100023321D01*
X128900890Y-99908597D01*
X128900887Y-99908593D01*
X128803321Y-99811027D01*
X128803317Y-99811024D01*
X128688593Y-99734367D01*
X128688580Y-99734360D01*
X128561108Y-99681560D01*
X128561098Y-99681557D01*
X128425771Y-99654639D01*
X128425769Y-99654639D01*
X128287783Y-99654639D01*
X128287781Y-99654639D01*
X128152453Y-99681557D01*
X128152443Y-99681560D01*
X128024971Y-99734360D01*
X128024958Y-99734367D01*
X127910234Y-99811024D01*
X127910230Y-99811027D01*
X127812664Y-99908593D01*
X127812661Y-99908597D01*
X127736004Y-100023321D01*
X127735997Y-100023334D01*
X127683197Y-100150806D01*
X127683194Y-100150816D01*
X127656276Y-100286143D01*
X127656276Y-100286146D01*
X127656276Y-101524132D01*
X127656276Y-101524134D01*
X127656275Y-101524134D01*
X126747832Y-101524134D01*
X126745328Y-93755001D01*
X129294318Y-93755001D01*
X129314955Y-93911760D01*
X129314956Y-93911762D01*
X129367861Y-94039487D01*
X129375464Y-94057841D01*
X129471718Y-94183282D01*
X129597159Y-94279536D01*
X129743238Y-94340044D01*
X129821619Y-94350363D01*
X129899999Y-94360682D01*
X129900000Y-94360682D01*
X129900001Y-94360682D01*
X129961670Y-94352563D01*
X130056762Y-94340044D01*
X130202841Y-94279536D01*
X130328282Y-94183282D01*
X130424536Y-94057841D01*
X130485044Y-93911762D01*
X130498802Y-93807254D01*
X130505682Y-93755001D01*
X130505682Y-93754998D01*
X130499423Y-93707463D01*
X130485044Y-93598238D01*
X130485043Y-93598235D01*
X130484937Y-93597978D01*
X130484828Y-93597431D01*
X130482940Y-93590383D01*
X130483401Y-93590259D01*
X130475500Y-93550530D01*
X130475500Y-89297256D01*
X130495185Y-89230217D01*
X130511815Y-89209579D01*
X130899797Y-88821596D01*
X130961120Y-88788112D01*
X130999632Y-88785875D01*
X131018792Y-88787762D01*
X131161300Y-88801798D01*
X131367234Y-88781515D01*
X131565254Y-88721447D01*
X131747750Y-88623900D01*
X131907710Y-88492625D01*
X132038985Y-88332665D01*
X132136532Y-88150169D01*
X132196600Y-87952149D01*
X132216883Y-87746215D01*
X132196600Y-87540281D01*
X132136532Y-87342261D01*
X132038985Y-87159765D01*
X131976238Y-87083307D01*
X131907710Y-86999804D01*
X131764223Y-86882049D01*
X131747750Y-86868530D01*
X131565254Y-86770983D01*
X131367234Y-86710915D01*
X131367232Y-86710914D01*
X131367234Y-86710914D01*
X131161300Y-86690632D01*
X130955367Y-86710914D01*
X130757343Y-86770984D01*
X130680306Y-86812162D01*
X130574850Y-86868530D01*
X130574848Y-86868531D01*
X130574847Y-86868532D01*
X130414889Y-86999804D01*
X130283617Y-87159762D01*
X130283615Y-87159765D01*
X130258289Y-87207147D01*
X130186069Y-87342258D01*
X130125999Y-87540282D01*
X130105717Y-87746215D01*
X130121639Y-87907881D01*
X130108620Y-87976527D01*
X130085917Y-88007716D01*
X129546635Y-88547000D01*
X129439487Y-88654147D01*
X129439485Y-88654150D01*
X129363719Y-88785378D01*
X129324500Y-88931749D01*
X129324500Y-93550530D01*
X129316598Y-93590259D01*
X129317060Y-93590383D01*
X129315171Y-93597431D01*
X129315063Y-93597978D01*
X129314956Y-93598235D01*
X129294318Y-93754998D01*
X129294318Y-93755001D01*
X126745328Y-93755001D01*
X126743727Y-88785378D01*
X126742809Y-85938298D01*
X126762472Y-85871252D01*
X126815261Y-85825480D01*
X126866809Y-85814258D01*
X137572299Y-85814258D01*
X137639338Y-85833943D01*
G37*
%TD.AperFunction*%
%TA.AperFunction,Conductor*%
G36*
X164193031Y-48269685D02*
G01*
X164238786Y-48322489D01*
X164249991Y-48374002D01*
X164249952Y-50214161D01*
X164248712Y-107805121D01*
X164229026Y-107872160D01*
X164176221Y-107917913D01*
X164124727Y-107929118D01*
X160874007Y-107929504D01*
X160806965Y-107909827D01*
X160761204Y-107857029D01*
X160749992Y-107805504D01*
X160749992Y-107553317D01*
X160750000Y-101250000D01*
X158797442Y-100029651D01*
X158751027Y-99977428D01*
X158750000Y-99970872D01*
X158750000Y-101500000D01*
X158749992Y-107805770D01*
X158730307Y-107872810D01*
X158677503Y-107918564D01*
X158626007Y-107929770D01*
X146334148Y-107931227D01*
X146267106Y-107911550D01*
X146221345Y-107858752D01*
X146211393Y-107789595D01*
X146235757Y-107731742D01*
X146277726Y-107677046D01*
X146318421Y-107624013D01*
X146374849Y-107582811D01*
X146416796Y-107575500D01*
X148792851Y-107575500D01*
X148792853Y-107575500D01*
X148875639Y-107553318D01*
X148949862Y-107510465D01*
X149631488Y-106828839D01*
X149674341Y-106754616D01*
X149696523Y-106671830D01*
X149696523Y-106586124D01*
X149696523Y-105665790D01*
X152705380Y-105665790D01*
X152725907Y-105887325D01*
X152725908Y-105887327D01*
X152786792Y-106101313D01*
X152786798Y-106101328D01*
X152885961Y-106300473D01*
X152885966Y-106300481D01*
X153020043Y-106478028D01*
X153184460Y-106627913D01*
X153184462Y-106627915D01*
X153373618Y-106745035D01*
X153373619Y-106745035D01*
X153373622Y-106745037D01*
X153581083Y-106825408D01*
X153799780Y-106866290D01*
X153799782Y-106866290D01*
X154022264Y-106866290D01*
X154022266Y-106866290D01*
X154240963Y-106825408D01*
X154448424Y-106745037D01*
X154637585Y-106627914D01*
X154802004Y-106478026D01*
X154936081Y-106300479D01*
X155035252Y-106101318D01*
X155096138Y-105887326D01*
X155116666Y-105665790D01*
X155112737Y-105623394D01*
X155096138Y-105444254D01*
X155096137Y-105444252D01*
X155035253Y-105230266D01*
X155035252Y-105230262D01*
X155035247Y-105230251D01*
X154936084Y-105031106D01*
X154936079Y-105031098D01*
X154802002Y-104853551D01*
X154637585Y-104703666D01*
X154637583Y-104703664D01*
X154448427Y-104586544D01*
X154448421Y-104586542D01*
X154240963Y-104506172D01*
X154022266Y-104465290D01*
X153799780Y-104465290D01*
X153581083Y-104506172D01*
X153479703Y-104545447D01*
X153373624Y-104586542D01*
X153373618Y-104586544D01*
X153184462Y-104703664D01*
X153184460Y-104703666D01*
X153020043Y-104853551D01*
X152885966Y-105031098D01*
X152885961Y-105031106D01*
X152786798Y-105230251D01*
X152786792Y-105230266D01*
X152725908Y-105444252D01*
X152725907Y-105444254D01*
X152705380Y-105665789D01*
X152705380Y-105665790D01*
X149696523Y-105665790D01*
X149696523Y-103628170D01*
X149674341Y-103545385D01*
X149674337Y-103545378D01*
X149631492Y-103471167D01*
X149631486Y-103471159D01*
X149086819Y-102926492D01*
X149053334Y-102865169D01*
X149050500Y-102838811D01*
X149050500Y-98711189D01*
X149070185Y-98644150D01*
X149086819Y-98623508D01*
X149348508Y-98361819D01*
X149409831Y-98328334D01*
X149436189Y-98325500D01*
X151309152Y-98325500D01*
X151376191Y-98345185D01*
X151421946Y-98397989D01*
X151423713Y-98402048D01*
X151475816Y-98527838D01*
X151475817Y-98527839D01*
X151475818Y-98527841D01*
X151572072Y-98653282D01*
X151697513Y-98749536D01*
X151843592Y-98810044D01*
X151921973Y-98820363D01*
X152000353Y-98830682D01*
X152000354Y-98830682D01*
X152000355Y-98830682D01*
X152075560Y-98820781D01*
X152157116Y-98810044D01*
X152303195Y-98749536D01*
X152303200Y-98749531D01*
X152303907Y-98749125D01*
X152304582Y-98748961D01*
X152304750Y-98748891D01*
X152308949Y-98745120D01*
X152428636Y-98653282D01*
X152524890Y-98527841D01*
X152585398Y-98381762D01*
X152599216Y-98276801D01*
X152606036Y-98225001D01*
X152606036Y-98224998D01*
X152585398Y-98068239D01*
X152585396Y-98068234D01*
X152583451Y-98063539D01*
X152569864Y-98030735D01*
X152555871Y-97996952D01*
X152548402Y-97927483D01*
X152579678Y-97865004D01*
X152639767Y-97829352D01*
X152670432Y-97825500D01*
X154589116Y-97825500D01*
X154656155Y-97845185D01*
X154676797Y-97861819D01*
X155222794Y-98407816D01*
X155752798Y-98937819D01*
X155786283Y-98999142D01*
X155781299Y-99068834D01*
X155739427Y-99124767D01*
X155673963Y-99149184D01*
X155665117Y-99149500D01*
X153318299Y-99149500D01*
X153251260Y-99129815D01*
X153219923Y-99100986D01*
X153178283Y-99046719D01*
X153122162Y-99003656D01*
X153052841Y-98950464D01*
X153022313Y-98937819D01*
X152906762Y-98889956D01*
X152906760Y-98889955D01*
X152750001Y-98869318D01*
X152749999Y-98869318D01*
X152593239Y-98889955D01*
X152593237Y-98889956D01*
X152447150Y-98950467D01*
X152446429Y-98950884D01*
X152445744Y-98951049D01*
X152445599Y-98951109D01*
X152441396Y-98954885D01*
X152377838Y-99003656D01*
X152321718Y-99046718D01*
X152225463Y-99172160D01*
X152164956Y-99318237D01*
X152164955Y-99318239D01*
X152144318Y-99474998D01*
X152144318Y-99475001D01*
X152164955Y-99631760D01*
X152164956Y-99631762D01*
X152207453Y-99734360D01*
X152225464Y-99777841D01*
X152321718Y-99903282D01*
X152447159Y-99999536D01*
X152593238Y-100060044D01*
X152639451Y-100066128D01*
X152749999Y-100080682D01*
X152750000Y-100080682D01*
X152750001Y-100080682D01*
X152802254Y-100073802D01*
X152906762Y-100060044D01*
X153052841Y-99999536D01*
X153178282Y-99903282D01*
X153219923Y-99849013D01*
X153276351Y-99807811D01*
X153318299Y-99800500D01*
X158630428Y-99800500D01*
X158697467Y-99820185D01*
X158743222Y-99872989D01*
X158746323Y-99894560D01*
X158768434Y-99844484D01*
X158826732Y-99805972D01*
X158863163Y-99800500D01*
X159159032Y-99800500D01*
X159226071Y-99820185D01*
X159257408Y-99849014D01*
X159303127Y-99908597D01*
X159348145Y-99967265D01*
X159473586Y-100063519D01*
X159619665Y-100124027D01*
X159698046Y-100134346D01*
X159776426Y-100144665D01*
X159776427Y-100144665D01*
X159776428Y-100144665D01*
X159828681Y-100137785D01*
X159933189Y-100124027D01*
X160079268Y-100063519D01*
X160204709Y-99967265D01*
X160300963Y-99841824D01*
X160349649Y-99724283D01*
X160393488Y-99669882D01*
X160459782Y-99647817D01*
X160527482Y-99665096D01*
X160551890Y-99684057D01*
X161633595Y-100765762D01*
X161667080Y-100827085D01*
X161662096Y-100896777D01*
X161624579Y-100949296D01*
X161503590Y-101048589D01*
X161372317Y-101208547D01*
X161372315Y-101208550D01*
X161353626Y-101243514D01*
X161274769Y-101391043D01*
X161214699Y-101589067D01*
X161194417Y-101795000D01*
X161214699Y-102000932D01*
X161244734Y-102099944D01*
X161274768Y-102198954D01*
X161372315Y-102381450D01*
X161372317Y-102381452D01*
X161503589Y-102541410D01*
X161543954Y-102574536D01*
X161663550Y-102672685D01*
X161846046Y-102770232D01*
X162044066Y-102830300D01*
X162044065Y-102830300D01*
X162062529Y-102832118D01*
X162250000Y-102850583D01*
X162455934Y-102830300D01*
X162653954Y-102770232D01*
X162836450Y-102672685D01*
X162996410Y-102541410D01*
X163127685Y-102381450D01*
X163225232Y-102198954D01*
X163285300Y-102000934D01*
X163305583Y-101795000D01*
X163285300Y-101589066D01*
X163225232Y-101391046D01*
X163127685Y-101208550D01*
X163014270Y-101070352D01*
X162996410Y-101048589D01*
X162836452Y-100917317D01*
X162836453Y-100917317D01*
X162836450Y-100917315D01*
X162714786Y-100852283D01*
X162653953Y-100819767D01*
X162595336Y-100801986D01*
X162536898Y-100763689D01*
X162523945Y-100745326D01*
X162518241Y-100735447D01*
X162510465Y-100721978D01*
X162297988Y-100509501D01*
X162264503Y-100448178D01*
X162269487Y-100378486D01*
X162311359Y-100322553D01*
X162373514Y-100298417D01*
X162455934Y-100290300D01*
X162653954Y-100230232D01*
X162836450Y-100132685D01*
X162996410Y-100001410D01*
X163127685Y-99841450D01*
X163225232Y-99658954D01*
X163285300Y-99460934D01*
X163305583Y-99255000D01*
X163285300Y-99049066D01*
X163225232Y-98851046D01*
X163127685Y-98668550D01*
X163034281Y-98554736D01*
X162996410Y-98508589D01*
X162861621Y-98397972D01*
X162836450Y-98377315D01*
X162653954Y-98279768D01*
X162455934Y-98219700D01*
X162455932Y-98219699D01*
X162455934Y-98219699D01*
X162250000Y-98199417D01*
X162044067Y-98219699D01*
X161944179Y-98250000D01*
X161846046Y-98279768D01*
X161846043Y-98279769D01*
X161846041Y-98279770D01*
X161844132Y-98280561D01*
X161843051Y-98280677D01*
X161840217Y-98281537D01*
X161840053Y-98280999D01*
X161774662Y-98288026D01*
X161712185Y-98256747D01*
X161709005Y-98253678D01*
X161558847Y-98103520D01*
X161558845Y-98103518D01*
X161513234Y-98077184D01*
X161484623Y-98060665D01*
X161441960Y-98049234D01*
X161401836Y-98038483D01*
X161401835Y-98038483D01*
X159120790Y-98038483D01*
X159053751Y-98018798D01*
X159007996Y-97965994D01*
X158998052Y-97896836D01*
X159027077Y-97833280D01*
X159055070Y-97809331D01*
X159074328Y-97797295D01*
X160750000Y-96750000D01*
X160750000Y-96715000D01*
X161194417Y-96715000D01*
X161214699Y-96920932D01*
X161234275Y-96985465D01*
X161274768Y-97118954D01*
X161372315Y-97301450D01*
X161372317Y-97301452D01*
X161503589Y-97461410D01*
X161600209Y-97540702D01*
X161663550Y-97592685D01*
X161846046Y-97690232D01*
X162044066Y-97750300D01*
X162044065Y-97750300D01*
X162062529Y-97752118D01*
X162250000Y-97770583D01*
X162455934Y-97750300D01*
X162653954Y-97690232D01*
X162836450Y-97592685D01*
X162996410Y-97461410D01*
X163127685Y-97301450D01*
X163225232Y-97118954D01*
X163285300Y-96920934D01*
X163305583Y-96715000D01*
X163285300Y-96509066D01*
X163225232Y-96311046D01*
X163127685Y-96128550D01*
X163062784Y-96049467D01*
X162996410Y-95968589D01*
X162836452Y-95837317D01*
X162836453Y-95837317D01*
X162836450Y-95837315D01*
X162653954Y-95739768D01*
X162455934Y-95679700D01*
X162455932Y-95679699D01*
X162455934Y-95679699D01*
X162250000Y-95659417D01*
X162044067Y-95679699D01*
X161846043Y-95739769D01*
X161767485Y-95781760D01*
X161663550Y-95837315D01*
X161663548Y-95837316D01*
X161663547Y-95837317D01*
X161503589Y-95968589D01*
X161372317Y-96128547D01*
X161274769Y-96311043D01*
X161214699Y-96509067D01*
X161194417Y-96715000D01*
X160750000Y-96715000D01*
X160750000Y-95044752D01*
X161199500Y-95044752D01*
X161211131Y-95103229D01*
X161211132Y-95103230D01*
X161255447Y-95169552D01*
X161321769Y-95213867D01*
X161321770Y-95213868D01*
X161380247Y-95225499D01*
X161380250Y-95225500D01*
X161380252Y-95225500D01*
X163119750Y-95225500D01*
X163119751Y-95225499D01*
X163134568Y-95222552D01*
X163178229Y-95213868D01*
X163178229Y-95213867D01*
X163178231Y-95213867D01*
X163244552Y-95169552D01*
X163288867Y-95103231D01*
X163288867Y-95103229D01*
X163288868Y-95103229D01*
X163300499Y-95044752D01*
X163300500Y-95044750D01*
X163300500Y-93305249D01*
X163300499Y-93305247D01*
X163288868Y-93246770D01*
X163288867Y-93246769D01*
X163244552Y-93180447D01*
X163178230Y-93136132D01*
X163178229Y-93136131D01*
X163119752Y-93124500D01*
X163119748Y-93124500D01*
X161380252Y-93124500D01*
X161380247Y-93124500D01*
X161321770Y-93136131D01*
X161321769Y-93136132D01*
X161255447Y-93180447D01*
X161211132Y-93246769D01*
X161211131Y-93246770D01*
X161199500Y-93305247D01*
X161199500Y-95044752D01*
X160750000Y-95044752D01*
X160750000Y-80509688D01*
X160769685Y-80442649D01*
X160822489Y-80396894D01*
X160891647Y-80386950D01*
X160955203Y-80415975D01*
X160961671Y-80421998D01*
X161044589Y-80504915D01*
X161235194Y-80695520D01*
X161235204Y-80695531D01*
X161239534Y-80699861D01*
X161239535Y-80699862D01*
X161300138Y-80760465D01*
X161303724Y-80762535D01*
X161303727Y-80762538D01*
X161303728Y-80762538D01*
X161329581Y-80777464D01*
X161374361Y-80803318D01*
X161457147Y-80825501D01*
X161457149Y-80825501D01*
X161550449Y-80825501D01*
X161550465Y-80825500D01*
X162213811Y-80825500D01*
X162280850Y-80845185D01*
X162301492Y-80861819D01*
X162877492Y-81437819D01*
X162910977Y-81499142D01*
X162905993Y-81568834D01*
X162864121Y-81624767D01*
X162798657Y-81649184D01*
X162789811Y-81649500D01*
X161380247Y-81649500D01*
X161321770Y-81661131D01*
X161321769Y-81661132D01*
X161255447Y-81705447D01*
X161211132Y-81771769D01*
X161211131Y-81771770D01*
X161199500Y-81830247D01*
X161199500Y-83569752D01*
X161211131Y-83628229D01*
X161211132Y-83628230D01*
X161255447Y-83694552D01*
X161321769Y-83738867D01*
X161321770Y-83738868D01*
X161380247Y-83750499D01*
X161380250Y-83750500D01*
X161380252Y-83750500D01*
X162975500Y-83750500D01*
X163042539Y-83770185D01*
X163088294Y-83822989D01*
X163099500Y-83874500D01*
X163099500Y-84316017D01*
X163079815Y-84383056D01*
X163027011Y-84428811D01*
X162957853Y-84438755D01*
X162896836Y-84411871D01*
X162836453Y-84362317D01*
X162836451Y-84362316D01*
X162836450Y-84362315D01*
X162653954Y-84264768D01*
X162455934Y-84204700D01*
X162455932Y-84204699D01*
X162455934Y-84204699D01*
X162250000Y-84184417D01*
X162044067Y-84204699D01*
X161846043Y-84264769D01*
X161752062Y-84315004D01*
X161663550Y-84362315D01*
X161663548Y-84362316D01*
X161663547Y-84362317D01*
X161503589Y-84493589D01*
X161372317Y-84653547D01*
X161372315Y-84653550D01*
X161365391Y-84666504D01*
X161274769Y-84836043D01*
X161214699Y-85034067D01*
X161194417Y-85240000D01*
X161214699Y-85445932D01*
X161223767Y-85475824D01*
X161274768Y-85643954D01*
X161372315Y-85826450D01*
X161381395Y-85837514D01*
X161503589Y-85986410D01*
X161569884Y-86040816D01*
X161663550Y-86117685D01*
X161846046Y-86215232D01*
X162044066Y-86275300D01*
X162044065Y-86275300D01*
X162062529Y-86277118D01*
X162250000Y-86295583D01*
X162455934Y-86275300D01*
X162653954Y-86215232D01*
X162836450Y-86117685D01*
X162871286Y-86089095D01*
X162896835Y-86068129D01*
X162961145Y-86040816D01*
X163030013Y-86052607D01*
X163081573Y-86099760D01*
X163099500Y-86163982D01*
X163099500Y-86418810D01*
X163079815Y-86485849D01*
X163063181Y-86506491D01*
X162790994Y-86778677D01*
X162729671Y-86812162D01*
X162659979Y-86807178D01*
X162655869Y-86805561D01*
X162653958Y-86804769D01*
X162478888Y-86751663D01*
X162455934Y-86744700D01*
X162455932Y-86744699D01*
X162455934Y-86744699D01*
X162250000Y-86724417D01*
X162044067Y-86744699D01*
X161846043Y-86804769D01*
X161773743Y-86843415D01*
X161663550Y-86902315D01*
X161663548Y-86902316D01*
X161663547Y-86902317D01*
X161503589Y-87033589D01*
X161372317Y-87193547D01*
X161372315Y-87193550D01*
X161347735Y-87239535D01*
X161274769Y-87376043D01*
X161214699Y-87574067D01*
X161194417Y-87780000D01*
X161214699Y-87985932D01*
X161229835Y-88035827D01*
X161274768Y-88183954D01*
X161372315Y-88366450D01*
X161372317Y-88366452D01*
X161503589Y-88526410D01*
X161585022Y-88593239D01*
X161663550Y-88657685D01*
X161846046Y-88755232D01*
X162044066Y-88815300D01*
X162044065Y-88815300D01*
X162062529Y-88817118D01*
X162250000Y-88835583D01*
X162455934Y-88815300D01*
X162653954Y-88755232D01*
X162836450Y-88657685D01*
X162996410Y-88526410D01*
X163127685Y-88366450D01*
X163225232Y-88183954D01*
X163285300Y-87985934D01*
X163305583Y-87780000D01*
X163285300Y-87574066D01*
X163225232Y-87376046D01*
X163225230Y-87376043D01*
X163225230Y-87376041D01*
X163224444Y-87374144D01*
X163224328Y-87373068D01*
X163223463Y-87370216D01*
X163224003Y-87370051D01*
X163216971Y-87304675D01*
X163248242Y-87242194D01*
X163251289Y-87239036D01*
X163685465Y-86804862D01*
X163728318Y-86730639D01*
X163750500Y-86647853D01*
X163750500Y-86562147D01*
X163750500Y-81482147D01*
X163730301Y-81406762D01*
X163728318Y-81399361D01*
X163685465Y-81325138D01*
X162599862Y-80239535D01*
X162532493Y-80200639D01*
X162525640Y-80196682D01*
X162443849Y-80174767D01*
X162442853Y-80174500D01*
X162442852Y-80174500D01*
X161686188Y-80174500D01*
X161619149Y-80154815D01*
X161598511Y-80138185D01*
X161436816Y-79976490D01*
X161403334Y-79915169D01*
X161400500Y-79888811D01*
X161400500Y-79793982D01*
X161420185Y-79726943D01*
X161472989Y-79681188D01*
X161542147Y-79671244D01*
X161603165Y-79698129D01*
X161643765Y-79731448D01*
X161663550Y-79747685D01*
X161846046Y-79845232D01*
X162044066Y-79905300D01*
X162044065Y-79905300D01*
X162062529Y-79907118D01*
X162250000Y-79925583D01*
X162455934Y-79905300D01*
X162653954Y-79845232D01*
X162836450Y-79747685D01*
X162996410Y-79616410D01*
X163127685Y-79456450D01*
X163225232Y-79273954D01*
X163285300Y-79075934D01*
X163305583Y-78870000D01*
X163285300Y-78664066D01*
X163225232Y-78466046D01*
X163127685Y-78283550D01*
X163075702Y-78220209D01*
X162996410Y-78123589D01*
X162836452Y-77992317D01*
X162836453Y-77992317D01*
X162836450Y-77992315D01*
X162653954Y-77894768D01*
X162455934Y-77834700D01*
X162455932Y-77834699D01*
X162455934Y-77834699D01*
X162321599Y-77821468D01*
X162256812Y-77795307D01*
X162246073Y-77785746D01*
X162046814Y-77586487D01*
X162013329Y-77525164D01*
X162018313Y-77455472D01*
X162060185Y-77399539D01*
X162125649Y-77375122D01*
X162146640Y-77375402D01*
X162250000Y-77385583D01*
X162455934Y-77365300D01*
X162653954Y-77305232D01*
X162836450Y-77207685D01*
X162996410Y-77076410D01*
X163127685Y-76916450D01*
X163225232Y-76733954D01*
X163285300Y-76535934D01*
X163305583Y-76330000D01*
X163285300Y-76124066D01*
X163225232Y-75926046D01*
X163127685Y-75743550D01*
X163075702Y-75680209D01*
X162996410Y-75583589D01*
X162836452Y-75452317D01*
X162836453Y-75452317D01*
X162836450Y-75452315D01*
X162653954Y-75354768D01*
X162455934Y-75294700D01*
X162455932Y-75294699D01*
X162455934Y-75294699D01*
X162250000Y-75274417D01*
X162044065Y-75294699D01*
X161974558Y-75315784D01*
X161904691Y-75316407D01*
X161845579Y-75279158D01*
X161815988Y-75215863D01*
X161825315Y-75146619D01*
X161850880Y-75109445D01*
X162085402Y-74874923D01*
X162146723Y-74841440D01*
X162185230Y-74839203D01*
X162250000Y-74845583D01*
X162455934Y-74825300D01*
X162653954Y-74765232D01*
X162836450Y-74667685D01*
X162996410Y-74536410D01*
X163127685Y-74376450D01*
X163225232Y-74193954D01*
X163285300Y-73995934D01*
X163305583Y-73790000D01*
X163285300Y-73584066D01*
X163225232Y-73386046D01*
X163127685Y-73203550D01*
X163075702Y-73140209D01*
X162996410Y-73043589D01*
X162836452Y-72912317D01*
X162836453Y-72912317D01*
X162836450Y-72912315D01*
X162653954Y-72814768D01*
X162455934Y-72754700D01*
X162455932Y-72754699D01*
X162455934Y-72754699D01*
X162250000Y-72734417D01*
X162044067Y-72754699D01*
X161846043Y-72814769D01*
X161751996Y-72865039D01*
X161663550Y-72912315D01*
X161663548Y-72912316D01*
X161663547Y-72912317D01*
X161528164Y-73023422D01*
X161463854Y-73050734D01*
X161394987Y-73038943D01*
X161343427Y-72991790D01*
X161325500Y-72927568D01*
X161325500Y-72686189D01*
X161345185Y-72619150D01*
X161361819Y-72598508D01*
X161623508Y-72336819D01*
X161684831Y-72303334D01*
X161711189Y-72300500D01*
X163119750Y-72300500D01*
X163119751Y-72300499D01*
X163134568Y-72297552D01*
X163178229Y-72288868D01*
X163178229Y-72288867D01*
X163178231Y-72288867D01*
X163244552Y-72244552D01*
X163288867Y-72178231D01*
X163288867Y-72178229D01*
X163288868Y-72178229D01*
X163300499Y-72119752D01*
X163300500Y-72119750D01*
X163300500Y-70380249D01*
X163300499Y-70380247D01*
X163288868Y-70321770D01*
X163288867Y-70321769D01*
X163244552Y-70255447D01*
X163178230Y-70211132D01*
X163178229Y-70211131D01*
X163119752Y-70199500D01*
X163119748Y-70199500D01*
X161380252Y-70199500D01*
X161380247Y-70199500D01*
X161321770Y-70211131D01*
X161321769Y-70211132D01*
X161255447Y-70255447D01*
X161211132Y-70321769D01*
X161211131Y-70321770D01*
X161199500Y-70380247D01*
X161199500Y-71788811D01*
X161179815Y-71855850D01*
X161163181Y-71876492D01*
X160961681Y-72077992D01*
X160900358Y-72111477D01*
X160830666Y-72106493D01*
X160774733Y-72064621D01*
X160750316Y-71999157D01*
X160750000Y-71990311D01*
X160750000Y-48374000D01*
X160769685Y-48306961D01*
X160822489Y-48261206D01*
X160874000Y-48250000D01*
X164125992Y-48250000D01*
X164193031Y-48269685D01*
G37*
%TD.AperFunction*%
%TA.AperFunction,Conductor*%
G36*
X145346947Y-90202100D02*
G01*
X145418238Y-90231630D01*
X145446548Y-90235357D01*
X145574999Y-90252268D01*
X145574999Y-90252267D01*
X145575000Y-90252268D01*
X145642817Y-90243339D01*
X145711852Y-90254104D01*
X145746684Y-90278597D01*
X145802601Y-90334514D01*
X145876824Y-90377367D01*
X145959610Y-90399549D01*
X146001464Y-90399549D01*
X146068503Y-90419234D01*
X146089145Y-90435868D01*
X147118744Y-91465467D01*
X147192967Y-91508320D01*
X147275753Y-91530502D01*
X148108583Y-91530502D01*
X148175622Y-91550187D01*
X148221377Y-91602991D01*
X148231321Y-91672149D01*
X148223144Y-91701954D01*
X148193618Y-91773236D01*
X148193616Y-91773241D01*
X148172979Y-91930000D01*
X148172979Y-91930003D01*
X148181907Y-91997819D01*
X148171141Y-92066854D01*
X148146651Y-92101684D01*
X148101925Y-92146411D01*
X148101923Y-92146414D01*
X148059071Y-92220634D01*
X148059072Y-92220635D01*
X148036890Y-92303420D01*
X148036890Y-94530242D01*
X148059072Y-94613030D01*
X148079256Y-94647989D01*
X148101925Y-94687252D01*
X149588071Y-96173398D01*
X150877493Y-97462819D01*
X150910978Y-97524142D01*
X150905994Y-97593834D01*
X150864122Y-97649767D01*
X150798658Y-97674184D01*
X150789812Y-97674500D01*
X149207147Y-97674500D01*
X149124359Y-97696682D01*
X149050138Y-97739535D01*
X149050135Y-97739537D01*
X148464537Y-98325135D01*
X148464535Y-98325138D01*
X148421682Y-98399360D01*
X148406562Y-98455791D01*
X148399500Y-98482145D01*
X148399500Y-103067852D01*
X148421682Y-103150640D01*
X148443108Y-103187750D01*
X148464535Y-103224862D01*
X148464537Y-103224864D01*
X149009204Y-103769531D01*
X149042689Y-103830854D01*
X149045523Y-103857212D01*
X149045523Y-105603492D01*
X149025838Y-105670531D01*
X148973034Y-105716286D01*
X148903876Y-105726230D01*
X148874071Y-105718053D01*
X148802788Y-105688527D01*
X148802783Y-105688525D01*
X148646024Y-105667888D01*
X148646022Y-105667888D01*
X148489262Y-105688525D01*
X148489260Y-105688526D01*
X148343183Y-105749033D01*
X148343182Y-105749034D01*
X148251193Y-105819618D01*
X148186026Y-105844812D01*
X148117582Y-105830774D01*
X148105145Y-105821579D01*
X148104708Y-105822234D01*
X148094552Y-105815448D01*
X148068591Y-105798101D01*
X148023787Y-105744491D01*
X148015080Y-105675166D01*
X148045234Y-105612138D01*
X148068592Y-105591898D01*
X148094552Y-105574552D01*
X148138867Y-105508231D01*
X148138867Y-105508229D01*
X148138868Y-105508229D01*
X148150499Y-105449752D01*
X148150500Y-105449750D01*
X148150500Y-104670249D01*
X148150499Y-104670247D01*
X148138868Y-104611770D01*
X148138867Y-104611769D01*
X148094552Y-104545447D01*
X148028230Y-104501132D01*
X148028229Y-104501131D01*
X147969752Y-104489500D01*
X147969748Y-104489500D01*
X145530252Y-104489500D01*
X145530247Y-104489500D01*
X145471770Y-104501131D01*
X145471769Y-104501132D01*
X145405447Y-104545447D01*
X145361132Y-104611769D01*
X145361131Y-104611770D01*
X145349500Y-104670247D01*
X145349500Y-105449752D01*
X145361131Y-105508229D01*
X145361132Y-105508230D01*
X145405447Y-105574552D01*
X145431407Y-105591898D01*
X145476212Y-105645511D01*
X145484919Y-105714836D01*
X145454764Y-105777863D01*
X145431407Y-105798102D01*
X145405448Y-105815447D01*
X145392345Y-105835056D01*
X145338731Y-105879859D01*
X145269405Y-105888564D01*
X145206379Y-105858406D01*
X145190869Y-105841647D01*
X145153461Y-105792895D01*
X145124132Y-105770390D01*
X145032193Y-105699843D01*
X144990992Y-105643416D01*
X144983681Y-105601468D01*
X144983681Y-103278008D01*
X145003366Y-103210969D01*
X145020000Y-103190327D01*
X145059688Y-103150639D01*
X145210465Y-102999862D01*
X145228727Y-102968231D01*
X145253318Y-102925638D01*
X145275500Y-102842853D01*
X145275500Y-101909712D01*
X145295185Y-101842673D01*
X145347989Y-101796918D01*
X145417147Y-101786974D01*
X145468390Y-101806609D01*
X145471769Y-101808867D01*
X145471771Y-101808867D01*
X145471772Y-101808868D01*
X145471770Y-101808868D01*
X145530247Y-101820499D01*
X145530250Y-101820500D01*
X145530252Y-101820500D01*
X147969750Y-101820500D01*
X147969751Y-101820499D01*
X147984568Y-101817552D01*
X148028229Y-101808868D01*
X148028229Y-101808867D01*
X148028231Y-101808867D01*
X148094552Y-101764552D01*
X148138867Y-101698231D01*
X148138867Y-101698229D01*
X148138868Y-101698229D01*
X148150499Y-101639752D01*
X148150500Y-101639750D01*
X148150500Y-100860249D01*
X148150499Y-100860247D01*
X148138868Y-100801770D01*
X148138867Y-100801769D01*
X148094552Y-100735447D01*
X148028230Y-100691132D01*
X148028229Y-100691131D01*
X147969752Y-100679500D01*
X147969748Y-100679500D01*
X147199500Y-100679500D01*
X147132461Y-100659815D01*
X147086706Y-100607011D01*
X147075500Y-100555500D01*
X147075500Y-99206832D01*
X147095185Y-99139793D01*
X147111814Y-99119155D01*
X147200985Y-99029983D01*
X147262306Y-98996500D01*
X147304850Y-98994727D01*
X147318317Y-98996500D01*
X147372668Y-99003656D01*
X147372669Y-99003656D01*
X147372670Y-99003656D01*
X147424923Y-98996776D01*
X147529431Y-98983018D01*
X147675510Y-98922510D01*
X147800951Y-98826256D01*
X147897205Y-98700815D01*
X147957713Y-98554736D01*
X147977815Y-98402048D01*
X147978351Y-98397975D01*
X147978351Y-98397972D01*
X147957713Y-98241213D01*
X147957713Y-98241212D01*
X147897205Y-98095133D01*
X147800951Y-97969692D01*
X147675510Y-97873438D01*
X147662036Y-97867857D01*
X147529431Y-97812930D01*
X147529429Y-97812929D01*
X147372670Y-97792292D01*
X147372668Y-97792292D01*
X147215908Y-97812929D01*
X147215906Y-97812930D01*
X147069829Y-97873437D01*
X146944387Y-97969692D01*
X146848132Y-98095134D01*
X146787625Y-98241211D01*
X146787624Y-98241213D01*
X146766987Y-98397972D01*
X146766987Y-98397975D01*
X146775915Y-98465791D01*
X146765149Y-98534826D01*
X146740658Y-98569657D01*
X146489534Y-98820782D01*
X146489533Y-98820784D01*
X146446681Y-98895004D01*
X146446682Y-98895005D01*
X146424500Y-98977790D01*
X146424500Y-100555500D01*
X146404815Y-100622539D01*
X146352011Y-100668294D01*
X146300500Y-100679500D01*
X145530247Y-100679500D01*
X145471770Y-100691131D01*
X145471768Y-100691132D01*
X145468387Y-100693392D01*
X145401708Y-100714267D01*
X145334329Y-100695780D01*
X145287641Y-100643799D01*
X145275500Y-100590287D01*
X145275500Y-100520753D01*
X145275500Y-100520751D01*
X145253318Y-100437966D01*
X145253314Y-100437959D01*
X145210469Y-100363748D01*
X145210463Y-100363740D01*
X144611819Y-99765096D01*
X144578334Y-99703773D01*
X144575500Y-99677415D01*
X144575500Y-96958981D01*
X144595185Y-96891942D01*
X144611819Y-96871300D01*
X144807984Y-96675135D01*
X145110465Y-96372654D01*
X145153318Y-96298431D01*
X145175500Y-96215645D01*
X145175500Y-96129939D01*
X145175500Y-90316663D01*
X145195185Y-90249624D01*
X145247989Y-90203869D01*
X145317147Y-90193925D01*
X145346947Y-90202100D01*
G37*
%TD.AperFunction*%
%TA.AperFunction,Conductor*%
G36*
X143343834Y-96969007D02*
G01*
X143399767Y-97010879D01*
X143424184Y-97076343D01*
X143424500Y-97085189D01*
X143424500Y-99957147D01*
X143424500Y-100042853D01*
X143432072Y-100071112D01*
X143446682Y-100125640D01*
X143461212Y-100150806D01*
X143489535Y-100199862D01*
X143489537Y-100199864D01*
X143757492Y-100467819D01*
X143790977Y-100529142D01*
X143785993Y-100598834D01*
X143744121Y-100654767D01*
X143678657Y-100679184D01*
X143669811Y-100679500D01*
X142791189Y-100679500D01*
X142724150Y-100659815D01*
X142703508Y-100643181D01*
X142611819Y-100551492D01*
X142578334Y-100490169D01*
X142575500Y-100463811D01*
X142575500Y-97686189D01*
X142595185Y-97619150D01*
X142611819Y-97598508D01*
X143212819Y-96997508D01*
X143274142Y-96964023D01*
X143343834Y-96969007D01*
G37*
%TD.AperFunction*%
%TA.AperFunction,Conductor*%
G36*
X158669334Y-78166299D02*
G01*
X158725267Y-78208171D01*
X158749684Y-78273635D01*
X158750000Y-78282481D01*
X158750000Y-97914483D01*
X158730315Y-97981522D01*
X158677511Y-98027277D01*
X158626000Y-98038483D01*
X158050171Y-98038483D01*
X157983132Y-98018798D01*
X157962495Y-98002169D01*
X157861817Y-97901490D01*
X157828334Y-97840168D01*
X157825500Y-97813811D01*
X157825500Y-95957149D01*
X157825500Y-95957147D01*
X157803318Y-95874362D01*
X157771333Y-95818962D01*
X157754861Y-95751066D01*
X157777713Y-95685039D01*
X157791034Y-95669290D01*
X158164652Y-95295673D01*
X158164657Y-95295669D01*
X158174860Y-95285465D01*
X158174862Y-95285465D01*
X158235465Y-95224862D01*
X158275705Y-95155164D01*
X158278318Y-95150639D01*
X158300500Y-95067853D01*
X158300500Y-94982147D01*
X158300500Y-87182147D01*
X158278318Y-87099362D01*
X158278314Y-87099355D01*
X158235469Y-87025144D01*
X158235463Y-87025136D01*
X157941479Y-86731152D01*
X157907994Y-86669829D01*
X157912978Y-86600137D01*
X157954850Y-86544204D01*
X157981697Y-86528915D01*
X158052994Y-86499383D01*
X158178435Y-86403129D01*
X158274689Y-86277688D01*
X158335197Y-86131609D01*
X158348955Y-86027101D01*
X158355835Y-85974848D01*
X158355835Y-85974845D01*
X158337285Y-85833943D01*
X158335197Y-85818085D01*
X158274689Y-85672006D01*
X158178435Y-85546565D01*
X158178433Y-85546563D01*
X158178432Y-85546562D01*
X158124165Y-85504921D01*
X158082963Y-85448493D01*
X158075653Y-85406546D01*
X158075653Y-83803008D01*
X158075654Y-83802995D01*
X158075654Y-83707302D01*
X158055479Y-83632011D01*
X158053471Y-83624515D01*
X158053470Y-83624514D01*
X158053470Y-83624512D01*
X158053468Y-83624509D01*
X158036032Y-83594309D01*
X158036030Y-83594307D01*
X158030682Y-83585044D01*
X158010618Y-83550291D01*
X157950015Y-83489688D01*
X157950014Y-83489687D01*
X157945684Y-83485357D01*
X157945673Y-83485347D01*
X157632011Y-83171685D01*
X157598526Y-83110362D01*
X157596753Y-83067818D01*
X157605682Y-83000000D01*
X157605682Y-82999999D01*
X157596753Y-82932180D01*
X157607518Y-82863145D01*
X157632008Y-82828316D01*
X157914652Y-82545673D01*
X157914657Y-82545669D01*
X157924860Y-82535465D01*
X157924862Y-82535465D01*
X157985465Y-82474862D01*
X158025596Y-82405353D01*
X158028318Y-82400639D01*
X158050500Y-82317853D01*
X158050500Y-82232147D01*
X158050500Y-78733981D01*
X158070185Y-78666942D01*
X158086819Y-78646300D01*
X158538319Y-78194800D01*
X158599642Y-78161315D01*
X158669334Y-78166299D01*
G37*
%TD.AperFunction*%
%TA.AperFunction,Conductor*%
G36*
X156780703Y-89128983D02*
G01*
X156797874Y-89147208D01*
X156821718Y-89178282D01*
X156947159Y-89274536D01*
X157093238Y-89335044D01*
X157159329Y-89343745D01*
X157249999Y-89355682D01*
X157250000Y-89355682D01*
X157250001Y-89355682D01*
X157302254Y-89348802D01*
X157406762Y-89335044D01*
X157478049Y-89305515D01*
X157547516Y-89298047D01*
X157609995Y-89329322D01*
X157645648Y-89389410D01*
X157649500Y-89420077D01*
X157649500Y-94838811D01*
X157629815Y-94905850D01*
X157613181Y-94926492D01*
X157151492Y-95388181D01*
X157090169Y-95421666D01*
X157063811Y-95424500D01*
X154982452Y-95424500D01*
X154899664Y-95446682D01*
X154825443Y-95489535D01*
X154825440Y-95489537D01*
X153951797Y-96363181D01*
X153890474Y-96396666D01*
X153864116Y-96399500D01*
X152435729Y-96399500D01*
X152368690Y-96379815D01*
X152348048Y-96363181D01*
X150480391Y-94495524D01*
X150446906Y-94434201D01*
X150451890Y-94364509D01*
X150493762Y-94308576D01*
X150551885Y-94284904D01*
X150617707Y-94276238D01*
X150686742Y-94287003D01*
X150721574Y-94311496D01*
X150920543Y-94510465D01*
X150994766Y-94553318D01*
X151077552Y-94575500D01*
X151163258Y-94575500D01*
X152194691Y-94575500D01*
X152261730Y-94595185D01*
X152307485Y-94647989D01*
X152317429Y-94717147D01*
X152309252Y-94746950D01*
X152292856Y-94786534D01*
X152270031Y-94841639D01*
X152270030Y-94841641D01*
X152249393Y-94998400D01*
X152249393Y-94998403D01*
X152270030Y-95155162D01*
X152270031Y-95155164D01*
X152294347Y-95213867D01*
X152324003Y-95285465D01*
X152330539Y-95301243D01*
X152426793Y-95426684D01*
X152552234Y-95522938D01*
X152698313Y-95583446D01*
X152776694Y-95593765D01*
X152855074Y-95604084D01*
X152855075Y-95604084D01*
X152855076Y-95604084D01*
X152907329Y-95597204D01*
X153011837Y-95583446D01*
X153157916Y-95522938D01*
X153283357Y-95426684D01*
X153365828Y-95319204D01*
X153402204Y-95287304D01*
X153451460Y-95258867D01*
X154295957Y-94414368D01*
X154357280Y-94380884D01*
X154426971Y-94385868D01*
X154482905Y-94427740D01*
X154498198Y-94454596D01*
X154527727Y-94525884D01*
X154623981Y-94651325D01*
X154749422Y-94747579D01*
X154895501Y-94808087D01*
X154973882Y-94818406D01*
X155052262Y-94828725D01*
X155052263Y-94828725D01*
X155052264Y-94828725D01*
X155104517Y-94821845D01*
X155209025Y-94808087D01*
X155355104Y-94747579D01*
X155480545Y-94651325D01*
X155576799Y-94525884D01*
X155637307Y-94379805D01*
X155657945Y-94223043D01*
X155649016Y-94155224D01*
X155659781Y-94086189D01*
X155684271Y-94051360D01*
X156510465Y-93225168D01*
X156553318Y-93150945D01*
X156575500Y-93068159D01*
X156575500Y-92982453D01*
X156575500Y-89222696D01*
X156595185Y-89155657D01*
X156647989Y-89109902D01*
X156717147Y-89099958D01*
X156780703Y-89128983D01*
G37*
%TD.AperFunction*%
%TA.AperFunction,Conductor*%
G36*
X149499449Y-82418799D02*
G01*
X151341115Y-84260465D01*
X151415338Y-84303318D01*
X151498124Y-84325500D01*
X151583830Y-84325500D01*
X152362856Y-84325500D01*
X152429895Y-84345185D01*
X152475650Y-84397989D01*
X152485594Y-84467147D01*
X152456569Y-84530703D01*
X152450535Y-84537183D01*
X152428687Y-84559030D01*
X152367363Y-84592514D01*
X152324823Y-84594286D01*
X152257006Y-84585358D01*
X152257004Y-84585358D01*
X152100244Y-84605995D01*
X152100242Y-84605996D01*
X151954165Y-84666503D01*
X151828723Y-84762758D01*
X151732468Y-84888200D01*
X151671961Y-85034277D01*
X151671960Y-85034279D01*
X151651323Y-85191038D01*
X151651323Y-85191041D01*
X151671960Y-85347800D01*
X151671961Y-85347802D01*
X151724989Y-85475824D01*
X151732469Y-85493881D01*
X151828723Y-85619322D01*
X151954164Y-85715576D01*
X152100243Y-85776084D01*
X152178624Y-85786403D01*
X152257004Y-85796722D01*
X152257005Y-85796722D01*
X152257006Y-85796722D01*
X152319131Y-85788543D01*
X152413767Y-85776084D01*
X152559846Y-85715576D01*
X152685287Y-85619322D01*
X152781541Y-85493881D01*
X152842049Y-85347802D01*
X152862687Y-85191040D01*
X152853758Y-85123219D01*
X152864523Y-85054187D01*
X152889011Y-85019360D01*
X152962821Y-84945550D01*
X153024143Y-84912068D01*
X153093834Y-84917053D01*
X153149768Y-84958924D01*
X153174184Y-85024389D01*
X153174500Y-85033234D01*
X153174500Y-86457147D01*
X153174500Y-86542853D01*
X153174862Y-86544204D01*
X153196682Y-86625640D01*
X153206160Y-86642055D01*
X153239535Y-86699862D01*
X153699438Y-87159765D01*
X154138181Y-87598507D01*
X154171666Y-87659830D01*
X154174500Y-87686188D01*
X154174500Y-88679479D01*
X154154815Y-88746518D01*
X154102011Y-88792273D01*
X154032853Y-88802217D01*
X153969297Y-88773192D01*
X153935939Y-88726932D01*
X153914538Y-88675267D01*
X153914538Y-88675266D01*
X153818284Y-88549825D01*
X153692843Y-88453571D01*
X153683782Y-88449818D01*
X153546764Y-88393063D01*
X153546762Y-88393062D01*
X153390003Y-88372425D01*
X153390001Y-88372425D01*
X153233241Y-88393062D01*
X153233239Y-88393063D01*
X153087162Y-88453570D01*
X152961720Y-88549825D01*
X152865465Y-88675267D01*
X152804958Y-88821344D01*
X152804957Y-88821346D01*
X152784320Y-88978105D01*
X152784320Y-88978108D01*
X152804957Y-89134867D01*
X152804958Y-89134869D01*
X152850946Y-89245895D01*
X152865466Y-89280948D01*
X152961720Y-89406389D01*
X153087161Y-89502643D01*
X153233240Y-89563151D01*
X153311621Y-89573470D01*
X153390001Y-89583789D01*
X153390002Y-89583789D01*
X153390003Y-89583789D01*
X153416129Y-89580349D01*
X153546764Y-89563151D01*
X153555787Y-89559413D01*
X153625252Y-89551943D01*
X153687732Y-89583216D01*
X153723386Y-89643304D01*
X153727239Y-89673974D01*
X153727239Y-90271264D01*
X153749421Y-90354052D01*
X153770847Y-90391162D01*
X153792274Y-90428274D01*
X153792276Y-90428276D01*
X153888181Y-90524181D01*
X153921666Y-90585504D01*
X153924500Y-90611862D01*
X153924500Y-93177415D01*
X153904815Y-93244454D01*
X153888181Y-93265096D01*
X153265096Y-93888181D01*
X153203773Y-93921666D01*
X153177415Y-93924500D01*
X151306594Y-93924500D01*
X151239555Y-93904815D01*
X151218913Y-93888181D01*
X151181901Y-93851169D01*
X151148416Y-93789846D01*
X151146643Y-93747301D01*
X151152283Y-93704469D01*
X151155572Y-93679485D01*
X151149619Y-93634271D01*
X151134934Y-93522724D01*
X151134934Y-93522723D01*
X151074426Y-93376644D01*
X150978172Y-93251203D01*
X150852731Y-93154949D01*
X150807305Y-93136133D01*
X150706652Y-93094441D01*
X150706650Y-93094440D01*
X150549891Y-93073803D01*
X150549889Y-93073803D01*
X150393129Y-93094440D01*
X150393127Y-93094441D01*
X150247050Y-93154948D01*
X150121608Y-93251203D01*
X150025353Y-93376645D01*
X149964846Y-93522722D01*
X149964846Y-93522724D01*
X149944470Y-93677488D01*
X149916203Y-93741384D01*
X149857878Y-93779855D01*
X149788014Y-93780686D01*
X149733850Y-93748983D01*
X149689336Y-93704469D01*
X149655851Y-93643146D01*
X149660835Y-93573454D01*
X149662434Y-93569390D01*
X149672434Y-93545250D01*
X149693072Y-93388488D01*
X149691380Y-93375639D01*
X149674998Y-93251203D01*
X149672434Y-93231726D01*
X149611926Y-93085647D01*
X149515672Y-92960206D01*
X149390231Y-92863952D01*
X149315436Y-92832971D01*
X149244152Y-92803444D01*
X149244150Y-92803443D01*
X149087391Y-92782806D01*
X149087389Y-92782806D01*
X148930629Y-92803443D01*
X148930624Y-92803445D01*
X148859342Y-92832971D01*
X148789873Y-92840440D01*
X148727394Y-92809164D01*
X148691742Y-92749075D01*
X148687890Y-92718410D01*
X148687890Y-92656379D01*
X148707575Y-92589340D01*
X148760379Y-92543585D01*
X148795704Y-92533440D01*
X148935423Y-92515046D01*
X149081502Y-92454538D01*
X149206943Y-92358284D01*
X149303197Y-92232843D01*
X149363705Y-92086764D01*
X149384343Y-91930002D01*
X149363705Y-91773240D01*
X149303197Y-91627161D01*
X149227659Y-91528718D01*
X149202467Y-91463553D01*
X149216505Y-91395108D01*
X149265319Y-91345118D01*
X149278563Y-91338683D01*
X149342896Y-91312036D01*
X149468337Y-91215782D01*
X149564591Y-91090341D01*
X149625099Y-90944262D01*
X149645737Y-90787500D01*
X149625099Y-90630738D01*
X149564591Y-90484659D01*
X149468337Y-90359218D01*
X149342896Y-90262964D01*
X149310690Y-90249624D01*
X149196817Y-90202456D01*
X149196815Y-90202455D01*
X149040056Y-90181818D01*
X149040054Y-90181818D01*
X148883294Y-90202455D01*
X148883289Y-90202457D01*
X148776331Y-90246760D01*
X148706861Y-90254229D01*
X148644382Y-90222953D01*
X148617239Y-90183859D01*
X148617216Y-90183873D01*
X148617051Y-90183588D01*
X148614318Y-90179651D01*
X148613150Y-90176832D01*
X148613149Y-90176831D01*
X148613148Y-90176828D01*
X148516894Y-90051387D01*
X148391453Y-89955133D01*
X148245374Y-89894625D01*
X148245372Y-89894624D01*
X148088613Y-89873987D01*
X148088611Y-89873987D01*
X147931851Y-89894624D01*
X147931849Y-89894625D01*
X147785772Y-89955132D01*
X147660328Y-90051388D01*
X147618689Y-90105655D01*
X147562261Y-90146858D01*
X147520313Y-90154169D01*
X147415858Y-90154169D01*
X147348819Y-90134484D01*
X147328177Y-90117850D01*
X146999472Y-89789145D01*
X146965987Y-89727822D01*
X146963153Y-89701464D01*
X146963153Y-88455951D01*
X146982838Y-88388912D01*
X147011663Y-88357578D01*
X147065935Y-88315935D01*
X147162189Y-88190494D01*
X147222697Y-88044415D01*
X147243335Y-87887653D01*
X147222697Y-87730891D01*
X147162189Y-87584812D01*
X147065935Y-87459371D01*
X146940494Y-87363117D01*
X146890143Y-87342261D01*
X146794415Y-87302609D01*
X146794413Y-87302608D01*
X146637654Y-87281971D01*
X146637652Y-87281971D01*
X146480892Y-87302608D01*
X146480890Y-87302609D01*
X146334813Y-87363116D01*
X146209371Y-87459371D01*
X146113116Y-87584813D01*
X146052609Y-87730890D01*
X146052608Y-87730892D01*
X146031971Y-87887651D01*
X146031971Y-87887654D01*
X146052608Y-88044413D01*
X146052609Y-88044415D01*
X146111033Y-88185464D01*
X146113117Y-88190494D01*
X146209371Y-88315935D01*
X146263640Y-88357577D01*
X146304842Y-88414002D01*
X146312153Y-88455951D01*
X146312153Y-89255540D01*
X146292468Y-89322579D01*
X146239664Y-89368334D01*
X146170506Y-89378278D01*
X146106950Y-89349253D01*
X146089777Y-89331027D01*
X146070202Y-89305516D01*
X146003282Y-89218304D01*
X145877841Y-89122050D01*
X145773060Y-89078648D01*
X145718658Y-89034808D01*
X145696593Y-88968514D01*
X145705955Y-88916632D01*
X145710044Y-88906762D01*
X145725267Y-88791133D01*
X145730682Y-88750001D01*
X145730682Y-88749998D01*
X145710044Y-88593239D01*
X145710044Y-88593238D01*
X145649536Y-88447159D01*
X145553282Y-88321718D01*
X145427841Y-88225464D01*
X145302175Y-88173411D01*
X145247773Y-88129571D01*
X145225708Y-88063277D01*
X145242987Y-87995578D01*
X145261948Y-87971170D01*
X146460963Y-86772156D01*
X147799151Y-85433968D01*
X147860474Y-85400483D01*
X147886832Y-85397649D01*
X148350341Y-85397649D01*
X148350343Y-85397649D01*
X148433129Y-85375467D01*
X148507352Y-85332614D01*
X148581817Y-85258149D01*
X149627466Y-85258149D01*
X149648103Y-85414908D01*
X149648104Y-85414910D01*
X149708612Y-85560989D01*
X149804866Y-85686430D01*
X149930307Y-85782684D01*
X150076386Y-85843192D01*
X150154767Y-85853511D01*
X150233147Y-85863830D01*
X150233148Y-85863830D01*
X150233149Y-85863830D01*
X150285402Y-85856950D01*
X150389910Y-85843192D01*
X150535989Y-85782684D01*
X150661430Y-85686430D01*
X150757684Y-85560989D01*
X150818192Y-85414910D01*
X150838830Y-85258148D01*
X150835741Y-85234688D01*
X150819414Y-85110666D01*
X150818192Y-85101386D01*
X150757684Y-84955307D01*
X150661430Y-84829866D01*
X150535989Y-84733612D01*
X150488308Y-84713862D01*
X150389910Y-84673104D01*
X150389908Y-84673103D01*
X150233149Y-84652466D01*
X150233147Y-84652466D01*
X150076387Y-84673103D01*
X150076385Y-84673104D01*
X149930308Y-84733611D01*
X149804866Y-84829866D01*
X149708611Y-84955308D01*
X149648104Y-85101385D01*
X149648103Y-85101387D01*
X149627466Y-85258146D01*
X149627466Y-85258149D01*
X148581817Y-85258149D01*
X149185441Y-84654522D01*
X149185446Y-84654519D01*
X149195649Y-84644315D01*
X149195651Y-84644315D01*
X149256254Y-84583712D01*
X149290773Y-84523923D01*
X149299107Y-84509489D01*
X149321289Y-84426703D01*
X149321289Y-84340997D01*
X149321289Y-82645570D01*
X149305437Y-82586408D01*
X149299107Y-82562784D01*
X149299105Y-82562780D01*
X149296782Y-82557172D01*
X149288402Y-82493541D01*
X149288829Y-82490297D01*
X149317092Y-82426403D01*
X149375414Y-82387929D01*
X149445279Y-82387094D01*
X149499449Y-82418799D01*
G37*
%TD.AperFunction*%
%TA.AperFunction,Conductor*%
G36*
X155238363Y-86702698D02*
G01*
X155259005Y-86719332D01*
X155888181Y-87348508D01*
X155921666Y-87409831D01*
X155924500Y-87436189D01*
X155924500Y-92839116D01*
X155904815Y-92906155D01*
X155888181Y-92926797D01*
X155537181Y-93277797D01*
X155475858Y-93311282D01*
X155406166Y-93306298D01*
X155350233Y-93264426D01*
X155325816Y-93198962D01*
X155325500Y-93190116D01*
X155325500Y-90203223D01*
X155325501Y-90203210D01*
X155325501Y-90199540D01*
X155326021Y-90196924D01*
X155327187Y-90182838D01*
X155327188Y-90182832D01*
X155328771Y-90183095D01*
X155334940Y-90152087D01*
X155337106Y-90146858D01*
X155362783Y-90084869D01*
X155383421Y-89928107D01*
X155362783Y-89771345D01*
X155302275Y-89625266D01*
X155206021Y-89499825D01*
X155080580Y-89403571D01*
X155046392Y-89389410D01*
X154934501Y-89343063D01*
X154934490Y-89343060D01*
X154933302Y-89342904D01*
X154932374Y-89342493D01*
X154926651Y-89340960D01*
X154926890Y-89340066D01*
X154869408Y-89314631D01*
X154830943Y-89256302D01*
X154825500Y-89219967D01*
X154825500Y-87552855D01*
X154825501Y-87552842D01*
X154825501Y-87457149D01*
X154823757Y-87450639D01*
X154803318Y-87374362D01*
X154789621Y-87350638D01*
X154775043Y-87325388D01*
X154760466Y-87300139D01*
X154695542Y-87235215D01*
X154695530Y-87235204D01*
X154574143Y-87113817D01*
X154540660Y-87052495D01*
X154545644Y-86982803D01*
X154587516Y-86926870D01*
X154614363Y-86911581D01*
X154685660Y-86882049D01*
X154811101Y-86785795D01*
X154852742Y-86731526D01*
X154909170Y-86690324D01*
X154951118Y-86683013D01*
X155171324Y-86683013D01*
X155238363Y-86702698D01*
G37*
%TD.AperFunction*%
%TA.AperFunction,Conductor*%
G36*
X145241206Y-81170185D02*
G01*
X145261848Y-81186819D01*
X145800398Y-81725369D01*
X145833883Y-81786692D01*
X145828899Y-81856384D01*
X145800398Y-81900731D01*
X145287948Y-82413181D01*
X145226625Y-82446666D01*
X145200267Y-82449500D01*
X144623245Y-82449500D01*
X144556206Y-82429815D01*
X144510451Y-82377011D01*
X144500507Y-82307853D01*
X144521477Y-82258068D01*
X144520472Y-82257488D01*
X144524534Y-82250450D01*
X144524536Y-82250448D01*
X144585044Y-82104369D01*
X144605682Y-81947607D01*
X144585044Y-81790845D01*
X144524536Y-81644766D01*
X144428282Y-81519325D01*
X144302841Y-81423071D01*
X144220732Y-81389060D01*
X144166330Y-81345220D01*
X144144265Y-81278926D01*
X144161544Y-81211227D01*
X144212681Y-81163616D01*
X144268186Y-81150500D01*
X145174167Y-81150500D01*
X145241206Y-81170185D01*
G37*
%TD.AperFunction*%
%TA.AperFunction,Conductor*%
G36*
X151601397Y-74530916D02*
G01*
X151647152Y-74583720D01*
X151657296Y-74651415D01*
X151655155Y-74667685D01*
X151644318Y-74750000D01*
X151644318Y-74750001D01*
X151664955Y-74906760D01*
X151664956Y-74906762D01*
X151704312Y-75001777D01*
X151725464Y-75052841D01*
X151821718Y-75178282D01*
X151947159Y-75274536D01*
X152093238Y-75335044D01*
X152171619Y-75345363D01*
X152249999Y-75355682D01*
X152250000Y-75355682D01*
X152250001Y-75355682D01*
X152302254Y-75348802D01*
X152406762Y-75335044D01*
X152552841Y-75274536D01*
X152678282Y-75178282D01*
X152774536Y-75052841D01*
X152835044Y-74906762D01*
X152855682Y-74750000D01*
X152842703Y-74651415D01*
X152853468Y-74582381D01*
X152899848Y-74530125D01*
X152965642Y-74511231D01*
X155816122Y-74511231D01*
X155883161Y-74530916D01*
X155928916Y-74583720D01*
X155938860Y-74652878D01*
X155909835Y-74716434D01*
X155903803Y-74722912D01*
X154880835Y-75745879D01*
X154880833Y-75745882D01*
X154837980Y-75820104D01*
X154821005Y-75883458D01*
X154815798Y-75902889D01*
X154815798Y-76780232D01*
X154796113Y-76847271D01*
X154767286Y-76878607D01*
X154713018Y-76920248D01*
X154616761Y-77045693D01*
X154556254Y-77191770D01*
X154556253Y-77191772D01*
X154535616Y-77348531D01*
X154535616Y-77355267D01*
X154515931Y-77422306D01*
X154463127Y-77468061D01*
X154427802Y-77478206D01*
X154302398Y-77494716D01*
X154302397Y-77494716D01*
X154156320Y-77555223D01*
X154030878Y-77651478D01*
X153934623Y-77776920D01*
X153874116Y-77922997D01*
X153874115Y-77922999D01*
X153853478Y-78079758D01*
X153853478Y-78079761D01*
X153874115Y-78236520D01*
X153874116Y-78236522D01*
X153934624Y-78382601D01*
X154030878Y-78508042D01*
X154156319Y-78604296D01*
X154302398Y-78664804D01*
X154380779Y-78675123D01*
X154459159Y-78685442D01*
X154459160Y-78685442D01*
X154534316Y-78675547D01*
X154603349Y-78686312D01*
X154655605Y-78732692D01*
X154674500Y-78798486D01*
X154674500Y-82100500D01*
X154654815Y-82167539D01*
X154602011Y-82213294D01*
X154550500Y-82224500D01*
X154108694Y-82224500D01*
X154041655Y-82204815D01*
X153995900Y-82152011D01*
X153985956Y-82082853D01*
X153994133Y-82053048D01*
X154028686Y-81969628D01*
X154034629Y-81955281D01*
X154055267Y-81798519D01*
X154051745Y-81771770D01*
X154034629Y-81641758D01*
X154034629Y-81641757D01*
X153974121Y-81495678D01*
X153877867Y-81370237D01*
X153752426Y-81273983D01*
X153606347Y-81213475D01*
X153565656Y-81208118D01*
X153455239Y-81193581D01*
X153391343Y-81165314D01*
X153352872Y-81106990D01*
X153348486Y-81086827D01*
X153334782Y-80982739D01*
X153328343Y-80933826D01*
X153267835Y-80787747D01*
X153171581Y-80662306D01*
X153046140Y-80566052D01*
X152999468Y-80546720D01*
X152900061Y-80505544D01*
X152900059Y-80505543D01*
X152743300Y-80484906D01*
X152743298Y-80484906D01*
X152586538Y-80505543D01*
X152586536Y-80505544D01*
X152440456Y-80566052D01*
X152383154Y-80610022D01*
X152317984Y-80635216D01*
X152249540Y-80621177D01*
X152209293Y-80587133D01*
X152193116Y-80566051D01*
X152178281Y-80546718D01*
X152052840Y-80450464D01*
X152045725Y-80447517D01*
X151906761Y-80389956D01*
X151906759Y-80389955D01*
X151750000Y-80369318D01*
X151749998Y-80369318D01*
X151593238Y-80389955D01*
X151593236Y-80389956D01*
X151447155Y-80450465D01*
X151440118Y-80454528D01*
X151439262Y-80453046D01*
X151383208Y-80474706D01*
X151314766Y-80460655D01*
X151285232Y-80438815D01*
X148013601Y-77167184D01*
X147980116Y-77105861D01*
X147985100Y-77036169D01*
X148026972Y-76980236D01*
X148085095Y-76956564D01*
X148130845Y-76950542D01*
X148276924Y-76890034D01*
X148402365Y-76793780D01*
X148498619Y-76668339D01*
X148559127Y-76522260D01*
X148579765Y-76365498D01*
X148559127Y-76208736D01*
X148498619Y-76062657D01*
X148402365Y-75937216D01*
X148276924Y-75840962D01*
X148226568Y-75820104D01*
X148130845Y-75780454D01*
X148130843Y-75780453D01*
X147974084Y-75759816D01*
X147974082Y-75759816D01*
X147817322Y-75780453D01*
X147817317Y-75780455D01*
X147671952Y-75840667D01*
X147602483Y-75848136D01*
X147540004Y-75816861D01*
X147504352Y-75756772D01*
X147500500Y-75726106D01*
X147500500Y-74635231D01*
X147520185Y-74568192D01*
X147572989Y-74522437D01*
X147624500Y-74511231D01*
X151534358Y-74511231D01*
X151601397Y-74530916D01*
G37*
%TD.AperFunction*%
%TA.AperFunction,Conductor*%
G36*
X148822539Y-48269685D02*
G01*
X148868294Y-48322489D01*
X148879500Y-48374000D01*
X148879500Y-48474752D01*
X148891131Y-48533229D01*
X148891132Y-48533230D01*
X148935447Y-48599552D01*
X149001769Y-48643867D01*
X149001770Y-48643868D01*
X149060247Y-48655499D01*
X149060250Y-48655500D01*
X149060252Y-48655500D01*
X151439750Y-48655500D01*
X151439751Y-48655499D01*
X151454568Y-48652552D01*
X151498229Y-48643868D01*
X151498229Y-48643867D01*
X151498231Y-48643867D01*
X151564552Y-48599552D01*
X151608867Y-48533231D01*
X151608867Y-48533229D01*
X151608868Y-48533229D01*
X151620499Y-48474752D01*
X151620500Y-48474750D01*
X151620500Y-48374000D01*
X151640185Y-48306961D01*
X151692989Y-48261206D01*
X151744500Y-48250000D01*
X158626000Y-48250000D01*
X158693039Y-48269685D01*
X158738794Y-48322489D01*
X158750000Y-48374000D01*
X158750000Y-62637231D01*
X158730315Y-62704270D01*
X158677511Y-62750025D01*
X158626000Y-62761231D01*
X158572995Y-62761231D01*
X158505956Y-62741546D01*
X158460201Y-62688742D01*
X158448995Y-62637231D01*
X158448995Y-57580644D01*
X158448995Y-57580642D01*
X158426813Y-57497857D01*
X158397543Y-57447159D01*
X158383964Y-57423639D01*
X158383958Y-57423631D01*
X153699864Y-52739537D01*
X153699862Y-52739535D01*
X153662750Y-52718108D01*
X153625640Y-52696682D01*
X153584246Y-52685591D01*
X153542853Y-52674500D01*
X153542852Y-52674500D01*
X147186189Y-52674500D01*
X147119150Y-52654815D01*
X147098508Y-52638181D01*
X144111186Y-49650859D01*
X144111184Y-49650857D01*
X144074072Y-49629430D01*
X144036962Y-49608004D01*
X143995568Y-49596913D01*
X143954175Y-49585822D01*
X143954174Y-49585822D01*
X142314362Y-49585822D01*
X142247323Y-49566137D01*
X142215986Y-49537308D01*
X142174346Y-49483041D01*
X142174345Y-49483040D01*
X142048904Y-49386786D01*
X141902825Y-49326278D01*
X141902823Y-49326277D01*
X141746064Y-49305640D01*
X141746062Y-49305640D01*
X141589302Y-49326277D01*
X141589300Y-49326278D01*
X141443223Y-49386785D01*
X141317781Y-49483040D01*
X141221526Y-49608482D01*
X141161019Y-49754559D01*
X141161018Y-49754561D01*
X141140381Y-49911320D01*
X141140381Y-49911323D01*
X141161018Y-50068082D01*
X141161019Y-50068084D01*
X141221527Y-50214163D01*
X141317781Y-50339604D01*
X141443222Y-50435858D01*
X141589301Y-50496366D01*
X141667682Y-50506685D01*
X141746062Y-50517004D01*
X141746063Y-50517004D01*
X141746064Y-50517004D01*
X141798317Y-50510124D01*
X141902825Y-50496366D01*
X142048904Y-50435858D01*
X142174345Y-50339604D01*
X142215986Y-50285335D01*
X142272414Y-50244133D01*
X142314362Y-50236822D01*
X143725133Y-50236822D01*
X143792172Y-50256507D01*
X143812814Y-50273141D01*
X146739534Y-53199861D01*
X146739535Y-53199862D01*
X146800138Y-53260465D01*
X146800140Y-53260466D01*
X146800144Y-53260469D01*
X146874355Y-53303314D01*
X146874362Y-53303318D01*
X146957147Y-53325500D01*
X153313811Y-53325500D01*
X153380850Y-53345185D01*
X153401492Y-53361819D01*
X157761676Y-57722003D01*
X157795161Y-57783326D01*
X157797995Y-57809684D01*
X157797995Y-72777358D01*
X157778310Y-72844397D01*
X157761676Y-72865039D01*
X156401803Y-74224912D01*
X156340480Y-74258397D01*
X156314122Y-74261231D01*
X152641546Y-74261231D01*
X152574507Y-74241546D01*
X152566060Y-74235607D01*
X152552842Y-74225464D01*
X152406762Y-74164956D01*
X152406760Y-74164955D01*
X152250001Y-74144318D01*
X152249999Y-74144318D01*
X152093239Y-74164955D01*
X152093237Y-74164956D01*
X151947157Y-74225464D01*
X151933940Y-74235607D01*
X151868771Y-74260801D01*
X151858454Y-74261231D01*
X147624500Y-74261231D01*
X147557461Y-74241546D01*
X147511706Y-74188742D01*
X147500500Y-74137231D01*
X147500500Y-71463255D01*
X150174500Y-71463255D01*
X150184283Y-71499767D01*
X150196682Y-71546042D01*
X150218108Y-71583152D01*
X150239535Y-71620264D01*
X150239537Y-71620266D01*
X150874110Y-72254839D01*
X150907595Y-72316162D01*
X150909368Y-72358705D01*
X150900440Y-72426522D01*
X150900440Y-72426525D01*
X150921077Y-72583284D01*
X150921078Y-72583286D01*
X150981586Y-72729365D01*
X151077840Y-72854806D01*
X151203281Y-72951060D01*
X151349360Y-73011568D01*
X151427741Y-73021887D01*
X151506121Y-73032206D01*
X151506122Y-73032206D01*
X151506123Y-73032206D01*
X151572843Y-73023422D01*
X151662884Y-73011568D01*
X151808963Y-72951060D01*
X151934404Y-72854806D01*
X152030658Y-72729365D01*
X152091166Y-72583286D01*
X152111804Y-72426524D01*
X152091166Y-72269762D01*
X152030658Y-72123683D01*
X151934404Y-71998242D01*
X151808963Y-71901988D01*
X151747410Y-71876492D01*
X151662884Y-71841480D01*
X151662882Y-71841479D01*
X151506123Y-71820842D01*
X151506121Y-71820842D01*
X151438303Y-71829770D01*
X151369267Y-71819004D01*
X151334437Y-71794512D01*
X150861819Y-71321894D01*
X150828334Y-71260571D01*
X150825500Y-71234213D01*
X150825500Y-68548688D01*
X150845185Y-68481649D01*
X150861819Y-68461007D01*
X153706007Y-65616819D01*
X153767330Y-65583334D01*
X153793688Y-65580500D01*
X153964201Y-65580500D01*
X154031240Y-65600185D01*
X154062576Y-65629013D01*
X154104218Y-65683282D01*
X154167974Y-65732203D01*
X154209175Y-65788630D01*
X154213330Y-65858376D01*
X154179118Y-65919296D01*
X154139940Y-65945139D01*
X154054659Y-65980464D01*
X153929218Y-66076718D01*
X153832963Y-66202160D01*
X153772456Y-66348237D01*
X153772455Y-66348239D01*
X153751818Y-66504998D01*
X153751818Y-66505001D01*
X153772455Y-66661760D01*
X153772456Y-66661762D01*
X153832964Y-66807841D01*
X153929218Y-66933282D01*
X154054659Y-67029536D01*
X154200738Y-67090044D01*
X154279119Y-67100363D01*
X154357499Y-67110682D01*
X154357500Y-67110682D01*
X154357501Y-67110682D01*
X154409754Y-67103802D01*
X154514262Y-67090044D01*
X154660341Y-67029536D01*
X154785782Y-66933282D01*
X154882036Y-66807841D01*
X154942544Y-66661762D01*
X154963182Y-66505000D01*
X154942544Y-66348238D01*
X154882036Y-66202159D01*
X154785782Y-66076718D01*
X154722025Y-66027795D01*
X154680824Y-65971369D01*
X154676669Y-65901623D01*
X154710882Y-65840702D01*
X154750061Y-65814860D01*
X154813386Y-65788630D01*
X154835341Y-65779536D01*
X154960782Y-65683282D01*
X155057036Y-65557841D01*
X155117544Y-65411762D01*
X155138182Y-65255000D01*
X155117544Y-65098238D01*
X155057036Y-64952159D01*
X154960782Y-64826718D01*
X154835341Y-64730464D01*
X154817377Y-64723023D01*
X154762973Y-64679181D01*
X154740909Y-64612887D01*
X154758189Y-64545188D01*
X154789341Y-64510088D01*
X154805887Y-64497393D01*
X154902141Y-64371952D01*
X154962649Y-64225873D01*
X154983287Y-64069111D01*
X154962649Y-63912349D01*
X154902141Y-63766270D01*
X154805887Y-63640829D01*
X154785540Y-63625216D01*
X154744338Y-63568788D01*
X154740183Y-63499042D01*
X154774396Y-63438122D01*
X154785531Y-63428474D01*
X154785782Y-63428282D01*
X154882036Y-63302841D01*
X154942544Y-63156762D01*
X154963182Y-63000000D01*
X154942544Y-62843238D01*
X154882036Y-62697159D01*
X154785782Y-62571718D01*
X154660341Y-62475464D01*
X154617223Y-62457604D01*
X154514262Y-62414956D01*
X154514260Y-62414955D01*
X154357501Y-62394318D01*
X154357499Y-62394318D01*
X154200739Y-62414955D01*
X154200737Y-62414956D01*
X154054660Y-62475463D01*
X153929218Y-62571718D01*
X153832963Y-62697160D01*
X153772456Y-62843237D01*
X153772455Y-62843239D01*
X153751818Y-62999998D01*
X153751818Y-63000001D01*
X153772455Y-63156760D01*
X153772456Y-63156762D01*
X153832964Y-63302841D01*
X153929215Y-63428278D01*
X153929219Y-63428283D01*
X153949563Y-63443893D01*
X153990766Y-63500321D01*
X153994921Y-63570067D01*
X153960709Y-63630987D01*
X153949571Y-63640637D01*
X153949384Y-63640781D01*
X153949324Y-63640828D01*
X153853068Y-63766271D01*
X153792561Y-63912348D01*
X153792560Y-63912350D01*
X153771923Y-64069109D01*
X153771923Y-64069112D01*
X153792560Y-64225871D01*
X153792561Y-64225873D01*
X153853069Y-64371952D01*
X153949323Y-64497393D01*
X154074764Y-64593647D01*
X154092726Y-64601087D01*
X154147129Y-64644927D01*
X154169195Y-64711220D01*
X154151917Y-64778920D01*
X154120764Y-64814021D01*
X154104218Y-64826717D01*
X154062577Y-64880986D01*
X154006149Y-64922189D01*
X153964201Y-64929500D01*
X153657965Y-64929500D01*
X153657949Y-64929499D01*
X153650353Y-64929499D01*
X153564647Y-64929499D01*
X153531533Y-64938372D01*
X153481859Y-64951682D01*
X153481858Y-64951683D01*
X153407641Y-64994532D01*
X153407636Y-64994536D01*
X150239537Y-68162635D01*
X150239533Y-68162641D01*
X150196681Y-68236861D01*
X150196682Y-68236862D01*
X150174500Y-68319647D01*
X150174500Y-71377549D01*
X150174500Y-71463255D01*
X147500500Y-71463255D01*
X147500500Y-70005804D01*
X147500500Y-70005801D01*
X147492136Y-69974585D01*
X147478318Y-69923015D01*
X147435465Y-69848792D01*
X146969859Y-69383186D01*
X146936374Y-69321863D01*
X146933540Y-69295505D01*
X146933540Y-62385244D01*
X146953225Y-62318205D01*
X147006029Y-62272450D01*
X147057551Y-62261244D01*
X153684462Y-62261970D01*
X153684462Y-62011969D01*
X146683540Y-62011231D01*
X146683540Y-68797505D01*
X146663855Y-68864544D01*
X146611051Y-68910299D01*
X146541893Y-68920243D01*
X146478337Y-68891218D01*
X146471859Y-68885186D01*
X146361819Y-68775146D01*
X146328334Y-68713823D01*
X146325500Y-68687465D01*
X146325500Y-58322585D01*
X146345185Y-58255546D01*
X146361819Y-58234904D01*
X147297819Y-57298904D01*
X147359142Y-57265419D01*
X147428834Y-57270403D01*
X147484767Y-57312275D01*
X147509184Y-57377739D01*
X147509500Y-57386585D01*
X147509500Y-61324752D01*
X147521131Y-61383229D01*
X147521132Y-61383230D01*
X147565447Y-61449552D01*
X147631769Y-61493867D01*
X147631770Y-61493868D01*
X147690247Y-61505499D01*
X147690250Y-61505500D01*
X147690252Y-61505500D01*
X152809750Y-61505500D01*
X152809751Y-61505499D01*
X152824568Y-61502552D01*
X152868229Y-61493868D01*
X152868229Y-61493867D01*
X152868231Y-61493867D01*
X152934552Y-61449552D01*
X152978867Y-61383231D01*
X152978867Y-61383229D01*
X152978868Y-61383229D01*
X152990499Y-61324752D01*
X152990500Y-61324750D01*
X152990500Y-59500001D01*
X154144318Y-59500001D01*
X154164955Y-59656760D01*
X154164956Y-59656762D01*
X154225464Y-59802841D01*
X154321718Y-59928282D01*
X154447159Y-60024536D01*
X154593238Y-60085044D01*
X154671619Y-60095363D01*
X154749999Y-60105682D01*
X154750000Y-60105682D01*
X154750001Y-60105682D01*
X154802254Y-60098802D01*
X154906762Y-60085044D01*
X155052841Y-60024536D01*
X155178282Y-59928282D01*
X155274536Y-59802841D01*
X155335044Y-59656762D01*
X155355682Y-59500000D01*
X155335044Y-59343238D01*
X155274536Y-59197159D01*
X155178282Y-59071718D01*
X155052841Y-58975464D01*
X155012149Y-58958609D01*
X154906762Y-58914956D01*
X154906760Y-58914955D01*
X154750001Y-58894318D01*
X154749999Y-58894318D01*
X154593239Y-58914955D01*
X154593237Y-58914956D01*
X154447160Y-58975463D01*
X154321718Y-59071718D01*
X154225463Y-59197160D01*
X154164956Y-59343237D01*
X154164955Y-59343239D01*
X154144318Y-59499998D01*
X154144318Y-59500001D01*
X152990500Y-59500001D01*
X152990500Y-58867408D01*
X153010185Y-58800369D01*
X153062989Y-58754614D01*
X153132147Y-58744670D01*
X153189986Y-58769032D01*
X153197159Y-58774536D01*
X153343238Y-58835044D01*
X153421619Y-58845363D01*
X153499999Y-58855682D01*
X153500000Y-58855682D01*
X153500001Y-58855682D01*
X153552254Y-58848802D01*
X153656762Y-58835044D01*
X153802841Y-58774536D01*
X153928282Y-58678282D01*
X154024536Y-58552841D01*
X154085044Y-58406762D01*
X154105682Y-58250000D01*
X154105475Y-58248430D01*
X154085044Y-58093239D01*
X154085044Y-58093238D01*
X154024536Y-57947159D01*
X153928282Y-57821718D01*
X153928280Y-57821716D01*
X153928279Y-57821715D01*
X153874012Y-57780074D01*
X153832810Y-57723646D01*
X153825500Y-57681699D01*
X153825500Y-55707149D01*
X153825500Y-55707147D01*
X153803318Y-55624362D01*
X153803318Y-55624361D01*
X153760465Y-55550138D01*
X152749862Y-54539535D01*
X152712750Y-54518108D01*
X152675640Y-54496682D01*
X152634246Y-54485591D01*
X152592853Y-54474500D01*
X152592852Y-54474500D01*
X148114069Y-54474500D01*
X148114053Y-54474499D01*
X148106457Y-54474499D01*
X148020751Y-54474499D01*
X147965560Y-54489287D01*
X147937964Y-54496682D01*
X147919409Y-54507395D01*
X147900854Y-54518108D01*
X147863742Y-54539535D01*
X147863739Y-54539537D01*
X144489537Y-57913739D01*
X144489533Y-57913745D01*
X144446681Y-57987965D01*
X144446682Y-57987966D01*
X144424500Y-58070751D01*
X144424500Y-73985449D01*
X144404815Y-74052488D01*
X144352011Y-74098243D01*
X144282853Y-74108187D01*
X144219297Y-74079162D01*
X144212819Y-74073130D01*
X144111819Y-73972130D01*
X144078334Y-73910807D01*
X144075500Y-73884449D01*
X144075500Y-67924236D01*
X144075500Y-67924234D01*
X144036281Y-67777865D01*
X143960515Y-67646635D01*
X143853365Y-67539485D01*
X142906250Y-66592370D01*
X142872765Y-66531047D01*
X142869931Y-66504689D01*
X142869931Y-64626657D01*
X142889616Y-64559618D01*
X142942420Y-64513863D01*
X142993931Y-64502657D01*
X143164181Y-64502657D01*
X143164182Y-64502656D01*
X143178999Y-64499709D01*
X143222660Y-64491025D01*
X143222660Y-64491024D01*
X143222662Y-64491024D01*
X143288983Y-64446709D01*
X143333298Y-64380388D01*
X143333298Y-64380386D01*
X143333299Y-64380386D01*
X143344930Y-64321909D01*
X143344931Y-64321907D01*
X143344931Y-62582406D01*
X143344930Y-62582404D01*
X143333299Y-62523927D01*
X143333298Y-62523926D01*
X143288983Y-62457604D01*
X143222661Y-62413289D01*
X143222660Y-62413288D01*
X143164183Y-62401657D01*
X143164179Y-62401657D01*
X141424683Y-62401657D01*
X141424678Y-62401657D01*
X141366201Y-62413288D01*
X141366200Y-62413289D01*
X141299878Y-62457604D01*
X141255563Y-62523926D01*
X141255562Y-62523927D01*
X141243931Y-62582404D01*
X141243931Y-64321909D01*
X141255562Y-64380386D01*
X141255563Y-64380387D01*
X141299878Y-64446709D01*
X141366200Y-64491024D01*
X141366201Y-64491025D01*
X141424678Y-64502656D01*
X141424681Y-64502657D01*
X141424683Y-64502657D01*
X141594931Y-64502657D01*
X141661970Y-64522342D01*
X141707725Y-64575146D01*
X141718931Y-64626657D01*
X141718931Y-66870196D01*
X141758150Y-67016567D01*
X141765638Y-67029536D01*
X141833916Y-67147796D01*
X141833918Y-67147798D01*
X142176999Y-67490879D01*
X142210484Y-67552202D01*
X142205500Y-67621894D01*
X142163628Y-67677827D01*
X142121413Y-67698334D01*
X141976739Y-67737100D01*
X141976735Y-67737102D01*
X141851212Y-67809573D01*
X141851206Y-67809578D01*
X141748717Y-67912067D01*
X141748712Y-67912073D01*
X141676241Y-68037596D01*
X141676240Y-68037600D01*
X141638724Y-68177610D01*
X141638724Y-68322560D01*
X141670957Y-68442853D01*
X141676241Y-68462573D01*
X141748712Y-68588096D01*
X141748714Y-68588098D01*
X141748715Y-68588100D01*
X141851209Y-68690594D01*
X141851210Y-68690595D01*
X141851212Y-68690596D01*
X141976735Y-68763067D01*
X141976736Y-68763067D01*
X141976739Y-68763069D01*
X142116749Y-68800585D01*
X142116752Y-68800585D01*
X142261696Y-68800585D01*
X142261699Y-68800585D01*
X142401709Y-68763069D01*
X142527239Y-68690594D01*
X142629733Y-68588100D01*
X142693113Y-68478323D01*
X142743680Y-68430107D01*
X142812287Y-68416885D01*
X142877152Y-68442853D01*
X142917680Y-68499767D01*
X142924500Y-68540323D01*
X142924500Y-70959846D01*
X142904815Y-71026885D01*
X142852011Y-71072640D01*
X142782853Y-71082584D01*
X142719297Y-71053559D01*
X142693113Y-71021847D01*
X142691477Y-71019014D01*
X142629733Y-70912070D01*
X142527239Y-70809576D01*
X142527237Y-70809575D01*
X142527235Y-70809573D01*
X142401712Y-70737102D01*
X142401713Y-70737102D01*
X142390230Y-70734025D01*
X142261699Y-70699585D01*
X142116749Y-70699585D01*
X141988217Y-70734025D01*
X141976735Y-70737102D01*
X141851212Y-70809573D01*
X141851206Y-70809578D01*
X141748717Y-70912067D01*
X141748712Y-70912073D01*
X141676241Y-71037596D01*
X141676240Y-71037600D01*
X141638724Y-71177610D01*
X141638724Y-71322560D01*
X141670957Y-71442853D01*
X141676241Y-71462573D01*
X141748712Y-71588096D01*
X141748714Y-71588098D01*
X141748715Y-71588100D01*
X141851209Y-71690594D01*
X141851210Y-71690595D01*
X141851212Y-71690596D01*
X141976735Y-71763067D01*
X141976736Y-71763067D01*
X141976739Y-71763069D01*
X142116749Y-71800585D01*
X142116752Y-71800585D01*
X142261696Y-71800585D01*
X142261699Y-71800585D01*
X142401709Y-71763069D01*
X142527239Y-71690594D01*
X142629733Y-71588100D01*
X142693113Y-71478323D01*
X142743680Y-71430107D01*
X142812287Y-71416885D01*
X142877152Y-71442853D01*
X142917680Y-71499767D01*
X142924500Y-71540323D01*
X142924500Y-74098425D01*
X142924500Y-74249957D01*
X142927406Y-74260801D01*
X142963719Y-74396327D01*
X142981353Y-74426869D01*
X143039485Y-74527556D01*
X143039487Y-74527558D01*
X143473478Y-74961549D01*
X143495983Y-74995229D01*
X143496398Y-74994990D01*
X143500054Y-75001323D01*
X143500358Y-75001777D01*
X143500462Y-75002029D01*
X143500464Y-75002032D01*
X143570491Y-75093294D01*
X143596718Y-75127473D01*
X143722159Y-75223727D01*
X143868238Y-75284235D01*
X143946619Y-75294554D01*
X144024999Y-75304873D01*
X144025000Y-75304873D01*
X144025001Y-75304873D01*
X144102272Y-75294700D01*
X144181762Y-75284235D01*
X144253049Y-75254706D01*
X144322516Y-75247238D01*
X144384995Y-75278513D01*
X144420648Y-75338601D01*
X144424500Y-75369268D01*
X144424500Y-79288506D01*
X144404815Y-79355545D01*
X144388181Y-79376187D01*
X144049554Y-79714814D01*
X143988231Y-79748299D01*
X143961873Y-79751133D01*
X143495383Y-79751133D01*
X143428344Y-79731448D01*
X143397007Y-79702619D01*
X143355367Y-79648352D01*
X143355366Y-79648351D01*
X143229925Y-79552097D01*
X143165260Y-79525312D01*
X143083846Y-79491589D01*
X143083844Y-79491588D01*
X142927085Y-79470951D01*
X142927083Y-79470951D01*
X142770323Y-79491588D01*
X142770321Y-79491589D01*
X142624244Y-79552096D01*
X142498802Y-79648351D01*
X142402547Y-79773793D01*
X142342040Y-79919870D01*
X142342039Y-79919872D01*
X142321402Y-80076631D01*
X142321402Y-80076634D01*
X142342039Y-80233393D01*
X142342040Y-80233395D01*
X142384995Y-80337098D01*
X142401957Y-80378047D01*
X142409426Y-80447517D01*
X142378151Y-80509996D01*
X142318062Y-80545648D01*
X142287396Y-80549500D01*
X141629448Y-80549500D01*
X141591234Y-80559739D01*
X141553019Y-80569979D01*
X141553018Y-80569980D01*
X141498999Y-80601167D01*
X141499000Y-80601168D01*
X141484497Y-80609541D01*
X141055149Y-81038888D01*
X140993826Y-81072373D01*
X140951283Y-81074146D01*
X140852224Y-81061105D01*
X140852222Y-81061105D01*
X140695462Y-81081742D01*
X140695460Y-81081743D01*
X140549380Y-81142251D01*
X140443060Y-81223834D01*
X140377891Y-81249028D01*
X140309446Y-81234989D01*
X140259457Y-81186175D01*
X140243575Y-81125440D01*
X140243940Y-79001100D01*
X141192809Y-79001100D01*
X141213446Y-79157859D01*
X141213447Y-79157861D01*
X141273955Y-79303940D01*
X141370209Y-79429381D01*
X141495650Y-79525635D01*
X141641729Y-79586143D01*
X141720110Y-79596462D01*
X141798490Y-79606781D01*
X141798491Y-79606781D01*
X141798492Y-79606781D01*
X141850745Y-79599901D01*
X141955253Y-79586143D01*
X142101332Y-79525635D01*
X142226773Y-79429381D01*
X142323027Y-79303940D01*
X142383535Y-79157861D01*
X142404173Y-79001099D01*
X142383535Y-78844337D01*
X142323027Y-78698258D01*
X142226773Y-78572817D01*
X142101332Y-78476563D01*
X141955253Y-78416055D01*
X141955251Y-78416054D01*
X141798492Y-78395417D01*
X141798490Y-78395417D01*
X141641730Y-78416054D01*
X141641728Y-78416055D01*
X141495651Y-78476562D01*
X141370209Y-78572817D01*
X141273954Y-78698259D01*
X141213447Y-78844336D01*
X141213446Y-78844338D01*
X141192809Y-79001097D01*
X141192809Y-79001100D01*
X140243940Y-79001100D01*
X140247486Y-58372157D01*
X141238848Y-58372157D01*
X141259130Y-58578089D01*
X141259131Y-58578091D01*
X141319199Y-58776111D01*
X141416746Y-58958607D01*
X141416748Y-58958609D01*
X141548020Y-59118567D01*
X141643786Y-59197159D01*
X141707981Y-59249842D01*
X141890477Y-59347389D01*
X142088497Y-59407457D01*
X142088496Y-59407457D01*
X142106960Y-59409275D01*
X142294431Y-59427740D01*
X142500365Y-59407457D01*
X142698385Y-59347389D01*
X142880881Y-59249842D01*
X143040841Y-59118567D01*
X143172116Y-58958607D01*
X143269663Y-58776111D01*
X143329731Y-58578091D01*
X143350014Y-58372157D01*
X143329731Y-58166223D01*
X143269663Y-57968203D01*
X143172116Y-57785707D01*
X143119836Y-57722003D01*
X143040841Y-57625746D01*
X142923108Y-57529126D01*
X142880881Y-57494472D01*
X142698385Y-57396925D01*
X142500365Y-57336857D01*
X142500363Y-57336856D01*
X142500365Y-57336856D01*
X142294431Y-57316574D01*
X142088498Y-57336856D01*
X141890474Y-57396926D01*
X141780329Y-57455800D01*
X141707981Y-57494472D01*
X141707979Y-57494473D01*
X141707978Y-57494474D01*
X141548020Y-57625746D01*
X141416748Y-57785704D01*
X141319200Y-57968200D01*
X141259130Y-58166224D01*
X141238848Y-58372157D01*
X140247486Y-58372157D01*
X140248319Y-53527004D01*
X144161741Y-53527004D01*
X144182378Y-53683763D01*
X144182379Y-53683765D01*
X144242887Y-53829844D01*
X144339141Y-53955285D01*
X144464582Y-54051539D01*
X144610661Y-54112047D01*
X144689042Y-54122366D01*
X144767422Y-54132685D01*
X144767423Y-54132685D01*
X144767424Y-54132685D01*
X144819677Y-54125805D01*
X144924185Y-54112047D01*
X145070264Y-54051539D01*
X145195705Y-53955285D01*
X145291959Y-53829844D01*
X145352467Y-53683765D01*
X145373105Y-53527003D01*
X145352467Y-53370241D01*
X145291959Y-53224162D01*
X145195705Y-53098721D01*
X145070264Y-53002467D01*
X144924185Y-52941959D01*
X144924183Y-52941958D01*
X144767424Y-52921321D01*
X144767422Y-52921321D01*
X144610662Y-52941958D01*
X144610660Y-52941959D01*
X144464583Y-53002466D01*
X144339141Y-53098721D01*
X144242886Y-53224163D01*
X144182379Y-53370240D01*
X144182378Y-53370242D01*
X144161741Y-53527001D01*
X144161741Y-53527004D01*
X140248319Y-53527004D01*
X140249205Y-48373978D01*
X140268901Y-48306943D01*
X140321713Y-48261197D01*
X140373205Y-48250000D01*
X148755500Y-48250000D01*
X148822539Y-48269685D01*
G37*
%TD.AperFunction*%
%TA.AperFunction,Conductor*%
G36*
X145280703Y-69251525D02*
G01*
X145287167Y-69257544D01*
X145878413Y-69848789D01*
X146363181Y-70333557D01*
X146396666Y-70394880D01*
X146399500Y-70421238D01*
X146399500Y-76538284D01*
X146379815Y-76605323D01*
X146327011Y-76651078D01*
X146257853Y-76661022D01*
X146200015Y-76636661D01*
X146152841Y-76600464D01*
X146006762Y-76539956D01*
X146006760Y-76539955D01*
X145850001Y-76519318D01*
X145849999Y-76519318D01*
X145693239Y-76539955D01*
X145693237Y-76539956D01*
X145547160Y-76600463D01*
X145421718Y-76696718D01*
X145325463Y-76822160D01*
X145314061Y-76849688D01*
X145270220Y-76904092D01*
X145203925Y-76926156D01*
X145136226Y-76908876D01*
X145088616Y-76857739D01*
X145075500Y-76802235D01*
X145075500Y-69345238D01*
X145095185Y-69278199D01*
X145147989Y-69232444D01*
X145217147Y-69222500D01*
X145280703Y-69251525D01*
G37*
%TD.AperFunction*%
%TA.AperFunction,Conductor*%
G36*
X152430850Y-55145185D02*
G01*
X152451492Y-55161819D01*
X153138181Y-55848508D01*
X153171666Y-55909831D01*
X153174500Y-55936189D01*
X153174500Y-57150781D01*
X153154815Y-57217820D01*
X153102011Y-57263575D01*
X153032853Y-57273519D01*
X152969297Y-57244494D01*
X152947399Y-57219673D01*
X152934553Y-57200448D01*
X152868230Y-57156132D01*
X152868229Y-57156131D01*
X152809752Y-57144500D01*
X152809748Y-57144500D01*
X152509512Y-57144500D01*
X152506735Y-57144318D01*
X152493265Y-57144318D01*
X152490488Y-57144500D01*
X147751585Y-57144500D01*
X147684546Y-57124815D01*
X147638791Y-57072011D01*
X147628847Y-57002853D01*
X147657872Y-56939297D01*
X147663904Y-56932819D01*
X148234904Y-56361819D01*
X148296227Y-56328334D01*
X148322585Y-56325500D01*
X150619077Y-56325500D01*
X150686116Y-56345185D01*
X150706758Y-56361819D01*
X150794800Y-56449861D01*
X150794801Y-56449862D01*
X150855404Y-56510465D01*
X150855406Y-56510466D01*
X150855410Y-56510469D01*
X150928798Y-56552839D01*
X150929628Y-56553318D01*
X151012413Y-56575500D01*
X151681701Y-56575500D01*
X151748740Y-56595185D01*
X151780076Y-56624013D01*
X151821718Y-56678282D01*
X151947159Y-56774536D01*
X152093238Y-56835044D01*
X152171619Y-56845363D01*
X152249999Y-56855682D01*
X152250000Y-56855682D01*
X152250001Y-56855682D01*
X152302254Y-56848802D01*
X152406762Y-56835044D01*
X152552841Y-56774536D01*
X152678282Y-56678282D01*
X152774536Y-56552841D01*
X152835044Y-56406762D01*
X152855682Y-56250000D01*
X152835044Y-56093238D01*
X152774536Y-55947159D01*
X152678282Y-55821718D01*
X152552841Y-55725464D01*
X152406762Y-55664956D01*
X152406760Y-55664955D01*
X152250001Y-55644318D01*
X152249999Y-55644318D01*
X152100391Y-55664014D01*
X152031356Y-55653248D01*
X151979100Y-55606868D01*
X151960215Y-55539599D01*
X151961253Y-55525089D01*
X151961253Y-55524998D01*
X151940615Y-55368239D01*
X151940613Y-55368234D01*
X151911088Y-55296952D01*
X151903619Y-55227483D01*
X151934895Y-55165004D01*
X151994984Y-55129352D01*
X152025649Y-55125500D01*
X152363811Y-55125500D01*
X152430850Y-55145185D01*
G37*
%TD.AperFunction*%
%TD*%
M02*
