%TF.GenerationSoftware,KiCad,Pcbnew,8.0.1*%
%TF.CreationDate,2024-07-16T16:14:49-04:00*%
%TF.ProjectId,Tiny4FSK,54696e79-3446-4534-9b2e-6b696361645f,rev?*%
%TF.SameCoordinates,Original*%
%TF.FileFunction,Drillmap*%
%TF.FilePolarity,Positive*%
%FSLAX45Y45*%
G04 Gerber Fmt 4.5, Leading zero omitted, Abs format (unit mm)*
G04 Created by KiCad (PCBNEW 8.0.1) date 2024-07-16 16:14:49*
%MOMM*%
%LPD*%
G01*
G04 APERTURE LIST*
%ADD10C,0.100000*%
%ADD11C,0.200000*%
%ADD12C,0.120000*%
G04 APERTURE END LIST*
D10*
X15875000Y-4825000D02*
X15925000Y-4825000D01*
X15925000Y-7475000D01*
X15875000Y-7475000D01*
X15875000Y-4825000D01*
X15875000Y-7725000D02*
X15925000Y-7725000D01*
X15925000Y-8025000D01*
X15875000Y-8025000D01*
X15875000Y-7725000D01*
X15875000Y-8125000D02*
X15925000Y-8125000D01*
X15925000Y-8425000D01*
X15875000Y-8425000D01*
X15875000Y-8125000D01*
X15875000Y-8550000D02*
X15925000Y-8550000D01*
X15925000Y-9800000D01*
X15875000Y-9800000D01*
X15875000Y-8550000D01*
X15874984Y-10042287D02*
X15924984Y-10042287D01*
X15924984Y-10767287D01*
X15874984Y-10767287D01*
X15874984Y-10042287D01*
X15700000Y-4800000D02*
X15900000Y-4800000D01*
X15975000Y-4800000D01*
X16300000Y-4800000D01*
X16299871Y-10792910D01*
X14026115Y-10792672D01*
X14025000Y-4775000D01*
X14450000Y-4775000D01*
X14450000Y-4400000D01*
X15700000Y-4400000D01*
X15700000Y-4800000D01*
D11*
D10*
X15140000Y-9090000D02*
X15160000Y-9110000D01*
X15160000Y-9090000D02*
X15140000Y-9110000D01*
X15140000Y-9290000D02*
X15160000Y-9310000D01*
X15160000Y-9290000D02*
X15140000Y-9310000D01*
X15340000Y-9090000D02*
X15360000Y-9110000D01*
X15360000Y-9090000D02*
X15340000Y-9110000D01*
X15340000Y-9290000D02*
X15360000Y-9310000D01*
X15360000Y-9290000D02*
X15340000Y-9310000D01*
X15303500Y-6925500D02*
G75*
G02*
X15273500Y-6925500I-15000J0D01*
G01*
X15273500Y-6925500D02*
G75*
G02*
X15303500Y-6925500I15000J0D01*
G01*
X15303500Y-7025500D02*
G75*
G02*
X15273500Y-7025500I-15000J0D01*
G01*
X15273500Y-7025500D02*
G75*
G02*
X15303500Y-7025500I15000J0D01*
G01*
X15378500Y-6975500D02*
G75*
G02*
X15348500Y-6975500I-15000J0D01*
G01*
X15348500Y-6975500D02*
G75*
G02*
X15378500Y-6975500I15000J0D01*
G01*
X15453500Y-6925500D02*
G75*
G02*
X15423500Y-6925500I-15000J0D01*
G01*
X15423500Y-6925500D02*
G75*
G02*
X15453500Y-6925500I15000J0D01*
G01*
X15453500Y-7025500D02*
G75*
G02*
X15423500Y-7025500I-15000J0D01*
G01*
X15423500Y-7025500D02*
G75*
G02*
X15453500Y-7025500I15000J0D01*
G01*
X14075000Y-4980000D02*
X14075000Y-5020000D01*
X14055000Y-5000000D02*
X14095000Y-5000000D01*
X14075000Y-5455000D02*
X14075000Y-5495000D01*
X14055000Y-5475000D02*
X14095000Y-5475000D01*
X14075000Y-5680000D02*
X14075000Y-5720000D01*
X14055000Y-5700000D02*
X14095000Y-5700000D01*
X14075000Y-6455000D02*
X14075000Y-6495000D01*
X14055000Y-6475000D02*
X14095000Y-6475000D01*
X14075000Y-10705000D02*
X14075000Y-10745000D01*
X14055000Y-10725000D02*
X14095000Y-10725000D01*
X14100000Y-4855000D02*
X14100000Y-4895000D01*
X14080000Y-4875000D02*
X14120000Y-4875000D01*
X14100000Y-6805000D02*
X14100000Y-6845000D01*
X14080000Y-6825000D02*
X14120000Y-6825000D01*
X14100000Y-7105000D02*
X14100000Y-7145000D01*
X14080000Y-7125000D02*
X14120000Y-7125000D01*
X14100000Y-7505000D02*
X14100000Y-7545000D01*
X14080000Y-7525000D02*
X14120000Y-7525000D01*
X14100000Y-9530000D02*
X14100000Y-9570000D01*
X14080000Y-9550000D02*
X14120000Y-9550000D01*
X14125000Y-8055000D02*
X14125000Y-8095000D01*
X14105000Y-8075000D02*
X14145000Y-8075000D01*
X14179849Y-7880110D02*
X14179849Y-7920110D01*
X14159849Y-7900110D02*
X14199849Y-7900110D01*
X14200000Y-4855000D02*
X14200000Y-4895000D01*
X14180000Y-4875000D02*
X14220000Y-4875000D01*
X14223735Y-5003735D02*
X14223735Y-5043735D01*
X14203735Y-5023735D02*
X14243735Y-5023735D01*
X14225000Y-5605000D02*
X14225000Y-5645000D01*
X14205000Y-5625000D02*
X14245000Y-5625000D01*
X14225000Y-6955000D02*
X14225000Y-6995000D01*
X14205000Y-6975000D02*
X14245000Y-6975000D01*
X14250000Y-9542500D02*
X14250000Y-9582500D01*
X14230000Y-9562500D02*
X14270000Y-9562500D01*
X14300000Y-4855000D02*
X14300000Y-4895000D01*
X14280000Y-4875000D02*
X14320000Y-4875000D01*
X14300000Y-9830000D02*
X14300000Y-9870000D01*
X14280000Y-9850000D02*
X14320000Y-9850000D01*
X14300000Y-9955000D02*
X14300000Y-9995000D01*
X14280000Y-9975000D02*
X14320000Y-9975000D01*
X14325000Y-8180000D02*
X14325000Y-8220000D01*
X14305000Y-8200000D02*
X14345000Y-8200000D01*
X14400000Y-4855000D02*
X14400000Y-4895000D01*
X14380000Y-4875000D02*
X14420000Y-4875000D01*
X14400000Y-5680000D02*
X14400000Y-5720000D01*
X14380000Y-5700000D02*
X14420000Y-5700000D01*
X14400000Y-7455000D02*
X14400000Y-7495000D01*
X14380000Y-7475000D02*
X14420000Y-7475000D01*
X14400000Y-7555000D02*
X14400000Y-7595000D01*
X14380000Y-7575000D02*
X14420000Y-7575000D01*
X14425000Y-8130000D02*
X14425000Y-8170000D01*
X14405000Y-8150000D02*
X14445000Y-8150000D01*
X14472518Y-10602118D02*
X14472518Y-10642118D01*
X14452518Y-10622118D02*
X14492518Y-10622118D01*
X14475000Y-8322500D02*
X14475000Y-8362500D01*
X14455000Y-8342500D02*
X14495000Y-8342500D01*
X14476742Y-5332700D02*
X14476742Y-5372700D01*
X14456742Y-5352700D02*
X14496742Y-5352700D01*
X14500000Y-4855000D02*
X14500000Y-4895000D01*
X14480000Y-4875000D02*
X14520000Y-4875000D01*
X14501265Y-8503735D02*
X14501265Y-8543735D01*
X14481265Y-8523735D02*
X14521265Y-8523735D01*
X14512500Y-8855000D02*
X14512500Y-8895000D01*
X14492500Y-8875000D02*
X14532500Y-8875000D01*
X14525000Y-8130000D02*
X14525000Y-8170000D01*
X14505000Y-8150000D02*
X14545000Y-8150000D01*
X14531948Y-8408558D02*
X14531948Y-8448558D01*
X14511948Y-8428558D02*
X14551948Y-8428558D01*
X14557500Y-9309617D02*
X14557500Y-9349617D01*
X14537500Y-9329617D02*
X14577500Y-9329617D01*
X14560315Y-8977785D02*
X14560315Y-9017785D01*
X14540315Y-8997785D02*
X14580315Y-8997785D01*
X14571250Y-9730000D02*
X14571250Y-9770000D01*
X14551250Y-9750000D02*
X14591250Y-9750000D01*
X14571250Y-9930000D02*
X14571250Y-9970000D01*
X14551250Y-9950000D02*
X14591250Y-9950000D01*
X14575000Y-7155000D02*
X14575000Y-7195000D01*
X14555000Y-7175000D02*
X14595000Y-7175000D01*
X14575000Y-7305000D02*
X14575000Y-7345000D01*
X14555000Y-7325000D02*
X14595000Y-7325000D01*
X14579488Y-10711988D02*
X14579488Y-10751988D01*
X14559488Y-10731988D02*
X14599488Y-10731988D01*
X14585000Y-7692500D02*
X14585000Y-7732500D01*
X14565000Y-7712500D02*
X14605000Y-7712500D01*
X14600000Y-4855000D02*
X14600000Y-4895000D01*
X14580000Y-4875000D02*
X14620000Y-4875000D01*
X14650000Y-5430000D02*
X14650000Y-5470000D01*
X14630000Y-5450000D02*
X14670000Y-5450000D01*
X14663765Y-8768765D02*
X14663765Y-8808765D01*
X14643765Y-8788765D02*
X14683765Y-8788765D01*
X14675000Y-5005000D02*
X14675000Y-5045000D01*
X14655000Y-5025000D02*
X14695000Y-5025000D01*
X14675000Y-6030000D02*
X14675000Y-6070000D01*
X14655000Y-6050000D02*
X14695000Y-6050000D01*
X14700000Y-4855000D02*
X14700000Y-4895000D01*
X14680000Y-4875000D02*
X14720000Y-4875000D01*
X14737267Y-9819797D02*
X14737267Y-9859797D01*
X14717267Y-9839797D02*
X14757267Y-9839797D01*
X14782079Y-8369715D02*
X14782079Y-8409715D01*
X14762079Y-8389715D02*
X14802079Y-8389715D01*
X14782234Y-8267480D02*
X14782234Y-8307480D01*
X14762234Y-8287480D02*
X14802234Y-8287480D01*
X14800000Y-4905000D02*
X14800000Y-4945000D01*
X14780000Y-4925000D02*
X14820000Y-4925000D01*
X14817617Y-9041435D02*
X14817617Y-9081435D01*
X14797617Y-9061435D02*
X14837617Y-9061435D01*
X14825000Y-7530000D02*
X14825000Y-7570000D01*
X14805000Y-7550000D02*
X14845000Y-7550000D01*
X14850000Y-5530000D02*
X14850000Y-5570000D01*
X14830000Y-5550000D02*
X14870000Y-5550000D01*
X14850000Y-5855000D02*
X14850000Y-5895000D01*
X14830000Y-5875000D02*
X14870000Y-5875000D01*
X14850000Y-7230000D02*
X14850000Y-7270000D01*
X14830000Y-7250000D02*
X14870000Y-7250000D01*
X14852500Y-5759991D02*
X14852500Y-5799991D01*
X14832500Y-5779991D02*
X14872500Y-5779991D01*
X14864602Y-10607357D02*
X14864602Y-10647357D01*
X14844602Y-10627357D02*
X14884602Y-10627357D01*
X14869647Y-8218910D02*
X14869647Y-8258910D01*
X14849647Y-8238910D02*
X14889647Y-8238910D01*
X14882893Y-9186358D02*
X14882893Y-9226358D01*
X14862893Y-9206358D02*
X14902893Y-9206358D01*
X14900000Y-4905000D02*
X14900000Y-4945000D01*
X14880000Y-4925000D02*
X14920000Y-4925000D01*
X14908739Y-9318849D02*
X14908739Y-9358849D01*
X14888739Y-9338849D02*
X14928739Y-9338849D01*
X14914500Y-7041750D02*
X14914500Y-7081750D01*
X14894500Y-7061750D02*
X14934500Y-7061750D01*
X14939358Y-8911534D02*
X14939358Y-8951534D01*
X14919358Y-8931534D02*
X14959358Y-8931534D01*
X14940573Y-9070573D02*
X14940573Y-9110573D01*
X14920573Y-9090573D02*
X14960573Y-9090573D01*
X14947150Y-7527500D02*
X14947150Y-7567500D01*
X14927150Y-7547500D02*
X14967150Y-7547500D01*
X14947918Y-9880449D02*
X14947918Y-9920449D01*
X14927918Y-9900449D02*
X14967918Y-9900449D01*
X14950000Y-9655000D02*
X14950000Y-9695000D01*
X14930000Y-9675000D02*
X14970000Y-9675000D01*
X14950000Y-10105000D02*
X14950000Y-10145000D01*
X14930000Y-10125000D02*
X14970000Y-10125000D01*
X15000000Y-4905000D02*
X15000000Y-4945000D01*
X14980000Y-4925000D02*
X15020000Y-4925000D01*
X15023315Y-8505815D02*
X15023315Y-8545815D01*
X15003315Y-8525815D02*
X15043315Y-8525815D01*
X15025000Y-5380000D02*
X15025000Y-5420000D01*
X15005000Y-5400000D02*
X15045000Y-5400000D01*
X15025000Y-7330000D02*
X15025000Y-7370000D01*
X15005000Y-7350000D02*
X15045000Y-7350000D01*
X15025000Y-10180000D02*
X15025000Y-10220000D01*
X15005000Y-10200000D02*
X15045000Y-10200000D01*
X15054989Y-9347949D02*
X15054989Y-9387949D01*
X15034989Y-9367949D02*
X15074989Y-9367949D01*
X15075000Y-10105000D02*
X15075000Y-10145000D01*
X15055000Y-10125000D02*
X15095000Y-10125000D01*
X15100000Y-4905000D02*
X15100000Y-4945000D01*
X15080000Y-4925000D02*
X15120000Y-4925000D01*
X15125000Y-7505000D02*
X15125000Y-7545000D01*
X15105000Y-7525000D02*
X15145000Y-7525000D01*
X15125000Y-7705000D02*
X15125000Y-7745000D01*
X15105000Y-7725000D02*
X15145000Y-7725000D01*
X15133844Y-8459577D02*
X15133844Y-8499577D01*
X15113844Y-8479577D02*
X15153844Y-8479577D01*
X15135557Y-5532500D02*
X15135557Y-5572500D01*
X15115557Y-5552500D02*
X15155557Y-5552500D01*
X15150000Y-5880000D02*
X15150000Y-5920000D01*
X15130000Y-5900000D02*
X15170000Y-5900000D01*
X15150612Y-7222652D02*
X15150612Y-7262652D01*
X15130612Y-7242652D02*
X15170612Y-7242652D01*
X15175000Y-8077500D02*
X15175000Y-8117500D01*
X15155000Y-8097500D02*
X15195000Y-8097500D01*
X15200000Y-4905000D02*
X15200000Y-4945000D01*
X15180000Y-4925000D02*
X15220000Y-4925000D01*
X15200000Y-10180000D02*
X15200000Y-10220000D01*
X15180000Y-10200000D02*
X15220000Y-10200000D01*
X15200035Y-9802500D02*
X15200035Y-9842500D01*
X15180035Y-9822500D02*
X15220035Y-9822500D01*
X15225000Y-5605000D02*
X15225000Y-5645000D01*
X15205000Y-5625000D02*
X15245000Y-5625000D01*
X15225700Y-8499104D02*
X15225700Y-8539104D01*
X15205700Y-8519104D02*
X15245700Y-8519104D01*
X15229975Y-8262475D02*
X15229975Y-8302475D01*
X15209975Y-8282475D02*
X15249975Y-8282475D01*
X15250000Y-5755000D02*
X15250000Y-5795000D01*
X15230000Y-5775000D02*
X15270000Y-5775000D01*
X15274330Y-8089059D02*
X15274330Y-8129059D01*
X15254330Y-8109059D02*
X15294330Y-8109059D01*
X15275000Y-9927500D02*
X15275000Y-9967500D01*
X15255000Y-9947500D02*
X15295000Y-9947500D01*
X15275000Y-10030000D02*
X15275000Y-10070000D01*
X15255000Y-10050000D02*
X15295000Y-10050000D01*
X15285507Y-9479840D02*
X15285507Y-9519840D01*
X15265507Y-9499840D02*
X15305507Y-9499840D01*
X15300000Y-4855000D02*
X15300000Y-4895000D01*
X15280000Y-4875000D02*
X15320000Y-4875000D01*
X15325000Y-5405000D02*
X15325000Y-5445000D01*
X15305000Y-5425000D02*
X15345000Y-5425000D01*
X15331773Y-9845179D02*
X15331773Y-9885179D01*
X15311773Y-9865179D02*
X15351773Y-9865179D01*
X15339000Y-8877811D02*
X15339000Y-8917811D01*
X15319000Y-8897811D02*
X15359000Y-8897811D01*
X15344958Y-8159852D02*
X15344958Y-8199852D01*
X15324958Y-8179852D02*
X15364958Y-8179852D01*
X15350000Y-4955000D02*
X15350000Y-4995000D01*
X15330000Y-4975000D02*
X15370000Y-4975000D01*
X15350000Y-5880000D02*
X15350000Y-5920000D01*
X15330000Y-5900000D02*
X15370000Y-5900000D01*
X15375000Y-7555000D02*
X15375000Y-7595000D01*
X15355000Y-7575000D02*
X15395000Y-7575000D01*
X15375000Y-9580000D02*
X15375000Y-9620000D01*
X15355000Y-9600000D02*
X15395000Y-9600000D01*
X15379896Y-8448238D02*
X15379896Y-8488238D01*
X15359896Y-8468238D02*
X15399896Y-8468238D01*
X15425000Y-7355000D02*
X15425000Y-7395000D01*
X15405000Y-7375000D02*
X15445000Y-7375000D01*
X15425000Y-7905000D02*
X15425000Y-7945000D01*
X15405000Y-7925000D02*
X15445000Y-7925000D01*
X15435750Y-6280000D02*
X15435750Y-6320000D01*
X15415750Y-6300000D02*
X15455750Y-6300000D01*
X15435750Y-6630500D02*
X15435750Y-6670500D01*
X15415750Y-6650500D02*
X15455750Y-6650500D01*
X15437760Y-6386911D02*
X15437760Y-6426911D01*
X15417760Y-6406911D02*
X15457760Y-6406911D01*
X15438282Y-8615751D02*
X15438282Y-8655751D01*
X15418282Y-8635751D02*
X15458282Y-8635751D01*
X15445916Y-7787976D02*
X15445916Y-7827976D01*
X15425916Y-7807976D02*
X15465916Y-7807976D01*
X15450000Y-5530000D02*
X15450000Y-5570000D01*
X15430000Y-5550000D02*
X15470000Y-5550000D01*
X15450000Y-5680000D02*
X15450000Y-5720000D01*
X15430000Y-5700000D02*
X15470000Y-5700000D01*
X15453250Y-6505500D02*
X15453250Y-6545500D01*
X15433250Y-6525500D02*
X15473250Y-6525500D01*
X15475000Y-5930000D02*
X15475000Y-5970000D01*
X15455000Y-5950000D02*
X15495000Y-5950000D01*
X15477774Y-8972811D02*
X15477774Y-9012811D01*
X15457774Y-8992811D02*
X15497774Y-8992811D01*
X15479500Y-4855000D02*
X15479500Y-4895000D01*
X15459500Y-4875000D02*
X15499500Y-4875000D01*
X15500000Y-9855000D02*
X15500000Y-9895000D01*
X15480000Y-9875000D02*
X15520000Y-9875000D01*
X15505226Y-9402304D02*
X15505226Y-9442304D01*
X15485226Y-9422304D02*
X15525226Y-9422304D01*
X15514130Y-7714853D02*
X15514130Y-7754853D01*
X15494130Y-7734853D02*
X15534130Y-7734853D01*
X15525000Y-5330000D02*
X15525000Y-5370000D01*
X15505000Y-5350000D02*
X15545000Y-5350000D01*
X15538618Y-8729257D02*
X15538618Y-8769257D01*
X15518618Y-8749257D02*
X15558618Y-8749257D01*
X15550000Y-5780000D02*
X15550000Y-5820000D01*
X15530000Y-5800000D02*
X15570000Y-5800000D01*
X15575000Y-5655000D02*
X15575000Y-5695000D01*
X15555000Y-5675000D02*
X15595000Y-5675000D01*
X15589364Y-7644364D02*
X15589364Y-7684364D01*
X15569364Y-7664364D02*
X15609364Y-7664364D01*
X15650000Y-5405000D02*
X15650000Y-5445000D01*
X15630000Y-5425000D02*
X15670000Y-5425000D01*
X15650000Y-5880000D02*
X15650000Y-5920000D01*
X15630000Y-5900000D02*
X15670000Y-5900000D01*
X15664050Y-7223610D02*
X15664050Y-7263610D01*
X15644050Y-7243610D02*
X15684050Y-7243610D01*
X15675000Y-4855000D02*
X15675000Y-4895000D01*
X15655000Y-4875000D02*
X15695000Y-4875000D01*
X15675000Y-5755000D02*
X15675000Y-5795000D01*
X15655000Y-5775000D02*
X15695000Y-5775000D01*
X15689500Y-7105000D02*
X15689500Y-7145000D01*
X15669500Y-7125000D02*
X15709500Y-7125000D01*
X15700000Y-4955000D02*
X15700000Y-4995000D01*
X15680000Y-4975000D02*
X15720000Y-4975000D01*
X15700000Y-6755000D02*
X15700000Y-6795000D01*
X15680000Y-6775000D02*
X15720000Y-6775000D01*
X15700000Y-7905000D02*
X15700000Y-7945000D01*
X15680000Y-7925000D02*
X15720000Y-7925000D01*
X15700000Y-8105000D02*
X15700000Y-8145000D01*
X15680000Y-8125000D02*
X15720000Y-8125000D01*
X15700000Y-8280000D02*
X15700000Y-8320000D01*
X15680000Y-8300000D02*
X15720000Y-8300000D01*
X15711250Y-8730000D02*
X15711250Y-8770000D01*
X15691250Y-8750000D02*
X15731250Y-8750000D01*
X15725000Y-8855000D02*
X15725000Y-8895000D01*
X15705000Y-8875000D02*
X15745000Y-8875000D01*
X15725000Y-10155000D02*
X15725000Y-10195000D01*
X15705000Y-10175000D02*
X15745000Y-10175000D01*
X15739849Y-6316315D02*
X15739849Y-6356315D01*
X15719849Y-6336315D02*
X15759849Y-6336315D01*
X15739849Y-6420876D02*
X15739849Y-6460876D01*
X15719849Y-6440876D02*
X15759849Y-6440876D01*
X15739849Y-6525438D02*
X15739849Y-6565438D01*
X15719849Y-6545438D02*
X15759849Y-6545438D01*
X15739849Y-6630000D02*
X15739849Y-6670000D01*
X15719849Y-6650000D02*
X15759849Y-6650000D01*
X15775000Y-5305000D02*
X15775000Y-5345000D01*
X15755000Y-5325000D02*
X15795000Y-5325000D01*
X15775000Y-5505000D02*
X15775000Y-5545000D01*
X15755000Y-5525000D02*
X15795000Y-5525000D01*
X15775015Y-8577485D02*
X15775015Y-8617485D01*
X15755015Y-8597485D02*
X15795015Y-8597485D01*
X15850000Y-4855000D02*
X15850000Y-4895000D01*
X15830000Y-4875000D02*
X15870000Y-4875000D01*
X15875000Y-8530000D02*
X15875000Y-8570000D01*
X15855000Y-8550000D02*
X15895000Y-8550000D01*
X15875000Y-8630000D02*
X15875000Y-8670000D01*
X15855000Y-8650000D02*
X15895000Y-8650000D01*
X15875000Y-8730000D02*
X15875000Y-8770000D01*
X15855000Y-8750000D02*
X15895000Y-8750000D01*
X15875000Y-8830000D02*
X15875000Y-8870000D01*
X15855000Y-8850000D02*
X15895000Y-8850000D01*
X15875000Y-8930000D02*
X15875000Y-8970000D01*
X15855000Y-8950000D02*
X15895000Y-8950000D01*
X15875000Y-9030000D02*
X15875000Y-9070000D01*
X15855000Y-9050000D02*
X15895000Y-9050000D01*
X15875000Y-9130000D02*
X15875000Y-9170000D01*
X15855000Y-9150000D02*
X15895000Y-9150000D01*
X15875000Y-9230000D02*
X15875000Y-9270000D01*
X15855000Y-9250000D02*
X15895000Y-9250000D01*
X15875000Y-9330000D02*
X15875000Y-9370000D01*
X15855000Y-9350000D02*
X15895000Y-9350000D01*
X15875000Y-9430000D02*
X15875000Y-9470000D01*
X15855000Y-9450000D02*
X15895000Y-9450000D01*
X15875000Y-9530000D02*
X15875000Y-9570000D01*
X15855000Y-9550000D02*
X15895000Y-9550000D01*
X15875000Y-9630000D02*
X15875000Y-9670000D01*
X15855000Y-9650000D02*
X15895000Y-9650000D01*
X15875000Y-9730000D02*
X15875000Y-9770000D01*
X15855000Y-9750000D02*
X15895000Y-9750000D01*
X15875000Y-9955000D02*
X15875000Y-9995000D01*
X15855000Y-9975000D02*
X15895000Y-9975000D01*
X15875000Y-10055000D02*
X15875000Y-10095000D01*
X15855000Y-10075000D02*
X15895000Y-10075000D01*
X15875000Y-10155000D02*
X15875000Y-10195000D01*
X15855000Y-10175000D02*
X15895000Y-10175000D01*
X15875000Y-10255000D02*
X15875000Y-10295000D01*
X15855000Y-10275000D02*
X15895000Y-10275000D01*
X15875000Y-10355000D02*
X15875000Y-10395000D01*
X15855000Y-10375000D02*
X15895000Y-10375000D01*
X15875000Y-10455000D02*
X15875000Y-10495000D01*
X15855000Y-10475000D02*
X15895000Y-10475000D01*
X15875000Y-10555000D02*
X15875000Y-10595000D01*
X15855000Y-10575000D02*
X15895000Y-10575000D01*
X15875000Y-10655000D02*
X15875000Y-10695000D01*
X15855000Y-10675000D02*
X15895000Y-10675000D01*
X15925000Y-5005000D02*
X15925000Y-5045000D01*
X15905000Y-5025000D02*
X15945000Y-5025000D01*
X15925000Y-5205000D02*
X15925000Y-5245000D01*
X15905000Y-5225000D02*
X15945000Y-5225000D01*
X15925000Y-5405000D02*
X15925000Y-5445000D01*
X15905000Y-5425000D02*
X15945000Y-5425000D01*
X15925000Y-5605000D02*
X15925000Y-5645000D01*
X15905000Y-5625000D02*
X15945000Y-5625000D01*
X15925000Y-5805000D02*
X15925000Y-5845000D01*
X15905000Y-5825000D02*
X15945000Y-5825000D01*
X15925000Y-6005000D02*
X15925000Y-6045000D01*
X15905000Y-6025000D02*
X15945000Y-6025000D01*
X15925000Y-6180000D02*
X15925000Y-6220000D01*
X15905000Y-6200000D02*
X15945000Y-6200000D01*
X15925000Y-6355000D02*
X15925000Y-6395000D01*
X15905000Y-6375000D02*
X15945000Y-6375000D01*
X15925000Y-6555000D02*
X15925000Y-6595000D01*
X15905000Y-6575000D02*
X15945000Y-6575000D01*
X15925000Y-6755000D02*
X15925000Y-6795000D01*
X15905000Y-6775000D02*
X15945000Y-6775000D01*
X15925000Y-7155000D02*
X15925000Y-7195000D01*
X15905000Y-7175000D02*
X15945000Y-7175000D01*
X15925000Y-7830000D02*
X15925000Y-7870000D01*
X15905000Y-7850000D02*
X15945000Y-7850000D01*
X15925000Y-8255000D02*
X15925000Y-8295000D01*
X15905000Y-8275000D02*
X15945000Y-8275000D01*
X15950000Y-4855000D02*
X15950000Y-4895000D01*
X15930000Y-4875000D02*
X15970000Y-4875000D01*
X16050000Y-4855000D02*
X16050000Y-4895000D01*
X16030000Y-4875000D02*
X16070000Y-4875000D01*
X16075000Y-5105000D02*
X16075000Y-5145000D01*
X16055000Y-5125000D02*
X16095000Y-5125000D01*
X16075000Y-5305000D02*
X16075000Y-5345000D01*
X16055000Y-5325000D02*
X16095000Y-5325000D01*
X16075000Y-5505000D02*
X16075000Y-5545000D01*
X16055000Y-5525000D02*
X16095000Y-5525000D01*
X16075000Y-5705000D02*
X16075000Y-5745000D01*
X16055000Y-5725000D02*
X16095000Y-5725000D01*
X16075000Y-5905000D02*
X16075000Y-5945000D01*
X16055000Y-5925000D02*
X16095000Y-5925000D01*
X16075000Y-6105000D02*
X16075000Y-6145000D01*
X16055000Y-6125000D02*
X16095000Y-6125000D01*
X16075000Y-6280000D02*
X16075000Y-6320000D01*
X16055000Y-6300000D02*
X16095000Y-6300000D01*
X16075000Y-6455000D02*
X16075000Y-6495000D01*
X16055000Y-6475000D02*
X16095000Y-6475000D01*
X16075000Y-6655000D02*
X16075000Y-6695000D01*
X16055000Y-6675000D02*
X16095000Y-6675000D01*
X16075000Y-6855000D02*
X16075000Y-6895000D01*
X16055000Y-6875000D02*
X16095000Y-6875000D01*
X16100000Y-10680000D02*
X16100000Y-10720000D01*
X16080000Y-10700000D02*
X16120000Y-10700000D01*
X16150000Y-4855000D02*
X16150000Y-4895000D01*
X16130000Y-4875000D02*
X16170000Y-4875000D01*
X16225000Y-5005000D02*
X16225000Y-5045000D01*
X16205000Y-5025000D02*
X16245000Y-5025000D01*
X16225000Y-5205000D02*
X16225000Y-5245000D01*
X16205000Y-5225000D02*
X16245000Y-5225000D01*
X16225000Y-5405000D02*
X16225000Y-5445000D01*
X16205000Y-5425000D02*
X16245000Y-5425000D01*
X16225000Y-5605000D02*
X16225000Y-5645000D01*
X16205000Y-5625000D02*
X16245000Y-5625000D01*
X16225000Y-5805000D02*
X16225000Y-5845000D01*
X16205000Y-5825000D02*
X16245000Y-5825000D01*
X16225000Y-6005000D02*
X16225000Y-6045000D01*
X16205000Y-6025000D02*
X16245000Y-6025000D01*
X16225000Y-6180000D02*
X16225000Y-6220000D01*
X16205000Y-6200000D02*
X16245000Y-6200000D01*
X16225000Y-6355000D02*
X16225000Y-6395000D01*
X16205000Y-6375000D02*
X16245000Y-6375000D01*
X16225000Y-6555000D02*
X16225000Y-6595000D01*
X16205000Y-6575000D02*
X16245000Y-6575000D01*
X16225000Y-6755000D02*
X16225000Y-6795000D01*
X16205000Y-6775000D02*
X16245000Y-6775000D01*
X14260356Y-8456356D02*
X14260356Y-8385644D01*
X14189644Y-8385644D01*
X14189644Y-8456356D01*
X14260356Y-8456356D01*
X14260356Y-8710356D02*
X14260356Y-8639644D01*
X14189644Y-8639644D01*
X14189644Y-8710356D01*
X14260356Y-8710356D01*
X14260356Y-8964356D02*
X14260356Y-8893644D01*
X14189644Y-8893644D01*
X14189644Y-8964356D01*
X14260356Y-8964356D01*
X14260356Y-9218356D02*
X14260356Y-9147644D01*
X14189644Y-9147644D01*
X14189644Y-9218356D01*
X14260356Y-9218356D01*
X14264799Y-5872571D02*
X14264799Y-5801860D01*
X14194087Y-5801860D01*
X14194087Y-5872571D01*
X14264799Y-5872571D01*
X14264799Y-6126571D02*
X14264799Y-6055860D01*
X14194087Y-6055860D01*
X14194087Y-6126571D01*
X14264799Y-6126571D01*
X14264799Y-6380571D02*
X14264799Y-6309860D01*
X14194087Y-6309860D01*
X14194087Y-6380571D01*
X14264799Y-6380571D01*
X16135356Y-7160356D02*
X16135356Y-7089644D01*
X16064644Y-7089644D01*
X16064644Y-7160356D01*
X16135356Y-7160356D01*
X16135356Y-7414356D02*
X16135356Y-7343644D01*
X16064644Y-7343644D01*
X16064644Y-7414356D01*
X16135356Y-7414356D01*
X16135356Y-7668356D02*
X16135356Y-7597644D01*
X16064644Y-7597644D01*
X16064644Y-7668356D01*
X16135356Y-7668356D01*
X16135356Y-7922356D02*
X16135356Y-7851644D01*
X16064644Y-7851644D01*
X16064644Y-7922356D01*
X16135356Y-7922356D01*
X16135356Y-8305356D02*
X16135356Y-8234644D01*
X16064644Y-8234644D01*
X16064644Y-8305356D01*
X16135356Y-8305356D01*
X16135356Y-8559356D02*
X16135356Y-8488644D01*
X16064644Y-8488644D01*
X16064644Y-8559356D01*
X16135356Y-8559356D01*
X16135356Y-8813356D02*
X16135356Y-8742644D01*
X16064644Y-8742644D01*
X16064644Y-8813356D01*
X16135356Y-8813356D01*
X16135356Y-9067356D02*
X16135356Y-8996644D01*
X16064644Y-8996644D01*
X16064644Y-9067356D01*
X16135356Y-9067356D01*
X16135356Y-9452856D02*
X16135356Y-9382144D01*
X16064644Y-9382144D01*
X16064644Y-9452856D01*
X16135356Y-9452856D01*
X16135356Y-9706856D02*
X16135356Y-9636144D01*
X16064644Y-9636144D01*
X16064644Y-9706856D01*
X16135356Y-9706856D01*
X16135356Y-9960856D02*
X16135356Y-9890144D01*
X16064644Y-9890144D01*
X16064644Y-9960856D01*
X16135356Y-9960856D01*
X16135356Y-10214856D02*
X16135356Y-10144144D01*
X16064644Y-10144144D01*
X16064644Y-10214856D01*
X16135356Y-10214856D01*
X16135356Y-10468856D02*
X16135356Y-10398144D01*
X16064644Y-10398144D01*
X16064644Y-10468856D01*
X16135356Y-10468856D01*
D12*
X15069602Y-10626579D02*
X15129602Y-10566579D01*
X15069602Y-10506579D01*
X15009602Y-10566579D01*
X15069602Y-10626579D01*
X15391102Y-10626579D02*
X15451102Y-10566579D01*
X15391102Y-10506579D01*
X15331102Y-10566579D01*
X15391102Y-10626579D01*
X15712602Y-10626579D02*
X15772602Y-10566579D01*
X15712602Y-10506579D01*
X15652602Y-10566579D01*
X15712602Y-10626579D01*
D11*
X14280777Y-11109394D02*
X14280777Y-10909394D01*
X14280777Y-10909394D02*
X14328396Y-10909394D01*
X14328396Y-10909394D02*
X14356967Y-10918918D01*
X14356967Y-10918918D02*
X14376015Y-10937966D01*
X14376015Y-10937966D02*
X14385539Y-10957013D01*
X14385539Y-10957013D02*
X14395062Y-10995108D01*
X14395062Y-10995108D02*
X14395062Y-11023680D01*
X14395062Y-11023680D02*
X14385539Y-11061775D01*
X14385539Y-11061775D02*
X14376015Y-11080823D01*
X14376015Y-11080823D02*
X14356967Y-11099870D01*
X14356967Y-11099870D02*
X14328396Y-11109394D01*
X14328396Y-11109394D02*
X14280777Y-11109394D01*
X14480777Y-11109394D02*
X14480777Y-10976061D01*
X14480777Y-11014156D02*
X14490301Y-10995108D01*
X14490301Y-10995108D02*
X14499824Y-10985585D01*
X14499824Y-10985585D02*
X14518872Y-10976061D01*
X14518872Y-10976061D02*
X14537920Y-10976061D01*
X14604586Y-11109394D02*
X14604586Y-10976061D01*
X14604586Y-10909394D02*
X14595062Y-10918918D01*
X14595062Y-10918918D02*
X14604586Y-10928442D01*
X14604586Y-10928442D02*
X14614110Y-10918918D01*
X14614110Y-10918918D02*
X14604586Y-10909394D01*
X14604586Y-10909394D02*
X14604586Y-10928442D01*
X14728396Y-11109394D02*
X14709348Y-11099870D01*
X14709348Y-11099870D02*
X14699824Y-11080823D01*
X14699824Y-11080823D02*
X14699824Y-10909394D01*
X14833158Y-11109394D02*
X14814110Y-11099870D01*
X14814110Y-11099870D02*
X14804586Y-11080823D01*
X14804586Y-11080823D02*
X14804586Y-10909394D01*
X15061729Y-11109394D02*
X15061729Y-10909394D01*
X15061729Y-10909394D02*
X15128396Y-11052251D01*
X15128396Y-11052251D02*
X15195062Y-10909394D01*
X15195062Y-10909394D02*
X15195062Y-11109394D01*
X15376015Y-11109394D02*
X15376015Y-11004632D01*
X15376015Y-11004632D02*
X15366491Y-10985585D01*
X15366491Y-10985585D02*
X15347443Y-10976061D01*
X15347443Y-10976061D02*
X15309348Y-10976061D01*
X15309348Y-10976061D02*
X15290301Y-10985585D01*
X15376015Y-11099870D02*
X15356967Y-11109394D01*
X15356967Y-11109394D02*
X15309348Y-11109394D01*
X15309348Y-11109394D02*
X15290301Y-11099870D01*
X15290301Y-11099870D02*
X15280777Y-11080823D01*
X15280777Y-11080823D02*
X15280777Y-11061775D01*
X15280777Y-11061775D02*
X15290301Y-11042728D01*
X15290301Y-11042728D02*
X15309348Y-11033204D01*
X15309348Y-11033204D02*
X15356967Y-11033204D01*
X15356967Y-11033204D02*
X15376015Y-11023680D01*
X15471253Y-10976061D02*
X15471253Y-11176061D01*
X15471253Y-10985585D02*
X15490301Y-10976061D01*
X15490301Y-10976061D02*
X15528396Y-10976061D01*
X15528396Y-10976061D02*
X15547443Y-10985585D01*
X15547443Y-10985585D02*
X15556967Y-10995108D01*
X15556967Y-10995108D02*
X15566491Y-11014156D01*
X15566491Y-11014156D02*
X15566491Y-11071299D01*
X15566491Y-11071299D02*
X15556967Y-11090347D01*
X15556967Y-11090347D02*
X15547443Y-11099870D01*
X15547443Y-11099870D02*
X15528396Y-11109394D01*
X15528396Y-11109394D02*
X15490301Y-11109394D01*
X15490301Y-11109394D02*
X15471253Y-11099870D01*
X15652205Y-11090347D02*
X15661729Y-11099870D01*
X15661729Y-11099870D02*
X15652205Y-11109394D01*
X15652205Y-11109394D02*
X15642682Y-11099870D01*
X15642682Y-11099870D02*
X15652205Y-11090347D01*
X15652205Y-11090347D02*
X15652205Y-11109394D01*
X15652205Y-10985585D02*
X15661729Y-10995108D01*
X15661729Y-10995108D02*
X15652205Y-11004632D01*
X15652205Y-11004632D02*
X15642682Y-10995108D01*
X15642682Y-10995108D02*
X15652205Y-10985585D01*
X15652205Y-10985585D02*
X15652205Y-11004632D01*
D10*
X14000000Y-11427910D02*
X14020000Y-11447910D01*
X14020000Y-11427910D02*
X14000000Y-11447910D01*
D11*
X14318872Y-11329394D02*
X14337920Y-11329394D01*
X14337920Y-11329394D02*
X14356967Y-11338918D01*
X14356967Y-11338918D02*
X14366491Y-11348442D01*
X14366491Y-11348442D02*
X14376015Y-11367489D01*
X14376015Y-11367489D02*
X14385539Y-11405585D01*
X14385539Y-11405585D02*
X14385539Y-11453204D01*
X14385539Y-11453204D02*
X14376015Y-11491299D01*
X14376015Y-11491299D02*
X14366491Y-11510346D01*
X14366491Y-11510346D02*
X14356967Y-11519870D01*
X14356967Y-11519870D02*
X14337920Y-11529394D01*
X14337920Y-11529394D02*
X14318872Y-11529394D01*
X14318872Y-11529394D02*
X14299824Y-11519870D01*
X14299824Y-11519870D02*
X14290301Y-11510346D01*
X14290301Y-11510346D02*
X14280777Y-11491299D01*
X14280777Y-11491299D02*
X14271253Y-11453204D01*
X14271253Y-11453204D02*
X14271253Y-11405585D01*
X14271253Y-11405585D02*
X14280777Y-11367489D01*
X14280777Y-11367489D02*
X14290301Y-11348442D01*
X14290301Y-11348442D02*
X14299824Y-11338918D01*
X14299824Y-11338918D02*
X14318872Y-11329394D01*
X14471253Y-11510346D02*
X14480777Y-11519870D01*
X14480777Y-11519870D02*
X14471253Y-11529394D01*
X14471253Y-11529394D02*
X14461729Y-11519870D01*
X14461729Y-11519870D02*
X14471253Y-11510346D01*
X14471253Y-11510346D02*
X14471253Y-11529394D01*
X14556967Y-11348442D02*
X14566491Y-11338918D01*
X14566491Y-11338918D02*
X14585539Y-11329394D01*
X14585539Y-11329394D02*
X14633158Y-11329394D01*
X14633158Y-11329394D02*
X14652205Y-11338918D01*
X14652205Y-11338918D02*
X14661729Y-11348442D01*
X14661729Y-11348442D02*
X14671253Y-11367489D01*
X14671253Y-11367489D02*
X14671253Y-11386537D01*
X14671253Y-11386537D02*
X14661729Y-11415108D01*
X14661729Y-11415108D02*
X14547443Y-11529394D01*
X14547443Y-11529394D02*
X14671253Y-11529394D01*
X14795062Y-11329394D02*
X14814110Y-11329394D01*
X14814110Y-11329394D02*
X14833158Y-11338918D01*
X14833158Y-11338918D02*
X14842682Y-11348442D01*
X14842682Y-11348442D02*
X14852205Y-11367489D01*
X14852205Y-11367489D02*
X14861729Y-11405585D01*
X14861729Y-11405585D02*
X14861729Y-11453204D01*
X14861729Y-11453204D02*
X14852205Y-11491299D01*
X14852205Y-11491299D02*
X14842682Y-11510346D01*
X14842682Y-11510346D02*
X14833158Y-11519870D01*
X14833158Y-11519870D02*
X14814110Y-11529394D01*
X14814110Y-11529394D02*
X14795062Y-11529394D01*
X14795062Y-11529394D02*
X14776015Y-11519870D01*
X14776015Y-11519870D02*
X14766491Y-11510346D01*
X14766491Y-11510346D02*
X14756967Y-11491299D01*
X14756967Y-11491299D02*
X14747443Y-11453204D01*
X14747443Y-11453204D02*
X14747443Y-11405585D01*
X14747443Y-11405585D02*
X14756967Y-11367489D01*
X14756967Y-11367489D02*
X14766491Y-11348442D01*
X14766491Y-11348442D02*
X14776015Y-11338918D01*
X14776015Y-11338918D02*
X14795062Y-11329394D01*
X14985539Y-11329394D02*
X15004586Y-11329394D01*
X15004586Y-11329394D02*
X15023634Y-11338918D01*
X15023634Y-11338918D02*
X15033158Y-11348442D01*
X15033158Y-11348442D02*
X15042682Y-11367489D01*
X15042682Y-11367489D02*
X15052205Y-11405585D01*
X15052205Y-11405585D02*
X15052205Y-11453204D01*
X15052205Y-11453204D02*
X15042682Y-11491299D01*
X15042682Y-11491299D02*
X15033158Y-11510346D01*
X15033158Y-11510346D02*
X15023634Y-11519870D01*
X15023634Y-11519870D02*
X15004586Y-11529394D01*
X15004586Y-11529394D02*
X14985539Y-11529394D01*
X14985539Y-11529394D02*
X14966491Y-11519870D01*
X14966491Y-11519870D02*
X14956967Y-11510346D01*
X14956967Y-11510346D02*
X14947443Y-11491299D01*
X14947443Y-11491299D02*
X14937920Y-11453204D01*
X14937920Y-11453204D02*
X14937920Y-11405585D01*
X14937920Y-11405585D02*
X14947443Y-11367489D01*
X14947443Y-11367489D02*
X14956967Y-11348442D01*
X14956967Y-11348442D02*
X14966491Y-11338918D01*
X14966491Y-11338918D02*
X14985539Y-11329394D01*
X15137920Y-11529394D02*
X15137920Y-11396061D01*
X15137920Y-11415108D02*
X15147443Y-11405585D01*
X15147443Y-11405585D02*
X15166491Y-11396061D01*
X15166491Y-11396061D02*
X15195063Y-11396061D01*
X15195063Y-11396061D02*
X15214110Y-11405585D01*
X15214110Y-11405585D02*
X15223634Y-11424632D01*
X15223634Y-11424632D02*
X15223634Y-11529394D01*
X15223634Y-11424632D02*
X15233158Y-11405585D01*
X15233158Y-11405585D02*
X15252205Y-11396061D01*
X15252205Y-11396061D02*
X15280777Y-11396061D01*
X15280777Y-11396061D02*
X15299824Y-11405585D01*
X15299824Y-11405585D02*
X15309348Y-11424632D01*
X15309348Y-11424632D02*
X15309348Y-11529394D01*
X15404586Y-11529394D02*
X15404586Y-11396061D01*
X15404586Y-11415108D02*
X15414110Y-11405585D01*
X15414110Y-11405585D02*
X15433158Y-11396061D01*
X15433158Y-11396061D02*
X15461729Y-11396061D01*
X15461729Y-11396061D02*
X15480777Y-11405585D01*
X15480777Y-11405585D02*
X15490301Y-11424632D01*
X15490301Y-11424632D02*
X15490301Y-11529394D01*
X15490301Y-11424632D02*
X15499824Y-11405585D01*
X15499824Y-11405585D02*
X15518872Y-11396061D01*
X15518872Y-11396061D02*
X15547443Y-11396061D01*
X15547443Y-11396061D02*
X15566491Y-11405585D01*
X15566491Y-11405585D02*
X15576015Y-11424632D01*
X15576015Y-11424632D02*
X15576015Y-11529394D01*
X15966491Y-11319870D02*
X15795063Y-11577013D01*
X16223634Y-11329394D02*
X16242682Y-11329394D01*
X16242682Y-11329394D02*
X16261729Y-11338918D01*
X16261729Y-11338918D02*
X16271253Y-11348442D01*
X16271253Y-11348442D02*
X16280777Y-11367489D01*
X16280777Y-11367489D02*
X16290301Y-11405585D01*
X16290301Y-11405585D02*
X16290301Y-11453204D01*
X16290301Y-11453204D02*
X16280777Y-11491299D01*
X16280777Y-11491299D02*
X16271253Y-11510346D01*
X16271253Y-11510346D02*
X16261729Y-11519870D01*
X16261729Y-11519870D02*
X16242682Y-11529394D01*
X16242682Y-11529394D02*
X16223634Y-11529394D01*
X16223634Y-11529394D02*
X16204586Y-11519870D01*
X16204586Y-11519870D02*
X16195063Y-11510346D01*
X16195063Y-11510346D02*
X16185539Y-11491299D01*
X16185539Y-11491299D02*
X16176015Y-11453204D01*
X16176015Y-11453204D02*
X16176015Y-11405585D01*
X16176015Y-11405585D02*
X16185539Y-11367489D01*
X16185539Y-11367489D02*
X16195063Y-11348442D01*
X16195063Y-11348442D02*
X16204586Y-11338918D01*
X16204586Y-11338918D02*
X16223634Y-11329394D01*
X16376015Y-11510346D02*
X16385539Y-11519870D01*
X16385539Y-11519870D02*
X16376015Y-11529394D01*
X16376015Y-11529394D02*
X16366491Y-11519870D01*
X16366491Y-11519870D02*
X16376015Y-11510346D01*
X16376015Y-11510346D02*
X16376015Y-11529394D01*
X16509348Y-11329394D02*
X16528396Y-11329394D01*
X16528396Y-11329394D02*
X16547444Y-11338918D01*
X16547444Y-11338918D02*
X16556967Y-11348442D01*
X16556967Y-11348442D02*
X16566491Y-11367489D01*
X16566491Y-11367489D02*
X16576015Y-11405585D01*
X16576015Y-11405585D02*
X16576015Y-11453204D01*
X16576015Y-11453204D02*
X16566491Y-11491299D01*
X16566491Y-11491299D02*
X16556967Y-11510346D01*
X16556967Y-11510346D02*
X16547444Y-11519870D01*
X16547444Y-11519870D02*
X16528396Y-11529394D01*
X16528396Y-11529394D02*
X16509348Y-11529394D01*
X16509348Y-11529394D02*
X16490301Y-11519870D01*
X16490301Y-11519870D02*
X16480777Y-11510346D01*
X16480777Y-11510346D02*
X16471253Y-11491299D01*
X16471253Y-11491299D02*
X16461729Y-11453204D01*
X16461729Y-11453204D02*
X16461729Y-11405585D01*
X16461729Y-11405585D02*
X16471253Y-11367489D01*
X16471253Y-11367489D02*
X16480777Y-11348442D01*
X16480777Y-11348442D02*
X16490301Y-11338918D01*
X16490301Y-11338918D02*
X16509348Y-11329394D01*
X16699825Y-11329394D02*
X16718872Y-11329394D01*
X16718872Y-11329394D02*
X16737920Y-11338918D01*
X16737920Y-11338918D02*
X16747444Y-11348442D01*
X16747444Y-11348442D02*
X16756967Y-11367489D01*
X16756967Y-11367489D02*
X16766491Y-11405585D01*
X16766491Y-11405585D02*
X16766491Y-11453204D01*
X16766491Y-11453204D02*
X16756967Y-11491299D01*
X16756967Y-11491299D02*
X16747444Y-11510346D01*
X16747444Y-11510346D02*
X16737920Y-11519870D01*
X16737920Y-11519870D02*
X16718872Y-11529394D01*
X16718872Y-11529394D02*
X16699825Y-11529394D01*
X16699825Y-11529394D02*
X16680777Y-11519870D01*
X16680777Y-11519870D02*
X16671253Y-11510346D01*
X16671253Y-11510346D02*
X16661729Y-11491299D01*
X16661729Y-11491299D02*
X16652206Y-11453204D01*
X16652206Y-11453204D02*
X16652206Y-11405585D01*
X16652206Y-11405585D02*
X16661729Y-11367489D01*
X16661729Y-11367489D02*
X16671253Y-11348442D01*
X16671253Y-11348442D02*
X16680777Y-11338918D01*
X16680777Y-11338918D02*
X16699825Y-11329394D01*
X16833158Y-11329394D02*
X16966491Y-11329394D01*
X16966491Y-11329394D02*
X16880777Y-11529394D01*
X17052206Y-11529394D02*
X17090301Y-11529394D01*
X17090301Y-11529394D02*
X17109349Y-11519870D01*
X17109349Y-11519870D02*
X17118872Y-11510346D01*
X17118872Y-11510346D02*
X17137920Y-11481775D01*
X17137920Y-11481775D02*
X17147444Y-11443680D01*
X17147444Y-11443680D02*
X17147444Y-11367489D01*
X17147444Y-11367489D02*
X17137920Y-11348442D01*
X17137920Y-11348442D02*
X17128396Y-11338918D01*
X17128396Y-11338918D02*
X17109349Y-11329394D01*
X17109349Y-11329394D02*
X17071253Y-11329394D01*
X17071253Y-11329394D02*
X17052206Y-11338918D01*
X17052206Y-11338918D02*
X17042682Y-11348442D01*
X17042682Y-11348442D02*
X17033158Y-11367489D01*
X17033158Y-11367489D02*
X17033158Y-11415108D01*
X17033158Y-11415108D02*
X17042682Y-11434156D01*
X17042682Y-11434156D02*
X17052206Y-11443680D01*
X17052206Y-11443680D02*
X17071253Y-11453204D01*
X17071253Y-11453204D02*
X17109349Y-11453204D01*
X17109349Y-11453204D02*
X17128396Y-11443680D01*
X17128396Y-11443680D02*
X17137920Y-11434156D01*
X17137920Y-11434156D02*
X17147444Y-11415108D01*
X17223634Y-11329394D02*
X17223634Y-11367489D01*
X17299825Y-11329394D02*
X17299825Y-11367489D01*
X17595063Y-11605585D02*
X17585539Y-11596061D01*
X17585539Y-11596061D02*
X17566491Y-11567489D01*
X17566491Y-11567489D02*
X17556968Y-11548442D01*
X17556968Y-11548442D02*
X17547444Y-11519870D01*
X17547444Y-11519870D02*
X17537920Y-11472251D01*
X17537920Y-11472251D02*
X17537920Y-11434156D01*
X17537920Y-11434156D02*
X17547444Y-11386537D01*
X17547444Y-11386537D02*
X17556968Y-11357966D01*
X17556968Y-11357966D02*
X17566491Y-11338918D01*
X17566491Y-11338918D02*
X17585539Y-11310346D01*
X17585539Y-11310346D02*
X17595063Y-11300823D01*
X17756968Y-11396061D02*
X17756968Y-11529394D01*
X17709349Y-11319870D02*
X17661730Y-11462727D01*
X17661730Y-11462727D02*
X17785539Y-11462727D01*
X18014111Y-11529394D02*
X18014111Y-11329394D01*
X18099825Y-11529394D02*
X18099825Y-11424632D01*
X18099825Y-11424632D02*
X18090301Y-11405585D01*
X18090301Y-11405585D02*
X18071253Y-11396061D01*
X18071253Y-11396061D02*
X18042682Y-11396061D01*
X18042682Y-11396061D02*
X18023634Y-11405585D01*
X18023634Y-11405585D02*
X18014111Y-11415108D01*
X18223634Y-11529394D02*
X18204587Y-11519870D01*
X18204587Y-11519870D02*
X18195063Y-11510346D01*
X18195063Y-11510346D02*
X18185539Y-11491299D01*
X18185539Y-11491299D02*
X18185539Y-11434156D01*
X18185539Y-11434156D02*
X18195063Y-11415108D01*
X18195063Y-11415108D02*
X18204587Y-11405585D01*
X18204587Y-11405585D02*
X18223634Y-11396061D01*
X18223634Y-11396061D02*
X18252206Y-11396061D01*
X18252206Y-11396061D02*
X18271253Y-11405585D01*
X18271253Y-11405585D02*
X18280777Y-11415108D01*
X18280777Y-11415108D02*
X18290301Y-11434156D01*
X18290301Y-11434156D02*
X18290301Y-11491299D01*
X18290301Y-11491299D02*
X18280777Y-11510346D01*
X18280777Y-11510346D02*
X18271253Y-11519870D01*
X18271253Y-11519870D02*
X18252206Y-11529394D01*
X18252206Y-11529394D02*
X18223634Y-11529394D01*
X18404587Y-11529394D02*
X18385539Y-11519870D01*
X18385539Y-11519870D02*
X18376015Y-11500823D01*
X18376015Y-11500823D02*
X18376015Y-11329394D01*
X18556968Y-11519870D02*
X18537920Y-11529394D01*
X18537920Y-11529394D02*
X18499825Y-11529394D01*
X18499825Y-11529394D02*
X18480777Y-11519870D01*
X18480777Y-11519870D02*
X18471253Y-11500823D01*
X18471253Y-11500823D02*
X18471253Y-11424632D01*
X18471253Y-11424632D02*
X18480777Y-11405585D01*
X18480777Y-11405585D02*
X18499825Y-11396061D01*
X18499825Y-11396061D02*
X18537920Y-11396061D01*
X18537920Y-11396061D02*
X18556968Y-11405585D01*
X18556968Y-11405585D02*
X18566492Y-11424632D01*
X18566492Y-11424632D02*
X18566492Y-11443680D01*
X18566492Y-11443680D02*
X18471253Y-11462727D01*
X18642682Y-11519870D02*
X18661730Y-11529394D01*
X18661730Y-11529394D02*
X18699825Y-11529394D01*
X18699825Y-11529394D02*
X18718873Y-11519870D01*
X18718873Y-11519870D02*
X18728396Y-11500823D01*
X18728396Y-11500823D02*
X18728396Y-11491299D01*
X18728396Y-11491299D02*
X18718873Y-11472251D01*
X18718873Y-11472251D02*
X18699825Y-11462727D01*
X18699825Y-11462727D02*
X18671253Y-11462727D01*
X18671253Y-11462727D02*
X18652206Y-11453204D01*
X18652206Y-11453204D02*
X18642682Y-11434156D01*
X18642682Y-11434156D02*
X18642682Y-11424632D01*
X18642682Y-11424632D02*
X18652206Y-11405585D01*
X18652206Y-11405585D02*
X18671253Y-11396061D01*
X18671253Y-11396061D02*
X18699825Y-11396061D01*
X18699825Y-11396061D02*
X18718873Y-11405585D01*
X18795063Y-11605585D02*
X18804587Y-11596061D01*
X18804587Y-11596061D02*
X18823634Y-11567489D01*
X18823634Y-11567489D02*
X18833158Y-11548442D01*
X18833158Y-11548442D02*
X18842682Y-11519870D01*
X18842682Y-11519870D02*
X18852206Y-11472251D01*
X18852206Y-11472251D02*
X18852206Y-11434156D01*
X18852206Y-11434156D02*
X18842682Y-11386537D01*
X18842682Y-11386537D02*
X18833158Y-11357966D01*
X18833158Y-11357966D02*
X18823634Y-11338918D01*
X18823634Y-11338918D02*
X18804587Y-11310346D01*
X18804587Y-11310346D02*
X18795063Y-11300823D01*
D10*
X14020000Y-11701910D02*
G75*
G02*
X13990000Y-11701910I-15000J0D01*
G01*
X13990000Y-11701910D02*
G75*
G02*
X14020000Y-11701910I15000J0D01*
G01*
D11*
X14318872Y-11593394D02*
X14337920Y-11593394D01*
X14337920Y-11593394D02*
X14356967Y-11602918D01*
X14356967Y-11602918D02*
X14366491Y-11612442D01*
X14366491Y-11612442D02*
X14376015Y-11631489D01*
X14376015Y-11631489D02*
X14385539Y-11669585D01*
X14385539Y-11669585D02*
X14385539Y-11717204D01*
X14385539Y-11717204D02*
X14376015Y-11755299D01*
X14376015Y-11755299D02*
X14366491Y-11774346D01*
X14366491Y-11774346D02*
X14356967Y-11783870D01*
X14356967Y-11783870D02*
X14337920Y-11793394D01*
X14337920Y-11793394D02*
X14318872Y-11793394D01*
X14318872Y-11793394D02*
X14299824Y-11783870D01*
X14299824Y-11783870D02*
X14290301Y-11774346D01*
X14290301Y-11774346D02*
X14280777Y-11755299D01*
X14280777Y-11755299D02*
X14271253Y-11717204D01*
X14271253Y-11717204D02*
X14271253Y-11669585D01*
X14271253Y-11669585D02*
X14280777Y-11631489D01*
X14280777Y-11631489D02*
X14290301Y-11612442D01*
X14290301Y-11612442D02*
X14299824Y-11602918D01*
X14299824Y-11602918D02*
X14318872Y-11593394D01*
X14471253Y-11774346D02*
X14480777Y-11783870D01*
X14480777Y-11783870D02*
X14471253Y-11793394D01*
X14471253Y-11793394D02*
X14461729Y-11783870D01*
X14461729Y-11783870D02*
X14471253Y-11774346D01*
X14471253Y-11774346D02*
X14471253Y-11793394D01*
X14547443Y-11593394D02*
X14671253Y-11593394D01*
X14671253Y-11593394D02*
X14604586Y-11669585D01*
X14604586Y-11669585D02*
X14633158Y-11669585D01*
X14633158Y-11669585D02*
X14652205Y-11679108D01*
X14652205Y-11679108D02*
X14661729Y-11688632D01*
X14661729Y-11688632D02*
X14671253Y-11707680D01*
X14671253Y-11707680D02*
X14671253Y-11755299D01*
X14671253Y-11755299D02*
X14661729Y-11774346D01*
X14661729Y-11774346D02*
X14652205Y-11783870D01*
X14652205Y-11783870D02*
X14633158Y-11793394D01*
X14633158Y-11793394D02*
X14576015Y-11793394D01*
X14576015Y-11793394D02*
X14556967Y-11783870D01*
X14556967Y-11783870D02*
X14547443Y-11774346D01*
X14795062Y-11593394D02*
X14814110Y-11593394D01*
X14814110Y-11593394D02*
X14833158Y-11602918D01*
X14833158Y-11602918D02*
X14842682Y-11612442D01*
X14842682Y-11612442D02*
X14852205Y-11631489D01*
X14852205Y-11631489D02*
X14861729Y-11669585D01*
X14861729Y-11669585D02*
X14861729Y-11717204D01*
X14861729Y-11717204D02*
X14852205Y-11755299D01*
X14852205Y-11755299D02*
X14842682Y-11774346D01*
X14842682Y-11774346D02*
X14833158Y-11783870D01*
X14833158Y-11783870D02*
X14814110Y-11793394D01*
X14814110Y-11793394D02*
X14795062Y-11793394D01*
X14795062Y-11793394D02*
X14776015Y-11783870D01*
X14776015Y-11783870D02*
X14766491Y-11774346D01*
X14766491Y-11774346D02*
X14756967Y-11755299D01*
X14756967Y-11755299D02*
X14747443Y-11717204D01*
X14747443Y-11717204D02*
X14747443Y-11669585D01*
X14747443Y-11669585D02*
X14756967Y-11631489D01*
X14756967Y-11631489D02*
X14766491Y-11612442D01*
X14766491Y-11612442D02*
X14776015Y-11602918D01*
X14776015Y-11602918D02*
X14795062Y-11593394D01*
X14985539Y-11593394D02*
X15004586Y-11593394D01*
X15004586Y-11593394D02*
X15023634Y-11602918D01*
X15023634Y-11602918D02*
X15033158Y-11612442D01*
X15033158Y-11612442D02*
X15042682Y-11631489D01*
X15042682Y-11631489D02*
X15052205Y-11669585D01*
X15052205Y-11669585D02*
X15052205Y-11717204D01*
X15052205Y-11717204D02*
X15042682Y-11755299D01*
X15042682Y-11755299D02*
X15033158Y-11774346D01*
X15033158Y-11774346D02*
X15023634Y-11783870D01*
X15023634Y-11783870D02*
X15004586Y-11793394D01*
X15004586Y-11793394D02*
X14985539Y-11793394D01*
X14985539Y-11793394D02*
X14966491Y-11783870D01*
X14966491Y-11783870D02*
X14956967Y-11774346D01*
X14956967Y-11774346D02*
X14947443Y-11755299D01*
X14947443Y-11755299D02*
X14937920Y-11717204D01*
X14937920Y-11717204D02*
X14937920Y-11669585D01*
X14937920Y-11669585D02*
X14947443Y-11631489D01*
X14947443Y-11631489D02*
X14956967Y-11612442D01*
X14956967Y-11612442D02*
X14966491Y-11602918D01*
X14966491Y-11602918D02*
X14985539Y-11593394D01*
X15137920Y-11793394D02*
X15137920Y-11660061D01*
X15137920Y-11679108D02*
X15147443Y-11669585D01*
X15147443Y-11669585D02*
X15166491Y-11660061D01*
X15166491Y-11660061D02*
X15195063Y-11660061D01*
X15195063Y-11660061D02*
X15214110Y-11669585D01*
X15214110Y-11669585D02*
X15223634Y-11688632D01*
X15223634Y-11688632D02*
X15223634Y-11793394D01*
X15223634Y-11688632D02*
X15233158Y-11669585D01*
X15233158Y-11669585D02*
X15252205Y-11660061D01*
X15252205Y-11660061D02*
X15280777Y-11660061D01*
X15280777Y-11660061D02*
X15299824Y-11669585D01*
X15299824Y-11669585D02*
X15309348Y-11688632D01*
X15309348Y-11688632D02*
X15309348Y-11793394D01*
X15404586Y-11793394D02*
X15404586Y-11660061D01*
X15404586Y-11679108D02*
X15414110Y-11669585D01*
X15414110Y-11669585D02*
X15433158Y-11660061D01*
X15433158Y-11660061D02*
X15461729Y-11660061D01*
X15461729Y-11660061D02*
X15480777Y-11669585D01*
X15480777Y-11669585D02*
X15490301Y-11688632D01*
X15490301Y-11688632D02*
X15490301Y-11793394D01*
X15490301Y-11688632D02*
X15499824Y-11669585D01*
X15499824Y-11669585D02*
X15518872Y-11660061D01*
X15518872Y-11660061D02*
X15547443Y-11660061D01*
X15547443Y-11660061D02*
X15566491Y-11669585D01*
X15566491Y-11669585D02*
X15576015Y-11688632D01*
X15576015Y-11688632D02*
X15576015Y-11793394D01*
X15966491Y-11583870D02*
X15795063Y-11841013D01*
X16223634Y-11593394D02*
X16242682Y-11593394D01*
X16242682Y-11593394D02*
X16261729Y-11602918D01*
X16261729Y-11602918D02*
X16271253Y-11612442D01*
X16271253Y-11612442D02*
X16280777Y-11631489D01*
X16280777Y-11631489D02*
X16290301Y-11669585D01*
X16290301Y-11669585D02*
X16290301Y-11717204D01*
X16290301Y-11717204D02*
X16280777Y-11755299D01*
X16280777Y-11755299D02*
X16271253Y-11774346D01*
X16271253Y-11774346D02*
X16261729Y-11783870D01*
X16261729Y-11783870D02*
X16242682Y-11793394D01*
X16242682Y-11793394D02*
X16223634Y-11793394D01*
X16223634Y-11793394D02*
X16204586Y-11783870D01*
X16204586Y-11783870D02*
X16195063Y-11774346D01*
X16195063Y-11774346D02*
X16185539Y-11755299D01*
X16185539Y-11755299D02*
X16176015Y-11717204D01*
X16176015Y-11717204D02*
X16176015Y-11669585D01*
X16176015Y-11669585D02*
X16185539Y-11631489D01*
X16185539Y-11631489D02*
X16195063Y-11612442D01*
X16195063Y-11612442D02*
X16204586Y-11602918D01*
X16204586Y-11602918D02*
X16223634Y-11593394D01*
X16376015Y-11774346D02*
X16385539Y-11783870D01*
X16385539Y-11783870D02*
X16376015Y-11793394D01*
X16376015Y-11793394D02*
X16366491Y-11783870D01*
X16366491Y-11783870D02*
X16376015Y-11774346D01*
X16376015Y-11774346D02*
X16376015Y-11793394D01*
X16509348Y-11593394D02*
X16528396Y-11593394D01*
X16528396Y-11593394D02*
X16547444Y-11602918D01*
X16547444Y-11602918D02*
X16556967Y-11612442D01*
X16556967Y-11612442D02*
X16566491Y-11631489D01*
X16566491Y-11631489D02*
X16576015Y-11669585D01*
X16576015Y-11669585D02*
X16576015Y-11717204D01*
X16576015Y-11717204D02*
X16566491Y-11755299D01*
X16566491Y-11755299D02*
X16556967Y-11774346D01*
X16556967Y-11774346D02*
X16547444Y-11783870D01*
X16547444Y-11783870D02*
X16528396Y-11793394D01*
X16528396Y-11793394D02*
X16509348Y-11793394D01*
X16509348Y-11793394D02*
X16490301Y-11783870D01*
X16490301Y-11783870D02*
X16480777Y-11774346D01*
X16480777Y-11774346D02*
X16471253Y-11755299D01*
X16471253Y-11755299D02*
X16461729Y-11717204D01*
X16461729Y-11717204D02*
X16461729Y-11669585D01*
X16461729Y-11669585D02*
X16471253Y-11631489D01*
X16471253Y-11631489D02*
X16480777Y-11612442D01*
X16480777Y-11612442D02*
X16490301Y-11602918D01*
X16490301Y-11602918D02*
X16509348Y-11593394D01*
X16766491Y-11793394D02*
X16652206Y-11793394D01*
X16709348Y-11793394D02*
X16709348Y-11593394D01*
X16709348Y-11593394D02*
X16690301Y-11621966D01*
X16690301Y-11621966D02*
X16671253Y-11641013D01*
X16671253Y-11641013D02*
X16652206Y-11650537D01*
X16956968Y-11793394D02*
X16842682Y-11793394D01*
X16899825Y-11793394D02*
X16899825Y-11593394D01*
X16899825Y-11593394D02*
X16880777Y-11621966D01*
X16880777Y-11621966D02*
X16861729Y-11641013D01*
X16861729Y-11641013D02*
X16842682Y-11650537D01*
X17071253Y-11679108D02*
X17052206Y-11669585D01*
X17052206Y-11669585D02*
X17042682Y-11660061D01*
X17042682Y-11660061D02*
X17033158Y-11641013D01*
X17033158Y-11641013D02*
X17033158Y-11631489D01*
X17033158Y-11631489D02*
X17042682Y-11612442D01*
X17042682Y-11612442D02*
X17052206Y-11602918D01*
X17052206Y-11602918D02*
X17071253Y-11593394D01*
X17071253Y-11593394D02*
X17109349Y-11593394D01*
X17109349Y-11593394D02*
X17128396Y-11602918D01*
X17128396Y-11602918D02*
X17137920Y-11612442D01*
X17137920Y-11612442D02*
X17147444Y-11631489D01*
X17147444Y-11631489D02*
X17147444Y-11641013D01*
X17147444Y-11641013D02*
X17137920Y-11660061D01*
X17137920Y-11660061D02*
X17128396Y-11669585D01*
X17128396Y-11669585D02*
X17109349Y-11679108D01*
X17109349Y-11679108D02*
X17071253Y-11679108D01*
X17071253Y-11679108D02*
X17052206Y-11688632D01*
X17052206Y-11688632D02*
X17042682Y-11698156D01*
X17042682Y-11698156D02*
X17033158Y-11717204D01*
X17033158Y-11717204D02*
X17033158Y-11755299D01*
X17033158Y-11755299D02*
X17042682Y-11774346D01*
X17042682Y-11774346D02*
X17052206Y-11783870D01*
X17052206Y-11783870D02*
X17071253Y-11793394D01*
X17071253Y-11793394D02*
X17109349Y-11793394D01*
X17109349Y-11793394D02*
X17128396Y-11783870D01*
X17128396Y-11783870D02*
X17137920Y-11774346D01*
X17137920Y-11774346D02*
X17147444Y-11755299D01*
X17147444Y-11755299D02*
X17147444Y-11717204D01*
X17147444Y-11717204D02*
X17137920Y-11698156D01*
X17137920Y-11698156D02*
X17128396Y-11688632D01*
X17128396Y-11688632D02*
X17109349Y-11679108D01*
X17223634Y-11593394D02*
X17223634Y-11631489D01*
X17299825Y-11593394D02*
X17299825Y-11631489D01*
X17595063Y-11869585D02*
X17585539Y-11860061D01*
X17585539Y-11860061D02*
X17566491Y-11831489D01*
X17566491Y-11831489D02*
X17556968Y-11812442D01*
X17556968Y-11812442D02*
X17547444Y-11783870D01*
X17547444Y-11783870D02*
X17537920Y-11736251D01*
X17537920Y-11736251D02*
X17537920Y-11698156D01*
X17537920Y-11698156D02*
X17547444Y-11650537D01*
X17547444Y-11650537D02*
X17556968Y-11621966D01*
X17556968Y-11621966D02*
X17566491Y-11602918D01*
X17566491Y-11602918D02*
X17585539Y-11574346D01*
X17585539Y-11574346D02*
X17595063Y-11564823D01*
X17766491Y-11593394D02*
X17671253Y-11593394D01*
X17671253Y-11593394D02*
X17661730Y-11688632D01*
X17661730Y-11688632D02*
X17671253Y-11679108D01*
X17671253Y-11679108D02*
X17690301Y-11669585D01*
X17690301Y-11669585D02*
X17737920Y-11669585D01*
X17737920Y-11669585D02*
X17756968Y-11679108D01*
X17756968Y-11679108D02*
X17766491Y-11688632D01*
X17766491Y-11688632D02*
X17776015Y-11707680D01*
X17776015Y-11707680D02*
X17776015Y-11755299D01*
X17776015Y-11755299D02*
X17766491Y-11774346D01*
X17766491Y-11774346D02*
X17756968Y-11783870D01*
X17756968Y-11783870D02*
X17737920Y-11793394D01*
X17737920Y-11793394D02*
X17690301Y-11793394D01*
X17690301Y-11793394D02*
X17671253Y-11783870D01*
X17671253Y-11783870D02*
X17661730Y-11774346D01*
X18014111Y-11793394D02*
X18014111Y-11593394D01*
X18099825Y-11793394D02*
X18099825Y-11688632D01*
X18099825Y-11688632D02*
X18090301Y-11669585D01*
X18090301Y-11669585D02*
X18071253Y-11660061D01*
X18071253Y-11660061D02*
X18042682Y-11660061D01*
X18042682Y-11660061D02*
X18023634Y-11669585D01*
X18023634Y-11669585D02*
X18014111Y-11679108D01*
X18223634Y-11793394D02*
X18204587Y-11783870D01*
X18204587Y-11783870D02*
X18195063Y-11774346D01*
X18195063Y-11774346D02*
X18185539Y-11755299D01*
X18185539Y-11755299D02*
X18185539Y-11698156D01*
X18185539Y-11698156D02*
X18195063Y-11679108D01*
X18195063Y-11679108D02*
X18204587Y-11669585D01*
X18204587Y-11669585D02*
X18223634Y-11660061D01*
X18223634Y-11660061D02*
X18252206Y-11660061D01*
X18252206Y-11660061D02*
X18271253Y-11669585D01*
X18271253Y-11669585D02*
X18280777Y-11679108D01*
X18280777Y-11679108D02*
X18290301Y-11698156D01*
X18290301Y-11698156D02*
X18290301Y-11755299D01*
X18290301Y-11755299D02*
X18280777Y-11774346D01*
X18280777Y-11774346D02*
X18271253Y-11783870D01*
X18271253Y-11783870D02*
X18252206Y-11793394D01*
X18252206Y-11793394D02*
X18223634Y-11793394D01*
X18404587Y-11793394D02*
X18385539Y-11783870D01*
X18385539Y-11783870D02*
X18376015Y-11764823D01*
X18376015Y-11764823D02*
X18376015Y-11593394D01*
X18556968Y-11783870D02*
X18537920Y-11793394D01*
X18537920Y-11793394D02*
X18499825Y-11793394D01*
X18499825Y-11793394D02*
X18480777Y-11783870D01*
X18480777Y-11783870D02*
X18471253Y-11764823D01*
X18471253Y-11764823D02*
X18471253Y-11688632D01*
X18471253Y-11688632D02*
X18480777Y-11669585D01*
X18480777Y-11669585D02*
X18499825Y-11660061D01*
X18499825Y-11660061D02*
X18537920Y-11660061D01*
X18537920Y-11660061D02*
X18556968Y-11669585D01*
X18556968Y-11669585D02*
X18566492Y-11688632D01*
X18566492Y-11688632D02*
X18566492Y-11707680D01*
X18566492Y-11707680D02*
X18471253Y-11726727D01*
X18642682Y-11783870D02*
X18661730Y-11793394D01*
X18661730Y-11793394D02*
X18699825Y-11793394D01*
X18699825Y-11793394D02*
X18718873Y-11783870D01*
X18718873Y-11783870D02*
X18728396Y-11764823D01*
X18728396Y-11764823D02*
X18728396Y-11755299D01*
X18728396Y-11755299D02*
X18718873Y-11736251D01*
X18718873Y-11736251D02*
X18699825Y-11726727D01*
X18699825Y-11726727D02*
X18671253Y-11726727D01*
X18671253Y-11726727D02*
X18652206Y-11717204D01*
X18652206Y-11717204D02*
X18642682Y-11698156D01*
X18642682Y-11698156D02*
X18642682Y-11688632D01*
X18642682Y-11688632D02*
X18652206Y-11669585D01*
X18652206Y-11669585D02*
X18671253Y-11660061D01*
X18671253Y-11660061D02*
X18699825Y-11660061D01*
X18699825Y-11660061D02*
X18718873Y-11669585D01*
X18795063Y-11869585D02*
X18804587Y-11860061D01*
X18804587Y-11860061D02*
X18823634Y-11831489D01*
X18823634Y-11831489D02*
X18833158Y-11812442D01*
X18833158Y-11812442D02*
X18842682Y-11783870D01*
X18842682Y-11783870D02*
X18852206Y-11736251D01*
X18852206Y-11736251D02*
X18852206Y-11698156D01*
X18852206Y-11698156D02*
X18842682Y-11650537D01*
X18842682Y-11650537D02*
X18833158Y-11621966D01*
X18833158Y-11621966D02*
X18823634Y-11602918D01*
X18823634Y-11602918D02*
X18804587Y-11574346D01*
X18804587Y-11574346D02*
X18795063Y-11564823D01*
D10*
X14000000Y-11945910D02*
X14000000Y-11985910D01*
X13980000Y-11965910D02*
X14020000Y-11965910D01*
D11*
X14318872Y-11857394D02*
X14337920Y-11857394D01*
X14337920Y-11857394D02*
X14356967Y-11866918D01*
X14356967Y-11866918D02*
X14366491Y-11876442D01*
X14366491Y-11876442D02*
X14376015Y-11895489D01*
X14376015Y-11895489D02*
X14385539Y-11933585D01*
X14385539Y-11933585D02*
X14385539Y-11981204D01*
X14385539Y-11981204D02*
X14376015Y-12019299D01*
X14376015Y-12019299D02*
X14366491Y-12038346D01*
X14366491Y-12038346D02*
X14356967Y-12047870D01*
X14356967Y-12047870D02*
X14337920Y-12057394D01*
X14337920Y-12057394D02*
X14318872Y-12057394D01*
X14318872Y-12057394D02*
X14299824Y-12047870D01*
X14299824Y-12047870D02*
X14290301Y-12038346D01*
X14290301Y-12038346D02*
X14280777Y-12019299D01*
X14280777Y-12019299D02*
X14271253Y-11981204D01*
X14271253Y-11981204D02*
X14271253Y-11933585D01*
X14271253Y-11933585D02*
X14280777Y-11895489D01*
X14280777Y-11895489D02*
X14290301Y-11876442D01*
X14290301Y-11876442D02*
X14299824Y-11866918D01*
X14299824Y-11866918D02*
X14318872Y-11857394D01*
X14471253Y-12038346D02*
X14480777Y-12047870D01*
X14480777Y-12047870D02*
X14471253Y-12057394D01*
X14471253Y-12057394D02*
X14461729Y-12047870D01*
X14461729Y-12047870D02*
X14471253Y-12038346D01*
X14471253Y-12038346D02*
X14471253Y-12057394D01*
X14652205Y-11924061D02*
X14652205Y-12057394D01*
X14604586Y-11847870D02*
X14556967Y-11990727D01*
X14556967Y-11990727D02*
X14680777Y-11990727D01*
X14795062Y-11857394D02*
X14814110Y-11857394D01*
X14814110Y-11857394D02*
X14833158Y-11866918D01*
X14833158Y-11866918D02*
X14842682Y-11876442D01*
X14842682Y-11876442D02*
X14852205Y-11895489D01*
X14852205Y-11895489D02*
X14861729Y-11933585D01*
X14861729Y-11933585D02*
X14861729Y-11981204D01*
X14861729Y-11981204D02*
X14852205Y-12019299D01*
X14852205Y-12019299D02*
X14842682Y-12038346D01*
X14842682Y-12038346D02*
X14833158Y-12047870D01*
X14833158Y-12047870D02*
X14814110Y-12057394D01*
X14814110Y-12057394D02*
X14795062Y-12057394D01*
X14795062Y-12057394D02*
X14776015Y-12047870D01*
X14776015Y-12047870D02*
X14766491Y-12038346D01*
X14766491Y-12038346D02*
X14756967Y-12019299D01*
X14756967Y-12019299D02*
X14747443Y-11981204D01*
X14747443Y-11981204D02*
X14747443Y-11933585D01*
X14747443Y-11933585D02*
X14756967Y-11895489D01*
X14756967Y-11895489D02*
X14766491Y-11876442D01*
X14766491Y-11876442D02*
X14776015Y-11866918D01*
X14776015Y-11866918D02*
X14795062Y-11857394D01*
X14985539Y-11857394D02*
X15004586Y-11857394D01*
X15004586Y-11857394D02*
X15023634Y-11866918D01*
X15023634Y-11866918D02*
X15033158Y-11876442D01*
X15033158Y-11876442D02*
X15042682Y-11895489D01*
X15042682Y-11895489D02*
X15052205Y-11933585D01*
X15052205Y-11933585D02*
X15052205Y-11981204D01*
X15052205Y-11981204D02*
X15042682Y-12019299D01*
X15042682Y-12019299D02*
X15033158Y-12038346D01*
X15033158Y-12038346D02*
X15023634Y-12047870D01*
X15023634Y-12047870D02*
X15004586Y-12057394D01*
X15004586Y-12057394D02*
X14985539Y-12057394D01*
X14985539Y-12057394D02*
X14966491Y-12047870D01*
X14966491Y-12047870D02*
X14956967Y-12038346D01*
X14956967Y-12038346D02*
X14947443Y-12019299D01*
X14947443Y-12019299D02*
X14937920Y-11981204D01*
X14937920Y-11981204D02*
X14937920Y-11933585D01*
X14937920Y-11933585D02*
X14947443Y-11895489D01*
X14947443Y-11895489D02*
X14956967Y-11876442D01*
X14956967Y-11876442D02*
X14966491Y-11866918D01*
X14966491Y-11866918D02*
X14985539Y-11857394D01*
X15137920Y-12057394D02*
X15137920Y-11924061D01*
X15137920Y-11943108D02*
X15147443Y-11933585D01*
X15147443Y-11933585D02*
X15166491Y-11924061D01*
X15166491Y-11924061D02*
X15195063Y-11924061D01*
X15195063Y-11924061D02*
X15214110Y-11933585D01*
X15214110Y-11933585D02*
X15223634Y-11952632D01*
X15223634Y-11952632D02*
X15223634Y-12057394D01*
X15223634Y-11952632D02*
X15233158Y-11933585D01*
X15233158Y-11933585D02*
X15252205Y-11924061D01*
X15252205Y-11924061D02*
X15280777Y-11924061D01*
X15280777Y-11924061D02*
X15299824Y-11933585D01*
X15299824Y-11933585D02*
X15309348Y-11952632D01*
X15309348Y-11952632D02*
X15309348Y-12057394D01*
X15404586Y-12057394D02*
X15404586Y-11924061D01*
X15404586Y-11943108D02*
X15414110Y-11933585D01*
X15414110Y-11933585D02*
X15433158Y-11924061D01*
X15433158Y-11924061D02*
X15461729Y-11924061D01*
X15461729Y-11924061D02*
X15480777Y-11933585D01*
X15480777Y-11933585D02*
X15490301Y-11952632D01*
X15490301Y-11952632D02*
X15490301Y-12057394D01*
X15490301Y-11952632D02*
X15499824Y-11933585D01*
X15499824Y-11933585D02*
X15518872Y-11924061D01*
X15518872Y-11924061D02*
X15547443Y-11924061D01*
X15547443Y-11924061D02*
X15566491Y-11933585D01*
X15566491Y-11933585D02*
X15576015Y-11952632D01*
X15576015Y-11952632D02*
X15576015Y-12057394D01*
X15966491Y-11847870D02*
X15795063Y-12105013D01*
X16223634Y-11857394D02*
X16242682Y-11857394D01*
X16242682Y-11857394D02*
X16261729Y-11866918D01*
X16261729Y-11866918D02*
X16271253Y-11876442D01*
X16271253Y-11876442D02*
X16280777Y-11895489D01*
X16280777Y-11895489D02*
X16290301Y-11933585D01*
X16290301Y-11933585D02*
X16290301Y-11981204D01*
X16290301Y-11981204D02*
X16280777Y-12019299D01*
X16280777Y-12019299D02*
X16271253Y-12038346D01*
X16271253Y-12038346D02*
X16261729Y-12047870D01*
X16261729Y-12047870D02*
X16242682Y-12057394D01*
X16242682Y-12057394D02*
X16223634Y-12057394D01*
X16223634Y-12057394D02*
X16204586Y-12047870D01*
X16204586Y-12047870D02*
X16195063Y-12038346D01*
X16195063Y-12038346D02*
X16185539Y-12019299D01*
X16185539Y-12019299D02*
X16176015Y-11981204D01*
X16176015Y-11981204D02*
X16176015Y-11933585D01*
X16176015Y-11933585D02*
X16185539Y-11895489D01*
X16185539Y-11895489D02*
X16195063Y-11876442D01*
X16195063Y-11876442D02*
X16204586Y-11866918D01*
X16204586Y-11866918D02*
X16223634Y-11857394D01*
X16376015Y-12038346D02*
X16385539Y-12047870D01*
X16385539Y-12047870D02*
X16376015Y-12057394D01*
X16376015Y-12057394D02*
X16366491Y-12047870D01*
X16366491Y-12047870D02*
X16376015Y-12038346D01*
X16376015Y-12038346D02*
X16376015Y-12057394D01*
X16509348Y-11857394D02*
X16528396Y-11857394D01*
X16528396Y-11857394D02*
X16547444Y-11866918D01*
X16547444Y-11866918D02*
X16556967Y-11876442D01*
X16556967Y-11876442D02*
X16566491Y-11895489D01*
X16566491Y-11895489D02*
X16576015Y-11933585D01*
X16576015Y-11933585D02*
X16576015Y-11981204D01*
X16576015Y-11981204D02*
X16566491Y-12019299D01*
X16566491Y-12019299D02*
X16556967Y-12038346D01*
X16556967Y-12038346D02*
X16547444Y-12047870D01*
X16547444Y-12047870D02*
X16528396Y-12057394D01*
X16528396Y-12057394D02*
X16509348Y-12057394D01*
X16509348Y-12057394D02*
X16490301Y-12047870D01*
X16490301Y-12047870D02*
X16480777Y-12038346D01*
X16480777Y-12038346D02*
X16471253Y-12019299D01*
X16471253Y-12019299D02*
X16461729Y-11981204D01*
X16461729Y-11981204D02*
X16461729Y-11933585D01*
X16461729Y-11933585D02*
X16471253Y-11895489D01*
X16471253Y-11895489D02*
X16480777Y-11876442D01*
X16480777Y-11876442D02*
X16490301Y-11866918D01*
X16490301Y-11866918D02*
X16509348Y-11857394D01*
X16766491Y-12057394D02*
X16652206Y-12057394D01*
X16709348Y-12057394D02*
X16709348Y-11857394D01*
X16709348Y-11857394D02*
X16690301Y-11885966D01*
X16690301Y-11885966D02*
X16671253Y-11905013D01*
X16671253Y-11905013D02*
X16652206Y-11914537D01*
X16947444Y-11857394D02*
X16852206Y-11857394D01*
X16852206Y-11857394D02*
X16842682Y-11952632D01*
X16842682Y-11952632D02*
X16852206Y-11943108D01*
X16852206Y-11943108D02*
X16871253Y-11933585D01*
X16871253Y-11933585D02*
X16918872Y-11933585D01*
X16918872Y-11933585D02*
X16937920Y-11943108D01*
X16937920Y-11943108D02*
X16947444Y-11952632D01*
X16947444Y-11952632D02*
X16956968Y-11971680D01*
X16956968Y-11971680D02*
X16956968Y-12019299D01*
X16956968Y-12019299D02*
X16947444Y-12038346D01*
X16947444Y-12038346D02*
X16937920Y-12047870D01*
X16937920Y-12047870D02*
X16918872Y-12057394D01*
X16918872Y-12057394D02*
X16871253Y-12057394D01*
X16871253Y-12057394D02*
X16852206Y-12047870D01*
X16852206Y-12047870D02*
X16842682Y-12038346D01*
X17023634Y-11857394D02*
X17156968Y-11857394D01*
X17156968Y-11857394D02*
X17071253Y-12057394D01*
X17223634Y-11857394D02*
X17223634Y-11895489D01*
X17299825Y-11857394D02*
X17299825Y-11895489D01*
X17595063Y-12133585D02*
X17585539Y-12124061D01*
X17585539Y-12124061D02*
X17566491Y-12095489D01*
X17566491Y-12095489D02*
X17556968Y-12076442D01*
X17556968Y-12076442D02*
X17547444Y-12047870D01*
X17547444Y-12047870D02*
X17537920Y-12000251D01*
X17537920Y-12000251D02*
X17537920Y-11962156D01*
X17537920Y-11962156D02*
X17547444Y-11914537D01*
X17547444Y-11914537D02*
X17556968Y-11885966D01*
X17556968Y-11885966D02*
X17566491Y-11866918D01*
X17566491Y-11866918D02*
X17585539Y-11838346D01*
X17585539Y-11838346D02*
X17595063Y-11828823D01*
X17661730Y-11876442D02*
X17671253Y-11866918D01*
X17671253Y-11866918D02*
X17690301Y-11857394D01*
X17690301Y-11857394D02*
X17737920Y-11857394D01*
X17737920Y-11857394D02*
X17756968Y-11866918D01*
X17756968Y-11866918D02*
X17766491Y-11876442D01*
X17766491Y-11876442D02*
X17776015Y-11895489D01*
X17776015Y-11895489D02*
X17776015Y-11914537D01*
X17776015Y-11914537D02*
X17766491Y-11943108D01*
X17766491Y-11943108D02*
X17652206Y-12057394D01*
X17652206Y-12057394D02*
X17776015Y-12057394D01*
X17899825Y-11857394D02*
X17918872Y-11857394D01*
X17918872Y-11857394D02*
X17937920Y-11866918D01*
X17937920Y-11866918D02*
X17947444Y-11876442D01*
X17947444Y-11876442D02*
X17956968Y-11895489D01*
X17956968Y-11895489D02*
X17966491Y-11933585D01*
X17966491Y-11933585D02*
X17966491Y-11981204D01*
X17966491Y-11981204D02*
X17956968Y-12019299D01*
X17956968Y-12019299D02*
X17947444Y-12038346D01*
X17947444Y-12038346D02*
X17937920Y-12047870D01*
X17937920Y-12047870D02*
X17918872Y-12057394D01*
X17918872Y-12057394D02*
X17899825Y-12057394D01*
X17899825Y-12057394D02*
X17880777Y-12047870D01*
X17880777Y-12047870D02*
X17871253Y-12038346D01*
X17871253Y-12038346D02*
X17861730Y-12019299D01*
X17861730Y-12019299D02*
X17852206Y-11981204D01*
X17852206Y-11981204D02*
X17852206Y-11933585D01*
X17852206Y-11933585D02*
X17861730Y-11895489D01*
X17861730Y-11895489D02*
X17871253Y-11876442D01*
X17871253Y-11876442D02*
X17880777Y-11866918D01*
X17880777Y-11866918D02*
X17899825Y-11857394D01*
X18033158Y-11857394D02*
X18166491Y-11857394D01*
X18166491Y-11857394D02*
X18080777Y-12057394D01*
X18395063Y-12057394D02*
X18395063Y-11857394D01*
X18480777Y-12057394D02*
X18480777Y-11952632D01*
X18480777Y-11952632D02*
X18471253Y-11933585D01*
X18471253Y-11933585D02*
X18452206Y-11924061D01*
X18452206Y-11924061D02*
X18423634Y-11924061D01*
X18423634Y-11924061D02*
X18404587Y-11933585D01*
X18404587Y-11933585D02*
X18395063Y-11943108D01*
X18604587Y-12057394D02*
X18585539Y-12047870D01*
X18585539Y-12047870D02*
X18576015Y-12038346D01*
X18576015Y-12038346D02*
X18566492Y-12019299D01*
X18566492Y-12019299D02*
X18566492Y-11962156D01*
X18566492Y-11962156D02*
X18576015Y-11943108D01*
X18576015Y-11943108D02*
X18585539Y-11933585D01*
X18585539Y-11933585D02*
X18604587Y-11924061D01*
X18604587Y-11924061D02*
X18633158Y-11924061D01*
X18633158Y-11924061D02*
X18652206Y-11933585D01*
X18652206Y-11933585D02*
X18661730Y-11943108D01*
X18661730Y-11943108D02*
X18671253Y-11962156D01*
X18671253Y-11962156D02*
X18671253Y-12019299D01*
X18671253Y-12019299D02*
X18661730Y-12038346D01*
X18661730Y-12038346D02*
X18652206Y-12047870D01*
X18652206Y-12047870D02*
X18633158Y-12057394D01*
X18633158Y-12057394D02*
X18604587Y-12057394D01*
X18785539Y-12057394D02*
X18766492Y-12047870D01*
X18766492Y-12047870D02*
X18756968Y-12028823D01*
X18756968Y-12028823D02*
X18756968Y-11857394D01*
X18937920Y-12047870D02*
X18918873Y-12057394D01*
X18918873Y-12057394D02*
X18880777Y-12057394D01*
X18880777Y-12057394D02*
X18861730Y-12047870D01*
X18861730Y-12047870D02*
X18852206Y-12028823D01*
X18852206Y-12028823D02*
X18852206Y-11952632D01*
X18852206Y-11952632D02*
X18861730Y-11933585D01*
X18861730Y-11933585D02*
X18880777Y-11924061D01*
X18880777Y-11924061D02*
X18918873Y-11924061D01*
X18918873Y-11924061D02*
X18937920Y-11933585D01*
X18937920Y-11933585D02*
X18947444Y-11952632D01*
X18947444Y-11952632D02*
X18947444Y-11971680D01*
X18947444Y-11971680D02*
X18852206Y-11990727D01*
X19023634Y-12047870D02*
X19042682Y-12057394D01*
X19042682Y-12057394D02*
X19080777Y-12057394D01*
X19080777Y-12057394D02*
X19099825Y-12047870D01*
X19099825Y-12047870D02*
X19109349Y-12028823D01*
X19109349Y-12028823D02*
X19109349Y-12019299D01*
X19109349Y-12019299D02*
X19099825Y-12000251D01*
X19099825Y-12000251D02*
X19080777Y-11990727D01*
X19080777Y-11990727D02*
X19052206Y-11990727D01*
X19052206Y-11990727D02*
X19033158Y-11981204D01*
X19033158Y-11981204D02*
X19023634Y-11962156D01*
X19023634Y-11962156D02*
X19023634Y-11952632D01*
X19023634Y-11952632D02*
X19033158Y-11933585D01*
X19033158Y-11933585D02*
X19052206Y-11924061D01*
X19052206Y-11924061D02*
X19080777Y-11924061D01*
X19080777Y-11924061D02*
X19099825Y-11933585D01*
X19176015Y-12133585D02*
X19185539Y-12124061D01*
X19185539Y-12124061D02*
X19204587Y-12095489D01*
X19204587Y-12095489D02*
X19214111Y-12076442D01*
X19214111Y-12076442D02*
X19223634Y-12047870D01*
X19223634Y-12047870D02*
X19233158Y-12000251D01*
X19233158Y-12000251D02*
X19233158Y-11962156D01*
X19233158Y-11962156D02*
X19223634Y-11914537D01*
X19223634Y-11914537D02*
X19214111Y-11885966D01*
X19214111Y-11885966D02*
X19204587Y-11866918D01*
X19204587Y-11866918D02*
X19185539Y-11838346D01*
X19185539Y-11838346D02*
X19176015Y-11828823D01*
D10*
X14005356Y-12265266D02*
X14005356Y-12194555D01*
X13934644Y-12194555D01*
X13934644Y-12265266D01*
X14005356Y-12265266D01*
D11*
X14385539Y-12321394D02*
X14271253Y-12321394D01*
X14328396Y-12321394D02*
X14328396Y-12121394D01*
X14328396Y-12121394D02*
X14309348Y-12149966D01*
X14309348Y-12149966D02*
X14290301Y-12169013D01*
X14290301Y-12169013D02*
X14271253Y-12178537D01*
X14471253Y-12302346D02*
X14480777Y-12311870D01*
X14480777Y-12311870D02*
X14471253Y-12321394D01*
X14471253Y-12321394D02*
X14461729Y-12311870D01*
X14461729Y-12311870D02*
X14471253Y-12302346D01*
X14471253Y-12302346D02*
X14471253Y-12321394D01*
X14604586Y-12121394D02*
X14623634Y-12121394D01*
X14623634Y-12121394D02*
X14642682Y-12130918D01*
X14642682Y-12130918D02*
X14652205Y-12140442D01*
X14652205Y-12140442D02*
X14661729Y-12159489D01*
X14661729Y-12159489D02*
X14671253Y-12197585D01*
X14671253Y-12197585D02*
X14671253Y-12245204D01*
X14671253Y-12245204D02*
X14661729Y-12283299D01*
X14661729Y-12283299D02*
X14652205Y-12302346D01*
X14652205Y-12302346D02*
X14642682Y-12311870D01*
X14642682Y-12311870D02*
X14623634Y-12321394D01*
X14623634Y-12321394D02*
X14604586Y-12321394D01*
X14604586Y-12321394D02*
X14585539Y-12311870D01*
X14585539Y-12311870D02*
X14576015Y-12302346D01*
X14576015Y-12302346D02*
X14566491Y-12283299D01*
X14566491Y-12283299D02*
X14556967Y-12245204D01*
X14556967Y-12245204D02*
X14556967Y-12197585D01*
X14556967Y-12197585D02*
X14566491Y-12159489D01*
X14566491Y-12159489D02*
X14576015Y-12140442D01*
X14576015Y-12140442D02*
X14585539Y-12130918D01*
X14585539Y-12130918D02*
X14604586Y-12121394D01*
X14795062Y-12121394D02*
X14814110Y-12121394D01*
X14814110Y-12121394D02*
X14833158Y-12130918D01*
X14833158Y-12130918D02*
X14842682Y-12140442D01*
X14842682Y-12140442D02*
X14852205Y-12159489D01*
X14852205Y-12159489D02*
X14861729Y-12197585D01*
X14861729Y-12197585D02*
X14861729Y-12245204D01*
X14861729Y-12245204D02*
X14852205Y-12283299D01*
X14852205Y-12283299D02*
X14842682Y-12302346D01*
X14842682Y-12302346D02*
X14833158Y-12311870D01*
X14833158Y-12311870D02*
X14814110Y-12321394D01*
X14814110Y-12321394D02*
X14795062Y-12321394D01*
X14795062Y-12321394D02*
X14776015Y-12311870D01*
X14776015Y-12311870D02*
X14766491Y-12302346D01*
X14766491Y-12302346D02*
X14756967Y-12283299D01*
X14756967Y-12283299D02*
X14747443Y-12245204D01*
X14747443Y-12245204D02*
X14747443Y-12197585D01*
X14747443Y-12197585D02*
X14756967Y-12159489D01*
X14756967Y-12159489D02*
X14766491Y-12140442D01*
X14766491Y-12140442D02*
X14776015Y-12130918D01*
X14776015Y-12130918D02*
X14795062Y-12121394D01*
X14985539Y-12121394D02*
X15004586Y-12121394D01*
X15004586Y-12121394D02*
X15023634Y-12130918D01*
X15023634Y-12130918D02*
X15033158Y-12140442D01*
X15033158Y-12140442D02*
X15042682Y-12159489D01*
X15042682Y-12159489D02*
X15052205Y-12197585D01*
X15052205Y-12197585D02*
X15052205Y-12245204D01*
X15052205Y-12245204D02*
X15042682Y-12283299D01*
X15042682Y-12283299D02*
X15033158Y-12302346D01*
X15033158Y-12302346D02*
X15023634Y-12311870D01*
X15023634Y-12311870D02*
X15004586Y-12321394D01*
X15004586Y-12321394D02*
X14985539Y-12321394D01*
X14985539Y-12321394D02*
X14966491Y-12311870D01*
X14966491Y-12311870D02*
X14956967Y-12302346D01*
X14956967Y-12302346D02*
X14947443Y-12283299D01*
X14947443Y-12283299D02*
X14937920Y-12245204D01*
X14937920Y-12245204D02*
X14937920Y-12197585D01*
X14937920Y-12197585D02*
X14947443Y-12159489D01*
X14947443Y-12159489D02*
X14956967Y-12140442D01*
X14956967Y-12140442D02*
X14966491Y-12130918D01*
X14966491Y-12130918D02*
X14985539Y-12121394D01*
X15137920Y-12321394D02*
X15137920Y-12188061D01*
X15137920Y-12207108D02*
X15147443Y-12197585D01*
X15147443Y-12197585D02*
X15166491Y-12188061D01*
X15166491Y-12188061D02*
X15195063Y-12188061D01*
X15195063Y-12188061D02*
X15214110Y-12197585D01*
X15214110Y-12197585D02*
X15223634Y-12216632D01*
X15223634Y-12216632D02*
X15223634Y-12321394D01*
X15223634Y-12216632D02*
X15233158Y-12197585D01*
X15233158Y-12197585D02*
X15252205Y-12188061D01*
X15252205Y-12188061D02*
X15280777Y-12188061D01*
X15280777Y-12188061D02*
X15299824Y-12197585D01*
X15299824Y-12197585D02*
X15309348Y-12216632D01*
X15309348Y-12216632D02*
X15309348Y-12321394D01*
X15404586Y-12321394D02*
X15404586Y-12188061D01*
X15404586Y-12207108D02*
X15414110Y-12197585D01*
X15414110Y-12197585D02*
X15433158Y-12188061D01*
X15433158Y-12188061D02*
X15461729Y-12188061D01*
X15461729Y-12188061D02*
X15480777Y-12197585D01*
X15480777Y-12197585D02*
X15490301Y-12216632D01*
X15490301Y-12216632D02*
X15490301Y-12321394D01*
X15490301Y-12216632D02*
X15499824Y-12197585D01*
X15499824Y-12197585D02*
X15518872Y-12188061D01*
X15518872Y-12188061D02*
X15547443Y-12188061D01*
X15547443Y-12188061D02*
X15566491Y-12197585D01*
X15566491Y-12197585D02*
X15576015Y-12216632D01*
X15576015Y-12216632D02*
X15576015Y-12321394D01*
X15966491Y-12111870D02*
X15795063Y-12369013D01*
X16223634Y-12121394D02*
X16242682Y-12121394D01*
X16242682Y-12121394D02*
X16261729Y-12130918D01*
X16261729Y-12130918D02*
X16271253Y-12140442D01*
X16271253Y-12140442D02*
X16280777Y-12159489D01*
X16280777Y-12159489D02*
X16290301Y-12197585D01*
X16290301Y-12197585D02*
X16290301Y-12245204D01*
X16290301Y-12245204D02*
X16280777Y-12283299D01*
X16280777Y-12283299D02*
X16271253Y-12302346D01*
X16271253Y-12302346D02*
X16261729Y-12311870D01*
X16261729Y-12311870D02*
X16242682Y-12321394D01*
X16242682Y-12321394D02*
X16223634Y-12321394D01*
X16223634Y-12321394D02*
X16204586Y-12311870D01*
X16204586Y-12311870D02*
X16195063Y-12302346D01*
X16195063Y-12302346D02*
X16185539Y-12283299D01*
X16185539Y-12283299D02*
X16176015Y-12245204D01*
X16176015Y-12245204D02*
X16176015Y-12197585D01*
X16176015Y-12197585D02*
X16185539Y-12159489D01*
X16185539Y-12159489D02*
X16195063Y-12140442D01*
X16195063Y-12140442D02*
X16204586Y-12130918D01*
X16204586Y-12130918D02*
X16223634Y-12121394D01*
X16376015Y-12302346D02*
X16385539Y-12311870D01*
X16385539Y-12311870D02*
X16376015Y-12321394D01*
X16376015Y-12321394D02*
X16366491Y-12311870D01*
X16366491Y-12311870D02*
X16376015Y-12302346D01*
X16376015Y-12302346D02*
X16376015Y-12321394D01*
X16509348Y-12121394D02*
X16528396Y-12121394D01*
X16528396Y-12121394D02*
X16547444Y-12130918D01*
X16547444Y-12130918D02*
X16556967Y-12140442D01*
X16556967Y-12140442D02*
X16566491Y-12159489D01*
X16566491Y-12159489D02*
X16576015Y-12197585D01*
X16576015Y-12197585D02*
X16576015Y-12245204D01*
X16576015Y-12245204D02*
X16566491Y-12283299D01*
X16566491Y-12283299D02*
X16556967Y-12302346D01*
X16556967Y-12302346D02*
X16547444Y-12311870D01*
X16547444Y-12311870D02*
X16528396Y-12321394D01*
X16528396Y-12321394D02*
X16509348Y-12321394D01*
X16509348Y-12321394D02*
X16490301Y-12311870D01*
X16490301Y-12311870D02*
X16480777Y-12302346D01*
X16480777Y-12302346D02*
X16471253Y-12283299D01*
X16471253Y-12283299D02*
X16461729Y-12245204D01*
X16461729Y-12245204D02*
X16461729Y-12197585D01*
X16461729Y-12197585D02*
X16471253Y-12159489D01*
X16471253Y-12159489D02*
X16480777Y-12140442D01*
X16480777Y-12140442D02*
X16490301Y-12130918D01*
X16490301Y-12130918D02*
X16509348Y-12121394D01*
X16642682Y-12121394D02*
X16766491Y-12121394D01*
X16766491Y-12121394D02*
X16699825Y-12197585D01*
X16699825Y-12197585D02*
X16728396Y-12197585D01*
X16728396Y-12197585D02*
X16747444Y-12207108D01*
X16747444Y-12207108D02*
X16756967Y-12216632D01*
X16756967Y-12216632D02*
X16766491Y-12235680D01*
X16766491Y-12235680D02*
X16766491Y-12283299D01*
X16766491Y-12283299D02*
X16756967Y-12302346D01*
X16756967Y-12302346D02*
X16747444Y-12311870D01*
X16747444Y-12311870D02*
X16728396Y-12321394D01*
X16728396Y-12321394D02*
X16671253Y-12321394D01*
X16671253Y-12321394D02*
X16652206Y-12311870D01*
X16652206Y-12311870D02*
X16642682Y-12302346D01*
X16861729Y-12321394D02*
X16899825Y-12321394D01*
X16899825Y-12321394D02*
X16918872Y-12311870D01*
X16918872Y-12311870D02*
X16928396Y-12302346D01*
X16928396Y-12302346D02*
X16947444Y-12273775D01*
X16947444Y-12273775D02*
X16956968Y-12235680D01*
X16956968Y-12235680D02*
X16956968Y-12159489D01*
X16956968Y-12159489D02*
X16947444Y-12140442D01*
X16947444Y-12140442D02*
X16937920Y-12130918D01*
X16937920Y-12130918D02*
X16918872Y-12121394D01*
X16918872Y-12121394D02*
X16880777Y-12121394D01*
X16880777Y-12121394D02*
X16861729Y-12130918D01*
X16861729Y-12130918D02*
X16852206Y-12140442D01*
X16852206Y-12140442D02*
X16842682Y-12159489D01*
X16842682Y-12159489D02*
X16842682Y-12207108D01*
X16842682Y-12207108D02*
X16852206Y-12226156D01*
X16852206Y-12226156D02*
X16861729Y-12235680D01*
X16861729Y-12235680D02*
X16880777Y-12245204D01*
X16880777Y-12245204D02*
X16918872Y-12245204D01*
X16918872Y-12245204D02*
X16937920Y-12235680D01*
X16937920Y-12235680D02*
X16947444Y-12226156D01*
X16947444Y-12226156D02*
X16956968Y-12207108D01*
X17128396Y-12188061D02*
X17128396Y-12321394D01*
X17080777Y-12111870D02*
X17033158Y-12254727D01*
X17033158Y-12254727D02*
X17156968Y-12254727D01*
X17223634Y-12121394D02*
X17223634Y-12159489D01*
X17299825Y-12121394D02*
X17299825Y-12159489D01*
X17595063Y-12397585D02*
X17585539Y-12388061D01*
X17585539Y-12388061D02*
X17566491Y-12359489D01*
X17566491Y-12359489D02*
X17556968Y-12340442D01*
X17556968Y-12340442D02*
X17547444Y-12311870D01*
X17547444Y-12311870D02*
X17537920Y-12264251D01*
X17537920Y-12264251D02*
X17537920Y-12226156D01*
X17537920Y-12226156D02*
X17547444Y-12178537D01*
X17547444Y-12178537D02*
X17556968Y-12149966D01*
X17556968Y-12149966D02*
X17566491Y-12130918D01*
X17566491Y-12130918D02*
X17585539Y-12102346D01*
X17585539Y-12102346D02*
X17595063Y-12092823D01*
X17661730Y-12140442D02*
X17671253Y-12130918D01*
X17671253Y-12130918D02*
X17690301Y-12121394D01*
X17690301Y-12121394D02*
X17737920Y-12121394D01*
X17737920Y-12121394D02*
X17756968Y-12130918D01*
X17756968Y-12130918D02*
X17766491Y-12140442D01*
X17766491Y-12140442D02*
X17776015Y-12159489D01*
X17776015Y-12159489D02*
X17776015Y-12178537D01*
X17776015Y-12178537D02*
X17766491Y-12207108D01*
X17766491Y-12207108D02*
X17652206Y-12321394D01*
X17652206Y-12321394D02*
X17776015Y-12321394D01*
X17899825Y-12121394D02*
X17918872Y-12121394D01*
X17918872Y-12121394D02*
X17937920Y-12130918D01*
X17937920Y-12130918D02*
X17947444Y-12140442D01*
X17947444Y-12140442D02*
X17956968Y-12159489D01*
X17956968Y-12159489D02*
X17966491Y-12197585D01*
X17966491Y-12197585D02*
X17966491Y-12245204D01*
X17966491Y-12245204D02*
X17956968Y-12283299D01*
X17956968Y-12283299D02*
X17947444Y-12302346D01*
X17947444Y-12302346D02*
X17937920Y-12311870D01*
X17937920Y-12311870D02*
X17918872Y-12321394D01*
X17918872Y-12321394D02*
X17899825Y-12321394D01*
X17899825Y-12321394D02*
X17880777Y-12311870D01*
X17880777Y-12311870D02*
X17871253Y-12302346D01*
X17871253Y-12302346D02*
X17861730Y-12283299D01*
X17861730Y-12283299D02*
X17852206Y-12245204D01*
X17852206Y-12245204D02*
X17852206Y-12197585D01*
X17852206Y-12197585D02*
X17861730Y-12159489D01*
X17861730Y-12159489D02*
X17871253Y-12140442D01*
X17871253Y-12140442D02*
X17880777Y-12130918D01*
X17880777Y-12130918D02*
X17899825Y-12121394D01*
X18204587Y-12321394D02*
X18204587Y-12121394D01*
X18290301Y-12321394D02*
X18290301Y-12216632D01*
X18290301Y-12216632D02*
X18280777Y-12197585D01*
X18280777Y-12197585D02*
X18261730Y-12188061D01*
X18261730Y-12188061D02*
X18233158Y-12188061D01*
X18233158Y-12188061D02*
X18214111Y-12197585D01*
X18214111Y-12197585D02*
X18204587Y-12207108D01*
X18414111Y-12321394D02*
X18395063Y-12311870D01*
X18395063Y-12311870D02*
X18385539Y-12302346D01*
X18385539Y-12302346D02*
X18376015Y-12283299D01*
X18376015Y-12283299D02*
X18376015Y-12226156D01*
X18376015Y-12226156D02*
X18385539Y-12207108D01*
X18385539Y-12207108D02*
X18395063Y-12197585D01*
X18395063Y-12197585D02*
X18414111Y-12188061D01*
X18414111Y-12188061D02*
X18442682Y-12188061D01*
X18442682Y-12188061D02*
X18461730Y-12197585D01*
X18461730Y-12197585D02*
X18471253Y-12207108D01*
X18471253Y-12207108D02*
X18480777Y-12226156D01*
X18480777Y-12226156D02*
X18480777Y-12283299D01*
X18480777Y-12283299D02*
X18471253Y-12302346D01*
X18471253Y-12302346D02*
X18461730Y-12311870D01*
X18461730Y-12311870D02*
X18442682Y-12321394D01*
X18442682Y-12321394D02*
X18414111Y-12321394D01*
X18595063Y-12321394D02*
X18576015Y-12311870D01*
X18576015Y-12311870D02*
X18566492Y-12292823D01*
X18566492Y-12292823D02*
X18566492Y-12121394D01*
X18747444Y-12311870D02*
X18728396Y-12321394D01*
X18728396Y-12321394D02*
X18690301Y-12321394D01*
X18690301Y-12321394D02*
X18671253Y-12311870D01*
X18671253Y-12311870D02*
X18661730Y-12292823D01*
X18661730Y-12292823D02*
X18661730Y-12216632D01*
X18661730Y-12216632D02*
X18671253Y-12197585D01*
X18671253Y-12197585D02*
X18690301Y-12188061D01*
X18690301Y-12188061D02*
X18728396Y-12188061D01*
X18728396Y-12188061D02*
X18747444Y-12197585D01*
X18747444Y-12197585D02*
X18756968Y-12216632D01*
X18756968Y-12216632D02*
X18756968Y-12235680D01*
X18756968Y-12235680D02*
X18661730Y-12254727D01*
X18833158Y-12311870D02*
X18852206Y-12321394D01*
X18852206Y-12321394D02*
X18890301Y-12321394D01*
X18890301Y-12321394D02*
X18909349Y-12311870D01*
X18909349Y-12311870D02*
X18918873Y-12292823D01*
X18918873Y-12292823D02*
X18918873Y-12283299D01*
X18918873Y-12283299D02*
X18909349Y-12264251D01*
X18909349Y-12264251D02*
X18890301Y-12254727D01*
X18890301Y-12254727D02*
X18861730Y-12254727D01*
X18861730Y-12254727D02*
X18842682Y-12245204D01*
X18842682Y-12245204D02*
X18833158Y-12226156D01*
X18833158Y-12226156D02*
X18833158Y-12216632D01*
X18833158Y-12216632D02*
X18842682Y-12197585D01*
X18842682Y-12197585D02*
X18861730Y-12188061D01*
X18861730Y-12188061D02*
X18890301Y-12188061D01*
X18890301Y-12188061D02*
X18909349Y-12197585D01*
X18985539Y-12397585D02*
X18995063Y-12388061D01*
X18995063Y-12388061D02*
X19014111Y-12359489D01*
X19014111Y-12359489D02*
X19023634Y-12340442D01*
X19023634Y-12340442D02*
X19033158Y-12311870D01*
X19033158Y-12311870D02*
X19042682Y-12264251D01*
X19042682Y-12264251D02*
X19042682Y-12226156D01*
X19042682Y-12226156D02*
X19033158Y-12178537D01*
X19033158Y-12178537D02*
X19023634Y-12149966D01*
X19023634Y-12149966D02*
X19014111Y-12130918D01*
X19014111Y-12130918D02*
X18995063Y-12102346D01*
X18995063Y-12102346D02*
X18985539Y-12092823D01*
D12*
X13960000Y-12553910D02*
X14020000Y-12493910D01*
X13960000Y-12433910D01*
X13900000Y-12493910D01*
X13960000Y-12553910D01*
D11*
X14385539Y-12585394D02*
X14271253Y-12585394D01*
X14328396Y-12585394D02*
X14328396Y-12385394D01*
X14328396Y-12385394D02*
X14309348Y-12413966D01*
X14309348Y-12413966D02*
X14290301Y-12433013D01*
X14290301Y-12433013D02*
X14271253Y-12442537D01*
X14471253Y-12566346D02*
X14480777Y-12575870D01*
X14480777Y-12575870D02*
X14471253Y-12585394D01*
X14471253Y-12585394D02*
X14461729Y-12575870D01*
X14461729Y-12575870D02*
X14471253Y-12566346D01*
X14471253Y-12566346D02*
X14471253Y-12585394D01*
X14556967Y-12404442D02*
X14566491Y-12394918D01*
X14566491Y-12394918D02*
X14585539Y-12385394D01*
X14585539Y-12385394D02*
X14633158Y-12385394D01*
X14633158Y-12385394D02*
X14652205Y-12394918D01*
X14652205Y-12394918D02*
X14661729Y-12404442D01*
X14661729Y-12404442D02*
X14671253Y-12423489D01*
X14671253Y-12423489D02*
X14671253Y-12442537D01*
X14671253Y-12442537D02*
X14661729Y-12471108D01*
X14661729Y-12471108D02*
X14547443Y-12585394D01*
X14547443Y-12585394D02*
X14671253Y-12585394D01*
X14795062Y-12385394D02*
X14814110Y-12385394D01*
X14814110Y-12385394D02*
X14833158Y-12394918D01*
X14833158Y-12394918D02*
X14842682Y-12404442D01*
X14842682Y-12404442D02*
X14852205Y-12423489D01*
X14852205Y-12423489D02*
X14861729Y-12461585D01*
X14861729Y-12461585D02*
X14861729Y-12509204D01*
X14861729Y-12509204D02*
X14852205Y-12547299D01*
X14852205Y-12547299D02*
X14842682Y-12566346D01*
X14842682Y-12566346D02*
X14833158Y-12575870D01*
X14833158Y-12575870D02*
X14814110Y-12585394D01*
X14814110Y-12585394D02*
X14795062Y-12585394D01*
X14795062Y-12585394D02*
X14776015Y-12575870D01*
X14776015Y-12575870D02*
X14766491Y-12566346D01*
X14766491Y-12566346D02*
X14756967Y-12547299D01*
X14756967Y-12547299D02*
X14747443Y-12509204D01*
X14747443Y-12509204D02*
X14747443Y-12461585D01*
X14747443Y-12461585D02*
X14756967Y-12423489D01*
X14756967Y-12423489D02*
X14766491Y-12404442D01*
X14766491Y-12404442D02*
X14776015Y-12394918D01*
X14776015Y-12394918D02*
X14795062Y-12385394D01*
X14985539Y-12385394D02*
X15004586Y-12385394D01*
X15004586Y-12385394D02*
X15023634Y-12394918D01*
X15023634Y-12394918D02*
X15033158Y-12404442D01*
X15033158Y-12404442D02*
X15042682Y-12423489D01*
X15042682Y-12423489D02*
X15052205Y-12461585D01*
X15052205Y-12461585D02*
X15052205Y-12509204D01*
X15052205Y-12509204D02*
X15042682Y-12547299D01*
X15042682Y-12547299D02*
X15033158Y-12566346D01*
X15033158Y-12566346D02*
X15023634Y-12575870D01*
X15023634Y-12575870D02*
X15004586Y-12585394D01*
X15004586Y-12585394D02*
X14985539Y-12585394D01*
X14985539Y-12585394D02*
X14966491Y-12575870D01*
X14966491Y-12575870D02*
X14956967Y-12566346D01*
X14956967Y-12566346D02*
X14947443Y-12547299D01*
X14947443Y-12547299D02*
X14937920Y-12509204D01*
X14937920Y-12509204D02*
X14937920Y-12461585D01*
X14937920Y-12461585D02*
X14947443Y-12423489D01*
X14947443Y-12423489D02*
X14956967Y-12404442D01*
X14956967Y-12404442D02*
X14966491Y-12394918D01*
X14966491Y-12394918D02*
X14985539Y-12385394D01*
X15137920Y-12585394D02*
X15137920Y-12452061D01*
X15137920Y-12471108D02*
X15147443Y-12461585D01*
X15147443Y-12461585D02*
X15166491Y-12452061D01*
X15166491Y-12452061D02*
X15195063Y-12452061D01*
X15195063Y-12452061D02*
X15214110Y-12461585D01*
X15214110Y-12461585D02*
X15223634Y-12480632D01*
X15223634Y-12480632D02*
X15223634Y-12585394D01*
X15223634Y-12480632D02*
X15233158Y-12461585D01*
X15233158Y-12461585D02*
X15252205Y-12452061D01*
X15252205Y-12452061D02*
X15280777Y-12452061D01*
X15280777Y-12452061D02*
X15299824Y-12461585D01*
X15299824Y-12461585D02*
X15309348Y-12480632D01*
X15309348Y-12480632D02*
X15309348Y-12585394D01*
X15404586Y-12585394D02*
X15404586Y-12452061D01*
X15404586Y-12471108D02*
X15414110Y-12461585D01*
X15414110Y-12461585D02*
X15433158Y-12452061D01*
X15433158Y-12452061D02*
X15461729Y-12452061D01*
X15461729Y-12452061D02*
X15480777Y-12461585D01*
X15480777Y-12461585D02*
X15490301Y-12480632D01*
X15490301Y-12480632D02*
X15490301Y-12585394D01*
X15490301Y-12480632D02*
X15499824Y-12461585D01*
X15499824Y-12461585D02*
X15518872Y-12452061D01*
X15518872Y-12452061D02*
X15547443Y-12452061D01*
X15547443Y-12452061D02*
X15566491Y-12461585D01*
X15566491Y-12461585D02*
X15576015Y-12480632D01*
X15576015Y-12480632D02*
X15576015Y-12585394D01*
X15966491Y-12375870D02*
X15795063Y-12633013D01*
X16223634Y-12385394D02*
X16242682Y-12385394D01*
X16242682Y-12385394D02*
X16261729Y-12394918D01*
X16261729Y-12394918D02*
X16271253Y-12404442D01*
X16271253Y-12404442D02*
X16280777Y-12423489D01*
X16280777Y-12423489D02*
X16290301Y-12461585D01*
X16290301Y-12461585D02*
X16290301Y-12509204D01*
X16290301Y-12509204D02*
X16280777Y-12547299D01*
X16280777Y-12547299D02*
X16271253Y-12566346D01*
X16271253Y-12566346D02*
X16261729Y-12575870D01*
X16261729Y-12575870D02*
X16242682Y-12585394D01*
X16242682Y-12585394D02*
X16223634Y-12585394D01*
X16223634Y-12585394D02*
X16204586Y-12575870D01*
X16204586Y-12575870D02*
X16195063Y-12566346D01*
X16195063Y-12566346D02*
X16185539Y-12547299D01*
X16185539Y-12547299D02*
X16176015Y-12509204D01*
X16176015Y-12509204D02*
X16176015Y-12461585D01*
X16176015Y-12461585D02*
X16185539Y-12423489D01*
X16185539Y-12423489D02*
X16195063Y-12404442D01*
X16195063Y-12404442D02*
X16204586Y-12394918D01*
X16204586Y-12394918D02*
X16223634Y-12385394D01*
X16376015Y-12566346D02*
X16385539Y-12575870D01*
X16385539Y-12575870D02*
X16376015Y-12585394D01*
X16376015Y-12585394D02*
X16366491Y-12575870D01*
X16366491Y-12575870D02*
X16376015Y-12566346D01*
X16376015Y-12566346D02*
X16376015Y-12585394D01*
X16509348Y-12385394D02*
X16528396Y-12385394D01*
X16528396Y-12385394D02*
X16547444Y-12394918D01*
X16547444Y-12394918D02*
X16556967Y-12404442D01*
X16556967Y-12404442D02*
X16566491Y-12423489D01*
X16566491Y-12423489D02*
X16576015Y-12461585D01*
X16576015Y-12461585D02*
X16576015Y-12509204D01*
X16576015Y-12509204D02*
X16566491Y-12547299D01*
X16566491Y-12547299D02*
X16556967Y-12566346D01*
X16556967Y-12566346D02*
X16547444Y-12575870D01*
X16547444Y-12575870D02*
X16528396Y-12585394D01*
X16528396Y-12585394D02*
X16509348Y-12585394D01*
X16509348Y-12585394D02*
X16490301Y-12575870D01*
X16490301Y-12575870D02*
X16480777Y-12566346D01*
X16480777Y-12566346D02*
X16471253Y-12547299D01*
X16471253Y-12547299D02*
X16461729Y-12509204D01*
X16461729Y-12509204D02*
X16461729Y-12461585D01*
X16461729Y-12461585D02*
X16471253Y-12423489D01*
X16471253Y-12423489D02*
X16480777Y-12404442D01*
X16480777Y-12404442D02*
X16490301Y-12394918D01*
X16490301Y-12394918D02*
X16509348Y-12385394D01*
X16747444Y-12452061D02*
X16747444Y-12585394D01*
X16699825Y-12375870D02*
X16652206Y-12518727D01*
X16652206Y-12518727D02*
X16776015Y-12518727D01*
X16833158Y-12385394D02*
X16966491Y-12385394D01*
X16966491Y-12385394D02*
X16880777Y-12585394D01*
X17033158Y-12404442D02*
X17042682Y-12394918D01*
X17042682Y-12394918D02*
X17061729Y-12385394D01*
X17061729Y-12385394D02*
X17109349Y-12385394D01*
X17109349Y-12385394D02*
X17128396Y-12394918D01*
X17128396Y-12394918D02*
X17137920Y-12404442D01*
X17137920Y-12404442D02*
X17147444Y-12423489D01*
X17147444Y-12423489D02*
X17147444Y-12442537D01*
X17147444Y-12442537D02*
X17137920Y-12471108D01*
X17137920Y-12471108D02*
X17023634Y-12585394D01*
X17023634Y-12585394D02*
X17147444Y-12585394D01*
X17223634Y-12385394D02*
X17223634Y-12423489D01*
X17299825Y-12385394D02*
X17299825Y-12423489D01*
X17595063Y-12661585D02*
X17585539Y-12652061D01*
X17585539Y-12652061D02*
X17566491Y-12623489D01*
X17566491Y-12623489D02*
X17556968Y-12604442D01*
X17556968Y-12604442D02*
X17547444Y-12575870D01*
X17547444Y-12575870D02*
X17537920Y-12528251D01*
X17537920Y-12528251D02*
X17537920Y-12490156D01*
X17537920Y-12490156D02*
X17547444Y-12442537D01*
X17547444Y-12442537D02*
X17556968Y-12413966D01*
X17556968Y-12413966D02*
X17566491Y-12394918D01*
X17566491Y-12394918D02*
X17585539Y-12366346D01*
X17585539Y-12366346D02*
X17595063Y-12356823D01*
X17652206Y-12385394D02*
X17776015Y-12385394D01*
X17776015Y-12385394D02*
X17709349Y-12461585D01*
X17709349Y-12461585D02*
X17737920Y-12461585D01*
X17737920Y-12461585D02*
X17756968Y-12471108D01*
X17756968Y-12471108D02*
X17766491Y-12480632D01*
X17766491Y-12480632D02*
X17776015Y-12499680D01*
X17776015Y-12499680D02*
X17776015Y-12547299D01*
X17776015Y-12547299D02*
X17766491Y-12566346D01*
X17766491Y-12566346D02*
X17756968Y-12575870D01*
X17756968Y-12575870D02*
X17737920Y-12585394D01*
X17737920Y-12585394D02*
X17680777Y-12585394D01*
X17680777Y-12585394D02*
X17661730Y-12575870D01*
X17661730Y-12575870D02*
X17652206Y-12566346D01*
X18014111Y-12585394D02*
X18014111Y-12385394D01*
X18099825Y-12585394D02*
X18099825Y-12480632D01*
X18099825Y-12480632D02*
X18090301Y-12461585D01*
X18090301Y-12461585D02*
X18071253Y-12452061D01*
X18071253Y-12452061D02*
X18042682Y-12452061D01*
X18042682Y-12452061D02*
X18023634Y-12461585D01*
X18023634Y-12461585D02*
X18014111Y-12471108D01*
X18223634Y-12585394D02*
X18204587Y-12575870D01*
X18204587Y-12575870D02*
X18195063Y-12566346D01*
X18195063Y-12566346D02*
X18185539Y-12547299D01*
X18185539Y-12547299D02*
X18185539Y-12490156D01*
X18185539Y-12490156D02*
X18195063Y-12471108D01*
X18195063Y-12471108D02*
X18204587Y-12461585D01*
X18204587Y-12461585D02*
X18223634Y-12452061D01*
X18223634Y-12452061D02*
X18252206Y-12452061D01*
X18252206Y-12452061D02*
X18271253Y-12461585D01*
X18271253Y-12461585D02*
X18280777Y-12471108D01*
X18280777Y-12471108D02*
X18290301Y-12490156D01*
X18290301Y-12490156D02*
X18290301Y-12547299D01*
X18290301Y-12547299D02*
X18280777Y-12566346D01*
X18280777Y-12566346D02*
X18271253Y-12575870D01*
X18271253Y-12575870D02*
X18252206Y-12585394D01*
X18252206Y-12585394D02*
X18223634Y-12585394D01*
X18404587Y-12585394D02*
X18385539Y-12575870D01*
X18385539Y-12575870D02*
X18376015Y-12556823D01*
X18376015Y-12556823D02*
X18376015Y-12385394D01*
X18556968Y-12575870D02*
X18537920Y-12585394D01*
X18537920Y-12585394D02*
X18499825Y-12585394D01*
X18499825Y-12585394D02*
X18480777Y-12575870D01*
X18480777Y-12575870D02*
X18471253Y-12556823D01*
X18471253Y-12556823D02*
X18471253Y-12480632D01*
X18471253Y-12480632D02*
X18480777Y-12461585D01*
X18480777Y-12461585D02*
X18499825Y-12452061D01*
X18499825Y-12452061D02*
X18537920Y-12452061D01*
X18537920Y-12452061D02*
X18556968Y-12461585D01*
X18556968Y-12461585D02*
X18566492Y-12480632D01*
X18566492Y-12480632D02*
X18566492Y-12499680D01*
X18566492Y-12499680D02*
X18471253Y-12518727D01*
X18642682Y-12575870D02*
X18661730Y-12585394D01*
X18661730Y-12585394D02*
X18699825Y-12585394D01*
X18699825Y-12585394D02*
X18718873Y-12575870D01*
X18718873Y-12575870D02*
X18728396Y-12556823D01*
X18728396Y-12556823D02*
X18728396Y-12547299D01*
X18728396Y-12547299D02*
X18718873Y-12528251D01*
X18718873Y-12528251D02*
X18699825Y-12518727D01*
X18699825Y-12518727D02*
X18671253Y-12518727D01*
X18671253Y-12518727D02*
X18652206Y-12509204D01*
X18652206Y-12509204D02*
X18642682Y-12490156D01*
X18642682Y-12490156D02*
X18642682Y-12480632D01*
X18642682Y-12480632D02*
X18652206Y-12461585D01*
X18652206Y-12461585D02*
X18671253Y-12452061D01*
X18671253Y-12452061D02*
X18699825Y-12452061D01*
X18699825Y-12452061D02*
X18718873Y-12461585D01*
X18795063Y-12661585D02*
X18804587Y-12652061D01*
X18804587Y-12652061D02*
X18823634Y-12623489D01*
X18823634Y-12623489D02*
X18833158Y-12604442D01*
X18833158Y-12604442D02*
X18842682Y-12575870D01*
X18842682Y-12575870D02*
X18852206Y-12528251D01*
X18852206Y-12528251D02*
X18852206Y-12490156D01*
X18852206Y-12490156D02*
X18842682Y-12442537D01*
X18842682Y-12442537D02*
X18833158Y-12413966D01*
X18833158Y-12413966D02*
X18823634Y-12394918D01*
X18823634Y-12394918D02*
X18804587Y-12366346D01*
X18804587Y-12366346D02*
X18795063Y-12356823D01*
M02*
