%TF.GenerationSoftware,KiCad,Pcbnew,8.0.1*%
%TF.CreationDate,2024-07-17T16:46:41-04:00*%
%TF.ProjectId,Tiny4FSK,54696e79-3446-4534-9b2e-6b696361645f,rev?*%
%TF.SameCoordinates,Original*%
%TF.FileFunction,Drillmap*%
%TF.FilePolarity,Positive*%
%FSLAX45Y45*%
G04 Gerber Fmt 4.5, Leading zero omitted, Abs format (unit mm)*
G04 Created by KiCad (PCBNEW 8.0.1) date 2024-07-17 16:46:41*
%MOMM*%
%LPD*%
G01*
G04 APERTURE LIST*
%ADD10C,0.100000*%
%ADD11C,0.200000*%
%ADD12C,0.120000*%
G04 APERTURE END LIST*
D10*
X15875000Y-8125000D02*
X16075000Y-8125000D01*
X16075000Y-8425000D01*
X15875000Y-8425000D01*
X15875000Y-8125000D01*
X15875000Y-7725000D02*
X16075000Y-7725000D01*
X16075000Y-8025000D01*
X15875000Y-8025000D01*
X15875000Y-7725000D01*
X15875000Y-4825000D02*
X16075000Y-4825000D01*
X16075000Y-7475000D01*
X15875000Y-7475000D01*
X15875000Y-4825000D01*
X15875000Y-8550000D02*
X16075000Y-8550000D01*
X16075000Y-9800000D01*
X15875000Y-9800000D01*
X15875000Y-8550000D01*
X15874984Y-10017287D02*
X16074984Y-10017287D01*
X16074984Y-10767287D01*
X15874984Y-10767287D01*
X15874984Y-10017287D01*
X15975000Y-4800000D02*
X16025000Y-4800000D01*
X16425000Y-4800000D01*
X16424871Y-10792910D01*
X14525000Y-10793136D01*
X14525000Y-10900000D01*
X14525000Y-11300000D01*
X14025000Y-11300000D01*
X14025000Y-10825000D01*
X12800000Y-10825000D01*
X12799277Y-8581426D01*
X14024277Y-8581426D01*
X14025000Y-4375000D01*
X15975000Y-4375000D01*
X15975000Y-4800000D01*
D11*
D10*
X15140000Y-9090000D02*
X15160000Y-9110000D01*
X15160000Y-9090000D02*
X15140000Y-9110000D01*
X15140000Y-9290000D02*
X15160000Y-9310000D01*
X15160000Y-9290000D02*
X15140000Y-9310000D01*
X15340000Y-9090000D02*
X15360000Y-9110000D01*
X15360000Y-9090000D02*
X15340000Y-9110000D01*
X15340000Y-9290000D02*
X15360000Y-9310000D01*
X15360000Y-9290000D02*
X15340000Y-9310000D01*
X12915000Y-8925000D02*
G75*
G02*
X12885000Y-8925000I-15000J0D01*
G01*
X12885000Y-8925000D02*
G75*
G02*
X12915000Y-8925000I15000J0D01*
G01*
X13240000Y-9450000D02*
G75*
G02*
X13210000Y-9450000I-15000J0D01*
G01*
X13210000Y-9450000D02*
G75*
G02*
X13240000Y-9450000I15000J0D01*
G01*
X13248176Y-10123324D02*
G75*
G02*
X13218176Y-10123324I-15000J0D01*
G01*
X13218176Y-10123324D02*
G75*
G02*
X13248176Y-10123324I15000J0D01*
G01*
X13440000Y-9800000D02*
G75*
G02*
X13410000Y-9800000I-15000J0D01*
G01*
X13410000Y-9800000D02*
G75*
G02*
X13440000Y-9800000I15000J0D01*
G01*
X13665000Y-9800000D02*
G75*
G02*
X13635000Y-9800000I-15000J0D01*
G01*
X13635000Y-9800000D02*
G75*
G02*
X13665000Y-9800000I15000J0D01*
G01*
X13840000Y-9425000D02*
G75*
G02*
X13810000Y-9425000I-15000J0D01*
G01*
X13810000Y-9425000D02*
G75*
G02*
X13840000Y-9425000I15000J0D01*
G01*
X13840000Y-9875000D02*
G75*
G02*
X13810000Y-9875000I-15000J0D01*
G01*
X13810000Y-9875000D02*
G75*
G02*
X13840000Y-9875000I15000J0D01*
G01*
X13853163Y-9220512D02*
G75*
G02*
X13823163Y-9220512I-15000J0D01*
G01*
X13823163Y-9220512D02*
G75*
G02*
X13853163Y-9220512I15000J0D01*
G01*
X13865000Y-8925000D02*
G75*
G02*
X13835000Y-8925000I-15000J0D01*
G01*
X13835000Y-8925000D02*
G75*
G02*
X13865000Y-8925000I15000J0D01*
G01*
X13865000Y-9050000D02*
G75*
G02*
X13835000Y-9050000I-15000J0D01*
G01*
X13835000Y-9050000D02*
G75*
G02*
X13865000Y-9050000I15000J0D01*
G01*
X13915000Y-9575000D02*
G75*
G02*
X13885000Y-9575000I-15000J0D01*
G01*
X13885000Y-9575000D02*
G75*
G02*
X13915000Y-9575000I15000J0D01*
G01*
X15288500Y-6910500D02*
X15288500Y-6940500D01*
X15273500Y-6925500D02*
X15303500Y-6925500D01*
X15288500Y-7010500D02*
X15288500Y-7040500D01*
X15273500Y-7025500D02*
X15303500Y-7025500D01*
X15363500Y-6960500D02*
X15363500Y-6990500D01*
X15348500Y-6975500D02*
X15378500Y-6975500D01*
X15438500Y-6910500D02*
X15438500Y-6940500D01*
X15423500Y-6925500D02*
X15453500Y-6925500D01*
X15438500Y-7010500D02*
X15438500Y-7040500D01*
X15423500Y-7025500D02*
X15453500Y-7025500D01*
X12924373Y-9822500D02*
X12924373Y-9794215D01*
X12896088Y-9794215D01*
X12896088Y-9822500D01*
X12924373Y-9822500D01*
X13014142Y-9089142D02*
X13014142Y-9060858D01*
X12985858Y-9060858D01*
X12985858Y-9089142D01*
X13014142Y-9089142D01*
X13054767Y-9710283D02*
X13054767Y-9681998D01*
X13026482Y-9681998D01*
X13026482Y-9710283D01*
X13054767Y-9710283D01*
X13058412Y-9488675D02*
X13058412Y-9460390D01*
X13030127Y-9460390D01*
X13030127Y-9488675D01*
X13058412Y-9488675D01*
X13089142Y-10264142D02*
X13089142Y-10235858D01*
X13060858Y-10235858D01*
X13060858Y-10264142D01*
X13089142Y-10264142D01*
X13129142Y-9364642D02*
X13129142Y-9336358D01*
X13100858Y-9336358D01*
X13100858Y-9364642D01*
X13129142Y-9364642D01*
X13164142Y-10364142D02*
X13164142Y-10335858D01*
X13135858Y-10335858D01*
X13135858Y-10364142D01*
X13164142Y-10364142D01*
X13289142Y-10364142D02*
X13289142Y-10335858D01*
X13260858Y-10335858D01*
X13260858Y-10364142D01*
X13289142Y-10364142D01*
X13324487Y-9697161D02*
X13324487Y-9668876D01*
X13296202Y-9668876D01*
X13296202Y-9697161D01*
X13324487Y-9697161D01*
X13327145Y-9827145D02*
X13327145Y-9798860D01*
X13298860Y-9798860D01*
X13298860Y-9827145D01*
X13327145Y-9827145D01*
X13339142Y-10194142D02*
X13339142Y-10165858D01*
X13310858Y-10165858D01*
X13310858Y-10194142D01*
X13339142Y-10194142D01*
X13414142Y-10364142D02*
X13414142Y-10335858D01*
X13385858Y-10335858D01*
X13385858Y-10364142D01*
X13414142Y-10364142D01*
X13444390Y-10174062D02*
X13444390Y-10145777D01*
X13416106Y-10145777D01*
X13416106Y-10174062D01*
X13444390Y-10174062D01*
X13539142Y-10364142D02*
X13539142Y-10335858D01*
X13510858Y-10335858D01*
X13510858Y-10364142D01*
X13539142Y-10364142D01*
X13664142Y-10364142D02*
X13664142Y-10335858D01*
X13635858Y-10335858D01*
X13635858Y-10364142D01*
X13664142Y-10364142D01*
X13664918Y-9401198D02*
X13664918Y-9372913D01*
X13636633Y-9372913D01*
X13636633Y-9401198D01*
X13664918Y-9401198D01*
X13714142Y-10264142D02*
X13714142Y-10235858D01*
X13685858Y-10235858D01*
X13685858Y-10264142D01*
X13714142Y-10264142D01*
X14089142Y-5014142D02*
X14089142Y-4985858D01*
X14060858Y-4985858D01*
X14060858Y-5014142D01*
X14089142Y-5014142D01*
X14089142Y-5714142D02*
X14089142Y-5685858D01*
X14060858Y-5685858D01*
X14060858Y-5714142D01*
X14089142Y-5714142D01*
X14089142Y-6489142D02*
X14089142Y-6460858D01*
X14060858Y-6460858D01*
X14060858Y-6489142D01*
X14089142Y-6489142D01*
X14089142Y-10739142D02*
X14089142Y-10710858D01*
X14060858Y-10710858D01*
X14060858Y-10739142D01*
X14089142Y-10739142D01*
X14099365Y-8180821D02*
X14099365Y-8152536D01*
X14071080Y-8152536D01*
X14071080Y-8180821D01*
X14099365Y-8180821D01*
X14114142Y-4889142D02*
X14114142Y-4860858D01*
X14085858Y-4860858D01*
X14085858Y-4889142D01*
X14114142Y-4889142D01*
X14114142Y-6839142D02*
X14114142Y-6810858D01*
X14085858Y-6810858D01*
X14085858Y-6839142D01*
X14114142Y-6839142D01*
X14114142Y-7139142D02*
X14114142Y-7110858D01*
X14085858Y-7110858D01*
X14085858Y-7139142D01*
X14114142Y-7139142D01*
X14114142Y-7539142D02*
X14114142Y-7510858D01*
X14085858Y-7510858D01*
X14085858Y-7539142D01*
X14114142Y-7539142D01*
X14114142Y-9564142D02*
X14114142Y-9535858D01*
X14085858Y-9535858D01*
X14085858Y-9564142D01*
X14114142Y-9564142D01*
X14119246Y-8061944D02*
X14119246Y-8033660D01*
X14090962Y-8033660D01*
X14090962Y-8061944D01*
X14119246Y-8061944D01*
X14136295Y-5514169D02*
X14136295Y-5485885D01*
X14108010Y-5485885D01*
X14108010Y-5514169D01*
X14136295Y-5514169D01*
X14188749Y-5005275D02*
X14188749Y-4976990D01*
X14160464Y-4976990D01*
X14160464Y-5005275D01*
X14188749Y-5005275D01*
X14193991Y-7914252D02*
X14193991Y-7885968D01*
X14165707Y-7885968D01*
X14165707Y-7914252D01*
X14193991Y-7914252D01*
X14214142Y-4889142D02*
X14214142Y-4860858D01*
X14185858Y-4860858D01*
X14185858Y-4889142D01*
X14214142Y-4889142D01*
X14239142Y-6989142D02*
X14239142Y-6960858D01*
X14210858Y-6960858D01*
X14210858Y-6989142D01*
X14239142Y-6989142D01*
X14264142Y-8216642D02*
X14264142Y-8188358D01*
X14235858Y-8188358D01*
X14235858Y-8216642D01*
X14264142Y-8216642D01*
X14264142Y-9576642D02*
X14264142Y-9548358D01*
X14235858Y-9548358D01*
X14235858Y-9576642D01*
X14264142Y-9576642D01*
X14306851Y-8021806D02*
X14306851Y-7993521D01*
X14278566Y-7993521D01*
X14278566Y-8021806D01*
X14306851Y-8021806D01*
X14314142Y-4889142D02*
X14314142Y-4860858D01*
X14285858Y-4860858D01*
X14285858Y-4889142D01*
X14314142Y-4889142D01*
X14314142Y-9864142D02*
X14314142Y-9835858D01*
X14285858Y-9835858D01*
X14285858Y-9864142D01*
X14314142Y-9864142D01*
X14314142Y-9989142D02*
X14314142Y-9960858D01*
X14285858Y-9960858D01*
X14285858Y-9989142D01*
X14314142Y-9989142D01*
X14365902Y-7587773D02*
X14365902Y-7559488D01*
X14337617Y-7559488D01*
X14337617Y-7587773D01*
X14365902Y-7587773D01*
X14414142Y-4889142D02*
X14414142Y-4860858D01*
X14385858Y-4860858D01*
X14385858Y-4889142D01*
X14414142Y-4889142D01*
X14414142Y-5714142D02*
X14414142Y-5685858D01*
X14385858Y-5685858D01*
X14385858Y-5714142D01*
X14414142Y-5714142D01*
X14414142Y-8208903D02*
X14414142Y-8180618D01*
X14385858Y-8180618D01*
X14385858Y-8208903D01*
X14414142Y-8208903D01*
X14416642Y-7484061D02*
X14416642Y-7455777D01*
X14388358Y-7455777D01*
X14388358Y-7484061D01*
X14416642Y-7484061D01*
X14486660Y-10636260D02*
X14486660Y-10607975D01*
X14458375Y-10607975D01*
X14458375Y-10636260D01*
X14486660Y-10636260D01*
X14489056Y-8360560D02*
X14489056Y-8332275D01*
X14460771Y-8332275D01*
X14460771Y-8360560D01*
X14489056Y-8360560D01*
X14490885Y-5366843D02*
X14490885Y-5338558D01*
X14462600Y-5338558D01*
X14462600Y-5366843D01*
X14490885Y-5366843D01*
X14514142Y-4889142D02*
X14514142Y-4860858D01*
X14485858Y-4860858D01*
X14485858Y-4889142D01*
X14514142Y-4889142D01*
X14515408Y-8537877D02*
X14515408Y-8509592D01*
X14487123Y-8509592D01*
X14487123Y-8537877D01*
X14515408Y-8537877D01*
X14526642Y-8889142D02*
X14526642Y-8860858D01*
X14498358Y-8860858D01*
X14498358Y-8889142D01*
X14526642Y-8889142D01*
X14538763Y-8203136D02*
X14538763Y-8174852D01*
X14510479Y-8174852D01*
X14510479Y-8203136D01*
X14538763Y-8203136D01*
X14546091Y-8442700D02*
X14546091Y-8414416D01*
X14517806Y-8414416D01*
X14517806Y-8442700D01*
X14546091Y-8442700D01*
X14571642Y-8978801D02*
X14571642Y-8950516D01*
X14543358Y-8950516D01*
X14543358Y-8978801D01*
X14571642Y-8978801D01*
X14571642Y-9343760D02*
X14571642Y-9315475D01*
X14543358Y-9315475D01*
X14543358Y-9343760D01*
X14571642Y-9343760D01*
X14585392Y-9764142D02*
X14585392Y-9735858D01*
X14557108Y-9735858D01*
X14557108Y-9764142D01*
X14585392Y-9764142D01*
X14585392Y-9964142D02*
X14585392Y-9935858D01*
X14557108Y-9935858D01*
X14557108Y-9964142D01*
X14585392Y-9964142D01*
X14589142Y-7164142D02*
X14589142Y-7135858D01*
X14560858Y-7135858D01*
X14560858Y-7164142D01*
X14589142Y-7164142D01*
X14589142Y-7289142D02*
X14589142Y-7260858D01*
X14560858Y-7260858D01*
X14560858Y-7289142D01*
X14589142Y-7289142D01*
X14593630Y-10746130D02*
X14593630Y-10717845D01*
X14565345Y-10717845D01*
X14565345Y-10746130D01*
X14593630Y-10746130D01*
X14599142Y-7726642D02*
X14599142Y-7698358D01*
X14570858Y-7698358D01*
X14570858Y-7726642D01*
X14599142Y-7726642D01*
X14614142Y-4889142D02*
X14614142Y-4860858D01*
X14585858Y-4860858D01*
X14585858Y-4889142D01*
X14614142Y-4889142D01*
X14677908Y-8802908D02*
X14677908Y-8774623D01*
X14649623Y-8774623D01*
X14649623Y-8802908D01*
X14677908Y-8802908D01*
X14689142Y-5039142D02*
X14689142Y-5010858D01*
X14660858Y-5010858D01*
X14660858Y-5039142D01*
X14689142Y-5039142D01*
X14689142Y-5489142D02*
X14689142Y-5460858D01*
X14660858Y-5460858D01*
X14660858Y-5489142D01*
X14689142Y-5489142D01*
X14689142Y-6064142D02*
X14689142Y-6035858D01*
X14660858Y-6035858D01*
X14660858Y-6064142D01*
X14689142Y-6064142D01*
X14714142Y-4889142D02*
X14714142Y-4860858D01*
X14685858Y-4860858D01*
X14685858Y-4889142D01*
X14714142Y-4889142D01*
X14751409Y-9853940D02*
X14751409Y-9825655D01*
X14723125Y-9825655D01*
X14723125Y-9853940D01*
X14751409Y-9853940D01*
X14796221Y-8403857D02*
X14796221Y-8375573D01*
X14767937Y-8375573D01*
X14767937Y-8403857D01*
X14796221Y-8403857D01*
X14796376Y-8301622D02*
X14796376Y-8273338D01*
X14768092Y-8273338D01*
X14768092Y-8301622D01*
X14796376Y-8301622D01*
X14811551Y-7650692D02*
X14811551Y-7622407D01*
X14783266Y-7622407D01*
X14783266Y-7650692D01*
X14811551Y-7650692D01*
X14814142Y-4939142D02*
X14814142Y-4910858D01*
X14785858Y-4910858D01*
X14785858Y-4939142D01*
X14814142Y-4939142D01*
X14831759Y-9075577D02*
X14831759Y-9047293D01*
X14803474Y-9047293D01*
X14803474Y-9075577D01*
X14831759Y-9075577D01*
X14864142Y-5889142D02*
X14864142Y-5860858D01*
X14835858Y-5860858D01*
X14835858Y-5889142D01*
X14864142Y-5889142D01*
X14864142Y-7264142D02*
X14864142Y-7235858D01*
X14835858Y-7235858D01*
X14835858Y-7264142D01*
X14864142Y-7264142D01*
X14866642Y-5794133D02*
X14866642Y-5765848D01*
X14838358Y-5765848D01*
X14838358Y-5794133D01*
X14866642Y-5794133D01*
X14877798Y-5686979D02*
X14877798Y-5658695D01*
X14849513Y-5658695D01*
X14849513Y-5686979D01*
X14877798Y-5686979D01*
X14878745Y-10641499D02*
X14878745Y-10613215D01*
X14850460Y-10613215D01*
X14850460Y-10641499D01*
X14878745Y-10641499D01*
X14883789Y-8253053D02*
X14883789Y-8224768D01*
X14855505Y-8224768D01*
X14855505Y-8253053D01*
X14883789Y-8253053D01*
X14889142Y-7514142D02*
X14889142Y-7485858D01*
X14860858Y-7485858D01*
X14860858Y-7514142D01*
X14889142Y-7514142D01*
X14897035Y-9220500D02*
X14897035Y-9192215D01*
X14868751Y-9192215D01*
X14868751Y-9220500D01*
X14897035Y-9220500D01*
X14914142Y-4939142D02*
X14914142Y-4910858D01*
X14885858Y-4910858D01*
X14885858Y-4939142D01*
X14914142Y-4939142D01*
X14922881Y-9352991D02*
X14922881Y-9324707D01*
X14894597Y-9324707D01*
X14894597Y-9352991D01*
X14922881Y-9352991D01*
X14928642Y-7075892D02*
X14928642Y-7047608D01*
X14900358Y-7047608D01*
X14900358Y-7075892D01*
X14928642Y-7075892D01*
X14953500Y-8945677D02*
X14953500Y-8917392D01*
X14925216Y-8917392D01*
X14925216Y-8945677D01*
X14953500Y-8945677D01*
X14954715Y-9104715D02*
X14954715Y-9076431D01*
X14926430Y-9076431D01*
X14926430Y-9104715D01*
X14954715Y-9104715D01*
X14964142Y-9689142D02*
X14964142Y-9660858D01*
X14935858Y-9660858D01*
X14935858Y-9689142D01*
X14964142Y-9689142D01*
X14968985Y-10095127D02*
X14968985Y-10066842D01*
X14940700Y-10066842D01*
X14940700Y-10095127D01*
X14968985Y-10095127D01*
X15014142Y-4939142D02*
X15014142Y-4910858D01*
X14985858Y-4910858D01*
X14985858Y-4939142D01*
X15014142Y-4939142D01*
X15034817Y-10174017D02*
X15034817Y-10145732D01*
X15006532Y-10145732D01*
X15006532Y-10174017D01*
X15034817Y-10174017D01*
X15035905Y-9996651D02*
X15035905Y-9968366D01*
X15007620Y-9968366D01*
X15007620Y-9996651D01*
X15035905Y-9996651D01*
X15037457Y-8539957D02*
X15037457Y-8511673D01*
X15009172Y-8511673D01*
X15009172Y-8539957D01*
X15037457Y-8539957D01*
X15039142Y-5414142D02*
X15039142Y-5385858D01*
X15010858Y-5385858D01*
X15010858Y-5414142D01*
X15039142Y-5414142D01*
X15039142Y-7364142D02*
X15039142Y-7335858D01*
X15010858Y-7335858D01*
X15010858Y-7364142D01*
X15039142Y-7364142D01*
X15069131Y-9382091D02*
X15069131Y-9353806D01*
X15040847Y-9353806D01*
X15040847Y-9382091D01*
X15069131Y-9382091D01*
X15106634Y-10091863D02*
X15106634Y-10063578D01*
X15078349Y-10063578D01*
X15078349Y-10091863D01*
X15106634Y-10091863D01*
X15114142Y-4939142D02*
X15114142Y-4910858D01*
X15085858Y-4910858D01*
X15085858Y-4939142D01*
X15114142Y-4939142D01*
X15139142Y-7739142D02*
X15139142Y-7710858D01*
X15110858Y-7710858D01*
X15110858Y-7739142D01*
X15139142Y-7739142D01*
X15147986Y-8493719D02*
X15147986Y-8465435D01*
X15119701Y-8465435D01*
X15119701Y-8493719D01*
X15147986Y-8493719D01*
X15149699Y-5566642D02*
X15149699Y-5538358D01*
X15121415Y-5538358D01*
X15121415Y-5566642D01*
X15149699Y-5566642D01*
X15164142Y-5914142D02*
X15164142Y-5885858D01*
X15135858Y-5885858D01*
X15135858Y-5914142D01*
X15164142Y-5914142D01*
X15164754Y-7256795D02*
X15164754Y-7228510D01*
X15136470Y-7228510D01*
X15136470Y-7256795D01*
X15164754Y-7256795D01*
X15189142Y-8111642D02*
X15189142Y-8083358D01*
X15160858Y-8083358D01*
X15160858Y-8111642D01*
X15189142Y-8111642D01*
X15214142Y-4939142D02*
X15214142Y-4910858D01*
X15185858Y-4910858D01*
X15185858Y-4939142D01*
X15214142Y-4939142D01*
X15214178Y-9836642D02*
X15214178Y-9808358D01*
X15185893Y-9808358D01*
X15185893Y-9836642D01*
X15214178Y-9836642D01*
X15239142Y-5639142D02*
X15239142Y-5610858D01*
X15210858Y-5610858D01*
X15210858Y-5639142D01*
X15239142Y-5639142D01*
X15239142Y-7489142D02*
X15239142Y-7460858D01*
X15210858Y-7460858D01*
X15210858Y-7489142D01*
X15239142Y-7489142D01*
X15239843Y-8533246D02*
X15239843Y-8504962D01*
X15211558Y-8504962D01*
X15211558Y-8533246D01*
X15239843Y-8533246D01*
X15244117Y-8296617D02*
X15244117Y-8268333D01*
X15215833Y-8268333D01*
X15215833Y-8296617D01*
X15244117Y-8296617D01*
X15264142Y-5789142D02*
X15264142Y-5760858D01*
X15235858Y-5760858D01*
X15235858Y-5789142D01*
X15264142Y-5789142D01*
X15288472Y-8123201D02*
X15288472Y-8094916D01*
X15260188Y-8094916D01*
X15260188Y-8123201D01*
X15288472Y-8123201D01*
X15289142Y-9961642D02*
X15289142Y-9933358D01*
X15260858Y-9933358D01*
X15260858Y-9961642D01*
X15289142Y-9961642D01*
X15289142Y-10064142D02*
X15289142Y-10035858D01*
X15260858Y-10035858D01*
X15260858Y-10064142D01*
X15289142Y-10064142D01*
X15299650Y-9513983D02*
X15299650Y-9485698D01*
X15271365Y-9485698D01*
X15271365Y-9513983D01*
X15299650Y-9513983D01*
X15314142Y-4889142D02*
X15314142Y-4860858D01*
X15285858Y-4860858D01*
X15285858Y-4889142D01*
X15314142Y-4889142D01*
X15339142Y-5439142D02*
X15339142Y-5410858D01*
X15310858Y-5410858D01*
X15310858Y-5439142D01*
X15339142Y-5439142D01*
X15345916Y-9879321D02*
X15345916Y-9851036D01*
X15317631Y-9851036D01*
X15317631Y-9879321D01*
X15345916Y-9879321D01*
X15353142Y-8911953D02*
X15353142Y-8883668D01*
X15324858Y-8883668D01*
X15324858Y-8911953D01*
X15353142Y-8911953D01*
X15359101Y-8193994D02*
X15359101Y-8165710D01*
X15330816Y-8165710D01*
X15330816Y-8193994D01*
X15359101Y-8193994D01*
X15364142Y-5839142D02*
X15364142Y-5810858D01*
X15335858Y-5810858D01*
X15335858Y-5839142D01*
X15364142Y-5839142D01*
X15389142Y-7589142D02*
X15389142Y-7560858D01*
X15360858Y-7560858D01*
X15360858Y-7589142D01*
X15389142Y-7589142D01*
X15389142Y-9614142D02*
X15389142Y-9585858D01*
X15360858Y-9585858D01*
X15360858Y-9614142D01*
X15389142Y-9614142D01*
X15394038Y-8482381D02*
X15394038Y-8454096D01*
X15365754Y-8454096D01*
X15365754Y-8482381D01*
X15394038Y-8482381D01*
X15414142Y-4889142D02*
X15414142Y-4860858D01*
X15385858Y-4860858D01*
X15385858Y-4889142D01*
X15414142Y-4889142D01*
X15424218Y-7360144D02*
X15424218Y-7331859D01*
X15395934Y-7331859D01*
X15395934Y-7360144D01*
X15424218Y-7360144D01*
X15439142Y-7939142D02*
X15439142Y-7910858D01*
X15410858Y-7910858D01*
X15410858Y-7939142D01*
X15439142Y-7939142D01*
X15449892Y-6314142D02*
X15449892Y-6285858D01*
X15421608Y-6285858D01*
X15421608Y-6314142D01*
X15449892Y-6314142D01*
X15449892Y-6664642D02*
X15449892Y-6636358D01*
X15421608Y-6636358D01*
X15421608Y-6664642D01*
X15449892Y-6664642D01*
X15451903Y-6421053D02*
X15451903Y-6392769D01*
X15423618Y-6392769D01*
X15423618Y-6421053D01*
X15451903Y-6421053D01*
X15452424Y-8649894D02*
X15452424Y-8621609D01*
X15424140Y-8621609D01*
X15424140Y-8649894D01*
X15452424Y-8649894D01*
X15460058Y-7822118D02*
X15460058Y-7793834D01*
X15431774Y-7793834D01*
X15431774Y-7822118D01*
X15460058Y-7822118D01*
X15464142Y-5564142D02*
X15464142Y-5535858D01*
X15435858Y-5535858D01*
X15435858Y-5564142D01*
X15464142Y-5564142D01*
X15464142Y-5714142D02*
X15464142Y-5685858D01*
X15435858Y-5685858D01*
X15435858Y-5714142D01*
X15464142Y-5714142D01*
X15467392Y-6539642D02*
X15467392Y-6511358D01*
X15439108Y-6511358D01*
X15439108Y-6539642D01*
X15467392Y-6539642D01*
X15489142Y-5964142D02*
X15489142Y-5935858D01*
X15460858Y-5935858D01*
X15460858Y-5964142D01*
X15489142Y-5964142D01*
X15491916Y-9006953D02*
X15491916Y-8978668D01*
X15463632Y-8978668D01*
X15463632Y-9006953D01*
X15491916Y-9006953D01*
X15514142Y-9889142D02*
X15514142Y-9860858D01*
X15485858Y-9860858D01*
X15485858Y-9889142D01*
X15514142Y-9889142D01*
X15519369Y-9436447D02*
X15519369Y-9408162D01*
X15491084Y-9408162D01*
X15491084Y-9436447D01*
X15519369Y-9436447D01*
X15528272Y-7748996D02*
X15528272Y-7720711D01*
X15499987Y-7720711D01*
X15499987Y-7748996D01*
X15528272Y-7748996D01*
X15539142Y-5364142D02*
X15539142Y-5335858D01*
X15510858Y-5335858D01*
X15510858Y-5364142D01*
X15539142Y-5364142D01*
X15552760Y-8763400D02*
X15552760Y-8735115D01*
X15524476Y-8735115D01*
X15524476Y-8763400D01*
X15552760Y-8763400D01*
X15564142Y-5814142D02*
X15564142Y-5785858D01*
X15535858Y-5785858D01*
X15535858Y-5814142D01*
X15564142Y-5814142D01*
X15589142Y-5689142D02*
X15589142Y-5660858D01*
X15560858Y-5660858D01*
X15560858Y-5689142D01*
X15589142Y-5689142D01*
X15603506Y-7678506D02*
X15603506Y-7650222D01*
X15575222Y-7650222D01*
X15575222Y-7678506D01*
X15603506Y-7678506D01*
X15664142Y-5439142D02*
X15664142Y-5410858D01*
X15635858Y-5410858D01*
X15635858Y-5439142D01*
X15664142Y-5439142D01*
X15664142Y-5914142D02*
X15664142Y-5885858D01*
X15635858Y-5885858D01*
X15635858Y-5914142D01*
X15664142Y-5914142D01*
X15678193Y-7257752D02*
X15678193Y-7229468D01*
X15649908Y-7229468D01*
X15649908Y-7257752D01*
X15678193Y-7257752D01*
X15689142Y-5789142D02*
X15689142Y-5760858D01*
X15660858Y-5760858D01*
X15660858Y-5789142D01*
X15689142Y-5789142D01*
X15703642Y-7139142D02*
X15703642Y-7110858D01*
X15675358Y-7110858D01*
X15675358Y-7139142D01*
X15703642Y-7139142D01*
X15714142Y-4889142D02*
X15714142Y-4860858D01*
X15685858Y-4860858D01*
X15685858Y-4889142D01*
X15714142Y-4889142D01*
X15714142Y-6789142D02*
X15714142Y-6760858D01*
X15685858Y-6760858D01*
X15685858Y-6789142D01*
X15714142Y-6789142D01*
X15714142Y-7939142D02*
X15714142Y-7910858D01*
X15685858Y-7910858D01*
X15685858Y-7939142D01*
X15714142Y-7939142D01*
X15714142Y-8139142D02*
X15714142Y-8110858D01*
X15685858Y-8110858D01*
X15685858Y-8139142D01*
X15714142Y-8139142D01*
X15714142Y-8314142D02*
X15714142Y-8285858D01*
X15685858Y-8285858D01*
X15685858Y-8314142D01*
X15714142Y-8314142D01*
X15725392Y-8764142D02*
X15725392Y-8735858D01*
X15697108Y-8735858D01*
X15697108Y-8764142D01*
X15725392Y-8764142D01*
X15739142Y-4989142D02*
X15739142Y-4960858D01*
X15710858Y-4960858D01*
X15710858Y-4989142D01*
X15739142Y-4989142D01*
X15739142Y-8889142D02*
X15739142Y-8860858D01*
X15710858Y-8860858D01*
X15710858Y-8889142D01*
X15739142Y-8889142D01*
X15753992Y-6350457D02*
X15753992Y-6322172D01*
X15725707Y-6322172D01*
X15725707Y-6350457D01*
X15753992Y-6350457D01*
X15753992Y-6455019D02*
X15753992Y-6426734D01*
X15725707Y-6426734D01*
X15725707Y-6455019D01*
X15753992Y-6455019D01*
X15753992Y-6559580D02*
X15753992Y-6531296D01*
X15725707Y-6531296D01*
X15725707Y-6559580D01*
X15753992Y-6559580D01*
X15753992Y-6664142D02*
X15753992Y-6635858D01*
X15725707Y-6635858D01*
X15725707Y-6664142D01*
X15753992Y-6664142D01*
X15789142Y-5339142D02*
X15789142Y-5310858D01*
X15760858Y-5310858D01*
X15760858Y-5339142D01*
X15789142Y-5339142D01*
X15789142Y-5539142D02*
X15789142Y-5510858D01*
X15760858Y-5510858D01*
X15760858Y-5539142D01*
X15789142Y-5539142D01*
X15789158Y-8611627D02*
X15789158Y-8583342D01*
X15760873Y-8583342D01*
X15760873Y-8611627D01*
X15789158Y-8611627D01*
X15814142Y-4889142D02*
X15814142Y-4860858D01*
X15785858Y-4860858D01*
X15785858Y-4889142D01*
X15814142Y-4889142D01*
X15889142Y-8564142D02*
X15889142Y-8535858D01*
X15860858Y-8535858D01*
X15860858Y-8564142D01*
X15889142Y-8564142D01*
X15889142Y-8664142D02*
X15889142Y-8635858D01*
X15860858Y-8635858D01*
X15860858Y-8664142D01*
X15889142Y-8664142D01*
X15889142Y-8764142D02*
X15889142Y-8735858D01*
X15860858Y-8735858D01*
X15860858Y-8764142D01*
X15889142Y-8764142D01*
X15889142Y-8864142D02*
X15889142Y-8835858D01*
X15860858Y-8835858D01*
X15860858Y-8864142D01*
X15889142Y-8864142D01*
X15889142Y-8964142D02*
X15889142Y-8935858D01*
X15860858Y-8935858D01*
X15860858Y-8964142D01*
X15889142Y-8964142D01*
X15889142Y-9064142D02*
X15889142Y-9035858D01*
X15860858Y-9035858D01*
X15860858Y-9064142D01*
X15889142Y-9064142D01*
X15889142Y-9164142D02*
X15889142Y-9135858D01*
X15860858Y-9135858D01*
X15860858Y-9164142D01*
X15889142Y-9164142D01*
X15889142Y-9264142D02*
X15889142Y-9235858D01*
X15860858Y-9235858D01*
X15860858Y-9264142D01*
X15889142Y-9264142D01*
X15889142Y-9364142D02*
X15889142Y-9335858D01*
X15860858Y-9335858D01*
X15860858Y-9364142D01*
X15889142Y-9364142D01*
X15889142Y-9464142D02*
X15889142Y-9435858D01*
X15860858Y-9435858D01*
X15860858Y-9464142D01*
X15889142Y-9464142D01*
X15889142Y-9564142D02*
X15889142Y-9535858D01*
X15860858Y-9535858D01*
X15860858Y-9564142D01*
X15889142Y-9564142D01*
X15889142Y-9664142D02*
X15889142Y-9635858D01*
X15860858Y-9635858D01*
X15860858Y-9664142D01*
X15889142Y-9664142D01*
X15889142Y-9764142D02*
X15889142Y-9735858D01*
X15860858Y-9735858D01*
X15860858Y-9764142D01*
X15889142Y-9764142D01*
X15889142Y-9968041D02*
X15889142Y-9939756D01*
X15860858Y-9939756D01*
X15860858Y-9968041D01*
X15889142Y-9968041D01*
X15889142Y-10089142D02*
X15889142Y-10060858D01*
X15860858Y-10060858D01*
X15860858Y-10089142D01*
X15889142Y-10089142D01*
X15889142Y-10189142D02*
X15889142Y-10160858D01*
X15860858Y-10160858D01*
X15860858Y-10189142D01*
X15889142Y-10189142D01*
X15889142Y-10289142D02*
X15889142Y-10260858D01*
X15860858Y-10260858D01*
X15860858Y-10289142D01*
X15889142Y-10289142D01*
X15889142Y-10389142D02*
X15889142Y-10360858D01*
X15860858Y-10360858D01*
X15860858Y-10389142D01*
X15889142Y-10389142D01*
X15889142Y-10489142D02*
X15889142Y-10460858D01*
X15860858Y-10460858D01*
X15860858Y-10489142D01*
X15889142Y-10489142D01*
X15889142Y-10589142D02*
X15889142Y-10560858D01*
X15860858Y-10560858D01*
X15860858Y-10589142D01*
X15889142Y-10589142D01*
X15889142Y-10689142D02*
X15889142Y-10660858D01*
X15860858Y-10660858D01*
X15860858Y-10689142D01*
X15889142Y-10689142D01*
X16089142Y-5039142D02*
X16089142Y-5010858D01*
X16060858Y-5010858D01*
X16060858Y-5039142D01*
X16089142Y-5039142D01*
X16089142Y-5239142D02*
X16089142Y-5210858D01*
X16060858Y-5210858D01*
X16060858Y-5239142D01*
X16089142Y-5239142D01*
X16089142Y-5439142D02*
X16089142Y-5410858D01*
X16060858Y-5410858D01*
X16060858Y-5439142D01*
X16089142Y-5439142D01*
X16089142Y-5639142D02*
X16089142Y-5610858D01*
X16060858Y-5610858D01*
X16060858Y-5639142D01*
X16089142Y-5639142D01*
X16089142Y-5839142D02*
X16089142Y-5810858D01*
X16060858Y-5810858D01*
X16060858Y-5839142D01*
X16089142Y-5839142D01*
X16089142Y-6039142D02*
X16089142Y-6010858D01*
X16060858Y-6010858D01*
X16060858Y-6039142D01*
X16089142Y-6039142D01*
X16089142Y-6214142D02*
X16089142Y-6185858D01*
X16060858Y-6185858D01*
X16060858Y-6214142D01*
X16089142Y-6214142D01*
X16089142Y-6389142D02*
X16089142Y-6360858D01*
X16060858Y-6360858D01*
X16060858Y-6389142D01*
X16089142Y-6389142D01*
X16089142Y-6589142D02*
X16089142Y-6560858D01*
X16060858Y-6560858D01*
X16060858Y-6589142D01*
X16089142Y-6589142D01*
X16089142Y-6789142D02*
X16089142Y-6760858D01*
X16060858Y-6760858D01*
X16060858Y-6789142D01*
X16089142Y-6789142D01*
X16164142Y-4889142D02*
X16164142Y-4860858D01*
X16135858Y-4860858D01*
X16135858Y-4889142D01*
X16164142Y-4889142D01*
X16239142Y-5139142D02*
X16239142Y-5110858D01*
X16210858Y-5110858D01*
X16210858Y-5139142D01*
X16239142Y-5139142D01*
X16239142Y-5339142D02*
X16239142Y-5310858D01*
X16210858Y-5310858D01*
X16210858Y-5339142D01*
X16239142Y-5339142D01*
X16239142Y-5539142D02*
X16239142Y-5510858D01*
X16210858Y-5510858D01*
X16210858Y-5539142D01*
X16239142Y-5539142D01*
X16239142Y-5739142D02*
X16239142Y-5710858D01*
X16210858Y-5710858D01*
X16210858Y-5739142D01*
X16239142Y-5739142D01*
X16239142Y-5939142D02*
X16239142Y-5910858D01*
X16210858Y-5910858D01*
X16210858Y-5939142D01*
X16239142Y-5939142D01*
X16239142Y-6139142D02*
X16239142Y-6110858D01*
X16210858Y-6110858D01*
X16210858Y-6139142D01*
X16239142Y-6139142D01*
X16239142Y-6314142D02*
X16239142Y-6285858D01*
X16210858Y-6285858D01*
X16210858Y-6314142D01*
X16239142Y-6314142D01*
X16239142Y-6489142D02*
X16239142Y-6460858D01*
X16210858Y-6460858D01*
X16210858Y-6489142D01*
X16239142Y-6489142D01*
X16239142Y-6689142D02*
X16239142Y-6660858D01*
X16210858Y-6660858D01*
X16210858Y-6689142D01*
X16239142Y-6689142D01*
X16239142Y-6864142D02*
X16239142Y-6835858D01*
X16210858Y-6835858D01*
X16210858Y-6864142D01*
X16239142Y-6864142D01*
X16239142Y-10739142D02*
X16239142Y-10710858D01*
X16210858Y-10710858D01*
X16210858Y-10739142D01*
X16239142Y-10739142D01*
X16389142Y-5039142D02*
X16389142Y-5010858D01*
X16360858Y-5010858D01*
X16360858Y-5039142D01*
X16389142Y-5039142D01*
X16389142Y-5239142D02*
X16389142Y-5210858D01*
X16360858Y-5210858D01*
X16360858Y-5239142D01*
X16389142Y-5239142D01*
X16389142Y-5439142D02*
X16389142Y-5410858D01*
X16360858Y-5410858D01*
X16360858Y-5439142D01*
X16389142Y-5439142D01*
X16389142Y-5639142D02*
X16389142Y-5610858D01*
X16360858Y-5610858D01*
X16360858Y-5639142D01*
X16389142Y-5639142D01*
X16389142Y-5839142D02*
X16389142Y-5810858D01*
X16360858Y-5810858D01*
X16360858Y-5839142D01*
X16389142Y-5839142D01*
X16389142Y-6039142D02*
X16389142Y-6010858D01*
X16360858Y-6010858D01*
X16360858Y-6039142D01*
X16389142Y-6039142D01*
X16389142Y-6214142D02*
X16389142Y-6185858D01*
X16360858Y-6185858D01*
X16360858Y-6214142D01*
X16389142Y-6214142D01*
X16389142Y-6389142D02*
X16389142Y-6360858D01*
X16360858Y-6360858D01*
X16360858Y-6389142D01*
X16389142Y-6389142D01*
X16389142Y-6589142D02*
X16389142Y-6560858D01*
X16360858Y-6560858D01*
X16360858Y-6589142D01*
X16389142Y-6589142D01*
X16389142Y-6789142D02*
X16389142Y-6760858D01*
X16360858Y-6760858D01*
X16360858Y-6789142D01*
X16389142Y-6789142D01*
X12960678Y-10095514D02*
X12990678Y-10065514D01*
X12960678Y-10035514D01*
X12930678Y-10065514D01*
X12960678Y-10095514D01*
X12930678Y-10010514D02*
X12930678Y-10120514D01*
X12990678Y-10120514D02*
G75*
G02*
X12930678Y-10120514I-30000J0D01*
G01*
X12990678Y-10120514D02*
X12990678Y-10010514D01*
X12990678Y-10010514D02*
G75*
G03*
X12930678Y-10010514I-30000J0D01*
G01*
X12960678Y-10513514D02*
X12990678Y-10483514D01*
X12960678Y-10453514D01*
X12930678Y-10483514D01*
X12960678Y-10513514D01*
X12930678Y-10443514D02*
X12930678Y-10523514D01*
X12990678Y-10523514D02*
G75*
G02*
X12930678Y-10523514I-30000J0D01*
G01*
X12990678Y-10523514D02*
X12990678Y-10443514D01*
X12990678Y-10443514D02*
G75*
G03*
X12930678Y-10443514I-30000J0D01*
G01*
X13824678Y-10095514D02*
X13854678Y-10065514D01*
X13824678Y-10035514D01*
X13794678Y-10065514D01*
X13824678Y-10095514D01*
X13794678Y-10010514D02*
X13794678Y-10120514D01*
X13854678Y-10120514D02*
G75*
G02*
X13794678Y-10120514I-30000J0D01*
G01*
X13854678Y-10120514D02*
X13854678Y-10010514D01*
X13854678Y-10010514D02*
G75*
G03*
X13794678Y-10010514I-30000J0D01*
G01*
X13824678Y-10513514D02*
X13854678Y-10483514D01*
X13824678Y-10453514D01*
X13794678Y-10483514D01*
X13824678Y-10513514D01*
X13794678Y-10443514D02*
X13794678Y-10523514D01*
X13854678Y-10523514D02*
G75*
G02*
X13794678Y-10523514I-30000J0D01*
G01*
X13854678Y-10523514D02*
X13854678Y-10443514D01*
X13854678Y-10443514D02*
G75*
G03*
X13794678Y-10443514I-30000J0D01*
G01*
X12937130Y-8699622D02*
X13037130Y-8799622D01*
X13037130Y-8699622D02*
X12937130Y-8799622D01*
X13037130Y-8749622D02*
G75*
G02*
X12937130Y-8749622I-50000J0D01*
G01*
X12937130Y-8749622D02*
G75*
G02*
X13037130Y-8749622I50000J0D01*
G01*
X13191130Y-8699622D02*
X13291130Y-8799622D01*
X13291130Y-8699622D02*
X13191130Y-8799622D01*
X13291130Y-8749622D02*
G75*
G02*
X13191130Y-8749622I-50000J0D01*
G01*
X13191130Y-8749622D02*
G75*
G02*
X13291130Y-8749622I50000J0D01*
G01*
X13445130Y-8699622D02*
X13545130Y-8799622D01*
X13545130Y-8699622D02*
X13445130Y-8799622D01*
X13545130Y-8749622D02*
G75*
G02*
X13445130Y-8749622I-50000J0D01*
G01*
X13445130Y-8749622D02*
G75*
G02*
X13545130Y-8749622I50000J0D01*
G01*
X13699130Y-8699622D02*
X13799130Y-8799622D01*
X13799130Y-8699622D02*
X13699130Y-8799622D01*
X13799130Y-8749622D02*
G75*
G02*
X13699130Y-8749622I-50000J0D01*
G01*
X13699130Y-8749622D02*
G75*
G02*
X13799130Y-8749622I50000J0D01*
G01*
X14175000Y-8371000D02*
X14275000Y-8471000D01*
X14275000Y-8371000D02*
X14175000Y-8471000D01*
X14275000Y-8421000D02*
G75*
G02*
X14175000Y-8421000I-50000J0D01*
G01*
X14175000Y-8421000D02*
G75*
G02*
X14275000Y-8421000I50000J0D01*
G01*
X14175000Y-8625000D02*
X14275000Y-8725000D01*
X14275000Y-8625000D02*
X14175000Y-8725000D01*
X14275000Y-8675000D02*
G75*
G02*
X14175000Y-8675000I-50000J0D01*
G01*
X14175000Y-8675000D02*
G75*
G02*
X14275000Y-8675000I50000J0D01*
G01*
X14175000Y-8879000D02*
X14275000Y-8979000D01*
X14275000Y-8879000D02*
X14175000Y-8979000D01*
X14275000Y-8929000D02*
G75*
G02*
X14175000Y-8929000I-50000J0D01*
G01*
X14175000Y-8929000D02*
G75*
G02*
X14275000Y-8929000I50000J0D01*
G01*
X14175000Y-9133000D02*
X14275000Y-9233000D01*
X14275000Y-9133000D02*
X14175000Y-9233000D01*
X14275000Y-9183000D02*
G75*
G02*
X14175000Y-9183000I-50000J0D01*
G01*
X14175000Y-9183000D02*
G75*
G02*
X14275000Y-9183000I50000J0D01*
G01*
X14179443Y-5787216D02*
X14279443Y-5887216D01*
X14279443Y-5787216D02*
X14179443Y-5887216D01*
X14279443Y-5837216D02*
G75*
G02*
X14179443Y-5837216I-50000J0D01*
G01*
X14179443Y-5837216D02*
G75*
G02*
X14279443Y-5837216I50000J0D01*
G01*
X14179443Y-6041216D02*
X14279443Y-6141216D01*
X14279443Y-6041216D02*
X14179443Y-6141216D01*
X14279443Y-6091216D02*
G75*
G02*
X14179443Y-6091216I-50000J0D01*
G01*
X14179443Y-6091216D02*
G75*
G02*
X14279443Y-6091216I50000J0D01*
G01*
X14179443Y-6295216D02*
X14279443Y-6395216D01*
X14279443Y-6295216D02*
X14179443Y-6395216D01*
X14279443Y-6345216D02*
G75*
G02*
X14179443Y-6345216I-50000J0D01*
G01*
X14179443Y-6345216D02*
G75*
G02*
X14279443Y-6345216I50000J0D01*
G01*
X16175000Y-7075000D02*
X16275000Y-7175000D01*
X16275000Y-7075000D02*
X16175000Y-7175000D01*
X16275000Y-7125000D02*
G75*
G02*
X16175000Y-7125000I-50000J0D01*
G01*
X16175000Y-7125000D02*
G75*
G02*
X16275000Y-7125000I50000J0D01*
G01*
X16175000Y-7329000D02*
X16275000Y-7429000D01*
X16275000Y-7329000D02*
X16175000Y-7429000D01*
X16275000Y-7379000D02*
G75*
G02*
X16175000Y-7379000I-50000J0D01*
G01*
X16175000Y-7379000D02*
G75*
G02*
X16275000Y-7379000I50000J0D01*
G01*
X16175000Y-7583000D02*
X16275000Y-7683000D01*
X16275000Y-7583000D02*
X16175000Y-7683000D01*
X16275000Y-7633000D02*
G75*
G02*
X16175000Y-7633000I-50000J0D01*
G01*
X16175000Y-7633000D02*
G75*
G02*
X16275000Y-7633000I50000J0D01*
G01*
X16175000Y-7837000D02*
X16275000Y-7937000D01*
X16275000Y-7837000D02*
X16175000Y-7937000D01*
X16275000Y-7887000D02*
G75*
G02*
X16175000Y-7887000I-50000J0D01*
G01*
X16175000Y-7887000D02*
G75*
G02*
X16275000Y-7887000I50000J0D01*
G01*
X16175000Y-8220000D02*
X16275000Y-8320000D01*
X16275000Y-8220000D02*
X16175000Y-8320000D01*
X16275000Y-8270000D02*
G75*
G02*
X16175000Y-8270000I-50000J0D01*
G01*
X16175000Y-8270000D02*
G75*
G02*
X16275000Y-8270000I50000J0D01*
G01*
X16175000Y-8474000D02*
X16275000Y-8574000D01*
X16275000Y-8474000D02*
X16175000Y-8574000D01*
X16275000Y-8524000D02*
G75*
G02*
X16175000Y-8524000I-50000J0D01*
G01*
X16175000Y-8524000D02*
G75*
G02*
X16275000Y-8524000I50000J0D01*
G01*
X16175000Y-8728000D02*
X16275000Y-8828000D01*
X16275000Y-8728000D02*
X16175000Y-8828000D01*
X16275000Y-8778000D02*
G75*
G02*
X16175000Y-8778000I-50000J0D01*
G01*
X16175000Y-8778000D02*
G75*
G02*
X16275000Y-8778000I50000J0D01*
G01*
X16175000Y-8982000D02*
X16275000Y-9082000D01*
X16275000Y-8982000D02*
X16175000Y-9082000D01*
X16275000Y-9032000D02*
G75*
G02*
X16175000Y-9032000I-50000J0D01*
G01*
X16175000Y-9032000D02*
G75*
G02*
X16275000Y-9032000I50000J0D01*
G01*
X16175000Y-9367500D02*
X16275000Y-9467500D01*
X16275000Y-9367500D02*
X16175000Y-9467500D01*
X16275000Y-9417500D02*
G75*
G02*
X16175000Y-9417500I-50000J0D01*
G01*
X16175000Y-9417500D02*
G75*
G02*
X16275000Y-9417500I50000J0D01*
G01*
X16175000Y-9621500D02*
X16275000Y-9721500D01*
X16275000Y-9621500D02*
X16175000Y-9721500D01*
X16275000Y-9671500D02*
G75*
G02*
X16175000Y-9671500I-50000J0D01*
G01*
X16175000Y-9671500D02*
G75*
G02*
X16275000Y-9671500I50000J0D01*
G01*
X16175000Y-9875500D02*
X16275000Y-9975500D01*
X16275000Y-9875500D02*
X16175000Y-9975500D01*
X16275000Y-9925500D02*
G75*
G02*
X16175000Y-9925500I-50000J0D01*
G01*
X16175000Y-9925500D02*
G75*
G02*
X16275000Y-9925500I50000J0D01*
G01*
X16175000Y-10129500D02*
X16275000Y-10229500D01*
X16275000Y-10129500D02*
X16175000Y-10229500D01*
X16275000Y-10179500D02*
G75*
G02*
X16175000Y-10179500I-50000J0D01*
G01*
X16175000Y-10179500D02*
G75*
G02*
X16275000Y-10179500I50000J0D01*
G01*
X16175000Y-10383500D02*
X16275000Y-10483500D01*
X16275000Y-10383500D02*
X16175000Y-10483500D01*
X16275000Y-10433500D02*
G75*
G02*
X16175000Y-10433500I-50000J0D01*
G01*
X16175000Y-10433500D02*
G75*
G02*
X16275000Y-10433500I50000J0D01*
G01*
D12*
X15009602Y-10506579D02*
X15129602Y-10626579D01*
X15129602Y-10506579D02*
X15009602Y-10626579D01*
X15069602Y-10506579D02*
X15069602Y-10626579D01*
X15009602Y-10566579D02*
X15129602Y-10566579D01*
X15331102Y-10506579D02*
X15451102Y-10626579D01*
X15451102Y-10506579D02*
X15331102Y-10626579D01*
X15391102Y-10506579D02*
X15391102Y-10626579D01*
X15331102Y-10566579D02*
X15451102Y-10566579D01*
X15652602Y-10506579D02*
X15772602Y-10626579D01*
X15772602Y-10506579D02*
X15652602Y-10626579D01*
X15712602Y-10506579D02*
X15712602Y-10626579D01*
X15652602Y-10566579D02*
X15772602Y-10566579D01*
D11*
X13055054Y-11616484D02*
X13055054Y-11416484D01*
X13055054Y-11416484D02*
X13102673Y-11416484D01*
X13102673Y-11416484D02*
X13131244Y-11426008D01*
X13131244Y-11426008D02*
X13150292Y-11445055D01*
X13150292Y-11445055D02*
X13159816Y-11464103D01*
X13159816Y-11464103D02*
X13169339Y-11502198D01*
X13169339Y-11502198D02*
X13169339Y-11530769D01*
X13169339Y-11530769D02*
X13159816Y-11568865D01*
X13159816Y-11568865D02*
X13150292Y-11587912D01*
X13150292Y-11587912D02*
X13131244Y-11606960D01*
X13131244Y-11606960D02*
X13102673Y-11616484D01*
X13102673Y-11616484D02*
X13055054Y-11616484D01*
X13255054Y-11616484D02*
X13255054Y-11483150D01*
X13255054Y-11521246D02*
X13264577Y-11502198D01*
X13264577Y-11502198D02*
X13274101Y-11492674D01*
X13274101Y-11492674D02*
X13293149Y-11483150D01*
X13293149Y-11483150D02*
X13312197Y-11483150D01*
X13378863Y-11616484D02*
X13378863Y-11483150D01*
X13378863Y-11416484D02*
X13369339Y-11426008D01*
X13369339Y-11426008D02*
X13378863Y-11435531D01*
X13378863Y-11435531D02*
X13388387Y-11426008D01*
X13388387Y-11426008D02*
X13378863Y-11416484D01*
X13378863Y-11416484D02*
X13378863Y-11435531D01*
X13502673Y-11616484D02*
X13483625Y-11606960D01*
X13483625Y-11606960D02*
X13474101Y-11587912D01*
X13474101Y-11587912D02*
X13474101Y-11416484D01*
X13607435Y-11616484D02*
X13588387Y-11606960D01*
X13588387Y-11606960D02*
X13578863Y-11587912D01*
X13578863Y-11587912D02*
X13578863Y-11416484D01*
X13836006Y-11616484D02*
X13836006Y-11416484D01*
X13836006Y-11416484D02*
X13902673Y-11559341D01*
X13902673Y-11559341D02*
X13969339Y-11416484D01*
X13969339Y-11416484D02*
X13969339Y-11616484D01*
X14150292Y-11616484D02*
X14150292Y-11511722D01*
X14150292Y-11511722D02*
X14140768Y-11492674D01*
X14140768Y-11492674D02*
X14121720Y-11483150D01*
X14121720Y-11483150D02*
X14083625Y-11483150D01*
X14083625Y-11483150D02*
X14064577Y-11492674D01*
X14150292Y-11606960D02*
X14131244Y-11616484D01*
X14131244Y-11616484D02*
X14083625Y-11616484D01*
X14083625Y-11616484D02*
X14064577Y-11606960D01*
X14064577Y-11606960D02*
X14055054Y-11587912D01*
X14055054Y-11587912D02*
X14055054Y-11568865D01*
X14055054Y-11568865D02*
X14064577Y-11549817D01*
X14064577Y-11549817D02*
X14083625Y-11540293D01*
X14083625Y-11540293D02*
X14131244Y-11540293D01*
X14131244Y-11540293D02*
X14150292Y-11530769D01*
X14245530Y-11483150D02*
X14245530Y-11683150D01*
X14245530Y-11492674D02*
X14264577Y-11483150D01*
X14264577Y-11483150D02*
X14302673Y-11483150D01*
X14302673Y-11483150D02*
X14321720Y-11492674D01*
X14321720Y-11492674D02*
X14331244Y-11502198D01*
X14331244Y-11502198D02*
X14340768Y-11521246D01*
X14340768Y-11521246D02*
X14340768Y-11578388D01*
X14340768Y-11578388D02*
X14331244Y-11597436D01*
X14331244Y-11597436D02*
X14321720Y-11606960D01*
X14321720Y-11606960D02*
X14302673Y-11616484D01*
X14302673Y-11616484D02*
X14264577Y-11616484D01*
X14264577Y-11616484D02*
X14245530Y-11606960D01*
X14426482Y-11597436D02*
X14436006Y-11606960D01*
X14436006Y-11606960D02*
X14426482Y-11616484D01*
X14426482Y-11616484D02*
X14416958Y-11606960D01*
X14416958Y-11606960D02*
X14426482Y-11597436D01*
X14426482Y-11597436D02*
X14426482Y-11616484D01*
X14426482Y-11492674D02*
X14436006Y-11502198D01*
X14436006Y-11502198D02*
X14426482Y-11511722D01*
X14426482Y-11511722D02*
X14416958Y-11502198D01*
X14416958Y-11502198D02*
X14426482Y-11492674D01*
X14426482Y-11492674D02*
X14426482Y-11511722D01*
D10*
X12774277Y-11935000D02*
X12794277Y-11955000D01*
X12794277Y-11935000D02*
X12774277Y-11955000D01*
D11*
X13093149Y-11836484D02*
X13112197Y-11836484D01*
X13112197Y-11836484D02*
X13131244Y-11846008D01*
X13131244Y-11846008D02*
X13140768Y-11855531D01*
X13140768Y-11855531D02*
X13150292Y-11874579D01*
X13150292Y-11874579D02*
X13159816Y-11912674D01*
X13159816Y-11912674D02*
X13159816Y-11960293D01*
X13159816Y-11960293D02*
X13150292Y-11998388D01*
X13150292Y-11998388D02*
X13140768Y-12017436D01*
X13140768Y-12017436D02*
X13131244Y-12026960D01*
X13131244Y-12026960D02*
X13112197Y-12036484D01*
X13112197Y-12036484D02*
X13093149Y-12036484D01*
X13093149Y-12036484D02*
X13074101Y-12026960D01*
X13074101Y-12026960D02*
X13064577Y-12017436D01*
X13064577Y-12017436D02*
X13055054Y-11998388D01*
X13055054Y-11998388D02*
X13045530Y-11960293D01*
X13045530Y-11960293D02*
X13045530Y-11912674D01*
X13045530Y-11912674D02*
X13055054Y-11874579D01*
X13055054Y-11874579D02*
X13064577Y-11855531D01*
X13064577Y-11855531D02*
X13074101Y-11846008D01*
X13074101Y-11846008D02*
X13093149Y-11836484D01*
X13245530Y-12017436D02*
X13255054Y-12026960D01*
X13255054Y-12026960D02*
X13245530Y-12036484D01*
X13245530Y-12036484D02*
X13236006Y-12026960D01*
X13236006Y-12026960D02*
X13245530Y-12017436D01*
X13245530Y-12017436D02*
X13245530Y-12036484D01*
X13331244Y-11855531D02*
X13340768Y-11846008D01*
X13340768Y-11846008D02*
X13359816Y-11836484D01*
X13359816Y-11836484D02*
X13407435Y-11836484D01*
X13407435Y-11836484D02*
X13426482Y-11846008D01*
X13426482Y-11846008D02*
X13436006Y-11855531D01*
X13436006Y-11855531D02*
X13445530Y-11874579D01*
X13445530Y-11874579D02*
X13445530Y-11893627D01*
X13445530Y-11893627D02*
X13436006Y-11922198D01*
X13436006Y-11922198D02*
X13321720Y-12036484D01*
X13321720Y-12036484D02*
X13445530Y-12036484D01*
X13569339Y-11836484D02*
X13588387Y-11836484D01*
X13588387Y-11836484D02*
X13607435Y-11846008D01*
X13607435Y-11846008D02*
X13616958Y-11855531D01*
X13616958Y-11855531D02*
X13626482Y-11874579D01*
X13626482Y-11874579D02*
X13636006Y-11912674D01*
X13636006Y-11912674D02*
X13636006Y-11960293D01*
X13636006Y-11960293D02*
X13626482Y-11998388D01*
X13626482Y-11998388D02*
X13616958Y-12017436D01*
X13616958Y-12017436D02*
X13607435Y-12026960D01*
X13607435Y-12026960D02*
X13588387Y-12036484D01*
X13588387Y-12036484D02*
X13569339Y-12036484D01*
X13569339Y-12036484D02*
X13550292Y-12026960D01*
X13550292Y-12026960D02*
X13540768Y-12017436D01*
X13540768Y-12017436D02*
X13531244Y-11998388D01*
X13531244Y-11998388D02*
X13521720Y-11960293D01*
X13521720Y-11960293D02*
X13521720Y-11912674D01*
X13521720Y-11912674D02*
X13531244Y-11874579D01*
X13531244Y-11874579D02*
X13540768Y-11855531D01*
X13540768Y-11855531D02*
X13550292Y-11846008D01*
X13550292Y-11846008D02*
X13569339Y-11836484D01*
X13759816Y-11836484D02*
X13778863Y-11836484D01*
X13778863Y-11836484D02*
X13797911Y-11846008D01*
X13797911Y-11846008D02*
X13807435Y-11855531D01*
X13807435Y-11855531D02*
X13816958Y-11874579D01*
X13816958Y-11874579D02*
X13826482Y-11912674D01*
X13826482Y-11912674D02*
X13826482Y-11960293D01*
X13826482Y-11960293D02*
X13816958Y-11998388D01*
X13816958Y-11998388D02*
X13807435Y-12017436D01*
X13807435Y-12017436D02*
X13797911Y-12026960D01*
X13797911Y-12026960D02*
X13778863Y-12036484D01*
X13778863Y-12036484D02*
X13759816Y-12036484D01*
X13759816Y-12036484D02*
X13740768Y-12026960D01*
X13740768Y-12026960D02*
X13731244Y-12017436D01*
X13731244Y-12017436D02*
X13721720Y-11998388D01*
X13721720Y-11998388D02*
X13712197Y-11960293D01*
X13712197Y-11960293D02*
X13712197Y-11912674D01*
X13712197Y-11912674D02*
X13721720Y-11874579D01*
X13721720Y-11874579D02*
X13731244Y-11855531D01*
X13731244Y-11855531D02*
X13740768Y-11846008D01*
X13740768Y-11846008D02*
X13759816Y-11836484D01*
X13912197Y-12036484D02*
X13912197Y-11903150D01*
X13912197Y-11922198D02*
X13921720Y-11912674D01*
X13921720Y-11912674D02*
X13940768Y-11903150D01*
X13940768Y-11903150D02*
X13969339Y-11903150D01*
X13969339Y-11903150D02*
X13988387Y-11912674D01*
X13988387Y-11912674D02*
X13997911Y-11931722D01*
X13997911Y-11931722D02*
X13997911Y-12036484D01*
X13997911Y-11931722D02*
X14007435Y-11912674D01*
X14007435Y-11912674D02*
X14026482Y-11903150D01*
X14026482Y-11903150D02*
X14055054Y-11903150D01*
X14055054Y-11903150D02*
X14074101Y-11912674D01*
X14074101Y-11912674D02*
X14083625Y-11931722D01*
X14083625Y-11931722D02*
X14083625Y-12036484D01*
X14178863Y-12036484D02*
X14178863Y-11903150D01*
X14178863Y-11922198D02*
X14188387Y-11912674D01*
X14188387Y-11912674D02*
X14207435Y-11903150D01*
X14207435Y-11903150D02*
X14236006Y-11903150D01*
X14236006Y-11903150D02*
X14255054Y-11912674D01*
X14255054Y-11912674D02*
X14264578Y-11931722D01*
X14264578Y-11931722D02*
X14264578Y-12036484D01*
X14264578Y-11931722D02*
X14274101Y-11912674D01*
X14274101Y-11912674D02*
X14293149Y-11903150D01*
X14293149Y-11903150D02*
X14321720Y-11903150D01*
X14321720Y-11903150D02*
X14340768Y-11912674D01*
X14340768Y-11912674D02*
X14350292Y-11931722D01*
X14350292Y-11931722D02*
X14350292Y-12036484D01*
X14740768Y-11826960D02*
X14569340Y-12084103D01*
X14997911Y-11836484D02*
X15016959Y-11836484D01*
X15016959Y-11836484D02*
X15036006Y-11846008D01*
X15036006Y-11846008D02*
X15045530Y-11855531D01*
X15045530Y-11855531D02*
X15055054Y-11874579D01*
X15055054Y-11874579D02*
X15064578Y-11912674D01*
X15064578Y-11912674D02*
X15064578Y-11960293D01*
X15064578Y-11960293D02*
X15055054Y-11998388D01*
X15055054Y-11998388D02*
X15045530Y-12017436D01*
X15045530Y-12017436D02*
X15036006Y-12026960D01*
X15036006Y-12026960D02*
X15016959Y-12036484D01*
X15016959Y-12036484D02*
X14997911Y-12036484D01*
X14997911Y-12036484D02*
X14978863Y-12026960D01*
X14978863Y-12026960D02*
X14969340Y-12017436D01*
X14969340Y-12017436D02*
X14959816Y-11998388D01*
X14959816Y-11998388D02*
X14950292Y-11960293D01*
X14950292Y-11960293D02*
X14950292Y-11912674D01*
X14950292Y-11912674D02*
X14959816Y-11874579D01*
X14959816Y-11874579D02*
X14969340Y-11855531D01*
X14969340Y-11855531D02*
X14978863Y-11846008D01*
X14978863Y-11846008D02*
X14997911Y-11836484D01*
X15150292Y-12017436D02*
X15159816Y-12026960D01*
X15159816Y-12026960D02*
X15150292Y-12036484D01*
X15150292Y-12036484D02*
X15140768Y-12026960D01*
X15140768Y-12026960D02*
X15150292Y-12017436D01*
X15150292Y-12017436D02*
X15150292Y-12036484D01*
X15283625Y-11836484D02*
X15302673Y-11836484D01*
X15302673Y-11836484D02*
X15321721Y-11846008D01*
X15321721Y-11846008D02*
X15331244Y-11855531D01*
X15331244Y-11855531D02*
X15340768Y-11874579D01*
X15340768Y-11874579D02*
X15350292Y-11912674D01*
X15350292Y-11912674D02*
X15350292Y-11960293D01*
X15350292Y-11960293D02*
X15340768Y-11998388D01*
X15340768Y-11998388D02*
X15331244Y-12017436D01*
X15331244Y-12017436D02*
X15321721Y-12026960D01*
X15321721Y-12026960D02*
X15302673Y-12036484D01*
X15302673Y-12036484D02*
X15283625Y-12036484D01*
X15283625Y-12036484D02*
X15264578Y-12026960D01*
X15264578Y-12026960D02*
X15255054Y-12017436D01*
X15255054Y-12017436D02*
X15245530Y-11998388D01*
X15245530Y-11998388D02*
X15236006Y-11960293D01*
X15236006Y-11960293D02*
X15236006Y-11912674D01*
X15236006Y-11912674D02*
X15245530Y-11874579D01*
X15245530Y-11874579D02*
X15255054Y-11855531D01*
X15255054Y-11855531D02*
X15264578Y-11846008D01*
X15264578Y-11846008D02*
X15283625Y-11836484D01*
X15474101Y-11836484D02*
X15493149Y-11836484D01*
X15493149Y-11836484D02*
X15512197Y-11846008D01*
X15512197Y-11846008D02*
X15521721Y-11855531D01*
X15521721Y-11855531D02*
X15531244Y-11874579D01*
X15531244Y-11874579D02*
X15540768Y-11912674D01*
X15540768Y-11912674D02*
X15540768Y-11960293D01*
X15540768Y-11960293D02*
X15531244Y-11998388D01*
X15531244Y-11998388D02*
X15521721Y-12017436D01*
X15521721Y-12017436D02*
X15512197Y-12026960D01*
X15512197Y-12026960D02*
X15493149Y-12036484D01*
X15493149Y-12036484D02*
X15474101Y-12036484D01*
X15474101Y-12036484D02*
X15455054Y-12026960D01*
X15455054Y-12026960D02*
X15445530Y-12017436D01*
X15445530Y-12017436D02*
X15436006Y-11998388D01*
X15436006Y-11998388D02*
X15426482Y-11960293D01*
X15426482Y-11960293D02*
X15426482Y-11912674D01*
X15426482Y-11912674D02*
X15436006Y-11874579D01*
X15436006Y-11874579D02*
X15445530Y-11855531D01*
X15445530Y-11855531D02*
X15455054Y-11846008D01*
X15455054Y-11846008D02*
X15474101Y-11836484D01*
X15607435Y-11836484D02*
X15740768Y-11836484D01*
X15740768Y-11836484D02*
X15655054Y-12036484D01*
X15826482Y-12036484D02*
X15864578Y-12036484D01*
X15864578Y-12036484D02*
X15883625Y-12026960D01*
X15883625Y-12026960D02*
X15893149Y-12017436D01*
X15893149Y-12017436D02*
X15912197Y-11988865D01*
X15912197Y-11988865D02*
X15921721Y-11950769D01*
X15921721Y-11950769D02*
X15921721Y-11874579D01*
X15921721Y-11874579D02*
X15912197Y-11855531D01*
X15912197Y-11855531D02*
X15902673Y-11846008D01*
X15902673Y-11846008D02*
X15883625Y-11836484D01*
X15883625Y-11836484D02*
X15845530Y-11836484D01*
X15845530Y-11836484D02*
X15826482Y-11846008D01*
X15826482Y-11846008D02*
X15816959Y-11855531D01*
X15816959Y-11855531D02*
X15807435Y-11874579D01*
X15807435Y-11874579D02*
X15807435Y-11922198D01*
X15807435Y-11922198D02*
X15816959Y-11941246D01*
X15816959Y-11941246D02*
X15826482Y-11950769D01*
X15826482Y-11950769D02*
X15845530Y-11960293D01*
X15845530Y-11960293D02*
X15883625Y-11960293D01*
X15883625Y-11960293D02*
X15902673Y-11950769D01*
X15902673Y-11950769D02*
X15912197Y-11941246D01*
X15912197Y-11941246D02*
X15921721Y-11922198D01*
X15997911Y-11836484D02*
X15997911Y-11874579D01*
X16074102Y-11836484D02*
X16074102Y-11874579D01*
X16369340Y-12112674D02*
X16359816Y-12103150D01*
X16359816Y-12103150D02*
X16340768Y-12074579D01*
X16340768Y-12074579D02*
X16331244Y-12055531D01*
X16331244Y-12055531D02*
X16321721Y-12026960D01*
X16321721Y-12026960D02*
X16312197Y-11979341D01*
X16312197Y-11979341D02*
X16312197Y-11941246D01*
X16312197Y-11941246D02*
X16321721Y-11893627D01*
X16321721Y-11893627D02*
X16331244Y-11865055D01*
X16331244Y-11865055D02*
X16340768Y-11846008D01*
X16340768Y-11846008D02*
X16359816Y-11817436D01*
X16359816Y-11817436D02*
X16369340Y-11807912D01*
X16531244Y-11903150D02*
X16531244Y-12036484D01*
X16483625Y-11826960D02*
X16436006Y-11969817D01*
X16436006Y-11969817D02*
X16559816Y-11969817D01*
X16788387Y-12036484D02*
X16788387Y-11836484D01*
X16874102Y-12036484D02*
X16874102Y-11931722D01*
X16874102Y-11931722D02*
X16864578Y-11912674D01*
X16864578Y-11912674D02*
X16845530Y-11903150D01*
X16845530Y-11903150D02*
X16816959Y-11903150D01*
X16816959Y-11903150D02*
X16797911Y-11912674D01*
X16797911Y-11912674D02*
X16788387Y-11922198D01*
X16997911Y-12036484D02*
X16978864Y-12026960D01*
X16978864Y-12026960D02*
X16969340Y-12017436D01*
X16969340Y-12017436D02*
X16959816Y-11998388D01*
X16959816Y-11998388D02*
X16959816Y-11941246D01*
X16959816Y-11941246D02*
X16969340Y-11922198D01*
X16969340Y-11922198D02*
X16978864Y-11912674D01*
X16978864Y-11912674D02*
X16997911Y-11903150D01*
X16997911Y-11903150D02*
X17026483Y-11903150D01*
X17026483Y-11903150D02*
X17045530Y-11912674D01*
X17045530Y-11912674D02*
X17055054Y-11922198D01*
X17055054Y-11922198D02*
X17064578Y-11941246D01*
X17064578Y-11941246D02*
X17064578Y-11998388D01*
X17064578Y-11998388D02*
X17055054Y-12017436D01*
X17055054Y-12017436D02*
X17045530Y-12026960D01*
X17045530Y-12026960D02*
X17026483Y-12036484D01*
X17026483Y-12036484D02*
X16997911Y-12036484D01*
X17178864Y-12036484D02*
X17159816Y-12026960D01*
X17159816Y-12026960D02*
X17150292Y-12007912D01*
X17150292Y-12007912D02*
X17150292Y-11836484D01*
X17331245Y-12026960D02*
X17312197Y-12036484D01*
X17312197Y-12036484D02*
X17274102Y-12036484D01*
X17274102Y-12036484D02*
X17255054Y-12026960D01*
X17255054Y-12026960D02*
X17245530Y-12007912D01*
X17245530Y-12007912D02*
X17245530Y-11931722D01*
X17245530Y-11931722D02*
X17255054Y-11912674D01*
X17255054Y-11912674D02*
X17274102Y-11903150D01*
X17274102Y-11903150D02*
X17312197Y-11903150D01*
X17312197Y-11903150D02*
X17331245Y-11912674D01*
X17331245Y-11912674D02*
X17340768Y-11931722D01*
X17340768Y-11931722D02*
X17340768Y-11950769D01*
X17340768Y-11950769D02*
X17245530Y-11969817D01*
X17416959Y-12026960D02*
X17436007Y-12036484D01*
X17436007Y-12036484D02*
X17474102Y-12036484D01*
X17474102Y-12036484D02*
X17493149Y-12026960D01*
X17493149Y-12026960D02*
X17502673Y-12007912D01*
X17502673Y-12007912D02*
X17502673Y-11998388D01*
X17502673Y-11998388D02*
X17493149Y-11979341D01*
X17493149Y-11979341D02*
X17474102Y-11969817D01*
X17474102Y-11969817D02*
X17445530Y-11969817D01*
X17445530Y-11969817D02*
X17426483Y-11960293D01*
X17426483Y-11960293D02*
X17416959Y-11941246D01*
X17416959Y-11941246D02*
X17416959Y-11931722D01*
X17416959Y-11931722D02*
X17426483Y-11912674D01*
X17426483Y-11912674D02*
X17445530Y-11903150D01*
X17445530Y-11903150D02*
X17474102Y-11903150D01*
X17474102Y-11903150D02*
X17493149Y-11912674D01*
X17569340Y-12112674D02*
X17578864Y-12103150D01*
X17578864Y-12103150D02*
X17597911Y-12074579D01*
X17597911Y-12074579D02*
X17607435Y-12055531D01*
X17607435Y-12055531D02*
X17616959Y-12026960D01*
X17616959Y-12026960D02*
X17626483Y-11979341D01*
X17626483Y-11979341D02*
X17626483Y-11941246D01*
X17626483Y-11941246D02*
X17616959Y-11893627D01*
X17616959Y-11893627D02*
X17607435Y-11865055D01*
X17607435Y-11865055D02*
X17597911Y-11846008D01*
X17597911Y-11846008D02*
X17578864Y-11817436D01*
X17578864Y-11817436D02*
X17569340Y-11807912D01*
D10*
X12794277Y-12209000D02*
G75*
G02*
X12764277Y-12209000I-15000J0D01*
G01*
X12764277Y-12209000D02*
G75*
G02*
X12794277Y-12209000I15000J0D01*
G01*
D11*
X13093149Y-12100484D02*
X13112197Y-12100484D01*
X13112197Y-12100484D02*
X13131244Y-12110008D01*
X13131244Y-12110008D02*
X13140768Y-12119531D01*
X13140768Y-12119531D02*
X13150292Y-12138579D01*
X13150292Y-12138579D02*
X13159816Y-12176674D01*
X13159816Y-12176674D02*
X13159816Y-12224293D01*
X13159816Y-12224293D02*
X13150292Y-12262388D01*
X13150292Y-12262388D02*
X13140768Y-12281436D01*
X13140768Y-12281436D02*
X13131244Y-12290960D01*
X13131244Y-12290960D02*
X13112197Y-12300484D01*
X13112197Y-12300484D02*
X13093149Y-12300484D01*
X13093149Y-12300484D02*
X13074101Y-12290960D01*
X13074101Y-12290960D02*
X13064577Y-12281436D01*
X13064577Y-12281436D02*
X13055054Y-12262388D01*
X13055054Y-12262388D02*
X13045530Y-12224293D01*
X13045530Y-12224293D02*
X13045530Y-12176674D01*
X13045530Y-12176674D02*
X13055054Y-12138579D01*
X13055054Y-12138579D02*
X13064577Y-12119531D01*
X13064577Y-12119531D02*
X13074101Y-12110008D01*
X13074101Y-12110008D02*
X13093149Y-12100484D01*
X13245530Y-12281436D02*
X13255054Y-12290960D01*
X13255054Y-12290960D02*
X13245530Y-12300484D01*
X13245530Y-12300484D02*
X13236006Y-12290960D01*
X13236006Y-12290960D02*
X13245530Y-12281436D01*
X13245530Y-12281436D02*
X13245530Y-12300484D01*
X13321720Y-12100484D02*
X13445530Y-12100484D01*
X13445530Y-12100484D02*
X13378863Y-12176674D01*
X13378863Y-12176674D02*
X13407435Y-12176674D01*
X13407435Y-12176674D02*
X13426482Y-12186198D01*
X13426482Y-12186198D02*
X13436006Y-12195722D01*
X13436006Y-12195722D02*
X13445530Y-12214769D01*
X13445530Y-12214769D02*
X13445530Y-12262388D01*
X13445530Y-12262388D02*
X13436006Y-12281436D01*
X13436006Y-12281436D02*
X13426482Y-12290960D01*
X13426482Y-12290960D02*
X13407435Y-12300484D01*
X13407435Y-12300484D02*
X13350292Y-12300484D01*
X13350292Y-12300484D02*
X13331244Y-12290960D01*
X13331244Y-12290960D02*
X13321720Y-12281436D01*
X13569339Y-12100484D02*
X13588387Y-12100484D01*
X13588387Y-12100484D02*
X13607435Y-12110008D01*
X13607435Y-12110008D02*
X13616958Y-12119531D01*
X13616958Y-12119531D02*
X13626482Y-12138579D01*
X13626482Y-12138579D02*
X13636006Y-12176674D01*
X13636006Y-12176674D02*
X13636006Y-12224293D01*
X13636006Y-12224293D02*
X13626482Y-12262388D01*
X13626482Y-12262388D02*
X13616958Y-12281436D01*
X13616958Y-12281436D02*
X13607435Y-12290960D01*
X13607435Y-12290960D02*
X13588387Y-12300484D01*
X13588387Y-12300484D02*
X13569339Y-12300484D01*
X13569339Y-12300484D02*
X13550292Y-12290960D01*
X13550292Y-12290960D02*
X13540768Y-12281436D01*
X13540768Y-12281436D02*
X13531244Y-12262388D01*
X13531244Y-12262388D02*
X13521720Y-12224293D01*
X13521720Y-12224293D02*
X13521720Y-12176674D01*
X13521720Y-12176674D02*
X13531244Y-12138579D01*
X13531244Y-12138579D02*
X13540768Y-12119531D01*
X13540768Y-12119531D02*
X13550292Y-12110008D01*
X13550292Y-12110008D02*
X13569339Y-12100484D01*
X13759816Y-12100484D02*
X13778863Y-12100484D01*
X13778863Y-12100484D02*
X13797911Y-12110008D01*
X13797911Y-12110008D02*
X13807435Y-12119531D01*
X13807435Y-12119531D02*
X13816958Y-12138579D01*
X13816958Y-12138579D02*
X13826482Y-12176674D01*
X13826482Y-12176674D02*
X13826482Y-12224293D01*
X13826482Y-12224293D02*
X13816958Y-12262388D01*
X13816958Y-12262388D02*
X13807435Y-12281436D01*
X13807435Y-12281436D02*
X13797911Y-12290960D01*
X13797911Y-12290960D02*
X13778863Y-12300484D01*
X13778863Y-12300484D02*
X13759816Y-12300484D01*
X13759816Y-12300484D02*
X13740768Y-12290960D01*
X13740768Y-12290960D02*
X13731244Y-12281436D01*
X13731244Y-12281436D02*
X13721720Y-12262388D01*
X13721720Y-12262388D02*
X13712197Y-12224293D01*
X13712197Y-12224293D02*
X13712197Y-12176674D01*
X13712197Y-12176674D02*
X13721720Y-12138579D01*
X13721720Y-12138579D02*
X13731244Y-12119531D01*
X13731244Y-12119531D02*
X13740768Y-12110008D01*
X13740768Y-12110008D02*
X13759816Y-12100484D01*
X13912197Y-12300484D02*
X13912197Y-12167150D01*
X13912197Y-12186198D02*
X13921720Y-12176674D01*
X13921720Y-12176674D02*
X13940768Y-12167150D01*
X13940768Y-12167150D02*
X13969339Y-12167150D01*
X13969339Y-12167150D02*
X13988387Y-12176674D01*
X13988387Y-12176674D02*
X13997911Y-12195722D01*
X13997911Y-12195722D02*
X13997911Y-12300484D01*
X13997911Y-12195722D02*
X14007435Y-12176674D01*
X14007435Y-12176674D02*
X14026482Y-12167150D01*
X14026482Y-12167150D02*
X14055054Y-12167150D01*
X14055054Y-12167150D02*
X14074101Y-12176674D01*
X14074101Y-12176674D02*
X14083625Y-12195722D01*
X14083625Y-12195722D02*
X14083625Y-12300484D01*
X14178863Y-12300484D02*
X14178863Y-12167150D01*
X14178863Y-12186198D02*
X14188387Y-12176674D01*
X14188387Y-12176674D02*
X14207435Y-12167150D01*
X14207435Y-12167150D02*
X14236006Y-12167150D01*
X14236006Y-12167150D02*
X14255054Y-12176674D01*
X14255054Y-12176674D02*
X14264578Y-12195722D01*
X14264578Y-12195722D02*
X14264578Y-12300484D01*
X14264578Y-12195722D02*
X14274101Y-12176674D01*
X14274101Y-12176674D02*
X14293149Y-12167150D01*
X14293149Y-12167150D02*
X14321720Y-12167150D01*
X14321720Y-12167150D02*
X14340768Y-12176674D01*
X14340768Y-12176674D02*
X14350292Y-12195722D01*
X14350292Y-12195722D02*
X14350292Y-12300484D01*
X14740768Y-12090960D02*
X14569340Y-12348103D01*
X14997911Y-12100484D02*
X15016959Y-12100484D01*
X15016959Y-12100484D02*
X15036006Y-12110008D01*
X15036006Y-12110008D02*
X15045530Y-12119531D01*
X15045530Y-12119531D02*
X15055054Y-12138579D01*
X15055054Y-12138579D02*
X15064578Y-12176674D01*
X15064578Y-12176674D02*
X15064578Y-12224293D01*
X15064578Y-12224293D02*
X15055054Y-12262388D01*
X15055054Y-12262388D02*
X15045530Y-12281436D01*
X15045530Y-12281436D02*
X15036006Y-12290960D01*
X15036006Y-12290960D02*
X15016959Y-12300484D01*
X15016959Y-12300484D02*
X14997911Y-12300484D01*
X14997911Y-12300484D02*
X14978863Y-12290960D01*
X14978863Y-12290960D02*
X14969340Y-12281436D01*
X14969340Y-12281436D02*
X14959816Y-12262388D01*
X14959816Y-12262388D02*
X14950292Y-12224293D01*
X14950292Y-12224293D02*
X14950292Y-12176674D01*
X14950292Y-12176674D02*
X14959816Y-12138579D01*
X14959816Y-12138579D02*
X14969340Y-12119531D01*
X14969340Y-12119531D02*
X14978863Y-12110008D01*
X14978863Y-12110008D02*
X14997911Y-12100484D01*
X15150292Y-12281436D02*
X15159816Y-12290960D01*
X15159816Y-12290960D02*
X15150292Y-12300484D01*
X15150292Y-12300484D02*
X15140768Y-12290960D01*
X15140768Y-12290960D02*
X15150292Y-12281436D01*
X15150292Y-12281436D02*
X15150292Y-12300484D01*
X15283625Y-12100484D02*
X15302673Y-12100484D01*
X15302673Y-12100484D02*
X15321721Y-12110008D01*
X15321721Y-12110008D02*
X15331244Y-12119531D01*
X15331244Y-12119531D02*
X15340768Y-12138579D01*
X15340768Y-12138579D02*
X15350292Y-12176674D01*
X15350292Y-12176674D02*
X15350292Y-12224293D01*
X15350292Y-12224293D02*
X15340768Y-12262388D01*
X15340768Y-12262388D02*
X15331244Y-12281436D01*
X15331244Y-12281436D02*
X15321721Y-12290960D01*
X15321721Y-12290960D02*
X15302673Y-12300484D01*
X15302673Y-12300484D02*
X15283625Y-12300484D01*
X15283625Y-12300484D02*
X15264578Y-12290960D01*
X15264578Y-12290960D02*
X15255054Y-12281436D01*
X15255054Y-12281436D02*
X15245530Y-12262388D01*
X15245530Y-12262388D02*
X15236006Y-12224293D01*
X15236006Y-12224293D02*
X15236006Y-12176674D01*
X15236006Y-12176674D02*
X15245530Y-12138579D01*
X15245530Y-12138579D02*
X15255054Y-12119531D01*
X15255054Y-12119531D02*
X15264578Y-12110008D01*
X15264578Y-12110008D02*
X15283625Y-12100484D01*
X15540768Y-12300484D02*
X15426482Y-12300484D01*
X15483625Y-12300484D02*
X15483625Y-12100484D01*
X15483625Y-12100484D02*
X15464578Y-12129055D01*
X15464578Y-12129055D02*
X15445530Y-12148103D01*
X15445530Y-12148103D02*
X15426482Y-12157627D01*
X15731244Y-12300484D02*
X15616959Y-12300484D01*
X15674101Y-12300484D02*
X15674101Y-12100484D01*
X15674101Y-12100484D02*
X15655054Y-12129055D01*
X15655054Y-12129055D02*
X15636006Y-12148103D01*
X15636006Y-12148103D02*
X15616959Y-12157627D01*
X15845530Y-12186198D02*
X15826482Y-12176674D01*
X15826482Y-12176674D02*
X15816959Y-12167150D01*
X15816959Y-12167150D02*
X15807435Y-12148103D01*
X15807435Y-12148103D02*
X15807435Y-12138579D01*
X15807435Y-12138579D02*
X15816959Y-12119531D01*
X15816959Y-12119531D02*
X15826482Y-12110008D01*
X15826482Y-12110008D02*
X15845530Y-12100484D01*
X15845530Y-12100484D02*
X15883625Y-12100484D01*
X15883625Y-12100484D02*
X15902673Y-12110008D01*
X15902673Y-12110008D02*
X15912197Y-12119531D01*
X15912197Y-12119531D02*
X15921721Y-12138579D01*
X15921721Y-12138579D02*
X15921721Y-12148103D01*
X15921721Y-12148103D02*
X15912197Y-12167150D01*
X15912197Y-12167150D02*
X15902673Y-12176674D01*
X15902673Y-12176674D02*
X15883625Y-12186198D01*
X15883625Y-12186198D02*
X15845530Y-12186198D01*
X15845530Y-12186198D02*
X15826482Y-12195722D01*
X15826482Y-12195722D02*
X15816959Y-12205246D01*
X15816959Y-12205246D02*
X15807435Y-12224293D01*
X15807435Y-12224293D02*
X15807435Y-12262388D01*
X15807435Y-12262388D02*
X15816959Y-12281436D01*
X15816959Y-12281436D02*
X15826482Y-12290960D01*
X15826482Y-12290960D02*
X15845530Y-12300484D01*
X15845530Y-12300484D02*
X15883625Y-12300484D01*
X15883625Y-12300484D02*
X15902673Y-12290960D01*
X15902673Y-12290960D02*
X15912197Y-12281436D01*
X15912197Y-12281436D02*
X15921721Y-12262388D01*
X15921721Y-12262388D02*
X15921721Y-12224293D01*
X15921721Y-12224293D02*
X15912197Y-12205246D01*
X15912197Y-12205246D02*
X15902673Y-12195722D01*
X15902673Y-12195722D02*
X15883625Y-12186198D01*
X15997911Y-12100484D02*
X15997911Y-12138579D01*
X16074102Y-12100484D02*
X16074102Y-12138579D01*
X16369340Y-12376674D02*
X16359816Y-12367150D01*
X16359816Y-12367150D02*
X16340768Y-12338579D01*
X16340768Y-12338579D02*
X16331244Y-12319531D01*
X16331244Y-12319531D02*
X16321721Y-12290960D01*
X16321721Y-12290960D02*
X16312197Y-12243341D01*
X16312197Y-12243341D02*
X16312197Y-12205246D01*
X16312197Y-12205246D02*
X16321721Y-12157627D01*
X16321721Y-12157627D02*
X16331244Y-12129055D01*
X16331244Y-12129055D02*
X16340768Y-12110008D01*
X16340768Y-12110008D02*
X16359816Y-12081436D01*
X16359816Y-12081436D02*
X16369340Y-12071912D01*
X16550292Y-12300484D02*
X16436006Y-12300484D01*
X16493149Y-12300484D02*
X16493149Y-12100484D01*
X16493149Y-12100484D02*
X16474102Y-12129055D01*
X16474102Y-12129055D02*
X16455054Y-12148103D01*
X16455054Y-12148103D02*
X16436006Y-12157627D01*
X16740768Y-12300484D02*
X16626483Y-12300484D01*
X16683625Y-12300484D02*
X16683625Y-12100484D01*
X16683625Y-12100484D02*
X16664578Y-12129055D01*
X16664578Y-12129055D02*
X16645530Y-12148103D01*
X16645530Y-12148103D02*
X16626483Y-12157627D01*
X16978864Y-12300484D02*
X16978864Y-12100484D01*
X17064578Y-12300484D02*
X17064578Y-12195722D01*
X17064578Y-12195722D02*
X17055054Y-12176674D01*
X17055054Y-12176674D02*
X17036007Y-12167150D01*
X17036007Y-12167150D02*
X17007435Y-12167150D01*
X17007435Y-12167150D02*
X16988387Y-12176674D01*
X16988387Y-12176674D02*
X16978864Y-12186198D01*
X17188387Y-12300484D02*
X17169340Y-12290960D01*
X17169340Y-12290960D02*
X17159816Y-12281436D01*
X17159816Y-12281436D02*
X17150292Y-12262388D01*
X17150292Y-12262388D02*
X17150292Y-12205246D01*
X17150292Y-12205246D02*
X17159816Y-12186198D01*
X17159816Y-12186198D02*
X17169340Y-12176674D01*
X17169340Y-12176674D02*
X17188387Y-12167150D01*
X17188387Y-12167150D02*
X17216959Y-12167150D01*
X17216959Y-12167150D02*
X17236007Y-12176674D01*
X17236007Y-12176674D02*
X17245530Y-12186198D01*
X17245530Y-12186198D02*
X17255054Y-12205246D01*
X17255054Y-12205246D02*
X17255054Y-12262388D01*
X17255054Y-12262388D02*
X17245530Y-12281436D01*
X17245530Y-12281436D02*
X17236007Y-12290960D01*
X17236007Y-12290960D02*
X17216959Y-12300484D01*
X17216959Y-12300484D02*
X17188387Y-12300484D01*
X17369340Y-12300484D02*
X17350292Y-12290960D01*
X17350292Y-12290960D02*
X17340768Y-12271912D01*
X17340768Y-12271912D02*
X17340768Y-12100484D01*
X17521721Y-12290960D02*
X17502673Y-12300484D01*
X17502673Y-12300484D02*
X17464578Y-12300484D01*
X17464578Y-12300484D02*
X17445530Y-12290960D01*
X17445530Y-12290960D02*
X17436007Y-12271912D01*
X17436007Y-12271912D02*
X17436007Y-12195722D01*
X17436007Y-12195722D02*
X17445530Y-12176674D01*
X17445530Y-12176674D02*
X17464578Y-12167150D01*
X17464578Y-12167150D02*
X17502673Y-12167150D01*
X17502673Y-12167150D02*
X17521721Y-12176674D01*
X17521721Y-12176674D02*
X17531245Y-12195722D01*
X17531245Y-12195722D02*
X17531245Y-12214769D01*
X17531245Y-12214769D02*
X17436007Y-12233817D01*
X17607435Y-12290960D02*
X17626483Y-12300484D01*
X17626483Y-12300484D02*
X17664578Y-12300484D01*
X17664578Y-12300484D02*
X17683626Y-12290960D01*
X17683626Y-12290960D02*
X17693149Y-12271912D01*
X17693149Y-12271912D02*
X17693149Y-12262388D01*
X17693149Y-12262388D02*
X17683626Y-12243341D01*
X17683626Y-12243341D02*
X17664578Y-12233817D01*
X17664578Y-12233817D02*
X17636007Y-12233817D01*
X17636007Y-12233817D02*
X17616959Y-12224293D01*
X17616959Y-12224293D02*
X17607435Y-12205246D01*
X17607435Y-12205246D02*
X17607435Y-12195722D01*
X17607435Y-12195722D02*
X17616959Y-12176674D01*
X17616959Y-12176674D02*
X17636007Y-12167150D01*
X17636007Y-12167150D02*
X17664578Y-12167150D01*
X17664578Y-12167150D02*
X17683626Y-12176674D01*
X17759816Y-12376674D02*
X17769340Y-12367150D01*
X17769340Y-12367150D02*
X17788388Y-12338579D01*
X17788388Y-12338579D02*
X17797911Y-12319531D01*
X17797911Y-12319531D02*
X17807435Y-12290960D01*
X17807435Y-12290960D02*
X17816959Y-12243341D01*
X17816959Y-12243341D02*
X17816959Y-12205246D01*
X17816959Y-12205246D02*
X17807435Y-12157627D01*
X17807435Y-12157627D02*
X17797911Y-12129055D01*
X17797911Y-12129055D02*
X17788388Y-12110008D01*
X17788388Y-12110008D02*
X17769340Y-12081436D01*
X17769340Y-12081436D02*
X17759816Y-12071912D01*
D10*
X12779277Y-12458000D02*
X12779277Y-12488000D01*
X12764277Y-12473000D02*
X12794277Y-12473000D01*
D11*
X13093149Y-12364484D02*
X13112197Y-12364484D01*
X13112197Y-12364484D02*
X13131244Y-12374008D01*
X13131244Y-12374008D02*
X13140768Y-12383531D01*
X13140768Y-12383531D02*
X13150292Y-12402579D01*
X13150292Y-12402579D02*
X13159816Y-12440674D01*
X13159816Y-12440674D02*
X13159816Y-12488293D01*
X13159816Y-12488293D02*
X13150292Y-12526388D01*
X13150292Y-12526388D02*
X13140768Y-12545436D01*
X13140768Y-12545436D02*
X13131244Y-12554960D01*
X13131244Y-12554960D02*
X13112197Y-12564484D01*
X13112197Y-12564484D02*
X13093149Y-12564484D01*
X13093149Y-12564484D02*
X13074101Y-12554960D01*
X13074101Y-12554960D02*
X13064577Y-12545436D01*
X13064577Y-12545436D02*
X13055054Y-12526388D01*
X13055054Y-12526388D02*
X13045530Y-12488293D01*
X13045530Y-12488293D02*
X13045530Y-12440674D01*
X13045530Y-12440674D02*
X13055054Y-12402579D01*
X13055054Y-12402579D02*
X13064577Y-12383531D01*
X13064577Y-12383531D02*
X13074101Y-12374008D01*
X13074101Y-12374008D02*
X13093149Y-12364484D01*
X13245530Y-12545436D02*
X13255054Y-12554960D01*
X13255054Y-12554960D02*
X13245530Y-12564484D01*
X13245530Y-12564484D02*
X13236006Y-12554960D01*
X13236006Y-12554960D02*
X13245530Y-12545436D01*
X13245530Y-12545436D02*
X13245530Y-12564484D01*
X13321720Y-12364484D02*
X13445530Y-12364484D01*
X13445530Y-12364484D02*
X13378863Y-12440674D01*
X13378863Y-12440674D02*
X13407435Y-12440674D01*
X13407435Y-12440674D02*
X13426482Y-12450198D01*
X13426482Y-12450198D02*
X13436006Y-12459722D01*
X13436006Y-12459722D02*
X13445530Y-12478769D01*
X13445530Y-12478769D02*
X13445530Y-12526388D01*
X13445530Y-12526388D02*
X13436006Y-12545436D01*
X13436006Y-12545436D02*
X13426482Y-12554960D01*
X13426482Y-12554960D02*
X13407435Y-12564484D01*
X13407435Y-12564484D02*
X13350292Y-12564484D01*
X13350292Y-12564484D02*
X13331244Y-12554960D01*
X13331244Y-12554960D02*
X13321720Y-12545436D01*
X13569339Y-12364484D02*
X13588387Y-12364484D01*
X13588387Y-12364484D02*
X13607435Y-12374008D01*
X13607435Y-12374008D02*
X13616958Y-12383531D01*
X13616958Y-12383531D02*
X13626482Y-12402579D01*
X13626482Y-12402579D02*
X13636006Y-12440674D01*
X13636006Y-12440674D02*
X13636006Y-12488293D01*
X13636006Y-12488293D02*
X13626482Y-12526388D01*
X13626482Y-12526388D02*
X13616958Y-12545436D01*
X13616958Y-12545436D02*
X13607435Y-12554960D01*
X13607435Y-12554960D02*
X13588387Y-12564484D01*
X13588387Y-12564484D02*
X13569339Y-12564484D01*
X13569339Y-12564484D02*
X13550292Y-12554960D01*
X13550292Y-12554960D02*
X13540768Y-12545436D01*
X13540768Y-12545436D02*
X13531244Y-12526388D01*
X13531244Y-12526388D02*
X13521720Y-12488293D01*
X13521720Y-12488293D02*
X13521720Y-12440674D01*
X13521720Y-12440674D02*
X13531244Y-12402579D01*
X13531244Y-12402579D02*
X13540768Y-12383531D01*
X13540768Y-12383531D02*
X13550292Y-12374008D01*
X13550292Y-12374008D02*
X13569339Y-12364484D01*
X13759816Y-12364484D02*
X13778863Y-12364484D01*
X13778863Y-12364484D02*
X13797911Y-12374008D01*
X13797911Y-12374008D02*
X13807435Y-12383531D01*
X13807435Y-12383531D02*
X13816958Y-12402579D01*
X13816958Y-12402579D02*
X13826482Y-12440674D01*
X13826482Y-12440674D02*
X13826482Y-12488293D01*
X13826482Y-12488293D02*
X13816958Y-12526388D01*
X13816958Y-12526388D02*
X13807435Y-12545436D01*
X13807435Y-12545436D02*
X13797911Y-12554960D01*
X13797911Y-12554960D02*
X13778863Y-12564484D01*
X13778863Y-12564484D02*
X13759816Y-12564484D01*
X13759816Y-12564484D02*
X13740768Y-12554960D01*
X13740768Y-12554960D02*
X13731244Y-12545436D01*
X13731244Y-12545436D02*
X13721720Y-12526388D01*
X13721720Y-12526388D02*
X13712197Y-12488293D01*
X13712197Y-12488293D02*
X13712197Y-12440674D01*
X13712197Y-12440674D02*
X13721720Y-12402579D01*
X13721720Y-12402579D02*
X13731244Y-12383531D01*
X13731244Y-12383531D02*
X13740768Y-12374008D01*
X13740768Y-12374008D02*
X13759816Y-12364484D01*
X13912197Y-12564484D02*
X13912197Y-12431150D01*
X13912197Y-12450198D02*
X13921720Y-12440674D01*
X13921720Y-12440674D02*
X13940768Y-12431150D01*
X13940768Y-12431150D02*
X13969339Y-12431150D01*
X13969339Y-12431150D02*
X13988387Y-12440674D01*
X13988387Y-12440674D02*
X13997911Y-12459722D01*
X13997911Y-12459722D02*
X13997911Y-12564484D01*
X13997911Y-12459722D02*
X14007435Y-12440674D01*
X14007435Y-12440674D02*
X14026482Y-12431150D01*
X14026482Y-12431150D02*
X14055054Y-12431150D01*
X14055054Y-12431150D02*
X14074101Y-12440674D01*
X14074101Y-12440674D02*
X14083625Y-12459722D01*
X14083625Y-12459722D02*
X14083625Y-12564484D01*
X14178863Y-12564484D02*
X14178863Y-12431150D01*
X14178863Y-12450198D02*
X14188387Y-12440674D01*
X14188387Y-12440674D02*
X14207435Y-12431150D01*
X14207435Y-12431150D02*
X14236006Y-12431150D01*
X14236006Y-12431150D02*
X14255054Y-12440674D01*
X14255054Y-12440674D02*
X14264578Y-12459722D01*
X14264578Y-12459722D02*
X14264578Y-12564484D01*
X14264578Y-12459722D02*
X14274101Y-12440674D01*
X14274101Y-12440674D02*
X14293149Y-12431150D01*
X14293149Y-12431150D02*
X14321720Y-12431150D01*
X14321720Y-12431150D02*
X14340768Y-12440674D01*
X14340768Y-12440674D02*
X14350292Y-12459722D01*
X14350292Y-12459722D02*
X14350292Y-12564484D01*
X14740768Y-12354960D02*
X14569340Y-12612103D01*
X14997911Y-12364484D02*
X15016959Y-12364484D01*
X15016959Y-12364484D02*
X15036006Y-12374008D01*
X15036006Y-12374008D02*
X15045530Y-12383531D01*
X15045530Y-12383531D02*
X15055054Y-12402579D01*
X15055054Y-12402579D02*
X15064578Y-12440674D01*
X15064578Y-12440674D02*
X15064578Y-12488293D01*
X15064578Y-12488293D02*
X15055054Y-12526388D01*
X15055054Y-12526388D02*
X15045530Y-12545436D01*
X15045530Y-12545436D02*
X15036006Y-12554960D01*
X15036006Y-12554960D02*
X15016959Y-12564484D01*
X15016959Y-12564484D02*
X14997911Y-12564484D01*
X14997911Y-12564484D02*
X14978863Y-12554960D01*
X14978863Y-12554960D02*
X14969340Y-12545436D01*
X14969340Y-12545436D02*
X14959816Y-12526388D01*
X14959816Y-12526388D02*
X14950292Y-12488293D01*
X14950292Y-12488293D02*
X14950292Y-12440674D01*
X14950292Y-12440674D02*
X14959816Y-12402579D01*
X14959816Y-12402579D02*
X14969340Y-12383531D01*
X14969340Y-12383531D02*
X14978863Y-12374008D01*
X14978863Y-12374008D02*
X14997911Y-12364484D01*
X15150292Y-12545436D02*
X15159816Y-12554960D01*
X15159816Y-12554960D02*
X15150292Y-12564484D01*
X15150292Y-12564484D02*
X15140768Y-12554960D01*
X15140768Y-12554960D02*
X15150292Y-12545436D01*
X15150292Y-12545436D02*
X15150292Y-12564484D01*
X15283625Y-12364484D02*
X15302673Y-12364484D01*
X15302673Y-12364484D02*
X15321721Y-12374008D01*
X15321721Y-12374008D02*
X15331244Y-12383531D01*
X15331244Y-12383531D02*
X15340768Y-12402579D01*
X15340768Y-12402579D02*
X15350292Y-12440674D01*
X15350292Y-12440674D02*
X15350292Y-12488293D01*
X15350292Y-12488293D02*
X15340768Y-12526388D01*
X15340768Y-12526388D02*
X15331244Y-12545436D01*
X15331244Y-12545436D02*
X15321721Y-12554960D01*
X15321721Y-12554960D02*
X15302673Y-12564484D01*
X15302673Y-12564484D02*
X15283625Y-12564484D01*
X15283625Y-12564484D02*
X15264578Y-12554960D01*
X15264578Y-12554960D02*
X15255054Y-12545436D01*
X15255054Y-12545436D02*
X15245530Y-12526388D01*
X15245530Y-12526388D02*
X15236006Y-12488293D01*
X15236006Y-12488293D02*
X15236006Y-12440674D01*
X15236006Y-12440674D02*
X15245530Y-12402579D01*
X15245530Y-12402579D02*
X15255054Y-12383531D01*
X15255054Y-12383531D02*
X15264578Y-12374008D01*
X15264578Y-12374008D02*
X15283625Y-12364484D01*
X15540768Y-12564484D02*
X15426482Y-12564484D01*
X15483625Y-12564484D02*
X15483625Y-12364484D01*
X15483625Y-12364484D02*
X15464578Y-12393055D01*
X15464578Y-12393055D02*
X15445530Y-12412103D01*
X15445530Y-12412103D02*
X15426482Y-12421627D01*
X15731244Y-12564484D02*
X15616959Y-12564484D01*
X15674101Y-12564484D02*
X15674101Y-12364484D01*
X15674101Y-12364484D02*
X15655054Y-12393055D01*
X15655054Y-12393055D02*
X15636006Y-12412103D01*
X15636006Y-12412103D02*
X15616959Y-12421627D01*
X15845530Y-12450198D02*
X15826482Y-12440674D01*
X15826482Y-12440674D02*
X15816959Y-12431150D01*
X15816959Y-12431150D02*
X15807435Y-12412103D01*
X15807435Y-12412103D02*
X15807435Y-12402579D01*
X15807435Y-12402579D02*
X15816959Y-12383531D01*
X15816959Y-12383531D02*
X15826482Y-12374008D01*
X15826482Y-12374008D02*
X15845530Y-12364484D01*
X15845530Y-12364484D02*
X15883625Y-12364484D01*
X15883625Y-12364484D02*
X15902673Y-12374008D01*
X15902673Y-12374008D02*
X15912197Y-12383531D01*
X15912197Y-12383531D02*
X15921721Y-12402579D01*
X15921721Y-12402579D02*
X15921721Y-12412103D01*
X15921721Y-12412103D02*
X15912197Y-12431150D01*
X15912197Y-12431150D02*
X15902673Y-12440674D01*
X15902673Y-12440674D02*
X15883625Y-12450198D01*
X15883625Y-12450198D02*
X15845530Y-12450198D01*
X15845530Y-12450198D02*
X15826482Y-12459722D01*
X15826482Y-12459722D02*
X15816959Y-12469246D01*
X15816959Y-12469246D02*
X15807435Y-12488293D01*
X15807435Y-12488293D02*
X15807435Y-12526388D01*
X15807435Y-12526388D02*
X15816959Y-12545436D01*
X15816959Y-12545436D02*
X15826482Y-12554960D01*
X15826482Y-12554960D02*
X15845530Y-12564484D01*
X15845530Y-12564484D02*
X15883625Y-12564484D01*
X15883625Y-12564484D02*
X15902673Y-12554960D01*
X15902673Y-12554960D02*
X15912197Y-12545436D01*
X15912197Y-12545436D02*
X15921721Y-12526388D01*
X15921721Y-12526388D02*
X15921721Y-12488293D01*
X15921721Y-12488293D02*
X15912197Y-12469246D01*
X15912197Y-12469246D02*
X15902673Y-12459722D01*
X15902673Y-12459722D02*
X15883625Y-12450198D01*
X15997911Y-12364484D02*
X15997911Y-12402579D01*
X16074102Y-12364484D02*
X16074102Y-12402579D01*
X16369340Y-12640674D02*
X16359816Y-12631150D01*
X16359816Y-12631150D02*
X16340768Y-12602579D01*
X16340768Y-12602579D02*
X16331244Y-12583531D01*
X16331244Y-12583531D02*
X16321721Y-12554960D01*
X16321721Y-12554960D02*
X16312197Y-12507341D01*
X16312197Y-12507341D02*
X16312197Y-12469246D01*
X16312197Y-12469246D02*
X16321721Y-12421627D01*
X16321721Y-12421627D02*
X16331244Y-12393055D01*
X16331244Y-12393055D02*
X16340768Y-12374008D01*
X16340768Y-12374008D02*
X16359816Y-12345436D01*
X16359816Y-12345436D02*
X16369340Y-12335912D01*
X16540768Y-12364484D02*
X16445530Y-12364484D01*
X16445530Y-12364484D02*
X16436006Y-12459722D01*
X16436006Y-12459722D02*
X16445530Y-12450198D01*
X16445530Y-12450198D02*
X16464578Y-12440674D01*
X16464578Y-12440674D02*
X16512197Y-12440674D01*
X16512197Y-12440674D02*
X16531244Y-12450198D01*
X16531244Y-12450198D02*
X16540768Y-12459722D01*
X16540768Y-12459722D02*
X16550292Y-12478769D01*
X16550292Y-12478769D02*
X16550292Y-12526388D01*
X16550292Y-12526388D02*
X16540768Y-12545436D01*
X16540768Y-12545436D02*
X16531244Y-12554960D01*
X16531244Y-12554960D02*
X16512197Y-12564484D01*
X16512197Y-12564484D02*
X16464578Y-12564484D01*
X16464578Y-12564484D02*
X16445530Y-12554960D01*
X16445530Y-12554960D02*
X16436006Y-12545436D01*
X16788387Y-12564484D02*
X16788387Y-12364484D01*
X16874102Y-12564484D02*
X16874102Y-12459722D01*
X16874102Y-12459722D02*
X16864578Y-12440674D01*
X16864578Y-12440674D02*
X16845530Y-12431150D01*
X16845530Y-12431150D02*
X16816959Y-12431150D01*
X16816959Y-12431150D02*
X16797911Y-12440674D01*
X16797911Y-12440674D02*
X16788387Y-12450198D01*
X16997911Y-12564484D02*
X16978864Y-12554960D01*
X16978864Y-12554960D02*
X16969340Y-12545436D01*
X16969340Y-12545436D02*
X16959816Y-12526388D01*
X16959816Y-12526388D02*
X16959816Y-12469246D01*
X16959816Y-12469246D02*
X16969340Y-12450198D01*
X16969340Y-12450198D02*
X16978864Y-12440674D01*
X16978864Y-12440674D02*
X16997911Y-12431150D01*
X16997911Y-12431150D02*
X17026483Y-12431150D01*
X17026483Y-12431150D02*
X17045530Y-12440674D01*
X17045530Y-12440674D02*
X17055054Y-12450198D01*
X17055054Y-12450198D02*
X17064578Y-12469246D01*
X17064578Y-12469246D02*
X17064578Y-12526388D01*
X17064578Y-12526388D02*
X17055054Y-12545436D01*
X17055054Y-12545436D02*
X17045530Y-12554960D01*
X17045530Y-12554960D02*
X17026483Y-12564484D01*
X17026483Y-12564484D02*
X16997911Y-12564484D01*
X17178864Y-12564484D02*
X17159816Y-12554960D01*
X17159816Y-12554960D02*
X17150292Y-12535912D01*
X17150292Y-12535912D02*
X17150292Y-12364484D01*
X17331245Y-12554960D02*
X17312197Y-12564484D01*
X17312197Y-12564484D02*
X17274102Y-12564484D01*
X17274102Y-12564484D02*
X17255054Y-12554960D01*
X17255054Y-12554960D02*
X17245530Y-12535912D01*
X17245530Y-12535912D02*
X17245530Y-12459722D01*
X17245530Y-12459722D02*
X17255054Y-12440674D01*
X17255054Y-12440674D02*
X17274102Y-12431150D01*
X17274102Y-12431150D02*
X17312197Y-12431150D01*
X17312197Y-12431150D02*
X17331245Y-12440674D01*
X17331245Y-12440674D02*
X17340768Y-12459722D01*
X17340768Y-12459722D02*
X17340768Y-12478769D01*
X17340768Y-12478769D02*
X17245530Y-12497817D01*
X17416959Y-12554960D02*
X17436007Y-12564484D01*
X17436007Y-12564484D02*
X17474102Y-12564484D01*
X17474102Y-12564484D02*
X17493149Y-12554960D01*
X17493149Y-12554960D02*
X17502673Y-12535912D01*
X17502673Y-12535912D02*
X17502673Y-12526388D01*
X17502673Y-12526388D02*
X17493149Y-12507341D01*
X17493149Y-12507341D02*
X17474102Y-12497817D01*
X17474102Y-12497817D02*
X17445530Y-12497817D01*
X17445530Y-12497817D02*
X17426483Y-12488293D01*
X17426483Y-12488293D02*
X17416959Y-12469246D01*
X17416959Y-12469246D02*
X17416959Y-12459722D01*
X17416959Y-12459722D02*
X17426483Y-12440674D01*
X17426483Y-12440674D02*
X17445530Y-12431150D01*
X17445530Y-12431150D02*
X17474102Y-12431150D01*
X17474102Y-12431150D02*
X17493149Y-12440674D01*
X17569340Y-12640674D02*
X17578864Y-12631150D01*
X17578864Y-12631150D02*
X17597911Y-12602579D01*
X17597911Y-12602579D02*
X17607435Y-12583531D01*
X17607435Y-12583531D02*
X17616959Y-12554960D01*
X17616959Y-12554960D02*
X17626483Y-12507341D01*
X17626483Y-12507341D02*
X17626483Y-12469246D01*
X17626483Y-12469246D02*
X17616959Y-12421627D01*
X17616959Y-12421627D02*
X17607435Y-12393055D01*
X17607435Y-12393055D02*
X17597911Y-12374008D01*
X17597911Y-12374008D02*
X17578864Y-12345436D01*
X17578864Y-12345436D02*
X17569340Y-12335912D01*
D10*
X12788419Y-12751142D02*
X12788419Y-12722858D01*
X12760135Y-12722858D01*
X12760135Y-12751142D01*
X12788419Y-12751142D01*
D11*
X13093149Y-12628484D02*
X13112197Y-12628484D01*
X13112197Y-12628484D02*
X13131244Y-12638008D01*
X13131244Y-12638008D02*
X13140768Y-12647531D01*
X13140768Y-12647531D02*
X13150292Y-12666579D01*
X13150292Y-12666579D02*
X13159816Y-12704674D01*
X13159816Y-12704674D02*
X13159816Y-12752293D01*
X13159816Y-12752293D02*
X13150292Y-12790388D01*
X13150292Y-12790388D02*
X13140768Y-12809436D01*
X13140768Y-12809436D02*
X13131244Y-12818960D01*
X13131244Y-12818960D02*
X13112197Y-12828484D01*
X13112197Y-12828484D02*
X13093149Y-12828484D01*
X13093149Y-12828484D02*
X13074101Y-12818960D01*
X13074101Y-12818960D02*
X13064577Y-12809436D01*
X13064577Y-12809436D02*
X13055054Y-12790388D01*
X13055054Y-12790388D02*
X13045530Y-12752293D01*
X13045530Y-12752293D02*
X13045530Y-12704674D01*
X13045530Y-12704674D02*
X13055054Y-12666579D01*
X13055054Y-12666579D02*
X13064577Y-12647531D01*
X13064577Y-12647531D02*
X13074101Y-12638008D01*
X13074101Y-12638008D02*
X13093149Y-12628484D01*
X13245530Y-12809436D02*
X13255054Y-12818960D01*
X13255054Y-12818960D02*
X13245530Y-12828484D01*
X13245530Y-12828484D02*
X13236006Y-12818960D01*
X13236006Y-12818960D02*
X13245530Y-12809436D01*
X13245530Y-12809436D02*
X13245530Y-12828484D01*
X13426482Y-12695150D02*
X13426482Y-12828484D01*
X13378863Y-12618960D02*
X13331244Y-12761817D01*
X13331244Y-12761817D02*
X13455054Y-12761817D01*
X13569339Y-12628484D02*
X13588387Y-12628484D01*
X13588387Y-12628484D02*
X13607435Y-12638008D01*
X13607435Y-12638008D02*
X13616958Y-12647531D01*
X13616958Y-12647531D02*
X13626482Y-12666579D01*
X13626482Y-12666579D02*
X13636006Y-12704674D01*
X13636006Y-12704674D02*
X13636006Y-12752293D01*
X13636006Y-12752293D02*
X13626482Y-12790388D01*
X13626482Y-12790388D02*
X13616958Y-12809436D01*
X13616958Y-12809436D02*
X13607435Y-12818960D01*
X13607435Y-12818960D02*
X13588387Y-12828484D01*
X13588387Y-12828484D02*
X13569339Y-12828484D01*
X13569339Y-12828484D02*
X13550292Y-12818960D01*
X13550292Y-12818960D02*
X13540768Y-12809436D01*
X13540768Y-12809436D02*
X13531244Y-12790388D01*
X13531244Y-12790388D02*
X13521720Y-12752293D01*
X13521720Y-12752293D02*
X13521720Y-12704674D01*
X13521720Y-12704674D02*
X13531244Y-12666579D01*
X13531244Y-12666579D02*
X13540768Y-12647531D01*
X13540768Y-12647531D02*
X13550292Y-12638008D01*
X13550292Y-12638008D02*
X13569339Y-12628484D01*
X13759816Y-12628484D02*
X13778863Y-12628484D01*
X13778863Y-12628484D02*
X13797911Y-12638008D01*
X13797911Y-12638008D02*
X13807435Y-12647531D01*
X13807435Y-12647531D02*
X13816958Y-12666579D01*
X13816958Y-12666579D02*
X13826482Y-12704674D01*
X13826482Y-12704674D02*
X13826482Y-12752293D01*
X13826482Y-12752293D02*
X13816958Y-12790388D01*
X13816958Y-12790388D02*
X13807435Y-12809436D01*
X13807435Y-12809436D02*
X13797911Y-12818960D01*
X13797911Y-12818960D02*
X13778863Y-12828484D01*
X13778863Y-12828484D02*
X13759816Y-12828484D01*
X13759816Y-12828484D02*
X13740768Y-12818960D01*
X13740768Y-12818960D02*
X13731244Y-12809436D01*
X13731244Y-12809436D02*
X13721720Y-12790388D01*
X13721720Y-12790388D02*
X13712197Y-12752293D01*
X13712197Y-12752293D02*
X13712197Y-12704674D01*
X13712197Y-12704674D02*
X13721720Y-12666579D01*
X13721720Y-12666579D02*
X13731244Y-12647531D01*
X13731244Y-12647531D02*
X13740768Y-12638008D01*
X13740768Y-12638008D02*
X13759816Y-12628484D01*
X13912197Y-12828484D02*
X13912197Y-12695150D01*
X13912197Y-12714198D02*
X13921720Y-12704674D01*
X13921720Y-12704674D02*
X13940768Y-12695150D01*
X13940768Y-12695150D02*
X13969339Y-12695150D01*
X13969339Y-12695150D02*
X13988387Y-12704674D01*
X13988387Y-12704674D02*
X13997911Y-12723722D01*
X13997911Y-12723722D02*
X13997911Y-12828484D01*
X13997911Y-12723722D02*
X14007435Y-12704674D01*
X14007435Y-12704674D02*
X14026482Y-12695150D01*
X14026482Y-12695150D02*
X14055054Y-12695150D01*
X14055054Y-12695150D02*
X14074101Y-12704674D01*
X14074101Y-12704674D02*
X14083625Y-12723722D01*
X14083625Y-12723722D02*
X14083625Y-12828484D01*
X14178863Y-12828484D02*
X14178863Y-12695150D01*
X14178863Y-12714198D02*
X14188387Y-12704674D01*
X14188387Y-12704674D02*
X14207435Y-12695150D01*
X14207435Y-12695150D02*
X14236006Y-12695150D01*
X14236006Y-12695150D02*
X14255054Y-12704674D01*
X14255054Y-12704674D02*
X14264578Y-12723722D01*
X14264578Y-12723722D02*
X14264578Y-12828484D01*
X14264578Y-12723722D02*
X14274101Y-12704674D01*
X14274101Y-12704674D02*
X14293149Y-12695150D01*
X14293149Y-12695150D02*
X14321720Y-12695150D01*
X14321720Y-12695150D02*
X14340768Y-12704674D01*
X14340768Y-12704674D02*
X14350292Y-12723722D01*
X14350292Y-12723722D02*
X14350292Y-12828484D01*
X14740768Y-12618960D02*
X14569340Y-12876103D01*
X14997911Y-12628484D02*
X15016959Y-12628484D01*
X15016959Y-12628484D02*
X15036006Y-12638008D01*
X15036006Y-12638008D02*
X15045530Y-12647531D01*
X15045530Y-12647531D02*
X15055054Y-12666579D01*
X15055054Y-12666579D02*
X15064578Y-12704674D01*
X15064578Y-12704674D02*
X15064578Y-12752293D01*
X15064578Y-12752293D02*
X15055054Y-12790388D01*
X15055054Y-12790388D02*
X15045530Y-12809436D01*
X15045530Y-12809436D02*
X15036006Y-12818960D01*
X15036006Y-12818960D02*
X15016959Y-12828484D01*
X15016959Y-12828484D02*
X14997911Y-12828484D01*
X14997911Y-12828484D02*
X14978863Y-12818960D01*
X14978863Y-12818960D02*
X14969340Y-12809436D01*
X14969340Y-12809436D02*
X14959816Y-12790388D01*
X14959816Y-12790388D02*
X14950292Y-12752293D01*
X14950292Y-12752293D02*
X14950292Y-12704674D01*
X14950292Y-12704674D02*
X14959816Y-12666579D01*
X14959816Y-12666579D02*
X14969340Y-12647531D01*
X14969340Y-12647531D02*
X14978863Y-12638008D01*
X14978863Y-12638008D02*
X14997911Y-12628484D01*
X15150292Y-12809436D02*
X15159816Y-12818960D01*
X15159816Y-12818960D02*
X15150292Y-12828484D01*
X15150292Y-12828484D02*
X15140768Y-12818960D01*
X15140768Y-12818960D02*
X15150292Y-12809436D01*
X15150292Y-12809436D02*
X15150292Y-12828484D01*
X15283625Y-12628484D02*
X15302673Y-12628484D01*
X15302673Y-12628484D02*
X15321721Y-12638008D01*
X15321721Y-12638008D02*
X15331244Y-12647531D01*
X15331244Y-12647531D02*
X15340768Y-12666579D01*
X15340768Y-12666579D02*
X15350292Y-12704674D01*
X15350292Y-12704674D02*
X15350292Y-12752293D01*
X15350292Y-12752293D02*
X15340768Y-12790388D01*
X15340768Y-12790388D02*
X15331244Y-12809436D01*
X15331244Y-12809436D02*
X15321721Y-12818960D01*
X15321721Y-12818960D02*
X15302673Y-12828484D01*
X15302673Y-12828484D02*
X15283625Y-12828484D01*
X15283625Y-12828484D02*
X15264578Y-12818960D01*
X15264578Y-12818960D02*
X15255054Y-12809436D01*
X15255054Y-12809436D02*
X15245530Y-12790388D01*
X15245530Y-12790388D02*
X15236006Y-12752293D01*
X15236006Y-12752293D02*
X15236006Y-12704674D01*
X15236006Y-12704674D02*
X15245530Y-12666579D01*
X15245530Y-12666579D02*
X15255054Y-12647531D01*
X15255054Y-12647531D02*
X15264578Y-12638008D01*
X15264578Y-12638008D02*
X15283625Y-12628484D01*
X15540768Y-12828484D02*
X15426482Y-12828484D01*
X15483625Y-12828484D02*
X15483625Y-12628484D01*
X15483625Y-12628484D02*
X15464578Y-12657055D01*
X15464578Y-12657055D02*
X15445530Y-12676103D01*
X15445530Y-12676103D02*
X15426482Y-12685627D01*
X15721721Y-12628484D02*
X15626482Y-12628484D01*
X15626482Y-12628484D02*
X15616959Y-12723722D01*
X15616959Y-12723722D02*
X15626482Y-12714198D01*
X15626482Y-12714198D02*
X15645530Y-12704674D01*
X15645530Y-12704674D02*
X15693149Y-12704674D01*
X15693149Y-12704674D02*
X15712197Y-12714198D01*
X15712197Y-12714198D02*
X15721721Y-12723722D01*
X15721721Y-12723722D02*
X15731244Y-12742769D01*
X15731244Y-12742769D02*
X15731244Y-12790388D01*
X15731244Y-12790388D02*
X15721721Y-12809436D01*
X15721721Y-12809436D02*
X15712197Y-12818960D01*
X15712197Y-12818960D02*
X15693149Y-12828484D01*
X15693149Y-12828484D02*
X15645530Y-12828484D01*
X15645530Y-12828484D02*
X15626482Y-12818960D01*
X15626482Y-12818960D02*
X15616959Y-12809436D01*
X15797911Y-12628484D02*
X15931244Y-12628484D01*
X15931244Y-12628484D02*
X15845530Y-12828484D01*
X15997911Y-12628484D02*
X15997911Y-12666579D01*
X16074102Y-12628484D02*
X16074102Y-12666579D01*
X16369340Y-12904674D02*
X16359816Y-12895150D01*
X16359816Y-12895150D02*
X16340768Y-12866579D01*
X16340768Y-12866579D02*
X16331244Y-12847531D01*
X16331244Y-12847531D02*
X16321721Y-12818960D01*
X16321721Y-12818960D02*
X16312197Y-12771341D01*
X16312197Y-12771341D02*
X16312197Y-12733246D01*
X16312197Y-12733246D02*
X16321721Y-12685627D01*
X16321721Y-12685627D02*
X16331244Y-12657055D01*
X16331244Y-12657055D02*
X16340768Y-12638008D01*
X16340768Y-12638008D02*
X16359816Y-12609436D01*
X16359816Y-12609436D02*
X16369340Y-12599912D01*
X16436006Y-12647531D02*
X16445530Y-12638008D01*
X16445530Y-12638008D02*
X16464578Y-12628484D01*
X16464578Y-12628484D02*
X16512197Y-12628484D01*
X16512197Y-12628484D02*
X16531244Y-12638008D01*
X16531244Y-12638008D02*
X16540768Y-12647531D01*
X16540768Y-12647531D02*
X16550292Y-12666579D01*
X16550292Y-12666579D02*
X16550292Y-12685627D01*
X16550292Y-12685627D02*
X16540768Y-12714198D01*
X16540768Y-12714198D02*
X16426483Y-12828484D01*
X16426483Y-12828484D02*
X16550292Y-12828484D01*
X16740768Y-12828484D02*
X16626483Y-12828484D01*
X16683625Y-12828484D02*
X16683625Y-12628484D01*
X16683625Y-12628484D02*
X16664578Y-12657055D01*
X16664578Y-12657055D02*
X16645530Y-12676103D01*
X16645530Y-12676103D02*
X16626483Y-12685627D01*
X16807435Y-12628484D02*
X16940768Y-12628484D01*
X16940768Y-12628484D02*
X16855054Y-12828484D01*
X17169340Y-12828484D02*
X17169340Y-12628484D01*
X17255054Y-12828484D02*
X17255054Y-12723722D01*
X17255054Y-12723722D02*
X17245530Y-12704674D01*
X17245530Y-12704674D02*
X17226483Y-12695150D01*
X17226483Y-12695150D02*
X17197911Y-12695150D01*
X17197911Y-12695150D02*
X17178864Y-12704674D01*
X17178864Y-12704674D02*
X17169340Y-12714198D01*
X17378864Y-12828484D02*
X17359816Y-12818960D01*
X17359816Y-12818960D02*
X17350292Y-12809436D01*
X17350292Y-12809436D02*
X17340768Y-12790388D01*
X17340768Y-12790388D02*
X17340768Y-12733246D01*
X17340768Y-12733246D02*
X17350292Y-12714198D01*
X17350292Y-12714198D02*
X17359816Y-12704674D01*
X17359816Y-12704674D02*
X17378864Y-12695150D01*
X17378864Y-12695150D02*
X17407435Y-12695150D01*
X17407435Y-12695150D02*
X17426483Y-12704674D01*
X17426483Y-12704674D02*
X17436007Y-12714198D01*
X17436007Y-12714198D02*
X17445530Y-12733246D01*
X17445530Y-12733246D02*
X17445530Y-12790388D01*
X17445530Y-12790388D02*
X17436007Y-12809436D01*
X17436007Y-12809436D02*
X17426483Y-12818960D01*
X17426483Y-12818960D02*
X17407435Y-12828484D01*
X17407435Y-12828484D02*
X17378864Y-12828484D01*
X17559816Y-12828484D02*
X17540768Y-12818960D01*
X17540768Y-12818960D02*
X17531245Y-12799912D01*
X17531245Y-12799912D02*
X17531245Y-12628484D01*
X17712197Y-12818960D02*
X17693149Y-12828484D01*
X17693149Y-12828484D02*
X17655054Y-12828484D01*
X17655054Y-12828484D02*
X17636007Y-12818960D01*
X17636007Y-12818960D02*
X17626483Y-12799912D01*
X17626483Y-12799912D02*
X17626483Y-12723722D01*
X17626483Y-12723722D02*
X17636007Y-12704674D01*
X17636007Y-12704674D02*
X17655054Y-12695150D01*
X17655054Y-12695150D02*
X17693149Y-12695150D01*
X17693149Y-12695150D02*
X17712197Y-12704674D01*
X17712197Y-12704674D02*
X17721721Y-12723722D01*
X17721721Y-12723722D02*
X17721721Y-12742769D01*
X17721721Y-12742769D02*
X17626483Y-12761817D01*
X17797911Y-12818960D02*
X17816959Y-12828484D01*
X17816959Y-12828484D02*
X17855054Y-12828484D01*
X17855054Y-12828484D02*
X17874102Y-12818960D01*
X17874102Y-12818960D02*
X17883626Y-12799912D01*
X17883626Y-12799912D02*
X17883626Y-12790388D01*
X17883626Y-12790388D02*
X17874102Y-12771341D01*
X17874102Y-12771341D02*
X17855054Y-12761817D01*
X17855054Y-12761817D02*
X17826483Y-12761817D01*
X17826483Y-12761817D02*
X17807435Y-12752293D01*
X17807435Y-12752293D02*
X17797911Y-12733246D01*
X17797911Y-12733246D02*
X17797911Y-12723722D01*
X17797911Y-12723722D02*
X17807435Y-12704674D01*
X17807435Y-12704674D02*
X17826483Y-12695150D01*
X17826483Y-12695150D02*
X17855054Y-12695150D01*
X17855054Y-12695150D02*
X17874102Y-12704674D01*
X17950292Y-12904674D02*
X17959816Y-12895150D01*
X17959816Y-12895150D02*
X17978864Y-12866579D01*
X17978864Y-12866579D02*
X17988388Y-12847531D01*
X17988388Y-12847531D02*
X17997911Y-12818960D01*
X17997911Y-12818960D02*
X18007435Y-12771341D01*
X18007435Y-12771341D02*
X18007435Y-12733246D01*
X18007435Y-12733246D02*
X17997911Y-12685627D01*
X17997911Y-12685627D02*
X17988388Y-12657055D01*
X17988388Y-12657055D02*
X17978864Y-12638008D01*
X17978864Y-12638008D02*
X17959816Y-12609436D01*
X17959816Y-12609436D02*
X17950292Y-12599912D01*
D10*
X12764277Y-13031000D02*
X12794277Y-13001000D01*
X12764277Y-12971000D01*
X12734277Y-13001000D01*
X12764277Y-13031000D01*
D11*
X13093149Y-12892484D02*
X13112197Y-12892484D01*
X13112197Y-12892484D02*
X13131244Y-12902008D01*
X13131244Y-12902008D02*
X13140768Y-12911531D01*
X13140768Y-12911531D02*
X13150292Y-12930579D01*
X13150292Y-12930579D02*
X13159816Y-12968674D01*
X13159816Y-12968674D02*
X13159816Y-13016293D01*
X13159816Y-13016293D02*
X13150292Y-13054388D01*
X13150292Y-13054388D02*
X13140768Y-13073436D01*
X13140768Y-13073436D02*
X13131244Y-13082960D01*
X13131244Y-13082960D02*
X13112197Y-13092484D01*
X13112197Y-13092484D02*
X13093149Y-13092484D01*
X13093149Y-13092484D02*
X13074101Y-13082960D01*
X13074101Y-13082960D02*
X13064577Y-13073436D01*
X13064577Y-13073436D02*
X13055054Y-13054388D01*
X13055054Y-13054388D02*
X13045530Y-13016293D01*
X13045530Y-13016293D02*
X13045530Y-12968674D01*
X13045530Y-12968674D02*
X13055054Y-12930579D01*
X13055054Y-12930579D02*
X13064577Y-12911531D01*
X13064577Y-12911531D02*
X13074101Y-12902008D01*
X13074101Y-12902008D02*
X13093149Y-12892484D01*
X13245530Y-13073436D02*
X13255054Y-13082960D01*
X13255054Y-13082960D02*
X13245530Y-13092484D01*
X13245530Y-13092484D02*
X13236006Y-13082960D01*
X13236006Y-13082960D02*
X13245530Y-13073436D01*
X13245530Y-13073436D02*
X13245530Y-13092484D01*
X13426482Y-12892484D02*
X13388387Y-12892484D01*
X13388387Y-12892484D02*
X13369339Y-12902008D01*
X13369339Y-12902008D02*
X13359816Y-12911531D01*
X13359816Y-12911531D02*
X13340768Y-12940103D01*
X13340768Y-12940103D02*
X13331244Y-12978198D01*
X13331244Y-12978198D02*
X13331244Y-13054388D01*
X13331244Y-13054388D02*
X13340768Y-13073436D01*
X13340768Y-13073436D02*
X13350292Y-13082960D01*
X13350292Y-13082960D02*
X13369339Y-13092484D01*
X13369339Y-13092484D02*
X13407435Y-13092484D01*
X13407435Y-13092484D02*
X13426482Y-13082960D01*
X13426482Y-13082960D02*
X13436006Y-13073436D01*
X13436006Y-13073436D02*
X13445530Y-13054388D01*
X13445530Y-13054388D02*
X13445530Y-13006769D01*
X13445530Y-13006769D02*
X13436006Y-12987722D01*
X13436006Y-12987722D02*
X13426482Y-12978198D01*
X13426482Y-12978198D02*
X13407435Y-12968674D01*
X13407435Y-12968674D02*
X13369339Y-12968674D01*
X13369339Y-12968674D02*
X13350292Y-12978198D01*
X13350292Y-12978198D02*
X13340768Y-12987722D01*
X13340768Y-12987722D02*
X13331244Y-13006769D01*
X13569339Y-12892484D02*
X13588387Y-12892484D01*
X13588387Y-12892484D02*
X13607435Y-12902008D01*
X13607435Y-12902008D02*
X13616958Y-12911531D01*
X13616958Y-12911531D02*
X13626482Y-12930579D01*
X13626482Y-12930579D02*
X13636006Y-12968674D01*
X13636006Y-12968674D02*
X13636006Y-13016293D01*
X13636006Y-13016293D02*
X13626482Y-13054388D01*
X13626482Y-13054388D02*
X13616958Y-13073436D01*
X13616958Y-13073436D02*
X13607435Y-13082960D01*
X13607435Y-13082960D02*
X13588387Y-13092484D01*
X13588387Y-13092484D02*
X13569339Y-13092484D01*
X13569339Y-13092484D02*
X13550292Y-13082960D01*
X13550292Y-13082960D02*
X13540768Y-13073436D01*
X13540768Y-13073436D02*
X13531244Y-13054388D01*
X13531244Y-13054388D02*
X13521720Y-13016293D01*
X13521720Y-13016293D02*
X13521720Y-12968674D01*
X13521720Y-12968674D02*
X13531244Y-12930579D01*
X13531244Y-12930579D02*
X13540768Y-12911531D01*
X13540768Y-12911531D02*
X13550292Y-12902008D01*
X13550292Y-12902008D02*
X13569339Y-12892484D01*
X13759816Y-12892484D02*
X13778863Y-12892484D01*
X13778863Y-12892484D02*
X13797911Y-12902008D01*
X13797911Y-12902008D02*
X13807435Y-12911531D01*
X13807435Y-12911531D02*
X13816958Y-12930579D01*
X13816958Y-12930579D02*
X13826482Y-12968674D01*
X13826482Y-12968674D02*
X13826482Y-13016293D01*
X13826482Y-13016293D02*
X13816958Y-13054388D01*
X13816958Y-13054388D02*
X13807435Y-13073436D01*
X13807435Y-13073436D02*
X13797911Y-13082960D01*
X13797911Y-13082960D02*
X13778863Y-13092484D01*
X13778863Y-13092484D02*
X13759816Y-13092484D01*
X13759816Y-13092484D02*
X13740768Y-13082960D01*
X13740768Y-13082960D02*
X13731244Y-13073436D01*
X13731244Y-13073436D02*
X13721720Y-13054388D01*
X13721720Y-13054388D02*
X13712197Y-13016293D01*
X13712197Y-13016293D02*
X13712197Y-12968674D01*
X13712197Y-12968674D02*
X13721720Y-12930579D01*
X13721720Y-12930579D02*
X13731244Y-12911531D01*
X13731244Y-12911531D02*
X13740768Y-12902008D01*
X13740768Y-12902008D02*
X13759816Y-12892484D01*
X13912197Y-13092484D02*
X13912197Y-12959150D01*
X13912197Y-12978198D02*
X13921720Y-12968674D01*
X13921720Y-12968674D02*
X13940768Y-12959150D01*
X13940768Y-12959150D02*
X13969339Y-12959150D01*
X13969339Y-12959150D02*
X13988387Y-12968674D01*
X13988387Y-12968674D02*
X13997911Y-12987722D01*
X13997911Y-12987722D02*
X13997911Y-13092484D01*
X13997911Y-12987722D02*
X14007435Y-12968674D01*
X14007435Y-12968674D02*
X14026482Y-12959150D01*
X14026482Y-12959150D02*
X14055054Y-12959150D01*
X14055054Y-12959150D02*
X14074101Y-12968674D01*
X14074101Y-12968674D02*
X14083625Y-12987722D01*
X14083625Y-12987722D02*
X14083625Y-13092484D01*
X14178863Y-13092484D02*
X14178863Y-12959150D01*
X14178863Y-12978198D02*
X14188387Y-12968674D01*
X14188387Y-12968674D02*
X14207435Y-12959150D01*
X14207435Y-12959150D02*
X14236006Y-12959150D01*
X14236006Y-12959150D02*
X14255054Y-12968674D01*
X14255054Y-12968674D02*
X14264578Y-12987722D01*
X14264578Y-12987722D02*
X14264578Y-13092484D01*
X14264578Y-12987722D02*
X14274101Y-12968674D01*
X14274101Y-12968674D02*
X14293149Y-12959150D01*
X14293149Y-12959150D02*
X14321720Y-12959150D01*
X14321720Y-12959150D02*
X14340768Y-12968674D01*
X14340768Y-12968674D02*
X14350292Y-12987722D01*
X14350292Y-12987722D02*
X14350292Y-13092484D01*
X14740768Y-12882960D02*
X14569340Y-13140103D01*
X14997911Y-12892484D02*
X15016959Y-12892484D01*
X15016959Y-12892484D02*
X15036006Y-12902008D01*
X15036006Y-12902008D02*
X15045530Y-12911531D01*
X15045530Y-12911531D02*
X15055054Y-12930579D01*
X15055054Y-12930579D02*
X15064578Y-12968674D01*
X15064578Y-12968674D02*
X15064578Y-13016293D01*
X15064578Y-13016293D02*
X15055054Y-13054388D01*
X15055054Y-13054388D02*
X15045530Y-13073436D01*
X15045530Y-13073436D02*
X15036006Y-13082960D01*
X15036006Y-13082960D02*
X15016959Y-13092484D01*
X15016959Y-13092484D02*
X14997911Y-13092484D01*
X14997911Y-13092484D02*
X14978863Y-13082960D01*
X14978863Y-13082960D02*
X14969340Y-13073436D01*
X14969340Y-13073436D02*
X14959816Y-13054388D01*
X14959816Y-13054388D02*
X14950292Y-13016293D01*
X14950292Y-13016293D02*
X14950292Y-12968674D01*
X14950292Y-12968674D02*
X14959816Y-12930579D01*
X14959816Y-12930579D02*
X14969340Y-12911531D01*
X14969340Y-12911531D02*
X14978863Y-12902008D01*
X14978863Y-12902008D02*
X14997911Y-12892484D01*
X15150292Y-13073436D02*
X15159816Y-13082960D01*
X15159816Y-13082960D02*
X15150292Y-13092484D01*
X15150292Y-13092484D02*
X15140768Y-13082960D01*
X15140768Y-13082960D02*
X15150292Y-13073436D01*
X15150292Y-13073436D02*
X15150292Y-13092484D01*
X15283625Y-12892484D02*
X15302673Y-12892484D01*
X15302673Y-12892484D02*
X15321721Y-12902008D01*
X15321721Y-12902008D02*
X15331244Y-12911531D01*
X15331244Y-12911531D02*
X15340768Y-12930579D01*
X15340768Y-12930579D02*
X15350292Y-12968674D01*
X15350292Y-12968674D02*
X15350292Y-13016293D01*
X15350292Y-13016293D02*
X15340768Y-13054388D01*
X15340768Y-13054388D02*
X15331244Y-13073436D01*
X15331244Y-13073436D02*
X15321721Y-13082960D01*
X15321721Y-13082960D02*
X15302673Y-13092484D01*
X15302673Y-13092484D02*
X15283625Y-13092484D01*
X15283625Y-13092484D02*
X15264578Y-13082960D01*
X15264578Y-13082960D02*
X15255054Y-13073436D01*
X15255054Y-13073436D02*
X15245530Y-13054388D01*
X15245530Y-13054388D02*
X15236006Y-13016293D01*
X15236006Y-13016293D02*
X15236006Y-12968674D01*
X15236006Y-12968674D02*
X15245530Y-12930579D01*
X15245530Y-12930579D02*
X15255054Y-12911531D01*
X15255054Y-12911531D02*
X15264578Y-12902008D01*
X15264578Y-12902008D02*
X15283625Y-12892484D01*
X15426482Y-12911531D02*
X15436006Y-12902008D01*
X15436006Y-12902008D02*
X15455054Y-12892484D01*
X15455054Y-12892484D02*
X15502673Y-12892484D01*
X15502673Y-12892484D02*
X15521721Y-12902008D01*
X15521721Y-12902008D02*
X15531244Y-12911531D01*
X15531244Y-12911531D02*
X15540768Y-12930579D01*
X15540768Y-12930579D02*
X15540768Y-12949627D01*
X15540768Y-12949627D02*
X15531244Y-12978198D01*
X15531244Y-12978198D02*
X15416959Y-13092484D01*
X15416959Y-13092484D02*
X15540768Y-13092484D01*
X15607435Y-12892484D02*
X15731244Y-12892484D01*
X15731244Y-12892484D02*
X15664578Y-12968674D01*
X15664578Y-12968674D02*
X15693149Y-12968674D01*
X15693149Y-12968674D02*
X15712197Y-12978198D01*
X15712197Y-12978198D02*
X15721721Y-12987722D01*
X15721721Y-12987722D02*
X15731244Y-13006769D01*
X15731244Y-13006769D02*
X15731244Y-13054388D01*
X15731244Y-13054388D02*
X15721721Y-13073436D01*
X15721721Y-13073436D02*
X15712197Y-13082960D01*
X15712197Y-13082960D02*
X15693149Y-13092484D01*
X15693149Y-13092484D02*
X15636006Y-13092484D01*
X15636006Y-13092484D02*
X15616959Y-13082960D01*
X15616959Y-13082960D02*
X15607435Y-13073436D01*
X15902673Y-12892484D02*
X15864578Y-12892484D01*
X15864578Y-12892484D02*
X15845530Y-12902008D01*
X15845530Y-12902008D02*
X15836006Y-12911531D01*
X15836006Y-12911531D02*
X15816959Y-12940103D01*
X15816959Y-12940103D02*
X15807435Y-12978198D01*
X15807435Y-12978198D02*
X15807435Y-13054388D01*
X15807435Y-13054388D02*
X15816959Y-13073436D01*
X15816959Y-13073436D02*
X15826482Y-13082960D01*
X15826482Y-13082960D02*
X15845530Y-13092484D01*
X15845530Y-13092484D02*
X15883625Y-13092484D01*
X15883625Y-13092484D02*
X15902673Y-13082960D01*
X15902673Y-13082960D02*
X15912197Y-13073436D01*
X15912197Y-13073436D02*
X15921721Y-13054388D01*
X15921721Y-13054388D02*
X15921721Y-13006769D01*
X15921721Y-13006769D02*
X15912197Y-12987722D01*
X15912197Y-12987722D02*
X15902673Y-12978198D01*
X15902673Y-12978198D02*
X15883625Y-12968674D01*
X15883625Y-12968674D02*
X15845530Y-12968674D01*
X15845530Y-12968674D02*
X15826482Y-12978198D01*
X15826482Y-12978198D02*
X15816959Y-12987722D01*
X15816959Y-12987722D02*
X15807435Y-13006769D01*
X15997911Y-12892484D02*
X15997911Y-12930579D01*
X16074102Y-12892484D02*
X16074102Y-12930579D01*
X16369340Y-13168674D02*
X16359816Y-13159150D01*
X16359816Y-13159150D02*
X16340768Y-13130579D01*
X16340768Y-13130579D02*
X16331244Y-13111531D01*
X16331244Y-13111531D02*
X16321721Y-13082960D01*
X16321721Y-13082960D02*
X16312197Y-13035341D01*
X16312197Y-13035341D02*
X16312197Y-12997246D01*
X16312197Y-12997246D02*
X16321721Y-12949627D01*
X16321721Y-12949627D02*
X16331244Y-12921055D01*
X16331244Y-12921055D02*
X16340768Y-12902008D01*
X16340768Y-12902008D02*
X16359816Y-12873436D01*
X16359816Y-12873436D02*
X16369340Y-12863912D01*
X16483625Y-12892484D02*
X16502673Y-12892484D01*
X16502673Y-12892484D02*
X16521721Y-12902008D01*
X16521721Y-12902008D02*
X16531244Y-12911531D01*
X16531244Y-12911531D02*
X16540768Y-12930579D01*
X16540768Y-12930579D02*
X16550292Y-12968674D01*
X16550292Y-12968674D02*
X16550292Y-13016293D01*
X16550292Y-13016293D02*
X16540768Y-13054388D01*
X16540768Y-13054388D02*
X16531244Y-13073436D01*
X16531244Y-13073436D02*
X16521721Y-13082960D01*
X16521721Y-13082960D02*
X16502673Y-13092484D01*
X16502673Y-13092484D02*
X16483625Y-13092484D01*
X16483625Y-13092484D02*
X16464578Y-13082960D01*
X16464578Y-13082960D02*
X16455054Y-13073436D01*
X16455054Y-13073436D02*
X16445530Y-13054388D01*
X16445530Y-13054388D02*
X16436006Y-13016293D01*
X16436006Y-13016293D02*
X16436006Y-12968674D01*
X16436006Y-12968674D02*
X16445530Y-12930579D01*
X16445530Y-12930579D02*
X16455054Y-12911531D01*
X16455054Y-12911531D02*
X16464578Y-12902008D01*
X16464578Y-12902008D02*
X16483625Y-12892484D01*
X16788387Y-13092484D02*
X16788387Y-12892484D01*
X16874102Y-13092484D02*
X16874102Y-12987722D01*
X16874102Y-12987722D02*
X16864578Y-12968674D01*
X16864578Y-12968674D02*
X16845530Y-12959150D01*
X16845530Y-12959150D02*
X16816959Y-12959150D01*
X16816959Y-12959150D02*
X16797911Y-12968674D01*
X16797911Y-12968674D02*
X16788387Y-12978198D01*
X16997911Y-13092484D02*
X16978864Y-13082960D01*
X16978864Y-13082960D02*
X16969340Y-13073436D01*
X16969340Y-13073436D02*
X16959816Y-13054388D01*
X16959816Y-13054388D02*
X16959816Y-12997246D01*
X16959816Y-12997246D02*
X16969340Y-12978198D01*
X16969340Y-12978198D02*
X16978864Y-12968674D01*
X16978864Y-12968674D02*
X16997911Y-12959150D01*
X16997911Y-12959150D02*
X17026483Y-12959150D01*
X17026483Y-12959150D02*
X17045530Y-12968674D01*
X17045530Y-12968674D02*
X17055054Y-12978198D01*
X17055054Y-12978198D02*
X17064578Y-12997246D01*
X17064578Y-12997246D02*
X17064578Y-13054388D01*
X17064578Y-13054388D02*
X17055054Y-13073436D01*
X17055054Y-13073436D02*
X17045530Y-13082960D01*
X17045530Y-13082960D02*
X17026483Y-13092484D01*
X17026483Y-13092484D02*
X16997911Y-13092484D01*
X17178864Y-13092484D02*
X17159816Y-13082960D01*
X17159816Y-13082960D02*
X17150292Y-13063912D01*
X17150292Y-13063912D02*
X17150292Y-12892484D01*
X17331245Y-13082960D02*
X17312197Y-13092484D01*
X17312197Y-13092484D02*
X17274102Y-13092484D01*
X17274102Y-13092484D02*
X17255054Y-13082960D01*
X17255054Y-13082960D02*
X17245530Y-13063912D01*
X17245530Y-13063912D02*
X17245530Y-12987722D01*
X17245530Y-12987722D02*
X17255054Y-12968674D01*
X17255054Y-12968674D02*
X17274102Y-12959150D01*
X17274102Y-12959150D02*
X17312197Y-12959150D01*
X17312197Y-12959150D02*
X17331245Y-12968674D01*
X17331245Y-12968674D02*
X17340768Y-12987722D01*
X17340768Y-12987722D02*
X17340768Y-13006769D01*
X17340768Y-13006769D02*
X17245530Y-13025817D01*
X17416959Y-13082960D02*
X17436007Y-13092484D01*
X17436007Y-13092484D02*
X17474102Y-13092484D01*
X17474102Y-13092484D02*
X17493149Y-13082960D01*
X17493149Y-13082960D02*
X17502673Y-13063912D01*
X17502673Y-13063912D02*
X17502673Y-13054388D01*
X17502673Y-13054388D02*
X17493149Y-13035341D01*
X17493149Y-13035341D02*
X17474102Y-13025817D01*
X17474102Y-13025817D02*
X17445530Y-13025817D01*
X17445530Y-13025817D02*
X17426483Y-13016293D01*
X17426483Y-13016293D02*
X17416959Y-12997246D01*
X17416959Y-12997246D02*
X17416959Y-12987722D01*
X17416959Y-12987722D02*
X17426483Y-12968674D01*
X17426483Y-12968674D02*
X17445530Y-12959150D01*
X17445530Y-12959150D02*
X17474102Y-12959150D01*
X17474102Y-12959150D02*
X17493149Y-12968674D01*
X17740769Y-13016293D02*
X17893150Y-13016293D01*
X17816959Y-13092484D02*
X17816959Y-12940103D01*
X18226483Y-12959150D02*
X18226483Y-13092484D01*
X18178864Y-12882960D02*
X18131245Y-13025817D01*
X18131245Y-13025817D02*
X18255054Y-13025817D01*
X18474102Y-13082960D02*
X18493150Y-13092484D01*
X18493150Y-13092484D02*
X18531245Y-13092484D01*
X18531245Y-13092484D02*
X18550292Y-13082960D01*
X18550292Y-13082960D02*
X18559816Y-13063912D01*
X18559816Y-13063912D02*
X18559816Y-13054388D01*
X18559816Y-13054388D02*
X18550292Y-13035341D01*
X18550292Y-13035341D02*
X18531245Y-13025817D01*
X18531245Y-13025817D02*
X18502673Y-13025817D01*
X18502673Y-13025817D02*
X18483626Y-13016293D01*
X18483626Y-13016293D02*
X18474102Y-12997246D01*
X18474102Y-12997246D02*
X18474102Y-12987722D01*
X18474102Y-12987722D02*
X18483626Y-12968674D01*
X18483626Y-12968674D02*
X18502673Y-12959150D01*
X18502673Y-12959150D02*
X18531245Y-12959150D01*
X18531245Y-12959150D02*
X18550292Y-12968674D01*
X18674102Y-13092484D02*
X18655054Y-13082960D01*
X18655054Y-13082960D02*
X18645531Y-13063912D01*
X18645531Y-13063912D02*
X18645531Y-12892484D01*
X18778864Y-13092484D02*
X18759816Y-13082960D01*
X18759816Y-13082960D02*
X18750292Y-13073436D01*
X18750292Y-13073436D02*
X18740769Y-13054388D01*
X18740769Y-13054388D02*
X18740769Y-12997246D01*
X18740769Y-12997246D02*
X18750292Y-12978198D01*
X18750292Y-12978198D02*
X18759816Y-12968674D01*
X18759816Y-12968674D02*
X18778864Y-12959150D01*
X18778864Y-12959150D02*
X18807435Y-12959150D01*
X18807435Y-12959150D02*
X18826483Y-12968674D01*
X18826483Y-12968674D02*
X18836007Y-12978198D01*
X18836007Y-12978198D02*
X18845531Y-12997246D01*
X18845531Y-12997246D02*
X18845531Y-13054388D01*
X18845531Y-13054388D02*
X18836007Y-13073436D01*
X18836007Y-13073436D02*
X18826483Y-13082960D01*
X18826483Y-13082960D02*
X18807435Y-13092484D01*
X18807435Y-13092484D02*
X18778864Y-13092484D01*
X18902673Y-12959150D02*
X18978864Y-12959150D01*
X18931245Y-12892484D02*
X18931245Y-13063912D01*
X18931245Y-13063912D02*
X18940769Y-13082960D01*
X18940769Y-13082960D02*
X18959816Y-13092484D01*
X18959816Y-13092484D02*
X18978864Y-13092484D01*
X19036007Y-13082960D02*
X19055054Y-13092484D01*
X19055054Y-13092484D02*
X19093150Y-13092484D01*
X19093150Y-13092484D02*
X19112197Y-13082960D01*
X19112197Y-13082960D02*
X19121721Y-13063912D01*
X19121721Y-13063912D02*
X19121721Y-13054388D01*
X19121721Y-13054388D02*
X19112197Y-13035341D01*
X19112197Y-13035341D02*
X19093150Y-13025817D01*
X19093150Y-13025817D02*
X19064578Y-13025817D01*
X19064578Y-13025817D02*
X19045531Y-13016293D01*
X19045531Y-13016293D02*
X19036007Y-12997246D01*
X19036007Y-12997246D02*
X19036007Y-12987722D01*
X19036007Y-12987722D02*
X19045531Y-12968674D01*
X19045531Y-12968674D02*
X19064578Y-12959150D01*
X19064578Y-12959150D02*
X19093150Y-12959150D01*
X19093150Y-12959150D02*
X19112197Y-12968674D01*
X19188388Y-13168674D02*
X19197912Y-13159150D01*
X19197912Y-13159150D02*
X19216959Y-13130579D01*
X19216959Y-13130579D02*
X19226483Y-13111531D01*
X19226483Y-13111531D02*
X19236007Y-13082960D01*
X19236007Y-13082960D02*
X19245531Y-13035341D01*
X19245531Y-13035341D02*
X19245531Y-12997246D01*
X19245531Y-12997246D02*
X19236007Y-12949627D01*
X19236007Y-12949627D02*
X19226483Y-12921055D01*
X19226483Y-12921055D02*
X19216959Y-12902008D01*
X19216959Y-12902008D02*
X19197912Y-12873436D01*
X19197912Y-12873436D02*
X19188388Y-12863912D01*
D10*
X12694277Y-13215000D02*
X12794277Y-13315000D01*
X12794277Y-13215000D02*
X12694277Y-13315000D01*
X12794277Y-13265000D02*
G75*
G02*
X12694277Y-13265000I-50000J0D01*
G01*
X12694277Y-13265000D02*
G75*
G02*
X12794277Y-13265000I50000J0D01*
G01*
D11*
X13159816Y-13356484D02*
X13045530Y-13356484D01*
X13102673Y-13356484D02*
X13102673Y-13156484D01*
X13102673Y-13156484D02*
X13083625Y-13185055D01*
X13083625Y-13185055D02*
X13064577Y-13204103D01*
X13064577Y-13204103D02*
X13045530Y-13213627D01*
X13245530Y-13337436D02*
X13255054Y-13346960D01*
X13255054Y-13346960D02*
X13245530Y-13356484D01*
X13245530Y-13356484D02*
X13236006Y-13346960D01*
X13236006Y-13346960D02*
X13245530Y-13337436D01*
X13245530Y-13337436D02*
X13245530Y-13356484D01*
X13378863Y-13156484D02*
X13397911Y-13156484D01*
X13397911Y-13156484D02*
X13416958Y-13166008D01*
X13416958Y-13166008D02*
X13426482Y-13175531D01*
X13426482Y-13175531D02*
X13436006Y-13194579D01*
X13436006Y-13194579D02*
X13445530Y-13232674D01*
X13445530Y-13232674D02*
X13445530Y-13280293D01*
X13445530Y-13280293D02*
X13436006Y-13318388D01*
X13436006Y-13318388D02*
X13426482Y-13337436D01*
X13426482Y-13337436D02*
X13416958Y-13346960D01*
X13416958Y-13346960D02*
X13397911Y-13356484D01*
X13397911Y-13356484D02*
X13378863Y-13356484D01*
X13378863Y-13356484D02*
X13359816Y-13346960D01*
X13359816Y-13346960D02*
X13350292Y-13337436D01*
X13350292Y-13337436D02*
X13340768Y-13318388D01*
X13340768Y-13318388D02*
X13331244Y-13280293D01*
X13331244Y-13280293D02*
X13331244Y-13232674D01*
X13331244Y-13232674D02*
X13340768Y-13194579D01*
X13340768Y-13194579D02*
X13350292Y-13175531D01*
X13350292Y-13175531D02*
X13359816Y-13166008D01*
X13359816Y-13166008D02*
X13378863Y-13156484D01*
X13569339Y-13156484D02*
X13588387Y-13156484D01*
X13588387Y-13156484D02*
X13607435Y-13166008D01*
X13607435Y-13166008D02*
X13616958Y-13175531D01*
X13616958Y-13175531D02*
X13626482Y-13194579D01*
X13626482Y-13194579D02*
X13636006Y-13232674D01*
X13636006Y-13232674D02*
X13636006Y-13280293D01*
X13636006Y-13280293D02*
X13626482Y-13318388D01*
X13626482Y-13318388D02*
X13616958Y-13337436D01*
X13616958Y-13337436D02*
X13607435Y-13346960D01*
X13607435Y-13346960D02*
X13588387Y-13356484D01*
X13588387Y-13356484D02*
X13569339Y-13356484D01*
X13569339Y-13356484D02*
X13550292Y-13346960D01*
X13550292Y-13346960D02*
X13540768Y-13337436D01*
X13540768Y-13337436D02*
X13531244Y-13318388D01*
X13531244Y-13318388D02*
X13521720Y-13280293D01*
X13521720Y-13280293D02*
X13521720Y-13232674D01*
X13521720Y-13232674D02*
X13531244Y-13194579D01*
X13531244Y-13194579D02*
X13540768Y-13175531D01*
X13540768Y-13175531D02*
X13550292Y-13166008D01*
X13550292Y-13166008D02*
X13569339Y-13156484D01*
X13759816Y-13156484D02*
X13778863Y-13156484D01*
X13778863Y-13156484D02*
X13797911Y-13166008D01*
X13797911Y-13166008D02*
X13807435Y-13175531D01*
X13807435Y-13175531D02*
X13816958Y-13194579D01*
X13816958Y-13194579D02*
X13826482Y-13232674D01*
X13826482Y-13232674D02*
X13826482Y-13280293D01*
X13826482Y-13280293D02*
X13816958Y-13318388D01*
X13816958Y-13318388D02*
X13807435Y-13337436D01*
X13807435Y-13337436D02*
X13797911Y-13346960D01*
X13797911Y-13346960D02*
X13778863Y-13356484D01*
X13778863Y-13356484D02*
X13759816Y-13356484D01*
X13759816Y-13356484D02*
X13740768Y-13346960D01*
X13740768Y-13346960D02*
X13731244Y-13337436D01*
X13731244Y-13337436D02*
X13721720Y-13318388D01*
X13721720Y-13318388D02*
X13712197Y-13280293D01*
X13712197Y-13280293D02*
X13712197Y-13232674D01*
X13712197Y-13232674D02*
X13721720Y-13194579D01*
X13721720Y-13194579D02*
X13731244Y-13175531D01*
X13731244Y-13175531D02*
X13740768Y-13166008D01*
X13740768Y-13166008D02*
X13759816Y-13156484D01*
X13912197Y-13356484D02*
X13912197Y-13223150D01*
X13912197Y-13242198D02*
X13921720Y-13232674D01*
X13921720Y-13232674D02*
X13940768Y-13223150D01*
X13940768Y-13223150D02*
X13969339Y-13223150D01*
X13969339Y-13223150D02*
X13988387Y-13232674D01*
X13988387Y-13232674D02*
X13997911Y-13251722D01*
X13997911Y-13251722D02*
X13997911Y-13356484D01*
X13997911Y-13251722D02*
X14007435Y-13232674D01*
X14007435Y-13232674D02*
X14026482Y-13223150D01*
X14026482Y-13223150D02*
X14055054Y-13223150D01*
X14055054Y-13223150D02*
X14074101Y-13232674D01*
X14074101Y-13232674D02*
X14083625Y-13251722D01*
X14083625Y-13251722D02*
X14083625Y-13356484D01*
X14178863Y-13356484D02*
X14178863Y-13223150D01*
X14178863Y-13242198D02*
X14188387Y-13232674D01*
X14188387Y-13232674D02*
X14207435Y-13223150D01*
X14207435Y-13223150D02*
X14236006Y-13223150D01*
X14236006Y-13223150D02*
X14255054Y-13232674D01*
X14255054Y-13232674D02*
X14264578Y-13251722D01*
X14264578Y-13251722D02*
X14264578Y-13356484D01*
X14264578Y-13251722D02*
X14274101Y-13232674D01*
X14274101Y-13232674D02*
X14293149Y-13223150D01*
X14293149Y-13223150D02*
X14321720Y-13223150D01*
X14321720Y-13223150D02*
X14340768Y-13232674D01*
X14340768Y-13232674D02*
X14350292Y-13251722D01*
X14350292Y-13251722D02*
X14350292Y-13356484D01*
X14740768Y-13146960D02*
X14569340Y-13404103D01*
X14997911Y-13156484D02*
X15016959Y-13156484D01*
X15016959Y-13156484D02*
X15036006Y-13166008D01*
X15036006Y-13166008D02*
X15045530Y-13175531D01*
X15045530Y-13175531D02*
X15055054Y-13194579D01*
X15055054Y-13194579D02*
X15064578Y-13232674D01*
X15064578Y-13232674D02*
X15064578Y-13280293D01*
X15064578Y-13280293D02*
X15055054Y-13318388D01*
X15055054Y-13318388D02*
X15045530Y-13337436D01*
X15045530Y-13337436D02*
X15036006Y-13346960D01*
X15036006Y-13346960D02*
X15016959Y-13356484D01*
X15016959Y-13356484D02*
X14997911Y-13356484D01*
X14997911Y-13356484D02*
X14978863Y-13346960D01*
X14978863Y-13346960D02*
X14969340Y-13337436D01*
X14969340Y-13337436D02*
X14959816Y-13318388D01*
X14959816Y-13318388D02*
X14950292Y-13280293D01*
X14950292Y-13280293D02*
X14950292Y-13232674D01*
X14950292Y-13232674D02*
X14959816Y-13194579D01*
X14959816Y-13194579D02*
X14969340Y-13175531D01*
X14969340Y-13175531D02*
X14978863Y-13166008D01*
X14978863Y-13166008D02*
X14997911Y-13156484D01*
X15150292Y-13337436D02*
X15159816Y-13346960D01*
X15159816Y-13346960D02*
X15150292Y-13356484D01*
X15150292Y-13356484D02*
X15140768Y-13346960D01*
X15140768Y-13346960D02*
X15150292Y-13337436D01*
X15150292Y-13337436D02*
X15150292Y-13356484D01*
X15283625Y-13156484D02*
X15302673Y-13156484D01*
X15302673Y-13156484D02*
X15321721Y-13166008D01*
X15321721Y-13166008D02*
X15331244Y-13175531D01*
X15331244Y-13175531D02*
X15340768Y-13194579D01*
X15340768Y-13194579D02*
X15350292Y-13232674D01*
X15350292Y-13232674D02*
X15350292Y-13280293D01*
X15350292Y-13280293D02*
X15340768Y-13318388D01*
X15340768Y-13318388D02*
X15331244Y-13337436D01*
X15331244Y-13337436D02*
X15321721Y-13346960D01*
X15321721Y-13346960D02*
X15302673Y-13356484D01*
X15302673Y-13356484D02*
X15283625Y-13356484D01*
X15283625Y-13356484D02*
X15264578Y-13346960D01*
X15264578Y-13346960D02*
X15255054Y-13337436D01*
X15255054Y-13337436D02*
X15245530Y-13318388D01*
X15245530Y-13318388D02*
X15236006Y-13280293D01*
X15236006Y-13280293D02*
X15236006Y-13232674D01*
X15236006Y-13232674D02*
X15245530Y-13194579D01*
X15245530Y-13194579D02*
X15255054Y-13175531D01*
X15255054Y-13175531D02*
X15264578Y-13166008D01*
X15264578Y-13166008D02*
X15283625Y-13156484D01*
X15416959Y-13156484D02*
X15540768Y-13156484D01*
X15540768Y-13156484D02*
X15474101Y-13232674D01*
X15474101Y-13232674D02*
X15502673Y-13232674D01*
X15502673Y-13232674D02*
X15521721Y-13242198D01*
X15521721Y-13242198D02*
X15531244Y-13251722D01*
X15531244Y-13251722D02*
X15540768Y-13270769D01*
X15540768Y-13270769D02*
X15540768Y-13318388D01*
X15540768Y-13318388D02*
X15531244Y-13337436D01*
X15531244Y-13337436D02*
X15521721Y-13346960D01*
X15521721Y-13346960D02*
X15502673Y-13356484D01*
X15502673Y-13356484D02*
X15445530Y-13356484D01*
X15445530Y-13356484D02*
X15426482Y-13346960D01*
X15426482Y-13346960D02*
X15416959Y-13337436D01*
X15636006Y-13356484D02*
X15674101Y-13356484D01*
X15674101Y-13356484D02*
X15693149Y-13346960D01*
X15693149Y-13346960D02*
X15702673Y-13337436D01*
X15702673Y-13337436D02*
X15721721Y-13308865D01*
X15721721Y-13308865D02*
X15731244Y-13270769D01*
X15731244Y-13270769D02*
X15731244Y-13194579D01*
X15731244Y-13194579D02*
X15721721Y-13175531D01*
X15721721Y-13175531D02*
X15712197Y-13166008D01*
X15712197Y-13166008D02*
X15693149Y-13156484D01*
X15693149Y-13156484D02*
X15655054Y-13156484D01*
X15655054Y-13156484D02*
X15636006Y-13166008D01*
X15636006Y-13166008D02*
X15626482Y-13175531D01*
X15626482Y-13175531D02*
X15616959Y-13194579D01*
X15616959Y-13194579D02*
X15616959Y-13242198D01*
X15616959Y-13242198D02*
X15626482Y-13261246D01*
X15626482Y-13261246D02*
X15636006Y-13270769D01*
X15636006Y-13270769D02*
X15655054Y-13280293D01*
X15655054Y-13280293D02*
X15693149Y-13280293D01*
X15693149Y-13280293D02*
X15712197Y-13270769D01*
X15712197Y-13270769D02*
X15721721Y-13261246D01*
X15721721Y-13261246D02*
X15731244Y-13242198D01*
X15902673Y-13223150D02*
X15902673Y-13356484D01*
X15855054Y-13146960D02*
X15807435Y-13289817D01*
X15807435Y-13289817D02*
X15931244Y-13289817D01*
X15997911Y-13156484D02*
X15997911Y-13194579D01*
X16074102Y-13156484D02*
X16074102Y-13194579D01*
X16369340Y-13432674D02*
X16359816Y-13423150D01*
X16359816Y-13423150D02*
X16340768Y-13394579D01*
X16340768Y-13394579D02*
X16331244Y-13375531D01*
X16331244Y-13375531D02*
X16321721Y-13346960D01*
X16321721Y-13346960D02*
X16312197Y-13299341D01*
X16312197Y-13299341D02*
X16312197Y-13261246D01*
X16312197Y-13261246D02*
X16321721Y-13213627D01*
X16321721Y-13213627D02*
X16331244Y-13185055D01*
X16331244Y-13185055D02*
X16340768Y-13166008D01*
X16340768Y-13166008D02*
X16359816Y-13137436D01*
X16359816Y-13137436D02*
X16369340Y-13127912D01*
X16436006Y-13175531D02*
X16445530Y-13166008D01*
X16445530Y-13166008D02*
X16464578Y-13156484D01*
X16464578Y-13156484D02*
X16512197Y-13156484D01*
X16512197Y-13156484D02*
X16531244Y-13166008D01*
X16531244Y-13166008D02*
X16540768Y-13175531D01*
X16540768Y-13175531D02*
X16550292Y-13194579D01*
X16550292Y-13194579D02*
X16550292Y-13213627D01*
X16550292Y-13213627D02*
X16540768Y-13242198D01*
X16540768Y-13242198D02*
X16426483Y-13356484D01*
X16426483Y-13356484D02*
X16550292Y-13356484D01*
X16721721Y-13223150D02*
X16721721Y-13356484D01*
X16674102Y-13146960D02*
X16626483Y-13289817D01*
X16626483Y-13289817D02*
X16750292Y-13289817D01*
X16978864Y-13356484D02*
X16978864Y-13156484D01*
X17064578Y-13356484D02*
X17064578Y-13251722D01*
X17064578Y-13251722D02*
X17055054Y-13232674D01*
X17055054Y-13232674D02*
X17036007Y-13223150D01*
X17036007Y-13223150D02*
X17007435Y-13223150D01*
X17007435Y-13223150D02*
X16988387Y-13232674D01*
X16988387Y-13232674D02*
X16978864Y-13242198D01*
X17188387Y-13356484D02*
X17169340Y-13346960D01*
X17169340Y-13346960D02*
X17159816Y-13337436D01*
X17159816Y-13337436D02*
X17150292Y-13318388D01*
X17150292Y-13318388D02*
X17150292Y-13261246D01*
X17150292Y-13261246D02*
X17159816Y-13242198D01*
X17159816Y-13242198D02*
X17169340Y-13232674D01*
X17169340Y-13232674D02*
X17188387Y-13223150D01*
X17188387Y-13223150D02*
X17216959Y-13223150D01*
X17216959Y-13223150D02*
X17236007Y-13232674D01*
X17236007Y-13232674D02*
X17245530Y-13242198D01*
X17245530Y-13242198D02*
X17255054Y-13261246D01*
X17255054Y-13261246D02*
X17255054Y-13318388D01*
X17255054Y-13318388D02*
X17245530Y-13337436D01*
X17245530Y-13337436D02*
X17236007Y-13346960D01*
X17236007Y-13346960D02*
X17216959Y-13356484D01*
X17216959Y-13356484D02*
X17188387Y-13356484D01*
X17369340Y-13356484D02*
X17350292Y-13346960D01*
X17350292Y-13346960D02*
X17340768Y-13327912D01*
X17340768Y-13327912D02*
X17340768Y-13156484D01*
X17521721Y-13346960D02*
X17502673Y-13356484D01*
X17502673Y-13356484D02*
X17464578Y-13356484D01*
X17464578Y-13356484D02*
X17445530Y-13346960D01*
X17445530Y-13346960D02*
X17436007Y-13327912D01*
X17436007Y-13327912D02*
X17436007Y-13251722D01*
X17436007Y-13251722D02*
X17445530Y-13232674D01*
X17445530Y-13232674D02*
X17464578Y-13223150D01*
X17464578Y-13223150D02*
X17502673Y-13223150D01*
X17502673Y-13223150D02*
X17521721Y-13232674D01*
X17521721Y-13232674D02*
X17531245Y-13251722D01*
X17531245Y-13251722D02*
X17531245Y-13270769D01*
X17531245Y-13270769D02*
X17436007Y-13289817D01*
X17607435Y-13346960D02*
X17626483Y-13356484D01*
X17626483Y-13356484D02*
X17664578Y-13356484D01*
X17664578Y-13356484D02*
X17683626Y-13346960D01*
X17683626Y-13346960D02*
X17693149Y-13327912D01*
X17693149Y-13327912D02*
X17693149Y-13318388D01*
X17693149Y-13318388D02*
X17683626Y-13299341D01*
X17683626Y-13299341D02*
X17664578Y-13289817D01*
X17664578Y-13289817D02*
X17636007Y-13289817D01*
X17636007Y-13289817D02*
X17616959Y-13280293D01*
X17616959Y-13280293D02*
X17607435Y-13261246D01*
X17607435Y-13261246D02*
X17607435Y-13251722D01*
X17607435Y-13251722D02*
X17616959Y-13232674D01*
X17616959Y-13232674D02*
X17636007Y-13223150D01*
X17636007Y-13223150D02*
X17664578Y-13223150D01*
X17664578Y-13223150D02*
X17683626Y-13232674D01*
X17759816Y-13432674D02*
X17769340Y-13423150D01*
X17769340Y-13423150D02*
X17788388Y-13394579D01*
X17788388Y-13394579D02*
X17797911Y-13375531D01*
X17797911Y-13375531D02*
X17807435Y-13346960D01*
X17807435Y-13346960D02*
X17816959Y-13299341D01*
X17816959Y-13299341D02*
X17816959Y-13261246D01*
X17816959Y-13261246D02*
X17807435Y-13213627D01*
X17807435Y-13213627D02*
X17797911Y-13185055D01*
X17797911Y-13185055D02*
X17788388Y-13166008D01*
X17788388Y-13166008D02*
X17769340Y-13137436D01*
X17769340Y-13137436D02*
X17759816Y-13127912D01*
D12*
X12674277Y-13469000D02*
X12794277Y-13589000D01*
X12794277Y-13469000D02*
X12674277Y-13589000D01*
X12734277Y-13469000D02*
X12734277Y-13589000D01*
X12674277Y-13529000D02*
X12794277Y-13529000D01*
D11*
X13159816Y-13620484D02*
X13045530Y-13620484D01*
X13102673Y-13620484D02*
X13102673Y-13420484D01*
X13102673Y-13420484D02*
X13083625Y-13449055D01*
X13083625Y-13449055D02*
X13064577Y-13468103D01*
X13064577Y-13468103D02*
X13045530Y-13477627D01*
X13245530Y-13601436D02*
X13255054Y-13610960D01*
X13255054Y-13610960D02*
X13245530Y-13620484D01*
X13245530Y-13620484D02*
X13236006Y-13610960D01*
X13236006Y-13610960D02*
X13245530Y-13601436D01*
X13245530Y-13601436D02*
X13245530Y-13620484D01*
X13331244Y-13439531D02*
X13340768Y-13430008D01*
X13340768Y-13430008D02*
X13359816Y-13420484D01*
X13359816Y-13420484D02*
X13407435Y-13420484D01*
X13407435Y-13420484D02*
X13426482Y-13430008D01*
X13426482Y-13430008D02*
X13436006Y-13439531D01*
X13436006Y-13439531D02*
X13445530Y-13458579D01*
X13445530Y-13458579D02*
X13445530Y-13477627D01*
X13445530Y-13477627D02*
X13436006Y-13506198D01*
X13436006Y-13506198D02*
X13321720Y-13620484D01*
X13321720Y-13620484D02*
X13445530Y-13620484D01*
X13569339Y-13420484D02*
X13588387Y-13420484D01*
X13588387Y-13420484D02*
X13607435Y-13430008D01*
X13607435Y-13430008D02*
X13616958Y-13439531D01*
X13616958Y-13439531D02*
X13626482Y-13458579D01*
X13626482Y-13458579D02*
X13636006Y-13496674D01*
X13636006Y-13496674D02*
X13636006Y-13544293D01*
X13636006Y-13544293D02*
X13626482Y-13582388D01*
X13626482Y-13582388D02*
X13616958Y-13601436D01*
X13616958Y-13601436D02*
X13607435Y-13610960D01*
X13607435Y-13610960D02*
X13588387Y-13620484D01*
X13588387Y-13620484D02*
X13569339Y-13620484D01*
X13569339Y-13620484D02*
X13550292Y-13610960D01*
X13550292Y-13610960D02*
X13540768Y-13601436D01*
X13540768Y-13601436D02*
X13531244Y-13582388D01*
X13531244Y-13582388D02*
X13521720Y-13544293D01*
X13521720Y-13544293D02*
X13521720Y-13496674D01*
X13521720Y-13496674D02*
X13531244Y-13458579D01*
X13531244Y-13458579D02*
X13540768Y-13439531D01*
X13540768Y-13439531D02*
X13550292Y-13430008D01*
X13550292Y-13430008D02*
X13569339Y-13420484D01*
X13759816Y-13420484D02*
X13778863Y-13420484D01*
X13778863Y-13420484D02*
X13797911Y-13430008D01*
X13797911Y-13430008D02*
X13807435Y-13439531D01*
X13807435Y-13439531D02*
X13816958Y-13458579D01*
X13816958Y-13458579D02*
X13826482Y-13496674D01*
X13826482Y-13496674D02*
X13826482Y-13544293D01*
X13826482Y-13544293D02*
X13816958Y-13582388D01*
X13816958Y-13582388D02*
X13807435Y-13601436D01*
X13807435Y-13601436D02*
X13797911Y-13610960D01*
X13797911Y-13610960D02*
X13778863Y-13620484D01*
X13778863Y-13620484D02*
X13759816Y-13620484D01*
X13759816Y-13620484D02*
X13740768Y-13610960D01*
X13740768Y-13610960D02*
X13731244Y-13601436D01*
X13731244Y-13601436D02*
X13721720Y-13582388D01*
X13721720Y-13582388D02*
X13712197Y-13544293D01*
X13712197Y-13544293D02*
X13712197Y-13496674D01*
X13712197Y-13496674D02*
X13721720Y-13458579D01*
X13721720Y-13458579D02*
X13731244Y-13439531D01*
X13731244Y-13439531D02*
X13740768Y-13430008D01*
X13740768Y-13430008D02*
X13759816Y-13420484D01*
X13912197Y-13620484D02*
X13912197Y-13487150D01*
X13912197Y-13506198D02*
X13921720Y-13496674D01*
X13921720Y-13496674D02*
X13940768Y-13487150D01*
X13940768Y-13487150D02*
X13969339Y-13487150D01*
X13969339Y-13487150D02*
X13988387Y-13496674D01*
X13988387Y-13496674D02*
X13997911Y-13515722D01*
X13997911Y-13515722D02*
X13997911Y-13620484D01*
X13997911Y-13515722D02*
X14007435Y-13496674D01*
X14007435Y-13496674D02*
X14026482Y-13487150D01*
X14026482Y-13487150D02*
X14055054Y-13487150D01*
X14055054Y-13487150D02*
X14074101Y-13496674D01*
X14074101Y-13496674D02*
X14083625Y-13515722D01*
X14083625Y-13515722D02*
X14083625Y-13620484D01*
X14178863Y-13620484D02*
X14178863Y-13487150D01*
X14178863Y-13506198D02*
X14188387Y-13496674D01*
X14188387Y-13496674D02*
X14207435Y-13487150D01*
X14207435Y-13487150D02*
X14236006Y-13487150D01*
X14236006Y-13487150D02*
X14255054Y-13496674D01*
X14255054Y-13496674D02*
X14264578Y-13515722D01*
X14264578Y-13515722D02*
X14264578Y-13620484D01*
X14264578Y-13515722D02*
X14274101Y-13496674D01*
X14274101Y-13496674D02*
X14293149Y-13487150D01*
X14293149Y-13487150D02*
X14321720Y-13487150D01*
X14321720Y-13487150D02*
X14340768Y-13496674D01*
X14340768Y-13496674D02*
X14350292Y-13515722D01*
X14350292Y-13515722D02*
X14350292Y-13620484D01*
X14740768Y-13410960D02*
X14569340Y-13668103D01*
X14997911Y-13420484D02*
X15016959Y-13420484D01*
X15016959Y-13420484D02*
X15036006Y-13430008D01*
X15036006Y-13430008D02*
X15045530Y-13439531D01*
X15045530Y-13439531D02*
X15055054Y-13458579D01*
X15055054Y-13458579D02*
X15064578Y-13496674D01*
X15064578Y-13496674D02*
X15064578Y-13544293D01*
X15064578Y-13544293D02*
X15055054Y-13582388D01*
X15055054Y-13582388D02*
X15045530Y-13601436D01*
X15045530Y-13601436D02*
X15036006Y-13610960D01*
X15036006Y-13610960D02*
X15016959Y-13620484D01*
X15016959Y-13620484D02*
X14997911Y-13620484D01*
X14997911Y-13620484D02*
X14978863Y-13610960D01*
X14978863Y-13610960D02*
X14969340Y-13601436D01*
X14969340Y-13601436D02*
X14959816Y-13582388D01*
X14959816Y-13582388D02*
X14950292Y-13544293D01*
X14950292Y-13544293D02*
X14950292Y-13496674D01*
X14950292Y-13496674D02*
X14959816Y-13458579D01*
X14959816Y-13458579D02*
X14969340Y-13439531D01*
X14969340Y-13439531D02*
X14978863Y-13430008D01*
X14978863Y-13430008D02*
X14997911Y-13420484D01*
X15150292Y-13601436D02*
X15159816Y-13610960D01*
X15159816Y-13610960D02*
X15150292Y-13620484D01*
X15150292Y-13620484D02*
X15140768Y-13610960D01*
X15140768Y-13610960D02*
X15150292Y-13601436D01*
X15150292Y-13601436D02*
X15150292Y-13620484D01*
X15283625Y-13420484D02*
X15302673Y-13420484D01*
X15302673Y-13420484D02*
X15321721Y-13430008D01*
X15321721Y-13430008D02*
X15331244Y-13439531D01*
X15331244Y-13439531D02*
X15340768Y-13458579D01*
X15340768Y-13458579D02*
X15350292Y-13496674D01*
X15350292Y-13496674D02*
X15350292Y-13544293D01*
X15350292Y-13544293D02*
X15340768Y-13582388D01*
X15340768Y-13582388D02*
X15331244Y-13601436D01*
X15331244Y-13601436D02*
X15321721Y-13610960D01*
X15321721Y-13610960D02*
X15302673Y-13620484D01*
X15302673Y-13620484D02*
X15283625Y-13620484D01*
X15283625Y-13620484D02*
X15264578Y-13610960D01*
X15264578Y-13610960D02*
X15255054Y-13601436D01*
X15255054Y-13601436D02*
X15245530Y-13582388D01*
X15245530Y-13582388D02*
X15236006Y-13544293D01*
X15236006Y-13544293D02*
X15236006Y-13496674D01*
X15236006Y-13496674D02*
X15245530Y-13458579D01*
X15245530Y-13458579D02*
X15255054Y-13439531D01*
X15255054Y-13439531D02*
X15264578Y-13430008D01*
X15264578Y-13430008D02*
X15283625Y-13420484D01*
X15521721Y-13487150D02*
X15521721Y-13620484D01*
X15474101Y-13410960D02*
X15426482Y-13553817D01*
X15426482Y-13553817D02*
X15550292Y-13553817D01*
X15607435Y-13420484D02*
X15740768Y-13420484D01*
X15740768Y-13420484D02*
X15655054Y-13620484D01*
X15807435Y-13439531D02*
X15816959Y-13430008D01*
X15816959Y-13430008D02*
X15836006Y-13420484D01*
X15836006Y-13420484D02*
X15883625Y-13420484D01*
X15883625Y-13420484D02*
X15902673Y-13430008D01*
X15902673Y-13430008D02*
X15912197Y-13439531D01*
X15912197Y-13439531D02*
X15921721Y-13458579D01*
X15921721Y-13458579D02*
X15921721Y-13477627D01*
X15921721Y-13477627D02*
X15912197Y-13506198D01*
X15912197Y-13506198D02*
X15797911Y-13620484D01*
X15797911Y-13620484D02*
X15921721Y-13620484D01*
X15997911Y-13420484D02*
X15997911Y-13458579D01*
X16074102Y-13420484D02*
X16074102Y-13458579D01*
X16369340Y-13696674D02*
X16359816Y-13687150D01*
X16359816Y-13687150D02*
X16340768Y-13658579D01*
X16340768Y-13658579D02*
X16331244Y-13639531D01*
X16331244Y-13639531D02*
X16321721Y-13610960D01*
X16321721Y-13610960D02*
X16312197Y-13563341D01*
X16312197Y-13563341D02*
X16312197Y-13525246D01*
X16312197Y-13525246D02*
X16321721Y-13477627D01*
X16321721Y-13477627D02*
X16331244Y-13449055D01*
X16331244Y-13449055D02*
X16340768Y-13430008D01*
X16340768Y-13430008D02*
X16359816Y-13401436D01*
X16359816Y-13401436D02*
X16369340Y-13391912D01*
X16426483Y-13420484D02*
X16550292Y-13420484D01*
X16550292Y-13420484D02*
X16483625Y-13496674D01*
X16483625Y-13496674D02*
X16512197Y-13496674D01*
X16512197Y-13496674D02*
X16531244Y-13506198D01*
X16531244Y-13506198D02*
X16540768Y-13515722D01*
X16540768Y-13515722D02*
X16550292Y-13534769D01*
X16550292Y-13534769D02*
X16550292Y-13582388D01*
X16550292Y-13582388D02*
X16540768Y-13601436D01*
X16540768Y-13601436D02*
X16531244Y-13610960D01*
X16531244Y-13610960D02*
X16512197Y-13620484D01*
X16512197Y-13620484D02*
X16455054Y-13620484D01*
X16455054Y-13620484D02*
X16436006Y-13610960D01*
X16436006Y-13610960D02*
X16426483Y-13601436D01*
X16788387Y-13620484D02*
X16788387Y-13420484D01*
X16874102Y-13620484D02*
X16874102Y-13515722D01*
X16874102Y-13515722D02*
X16864578Y-13496674D01*
X16864578Y-13496674D02*
X16845530Y-13487150D01*
X16845530Y-13487150D02*
X16816959Y-13487150D01*
X16816959Y-13487150D02*
X16797911Y-13496674D01*
X16797911Y-13496674D02*
X16788387Y-13506198D01*
X16997911Y-13620484D02*
X16978864Y-13610960D01*
X16978864Y-13610960D02*
X16969340Y-13601436D01*
X16969340Y-13601436D02*
X16959816Y-13582388D01*
X16959816Y-13582388D02*
X16959816Y-13525246D01*
X16959816Y-13525246D02*
X16969340Y-13506198D01*
X16969340Y-13506198D02*
X16978864Y-13496674D01*
X16978864Y-13496674D02*
X16997911Y-13487150D01*
X16997911Y-13487150D02*
X17026483Y-13487150D01*
X17026483Y-13487150D02*
X17045530Y-13496674D01*
X17045530Y-13496674D02*
X17055054Y-13506198D01*
X17055054Y-13506198D02*
X17064578Y-13525246D01*
X17064578Y-13525246D02*
X17064578Y-13582388D01*
X17064578Y-13582388D02*
X17055054Y-13601436D01*
X17055054Y-13601436D02*
X17045530Y-13610960D01*
X17045530Y-13610960D02*
X17026483Y-13620484D01*
X17026483Y-13620484D02*
X16997911Y-13620484D01*
X17178864Y-13620484D02*
X17159816Y-13610960D01*
X17159816Y-13610960D02*
X17150292Y-13591912D01*
X17150292Y-13591912D02*
X17150292Y-13420484D01*
X17331245Y-13610960D02*
X17312197Y-13620484D01*
X17312197Y-13620484D02*
X17274102Y-13620484D01*
X17274102Y-13620484D02*
X17255054Y-13610960D01*
X17255054Y-13610960D02*
X17245530Y-13591912D01*
X17245530Y-13591912D02*
X17245530Y-13515722D01*
X17245530Y-13515722D02*
X17255054Y-13496674D01*
X17255054Y-13496674D02*
X17274102Y-13487150D01*
X17274102Y-13487150D02*
X17312197Y-13487150D01*
X17312197Y-13487150D02*
X17331245Y-13496674D01*
X17331245Y-13496674D02*
X17340768Y-13515722D01*
X17340768Y-13515722D02*
X17340768Y-13534769D01*
X17340768Y-13534769D02*
X17245530Y-13553817D01*
X17416959Y-13610960D02*
X17436007Y-13620484D01*
X17436007Y-13620484D02*
X17474102Y-13620484D01*
X17474102Y-13620484D02*
X17493149Y-13610960D01*
X17493149Y-13610960D02*
X17502673Y-13591912D01*
X17502673Y-13591912D02*
X17502673Y-13582388D01*
X17502673Y-13582388D02*
X17493149Y-13563341D01*
X17493149Y-13563341D02*
X17474102Y-13553817D01*
X17474102Y-13553817D02*
X17445530Y-13553817D01*
X17445530Y-13553817D02*
X17426483Y-13544293D01*
X17426483Y-13544293D02*
X17416959Y-13525246D01*
X17416959Y-13525246D02*
X17416959Y-13515722D01*
X17416959Y-13515722D02*
X17426483Y-13496674D01*
X17426483Y-13496674D02*
X17445530Y-13487150D01*
X17445530Y-13487150D02*
X17474102Y-13487150D01*
X17474102Y-13487150D02*
X17493149Y-13496674D01*
X17569340Y-13696674D02*
X17578864Y-13687150D01*
X17578864Y-13687150D02*
X17597911Y-13658579D01*
X17597911Y-13658579D02*
X17607435Y-13639531D01*
X17607435Y-13639531D02*
X17616959Y-13610960D01*
X17616959Y-13610960D02*
X17626483Y-13563341D01*
X17626483Y-13563341D02*
X17626483Y-13525246D01*
X17626483Y-13525246D02*
X17616959Y-13477627D01*
X17616959Y-13477627D02*
X17607435Y-13449055D01*
X17607435Y-13449055D02*
X17597911Y-13430008D01*
X17597911Y-13430008D02*
X17578864Y-13401436D01*
X17578864Y-13401436D02*
X17569340Y-13391912D01*
M02*
