%TF.GenerationSoftware,KiCad,Pcbnew,8.0.1*%
%TF.CreationDate,2024-07-17T16:46:41-04:00*%
%TF.ProjectId,Tiny4FSK,54696e79-3446-4534-9b2e-6b696361645f,rev?*%
%TF.SameCoordinates,Original*%
%TF.FileFunction,Drillmap*%
%TF.FilePolarity,Positive*%
%FSLAX45Y45*%
G04 Gerber Fmt 4.5, Leading zero omitted, Abs format (unit mm)*
G04 Created by KiCad (PCBNEW 8.0.1) date 2024-07-17 16:46:41*
%MOMM*%
%LPD*%
G01*
G04 APERTURE LIST*
%ADD10C,0.100000*%
%ADD11C,0.200000*%
%ADD12C,0.220000*%
G04 APERTURE END LIST*
D10*
X15875000Y-8125000D02*
X16075000Y-8125000D01*
X16075000Y-8425000D01*
X15875000Y-8425000D01*
X15875000Y-8125000D01*
X15875000Y-7725000D02*
X16075000Y-7725000D01*
X16075000Y-8025000D01*
X15875000Y-8025000D01*
X15875000Y-7725000D01*
X15875000Y-4825000D02*
X16075000Y-4825000D01*
X16075000Y-7475000D01*
X15875000Y-7475000D01*
X15875000Y-4825000D01*
X15875000Y-8550000D02*
X16075000Y-8550000D01*
X16075000Y-9800000D01*
X15875000Y-9800000D01*
X15875000Y-8550000D01*
X15874984Y-10017287D02*
X16074984Y-10017287D01*
X16074984Y-10767287D01*
X15874984Y-10767287D01*
X15874984Y-10017287D01*
X15975000Y-4800000D02*
X16025000Y-4800000D01*
X16425000Y-4800000D01*
X16424871Y-10792910D01*
X14525000Y-10793136D01*
X14525000Y-10900000D01*
X14525000Y-11300000D01*
X14025000Y-11300000D01*
X14025000Y-10825000D01*
X12800000Y-10825000D01*
X12799277Y-8581426D01*
X14024277Y-8581426D01*
X14025000Y-4375000D01*
X15975000Y-4375000D01*
X15975000Y-4800000D01*
D11*
D10*
X13071178Y-10083014D02*
X13136178Y-10148014D01*
X13136178Y-10083014D02*
X13071178Y-10148014D01*
X13649178Y-10083014D02*
X13714178Y-10148014D01*
X13714178Y-10083014D02*
X13649178Y-10148014D01*
X14263922Y-6825008D02*
G75*
G02*
X14173922Y-6825008I-45000J0D01*
G01*
X14173922Y-6825008D02*
G75*
G02*
X14263922Y-6825008I45000J0D01*
G01*
X14263922Y-7125008D02*
G75*
G02*
X14173922Y-7125008I-45000J0D01*
G01*
X14173922Y-7125008D02*
G75*
G02*
X14263922Y-7125008I45000J0D01*
G01*
D12*
X12200000Y-5695000D02*
X12200000Y-5915000D01*
X12090000Y-5805000D02*
X12310000Y-5805000D01*
X14175000Y-4415000D02*
X14175000Y-4635000D01*
X14065000Y-4525000D02*
X14285000Y-4525000D01*
X14274030Y-10947656D02*
X14274030Y-11167656D01*
X14164030Y-11057656D02*
X14384030Y-11057656D01*
X15825000Y-4450000D02*
X15825000Y-4670000D01*
X15715000Y-4560000D02*
X15935000Y-4560000D01*
D11*
X13055054Y-11616484D02*
X13055054Y-11416484D01*
X13055054Y-11416484D02*
X13102673Y-11416484D01*
X13102673Y-11416484D02*
X13131244Y-11426008D01*
X13131244Y-11426008D02*
X13150292Y-11445055D01*
X13150292Y-11445055D02*
X13159816Y-11464103D01*
X13159816Y-11464103D02*
X13169339Y-11502198D01*
X13169339Y-11502198D02*
X13169339Y-11530769D01*
X13169339Y-11530769D02*
X13159816Y-11568865D01*
X13159816Y-11568865D02*
X13150292Y-11587912D01*
X13150292Y-11587912D02*
X13131244Y-11606960D01*
X13131244Y-11606960D02*
X13102673Y-11616484D01*
X13102673Y-11616484D02*
X13055054Y-11616484D01*
X13255054Y-11616484D02*
X13255054Y-11483150D01*
X13255054Y-11521246D02*
X13264577Y-11502198D01*
X13264577Y-11502198D02*
X13274101Y-11492674D01*
X13274101Y-11492674D02*
X13293149Y-11483150D01*
X13293149Y-11483150D02*
X13312197Y-11483150D01*
X13378863Y-11616484D02*
X13378863Y-11483150D01*
X13378863Y-11416484D02*
X13369339Y-11426008D01*
X13369339Y-11426008D02*
X13378863Y-11435531D01*
X13378863Y-11435531D02*
X13388387Y-11426008D01*
X13388387Y-11426008D02*
X13378863Y-11416484D01*
X13378863Y-11416484D02*
X13378863Y-11435531D01*
X13502673Y-11616484D02*
X13483625Y-11606960D01*
X13483625Y-11606960D02*
X13474101Y-11587912D01*
X13474101Y-11587912D02*
X13474101Y-11416484D01*
X13607435Y-11616484D02*
X13588387Y-11606960D01*
X13588387Y-11606960D02*
X13578863Y-11587912D01*
X13578863Y-11587912D02*
X13578863Y-11416484D01*
X13836006Y-11616484D02*
X13836006Y-11416484D01*
X13836006Y-11416484D02*
X13902673Y-11559341D01*
X13902673Y-11559341D02*
X13969339Y-11416484D01*
X13969339Y-11416484D02*
X13969339Y-11616484D01*
X14150292Y-11616484D02*
X14150292Y-11511722D01*
X14150292Y-11511722D02*
X14140768Y-11492674D01*
X14140768Y-11492674D02*
X14121720Y-11483150D01*
X14121720Y-11483150D02*
X14083625Y-11483150D01*
X14083625Y-11483150D02*
X14064577Y-11492674D01*
X14150292Y-11606960D02*
X14131244Y-11616484D01*
X14131244Y-11616484D02*
X14083625Y-11616484D01*
X14083625Y-11616484D02*
X14064577Y-11606960D01*
X14064577Y-11606960D02*
X14055054Y-11587912D01*
X14055054Y-11587912D02*
X14055054Y-11568865D01*
X14055054Y-11568865D02*
X14064577Y-11549817D01*
X14064577Y-11549817D02*
X14083625Y-11540293D01*
X14083625Y-11540293D02*
X14131244Y-11540293D01*
X14131244Y-11540293D02*
X14150292Y-11530769D01*
X14245530Y-11483150D02*
X14245530Y-11683150D01*
X14245530Y-11492674D02*
X14264577Y-11483150D01*
X14264577Y-11483150D02*
X14302673Y-11483150D01*
X14302673Y-11483150D02*
X14321720Y-11492674D01*
X14321720Y-11492674D02*
X14331244Y-11502198D01*
X14331244Y-11502198D02*
X14340768Y-11521246D01*
X14340768Y-11521246D02*
X14340768Y-11578388D01*
X14340768Y-11578388D02*
X14331244Y-11597436D01*
X14331244Y-11597436D02*
X14321720Y-11606960D01*
X14321720Y-11606960D02*
X14302673Y-11616484D01*
X14302673Y-11616484D02*
X14264577Y-11616484D01*
X14264577Y-11616484D02*
X14245530Y-11606960D01*
X14426482Y-11597436D02*
X14436006Y-11606960D01*
X14436006Y-11606960D02*
X14426482Y-11616484D01*
X14426482Y-11616484D02*
X14416958Y-11606960D01*
X14416958Y-11606960D02*
X14426482Y-11597436D01*
X14426482Y-11597436D02*
X14426482Y-11616484D01*
X14426482Y-11492674D02*
X14436006Y-11502198D01*
X14436006Y-11502198D02*
X14426482Y-11511722D01*
X14426482Y-11511722D02*
X14416958Y-11502198D01*
X14416958Y-11502198D02*
X14426482Y-11492674D01*
X14426482Y-11492674D02*
X14426482Y-11511722D01*
D10*
X12729277Y-11912500D02*
X12794277Y-11977500D01*
X12794277Y-11912500D02*
X12729277Y-11977500D01*
D11*
X13093149Y-11836484D02*
X13112197Y-11836484D01*
X13112197Y-11836484D02*
X13131244Y-11846008D01*
X13131244Y-11846008D02*
X13140768Y-11855531D01*
X13140768Y-11855531D02*
X13150292Y-11874579D01*
X13150292Y-11874579D02*
X13159816Y-11912674D01*
X13159816Y-11912674D02*
X13159816Y-11960293D01*
X13159816Y-11960293D02*
X13150292Y-11998388D01*
X13150292Y-11998388D02*
X13140768Y-12017436D01*
X13140768Y-12017436D02*
X13131244Y-12026960D01*
X13131244Y-12026960D02*
X13112197Y-12036484D01*
X13112197Y-12036484D02*
X13093149Y-12036484D01*
X13093149Y-12036484D02*
X13074101Y-12026960D01*
X13074101Y-12026960D02*
X13064577Y-12017436D01*
X13064577Y-12017436D02*
X13055054Y-11998388D01*
X13055054Y-11998388D02*
X13045530Y-11960293D01*
X13045530Y-11960293D02*
X13045530Y-11912674D01*
X13045530Y-11912674D02*
X13055054Y-11874579D01*
X13055054Y-11874579D02*
X13064577Y-11855531D01*
X13064577Y-11855531D02*
X13074101Y-11846008D01*
X13074101Y-11846008D02*
X13093149Y-11836484D01*
X13245530Y-12017436D02*
X13255054Y-12026960D01*
X13255054Y-12026960D02*
X13245530Y-12036484D01*
X13245530Y-12036484D02*
X13236006Y-12026960D01*
X13236006Y-12026960D02*
X13245530Y-12017436D01*
X13245530Y-12017436D02*
X13245530Y-12036484D01*
X13426482Y-11836484D02*
X13388387Y-11836484D01*
X13388387Y-11836484D02*
X13369339Y-11846008D01*
X13369339Y-11846008D02*
X13359816Y-11855531D01*
X13359816Y-11855531D02*
X13340768Y-11884103D01*
X13340768Y-11884103D02*
X13331244Y-11922198D01*
X13331244Y-11922198D02*
X13331244Y-11998388D01*
X13331244Y-11998388D02*
X13340768Y-12017436D01*
X13340768Y-12017436D02*
X13350292Y-12026960D01*
X13350292Y-12026960D02*
X13369339Y-12036484D01*
X13369339Y-12036484D02*
X13407435Y-12036484D01*
X13407435Y-12036484D02*
X13426482Y-12026960D01*
X13426482Y-12026960D02*
X13436006Y-12017436D01*
X13436006Y-12017436D02*
X13445530Y-11998388D01*
X13445530Y-11998388D02*
X13445530Y-11950769D01*
X13445530Y-11950769D02*
X13436006Y-11931722D01*
X13436006Y-11931722D02*
X13426482Y-11922198D01*
X13426482Y-11922198D02*
X13407435Y-11912674D01*
X13407435Y-11912674D02*
X13369339Y-11912674D01*
X13369339Y-11912674D02*
X13350292Y-11922198D01*
X13350292Y-11922198D02*
X13340768Y-11931722D01*
X13340768Y-11931722D02*
X13331244Y-11950769D01*
X13626482Y-11836484D02*
X13531244Y-11836484D01*
X13531244Y-11836484D02*
X13521720Y-11931722D01*
X13521720Y-11931722D02*
X13531244Y-11922198D01*
X13531244Y-11922198D02*
X13550292Y-11912674D01*
X13550292Y-11912674D02*
X13597911Y-11912674D01*
X13597911Y-11912674D02*
X13616958Y-11922198D01*
X13616958Y-11922198D02*
X13626482Y-11931722D01*
X13626482Y-11931722D02*
X13636006Y-11950769D01*
X13636006Y-11950769D02*
X13636006Y-11998388D01*
X13636006Y-11998388D02*
X13626482Y-12017436D01*
X13626482Y-12017436D02*
X13616958Y-12026960D01*
X13616958Y-12026960D02*
X13597911Y-12036484D01*
X13597911Y-12036484D02*
X13550292Y-12036484D01*
X13550292Y-12036484D02*
X13531244Y-12026960D01*
X13531244Y-12026960D02*
X13521720Y-12017436D01*
X13759816Y-11836484D02*
X13778863Y-11836484D01*
X13778863Y-11836484D02*
X13797911Y-11846008D01*
X13797911Y-11846008D02*
X13807435Y-11855531D01*
X13807435Y-11855531D02*
X13816958Y-11874579D01*
X13816958Y-11874579D02*
X13826482Y-11912674D01*
X13826482Y-11912674D02*
X13826482Y-11960293D01*
X13826482Y-11960293D02*
X13816958Y-11998388D01*
X13816958Y-11998388D02*
X13807435Y-12017436D01*
X13807435Y-12017436D02*
X13797911Y-12026960D01*
X13797911Y-12026960D02*
X13778863Y-12036484D01*
X13778863Y-12036484D02*
X13759816Y-12036484D01*
X13759816Y-12036484D02*
X13740768Y-12026960D01*
X13740768Y-12026960D02*
X13731244Y-12017436D01*
X13731244Y-12017436D02*
X13721720Y-11998388D01*
X13721720Y-11998388D02*
X13712197Y-11960293D01*
X13712197Y-11960293D02*
X13712197Y-11912674D01*
X13712197Y-11912674D02*
X13721720Y-11874579D01*
X13721720Y-11874579D02*
X13731244Y-11855531D01*
X13731244Y-11855531D02*
X13740768Y-11846008D01*
X13740768Y-11846008D02*
X13759816Y-11836484D01*
X13912197Y-12036484D02*
X13912197Y-11903150D01*
X13912197Y-11922198D02*
X13921720Y-11912674D01*
X13921720Y-11912674D02*
X13940768Y-11903150D01*
X13940768Y-11903150D02*
X13969339Y-11903150D01*
X13969339Y-11903150D02*
X13988387Y-11912674D01*
X13988387Y-11912674D02*
X13997911Y-11931722D01*
X13997911Y-11931722D02*
X13997911Y-12036484D01*
X13997911Y-11931722D02*
X14007435Y-11912674D01*
X14007435Y-11912674D02*
X14026482Y-11903150D01*
X14026482Y-11903150D02*
X14055054Y-11903150D01*
X14055054Y-11903150D02*
X14074101Y-11912674D01*
X14074101Y-11912674D02*
X14083625Y-11931722D01*
X14083625Y-11931722D02*
X14083625Y-12036484D01*
X14178863Y-12036484D02*
X14178863Y-11903150D01*
X14178863Y-11922198D02*
X14188387Y-11912674D01*
X14188387Y-11912674D02*
X14207435Y-11903150D01*
X14207435Y-11903150D02*
X14236006Y-11903150D01*
X14236006Y-11903150D02*
X14255054Y-11912674D01*
X14255054Y-11912674D02*
X14264578Y-11931722D01*
X14264578Y-11931722D02*
X14264578Y-12036484D01*
X14264578Y-11931722D02*
X14274101Y-11912674D01*
X14274101Y-11912674D02*
X14293149Y-11903150D01*
X14293149Y-11903150D02*
X14321720Y-11903150D01*
X14321720Y-11903150D02*
X14340768Y-11912674D01*
X14340768Y-11912674D02*
X14350292Y-11931722D01*
X14350292Y-11931722D02*
X14350292Y-12036484D01*
X14740768Y-11826960D02*
X14569340Y-12084103D01*
X14997911Y-11836484D02*
X15016959Y-11836484D01*
X15016959Y-11836484D02*
X15036006Y-11846008D01*
X15036006Y-11846008D02*
X15045530Y-11855531D01*
X15045530Y-11855531D02*
X15055054Y-11874579D01*
X15055054Y-11874579D02*
X15064578Y-11912674D01*
X15064578Y-11912674D02*
X15064578Y-11960293D01*
X15064578Y-11960293D02*
X15055054Y-11998388D01*
X15055054Y-11998388D02*
X15045530Y-12017436D01*
X15045530Y-12017436D02*
X15036006Y-12026960D01*
X15036006Y-12026960D02*
X15016959Y-12036484D01*
X15016959Y-12036484D02*
X14997911Y-12036484D01*
X14997911Y-12036484D02*
X14978863Y-12026960D01*
X14978863Y-12026960D02*
X14969340Y-12017436D01*
X14969340Y-12017436D02*
X14959816Y-11998388D01*
X14959816Y-11998388D02*
X14950292Y-11960293D01*
X14950292Y-11960293D02*
X14950292Y-11912674D01*
X14950292Y-11912674D02*
X14959816Y-11874579D01*
X14959816Y-11874579D02*
X14969340Y-11855531D01*
X14969340Y-11855531D02*
X14978863Y-11846008D01*
X14978863Y-11846008D02*
X14997911Y-11836484D01*
X15150292Y-12017436D02*
X15159816Y-12026960D01*
X15159816Y-12026960D02*
X15150292Y-12036484D01*
X15150292Y-12036484D02*
X15140768Y-12026960D01*
X15140768Y-12026960D02*
X15150292Y-12017436D01*
X15150292Y-12017436D02*
X15150292Y-12036484D01*
X15283625Y-11836484D02*
X15302673Y-11836484D01*
X15302673Y-11836484D02*
X15321721Y-11846008D01*
X15321721Y-11846008D02*
X15331244Y-11855531D01*
X15331244Y-11855531D02*
X15340768Y-11874579D01*
X15340768Y-11874579D02*
X15350292Y-11912674D01*
X15350292Y-11912674D02*
X15350292Y-11960293D01*
X15350292Y-11960293D02*
X15340768Y-11998388D01*
X15340768Y-11998388D02*
X15331244Y-12017436D01*
X15331244Y-12017436D02*
X15321721Y-12026960D01*
X15321721Y-12026960D02*
X15302673Y-12036484D01*
X15302673Y-12036484D02*
X15283625Y-12036484D01*
X15283625Y-12036484D02*
X15264578Y-12026960D01*
X15264578Y-12026960D02*
X15255054Y-12017436D01*
X15255054Y-12017436D02*
X15245530Y-11998388D01*
X15245530Y-11998388D02*
X15236006Y-11960293D01*
X15236006Y-11960293D02*
X15236006Y-11912674D01*
X15236006Y-11912674D02*
X15245530Y-11874579D01*
X15245530Y-11874579D02*
X15255054Y-11855531D01*
X15255054Y-11855531D02*
X15264578Y-11846008D01*
X15264578Y-11846008D02*
X15283625Y-11836484D01*
X15426482Y-11855531D02*
X15436006Y-11846008D01*
X15436006Y-11846008D02*
X15455054Y-11836484D01*
X15455054Y-11836484D02*
X15502673Y-11836484D01*
X15502673Y-11836484D02*
X15521721Y-11846008D01*
X15521721Y-11846008D02*
X15531244Y-11855531D01*
X15531244Y-11855531D02*
X15540768Y-11874579D01*
X15540768Y-11874579D02*
X15540768Y-11893627D01*
X15540768Y-11893627D02*
X15531244Y-11922198D01*
X15531244Y-11922198D02*
X15416959Y-12036484D01*
X15416959Y-12036484D02*
X15540768Y-12036484D01*
X15721721Y-11836484D02*
X15626482Y-11836484D01*
X15626482Y-11836484D02*
X15616959Y-11931722D01*
X15616959Y-11931722D02*
X15626482Y-11922198D01*
X15626482Y-11922198D02*
X15645530Y-11912674D01*
X15645530Y-11912674D02*
X15693149Y-11912674D01*
X15693149Y-11912674D02*
X15712197Y-11922198D01*
X15712197Y-11922198D02*
X15721721Y-11931722D01*
X15721721Y-11931722D02*
X15731244Y-11950769D01*
X15731244Y-11950769D02*
X15731244Y-11998388D01*
X15731244Y-11998388D02*
X15721721Y-12017436D01*
X15721721Y-12017436D02*
X15712197Y-12026960D01*
X15712197Y-12026960D02*
X15693149Y-12036484D01*
X15693149Y-12036484D02*
X15645530Y-12036484D01*
X15645530Y-12036484D02*
X15626482Y-12026960D01*
X15626482Y-12026960D02*
X15616959Y-12017436D01*
X15902673Y-11836484D02*
X15864578Y-11836484D01*
X15864578Y-11836484D02*
X15845530Y-11846008D01*
X15845530Y-11846008D02*
X15836006Y-11855531D01*
X15836006Y-11855531D02*
X15816959Y-11884103D01*
X15816959Y-11884103D02*
X15807435Y-11922198D01*
X15807435Y-11922198D02*
X15807435Y-11998388D01*
X15807435Y-11998388D02*
X15816959Y-12017436D01*
X15816959Y-12017436D02*
X15826482Y-12026960D01*
X15826482Y-12026960D02*
X15845530Y-12036484D01*
X15845530Y-12036484D02*
X15883625Y-12036484D01*
X15883625Y-12036484D02*
X15902673Y-12026960D01*
X15902673Y-12026960D02*
X15912197Y-12017436D01*
X15912197Y-12017436D02*
X15921721Y-11998388D01*
X15921721Y-11998388D02*
X15921721Y-11950769D01*
X15921721Y-11950769D02*
X15912197Y-11931722D01*
X15912197Y-11931722D02*
X15902673Y-11922198D01*
X15902673Y-11922198D02*
X15883625Y-11912674D01*
X15883625Y-11912674D02*
X15845530Y-11912674D01*
X15845530Y-11912674D02*
X15826482Y-11922198D01*
X15826482Y-11922198D02*
X15816959Y-11931722D01*
X15816959Y-11931722D02*
X15807435Y-11950769D01*
X15997911Y-11836484D02*
X15997911Y-11874579D01*
X16074102Y-11836484D02*
X16074102Y-11874579D01*
X16369340Y-12112674D02*
X16359816Y-12103150D01*
X16359816Y-12103150D02*
X16340768Y-12074579D01*
X16340768Y-12074579D02*
X16331244Y-12055531D01*
X16331244Y-12055531D02*
X16321721Y-12026960D01*
X16321721Y-12026960D02*
X16312197Y-11979341D01*
X16312197Y-11979341D02*
X16312197Y-11941246D01*
X16312197Y-11941246D02*
X16321721Y-11893627D01*
X16321721Y-11893627D02*
X16331244Y-11865055D01*
X16331244Y-11865055D02*
X16340768Y-11846008D01*
X16340768Y-11846008D02*
X16359816Y-11817436D01*
X16359816Y-11817436D02*
X16369340Y-11807912D01*
X16436006Y-11855531D02*
X16445530Y-11846008D01*
X16445530Y-11846008D02*
X16464578Y-11836484D01*
X16464578Y-11836484D02*
X16512197Y-11836484D01*
X16512197Y-11836484D02*
X16531244Y-11846008D01*
X16531244Y-11846008D02*
X16540768Y-11855531D01*
X16540768Y-11855531D02*
X16550292Y-11874579D01*
X16550292Y-11874579D02*
X16550292Y-11893627D01*
X16550292Y-11893627D02*
X16540768Y-11922198D01*
X16540768Y-11922198D02*
X16426483Y-12036484D01*
X16426483Y-12036484D02*
X16550292Y-12036484D01*
X16788387Y-12036484D02*
X16788387Y-11836484D01*
X16874102Y-12036484D02*
X16874102Y-11931722D01*
X16874102Y-11931722D02*
X16864578Y-11912674D01*
X16864578Y-11912674D02*
X16845530Y-11903150D01*
X16845530Y-11903150D02*
X16816959Y-11903150D01*
X16816959Y-11903150D02*
X16797911Y-11912674D01*
X16797911Y-11912674D02*
X16788387Y-11922198D01*
X16997911Y-12036484D02*
X16978864Y-12026960D01*
X16978864Y-12026960D02*
X16969340Y-12017436D01*
X16969340Y-12017436D02*
X16959816Y-11998388D01*
X16959816Y-11998388D02*
X16959816Y-11941246D01*
X16959816Y-11941246D02*
X16969340Y-11922198D01*
X16969340Y-11922198D02*
X16978864Y-11912674D01*
X16978864Y-11912674D02*
X16997911Y-11903150D01*
X16997911Y-11903150D02*
X17026483Y-11903150D01*
X17026483Y-11903150D02*
X17045530Y-11912674D01*
X17045530Y-11912674D02*
X17055054Y-11922198D01*
X17055054Y-11922198D02*
X17064578Y-11941246D01*
X17064578Y-11941246D02*
X17064578Y-11998388D01*
X17064578Y-11998388D02*
X17055054Y-12017436D01*
X17055054Y-12017436D02*
X17045530Y-12026960D01*
X17045530Y-12026960D02*
X17026483Y-12036484D01*
X17026483Y-12036484D02*
X16997911Y-12036484D01*
X17178864Y-12036484D02*
X17159816Y-12026960D01*
X17159816Y-12026960D02*
X17150292Y-12007912D01*
X17150292Y-12007912D02*
X17150292Y-11836484D01*
X17331245Y-12026960D02*
X17312197Y-12036484D01*
X17312197Y-12036484D02*
X17274102Y-12036484D01*
X17274102Y-12036484D02*
X17255054Y-12026960D01*
X17255054Y-12026960D02*
X17245530Y-12007912D01*
X17245530Y-12007912D02*
X17245530Y-11931722D01*
X17245530Y-11931722D02*
X17255054Y-11912674D01*
X17255054Y-11912674D02*
X17274102Y-11903150D01*
X17274102Y-11903150D02*
X17312197Y-11903150D01*
X17312197Y-11903150D02*
X17331245Y-11912674D01*
X17331245Y-11912674D02*
X17340768Y-11931722D01*
X17340768Y-11931722D02*
X17340768Y-11950769D01*
X17340768Y-11950769D02*
X17245530Y-11969817D01*
X17416959Y-12026960D02*
X17436007Y-12036484D01*
X17436007Y-12036484D02*
X17474102Y-12036484D01*
X17474102Y-12036484D02*
X17493149Y-12026960D01*
X17493149Y-12026960D02*
X17502673Y-12007912D01*
X17502673Y-12007912D02*
X17502673Y-11998388D01*
X17502673Y-11998388D02*
X17493149Y-11979341D01*
X17493149Y-11979341D02*
X17474102Y-11969817D01*
X17474102Y-11969817D02*
X17445530Y-11969817D01*
X17445530Y-11969817D02*
X17426483Y-11960293D01*
X17426483Y-11960293D02*
X17416959Y-11941246D01*
X17416959Y-11941246D02*
X17416959Y-11931722D01*
X17416959Y-11931722D02*
X17426483Y-11912674D01*
X17426483Y-11912674D02*
X17445530Y-11903150D01*
X17445530Y-11903150D02*
X17474102Y-11903150D01*
X17474102Y-11903150D02*
X17493149Y-11912674D01*
X17569340Y-12112674D02*
X17578864Y-12103150D01*
X17578864Y-12103150D02*
X17597911Y-12074579D01*
X17597911Y-12074579D02*
X17607435Y-12055531D01*
X17607435Y-12055531D02*
X17616959Y-12026960D01*
X17616959Y-12026960D02*
X17626483Y-11979341D01*
X17626483Y-11979341D02*
X17626483Y-11941246D01*
X17626483Y-11941246D02*
X17616959Y-11893627D01*
X17616959Y-11893627D02*
X17607435Y-11865055D01*
X17607435Y-11865055D02*
X17597911Y-11846008D01*
X17597911Y-11846008D02*
X17578864Y-11817436D01*
X17578864Y-11817436D02*
X17569340Y-11807912D01*
X17931245Y-12112674D02*
X17921721Y-12103150D01*
X17921721Y-12103150D02*
X17902673Y-12074579D01*
X17902673Y-12074579D02*
X17893149Y-12055531D01*
X17893149Y-12055531D02*
X17883626Y-12026960D01*
X17883626Y-12026960D02*
X17874102Y-11979341D01*
X17874102Y-11979341D02*
X17874102Y-11941246D01*
X17874102Y-11941246D02*
X17883626Y-11893627D01*
X17883626Y-11893627D02*
X17893149Y-11865055D01*
X17893149Y-11865055D02*
X17902673Y-11846008D01*
X17902673Y-11846008D02*
X17921721Y-11817436D01*
X17921721Y-11817436D02*
X17931245Y-11807912D01*
X18007435Y-11903150D02*
X18007435Y-12036484D01*
X18007435Y-11922198D02*
X18016959Y-11912674D01*
X18016959Y-11912674D02*
X18036007Y-11903150D01*
X18036007Y-11903150D02*
X18064578Y-11903150D01*
X18064578Y-11903150D02*
X18083626Y-11912674D01*
X18083626Y-11912674D02*
X18093149Y-11931722D01*
X18093149Y-11931722D02*
X18093149Y-12036484D01*
X18216959Y-12036484D02*
X18197911Y-12026960D01*
X18197911Y-12026960D02*
X18188388Y-12017436D01*
X18188388Y-12017436D02*
X18178864Y-11998388D01*
X18178864Y-11998388D02*
X18178864Y-11941246D01*
X18178864Y-11941246D02*
X18188388Y-11922198D01*
X18188388Y-11922198D02*
X18197911Y-11912674D01*
X18197911Y-11912674D02*
X18216959Y-11903150D01*
X18216959Y-11903150D02*
X18245530Y-11903150D01*
X18245530Y-11903150D02*
X18264578Y-11912674D01*
X18264578Y-11912674D02*
X18274102Y-11922198D01*
X18274102Y-11922198D02*
X18283626Y-11941246D01*
X18283626Y-11941246D02*
X18283626Y-11998388D01*
X18283626Y-11998388D02*
X18274102Y-12017436D01*
X18274102Y-12017436D02*
X18264578Y-12026960D01*
X18264578Y-12026960D02*
X18245530Y-12036484D01*
X18245530Y-12036484D02*
X18216959Y-12036484D01*
X18340769Y-11903150D02*
X18416959Y-11903150D01*
X18369340Y-11836484D02*
X18369340Y-12007912D01*
X18369340Y-12007912D02*
X18378864Y-12026960D01*
X18378864Y-12026960D02*
X18397911Y-12036484D01*
X18397911Y-12036484D02*
X18416959Y-12036484D01*
X18636007Y-11903150D02*
X18636007Y-12103150D01*
X18636007Y-11912674D02*
X18655054Y-11903150D01*
X18655054Y-11903150D02*
X18693150Y-11903150D01*
X18693150Y-11903150D02*
X18712197Y-11912674D01*
X18712197Y-11912674D02*
X18721721Y-11922198D01*
X18721721Y-11922198D02*
X18731245Y-11941246D01*
X18731245Y-11941246D02*
X18731245Y-11998388D01*
X18731245Y-11998388D02*
X18721721Y-12017436D01*
X18721721Y-12017436D02*
X18712197Y-12026960D01*
X18712197Y-12026960D02*
X18693150Y-12036484D01*
X18693150Y-12036484D02*
X18655054Y-12036484D01*
X18655054Y-12036484D02*
X18636007Y-12026960D01*
X18845530Y-12036484D02*
X18826483Y-12026960D01*
X18826483Y-12026960D02*
X18816959Y-12007912D01*
X18816959Y-12007912D02*
X18816959Y-11836484D01*
X19007435Y-12036484D02*
X19007435Y-11931722D01*
X19007435Y-11931722D02*
X18997911Y-11912674D01*
X18997911Y-11912674D02*
X18978864Y-11903150D01*
X18978864Y-11903150D02*
X18940769Y-11903150D01*
X18940769Y-11903150D02*
X18921721Y-11912674D01*
X19007435Y-12026960D02*
X18988388Y-12036484D01*
X18988388Y-12036484D02*
X18940769Y-12036484D01*
X18940769Y-12036484D02*
X18921721Y-12026960D01*
X18921721Y-12026960D02*
X18912197Y-12007912D01*
X18912197Y-12007912D02*
X18912197Y-11988865D01*
X18912197Y-11988865D02*
X18921721Y-11969817D01*
X18921721Y-11969817D02*
X18940769Y-11960293D01*
X18940769Y-11960293D02*
X18988388Y-11960293D01*
X18988388Y-11960293D02*
X19007435Y-11950769D01*
X19074102Y-11903150D02*
X19150292Y-11903150D01*
X19102673Y-11836484D02*
X19102673Y-12007912D01*
X19102673Y-12007912D02*
X19112197Y-12026960D01*
X19112197Y-12026960D02*
X19131245Y-12036484D01*
X19131245Y-12036484D02*
X19150292Y-12036484D01*
X19293150Y-12026960D02*
X19274102Y-12036484D01*
X19274102Y-12036484D02*
X19236007Y-12036484D01*
X19236007Y-12036484D02*
X19216959Y-12026960D01*
X19216959Y-12026960D02*
X19207435Y-12007912D01*
X19207435Y-12007912D02*
X19207435Y-11931722D01*
X19207435Y-11931722D02*
X19216959Y-11912674D01*
X19216959Y-11912674D02*
X19236007Y-11903150D01*
X19236007Y-11903150D02*
X19274102Y-11903150D01*
X19274102Y-11903150D02*
X19293150Y-11912674D01*
X19293150Y-11912674D02*
X19302673Y-11931722D01*
X19302673Y-11931722D02*
X19302673Y-11950769D01*
X19302673Y-11950769D02*
X19207435Y-11969817D01*
X19474102Y-12036484D02*
X19474102Y-11836484D01*
X19474102Y-12026960D02*
X19455054Y-12036484D01*
X19455054Y-12036484D02*
X19416959Y-12036484D01*
X19416959Y-12036484D02*
X19397911Y-12026960D01*
X19397911Y-12026960D02*
X19388388Y-12017436D01*
X19388388Y-12017436D02*
X19378864Y-11998388D01*
X19378864Y-11998388D02*
X19378864Y-11941246D01*
X19378864Y-11941246D02*
X19388388Y-11922198D01*
X19388388Y-11922198D02*
X19397911Y-11912674D01*
X19397911Y-11912674D02*
X19416959Y-11903150D01*
X19416959Y-11903150D02*
X19455054Y-11903150D01*
X19455054Y-11903150D02*
X19474102Y-11912674D01*
X19550292Y-12112674D02*
X19559816Y-12103150D01*
X19559816Y-12103150D02*
X19578864Y-12074579D01*
X19578864Y-12074579D02*
X19588388Y-12055531D01*
X19588388Y-12055531D02*
X19597911Y-12026960D01*
X19597911Y-12026960D02*
X19607435Y-11979341D01*
X19607435Y-11979341D02*
X19607435Y-11941246D01*
X19607435Y-11941246D02*
X19597911Y-11893627D01*
X19597911Y-11893627D02*
X19588388Y-11865055D01*
X19588388Y-11865055D02*
X19578864Y-11846008D01*
X19578864Y-11846008D02*
X19559816Y-11817436D01*
X19559816Y-11817436D02*
X19550292Y-11807912D01*
D10*
X12794277Y-12209000D02*
G75*
G02*
X12704277Y-12209000I-45000J0D01*
G01*
X12704277Y-12209000D02*
G75*
G02*
X12794277Y-12209000I45000J0D01*
G01*
D11*
X13093149Y-12100484D02*
X13112197Y-12100484D01*
X13112197Y-12100484D02*
X13131244Y-12110008D01*
X13131244Y-12110008D02*
X13140768Y-12119531D01*
X13140768Y-12119531D02*
X13150292Y-12138579D01*
X13150292Y-12138579D02*
X13159816Y-12176674D01*
X13159816Y-12176674D02*
X13159816Y-12224293D01*
X13159816Y-12224293D02*
X13150292Y-12262388D01*
X13150292Y-12262388D02*
X13140768Y-12281436D01*
X13140768Y-12281436D02*
X13131244Y-12290960D01*
X13131244Y-12290960D02*
X13112197Y-12300484D01*
X13112197Y-12300484D02*
X13093149Y-12300484D01*
X13093149Y-12300484D02*
X13074101Y-12290960D01*
X13074101Y-12290960D02*
X13064577Y-12281436D01*
X13064577Y-12281436D02*
X13055054Y-12262388D01*
X13055054Y-12262388D02*
X13045530Y-12224293D01*
X13045530Y-12224293D02*
X13045530Y-12176674D01*
X13045530Y-12176674D02*
X13055054Y-12138579D01*
X13055054Y-12138579D02*
X13064577Y-12119531D01*
X13064577Y-12119531D02*
X13074101Y-12110008D01*
X13074101Y-12110008D02*
X13093149Y-12100484D01*
X13245530Y-12281436D02*
X13255054Y-12290960D01*
X13255054Y-12290960D02*
X13245530Y-12300484D01*
X13245530Y-12300484D02*
X13236006Y-12290960D01*
X13236006Y-12290960D02*
X13245530Y-12281436D01*
X13245530Y-12281436D02*
X13245530Y-12300484D01*
X13350292Y-12300484D02*
X13388387Y-12300484D01*
X13388387Y-12300484D02*
X13407435Y-12290960D01*
X13407435Y-12290960D02*
X13416958Y-12281436D01*
X13416958Y-12281436D02*
X13436006Y-12252865D01*
X13436006Y-12252865D02*
X13445530Y-12214769D01*
X13445530Y-12214769D02*
X13445530Y-12138579D01*
X13445530Y-12138579D02*
X13436006Y-12119531D01*
X13436006Y-12119531D02*
X13426482Y-12110008D01*
X13426482Y-12110008D02*
X13407435Y-12100484D01*
X13407435Y-12100484D02*
X13369339Y-12100484D01*
X13369339Y-12100484D02*
X13350292Y-12110008D01*
X13350292Y-12110008D02*
X13340768Y-12119531D01*
X13340768Y-12119531D02*
X13331244Y-12138579D01*
X13331244Y-12138579D02*
X13331244Y-12186198D01*
X13331244Y-12186198D02*
X13340768Y-12205246D01*
X13340768Y-12205246D02*
X13350292Y-12214769D01*
X13350292Y-12214769D02*
X13369339Y-12224293D01*
X13369339Y-12224293D02*
X13407435Y-12224293D01*
X13407435Y-12224293D02*
X13426482Y-12214769D01*
X13426482Y-12214769D02*
X13436006Y-12205246D01*
X13436006Y-12205246D02*
X13445530Y-12186198D01*
X13569339Y-12100484D02*
X13588387Y-12100484D01*
X13588387Y-12100484D02*
X13607435Y-12110008D01*
X13607435Y-12110008D02*
X13616958Y-12119531D01*
X13616958Y-12119531D02*
X13626482Y-12138579D01*
X13626482Y-12138579D02*
X13636006Y-12176674D01*
X13636006Y-12176674D02*
X13636006Y-12224293D01*
X13636006Y-12224293D02*
X13626482Y-12262388D01*
X13626482Y-12262388D02*
X13616958Y-12281436D01*
X13616958Y-12281436D02*
X13607435Y-12290960D01*
X13607435Y-12290960D02*
X13588387Y-12300484D01*
X13588387Y-12300484D02*
X13569339Y-12300484D01*
X13569339Y-12300484D02*
X13550292Y-12290960D01*
X13550292Y-12290960D02*
X13540768Y-12281436D01*
X13540768Y-12281436D02*
X13531244Y-12262388D01*
X13531244Y-12262388D02*
X13521720Y-12224293D01*
X13521720Y-12224293D02*
X13521720Y-12176674D01*
X13521720Y-12176674D02*
X13531244Y-12138579D01*
X13531244Y-12138579D02*
X13540768Y-12119531D01*
X13540768Y-12119531D02*
X13550292Y-12110008D01*
X13550292Y-12110008D02*
X13569339Y-12100484D01*
X13759816Y-12100484D02*
X13778863Y-12100484D01*
X13778863Y-12100484D02*
X13797911Y-12110008D01*
X13797911Y-12110008D02*
X13807435Y-12119531D01*
X13807435Y-12119531D02*
X13816958Y-12138579D01*
X13816958Y-12138579D02*
X13826482Y-12176674D01*
X13826482Y-12176674D02*
X13826482Y-12224293D01*
X13826482Y-12224293D02*
X13816958Y-12262388D01*
X13816958Y-12262388D02*
X13807435Y-12281436D01*
X13807435Y-12281436D02*
X13797911Y-12290960D01*
X13797911Y-12290960D02*
X13778863Y-12300484D01*
X13778863Y-12300484D02*
X13759816Y-12300484D01*
X13759816Y-12300484D02*
X13740768Y-12290960D01*
X13740768Y-12290960D02*
X13731244Y-12281436D01*
X13731244Y-12281436D02*
X13721720Y-12262388D01*
X13721720Y-12262388D02*
X13712197Y-12224293D01*
X13712197Y-12224293D02*
X13712197Y-12176674D01*
X13712197Y-12176674D02*
X13721720Y-12138579D01*
X13721720Y-12138579D02*
X13731244Y-12119531D01*
X13731244Y-12119531D02*
X13740768Y-12110008D01*
X13740768Y-12110008D02*
X13759816Y-12100484D01*
X13912197Y-12300484D02*
X13912197Y-12167150D01*
X13912197Y-12186198D02*
X13921720Y-12176674D01*
X13921720Y-12176674D02*
X13940768Y-12167150D01*
X13940768Y-12167150D02*
X13969339Y-12167150D01*
X13969339Y-12167150D02*
X13988387Y-12176674D01*
X13988387Y-12176674D02*
X13997911Y-12195722D01*
X13997911Y-12195722D02*
X13997911Y-12300484D01*
X13997911Y-12195722D02*
X14007435Y-12176674D01*
X14007435Y-12176674D02*
X14026482Y-12167150D01*
X14026482Y-12167150D02*
X14055054Y-12167150D01*
X14055054Y-12167150D02*
X14074101Y-12176674D01*
X14074101Y-12176674D02*
X14083625Y-12195722D01*
X14083625Y-12195722D02*
X14083625Y-12300484D01*
X14178863Y-12300484D02*
X14178863Y-12167150D01*
X14178863Y-12186198D02*
X14188387Y-12176674D01*
X14188387Y-12176674D02*
X14207435Y-12167150D01*
X14207435Y-12167150D02*
X14236006Y-12167150D01*
X14236006Y-12167150D02*
X14255054Y-12176674D01*
X14255054Y-12176674D02*
X14264578Y-12195722D01*
X14264578Y-12195722D02*
X14264578Y-12300484D01*
X14264578Y-12195722D02*
X14274101Y-12176674D01*
X14274101Y-12176674D02*
X14293149Y-12167150D01*
X14293149Y-12167150D02*
X14321720Y-12167150D01*
X14321720Y-12167150D02*
X14340768Y-12176674D01*
X14340768Y-12176674D02*
X14350292Y-12195722D01*
X14350292Y-12195722D02*
X14350292Y-12300484D01*
X14740768Y-12090960D02*
X14569340Y-12348103D01*
X14997911Y-12100484D02*
X15016959Y-12100484D01*
X15016959Y-12100484D02*
X15036006Y-12110008D01*
X15036006Y-12110008D02*
X15045530Y-12119531D01*
X15045530Y-12119531D02*
X15055054Y-12138579D01*
X15055054Y-12138579D02*
X15064578Y-12176674D01*
X15064578Y-12176674D02*
X15064578Y-12224293D01*
X15064578Y-12224293D02*
X15055054Y-12262388D01*
X15055054Y-12262388D02*
X15045530Y-12281436D01*
X15045530Y-12281436D02*
X15036006Y-12290960D01*
X15036006Y-12290960D02*
X15016959Y-12300484D01*
X15016959Y-12300484D02*
X14997911Y-12300484D01*
X14997911Y-12300484D02*
X14978863Y-12290960D01*
X14978863Y-12290960D02*
X14969340Y-12281436D01*
X14969340Y-12281436D02*
X14959816Y-12262388D01*
X14959816Y-12262388D02*
X14950292Y-12224293D01*
X14950292Y-12224293D02*
X14950292Y-12176674D01*
X14950292Y-12176674D02*
X14959816Y-12138579D01*
X14959816Y-12138579D02*
X14969340Y-12119531D01*
X14969340Y-12119531D02*
X14978863Y-12110008D01*
X14978863Y-12110008D02*
X14997911Y-12100484D01*
X15150292Y-12281436D02*
X15159816Y-12290960D01*
X15159816Y-12290960D02*
X15150292Y-12300484D01*
X15150292Y-12300484D02*
X15140768Y-12290960D01*
X15140768Y-12290960D02*
X15150292Y-12281436D01*
X15150292Y-12281436D02*
X15150292Y-12300484D01*
X15283625Y-12100484D02*
X15302673Y-12100484D01*
X15302673Y-12100484D02*
X15321721Y-12110008D01*
X15321721Y-12110008D02*
X15331244Y-12119531D01*
X15331244Y-12119531D02*
X15340768Y-12138579D01*
X15340768Y-12138579D02*
X15350292Y-12176674D01*
X15350292Y-12176674D02*
X15350292Y-12224293D01*
X15350292Y-12224293D02*
X15340768Y-12262388D01*
X15340768Y-12262388D02*
X15331244Y-12281436D01*
X15331244Y-12281436D02*
X15321721Y-12290960D01*
X15321721Y-12290960D02*
X15302673Y-12300484D01*
X15302673Y-12300484D02*
X15283625Y-12300484D01*
X15283625Y-12300484D02*
X15264578Y-12290960D01*
X15264578Y-12290960D02*
X15255054Y-12281436D01*
X15255054Y-12281436D02*
X15245530Y-12262388D01*
X15245530Y-12262388D02*
X15236006Y-12224293D01*
X15236006Y-12224293D02*
X15236006Y-12176674D01*
X15236006Y-12176674D02*
X15245530Y-12138579D01*
X15245530Y-12138579D02*
X15255054Y-12119531D01*
X15255054Y-12119531D02*
X15264578Y-12110008D01*
X15264578Y-12110008D02*
X15283625Y-12100484D01*
X15416959Y-12100484D02*
X15540768Y-12100484D01*
X15540768Y-12100484D02*
X15474101Y-12176674D01*
X15474101Y-12176674D02*
X15502673Y-12176674D01*
X15502673Y-12176674D02*
X15521721Y-12186198D01*
X15521721Y-12186198D02*
X15531244Y-12195722D01*
X15531244Y-12195722D02*
X15540768Y-12214769D01*
X15540768Y-12214769D02*
X15540768Y-12262388D01*
X15540768Y-12262388D02*
X15531244Y-12281436D01*
X15531244Y-12281436D02*
X15521721Y-12290960D01*
X15521721Y-12290960D02*
X15502673Y-12300484D01*
X15502673Y-12300484D02*
X15445530Y-12300484D01*
X15445530Y-12300484D02*
X15426482Y-12290960D01*
X15426482Y-12290960D02*
X15416959Y-12281436D01*
X15721721Y-12100484D02*
X15626482Y-12100484D01*
X15626482Y-12100484D02*
X15616959Y-12195722D01*
X15616959Y-12195722D02*
X15626482Y-12186198D01*
X15626482Y-12186198D02*
X15645530Y-12176674D01*
X15645530Y-12176674D02*
X15693149Y-12176674D01*
X15693149Y-12176674D02*
X15712197Y-12186198D01*
X15712197Y-12186198D02*
X15721721Y-12195722D01*
X15721721Y-12195722D02*
X15731244Y-12214769D01*
X15731244Y-12214769D02*
X15731244Y-12262388D01*
X15731244Y-12262388D02*
X15721721Y-12281436D01*
X15721721Y-12281436D02*
X15712197Y-12290960D01*
X15712197Y-12290960D02*
X15693149Y-12300484D01*
X15693149Y-12300484D02*
X15645530Y-12300484D01*
X15645530Y-12300484D02*
X15626482Y-12290960D01*
X15626482Y-12290960D02*
X15616959Y-12281436D01*
X15902673Y-12167150D02*
X15902673Y-12300484D01*
X15855054Y-12090960D02*
X15807435Y-12233817D01*
X15807435Y-12233817D02*
X15931244Y-12233817D01*
X15997911Y-12100484D02*
X15997911Y-12138579D01*
X16074102Y-12100484D02*
X16074102Y-12138579D01*
X16369340Y-12376674D02*
X16359816Y-12367150D01*
X16359816Y-12367150D02*
X16340768Y-12338579D01*
X16340768Y-12338579D02*
X16331244Y-12319531D01*
X16331244Y-12319531D02*
X16321721Y-12290960D01*
X16321721Y-12290960D02*
X16312197Y-12243341D01*
X16312197Y-12243341D02*
X16312197Y-12205246D01*
X16312197Y-12205246D02*
X16321721Y-12157627D01*
X16321721Y-12157627D02*
X16331244Y-12129055D01*
X16331244Y-12129055D02*
X16340768Y-12110008D01*
X16340768Y-12110008D02*
X16359816Y-12081436D01*
X16359816Y-12081436D02*
X16369340Y-12071912D01*
X16436006Y-12119531D02*
X16445530Y-12110008D01*
X16445530Y-12110008D02*
X16464578Y-12100484D01*
X16464578Y-12100484D02*
X16512197Y-12100484D01*
X16512197Y-12100484D02*
X16531244Y-12110008D01*
X16531244Y-12110008D02*
X16540768Y-12119531D01*
X16540768Y-12119531D02*
X16550292Y-12138579D01*
X16550292Y-12138579D02*
X16550292Y-12157627D01*
X16550292Y-12157627D02*
X16540768Y-12186198D01*
X16540768Y-12186198D02*
X16426483Y-12300484D01*
X16426483Y-12300484D02*
X16550292Y-12300484D01*
X16788387Y-12300484D02*
X16788387Y-12100484D01*
X16874102Y-12300484D02*
X16874102Y-12195722D01*
X16874102Y-12195722D02*
X16864578Y-12176674D01*
X16864578Y-12176674D02*
X16845530Y-12167150D01*
X16845530Y-12167150D02*
X16816959Y-12167150D01*
X16816959Y-12167150D02*
X16797911Y-12176674D01*
X16797911Y-12176674D02*
X16788387Y-12186198D01*
X16997911Y-12300484D02*
X16978864Y-12290960D01*
X16978864Y-12290960D02*
X16969340Y-12281436D01*
X16969340Y-12281436D02*
X16959816Y-12262388D01*
X16959816Y-12262388D02*
X16959816Y-12205246D01*
X16959816Y-12205246D02*
X16969340Y-12186198D01*
X16969340Y-12186198D02*
X16978864Y-12176674D01*
X16978864Y-12176674D02*
X16997911Y-12167150D01*
X16997911Y-12167150D02*
X17026483Y-12167150D01*
X17026483Y-12167150D02*
X17045530Y-12176674D01*
X17045530Y-12176674D02*
X17055054Y-12186198D01*
X17055054Y-12186198D02*
X17064578Y-12205246D01*
X17064578Y-12205246D02*
X17064578Y-12262388D01*
X17064578Y-12262388D02*
X17055054Y-12281436D01*
X17055054Y-12281436D02*
X17045530Y-12290960D01*
X17045530Y-12290960D02*
X17026483Y-12300484D01*
X17026483Y-12300484D02*
X16997911Y-12300484D01*
X17178864Y-12300484D02*
X17159816Y-12290960D01*
X17159816Y-12290960D02*
X17150292Y-12271912D01*
X17150292Y-12271912D02*
X17150292Y-12100484D01*
X17331245Y-12290960D02*
X17312197Y-12300484D01*
X17312197Y-12300484D02*
X17274102Y-12300484D01*
X17274102Y-12300484D02*
X17255054Y-12290960D01*
X17255054Y-12290960D02*
X17245530Y-12271912D01*
X17245530Y-12271912D02*
X17245530Y-12195722D01*
X17245530Y-12195722D02*
X17255054Y-12176674D01*
X17255054Y-12176674D02*
X17274102Y-12167150D01*
X17274102Y-12167150D02*
X17312197Y-12167150D01*
X17312197Y-12167150D02*
X17331245Y-12176674D01*
X17331245Y-12176674D02*
X17340768Y-12195722D01*
X17340768Y-12195722D02*
X17340768Y-12214769D01*
X17340768Y-12214769D02*
X17245530Y-12233817D01*
X17416959Y-12290960D02*
X17436007Y-12300484D01*
X17436007Y-12300484D02*
X17474102Y-12300484D01*
X17474102Y-12300484D02*
X17493149Y-12290960D01*
X17493149Y-12290960D02*
X17502673Y-12271912D01*
X17502673Y-12271912D02*
X17502673Y-12262388D01*
X17502673Y-12262388D02*
X17493149Y-12243341D01*
X17493149Y-12243341D02*
X17474102Y-12233817D01*
X17474102Y-12233817D02*
X17445530Y-12233817D01*
X17445530Y-12233817D02*
X17426483Y-12224293D01*
X17426483Y-12224293D02*
X17416959Y-12205246D01*
X17416959Y-12205246D02*
X17416959Y-12195722D01*
X17416959Y-12195722D02*
X17426483Y-12176674D01*
X17426483Y-12176674D02*
X17445530Y-12167150D01*
X17445530Y-12167150D02*
X17474102Y-12167150D01*
X17474102Y-12167150D02*
X17493149Y-12176674D01*
X17569340Y-12376674D02*
X17578864Y-12367150D01*
X17578864Y-12367150D02*
X17597911Y-12338579D01*
X17597911Y-12338579D02*
X17607435Y-12319531D01*
X17607435Y-12319531D02*
X17616959Y-12290960D01*
X17616959Y-12290960D02*
X17626483Y-12243341D01*
X17626483Y-12243341D02*
X17626483Y-12205246D01*
X17626483Y-12205246D02*
X17616959Y-12157627D01*
X17616959Y-12157627D02*
X17607435Y-12129055D01*
X17607435Y-12129055D02*
X17597911Y-12110008D01*
X17597911Y-12110008D02*
X17578864Y-12081436D01*
X17578864Y-12081436D02*
X17569340Y-12071912D01*
X17931245Y-12376674D02*
X17921721Y-12367150D01*
X17921721Y-12367150D02*
X17902673Y-12338579D01*
X17902673Y-12338579D02*
X17893149Y-12319531D01*
X17893149Y-12319531D02*
X17883626Y-12290960D01*
X17883626Y-12290960D02*
X17874102Y-12243341D01*
X17874102Y-12243341D02*
X17874102Y-12205246D01*
X17874102Y-12205246D02*
X17883626Y-12157627D01*
X17883626Y-12157627D02*
X17893149Y-12129055D01*
X17893149Y-12129055D02*
X17902673Y-12110008D01*
X17902673Y-12110008D02*
X17921721Y-12081436D01*
X17921721Y-12081436D02*
X17931245Y-12071912D01*
X18007435Y-12167150D02*
X18007435Y-12300484D01*
X18007435Y-12186198D02*
X18016959Y-12176674D01*
X18016959Y-12176674D02*
X18036007Y-12167150D01*
X18036007Y-12167150D02*
X18064578Y-12167150D01*
X18064578Y-12167150D02*
X18083626Y-12176674D01*
X18083626Y-12176674D02*
X18093149Y-12195722D01*
X18093149Y-12195722D02*
X18093149Y-12300484D01*
X18216959Y-12300484D02*
X18197911Y-12290960D01*
X18197911Y-12290960D02*
X18188388Y-12281436D01*
X18188388Y-12281436D02*
X18178864Y-12262388D01*
X18178864Y-12262388D02*
X18178864Y-12205246D01*
X18178864Y-12205246D02*
X18188388Y-12186198D01*
X18188388Y-12186198D02*
X18197911Y-12176674D01*
X18197911Y-12176674D02*
X18216959Y-12167150D01*
X18216959Y-12167150D02*
X18245530Y-12167150D01*
X18245530Y-12167150D02*
X18264578Y-12176674D01*
X18264578Y-12176674D02*
X18274102Y-12186198D01*
X18274102Y-12186198D02*
X18283626Y-12205246D01*
X18283626Y-12205246D02*
X18283626Y-12262388D01*
X18283626Y-12262388D02*
X18274102Y-12281436D01*
X18274102Y-12281436D02*
X18264578Y-12290960D01*
X18264578Y-12290960D02*
X18245530Y-12300484D01*
X18245530Y-12300484D02*
X18216959Y-12300484D01*
X18340769Y-12167150D02*
X18416959Y-12167150D01*
X18369340Y-12100484D02*
X18369340Y-12271912D01*
X18369340Y-12271912D02*
X18378864Y-12290960D01*
X18378864Y-12290960D02*
X18397911Y-12300484D01*
X18397911Y-12300484D02*
X18416959Y-12300484D01*
X18636007Y-12167150D02*
X18636007Y-12367150D01*
X18636007Y-12176674D02*
X18655054Y-12167150D01*
X18655054Y-12167150D02*
X18693150Y-12167150D01*
X18693150Y-12167150D02*
X18712197Y-12176674D01*
X18712197Y-12176674D02*
X18721721Y-12186198D01*
X18721721Y-12186198D02*
X18731245Y-12205246D01*
X18731245Y-12205246D02*
X18731245Y-12262388D01*
X18731245Y-12262388D02*
X18721721Y-12281436D01*
X18721721Y-12281436D02*
X18712197Y-12290960D01*
X18712197Y-12290960D02*
X18693150Y-12300484D01*
X18693150Y-12300484D02*
X18655054Y-12300484D01*
X18655054Y-12300484D02*
X18636007Y-12290960D01*
X18845530Y-12300484D02*
X18826483Y-12290960D01*
X18826483Y-12290960D02*
X18816959Y-12271912D01*
X18816959Y-12271912D02*
X18816959Y-12100484D01*
X19007435Y-12300484D02*
X19007435Y-12195722D01*
X19007435Y-12195722D02*
X18997911Y-12176674D01*
X18997911Y-12176674D02*
X18978864Y-12167150D01*
X18978864Y-12167150D02*
X18940769Y-12167150D01*
X18940769Y-12167150D02*
X18921721Y-12176674D01*
X19007435Y-12290960D02*
X18988388Y-12300484D01*
X18988388Y-12300484D02*
X18940769Y-12300484D01*
X18940769Y-12300484D02*
X18921721Y-12290960D01*
X18921721Y-12290960D02*
X18912197Y-12271912D01*
X18912197Y-12271912D02*
X18912197Y-12252865D01*
X18912197Y-12252865D02*
X18921721Y-12233817D01*
X18921721Y-12233817D02*
X18940769Y-12224293D01*
X18940769Y-12224293D02*
X18988388Y-12224293D01*
X18988388Y-12224293D02*
X19007435Y-12214769D01*
X19074102Y-12167150D02*
X19150292Y-12167150D01*
X19102673Y-12100484D02*
X19102673Y-12271912D01*
X19102673Y-12271912D02*
X19112197Y-12290960D01*
X19112197Y-12290960D02*
X19131245Y-12300484D01*
X19131245Y-12300484D02*
X19150292Y-12300484D01*
X19293150Y-12290960D02*
X19274102Y-12300484D01*
X19274102Y-12300484D02*
X19236007Y-12300484D01*
X19236007Y-12300484D02*
X19216959Y-12290960D01*
X19216959Y-12290960D02*
X19207435Y-12271912D01*
X19207435Y-12271912D02*
X19207435Y-12195722D01*
X19207435Y-12195722D02*
X19216959Y-12176674D01*
X19216959Y-12176674D02*
X19236007Y-12167150D01*
X19236007Y-12167150D02*
X19274102Y-12167150D01*
X19274102Y-12167150D02*
X19293150Y-12176674D01*
X19293150Y-12176674D02*
X19302673Y-12195722D01*
X19302673Y-12195722D02*
X19302673Y-12214769D01*
X19302673Y-12214769D02*
X19207435Y-12233817D01*
X19474102Y-12300484D02*
X19474102Y-12100484D01*
X19474102Y-12290960D02*
X19455054Y-12300484D01*
X19455054Y-12300484D02*
X19416959Y-12300484D01*
X19416959Y-12300484D02*
X19397911Y-12290960D01*
X19397911Y-12290960D02*
X19388388Y-12281436D01*
X19388388Y-12281436D02*
X19378864Y-12262388D01*
X19378864Y-12262388D02*
X19378864Y-12205246D01*
X19378864Y-12205246D02*
X19388388Y-12186198D01*
X19388388Y-12186198D02*
X19397911Y-12176674D01*
X19397911Y-12176674D02*
X19416959Y-12167150D01*
X19416959Y-12167150D02*
X19455054Y-12167150D01*
X19455054Y-12167150D02*
X19474102Y-12176674D01*
X19550292Y-12376674D02*
X19559816Y-12367150D01*
X19559816Y-12367150D02*
X19578864Y-12338579D01*
X19578864Y-12338579D02*
X19588388Y-12319531D01*
X19588388Y-12319531D02*
X19597911Y-12290960D01*
X19597911Y-12290960D02*
X19607435Y-12243341D01*
X19607435Y-12243341D02*
X19607435Y-12205246D01*
X19607435Y-12205246D02*
X19597911Y-12157627D01*
X19597911Y-12157627D02*
X19588388Y-12129055D01*
X19588388Y-12129055D02*
X19578864Y-12110008D01*
X19578864Y-12110008D02*
X19559816Y-12081436D01*
X19559816Y-12081436D02*
X19550292Y-12071912D01*
X12694277Y-12373000D02*
X12694277Y-12573000D01*
X12594277Y-12473000D02*
X12794277Y-12473000D01*
X13045530Y-12383531D02*
X13055054Y-12374008D01*
X13055054Y-12374008D02*
X13074101Y-12364484D01*
X13074101Y-12364484D02*
X13121720Y-12364484D01*
X13121720Y-12364484D02*
X13140768Y-12374008D01*
X13140768Y-12374008D02*
X13150292Y-12383531D01*
X13150292Y-12383531D02*
X13159816Y-12402579D01*
X13159816Y-12402579D02*
X13159816Y-12421627D01*
X13159816Y-12421627D02*
X13150292Y-12450198D01*
X13150292Y-12450198D02*
X13036006Y-12564484D01*
X13036006Y-12564484D02*
X13159816Y-12564484D01*
X13245530Y-12545436D02*
X13255054Y-12554960D01*
X13255054Y-12554960D02*
X13245530Y-12564484D01*
X13245530Y-12564484D02*
X13236006Y-12554960D01*
X13236006Y-12554960D02*
X13245530Y-12545436D01*
X13245530Y-12545436D02*
X13245530Y-12564484D01*
X13331244Y-12383531D02*
X13340768Y-12374008D01*
X13340768Y-12374008D02*
X13359816Y-12364484D01*
X13359816Y-12364484D02*
X13407435Y-12364484D01*
X13407435Y-12364484D02*
X13426482Y-12374008D01*
X13426482Y-12374008D02*
X13436006Y-12383531D01*
X13436006Y-12383531D02*
X13445530Y-12402579D01*
X13445530Y-12402579D02*
X13445530Y-12421627D01*
X13445530Y-12421627D02*
X13436006Y-12450198D01*
X13436006Y-12450198D02*
X13321720Y-12564484D01*
X13321720Y-12564484D02*
X13445530Y-12564484D01*
X13569339Y-12364484D02*
X13588387Y-12364484D01*
X13588387Y-12364484D02*
X13607435Y-12374008D01*
X13607435Y-12374008D02*
X13616958Y-12383531D01*
X13616958Y-12383531D02*
X13626482Y-12402579D01*
X13626482Y-12402579D02*
X13636006Y-12440674D01*
X13636006Y-12440674D02*
X13636006Y-12488293D01*
X13636006Y-12488293D02*
X13626482Y-12526388D01*
X13626482Y-12526388D02*
X13616958Y-12545436D01*
X13616958Y-12545436D02*
X13607435Y-12554960D01*
X13607435Y-12554960D02*
X13588387Y-12564484D01*
X13588387Y-12564484D02*
X13569339Y-12564484D01*
X13569339Y-12564484D02*
X13550292Y-12554960D01*
X13550292Y-12554960D02*
X13540768Y-12545436D01*
X13540768Y-12545436D02*
X13531244Y-12526388D01*
X13531244Y-12526388D02*
X13521720Y-12488293D01*
X13521720Y-12488293D02*
X13521720Y-12440674D01*
X13521720Y-12440674D02*
X13531244Y-12402579D01*
X13531244Y-12402579D02*
X13540768Y-12383531D01*
X13540768Y-12383531D02*
X13550292Y-12374008D01*
X13550292Y-12374008D02*
X13569339Y-12364484D01*
X13759816Y-12364484D02*
X13778863Y-12364484D01*
X13778863Y-12364484D02*
X13797911Y-12374008D01*
X13797911Y-12374008D02*
X13807435Y-12383531D01*
X13807435Y-12383531D02*
X13816958Y-12402579D01*
X13816958Y-12402579D02*
X13826482Y-12440674D01*
X13826482Y-12440674D02*
X13826482Y-12488293D01*
X13826482Y-12488293D02*
X13816958Y-12526388D01*
X13816958Y-12526388D02*
X13807435Y-12545436D01*
X13807435Y-12545436D02*
X13797911Y-12554960D01*
X13797911Y-12554960D02*
X13778863Y-12564484D01*
X13778863Y-12564484D02*
X13759816Y-12564484D01*
X13759816Y-12564484D02*
X13740768Y-12554960D01*
X13740768Y-12554960D02*
X13731244Y-12545436D01*
X13731244Y-12545436D02*
X13721720Y-12526388D01*
X13721720Y-12526388D02*
X13712197Y-12488293D01*
X13712197Y-12488293D02*
X13712197Y-12440674D01*
X13712197Y-12440674D02*
X13721720Y-12402579D01*
X13721720Y-12402579D02*
X13731244Y-12383531D01*
X13731244Y-12383531D02*
X13740768Y-12374008D01*
X13740768Y-12374008D02*
X13759816Y-12364484D01*
X13912197Y-12564484D02*
X13912197Y-12431150D01*
X13912197Y-12450198D02*
X13921720Y-12440674D01*
X13921720Y-12440674D02*
X13940768Y-12431150D01*
X13940768Y-12431150D02*
X13969339Y-12431150D01*
X13969339Y-12431150D02*
X13988387Y-12440674D01*
X13988387Y-12440674D02*
X13997911Y-12459722D01*
X13997911Y-12459722D02*
X13997911Y-12564484D01*
X13997911Y-12459722D02*
X14007435Y-12440674D01*
X14007435Y-12440674D02*
X14026482Y-12431150D01*
X14026482Y-12431150D02*
X14055054Y-12431150D01*
X14055054Y-12431150D02*
X14074101Y-12440674D01*
X14074101Y-12440674D02*
X14083625Y-12459722D01*
X14083625Y-12459722D02*
X14083625Y-12564484D01*
X14178863Y-12564484D02*
X14178863Y-12431150D01*
X14178863Y-12450198D02*
X14188387Y-12440674D01*
X14188387Y-12440674D02*
X14207435Y-12431150D01*
X14207435Y-12431150D02*
X14236006Y-12431150D01*
X14236006Y-12431150D02*
X14255054Y-12440674D01*
X14255054Y-12440674D02*
X14264578Y-12459722D01*
X14264578Y-12459722D02*
X14264578Y-12564484D01*
X14264578Y-12459722D02*
X14274101Y-12440674D01*
X14274101Y-12440674D02*
X14293149Y-12431150D01*
X14293149Y-12431150D02*
X14321720Y-12431150D01*
X14321720Y-12431150D02*
X14340768Y-12440674D01*
X14340768Y-12440674D02*
X14350292Y-12459722D01*
X14350292Y-12459722D02*
X14350292Y-12564484D01*
X14740768Y-12354960D02*
X14569340Y-12612103D01*
X14997911Y-12364484D02*
X15016959Y-12364484D01*
X15016959Y-12364484D02*
X15036006Y-12374008D01*
X15036006Y-12374008D02*
X15045530Y-12383531D01*
X15045530Y-12383531D02*
X15055054Y-12402579D01*
X15055054Y-12402579D02*
X15064578Y-12440674D01*
X15064578Y-12440674D02*
X15064578Y-12488293D01*
X15064578Y-12488293D02*
X15055054Y-12526388D01*
X15055054Y-12526388D02*
X15045530Y-12545436D01*
X15045530Y-12545436D02*
X15036006Y-12554960D01*
X15036006Y-12554960D02*
X15016959Y-12564484D01*
X15016959Y-12564484D02*
X14997911Y-12564484D01*
X14997911Y-12564484D02*
X14978863Y-12554960D01*
X14978863Y-12554960D02*
X14969340Y-12545436D01*
X14969340Y-12545436D02*
X14959816Y-12526388D01*
X14959816Y-12526388D02*
X14950292Y-12488293D01*
X14950292Y-12488293D02*
X14950292Y-12440674D01*
X14950292Y-12440674D02*
X14959816Y-12402579D01*
X14959816Y-12402579D02*
X14969340Y-12383531D01*
X14969340Y-12383531D02*
X14978863Y-12374008D01*
X14978863Y-12374008D02*
X14997911Y-12364484D01*
X15150292Y-12545436D02*
X15159816Y-12554960D01*
X15159816Y-12554960D02*
X15150292Y-12564484D01*
X15150292Y-12564484D02*
X15140768Y-12554960D01*
X15140768Y-12554960D02*
X15150292Y-12545436D01*
X15150292Y-12545436D02*
X15150292Y-12564484D01*
X15283625Y-12364484D02*
X15302673Y-12364484D01*
X15302673Y-12364484D02*
X15321721Y-12374008D01*
X15321721Y-12374008D02*
X15331244Y-12383531D01*
X15331244Y-12383531D02*
X15340768Y-12402579D01*
X15340768Y-12402579D02*
X15350292Y-12440674D01*
X15350292Y-12440674D02*
X15350292Y-12488293D01*
X15350292Y-12488293D02*
X15340768Y-12526388D01*
X15340768Y-12526388D02*
X15331244Y-12545436D01*
X15331244Y-12545436D02*
X15321721Y-12554960D01*
X15321721Y-12554960D02*
X15302673Y-12564484D01*
X15302673Y-12564484D02*
X15283625Y-12564484D01*
X15283625Y-12564484D02*
X15264578Y-12554960D01*
X15264578Y-12554960D02*
X15255054Y-12545436D01*
X15255054Y-12545436D02*
X15245530Y-12526388D01*
X15245530Y-12526388D02*
X15236006Y-12488293D01*
X15236006Y-12488293D02*
X15236006Y-12440674D01*
X15236006Y-12440674D02*
X15245530Y-12402579D01*
X15245530Y-12402579D02*
X15255054Y-12383531D01*
X15255054Y-12383531D02*
X15264578Y-12374008D01*
X15264578Y-12374008D02*
X15283625Y-12364484D01*
X15464578Y-12450198D02*
X15445530Y-12440674D01*
X15445530Y-12440674D02*
X15436006Y-12431150D01*
X15436006Y-12431150D02*
X15426482Y-12412103D01*
X15426482Y-12412103D02*
X15426482Y-12402579D01*
X15426482Y-12402579D02*
X15436006Y-12383531D01*
X15436006Y-12383531D02*
X15445530Y-12374008D01*
X15445530Y-12374008D02*
X15464578Y-12364484D01*
X15464578Y-12364484D02*
X15502673Y-12364484D01*
X15502673Y-12364484D02*
X15521721Y-12374008D01*
X15521721Y-12374008D02*
X15531244Y-12383531D01*
X15531244Y-12383531D02*
X15540768Y-12402579D01*
X15540768Y-12402579D02*
X15540768Y-12412103D01*
X15540768Y-12412103D02*
X15531244Y-12431150D01*
X15531244Y-12431150D02*
X15521721Y-12440674D01*
X15521721Y-12440674D02*
X15502673Y-12450198D01*
X15502673Y-12450198D02*
X15464578Y-12450198D01*
X15464578Y-12450198D02*
X15445530Y-12459722D01*
X15445530Y-12459722D02*
X15436006Y-12469246D01*
X15436006Y-12469246D02*
X15426482Y-12488293D01*
X15426482Y-12488293D02*
X15426482Y-12526388D01*
X15426482Y-12526388D02*
X15436006Y-12545436D01*
X15436006Y-12545436D02*
X15445530Y-12554960D01*
X15445530Y-12554960D02*
X15464578Y-12564484D01*
X15464578Y-12564484D02*
X15502673Y-12564484D01*
X15502673Y-12564484D02*
X15521721Y-12554960D01*
X15521721Y-12554960D02*
X15531244Y-12545436D01*
X15531244Y-12545436D02*
X15540768Y-12526388D01*
X15540768Y-12526388D02*
X15540768Y-12488293D01*
X15540768Y-12488293D02*
X15531244Y-12469246D01*
X15531244Y-12469246D02*
X15521721Y-12459722D01*
X15521721Y-12459722D02*
X15502673Y-12450198D01*
X15712197Y-12364484D02*
X15674101Y-12364484D01*
X15674101Y-12364484D02*
X15655054Y-12374008D01*
X15655054Y-12374008D02*
X15645530Y-12383531D01*
X15645530Y-12383531D02*
X15626482Y-12412103D01*
X15626482Y-12412103D02*
X15616959Y-12450198D01*
X15616959Y-12450198D02*
X15616959Y-12526388D01*
X15616959Y-12526388D02*
X15626482Y-12545436D01*
X15626482Y-12545436D02*
X15636006Y-12554960D01*
X15636006Y-12554960D02*
X15655054Y-12564484D01*
X15655054Y-12564484D02*
X15693149Y-12564484D01*
X15693149Y-12564484D02*
X15712197Y-12554960D01*
X15712197Y-12554960D02*
X15721721Y-12545436D01*
X15721721Y-12545436D02*
X15731244Y-12526388D01*
X15731244Y-12526388D02*
X15731244Y-12478769D01*
X15731244Y-12478769D02*
X15721721Y-12459722D01*
X15721721Y-12459722D02*
X15712197Y-12450198D01*
X15712197Y-12450198D02*
X15693149Y-12440674D01*
X15693149Y-12440674D02*
X15655054Y-12440674D01*
X15655054Y-12440674D02*
X15636006Y-12450198D01*
X15636006Y-12450198D02*
X15626482Y-12459722D01*
X15626482Y-12459722D02*
X15616959Y-12478769D01*
X15902673Y-12364484D02*
X15864578Y-12364484D01*
X15864578Y-12364484D02*
X15845530Y-12374008D01*
X15845530Y-12374008D02*
X15836006Y-12383531D01*
X15836006Y-12383531D02*
X15816959Y-12412103D01*
X15816959Y-12412103D02*
X15807435Y-12450198D01*
X15807435Y-12450198D02*
X15807435Y-12526388D01*
X15807435Y-12526388D02*
X15816959Y-12545436D01*
X15816959Y-12545436D02*
X15826482Y-12554960D01*
X15826482Y-12554960D02*
X15845530Y-12564484D01*
X15845530Y-12564484D02*
X15883625Y-12564484D01*
X15883625Y-12564484D02*
X15902673Y-12554960D01*
X15902673Y-12554960D02*
X15912197Y-12545436D01*
X15912197Y-12545436D02*
X15921721Y-12526388D01*
X15921721Y-12526388D02*
X15921721Y-12478769D01*
X15921721Y-12478769D02*
X15912197Y-12459722D01*
X15912197Y-12459722D02*
X15902673Y-12450198D01*
X15902673Y-12450198D02*
X15883625Y-12440674D01*
X15883625Y-12440674D02*
X15845530Y-12440674D01*
X15845530Y-12440674D02*
X15826482Y-12450198D01*
X15826482Y-12450198D02*
X15816959Y-12459722D01*
X15816959Y-12459722D02*
X15807435Y-12478769D01*
X15997911Y-12364484D02*
X15997911Y-12402579D01*
X16074102Y-12364484D02*
X16074102Y-12402579D01*
X16369340Y-12640674D02*
X16359816Y-12631150D01*
X16359816Y-12631150D02*
X16340768Y-12602579D01*
X16340768Y-12602579D02*
X16331244Y-12583531D01*
X16331244Y-12583531D02*
X16321721Y-12554960D01*
X16321721Y-12554960D02*
X16312197Y-12507341D01*
X16312197Y-12507341D02*
X16312197Y-12469246D01*
X16312197Y-12469246D02*
X16321721Y-12421627D01*
X16321721Y-12421627D02*
X16331244Y-12393055D01*
X16331244Y-12393055D02*
X16340768Y-12374008D01*
X16340768Y-12374008D02*
X16359816Y-12345436D01*
X16359816Y-12345436D02*
X16369340Y-12335912D01*
X16531244Y-12431150D02*
X16531244Y-12564484D01*
X16483625Y-12354960D02*
X16436006Y-12497817D01*
X16436006Y-12497817D02*
X16559816Y-12497817D01*
X16788387Y-12564484D02*
X16788387Y-12364484D01*
X16874102Y-12564484D02*
X16874102Y-12459722D01*
X16874102Y-12459722D02*
X16864578Y-12440674D01*
X16864578Y-12440674D02*
X16845530Y-12431150D01*
X16845530Y-12431150D02*
X16816959Y-12431150D01*
X16816959Y-12431150D02*
X16797911Y-12440674D01*
X16797911Y-12440674D02*
X16788387Y-12450198D01*
X16997911Y-12564484D02*
X16978864Y-12554960D01*
X16978864Y-12554960D02*
X16969340Y-12545436D01*
X16969340Y-12545436D02*
X16959816Y-12526388D01*
X16959816Y-12526388D02*
X16959816Y-12469246D01*
X16959816Y-12469246D02*
X16969340Y-12450198D01*
X16969340Y-12450198D02*
X16978864Y-12440674D01*
X16978864Y-12440674D02*
X16997911Y-12431150D01*
X16997911Y-12431150D02*
X17026483Y-12431150D01*
X17026483Y-12431150D02*
X17045530Y-12440674D01*
X17045530Y-12440674D02*
X17055054Y-12450198D01*
X17055054Y-12450198D02*
X17064578Y-12469246D01*
X17064578Y-12469246D02*
X17064578Y-12526388D01*
X17064578Y-12526388D02*
X17055054Y-12545436D01*
X17055054Y-12545436D02*
X17045530Y-12554960D01*
X17045530Y-12554960D02*
X17026483Y-12564484D01*
X17026483Y-12564484D02*
X16997911Y-12564484D01*
X17178864Y-12564484D02*
X17159816Y-12554960D01*
X17159816Y-12554960D02*
X17150292Y-12535912D01*
X17150292Y-12535912D02*
X17150292Y-12364484D01*
X17331245Y-12554960D02*
X17312197Y-12564484D01*
X17312197Y-12564484D02*
X17274102Y-12564484D01*
X17274102Y-12564484D02*
X17255054Y-12554960D01*
X17255054Y-12554960D02*
X17245530Y-12535912D01*
X17245530Y-12535912D02*
X17245530Y-12459722D01*
X17245530Y-12459722D02*
X17255054Y-12440674D01*
X17255054Y-12440674D02*
X17274102Y-12431150D01*
X17274102Y-12431150D02*
X17312197Y-12431150D01*
X17312197Y-12431150D02*
X17331245Y-12440674D01*
X17331245Y-12440674D02*
X17340768Y-12459722D01*
X17340768Y-12459722D02*
X17340768Y-12478769D01*
X17340768Y-12478769D02*
X17245530Y-12497817D01*
X17416959Y-12554960D02*
X17436007Y-12564484D01*
X17436007Y-12564484D02*
X17474102Y-12564484D01*
X17474102Y-12564484D02*
X17493149Y-12554960D01*
X17493149Y-12554960D02*
X17502673Y-12535912D01*
X17502673Y-12535912D02*
X17502673Y-12526388D01*
X17502673Y-12526388D02*
X17493149Y-12507341D01*
X17493149Y-12507341D02*
X17474102Y-12497817D01*
X17474102Y-12497817D02*
X17445530Y-12497817D01*
X17445530Y-12497817D02*
X17426483Y-12488293D01*
X17426483Y-12488293D02*
X17416959Y-12469246D01*
X17416959Y-12469246D02*
X17416959Y-12459722D01*
X17416959Y-12459722D02*
X17426483Y-12440674D01*
X17426483Y-12440674D02*
X17445530Y-12431150D01*
X17445530Y-12431150D02*
X17474102Y-12431150D01*
X17474102Y-12431150D02*
X17493149Y-12440674D01*
X17569340Y-12640674D02*
X17578864Y-12631150D01*
X17578864Y-12631150D02*
X17597911Y-12602579D01*
X17597911Y-12602579D02*
X17607435Y-12583531D01*
X17607435Y-12583531D02*
X17616959Y-12554960D01*
X17616959Y-12554960D02*
X17626483Y-12507341D01*
X17626483Y-12507341D02*
X17626483Y-12469246D01*
X17626483Y-12469246D02*
X17616959Y-12421627D01*
X17616959Y-12421627D02*
X17607435Y-12393055D01*
X17607435Y-12393055D02*
X17597911Y-12374008D01*
X17597911Y-12374008D02*
X17578864Y-12345436D01*
X17578864Y-12345436D02*
X17569340Y-12335912D01*
X17931245Y-12640674D02*
X17921721Y-12631150D01*
X17921721Y-12631150D02*
X17902673Y-12602579D01*
X17902673Y-12602579D02*
X17893149Y-12583531D01*
X17893149Y-12583531D02*
X17883626Y-12554960D01*
X17883626Y-12554960D02*
X17874102Y-12507341D01*
X17874102Y-12507341D02*
X17874102Y-12469246D01*
X17874102Y-12469246D02*
X17883626Y-12421627D01*
X17883626Y-12421627D02*
X17893149Y-12393055D01*
X17893149Y-12393055D02*
X17902673Y-12374008D01*
X17902673Y-12374008D02*
X17921721Y-12345436D01*
X17921721Y-12345436D02*
X17931245Y-12335912D01*
X18007435Y-12431150D02*
X18007435Y-12564484D01*
X18007435Y-12450198D02*
X18016959Y-12440674D01*
X18016959Y-12440674D02*
X18036007Y-12431150D01*
X18036007Y-12431150D02*
X18064578Y-12431150D01*
X18064578Y-12431150D02*
X18083626Y-12440674D01*
X18083626Y-12440674D02*
X18093149Y-12459722D01*
X18093149Y-12459722D02*
X18093149Y-12564484D01*
X18216959Y-12564484D02*
X18197911Y-12554960D01*
X18197911Y-12554960D02*
X18188388Y-12545436D01*
X18188388Y-12545436D02*
X18178864Y-12526388D01*
X18178864Y-12526388D02*
X18178864Y-12469246D01*
X18178864Y-12469246D02*
X18188388Y-12450198D01*
X18188388Y-12450198D02*
X18197911Y-12440674D01*
X18197911Y-12440674D02*
X18216959Y-12431150D01*
X18216959Y-12431150D02*
X18245530Y-12431150D01*
X18245530Y-12431150D02*
X18264578Y-12440674D01*
X18264578Y-12440674D02*
X18274102Y-12450198D01*
X18274102Y-12450198D02*
X18283626Y-12469246D01*
X18283626Y-12469246D02*
X18283626Y-12526388D01*
X18283626Y-12526388D02*
X18274102Y-12545436D01*
X18274102Y-12545436D02*
X18264578Y-12554960D01*
X18264578Y-12554960D02*
X18245530Y-12564484D01*
X18245530Y-12564484D02*
X18216959Y-12564484D01*
X18340769Y-12431150D02*
X18416959Y-12431150D01*
X18369340Y-12364484D02*
X18369340Y-12535912D01*
X18369340Y-12535912D02*
X18378864Y-12554960D01*
X18378864Y-12554960D02*
X18397911Y-12564484D01*
X18397911Y-12564484D02*
X18416959Y-12564484D01*
X18636007Y-12431150D02*
X18636007Y-12631150D01*
X18636007Y-12440674D02*
X18655054Y-12431150D01*
X18655054Y-12431150D02*
X18693150Y-12431150D01*
X18693150Y-12431150D02*
X18712197Y-12440674D01*
X18712197Y-12440674D02*
X18721721Y-12450198D01*
X18721721Y-12450198D02*
X18731245Y-12469246D01*
X18731245Y-12469246D02*
X18731245Y-12526388D01*
X18731245Y-12526388D02*
X18721721Y-12545436D01*
X18721721Y-12545436D02*
X18712197Y-12554960D01*
X18712197Y-12554960D02*
X18693150Y-12564484D01*
X18693150Y-12564484D02*
X18655054Y-12564484D01*
X18655054Y-12564484D02*
X18636007Y-12554960D01*
X18845530Y-12564484D02*
X18826483Y-12554960D01*
X18826483Y-12554960D02*
X18816959Y-12535912D01*
X18816959Y-12535912D02*
X18816959Y-12364484D01*
X19007435Y-12564484D02*
X19007435Y-12459722D01*
X19007435Y-12459722D02*
X18997911Y-12440674D01*
X18997911Y-12440674D02*
X18978864Y-12431150D01*
X18978864Y-12431150D02*
X18940769Y-12431150D01*
X18940769Y-12431150D02*
X18921721Y-12440674D01*
X19007435Y-12554960D02*
X18988388Y-12564484D01*
X18988388Y-12564484D02*
X18940769Y-12564484D01*
X18940769Y-12564484D02*
X18921721Y-12554960D01*
X18921721Y-12554960D02*
X18912197Y-12535912D01*
X18912197Y-12535912D02*
X18912197Y-12516865D01*
X18912197Y-12516865D02*
X18921721Y-12497817D01*
X18921721Y-12497817D02*
X18940769Y-12488293D01*
X18940769Y-12488293D02*
X18988388Y-12488293D01*
X18988388Y-12488293D02*
X19007435Y-12478769D01*
X19074102Y-12431150D02*
X19150292Y-12431150D01*
X19102673Y-12364484D02*
X19102673Y-12535912D01*
X19102673Y-12535912D02*
X19112197Y-12554960D01*
X19112197Y-12554960D02*
X19131245Y-12564484D01*
X19131245Y-12564484D02*
X19150292Y-12564484D01*
X19293150Y-12554960D02*
X19274102Y-12564484D01*
X19274102Y-12564484D02*
X19236007Y-12564484D01*
X19236007Y-12564484D02*
X19216959Y-12554960D01*
X19216959Y-12554960D02*
X19207435Y-12535912D01*
X19207435Y-12535912D02*
X19207435Y-12459722D01*
X19207435Y-12459722D02*
X19216959Y-12440674D01*
X19216959Y-12440674D02*
X19236007Y-12431150D01*
X19236007Y-12431150D02*
X19274102Y-12431150D01*
X19274102Y-12431150D02*
X19293150Y-12440674D01*
X19293150Y-12440674D02*
X19302673Y-12459722D01*
X19302673Y-12459722D02*
X19302673Y-12478769D01*
X19302673Y-12478769D02*
X19207435Y-12497817D01*
X19474102Y-12564484D02*
X19474102Y-12364484D01*
X19474102Y-12554960D02*
X19455054Y-12564484D01*
X19455054Y-12564484D02*
X19416959Y-12564484D01*
X19416959Y-12564484D02*
X19397911Y-12554960D01*
X19397911Y-12554960D02*
X19388388Y-12545436D01*
X19388388Y-12545436D02*
X19378864Y-12526388D01*
X19378864Y-12526388D02*
X19378864Y-12469246D01*
X19378864Y-12469246D02*
X19388388Y-12450198D01*
X19388388Y-12450198D02*
X19397911Y-12440674D01*
X19397911Y-12440674D02*
X19416959Y-12431150D01*
X19416959Y-12431150D02*
X19455054Y-12431150D01*
X19455054Y-12431150D02*
X19474102Y-12440674D01*
X19550292Y-12640674D02*
X19559816Y-12631150D01*
X19559816Y-12631150D02*
X19578864Y-12602579D01*
X19578864Y-12602579D02*
X19588388Y-12583531D01*
X19588388Y-12583531D02*
X19597911Y-12554960D01*
X19597911Y-12554960D02*
X19607435Y-12507341D01*
X19607435Y-12507341D02*
X19607435Y-12469246D01*
X19607435Y-12469246D02*
X19597911Y-12421627D01*
X19597911Y-12421627D02*
X19588388Y-12393055D01*
X19588388Y-12393055D02*
X19578864Y-12374008D01*
X19578864Y-12374008D02*
X19559816Y-12345436D01*
X19559816Y-12345436D02*
X19550292Y-12335912D01*
M02*
