%TF.GenerationSoftware,KiCad,Pcbnew,8.0.1*%
%TF.CreationDate,2024-07-17T16:46:35-04:00*%
%TF.ProjectId,Tiny4FSK,54696e79-3446-4534-9b2e-6b696361645f,rev?*%
%TF.SameCoordinates,Original*%
%TF.FileFunction,Legend,Bot*%
%TF.FilePolarity,Positive*%
%FSLAX46Y46*%
G04 Gerber Fmt 4.6, Leading zero omitted, Abs format (unit mm)*
G04 Created by KiCad (PCBNEW 8.0.1) date 2024-07-17 16:46:35*
%MOMM*%
%LPD*%
G01*
G04 APERTURE LIST*
%ADD10C,0.125000*%
%ADD11C,0.000000*%
%ADD12C,0.127000*%
%ADD13C,0.120000*%
G04 APERTURE END LIST*
D10*
X98815146Y-68545387D02*
X98862765Y-68521577D01*
X98862765Y-68521577D02*
X98934194Y-68521577D01*
X98934194Y-68521577D02*
X99005622Y-68545387D01*
X99005622Y-68545387D02*
X99053241Y-68593006D01*
X99053241Y-68593006D02*
X99077051Y-68640625D01*
X99077051Y-68640625D02*
X99100860Y-68735863D01*
X99100860Y-68735863D02*
X99100860Y-68807291D01*
X99100860Y-68807291D02*
X99077051Y-68902529D01*
X99077051Y-68902529D02*
X99053241Y-68950148D01*
X99053241Y-68950148D02*
X99005622Y-68997768D01*
X99005622Y-68997768D02*
X98934194Y-69021577D01*
X98934194Y-69021577D02*
X98886575Y-69021577D01*
X98886575Y-69021577D02*
X98815146Y-68997768D01*
X98815146Y-68997768D02*
X98791337Y-68973958D01*
X98791337Y-68973958D02*
X98791337Y-68807291D01*
X98791337Y-68807291D02*
X98886575Y-68807291D01*
X98505622Y-68521577D02*
X98505622Y-68640625D01*
X98624670Y-68593006D02*
X98505622Y-68640625D01*
X98505622Y-68640625D02*
X98386575Y-68593006D01*
X98577051Y-68735863D02*
X98505622Y-68640625D01*
X98505622Y-68640625D02*
X98434194Y-68735863D01*
X98124670Y-68521577D02*
X98124670Y-68640625D01*
X98243718Y-68593006D02*
X98124670Y-68640625D01*
X98124670Y-68640625D02*
X98005623Y-68593006D01*
X98196099Y-68735863D02*
X98124670Y-68640625D01*
X98124670Y-68640625D02*
X98053242Y-68735863D01*
X97743718Y-68521577D02*
X97743718Y-68640625D01*
X97862766Y-68593006D02*
X97743718Y-68640625D01*
X97743718Y-68640625D02*
X97624671Y-68593006D01*
X97815147Y-68735863D02*
X97743718Y-68640625D01*
X97743718Y-68640625D02*
X97672290Y-68735863D01*
X111190475Y-86248619D02*
X111238094Y-86224809D01*
X111238094Y-86224809D02*
X111309523Y-86224809D01*
X111309523Y-86224809D02*
X111380951Y-86248619D01*
X111380951Y-86248619D02*
X111428570Y-86296238D01*
X111428570Y-86296238D02*
X111452380Y-86343857D01*
X111452380Y-86343857D02*
X111476189Y-86439095D01*
X111476189Y-86439095D02*
X111476189Y-86510523D01*
X111476189Y-86510523D02*
X111452380Y-86605761D01*
X111452380Y-86605761D02*
X111428570Y-86653380D01*
X111428570Y-86653380D02*
X111380951Y-86701000D01*
X111380951Y-86701000D02*
X111309523Y-86724809D01*
X111309523Y-86724809D02*
X111261904Y-86724809D01*
X111261904Y-86724809D02*
X111190475Y-86701000D01*
X111190475Y-86701000D02*
X111166666Y-86677190D01*
X111166666Y-86677190D02*
X111166666Y-86510523D01*
X111166666Y-86510523D02*
X111261904Y-86510523D01*
X110880951Y-86224809D02*
X110880951Y-86343857D01*
X110999999Y-86296238D02*
X110880951Y-86343857D01*
X110880951Y-86343857D02*
X110761904Y-86296238D01*
X110952380Y-86439095D02*
X110880951Y-86343857D01*
X110880951Y-86343857D02*
X110809523Y-86439095D01*
X110499999Y-86224809D02*
X110499999Y-86343857D01*
X110619047Y-86296238D02*
X110499999Y-86343857D01*
X110499999Y-86343857D02*
X110380952Y-86296238D01*
X110571428Y-86439095D02*
X110499999Y-86343857D01*
X110499999Y-86343857D02*
X110428571Y-86439095D01*
X110119047Y-86224809D02*
X110119047Y-86343857D01*
X110238095Y-86296238D02*
X110119047Y-86343857D01*
X110119047Y-86343857D02*
X110000000Y-86296238D01*
X110190476Y-86439095D02*
X110119047Y-86343857D01*
X110119047Y-86343857D02*
X110047619Y-86439095D01*
X142275404Y-74507143D02*
X142299214Y-74578571D01*
X142299214Y-74578571D02*
X142323023Y-74602381D01*
X142323023Y-74602381D02*
X142370642Y-74626190D01*
X142370642Y-74626190D02*
X142442071Y-74626190D01*
X142442071Y-74626190D02*
X142489690Y-74602381D01*
X142489690Y-74602381D02*
X142513500Y-74578571D01*
X142513500Y-74578571D02*
X142537309Y-74530952D01*
X142537309Y-74530952D02*
X142537309Y-74340476D01*
X142537309Y-74340476D02*
X142037309Y-74340476D01*
X142037309Y-74340476D02*
X142037309Y-74507143D01*
X142037309Y-74507143D02*
X142061119Y-74554762D01*
X142061119Y-74554762D02*
X142084928Y-74578571D01*
X142084928Y-74578571D02*
X142132547Y-74602381D01*
X142132547Y-74602381D02*
X142180166Y-74602381D01*
X142180166Y-74602381D02*
X142227785Y-74578571D01*
X142227785Y-74578571D02*
X142251595Y-74554762D01*
X142251595Y-74554762D02*
X142275404Y-74507143D01*
X142275404Y-74507143D02*
X142275404Y-74340476D01*
X142037309Y-74769048D02*
X142037309Y-75054762D01*
X142537309Y-74911905D02*
X142037309Y-74911905D01*
X142537309Y-75483333D02*
X142537309Y-75197619D01*
X142537309Y-75340476D02*
X142037309Y-75340476D01*
X142037309Y-75340476D02*
X142108738Y-75292857D01*
X142108738Y-75292857D02*
X142156357Y-75245238D01*
X142156357Y-75245238D02*
X142180166Y-75197619D01*
X144966666Y-99279809D02*
X144966666Y-99636952D01*
X144966666Y-99636952D02*
X144990475Y-99708380D01*
X144990475Y-99708380D02*
X145038094Y-99756000D01*
X145038094Y-99756000D02*
X145109523Y-99779809D01*
X145109523Y-99779809D02*
X145157142Y-99779809D01*
X144466666Y-99779809D02*
X144752380Y-99779809D01*
X144609523Y-99779809D02*
X144609523Y-99279809D01*
X144609523Y-99279809D02*
X144657142Y-99351238D01*
X144657142Y-99351238D02*
X144704761Y-99398857D01*
X144704761Y-99398857D02*
X144752380Y-99422666D01*
D11*
%TO.C,G\u002A\u002A\u002A*%
G36*
X102382671Y-70383699D02*
G01*
X102428137Y-70507414D01*
X102430918Y-70572722D01*
X102399670Y-70615215D01*
X102344491Y-70568519D01*
X102292583Y-70445131D01*
X102284041Y-70363537D01*
X102332543Y-70337990D01*
X102382671Y-70383699D01*
G37*
G36*
X99854540Y-69935445D02*
G01*
X99886276Y-70151106D01*
X99890525Y-70320306D01*
X99867262Y-70420517D01*
X99806901Y-70447768D01*
X99750488Y-70423574D01*
X99717453Y-70324547D01*
X99708171Y-70124976D01*
X99717179Y-69967521D01*
X99754149Y-69841328D01*
X99805217Y-69831411D01*
X99854540Y-69935445D01*
G37*
G36*
X104303045Y-69834194D02*
G01*
X104332249Y-69949152D01*
X104343671Y-70130268D01*
X104339386Y-70244636D01*
X104316395Y-70390657D01*
X104280171Y-70447768D01*
X104257298Y-70426341D01*
X104228094Y-70311383D01*
X104216671Y-70130268D01*
X104220957Y-70015899D01*
X104243948Y-69869878D01*
X104280171Y-69812768D01*
X104303045Y-69834194D01*
G37*
G36*
X98038218Y-69925062D02*
G01*
X98057171Y-70124976D01*
X98054602Y-70300448D01*
X98033209Y-70403749D01*
X97972205Y-70441410D01*
X97850796Y-70445748D01*
X97734564Y-70440768D01*
X97694379Y-70417710D01*
X97750591Y-70362996D01*
X97754161Y-70360171D01*
X97833093Y-70239843D01*
X97877591Y-70068281D01*
X97891564Y-69970124D01*
X97938208Y-69842204D01*
X97992828Y-69828994D01*
X98038218Y-69925062D01*
G37*
G36*
X107709171Y-67145768D02*
G01*
X107709171Y-67463268D01*
X107328171Y-67463268D01*
X106947171Y-67463268D01*
X106947171Y-68479268D01*
X106947171Y-69495268D01*
X106597921Y-69495268D01*
X106248671Y-69495268D01*
X106248671Y-68479268D01*
X106248671Y-67463268D01*
X105867671Y-67463268D01*
X105486671Y-67463268D01*
X105486671Y-67145768D01*
X105486671Y-66828268D01*
X106597921Y-66828268D01*
X107709171Y-66828268D01*
X107709171Y-67145768D01*
G37*
G36*
X100366045Y-69834194D02*
G01*
X100395249Y-69949152D01*
X100406671Y-70130268D01*
X100405168Y-70257688D01*
X100389140Y-70384940D01*
X100342138Y-70437474D01*
X100247921Y-70447768D01*
X100143514Y-70432002D01*
X100089171Y-70384268D01*
X100099918Y-70355056D01*
X100184421Y-70320768D01*
X100211805Y-70316158D01*
X100263943Y-70243381D01*
X100279671Y-70066768D01*
X100281291Y-70009831D01*
X100303408Y-69869102D01*
X100343171Y-69812768D01*
X100366045Y-69834194D01*
G37*
G36*
X102820256Y-69908722D02*
G01*
X102844781Y-69936830D01*
X102908825Y-69967840D01*
X102981589Y-69892947D01*
X103049834Y-69823395D01*
X103104028Y-69824936D01*
X103108733Y-69903021D01*
X103050523Y-70030802D01*
X102980874Y-70170679D01*
X102946671Y-70318533D01*
X102934465Y-70394487D01*
X102883171Y-70447768D01*
X102845685Y-70422500D01*
X102819671Y-70317614D01*
X102791558Y-70171795D01*
X102722791Y-70000114D01*
X102697232Y-69945583D01*
X102673904Y-69835771D01*
X102719842Y-69818861D01*
X102820256Y-69908722D01*
G37*
G36*
X95771171Y-68161768D02*
G01*
X95771171Y-69495268D01*
X95453671Y-69495268D01*
X95136171Y-69495268D01*
X95136171Y-68987268D01*
X95136171Y-68479268D01*
X94596421Y-68479268D01*
X94056671Y-68479268D01*
X94056671Y-68161768D01*
X94056671Y-67844268D01*
X94596421Y-67844268D01*
X95136171Y-67844268D01*
X95136171Y-67653768D01*
X95136171Y-67463268D01*
X94469421Y-67463268D01*
X93802671Y-67463268D01*
X93802671Y-67145768D01*
X93802671Y-66828268D01*
X94786921Y-66828268D01*
X95771171Y-66828268D01*
X95771171Y-68161768D01*
G37*
G36*
X104828578Y-69815966D02*
G01*
X104951189Y-69848185D01*
X104973931Y-69902374D01*
X104883421Y-69962731D01*
X104815452Y-70043451D01*
X104788171Y-70223525D01*
X104787567Y-70254410D01*
X104766494Y-70391910D01*
X104724671Y-70447768D01*
X104710437Y-70441291D01*
X104675255Y-70352823D01*
X104661171Y-70193768D01*
X104659552Y-70136831D01*
X104637435Y-69996102D01*
X104597671Y-69939768D01*
X104582493Y-69937922D01*
X104534171Y-69876268D01*
X104536091Y-69867934D01*
X104609521Y-69828717D01*
X104756421Y-69812768D01*
X104828578Y-69815966D01*
G37*
G36*
X107071589Y-69813316D02*
G01*
X107208850Y-69834296D01*
X107264671Y-69876268D01*
X107262826Y-69891446D01*
X107201171Y-69939768D01*
X107186937Y-69946244D01*
X107151755Y-70034712D01*
X107137671Y-70193768D01*
X107136052Y-70250704D01*
X107113935Y-70391433D01*
X107074171Y-70447768D01*
X107065426Y-70445633D01*
X107026489Y-70371215D01*
X107010671Y-70223525D01*
X106987463Y-70054601D01*
X106915421Y-69962731D01*
X106865716Y-69939419D01*
X106821057Y-69879592D01*
X106884419Y-69832107D01*
X107042421Y-69812768D01*
X107071589Y-69813316D01*
G37*
G36*
X93863589Y-69813316D02*
G01*
X94000850Y-69834296D01*
X94056671Y-69876268D01*
X94054826Y-69891446D01*
X93993171Y-69939768D01*
X93978937Y-69946244D01*
X93943755Y-70034712D01*
X93929671Y-70193768D01*
X93927943Y-70266791D01*
X93900652Y-70405825D01*
X93834421Y-70447768D01*
X93807038Y-70443158D01*
X93754900Y-70370381D01*
X93739171Y-70193768D01*
X93737552Y-70136831D01*
X93715435Y-69996102D01*
X93675671Y-69939768D01*
X93660493Y-69937922D01*
X93612171Y-69876268D01*
X93614091Y-69867934D01*
X93687521Y-69828717D01*
X93834421Y-69812768D01*
X93863589Y-69813316D01*
G37*
G36*
X103459473Y-69813356D02*
G01*
X103501220Y-69878668D01*
X103518590Y-70019143D01*
X103519008Y-70225518D01*
X103644573Y-70035018D01*
X103760800Y-69890192D01*
X103855021Y-69852515D01*
X103917924Y-69937739D01*
X103950276Y-70146143D01*
X103954638Y-70310153D01*
X103932831Y-70417690D01*
X103875119Y-70447768D01*
X103805674Y-70405702D01*
X103757726Y-70273143D01*
X103734845Y-70098518D01*
X103648066Y-70273143D01*
X103641187Y-70286751D01*
X103543745Y-70426091D01*
X103464288Y-70443505D01*
X103410777Y-70343422D01*
X103391171Y-70130268D01*
X103395457Y-70015899D01*
X103418448Y-69869878D01*
X103454671Y-69812768D01*
X103459473Y-69813356D01*
G37*
G36*
X91141811Y-69827711D02*
G01*
X91182768Y-69937911D01*
X91199171Y-70130268D01*
X91193076Y-70296097D01*
X91163821Y-70413778D01*
X91103921Y-70447768D01*
X91055403Y-70433013D01*
X91008671Y-70342676D01*
X91005413Y-70292194D01*
X90973091Y-70278594D01*
X90881282Y-70352870D01*
X90826224Y-70396773D01*
X90730289Y-70431426D01*
X90709639Y-70377790D01*
X90786069Y-70257657D01*
X90852216Y-70178053D01*
X90863430Y-70102837D01*
X90786069Y-70002878D01*
X90720371Y-69903502D01*
X90718194Y-69828253D01*
X90784338Y-69835825D01*
X90880149Y-69922297D01*
X90955090Y-70009257D01*
X90998435Y-70020323D01*
X91027488Y-69938172D01*
X91035774Y-69909207D01*
X91088686Y-69813525D01*
X91141811Y-69827711D01*
G37*
G36*
X101676671Y-67558518D02*
G01*
X101680111Y-67830180D01*
X101690276Y-68067955D01*
X101705550Y-68228767D01*
X101724296Y-68287604D01*
X101732272Y-68283189D01*
X101799493Y-68205515D01*
X101917201Y-68045877D01*
X102071420Y-67823727D01*
X102248171Y-67558518D01*
X102724421Y-66830594D01*
X103057796Y-66829431D01*
X103391171Y-66828268D01*
X103391171Y-68165086D01*
X103391171Y-69501904D01*
X103057796Y-69482711D01*
X102724421Y-69463518D01*
X102692671Y-68753562D01*
X102660921Y-68043606D01*
X102184671Y-68768274D01*
X101708421Y-69492941D01*
X101375046Y-69494104D01*
X101041671Y-69495268D01*
X101041671Y-68161768D01*
X101041671Y-66828268D01*
X101359171Y-66828268D01*
X101676671Y-66828268D01*
X101676671Y-67558518D01*
G37*
G36*
X91721207Y-69814680D02*
G01*
X91855057Y-69877022D01*
X91973583Y-69992268D01*
X92024671Y-70112534D01*
X92013156Y-70184548D01*
X91958937Y-70324942D01*
X91905512Y-70385865D01*
X91755816Y-70442882D01*
X91584846Y-70430880D01*
X91448909Y-70347382D01*
X91444950Y-70342584D01*
X91408620Y-70282931D01*
X91453136Y-70268384D01*
X91599884Y-70290949D01*
X91637157Y-70297820D01*
X91770977Y-70312056D01*
X91824465Y-70274921D01*
X91834171Y-70167092D01*
X91833943Y-70154043D01*
X91786686Y-70008261D01*
X91679807Y-69952513D01*
X91546078Y-70005212D01*
X91483066Y-70042374D01*
X91404112Y-70038874D01*
X91400956Y-69993010D01*
X91469600Y-69914145D01*
X91582603Y-69843429D01*
X91698433Y-69812768D01*
X91721207Y-69814680D01*
G37*
G36*
X96492545Y-69834194D02*
G01*
X96521749Y-69949152D01*
X96533171Y-70130268D01*
X96528886Y-70244636D01*
X96505895Y-70390657D01*
X96469671Y-70447768D01*
X96432764Y-70423953D01*
X96406171Y-70320768D01*
X96385300Y-70238669D01*
X96279171Y-70193768D01*
X96197073Y-70214639D01*
X96152171Y-70320768D01*
X96140264Y-70394583D01*
X96088671Y-70447768D01*
X96065798Y-70426341D01*
X96036594Y-70311383D01*
X96025171Y-70130268D01*
X96029457Y-70015899D01*
X96052448Y-69869878D01*
X96088671Y-69812768D01*
X96125579Y-69836582D01*
X96152171Y-69939768D01*
X96173043Y-70021866D01*
X96279171Y-70066768D01*
X96361270Y-70045896D01*
X96406171Y-69939768D01*
X96418079Y-69865952D01*
X96469671Y-69812768D01*
X96492545Y-69834194D01*
G37*
G36*
X106589045Y-69834194D02*
G01*
X106618249Y-69949152D01*
X106629671Y-70130268D01*
X106625386Y-70244636D01*
X106602395Y-70390657D01*
X106566171Y-70447768D01*
X106529264Y-70423953D01*
X106502671Y-70320768D01*
X106481800Y-70238669D01*
X106375671Y-70193768D01*
X106293573Y-70214639D01*
X106248671Y-70320768D01*
X106236764Y-70394583D01*
X106185171Y-70447768D01*
X106162298Y-70426341D01*
X106133094Y-70311383D01*
X106121671Y-70130268D01*
X106125957Y-70015899D01*
X106148948Y-69869878D01*
X106185171Y-69812768D01*
X106222079Y-69836582D01*
X106248671Y-69939768D01*
X106269543Y-70021866D01*
X106375671Y-70066768D01*
X106457770Y-70045896D01*
X106502671Y-69939768D01*
X106514579Y-69865952D01*
X106566171Y-69812768D01*
X106589045Y-69834194D01*
G37*
G36*
X100889023Y-69832242D02*
G01*
X100970969Y-69869420D01*
X101010540Y-69962145D01*
X101029276Y-70146143D01*
X101036841Y-70290421D01*
X101025340Y-70400174D01*
X100971076Y-70441454D01*
X100854651Y-70447768D01*
X100849404Y-70447744D01*
X100715929Y-70428543D01*
X100660671Y-70384268D01*
X100671418Y-70355056D01*
X100755921Y-70320768D01*
X100799739Y-70313603D01*
X100851171Y-70257268D01*
X100840425Y-70228056D01*
X100755921Y-70193768D01*
X100712104Y-70186603D01*
X100660671Y-70130268D01*
X100671418Y-70101056D01*
X100755921Y-70066768D01*
X100799739Y-70059603D01*
X100851171Y-70003268D01*
X100840425Y-69974056D01*
X100755921Y-69939768D01*
X100712037Y-69932103D01*
X100660671Y-69872050D01*
X100709361Y-69830859D01*
X100835296Y-69824425D01*
X100889023Y-69832242D01*
G37*
G36*
X90340745Y-69816333D02*
G01*
X90407419Y-69848590D01*
X90433010Y-69942315D01*
X90437171Y-70130268D01*
X90435032Y-70287057D01*
X90415678Y-70398181D01*
X90359443Y-70440831D01*
X90246671Y-70447768D01*
X90244301Y-70447763D01*
X90111351Y-70428853D01*
X90056171Y-70384268D01*
X90079986Y-70347360D01*
X90183171Y-70320768D01*
X90256987Y-70308860D01*
X90310171Y-70257268D01*
X90299425Y-70228056D01*
X90214921Y-70193768D01*
X90171104Y-70186603D01*
X90119671Y-70130268D01*
X90130418Y-70101056D01*
X90214921Y-70066768D01*
X90258739Y-70059603D01*
X90310171Y-70003268D01*
X90286357Y-69966360D01*
X90183171Y-69939768D01*
X90109356Y-69927860D01*
X90056171Y-69876268D01*
X90056186Y-69875477D01*
X90112915Y-69831161D01*
X90246671Y-69812768D01*
X90340745Y-69816333D01*
G37*
G36*
X97389245Y-69816333D02*
G01*
X97455919Y-69848590D01*
X97481510Y-69942315D01*
X97485671Y-70130268D01*
X97483532Y-70287057D01*
X97464178Y-70398181D01*
X97407943Y-70440831D01*
X97295171Y-70447768D01*
X97292801Y-70447763D01*
X97159851Y-70428853D01*
X97104671Y-70384268D01*
X97128486Y-70347360D01*
X97231671Y-70320768D01*
X97305487Y-70308860D01*
X97358671Y-70257268D01*
X97347925Y-70228056D01*
X97263421Y-70193768D01*
X97219604Y-70186603D01*
X97168171Y-70130268D01*
X97178918Y-70101056D01*
X97263421Y-70066768D01*
X97307239Y-70059603D01*
X97358671Y-70003268D01*
X97334857Y-69966360D01*
X97231671Y-69939768D01*
X97157856Y-69927860D01*
X97104671Y-69876268D01*
X97104686Y-69875477D01*
X97161415Y-69831161D01*
X97295171Y-69812768D01*
X97389245Y-69816333D01*
G37*
G36*
X105771245Y-69816333D02*
G01*
X105837919Y-69848590D01*
X105863510Y-69942315D01*
X105867671Y-70130268D01*
X105865532Y-70287057D01*
X105846178Y-70398181D01*
X105789943Y-70440831D01*
X105677171Y-70447768D01*
X105674801Y-70447763D01*
X105541851Y-70428853D01*
X105486671Y-70384268D01*
X105497418Y-70355056D01*
X105581921Y-70320768D01*
X105625739Y-70313603D01*
X105677171Y-70257268D01*
X105666425Y-70228056D01*
X105581921Y-70193768D01*
X105538104Y-70186603D01*
X105486671Y-70130268D01*
X105497418Y-70101056D01*
X105581921Y-70066768D01*
X105625739Y-70059603D01*
X105677171Y-70003268D01*
X105666425Y-69974056D01*
X105581921Y-69939768D01*
X105538104Y-69932603D01*
X105486671Y-69876268D01*
X105486686Y-69875477D01*
X105543415Y-69831161D01*
X105677171Y-69812768D01*
X105771245Y-69816333D01*
G37*
G36*
X99415331Y-70106539D02*
G01*
X99451318Y-70213467D01*
X99498997Y-70360787D01*
X99517671Y-70427329D01*
X99498985Y-70448847D01*
X99425704Y-70436441D01*
X99358921Y-70384268D01*
X99317985Y-70349926D01*
X99196424Y-70320768D01*
X99126188Y-70332163D01*
X99073171Y-70384268D01*
X99064546Y-70411442D01*
X98984058Y-70447768D01*
X98973380Y-70447311D01*
X98935598Y-70418731D01*
X98946828Y-70327029D01*
X99008872Y-70147222D01*
X99167226Y-70147222D01*
X99202164Y-70193768D01*
X99230440Y-70183037D01*
X99263671Y-70098518D01*
X99260913Y-70055120D01*
X99238715Y-70003268D01*
X99222280Y-70014966D01*
X99177208Y-70098518D01*
X99167226Y-70147222D01*
X99008872Y-70147222D01*
X99009244Y-70146143D01*
X99042892Y-70062536D01*
X99142700Y-69884375D01*
X99236266Y-69832495D01*
X99326254Y-69906636D01*
X99411757Y-70098518D01*
X99415331Y-70106539D01*
G37*
G36*
X89853276Y-70146143D02*
G01*
X89857412Y-70321679D01*
X89833903Y-70420853D01*
X89773901Y-70447768D01*
X89721099Y-70430645D01*
X89673152Y-70336643D01*
X89671240Y-70286939D01*
X89651599Y-70260264D01*
X89586777Y-70336643D01*
X89524951Y-70398966D01*
X89438225Y-70444475D01*
X89384562Y-70436432D01*
X89401549Y-70368393D01*
X89405065Y-70362440D01*
X89438980Y-70240139D01*
X89452921Y-70066768D01*
X89457247Y-70003268D01*
X89548171Y-70003268D01*
X89550017Y-70018446D01*
X89611671Y-70066768D01*
X89626850Y-70064922D01*
X89675171Y-70003268D01*
X89673326Y-69988089D01*
X89611671Y-69939768D01*
X89596493Y-69941613D01*
X89548171Y-70003268D01*
X89457247Y-70003268D01*
X89462936Y-69919750D01*
X89515432Y-69856907D01*
X89643421Y-69844518D01*
X89721668Y-69846890D01*
X89800061Y-69875553D01*
X89836161Y-69964136D01*
X89839841Y-70003268D01*
X89853276Y-70146143D01*
G37*
G36*
X92691834Y-70161437D02*
G01*
X92759352Y-70314109D01*
X92786671Y-70421282D01*
X92769133Y-70445866D01*
X92696397Y-70437714D01*
X92627921Y-70384268D01*
X92586985Y-70349926D01*
X92465424Y-70320768D01*
X92395188Y-70332163D01*
X92342171Y-70384268D01*
X92331803Y-70413144D01*
X92247982Y-70447768D01*
X92228580Y-70446574D01*
X92193149Y-70416982D01*
X92206629Y-70326939D01*
X92265071Y-70165765D01*
X92405671Y-70165765D01*
X92407322Y-70172102D01*
X92469171Y-70193768D01*
X92486576Y-70191183D01*
X92532671Y-70126520D01*
X92527686Y-70103552D01*
X92469171Y-70098518D01*
X92450168Y-70111551D01*
X92405671Y-70165765D01*
X92265071Y-70165765D01*
X92271149Y-70149004D01*
X92316362Y-70043854D01*
X92397468Y-69895004D01*
X92460578Y-69826215D01*
X92464714Y-69825716D01*
X92522853Y-69877711D01*
X92605781Y-70002794D01*
X92672894Y-70126520D01*
X92691834Y-70161437D01*
G37*
G36*
X93421671Y-70130268D02*
G01*
X93417386Y-70244636D01*
X93394395Y-70390657D01*
X93358171Y-70447768D01*
X93318300Y-70416444D01*
X93293260Y-70304893D01*
X93291848Y-70162018D01*
X93170602Y-70319819D01*
X93163831Y-70328465D01*
X93067872Y-70419212D01*
X93001623Y-70429885D01*
X92987411Y-70398052D01*
X93024479Y-70311560D01*
X93062187Y-70245487D01*
X93024066Y-70127275D01*
X93006533Y-70092780D01*
X93006964Y-70035983D01*
X93129948Y-70035983D01*
X93195674Y-70066768D01*
X93242985Y-70058996D01*
X93294671Y-70003268D01*
X93292961Y-69988202D01*
X93234919Y-69939768D01*
X93217104Y-69942190D01*
X93135921Y-70003268D01*
X93129948Y-70035983D01*
X93006964Y-70035983D01*
X93007553Y-69958490D01*
X93103948Y-69854516D01*
X93270697Y-69812768D01*
X93326514Y-69815500D01*
X93389624Y-69847413D01*
X93416221Y-69941564D01*
X93418003Y-70003268D01*
X93421671Y-70130268D01*
G37*
G36*
X101676671Y-70130268D02*
G01*
X101669089Y-70257756D01*
X101639482Y-70391367D01*
X101599968Y-70455764D01*
X101564086Y-70432941D01*
X101545374Y-70304893D01*
X101541076Y-70162018D01*
X101472170Y-70304893D01*
X101407507Y-70396432D01*
X101315484Y-70447768D01*
X101304165Y-70447477D01*
X101259798Y-70417296D01*
X101297844Y-70316708D01*
X101335349Y-70207868D01*
X101292303Y-70094458D01*
X101268121Y-70055873D01*
X101269702Y-70003268D01*
X101422671Y-70003268D01*
X101424517Y-70018446D01*
X101486171Y-70066768D01*
X101501350Y-70064922D01*
X101549671Y-70003268D01*
X101547826Y-69988089D01*
X101486171Y-69939768D01*
X101470993Y-69941613D01*
X101422671Y-70003268D01*
X101269702Y-70003268D01*
X101271557Y-69941570D01*
X101366014Y-69850157D01*
X101525697Y-69812768D01*
X101581514Y-69815500D01*
X101644624Y-69847413D01*
X101671221Y-69941564D01*
X101673003Y-70003268D01*
X101676671Y-70130268D01*
G37*
G36*
X95715194Y-70149004D02*
G01*
X95739576Y-70212033D01*
X95788876Y-70361291D01*
X95787762Y-70430722D01*
X95738361Y-70447768D01*
X95695529Y-70440777D01*
X95644171Y-70384268D01*
X95620357Y-70347360D01*
X95517171Y-70320768D01*
X95443356Y-70332675D01*
X95390171Y-70384268D01*
X95379425Y-70413479D01*
X95294921Y-70447768D01*
X95271698Y-70447724D01*
X95219936Y-70439176D01*
X95210171Y-70396532D01*
X95244916Y-70292177D01*
X95313268Y-70130268D01*
X95453671Y-70130268D01*
X95455517Y-70145446D01*
X95517171Y-70193768D01*
X95532350Y-70191922D01*
X95580671Y-70130268D01*
X95578826Y-70115089D01*
X95517171Y-70066768D01*
X95501993Y-70068613D01*
X95453671Y-70130268D01*
X95313268Y-70130268D01*
X95326682Y-70098494D01*
X95378272Y-69991580D01*
X95462245Y-69865310D01*
X95525765Y-69826215D01*
X95558095Y-69853200D01*
X95634322Y-69972445D01*
X95706612Y-70130268D01*
X95715194Y-70149004D01*
G37*
G36*
X95009171Y-70130268D02*
G01*
X95009171Y-70257268D01*
X95009171Y-70447768D01*
X94784932Y-70447768D01*
X94733300Y-70447508D01*
X94614599Y-70432073D01*
X94572482Y-70365339D01*
X94573192Y-70257268D01*
X94691671Y-70257268D01*
X94702418Y-70286479D01*
X94786921Y-70320768D01*
X94830739Y-70313603D01*
X94882171Y-70257268D01*
X94871425Y-70228056D01*
X94786921Y-70193768D01*
X94743104Y-70200932D01*
X94691671Y-70257268D01*
X94573192Y-70257268D01*
X94573505Y-70209643D01*
X94574768Y-70188439D01*
X94607667Y-70003268D01*
X94755171Y-70003268D01*
X94757017Y-70018446D01*
X94818671Y-70066768D01*
X94833850Y-70064922D01*
X94882171Y-70003268D01*
X94880326Y-69988089D01*
X94818671Y-69939768D01*
X94803493Y-69941613D01*
X94755171Y-70003268D01*
X94607667Y-70003268D01*
X94614024Y-69967489D01*
X94704109Y-69848387D01*
X94858197Y-69812768D01*
X94914014Y-69815500D01*
X94977124Y-69847413D01*
X95003721Y-69941564D01*
X95005503Y-70003268D01*
X95009171Y-70130268D01*
G37*
G36*
X99263671Y-65256564D02*
G01*
X99263227Y-65286732D01*
X99220337Y-65511948D01*
X99096594Y-65691888D01*
X98876618Y-65841985D01*
X98545026Y-65977672D01*
X98420131Y-66019450D01*
X98250150Y-66062822D01*
X98143107Y-66047986D01*
X98080742Y-65957846D01*
X98044794Y-65775303D01*
X98017005Y-65483259D01*
X98004981Y-65334001D01*
X98001738Y-65246020D01*
X98389704Y-65246020D01*
X98474457Y-65394982D01*
X98538054Y-65448370D01*
X98684333Y-65488310D01*
X98816271Y-65403013D01*
X98847215Y-65356695D01*
X98877797Y-65204016D01*
X98825773Y-65068163D01*
X98704551Y-64997768D01*
X98523377Y-65015838D01*
X98412116Y-65109099D01*
X98389704Y-65246020D01*
X98001738Y-65246020D01*
X97998030Y-65145426D01*
X98017220Y-65021751D01*
X98071514Y-64923594D01*
X98169874Y-64811573D01*
X98174248Y-64806928D01*
X98398174Y-64647237D01*
X98640023Y-64595582D01*
X98873646Y-64641325D01*
X99072894Y-64773829D01*
X99211619Y-64982455D01*
X99253692Y-65204016D01*
X99263671Y-65256564D01*
G37*
G36*
X98692171Y-70126050D02*
G01*
X98690313Y-70257268D01*
X98689843Y-70290491D01*
X98669973Y-70399571D01*
X98613078Y-70441144D01*
X98499679Y-70447768D01*
X98422000Y-70443652D01*
X98308360Y-70396266D01*
X98275209Y-70289983D01*
X98400448Y-70289983D01*
X98466174Y-70320768D01*
X98513485Y-70312996D01*
X98565171Y-70257268D01*
X98563461Y-70242202D01*
X98505419Y-70193768D01*
X98487604Y-70196190D01*
X98406421Y-70257268D01*
X98400448Y-70289983D01*
X98275209Y-70289983D01*
X98271479Y-70278026D01*
X98299723Y-70066768D01*
X98316465Y-70003268D01*
X98438171Y-70003268D01*
X98440017Y-70018446D01*
X98501671Y-70066768D01*
X98516850Y-70064922D01*
X98565171Y-70003268D01*
X98563326Y-69988089D01*
X98501671Y-69939768D01*
X98486493Y-69941613D01*
X98438171Y-70003268D01*
X98316465Y-70003268D01*
X98324584Y-69972472D01*
X98393670Y-69864611D01*
X98519805Y-69824425D01*
X98604736Y-69818381D01*
X98664896Y-69844633D01*
X98688249Y-69937054D01*
X98689623Y-70003268D01*
X98692171Y-70126050D01*
G37*
G36*
X104541122Y-66880011D02*
G01*
X104776343Y-66940372D01*
X104926124Y-67087198D01*
X104978671Y-67309823D01*
X104971798Y-67399738D01*
X104878303Y-67611926D01*
X104670262Y-67775903D01*
X104657546Y-67783547D01*
X104609152Y-67841909D01*
X104577801Y-67954337D01*
X104559021Y-68145127D01*
X104548344Y-68438570D01*
X104546654Y-68566974D01*
X104552432Y-68823343D01*
X104570131Y-69003668D01*
X104597803Y-69082599D01*
X104637809Y-69142346D01*
X104661171Y-69276765D01*
X104660623Y-69302297D01*
X104623534Y-69405274D01*
X104502421Y-69431768D01*
X104473166Y-69431097D01*
X104369899Y-69393859D01*
X104343671Y-69273018D01*
X104359374Y-69168611D01*
X104406918Y-69114268D01*
X104420640Y-69102554D01*
X104445174Y-68992112D01*
X104458731Y-68778688D01*
X104459932Y-68478806D01*
X104449699Y-67843344D01*
X104237935Y-67681824D01*
X104172087Y-67624853D01*
X104043582Y-67430760D01*
X104021555Y-67231238D01*
X104096812Y-67054185D01*
X104260165Y-66927496D01*
X104502422Y-66879067D01*
X104541122Y-66880011D01*
G37*
G36*
X90963472Y-66840908D02*
G01*
X91294421Y-66860018D01*
X91311717Y-68096396D01*
X91312206Y-68132321D01*
X91315707Y-68516704D01*
X91315800Y-68858050D01*
X91312704Y-69135374D01*
X91306642Y-69327693D01*
X91297835Y-69414021D01*
X91284576Y-69432961D01*
X91166349Y-69478910D01*
X90949464Y-69495268D01*
X90632270Y-69495268D01*
X90614096Y-68898044D01*
X90595921Y-68300821D01*
X90180070Y-68882169D01*
X89764219Y-69463518D01*
X89370445Y-69482423D01*
X89184679Y-69486377D01*
X89034341Y-69478517D01*
X88976671Y-69459626D01*
X88998481Y-69416236D01*
X89082023Y-69287320D01*
X89213572Y-69097329D01*
X89377541Y-68869221D01*
X89505120Y-68693829D01*
X89658001Y-68481418D01*
X89771870Y-68320530D01*
X89828618Y-68236563D01*
X89831139Y-68195177D01*
X89772766Y-68048615D01*
X89636225Y-67812190D01*
X89423977Y-67490438D01*
X88969127Y-66828268D01*
X89374993Y-66828268D01*
X89780859Y-66828268D01*
X90188390Y-67415643D01*
X90595921Y-68003018D01*
X90614222Y-67412408D01*
X90632523Y-66821799D01*
X90963472Y-66840908D01*
G37*
G36*
X100422546Y-66840824D02*
G01*
X100755921Y-66860018D01*
X100747957Y-67308249D01*
X100739642Y-67480809D01*
X100701272Y-67757390D01*
X100639112Y-67951560D01*
X100624977Y-67977410D01*
X100499943Y-68149003D01*
X100339163Y-68311164D01*
X100178183Y-68431912D01*
X100052549Y-68479268D01*
X100018378Y-68491765D01*
X99984653Y-68565355D01*
X99967167Y-68723498D01*
X99962171Y-68987268D01*
X99962171Y-69495268D01*
X99612921Y-69495268D01*
X99263671Y-69495268D01*
X99263671Y-68987268D01*
X99260668Y-68763365D01*
X99246685Y-68590530D01*
X99217401Y-68503332D01*
X99168604Y-68479268D01*
X99064025Y-68444840D01*
X98904806Y-68327806D01*
X98739360Y-68158502D01*
X98598345Y-67969055D01*
X98512418Y-67791595D01*
X98487676Y-67688468D01*
X98452136Y-67440854D01*
X98438171Y-67186025D01*
X98438171Y-66828268D01*
X98787421Y-66828268D01*
X99136671Y-66828268D01*
X99136671Y-67251892D01*
X99138020Y-67350577D01*
X99167251Y-67621451D01*
X99244150Y-67792562D01*
X99381231Y-67881977D01*
X99591013Y-67907768D01*
X99634124Y-67907016D01*
X99850339Y-67865880D01*
X99990638Y-67750857D01*
X100066442Y-67546584D01*
X100089171Y-67237699D01*
X100089171Y-66821631D01*
X100422546Y-66840824D01*
G37*
G36*
X92421068Y-70936721D02*
G01*
X92511525Y-70965268D01*
X92600608Y-71053763D01*
X92665483Y-71231352D01*
X92764443Y-71524996D01*
X92979245Y-71983467D01*
X93263077Y-72460708D01*
X93595980Y-72924141D01*
X93957997Y-73341189D01*
X93976872Y-73360740D01*
X94210588Y-73604012D01*
X94456161Y-73861313D01*
X94663415Y-74080084D01*
X94805292Y-74216815D01*
X95051445Y-74426266D01*
X95338508Y-74649702D01*
X95629373Y-74857269D01*
X95906119Y-75051214D01*
X96163313Y-75254850D01*
X96352807Y-75441309D01*
X96499653Y-75632918D01*
X96602068Y-75801279D01*
X96658790Y-75925008D01*
X96654312Y-75972268D01*
X96539719Y-75952395D01*
X96328297Y-75890365D01*
X96056404Y-75796884D01*
X95753118Y-75682920D01*
X95447516Y-75559439D01*
X95168675Y-75437409D01*
X94945671Y-75327797D01*
X94214784Y-74871024D01*
X93508597Y-74299168D01*
X92868598Y-73644063D01*
X92314361Y-72925812D01*
X91865461Y-72164517D01*
X91851927Y-72137166D01*
X91764673Y-71948633D01*
X91664227Y-71716929D01*
X91563545Y-71473898D01*
X91475587Y-71251384D01*
X91413310Y-71081229D01*
X91389671Y-70995278D01*
X91398624Y-70987619D01*
X91495221Y-70967745D01*
X91669196Y-70949710D01*
X91884660Y-70935553D01*
X92105720Y-70927311D01*
X92296487Y-70927021D01*
X92421068Y-70936721D01*
G37*
G36*
X97021842Y-67094974D02*
G01*
X97383513Y-67114018D01*
X97815592Y-67743640D01*
X97865367Y-67816379D01*
X98036260Y-68073258D01*
X98147463Y-68261046D01*
X98211450Y-68406784D01*
X98240695Y-68537510D01*
X98247671Y-68680265D01*
X98247671Y-68987268D01*
X97707921Y-68987268D01*
X97168171Y-68987268D01*
X97168171Y-69241268D01*
X97168171Y-69495268D01*
X96850671Y-69495268D01*
X96533171Y-69495268D01*
X96533171Y-69241268D01*
X96532675Y-69166318D01*
X96516459Y-69042436D01*
X96453220Y-68994957D01*
X96310921Y-68987268D01*
X96215626Y-68985693D01*
X96126790Y-68961295D01*
X96093625Y-68879513D01*
X96088671Y-68705541D01*
X96089705Y-68603151D01*
X96107454Y-68478516D01*
X96167390Y-68424543D01*
X96295046Y-68403916D01*
X96407746Y-68385775D01*
X96490533Y-68323115D01*
X96521320Y-68177643D01*
X96534309Y-68076942D01*
X96572679Y-68003733D01*
X96667762Y-67975758D01*
X96854695Y-67971268D01*
X97168171Y-67971268D01*
X97168171Y-68193518D01*
X97176255Y-68328967D01*
X97222168Y-68400357D01*
X97334225Y-68415768D01*
X97500278Y-68415768D01*
X97387019Y-68241143D01*
X97372225Y-68218555D01*
X97269288Y-68065667D01*
X97125430Y-67855989D01*
X96966965Y-67627934D01*
X96916405Y-67554879D01*
X96785573Y-67357573D01*
X96694402Y-67207527D01*
X96660171Y-67132640D01*
X96695699Y-67110071D01*
X96827004Y-67093708D01*
X97021842Y-67094974D01*
G37*
G36*
X92657839Y-66836207D02*
G01*
X92911857Y-66858714D01*
X93084163Y-66895807D01*
X93095343Y-66900216D01*
X93268830Y-66997191D01*
X93437546Y-67129938D01*
X93441648Y-67133864D01*
X93549215Y-67261359D01*
X93599641Y-67405996D01*
X93612171Y-67622018D01*
X93612148Y-67635304D01*
X93598514Y-67845277D01*
X93546697Y-67985782D01*
X93437546Y-68110378D01*
X93337681Y-68198454D01*
X93170036Y-68313039D01*
X92970598Y-68397483D01*
X92692266Y-68474817D01*
X92605831Y-68497051D01*
X92377086Y-68576595D01*
X92252722Y-68666605D01*
X92215171Y-68778257D01*
X92227000Y-68811668D01*
X92285780Y-68839622D01*
X92411925Y-68854011D01*
X92625233Y-68856776D01*
X92945505Y-68849857D01*
X93675838Y-68828518D01*
X93675755Y-69124851D01*
X93674004Y-69194713D01*
X93647832Y-69370806D01*
X93596296Y-69453213D01*
X93498652Y-69474238D01*
X93288759Y-69489660D01*
X93018126Y-69493019D01*
X92723595Y-69485409D01*
X92442010Y-69467924D01*
X92210212Y-69441661D01*
X92065044Y-69407712D01*
X91801666Y-69238758D01*
X91636654Y-68995100D01*
X91580171Y-68688069D01*
X91607609Y-68479858D01*
X91733695Y-68250915D01*
X91967981Y-68073346D01*
X92316909Y-67940615D01*
X92541755Y-67876659D01*
X92766577Y-67802755D01*
X92899414Y-67739403D01*
X92959052Y-67676874D01*
X92964277Y-67605444D01*
X92947850Y-67564504D01*
X92894121Y-67528707D01*
X92782386Y-67508221D01*
X92589672Y-67499385D01*
X92293006Y-67498543D01*
X91643671Y-67502069D01*
X91643671Y-67204856D01*
X91644969Y-67093385D01*
X91663232Y-66963675D01*
X91721360Y-66901410D01*
X91842109Y-66867955D01*
X91851108Y-66866199D01*
X92082905Y-66838950D01*
X92366669Y-66829286D01*
X92657839Y-66836207D01*
G37*
G36*
X101063389Y-70830717D02*
G01*
X101498398Y-70843100D01*
X101981775Y-70865050D01*
X102529135Y-70897019D01*
X103156096Y-70939454D01*
X103878273Y-70992807D01*
X104711282Y-71057526D01*
X104882644Y-71070419D01*
X105029203Y-71089866D01*
X105110669Y-71131288D01*
X105130111Y-71213663D01*
X105090600Y-71355965D01*
X104995208Y-71577170D01*
X104847004Y-71896253D01*
X104570003Y-72434469D01*
X104051863Y-73222226D01*
X103441862Y-73928414D01*
X102747742Y-74547273D01*
X101977247Y-75073041D01*
X101138122Y-75499958D01*
X100238108Y-75822262D01*
X99284951Y-76034193D01*
X99203219Y-76044168D01*
X98954174Y-76059218D01*
X98632213Y-76066034D01*
X98270640Y-76065189D01*
X97902759Y-76057254D01*
X97561875Y-76042800D01*
X97281291Y-76022397D01*
X97094313Y-75996618D01*
X96990428Y-75965381D01*
X96955579Y-75903280D01*
X96991365Y-75769782D01*
X97021660Y-75646973D01*
X97022237Y-75320489D01*
X96933952Y-74930638D01*
X96759686Y-74493293D01*
X96634523Y-74212715D01*
X96488156Y-73796317D01*
X96430421Y-73467371D01*
X96461654Y-73227301D01*
X96521002Y-73131449D01*
X96664911Y-72976391D01*
X96848564Y-72824469D01*
X96996421Y-72712615D01*
X97120498Y-72605626D01*
X97168171Y-72545551D01*
X97173178Y-72530064D01*
X97232082Y-72429120D01*
X97343281Y-72263312D01*
X97489119Y-72059383D01*
X97578895Y-71935755D01*
X97702443Y-71750453D01*
X97769136Y-71610176D01*
X97793671Y-71478939D01*
X97790744Y-71320751D01*
X97786429Y-71264057D01*
X97780171Y-71166941D01*
X97790624Y-71094735D01*
X97833471Y-71042277D01*
X97924397Y-71004404D01*
X98079087Y-70975953D01*
X98313225Y-70951760D01*
X98642497Y-70926662D01*
X99082586Y-70895496D01*
X99494697Y-70867880D01*
X99892401Y-70846485D01*
X100276007Y-70832859D01*
X100661130Y-70827454D01*
X101063389Y-70830717D01*
G37*
G36*
X101748210Y-62698303D02*
G01*
X102527974Y-63198585D01*
X103253622Y-63809309D01*
X103495834Y-64048769D01*
X103964171Y-64572396D01*
X104354557Y-65110423D01*
X104696188Y-65701143D01*
X104984651Y-66256768D01*
X104584786Y-66264287D01*
X104393259Y-66266458D01*
X104216359Y-66265236D01*
X104125516Y-66260361D01*
X104106623Y-66258341D01*
X103980794Y-66251055D01*
X103761962Y-66241368D01*
X103474349Y-66230304D01*
X103142177Y-66218883D01*
X102218242Y-66188852D01*
X102234357Y-66016435D01*
X102223131Y-65902807D01*
X102181226Y-65716047D01*
X102117554Y-65485124D01*
X102041141Y-65237866D01*
X101961012Y-65002099D01*
X101886192Y-64805651D01*
X101825708Y-64676349D01*
X101788584Y-64642022D01*
X101787930Y-64642589D01*
X101776273Y-64597641D01*
X101773635Y-64460237D01*
X101778456Y-64263201D01*
X101789178Y-64039361D01*
X101804242Y-63821541D01*
X101822087Y-63642569D01*
X101841155Y-63535270D01*
X101898399Y-63485515D01*
X102050485Y-63476557D01*
X102269624Y-63521842D01*
X102531032Y-63618384D01*
X102610352Y-63653114D01*
X102718123Y-63694732D01*
X102738544Y-63683532D01*
X102691140Y-63619672D01*
X102684873Y-63612483D01*
X102570774Y-63512224D01*
X102379541Y-63369029D01*
X102140449Y-63202344D01*
X101882770Y-63031614D01*
X101635781Y-62876286D01*
X101428755Y-62755803D01*
X101290966Y-62689612D01*
X101212752Y-62669050D01*
X101076755Y-62666697D01*
X100893603Y-62705257D01*
X100628798Y-62789958D01*
X100565577Y-62811731D01*
X100307212Y-62897642D01*
X100147520Y-62941002D01*
X100069370Y-62943009D01*
X100055631Y-62904864D01*
X100089171Y-62827767D01*
X100096442Y-62813976D01*
X100120781Y-62738611D01*
X100069411Y-62707477D01*
X99916781Y-62701923D01*
X99703757Y-62737344D01*
X99574241Y-62802818D01*
X99396991Y-62892423D01*
X99136267Y-63030863D01*
X98898072Y-63081767D01*
X98803281Y-63085101D01*
X98716610Y-63113453D01*
X98717128Y-63182211D01*
X98734885Y-63234626D01*
X98755671Y-63336898D01*
X98767251Y-63359566D01*
X98858093Y-63437916D01*
X99009671Y-63533897D01*
X99084375Y-63579076D01*
X99212852Y-63676970D01*
X99263671Y-63748551D01*
X99245211Y-63784867D01*
X99141897Y-63880312D01*
X98975549Y-64000862D01*
X98778096Y-64126649D01*
X98581468Y-64237805D01*
X98417594Y-64314461D01*
X98318402Y-64336750D01*
X98294161Y-64328951D01*
X98247504Y-64273413D01*
X98227115Y-64146584D01*
X98226955Y-63921009D01*
X98229493Y-63728434D01*
X98217416Y-63597031D01*
X98181240Y-63539186D01*
X98112677Y-63526268D01*
X98109996Y-63526289D01*
X97965242Y-63556295D01*
X97794287Y-63626112D01*
X97782095Y-63632255D01*
X97624669Y-63687405D01*
X97508017Y-63690195D01*
X97501151Y-63687896D01*
X97364790Y-63700825D01*
X97166593Y-63785538D01*
X96934695Y-63927404D01*
X96697228Y-64111795D01*
X96448535Y-64328069D01*
X96649603Y-64471242D01*
X96738409Y-64545474D01*
X96834549Y-64687829D01*
X96831037Y-64811122D01*
X96723671Y-64891518D01*
X96649527Y-64931855D01*
X96596671Y-65020562D01*
X96604222Y-65055252D01*
X96685151Y-65149144D01*
X96807748Y-65212452D01*
X96912901Y-65209803D01*
X96959022Y-65199069D01*
X97075909Y-65239447D01*
X97184084Y-65330622D01*
X97231671Y-65435812D01*
X97272383Y-65525512D01*
X97387383Y-65620142D01*
X97535879Y-65760486D01*
X97639206Y-65999453D01*
X97676171Y-66305060D01*
X97676171Y-66524901D01*
X97438046Y-66479083D01*
X97153442Y-66429688D01*
X96830777Y-66387800D01*
X96475856Y-66357630D01*
X96065024Y-66337671D01*
X95574628Y-66326412D01*
X94981013Y-66322345D01*
X94885640Y-66322027D01*
X94449441Y-66316743D01*
X93992890Y-66305838D01*
X93534404Y-66290282D01*
X93092400Y-66271045D01*
X92685294Y-66249095D01*
X92331503Y-66225403D01*
X92049444Y-66200936D01*
X91857534Y-66176666D01*
X91774189Y-66153560D01*
X91780295Y-66089034D01*
X91840780Y-65937906D01*
X91945008Y-65725207D01*
X92080631Y-65474704D01*
X92235302Y-65210163D01*
X92396674Y-64955352D01*
X92528212Y-64771183D01*
X92828570Y-64406717D01*
X93186777Y-64022297D01*
X93571497Y-63649178D01*
X93947809Y-63321736D01*
X96189842Y-63321736D01*
X96196199Y-63403788D01*
X96282988Y-63419589D01*
X96458215Y-63357799D01*
X96547892Y-63306734D01*
X97580921Y-63306734D01*
X97586637Y-63355452D01*
X97648179Y-63418050D01*
X97803171Y-63440980D01*
X97970756Y-63443759D01*
X98137083Y-63422227D01*
X98198366Y-63364238D01*
X98166181Y-63264151D01*
X98148604Y-63233721D01*
X98128696Y-63134482D01*
X98212183Y-63046150D01*
X98323469Y-62989916D01*
X98501671Y-62954768D01*
X98630418Y-62933491D01*
X98791160Y-62855206D01*
X98848146Y-62802818D01*
X98840054Y-62775986D01*
X98743857Y-62772762D01*
X98540461Y-62788030D01*
X98276847Y-62835794D01*
X98015756Y-62927547D01*
X97793460Y-63047043D01*
X97638876Y-63178650D01*
X97580921Y-63306734D01*
X96547892Y-63306734D01*
X96706546Y-63216391D01*
X97018451Y-63000045D01*
X97092044Y-62945941D01*
X97391830Y-62738414D01*
X97626012Y-62604146D01*
X97816892Y-62531857D01*
X97986771Y-62510268D01*
X98140002Y-62490440D01*
X98228300Y-62408560D01*
X98217087Y-62271699D01*
X98323539Y-62271699D01*
X98426463Y-62404422D01*
X98433323Y-62408560D01*
X98567826Y-62489697D01*
X98751222Y-62550653D01*
X98757614Y-62551928D01*
X98893243Y-62571626D01*
X98935940Y-62541041D01*
X98915269Y-62440282D01*
X98871485Y-62335101D01*
X98718227Y-62181613D01*
X98489535Y-62129268D01*
X98454152Y-62130558D01*
X98333976Y-62175141D01*
X98323539Y-62271699D01*
X98217087Y-62271699D01*
X98215788Y-62255847D01*
X98135046Y-62145248D01*
X97965900Y-62088378D01*
X97701321Y-62090715D01*
X97332298Y-62151192D01*
X97243693Y-62170393D01*
X96919179Y-62256988D01*
X96694964Y-62353701D01*
X96549292Y-62472350D01*
X96460407Y-62624751D01*
X96439721Y-62676414D01*
X96360061Y-62866492D01*
X96269202Y-63074995D01*
X96231335Y-63169180D01*
X96189842Y-63321736D01*
X93947809Y-63321736D01*
X93951393Y-63318617D01*
X94295128Y-63061866D01*
X94766385Y-62772459D01*
X95617734Y-62359055D01*
X96495266Y-62062793D01*
X97388944Y-61882836D01*
X98288731Y-61818345D01*
X99184588Y-61868484D01*
X100066479Y-62032415D01*
X100924365Y-62309300D01*
X101415155Y-62541041D01*
X101748210Y-62698303D01*
G37*
G36*
X109722500Y-89152392D02*
G01*
X109722500Y-89554931D01*
X110086250Y-89554931D01*
X110450000Y-89554931D01*
X110450000Y-89152392D01*
X110450000Y-88749852D01*
X110583750Y-88749852D01*
X110717500Y-88749852D01*
X110717500Y-89733699D01*
X110717500Y-90717546D01*
X110583750Y-90717546D01*
X110450000Y-90717546D01*
X110450000Y-90248750D01*
X110450000Y-89779953D01*
X110086250Y-89779953D01*
X109722500Y-89779953D01*
X109722500Y-90248750D01*
X109722500Y-90717546D01*
X109588750Y-90717546D01*
X109455000Y-90717546D01*
X109455000Y-89733699D01*
X109455000Y-88749852D01*
X109588750Y-88749852D01*
X109722500Y-88749852D01*
X109722500Y-89152392D01*
G37*
G36*
X106938337Y-88624215D02*
G01*
X106938426Y-88669729D01*
X106938576Y-88745821D01*
X106938732Y-88826125D01*
X106938896Y-88910157D01*
X106939065Y-88997433D01*
X106939239Y-89087470D01*
X106939417Y-89179784D01*
X106939597Y-89273890D01*
X106939780Y-89369306D01*
X106939964Y-89465547D01*
X106940148Y-89562128D01*
X106940331Y-89658568D01*
X106940513Y-89754380D01*
X106940692Y-89849083D01*
X106940868Y-89942191D01*
X106941039Y-90033222D01*
X106941205Y-90121690D01*
X106941364Y-90207113D01*
X106941517Y-90289006D01*
X106941661Y-90366886D01*
X106943324Y-91267600D01*
X110750412Y-91267600D01*
X114557500Y-91267600D01*
X114557500Y-89693695D01*
X114557500Y-88119790D01*
X111317500Y-88119790D01*
X108077500Y-88119790D01*
X108077500Y-87951023D01*
X108077500Y-87782257D01*
X111486250Y-87782257D01*
X114895000Y-87782257D01*
X114895000Y-89694945D01*
X114895000Y-91607633D01*
X110750000Y-91607633D01*
X106605000Y-91607633D01*
X106605000Y-89694945D01*
X106605000Y-87782257D01*
X106770839Y-87782257D01*
X106936677Y-87782257D01*
X106938337Y-88624215D01*
G37*
G36*
X112248330Y-92461474D02*
G01*
X112259429Y-92461657D01*
X112267469Y-92462290D01*
X112273906Y-92463640D01*
X112280193Y-92465973D01*
X112287783Y-92469555D01*
X112306338Y-92481050D01*
X112322564Y-92496308D01*
X112335171Y-92514183D01*
X112343960Y-92534061D01*
X112348731Y-92555328D01*
X112349286Y-92577366D01*
X112345425Y-92599562D01*
X112336949Y-92621300D01*
X112326253Y-92637344D01*
X112311784Y-92651749D01*
X112294761Y-92663480D01*
X112276386Y-92671541D01*
X112275224Y-92671874D01*
X112267066Y-92673369D01*
X112256324Y-92674472D01*
X112245000Y-92674964D01*
X112240093Y-92674951D01*
X112218892Y-92673006D01*
X112200505Y-92667660D01*
X112183906Y-92658512D01*
X112168065Y-92645167D01*
X112154298Y-92629415D01*
X112143447Y-92610946D01*
X112137116Y-92590988D01*
X112135060Y-92568978D01*
X112135367Y-92560678D01*
X112139420Y-92538239D01*
X112147930Y-92517529D01*
X112160573Y-92499058D01*
X112177028Y-92483334D01*
X112196976Y-92470866D01*
X112202077Y-92468368D01*
X112209421Y-92465077D01*
X112215749Y-92463044D01*
X112222564Y-92461966D01*
X112231371Y-92461542D01*
X112243673Y-92461467D01*
X112248330Y-92461474D01*
G37*
G36*
X111255786Y-92461474D02*
G01*
X111266891Y-92461657D01*
X111274938Y-92462289D01*
X111281380Y-92463639D01*
X111287672Y-92465972D01*
X111295270Y-92469555D01*
X111310320Y-92478455D01*
X111327444Y-92493294D01*
X111340954Y-92510987D01*
X111350586Y-92530946D01*
X111356072Y-92552582D01*
X111357147Y-92575305D01*
X111353544Y-92598527D01*
X111348383Y-92613923D01*
X111338953Y-92630895D01*
X111325406Y-92646700D01*
X111319748Y-92651945D01*
X111303104Y-92663579D01*
X111283750Y-92671733D01*
X111281988Y-92672237D01*
X111271066Y-92674061D01*
X111257466Y-92674887D01*
X111243024Y-92674723D01*
X111229577Y-92673577D01*
X111218962Y-92671456D01*
X111213415Y-92669591D01*
X111193889Y-92659896D01*
X111176753Y-92646453D01*
X111162530Y-92629961D01*
X111151737Y-92611115D01*
X111144897Y-92590612D01*
X111142530Y-92569149D01*
X111142833Y-92561052D01*
X111146869Y-92538464D01*
X111155361Y-92517660D01*
X111167998Y-92499130D01*
X111184471Y-92483368D01*
X111204469Y-92470866D01*
X111209564Y-92468371D01*
X111216907Y-92465078D01*
X111223234Y-92463044D01*
X111230048Y-92461966D01*
X111238853Y-92461542D01*
X111251154Y-92461467D01*
X111255786Y-92461474D01*
G37*
G36*
X107228125Y-91970267D02*
G01*
X107311250Y-91970365D01*
X107445000Y-91999743D01*
X107578750Y-92029120D01*
X107579413Y-92103405D01*
X107579463Y-92109794D01*
X107579530Y-92127982D01*
X107579479Y-92144239D01*
X107579320Y-92157953D01*
X107579060Y-92168508D01*
X107578711Y-92175292D01*
X107578281Y-92177689D01*
X107577307Y-92177514D01*
X107572021Y-92176395D01*
X107562565Y-92174331D01*
X107549388Y-92171421D01*
X107532941Y-92167765D01*
X107513672Y-92163463D01*
X107492033Y-92158616D01*
X107468473Y-92153324D01*
X107443442Y-92147686D01*
X107428976Y-92144426D01*
X107404751Y-92138975D01*
X107382263Y-92133927D01*
X107361962Y-92129380D01*
X107344296Y-92125436D01*
X107329713Y-92122194D01*
X107318662Y-92119755D01*
X107311591Y-92118218D01*
X107308948Y-92117684D01*
X107308837Y-92119033D01*
X107308690Y-92125030D01*
X107308548Y-92135598D01*
X107308412Y-92150489D01*
X107308282Y-92169457D01*
X107308159Y-92192254D01*
X107308045Y-92218634D01*
X107307939Y-92248348D01*
X107307843Y-92281151D01*
X107307756Y-92316795D01*
X107307681Y-92355032D01*
X107307618Y-92395616D01*
X107307568Y-92438300D01*
X107307531Y-92482837D01*
X107307508Y-92528979D01*
X107307500Y-92576479D01*
X107307500Y-93035274D01*
X107433750Y-93035274D01*
X107560000Y-93035274D01*
X107560000Y-93104031D01*
X107560000Y-93172787D01*
X107227500Y-93172787D01*
X106895000Y-93172787D01*
X106895000Y-93104031D01*
X106895000Y-93035274D01*
X107020000Y-93035274D01*
X107145000Y-93035274D01*
X107145000Y-92502721D01*
X107145000Y-91970169D01*
X107228125Y-91970267D01*
G37*
G36*
X108220625Y-91970267D02*
G01*
X108303750Y-91970365D01*
X108437500Y-91999743D01*
X108571250Y-92029120D01*
X108571913Y-92103405D01*
X108571963Y-92109794D01*
X108572030Y-92127982D01*
X108571979Y-92144239D01*
X108571820Y-92157953D01*
X108571560Y-92168508D01*
X108571211Y-92175292D01*
X108570781Y-92177689D01*
X108569807Y-92177514D01*
X108564521Y-92176395D01*
X108555065Y-92174331D01*
X108541888Y-92171421D01*
X108525441Y-92167765D01*
X108506172Y-92163463D01*
X108484533Y-92158616D01*
X108460973Y-92153324D01*
X108435942Y-92147686D01*
X108421476Y-92144426D01*
X108397251Y-92138975D01*
X108374763Y-92133927D01*
X108354462Y-92129380D01*
X108336796Y-92125436D01*
X108322213Y-92122194D01*
X108311162Y-92119755D01*
X108304091Y-92118218D01*
X108301448Y-92117684D01*
X108301337Y-92119033D01*
X108301190Y-92125030D01*
X108301048Y-92135598D01*
X108300912Y-92150489D01*
X108300782Y-92169457D01*
X108300659Y-92192254D01*
X108300545Y-92218634D01*
X108300439Y-92248348D01*
X108300343Y-92281151D01*
X108300256Y-92316795D01*
X108300181Y-92355032D01*
X108300118Y-92395616D01*
X108300068Y-92438300D01*
X108300031Y-92482837D01*
X108300008Y-92528979D01*
X108300000Y-92576479D01*
X108300000Y-93035274D01*
X108426250Y-93035274D01*
X108552500Y-93035274D01*
X108552500Y-93104031D01*
X108552500Y-93172787D01*
X108220000Y-93172787D01*
X107887500Y-93172787D01*
X107887500Y-93104031D01*
X107887500Y-93035274D01*
X108012500Y-93035274D01*
X108137500Y-93035274D01*
X108137500Y-92502721D01*
X108137500Y-91970169D01*
X108220625Y-91970267D01*
G37*
G36*
X110321292Y-91949449D02*
G01*
X110341969Y-91950020D01*
X110360288Y-91950996D01*
X110375000Y-91952377D01*
X110415764Y-91958982D01*
X110460780Y-91969170D01*
X110506742Y-91982324D01*
X110552392Y-91998084D01*
X110596475Y-92016087D01*
X110621250Y-92027067D01*
X110621909Y-92109983D01*
X110622568Y-92192898D01*
X110604409Y-92182580D01*
X110601855Y-92181142D01*
X110587644Y-92173484D01*
X110570824Y-92164856D01*
X110552397Y-92155734D01*
X110533367Y-92146593D01*
X110514734Y-92137911D01*
X110497503Y-92130161D01*
X110482674Y-92123821D01*
X110471250Y-92119366D01*
X110451045Y-92112471D01*
X110405242Y-92099400D01*
X110361655Y-92090664D01*
X110320332Y-92086266D01*
X110281323Y-92086210D01*
X110244676Y-92090500D01*
X110210441Y-92099140D01*
X110201175Y-92102387D01*
X110172819Y-92115406D01*
X110148043Y-92131912D01*
X110126832Y-92151920D01*
X110109174Y-92175444D01*
X110095054Y-92202499D01*
X110084458Y-92233101D01*
X110081960Y-92245052D01*
X110079844Y-92262621D01*
X110078648Y-92282630D01*
X110078384Y-92303737D01*
X110079066Y-92324598D01*
X110080705Y-92343869D01*
X110083313Y-92360207D01*
X110084021Y-92363405D01*
X110091011Y-92388301D01*
X110100874Y-92413981D01*
X110113809Y-92440797D01*
X110130017Y-92469101D01*
X110149698Y-92499248D01*
X110173051Y-92531589D01*
X110200278Y-92566478D01*
X110203225Y-92570119D01*
X110212181Y-92580991D01*
X110222191Y-92592869D01*
X110233406Y-92605914D01*
X110245976Y-92620291D01*
X110260050Y-92636162D01*
X110275779Y-92653691D01*
X110293312Y-92673041D01*
X110312800Y-92694375D01*
X110334391Y-92717856D01*
X110358237Y-92743648D01*
X110384487Y-92771913D01*
X110413291Y-92802815D01*
X110444798Y-92836518D01*
X110479160Y-92873183D01*
X110516525Y-92912976D01*
X110557043Y-92956058D01*
X110600866Y-93002592D01*
X110632500Y-93036167D01*
X110632500Y-93104477D01*
X110632500Y-93172787D01*
X110266250Y-93172787D01*
X109900000Y-93172787D01*
X109900000Y-93104042D01*
X109900000Y-93035296D01*
X110176266Y-93034660D01*
X110452532Y-93034024D01*
X110410641Y-92990124D01*
X110401501Y-92980535D01*
X110384377Y-92962530D01*
X110365200Y-92942327D01*
X110344657Y-92920652D01*
X110323437Y-92898234D01*
X110302228Y-92875798D01*
X110281717Y-92854074D01*
X110262591Y-92833787D01*
X110245540Y-92815666D01*
X110231250Y-92800437D01*
X110229101Y-92798139D01*
X110216466Y-92784550D01*
X110201998Y-92768877D01*
X110186174Y-92751644D01*
X110169467Y-92733375D01*
X110152352Y-92714593D01*
X110135305Y-92695821D01*
X110118799Y-92677584D01*
X110103310Y-92660405D01*
X110089313Y-92644806D01*
X110077282Y-92631312D01*
X110067691Y-92620446D01*
X110061017Y-92612732D01*
X110049149Y-92598560D01*
X110018266Y-92559612D01*
X109991604Y-92522524D01*
X109969006Y-92486958D01*
X109950316Y-92452578D01*
X109935378Y-92419044D01*
X109924035Y-92386021D01*
X109916131Y-92353170D01*
X109911510Y-92320153D01*
X109910015Y-92286635D01*
X109910682Y-92263167D01*
X109915243Y-92222494D01*
X109924132Y-92184316D01*
X109937354Y-92148614D01*
X109954914Y-92115371D01*
X109976819Y-92084571D01*
X109998188Y-92060566D01*
X110028705Y-92032770D01*
X110062267Y-92008903D01*
X110098901Y-91988953D01*
X110138634Y-91972905D01*
X110181492Y-91960746D01*
X110227500Y-91952462D01*
X110239942Y-91951202D01*
X110257581Y-91950160D01*
X110277851Y-91949520D01*
X110299504Y-91949283D01*
X110321292Y-91949449D01*
G37*
G36*
X114013246Y-92430839D02*
G01*
X114013315Y-92463927D01*
X114013429Y-92518758D01*
X114013539Y-92568937D01*
X114013650Y-92614688D01*
X114013768Y-92656233D01*
X114013898Y-92693796D01*
X114014047Y-92727598D01*
X114014219Y-92757865D01*
X114014419Y-92784817D01*
X114014655Y-92808679D01*
X114014930Y-92829673D01*
X114015252Y-92848022D01*
X114015624Y-92863950D01*
X114016053Y-92877679D01*
X114016545Y-92889432D01*
X114017105Y-92899433D01*
X114017738Y-92907903D01*
X114018450Y-92915067D01*
X114019247Y-92921147D01*
X114020133Y-92926366D01*
X114021116Y-92930948D01*
X114022200Y-92935115D01*
X114023391Y-92939090D01*
X114024694Y-92943096D01*
X114026114Y-92947356D01*
X114028737Y-92954081D01*
X114036192Y-92968431D01*
X114045979Y-92983483D01*
X114057041Y-92997681D01*
X114068322Y-93009471D01*
X114073942Y-93014411D01*
X114096001Y-93030489D01*
X114120272Y-93043106D01*
X114147250Y-93052443D01*
X114177428Y-93058682D01*
X114211297Y-93062003D01*
X114227388Y-93062502D01*
X114262389Y-93060887D01*
X114294889Y-93055552D01*
X114324670Y-93046632D01*
X114351516Y-93034258D01*
X114375209Y-93018565D01*
X114395533Y-92999686D01*
X114412270Y-92977754D01*
X114425203Y-92952902D01*
X114434115Y-92925263D01*
X114434139Y-92925158D01*
X114434676Y-92922635D01*
X114435168Y-92919702D01*
X114435619Y-92916140D01*
X114436029Y-92911732D01*
X114436403Y-92906258D01*
X114436742Y-92899500D01*
X114437048Y-92891239D01*
X114437324Y-92881257D01*
X114437573Y-92869335D01*
X114437795Y-92855254D01*
X114437995Y-92838796D01*
X114438174Y-92819742D01*
X114438335Y-92797874D01*
X114438479Y-92772972D01*
X114438610Y-92744819D01*
X114438729Y-92713196D01*
X114438839Y-92677884D01*
X114438942Y-92638665D01*
X114439041Y-92595319D01*
X114439138Y-92547629D01*
X114439236Y-92495375D01*
X114439335Y-92438340D01*
X114440138Y-91970169D01*
X114522569Y-91970169D01*
X114605000Y-91970169D01*
X114604989Y-92375834D01*
X114604984Y-92416262D01*
X114604962Y-92469327D01*
X114604920Y-92517823D01*
X114604853Y-92562001D01*
X114604757Y-92602115D01*
X114604630Y-92638417D01*
X114604468Y-92671160D01*
X114604266Y-92700595D01*
X114604021Y-92726976D01*
X114603729Y-92750554D01*
X114603386Y-92771583D01*
X114602989Y-92790314D01*
X114602534Y-92807001D01*
X114602018Y-92821895D01*
X114601435Y-92835249D01*
X114600784Y-92847316D01*
X114600059Y-92858348D01*
X114599258Y-92868598D01*
X114598376Y-92878317D01*
X114597410Y-92887759D01*
X114596004Y-92899645D01*
X114588573Y-92942488D01*
X114577829Y-92981615D01*
X114563755Y-93017062D01*
X114546335Y-93048868D01*
X114525551Y-93077069D01*
X114501387Y-93101703D01*
X114492601Y-93109216D01*
X114459044Y-93133724D01*
X114422535Y-93154204D01*
X114383067Y-93170659D01*
X114340635Y-93183090D01*
X114295232Y-93191501D01*
X114291814Y-93191938D01*
X114272743Y-93193628D01*
X114250549Y-93194616D01*
X114226747Y-93194902D01*
X114202850Y-93194485D01*
X114180373Y-93193365D01*
X114160830Y-93191542D01*
X114124054Y-93185521D01*
X114082808Y-93174904D01*
X114044515Y-93160675D01*
X114009338Y-93142978D01*
X113977440Y-93121952D01*
X113948984Y-93097741D01*
X113924133Y-93070485D01*
X113903051Y-93040326D01*
X113885900Y-93007406D01*
X113872844Y-92971866D01*
X113864045Y-92933847D01*
X113863917Y-92933088D01*
X113862226Y-92922799D01*
X113860678Y-92912737D01*
X113859265Y-92902653D01*
X113857984Y-92892299D01*
X113856825Y-92881424D01*
X113855785Y-92869781D01*
X113854856Y-92857121D01*
X113854032Y-92843194D01*
X113853306Y-92827752D01*
X113852673Y-92810545D01*
X113852127Y-92791325D01*
X113851661Y-92769843D01*
X113851268Y-92745849D01*
X113850943Y-92719096D01*
X113850679Y-92689334D01*
X113850470Y-92656313D01*
X113850310Y-92619786D01*
X113850193Y-92579503D01*
X113850112Y-92535215D01*
X113850060Y-92486674D01*
X113850033Y-92433630D01*
X113850023Y-92375834D01*
X113850000Y-91970169D01*
X113931145Y-91970169D01*
X114012289Y-91970169D01*
X114013246Y-92430839D01*
G37*
G36*
X111638709Y-92630920D02*
G01*
X111635944Y-92683065D01*
X111631330Y-92733879D01*
X111624827Y-92782749D01*
X111624740Y-92783304D01*
X111618380Y-92821019D01*
X111611679Y-92854664D01*
X111604373Y-92885160D01*
X111596194Y-92913425D01*
X111586879Y-92940377D01*
X111576162Y-92966936D01*
X111563777Y-92994020D01*
X111551360Y-93018260D01*
X111533877Y-93047335D01*
X111514681Y-93073586D01*
X111492928Y-93098255D01*
X111470490Y-93119714D01*
X111442761Y-93141222D01*
X111413142Y-93158859D01*
X111381055Y-93172916D01*
X111345922Y-93183684D01*
X111307165Y-93191451D01*
X111305401Y-93191720D01*
X111276457Y-93194511D01*
X111244822Y-93194902D01*
X111212035Y-93192977D01*
X111179638Y-93188824D01*
X111149171Y-93182531D01*
X111135043Y-93178411D01*
X111111021Y-93169394D01*
X111086442Y-93157972D01*
X111063055Y-93144912D01*
X111060624Y-93143380D01*
X111045360Y-93132305D01*
X111028682Y-93118120D01*
X111011589Y-93101820D01*
X110995082Y-93084400D01*
X110980162Y-93066855D01*
X110967828Y-93050180D01*
X110962729Y-93042277D01*
X110951973Y-93023890D01*
X110940837Y-93002918D01*
X110930045Y-92980812D01*
X110920323Y-92959027D01*
X110912395Y-92939014D01*
X110909868Y-92931919D01*
X110897101Y-92890445D01*
X110886174Y-92844977D01*
X110877120Y-92796082D01*
X110869974Y-92744329D01*
X110864773Y-92690286D01*
X110861549Y-92634520D01*
X110860829Y-92600631D01*
X111025498Y-92600631D01*
X111025778Y-92627583D01*
X111026365Y-92651930D01*
X111027273Y-92672738D01*
X111030263Y-92714939D01*
X111035881Y-92767817D01*
X111043341Y-92816153D01*
X111052663Y-92860016D01*
X111063867Y-92899477D01*
X111076974Y-92934604D01*
X111092004Y-92965467D01*
X111108978Y-92992136D01*
X111127916Y-93014680D01*
X111134655Y-93021291D01*
X111156344Y-93038486D01*
X111180171Y-93051390D01*
X111206890Y-93060440D01*
X111217631Y-93062593D01*
X111235780Y-93064516D01*
X111255242Y-93065016D01*
X111273991Y-93064063D01*
X111290000Y-93061628D01*
X111291772Y-93061214D01*
X111318225Y-93052475D01*
X111342586Y-93039404D01*
X111364862Y-93021983D01*
X111385058Y-93000192D01*
X111403183Y-92974012D01*
X111419242Y-92943425D01*
X111433243Y-92908410D01*
X111445192Y-92868948D01*
X111455096Y-92825021D01*
X111462962Y-92776608D01*
X111468796Y-92723692D01*
X111472605Y-92666252D01*
X111474397Y-92604269D01*
X111474177Y-92537725D01*
X111473312Y-92502294D01*
X111471408Y-92457765D01*
X111468597Y-92417106D01*
X111464802Y-92379700D01*
X111459947Y-92344928D01*
X111453954Y-92312172D01*
X111446745Y-92280816D01*
X111438245Y-92250241D01*
X111436601Y-92244918D01*
X111423542Y-92209450D01*
X111408092Y-92177991D01*
X111390372Y-92150634D01*
X111370506Y-92127469D01*
X111348613Y-92108587D01*
X111324817Y-92094079D01*
X111299237Y-92084037D01*
X111271997Y-92078551D01*
X111243218Y-92077712D01*
X111213020Y-92081613D01*
X111207177Y-92082910D01*
X111181166Y-92091486D01*
X111157235Y-92104248D01*
X111135357Y-92121242D01*
X111115506Y-92142516D01*
X111097658Y-92168115D01*
X111081786Y-92198089D01*
X111067864Y-92232483D01*
X111055867Y-92271346D01*
X111045770Y-92314723D01*
X111037546Y-92362663D01*
X111031169Y-92415213D01*
X111030950Y-92417483D01*
X111029476Y-92436517D01*
X111028210Y-92459484D01*
X111027167Y-92485451D01*
X111026360Y-92513483D01*
X111025803Y-92542647D01*
X111025512Y-92572007D01*
X111025498Y-92600631D01*
X110860829Y-92600631D01*
X110860339Y-92577599D01*
X110861176Y-92520092D01*
X110864096Y-92462566D01*
X110869133Y-92405590D01*
X110876322Y-92349731D01*
X110879481Y-92330397D01*
X110888839Y-92285256D01*
X110900659Y-92241428D01*
X110914690Y-92199619D01*
X110930679Y-92160540D01*
X110948374Y-92124897D01*
X110967524Y-92093400D01*
X110967543Y-92093372D01*
X110978014Y-92079202D01*
X110990933Y-92063669D01*
X111005256Y-92047878D01*
X111019939Y-92032934D01*
X111033940Y-92019943D01*
X111046215Y-92010010D01*
X111075337Y-91991311D01*
X111110656Y-91974173D01*
X111148551Y-91961172D01*
X111188750Y-91952419D01*
X111191016Y-91952081D01*
X111205881Y-91950592D01*
X111224096Y-91949685D01*
X111244298Y-91949349D01*
X111265123Y-91949571D01*
X111285209Y-91950341D01*
X111303191Y-91951647D01*
X111317707Y-91953479D01*
X111325802Y-91954951D01*
X111364557Y-91964906D01*
X111401108Y-91979230D01*
X111435208Y-91997793D01*
X111466609Y-92020465D01*
X111495063Y-92047115D01*
X111505618Y-92058832D01*
X111529175Y-92089172D01*
X111550416Y-92122975D01*
X111569596Y-92160672D01*
X111586969Y-92202692D01*
X111599037Y-92239247D01*
X111609631Y-92280019D01*
X111618694Y-92324353D01*
X111626188Y-92371639D01*
X111632072Y-92421264D01*
X111636306Y-92472616D01*
X111638850Y-92525084D01*
X111639664Y-92578056D01*
X111639190Y-92604269D01*
X111638709Y-92630920D01*
G37*
G36*
X112630792Y-92571468D02*
G01*
X112630263Y-92616098D01*
X112628755Y-92659783D01*
X112626283Y-92701532D01*
X112622861Y-92740351D01*
X112618504Y-92775248D01*
X112610698Y-92821651D01*
X112599537Y-92872706D01*
X112586232Y-92919588D01*
X112570686Y-92962528D01*
X112552805Y-93001756D01*
X112532494Y-93037501D01*
X112509656Y-93069995D01*
X112484196Y-93099467D01*
X112464884Y-93118132D01*
X112437103Y-93140019D01*
X112407174Y-93158054D01*
X112374613Y-93172477D01*
X112338938Y-93183529D01*
X112299665Y-93191451D01*
X112296793Y-93191875D01*
X112276974Y-93193847D01*
X112254365Y-93194783D01*
X112230767Y-93194684D01*
X112207985Y-93193552D01*
X112187821Y-93191387D01*
X112153336Y-93185038D01*
X112119128Y-93175515D01*
X112087998Y-93162985D01*
X112059254Y-93147117D01*
X112032204Y-93127576D01*
X112006156Y-93104031D01*
X112004820Y-93102697D01*
X111986870Y-93083774D01*
X111971469Y-93065261D01*
X111957679Y-93045841D01*
X111944560Y-93024199D01*
X111931173Y-92999020D01*
X111916172Y-92966842D01*
X111902147Y-92930815D01*
X111890042Y-92892558D01*
X111879763Y-92851639D01*
X111871214Y-92807628D01*
X111864301Y-92760094D01*
X111858929Y-92708607D01*
X111855004Y-92652736D01*
X111854500Y-92643114D01*
X111852749Y-92583007D01*
X111852802Y-92577796D01*
X112017945Y-92577796D01*
X112018874Y-92641171D01*
X112021768Y-92699996D01*
X112026638Y-92754307D01*
X112033496Y-92804138D01*
X112042352Y-92849526D01*
X112053220Y-92890504D01*
X112066109Y-92927108D01*
X112081032Y-92959373D01*
X112097999Y-92987335D01*
X112117022Y-93011029D01*
X112138113Y-93030489D01*
X112161283Y-93045752D01*
X112186543Y-93056852D01*
X112193096Y-93058991D01*
X112202199Y-93061383D01*
X112211587Y-93062918D01*
X112222831Y-93063825D01*
X112237500Y-93064336D01*
X112243690Y-93064457D01*
X112258288Y-93064431D01*
X112270027Y-93063688D01*
X112280473Y-93062006D01*
X112291192Y-93059162D01*
X112303750Y-93054935D01*
X112314516Y-93050536D01*
X112336898Y-93037709D01*
X112358034Y-93020610D01*
X112377453Y-92999714D01*
X112394686Y-92975494D01*
X112409260Y-92948428D01*
X112418060Y-92927995D01*
X112427971Y-92900683D01*
X112436651Y-92871187D01*
X112444226Y-92838951D01*
X112450826Y-92803420D01*
X112456576Y-92764036D01*
X112461605Y-92720243D01*
X112461745Y-92718838D01*
X112462971Y-92702859D01*
X112464005Y-92682789D01*
X112464843Y-92659451D01*
X112465481Y-92633664D01*
X112465916Y-92606249D01*
X112466143Y-92578027D01*
X112466159Y-92549820D01*
X112465959Y-92522446D01*
X112465541Y-92496728D01*
X112464900Y-92473487D01*
X112464031Y-92453542D01*
X112462933Y-92437715D01*
X112461140Y-92418803D01*
X112456466Y-92377448D01*
X112451064Y-92340229D01*
X112444802Y-92306559D01*
X112437548Y-92275850D01*
X112429171Y-92247516D01*
X112419538Y-92220970D01*
X112408517Y-92195625D01*
X112401377Y-92181261D01*
X112386399Y-92155925D01*
X112370093Y-92134638D01*
X112351955Y-92116791D01*
X112331484Y-92101771D01*
X112310606Y-92090982D01*
X112285619Y-92082933D01*
X112258941Y-92078677D01*
X112231463Y-92078285D01*
X112204080Y-92081830D01*
X112177684Y-92089382D01*
X112157593Y-92098916D01*
X112135927Y-92114122D01*
X112115759Y-92133695D01*
X112097299Y-92157364D01*
X112080754Y-92184859D01*
X112066332Y-92215908D01*
X112054241Y-92250241D01*
X112053458Y-92252844D01*
X112045332Y-92282230D01*
X112038431Y-92312124D01*
X112032677Y-92343160D01*
X112027990Y-92375975D01*
X112024290Y-92411203D01*
X112021499Y-92449481D01*
X112019537Y-92491443D01*
X112018324Y-92537725D01*
X112017945Y-92577796D01*
X111852802Y-92577796D01*
X111853357Y-92523386D01*
X111856259Y-92464841D01*
X111861393Y-92407964D01*
X111868694Y-92353345D01*
X111878099Y-92301575D01*
X111889543Y-92253244D01*
X111902964Y-92208943D01*
X111904369Y-92204951D01*
X111911378Y-92187132D01*
X111920147Y-92167256D01*
X111930003Y-92146683D01*
X111940279Y-92126771D01*
X111950303Y-92108882D01*
X111959406Y-92094373D01*
X111978563Y-92068559D01*
X112005883Y-92038518D01*
X112035733Y-92012787D01*
X112068153Y-91991338D01*
X112103185Y-91974145D01*
X112140870Y-91961181D01*
X112181250Y-91952419D01*
X112183516Y-91952081D01*
X112198381Y-91950592D01*
X112216596Y-91949685D01*
X112236798Y-91949349D01*
X112257623Y-91949571D01*
X112277709Y-91950341D01*
X112295691Y-91951647D01*
X112310207Y-91953479D01*
X112320320Y-91955350D01*
X112358742Y-91965463D01*
X112394981Y-91979876D01*
X112428728Y-91998426D01*
X112459672Y-92020948D01*
X112487501Y-92047278D01*
X112501111Y-92062599D01*
X112521595Y-92089033D01*
X112539625Y-92117283D01*
X112556275Y-92148937D01*
X112574852Y-92192057D01*
X112591513Y-92241264D01*
X112605223Y-92294435D01*
X112615991Y-92351600D01*
X112623823Y-92412789D01*
X112626359Y-92441840D01*
X112628855Y-92483347D01*
X112630328Y-92526887D01*
X112630567Y-92549820D01*
X112630792Y-92571468D01*
G37*
G36*
X113249951Y-91948974D02*
G01*
X113296250Y-91952874D01*
X113323647Y-91957177D01*
X113361501Y-91965936D01*
X113397647Y-91977558D01*
X113431111Y-91991716D01*
X113460918Y-92008083D01*
X113491388Y-92029273D01*
X113522019Y-92055841D01*
X113548432Y-92085086D01*
X113570635Y-92117022D01*
X113588638Y-92151666D01*
X113602451Y-92189033D01*
X113612083Y-92229138D01*
X113617542Y-92271998D01*
X113618814Y-92299511D01*
X113617320Y-92340308D01*
X113611581Y-92378463D01*
X113601597Y-92413977D01*
X113587366Y-92446854D01*
X113568885Y-92477097D01*
X113546155Y-92504707D01*
X113519173Y-92529687D01*
X113487938Y-92552041D01*
X113452448Y-92571770D01*
X113437358Y-92578935D01*
X113421407Y-92585934D01*
X113405123Y-92592394D01*
X113387851Y-92598523D01*
X113368935Y-92604527D01*
X113347722Y-92610614D01*
X113323557Y-92616990D01*
X113295785Y-92623863D01*
X113263750Y-92631439D01*
X113253341Y-92633872D01*
X113222988Y-92641140D01*
X113196826Y-92647736D01*
X113174298Y-92653842D01*
X113154853Y-92659640D01*
X113137934Y-92665312D01*
X113122990Y-92671042D01*
X113109464Y-92677010D01*
X113096805Y-92683398D01*
X113084456Y-92690390D01*
X113080288Y-92692979D01*
X113064874Y-92704329D01*
X113050169Y-92717677D01*
X113037486Y-92731742D01*
X113028137Y-92745245D01*
X113017687Y-92767953D01*
X113010053Y-92793654D01*
X113005328Y-92821223D01*
X113003523Y-92849680D01*
X113004650Y-92878044D01*
X113008720Y-92905334D01*
X113015744Y-92930568D01*
X113025734Y-92952766D01*
X113039961Y-92974539D01*
X113060106Y-92997199D01*
X113083852Y-93016480D01*
X113111233Y-93032400D01*
X113142284Y-93044978D01*
X113177037Y-93054234D01*
X113215527Y-93060186D01*
X113235281Y-93061857D01*
X113282687Y-93062364D01*
X113330733Y-93057985D01*
X113379448Y-93048712D01*
X113428863Y-93034538D01*
X113479006Y-93015454D01*
X113529908Y-92991453D01*
X113581598Y-92962527D01*
X113586744Y-92959456D01*
X113594893Y-92954731D01*
X113600820Y-92951477D01*
X113603505Y-92950265D01*
X113603798Y-92951943D01*
X113604092Y-92958077D01*
X113604317Y-92968168D01*
X113604467Y-92981647D01*
X113604536Y-92997944D01*
X113604518Y-93016491D01*
X113604408Y-93036718D01*
X113603750Y-93123171D01*
X113575000Y-93134195D01*
X113527962Y-93150959D01*
X113466300Y-93168968D01*
X113404688Y-93182379D01*
X113342500Y-93191346D01*
X113335624Y-93192004D01*
X113320060Y-93193121D01*
X113302138Y-93194049D01*
X113283568Y-93194707D01*
X113266060Y-93195011D01*
X113238187Y-93194743D01*
X113186181Y-93191647D01*
X113137767Y-93185152D01*
X113092962Y-93175267D01*
X113051780Y-93161999D01*
X113014235Y-93145356D01*
X112980343Y-93125348D01*
X112950119Y-93101982D01*
X112923577Y-93075265D01*
X112900731Y-93045207D01*
X112881598Y-93011816D01*
X112866191Y-92975098D01*
X112860651Y-92956576D01*
X112855254Y-92931233D01*
X112851175Y-92903197D01*
X112848515Y-92873647D01*
X112847376Y-92843759D01*
X112847859Y-92814712D01*
X112850064Y-92787684D01*
X112851876Y-92774465D01*
X112860160Y-92734571D01*
X112872281Y-92697682D01*
X112888189Y-92663894D01*
X112907833Y-92633302D01*
X112931163Y-92606005D01*
X112958126Y-92582098D01*
X112970256Y-92572919D01*
X112982012Y-92564574D01*
X112993368Y-92557300D01*
X113005574Y-92550343D01*
X113019885Y-92542952D01*
X113037551Y-92534373D01*
X113050775Y-92528258D01*
X113067816Y-92520990D01*
X113085529Y-92514188D01*
X113104524Y-92507665D01*
X113125407Y-92501238D01*
X113148789Y-92494721D01*
X113175276Y-92487929D01*
X113205477Y-92480676D01*
X113240000Y-92472779D01*
X113255123Y-92469261D01*
X113291648Y-92459647D01*
X113324784Y-92449262D01*
X113353997Y-92438282D01*
X113378750Y-92426883D01*
X113398008Y-92415537D01*
X113418527Y-92399068D01*
X113434990Y-92379932D01*
X113447678Y-92357791D01*
X113456869Y-92332306D01*
X113457799Y-92328651D01*
X113459428Y-92319707D01*
X113460474Y-92308937D01*
X113461020Y-92295286D01*
X113461149Y-92277699D01*
X113461146Y-92276737D01*
X113461027Y-92261679D01*
X113460678Y-92250349D01*
X113459955Y-92241542D01*
X113458718Y-92234052D01*
X113456824Y-92226676D01*
X113454130Y-92218206D01*
X113453413Y-92216094D01*
X113441746Y-92189051D01*
X113426403Y-92165100D01*
X113407177Y-92144013D01*
X113383861Y-92125560D01*
X113356250Y-92109513D01*
X113339507Y-92101975D01*
X113312971Y-92093101D01*
X113283093Y-92086541D01*
X113264975Y-92083849D01*
X113221032Y-92080835D01*
X113176031Y-92082540D01*
X113130226Y-92088908D01*
X113083870Y-92099884D01*
X113037215Y-92115414D01*
X112990514Y-92135443D01*
X112944021Y-92159916D01*
X112943497Y-92160218D01*
X112933280Y-92166043D01*
X112924749Y-92170802D01*
X112918781Y-92174012D01*
X112916255Y-92175189D01*
X112916052Y-92174100D01*
X112915768Y-92168678D01*
X112915515Y-92159229D01*
X112915303Y-92146336D01*
X112915141Y-92130582D01*
X112915037Y-92112550D01*
X112915000Y-92092824D01*
X112915000Y-92010459D01*
X112953198Y-91997932D01*
X112990862Y-91986184D01*
X113047315Y-91971055D01*
X113101164Y-91959807D01*
X113152695Y-91952403D01*
X113202195Y-91948805D01*
X113249951Y-91948974D01*
G37*
G36*
X109632669Y-92837410D02*
G01*
X109622599Y-92884849D01*
X109610570Y-92928345D01*
X109596519Y-92968080D01*
X109580384Y-93004235D01*
X109562102Y-93036990D01*
X109541610Y-93066527D01*
X109518847Y-93093026D01*
X109493750Y-93116669D01*
X109463768Y-93139060D01*
X109430852Y-93157757D01*
X109395013Y-93172662D01*
X109356047Y-93183861D01*
X109313750Y-93191438D01*
X109292519Y-93193614D01*
X109257882Y-93195024D01*
X109221949Y-93194215D01*
X109186610Y-93191248D01*
X109153750Y-93186186D01*
X109127792Y-93179911D01*
X109097560Y-93169897D01*
X109068222Y-93157450D01*
X109041130Y-93143152D01*
X109017639Y-93127585D01*
X108999039Y-93112430D01*
X108971150Y-93084582D01*
X108946794Y-93053278D01*
X108925999Y-93018598D01*
X108908796Y-92980622D01*
X108895212Y-92939430D01*
X108885278Y-92895103D01*
X108879024Y-92847722D01*
X108876477Y-92797366D01*
X108876949Y-92776281D01*
X109038495Y-92776281D01*
X109038498Y-92799016D01*
X109038968Y-92821118D01*
X109039906Y-92841499D01*
X109041314Y-92859075D01*
X109043193Y-92872758D01*
X109046527Y-92889167D01*
X109055516Y-92922871D01*
X109066705Y-92952505D01*
X109080242Y-92978428D01*
X109096276Y-93000998D01*
X109101396Y-93006981D01*
X109120850Y-93025920D01*
X109142273Y-93040949D01*
X109166204Y-93052339D01*
X109193183Y-93060361D01*
X109223750Y-93065290D01*
X109227173Y-93065639D01*
X109238954Y-93066634D01*
X109249721Y-93067265D01*
X109257500Y-93067409D01*
X109265567Y-93067085D01*
X109298591Y-93062991D01*
X109329182Y-93054598D01*
X109357225Y-93042026D01*
X109382603Y-93025392D01*
X109405202Y-93004815D01*
X109424905Y-92980415D01*
X109441597Y-92952309D01*
X109455161Y-92920618D01*
X109465483Y-92885458D01*
X109472445Y-92846949D01*
X109472945Y-92842540D01*
X109473962Y-92828424D01*
X109474613Y-92811224D01*
X109474899Y-92792286D01*
X109474821Y-92772954D01*
X109474379Y-92754574D01*
X109473573Y-92738490D01*
X109472404Y-92726049D01*
X109470703Y-92714145D01*
X109465849Y-92688073D01*
X109459589Y-92664682D01*
X109451447Y-92642369D01*
X109440950Y-92619530D01*
X109431484Y-92602364D01*
X109412919Y-92576201D01*
X109391435Y-92554027D01*
X109367184Y-92535917D01*
X109340318Y-92521942D01*
X109310992Y-92512176D01*
X109279358Y-92506693D01*
X109245568Y-92505565D01*
X109209775Y-92508866D01*
X109194135Y-92511796D01*
X109165004Y-92520746D01*
X109138744Y-92533778D01*
X109115422Y-92550839D01*
X109095102Y-92571878D01*
X109077850Y-92596843D01*
X109063730Y-92625682D01*
X109058953Y-92637924D01*
X109054492Y-92651005D01*
X109050689Y-92664572D01*
X109047133Y-92680120D01*
X109043408Y-92699140D01*
X109043128Y-92700718D01*
X109041276Y-92715130D01*
X109039885Y-92733252D01*
X109038958Y-92753997D01*
X109038495Y-92776281D01*
X108876949Y-92776281D01*
X108877668Y-92744116D01*
X108878236Y-92734916D01*
X108882219Y-92693787D01*
X108888475Y-92656245D01*
X108897200Y-92621481D01*
X108908589Y-92588686D01*
X108922837Y-92557051D01*
X108931300Y-92541167D01*
X108953131Y-92507226D01*
X108978098Y-92477162D01*
X109006147Y-92451004D01*
X109037227Y-92428783D01*
X109071285Y-92410528D01*
X109108269Y-92396270D01*
X109148126Y-92386038D01*
X109190804Y-92379863D01*
X109236250Y-92377774D01*
X109254729Y-92378106D01*
X109289177Y-92380966D01*
X109320715Y-92386948D01*
X109350182Y-92396292D01*
X109378414Y-92409235D01*
X109406250Y-92426015D01*
X109407826Y-92427088D01*
X109427297Y-92442384D01*
X109446899Y-92461189D01*
X109465548Y-92482284D01*
X109482158Y-92504451D01*
X109495648Y-92526474D01*
X109505045Y-92543975D01*
X109503813Y-92518973D01*
X109503470Y-92512003D01*
X109502710Y-92496637D01*
X109501895Y-92480195D01*
X109501150Y-92465218D01*
X109501043Y-92463142D01*
X109496992Y-92417560D01*
X109489823Y-92372478D01*
X109479765Y-92328891D01*
X109467048Y-92287798D01*
X109451899Y-92250197D01*
X109437452Y-92222539D01*
X109417557Y-92192905D01*
X109394696Y-92166260D01*
X109369332Y-92143076D01*
X109341930Y-92123824D01*
X109312954Y-92108976D01*
X109290944Y-92100902D01*
X109256698Y-92092350D01*
X109220234Y-92087480D01*
X109182192Y-92086244D01*
X109143210Y-92088595D01*
X109103924Y-92094485D01*
X109064972Y-92103867D01*
X109026994Y-92116694D01*
X108990625Y-92132917D01*
X108962500Y-92147164D01*
X108962500Y-92071660D01*
X108962500Y-91996156D01*
X108986875Y-91987174D01*
X109010479Y-91978989D01*
X109060463Y-91964934D01*
X109110678Y-91955131D01*
X109160679Y-91949598D01*
X109210024Y-91948358D01*
X109258271Y-91951428D01*
X109304977Y-91958831D01*
X109349700Y-91970587D01*
X109387795Y-91985177D01*
X109424855Y-92004535D01*
X109459445Y-92028125D01*
X109491479Y-92055841D01*
X109520867Y-92087577D01*
X109547521Y-92123225D01*
X109571353Y-92162679D01*
X109592273Y-92205832D01*
X109610194Y-92252577D01*
X109625027Y-92302807D01*
X109629703Y-92322283D01*
X109639138Y-92370931D01*
X109646381Y-92423225D01*
X109651384Y-92478546D01*
X109654100Y-92536276D01*
X109654480Y-92595795D01*
X109652477Y-92656487D01*
X109651744Y-92669630D01*
X109647179Y-92729982D01*
X109640841Y-92785848D01*
X109639821Y-92792286D01*
X109632669Y-92837410D01*
G37*
G36*
X113986959Y-89717388D02*
G01*
X113987088Y-89761001D01*
X113986729Y-89803373D01*
X113985874Y-89843572D01*
X113984512Y-89880664D01*
X113982634Y-89913717D01*
X113982445Y-89916419D01*
X113975910Y-89993298D01*
X113967439Y-90065726D01*
X113956981Y-90133877D01*
X113944482Y-90197928D01*
X113929893Y-90258054D01*
X113913160Y-90314431D01*
X113894232Y-90367232D01*
X113873056Y-90416635D01*
X113849582Y-90462814D01*
X113823757Y-90505945D01*
X113795528Y-90546203D01*
X113791888Y-90550812D01*
X113781980Y-90562336D01*
X113769645Y-90575749D01*
X113755804Y-90590124D01*
X113741374Y-90604536D01*
X113727276Y-90618057D01*
X113714428Y-90629760D01*
X113703750Y-90638720D01*
X113674311Y-90660058D01*
X113631882Y-90685523D01*
X113586497Y-90707141D01*
X113538386Y-90724830D01*
X113487780Y-90738507D01*
X113434908Y-90748092D01*
X113380000Y-90753503D01*
X113373088Y-90753790D01*
X113359155Y-90754000D01*
X113342224Y-90753955D01*
X113323439Y-90753683D01*
X113303942Y-90753215D01*
X113284874Y-90752580D01*
X113267379Y-90751807D01*
X113252599Y-90750924D01*
X113241676Y-90749962D01*
X113195466Y-90742901D01*
X113144331Y-90730919D01*
X113095180Y-90714905D01*
X113048750Y-90695068D01*
X113030100Y-90685551D01*
X112987927Y-90660052D01*
X112948330Y-90630298D01*
X112911336Y-90596330D01*
X112876975Y-90558184D01*
X112845271Y-90515900D01*
X112816254Y-90469516D01*
X112789951Y-90419071D01*
X112766388Y-90364602D01*
X112745593Y-90306149D01*
X112727594Y-90243749D01*
X112721382Y-90218764D01*
X112708142Y-90157992D01*
X112697066Y-90095150D01*
X112688108Y-90029811D01*
X112681222Y-89961548D01*
X112676361Y-89889935D01*
X112673479Y-89814544D01*
X112672918Y-89767404D01*
X112951149Y-89767404D01*
X112952392Y-89833159D01*
X112954891Y-89898095D01*
X112958657Y-89961537D01*
X112963696Y-90022808D01*
X112970019Y-90081233D01*
X112970678Y-90086528D01*
X112979540Y-90146541D01*
X112990420Y-90202024D01*
X113003344Y-90253029D01*
X113018340Y-90299610D01*
X113035434Y-90341819D01*
X113054652Y-90379710D01*
X113076020Y-90413334D01*
X113099567Y-90442745D01*
X113125317Y-90467996D01*
X113153298Y-90489140D01*
X113183536Y-90506229D01*
X113192024Y-90510237D01*
X113207090Y-90516795D01*
X113221051Y-90521872D01*
X113235930Y-90526164D01*
X113253750Y-90530366D01*
X113255742Y-90530785D01*
X113271383Y-90533208D01*
X113290420Y-90535024D01*
X113311486Y-90536197D01*
X113333218Y-90536693D01*
X113354249Y-90536479D01*
X113373215Y-90535518D01*
X113388750Y-90533778D01*
X113404009Y-90530822D01*
X113423616Y-90525902D01*
X113443318Y-90519929D01*
X113461427Y-90513423D01*
X113476250Y-90506902D01*
X113499784Y-90493654D01*
X113530441Y-90471548D01*
X113558375Y-90445303D01*
X113583604Y-90414896D01*
X113606147Y-90380305D01*
X113626021Y-90341508D01*
X113643245Y-90298482D01*
X113647885Y-90284361D01*
X113653836Y-90264110D01*
X113660009Y-90241145D01*
X113666105Y-90216670D01*
X113671826Y-90191890D01*
X113676873Y-90168012D01*
X113680948Y-90146239D01*
X113686201Y-90112928D01*
X113692689Y-90062397D01*
X113698126Y-90008110D01*
X113702502Y-89950733D01*
X113705806Y-89890930D01*
X113708028Y-89829366D01*
X113709157Y-89766705D01*
X113709183Y-89703612D01*
X113708097Y-89640750D01*
X113705887Y-89578785D01*
X113702544Y-89518382D01*
X113698057Y-89460204D01*
X113692416Y-89404917D01*
X113686833Y-89361585D01*
X113677495Y-89304356D01*
X113666410Y-89251663D01*
X113653525Y-89203399D01*
X113638790Y-89159460D01*
X113622154Y-89119738D01*
X113603566Y-89084128D01*
X113582973Y-89052524D01*
X113560326Y-89024820D01*
X113535573Y-89000910D01*
X113508662Y-88980688D01*
X113479543Y-88964049D01*
X113478765Y-88963666D01*
X113455097Y-88952936D01*
X113432576Y-88944730D01*
X113410004Y-88938790D01*
X113386183Y-88934859D01*
X113359915Y-88932682D01*
X113330000Y-88932000D01*
X113315923Y-88932148D01*
X113285589Y-88933821D01*
X113258226Y-88937565D01*
X113232618Y-88943641D01*
X113207549Y-88952310D01*
X113181804Y-88963833D01*
X113154308Y-88979476D01*
X113126225Y-89000532D01*
X113100409Y-89025664D01*
X113076825Y-89054938D01*
X113055435Y-89088417D01*
X113036204Y-89126166D01*
X113019095Y-89168250D01*
X113004070Y-89214734D01*
X112991095Y-89265682D01*
X112980132Y-89321158D01*
X112976874Y-89340969D01*
X112969573Y-89393531D01*
X112963466Y-89450005D01*
X112958561Y-89509715D01*
X112954868Y-89571986D01*
X112952396Y-89636142D01*
X112951153Y-89701506D01*
X112951149Y-89767404D01*
X112672918Y-89767404D01*
X112672531Y-89734949D01*
X112672531Y-89734812D01*
X112673752Y-89646679D01*
X112677412Y-89562839D01*
X112683526Y-89483214D01*
X112692113Y-89407723D01*
X112703186Y-89336285D01*
X112716763Y-89268821D01*
X112732859Y-89205251D01*
X112751491Y-89145495D01*
X112772675Y-89089472D01*
X112796426Y-89037102D01*
X112822762Y-88988307D01*
X112841442Y-88958280D01*
X112863326Y-88927596D01*
X112887328Y-88898673D01*
X112914757Y-88869827D01*
X112916060Y-88868536D01*
X112948922Y-88838452D01*
X112982970Y-88812075D01*
X113018680Y-88789185D01*
X113056525Y-88769561D01*
X113096981Y-88752984D01*
X113140521Y-88739232D01*
X113187619Y-88728086D01*
X113238750Y-88719324D01*
X113241639Y-88718947D01*
X113255338Y-88717737D01*
X113272805Y-88716851D01*
X113293077Y-88716283D01*
X113315188Y-88716026D01*
X113338175Y-88716073D01*
X113361074Y-88716418D01*
X113382920Y-88717055D01*
X113402749Y-88717975D01*
X113419597Y-88719175D01*
X113432500Y-88720645D01*
X113457904Y-88724871D01*
X113508127Y-88735805D01*
X113554763Y-88749740D01*
X113598232Y-88766876D01*
X113638950Y-88787411D01*
X113677335Y-88811545D01*
X113713807Y-88839477D01*
X113748782Y-88871407D01*
X113748957Y-88871580D01*
X113782453Y-88908140D01*
X113813464Y-88949010D01*
X113841978Y-88994156D01*
X113867982Y-89043541D01*
X113891462Y-89097130D01*
X113912406Y-89154886D01*
X113930801Y-89216774D01*
X113946634Y-89282757D01*
X113959891Y-89352801D01*
X113970560Y-89426870D01*
X113978628Y-89504926D01*
X113979316Y-89513378D01*
X113981747Y-89549196D01*
X113983736Y-89588439D01*
X113985274Y-89630174D01*
X113986351Y-89673468D01*
X113986768Y-89703612D01*
X113986959Y-89717388D01*
G37*
G36*
X111706371Y-88715555D02*
G01*
X111732911Y-88716274D01*
X111758192Y-88717406D01*
X111780969Y-88718927D01*
X111800000Y-88720813D01*
X111835910Y-88725979D01*
X111894084Y-88737803D01*
X111949146Y-88753526D01*
X112001120Y-88773157D01*
X112050029Y-88796706D01*
X112095898Y-88824181D01*
X112138750Y-88855593D01*
X112139739Y-88856395D01*
X112154688Y-88869405D01*
X112171335Y-88885243D01*
X112188564Y-88902743D01*
X112205261Y-88920742D01*
X112220308Y-88938073D01*
X112232591Y-88953572D01*
X112233055Y-88954198D01*
X112260437Y-88995137D01*
X112283493Y-89038103D01*
X112302269Y-89083249D01*
X112316813Y-89130726D01*
X112327169Y-89180685D01*
X112333385Y-89233278D01*
X112335508Y-89288655D01*
X112335422Y-89304470D01*
X112334153Y-89341494D01*
X112331264Y-89375210D01*
X112326614Y-89406683D01*
X112320057Y-89436979D01*
X112311451Y-89467163D01*
X112300546Y-89497578D01*
X112282233Y-89536999D01*
X112259947Y-89573866D01*
X112233594Y-89608274D01*
X112203080Y-89640320D01*
X112168310Y-89670100D01*
X112129190Y-89697710D01*
X112085626Y-89723248D01*
X112037524Y-89746809D01*
X112032482Y-89749055D01*
X112007745Y-89759610D01*
X111982882Y-89769381D01*
X111957205Y-89778583D01*
X111930025Y-89787432D01*
X111900654Y-89796144D01*
X111868402Y-89804936D01*
X111832580Y-89814022D01*
X111792500Y-89823620D01*
X111790663Y-89824049D01*
X111755070Y-89832384D01*
X111723925Y-89839708D01*
X111696825Y-89846127D01*
X111673366Y-89851746D01*
X111653143Y-89856672D01*
X111635753Y-89861013D01*
X111620792Y-89864872D01*
X111607854Y-89868359D01*
X111596537Y-89871577D01*
X111586437Y-89874634D01*
X111577149Y-89877636D01*
X111568269Y-89880689D01*
X111559393Y-89883900D01*
X111550117Y-89887374D01*
X111531483Y-89894680D01*
X111499782Y-89908523D01*
X111472249Y-89922624D01*
X111448341Y-89937250D01*
X111425156Y-89954674D01*
X111399569Y-89979355D01*
X111377882Y-90007150D01*
X111360121Y-90038018D01*
X111346315Y-90071915D01*
X111336492Y-90108799D01*
X111333705Y-90125674D01*
X111331293Y-90149084D01*
X111329908Y-90174620D01*
X111329565Y-90200881D01*
X111330278Y-90226465D01*
X111332060Y-90249972D01*
X111334924Y-90270002D01*
X111335082Y-90270815D01*
X111338713Y-90286233D01*
X111343784Y-90303727D01*
X111349715Y-90321549D01*
X111355926Y-90337948D01*
X111361837Y-90351175D01*
X111364224Y-90355810D01*
X111383826Y-90387721D01*
X111407492Y-90416909D01*
X111435023Y-90443242D01*
X111466222Y-90466586D01*
X111500892Y-90486808D01*
X111538835Y-90503776D01*
X111579854Y-90517357D01*
X111623750Y-90527418D01*
X111655730Y-90532170D01*
X111694740Y-90535666D01*
X111736127Y-90537268D01*
X111778707Y-90536987D01*
X111821296Y-90534834D01*
X111862713Y-90530818D01*
X111901773Y-90524951D01*
X111908366Y-90523727D01*
X111965832Y-90510635D01*
X112024642Y-90493001D01*
X112084458Y-90470960D01*
X112144938Y-90444648D01*
X112205743Y-90414200D01*
X112266532Y-90379751D01*
X112268302Y-90378689D01*
X112281228Y-90370934D01*
X112292609Y-90364109D01*
X112301759Y-90358623D01*
X112307993Y-90354889D01*
X112310625Y-90353316D01*
X112310891Y-90354589D01*
X112311220Y-90360338D01*
X112311525Y-90370312D01*
X112311799Y-90384071D01*
X112312036Y-90401176D01*
X112312230Y-90421187D01*
X112312377Y-90443664D01*
X112312469Y-90468168D01*
X112312500Y-90494260D01*
X112312500Y-90636306D01*
X112275526Y-90650672D01*
X112251379Y-90659863D01*
X112177049Y-90685646D01*
X112103766Y-90707128D01*
X112030726Y-90724487D01*
X111957122Y-90737897D01*
X111882149Y-90747536D01*
X111805000Y-90753579D01*
X111796161Y-90753911D01*
X111780640Y-90754115D01*
X111761889Y-90754064D01*
X111740922Y-90753786D01*
X111718750Y-90753306D01*
X111696383Y-90752652D01*
X111674834Y-90751851D01*
X111655113Y-90750929D01*
X111638233Y-90749912D01*
X111625205Y-90748828D01*
X111616212Y-90747867D01*
X111554709Y-90739255D01*
X111497025Y-90727470D01*
X111443102Y-90712489D01*
X111392881Y-90694287D01*
X111346302Y-90672841D01*
X111303308Y-90648128D01*
X111263840Y-90620123D01*
X111227838Y-90588804D01*
X111223016Y-90584116D01*
X111195801Y-90555404D01*
X111172246Y-90526098D01*
X111151612Y-90495110D01*
X111133164Y-90461349D01*
X111116164Y-90423728D01*
X111115473Y-90422050D01*
X111101038Y-90381244D01*
X111089568Y-90336953D01*
X111081146Y-90289752D01*
X111075856Y-90240220D01*
X111073780Y-90188933D01*
X111075000Y-90136469D01*
X111078129Y-90096829D01*
X111085385Y-90045369D01*
X111096158Y-89996915D01*
X111110531Y-89951383D01*
X111128583Y-89908689D01*
X111150395Y-89868751D01*
X111176048Y-89831485D01*
X111205624Y-89796808D01*
X111239202Y-89764637D01*
X111276864Y-89734887D01*
X111318691Y-89707477D01*
X111364763Y-89682323D01*
X111415161Y-89659341D01*
X111469966Y-89638448D01*
X111529259Y-89619561D01*
X111593121Y-89602596D01*
X111595992Y-89601901D01*
X111618110Y-89596580D01*
X111642949Y-89590649D01*
X111668630Y-89584555D01*
X111693273Y-89578744D01*
X111715000Y-89573663D01*
X111739455Y-89567870D01*
X111777736Y-89558278D01*
X111811932Y-89548947D01*
X111842600Y-89539696D01*
X111870300Y-89530342D01*
X111895589Y-89520703D01*
X111919026Y-89510597D01*
X111941169Y-89499842D01*
X111956072Y-89491855D01*
X111982154Y-89475768D01*
X112004098Y-89458907D01*
X112022476Y-89440742D01*
X112037863Y-89420742D01*
X112050830Y-89398378D01*
X112056096Y-89387456D01*
X112065654Y-89363968D01*
X112072666Y-89340211D01*
X112077366Y-89315066D01*
X112079990Y-89287419D01*
X112080774Y-89256152D01*
X112079671Y-89223791D01*
X112075934Y-89191624D01*
X112069360Y-89162140D01*
X112059749Y-89134463D01*
X112046901Y-89107719D01*
X112027795Y-89077495D01*
X112003781Y-89048535D01*
X111975827Y-89022463D01*
X111944073Y-88999380D01*
X111908661Y-88979389D01*
X111869732Y-88962590D01*
X111827426Y-88949087D01*
X111809773Y-88944740D01*
X111778547Y-88938897D01*
X111744927Y-88934882D01*
X111708131Y-88932610D01*
X111667373Y-88931999D01*
X111633241Y-88932996D01*
X111574647Y-88938523D01*
X111515415Y-88948806D01*
X111455812Y-88963763D01*
X111396108Y-88983313D01*
X111336569Y-89007373D01*
X111277464Y-89035863D01*
X111219061Y-89068700D01*
X111188750Y-89086994D01*
X111188104Y-88952948D01*
X111188051Y-88940200D01*
X111187999Y-88915455D01*
X111188017Y-88892454D01*
X111188100Y-88871660D01*
X111188245Y-88853540D01*
X111188447Y-88838559D01*
X111188702Y-88827182D01*
X111189006Y-88819875D01*
X111189354Y-88817103D01*
X111189733Y-88816852D01*
X111193824Y-88815035D01*
X111201473Y-88812064D01*
X111211757Y-88808290D01*
X111223750Y-88804063D01*
X111248381Y-88795719D01*
X111324939Y-88772056D01*
X111400045Y-88752302D01*
X111473383Y-88736528D01*
X111544634Y-88724804D01*
X111613478Y-88717203D01*
X111631614Y-88716115D01*
X111654479Y-88715451D01*
X111679813Y-88715273D01*
X111706371Y-88715555D01*
G37*
G36*
X107463714Y-87295334D02*
G01*
X107463792Y-87295690D01*
X107464701Y-87299996D01*
X107466576Y-87308939D01*
X107469376Y-87322319D01*
X107473060Y-87339938D01*
X107477584Y-87361596D01*
X107482909Y-87387093D01*
X107488992Y-87416231D01*
X107495792Y-87448810D01*
X107503267Y-87484631D01*
X107511376Y-87523494D01*
X107520076Y-87565199D01*
X107529327Y-87609549D01*
X107539087Y-87656343D01*
X107549314Y-87705382D01*
X107559967Y-87756467D01*
X107571004Y-87809398D01*
X107582383Y-87863976D01*
X107594063Y-87920002D01*
X107606002Y-87977276D01*
X107612692Y-88009370D01*
X107625609Y-88071337D01*
X107639409Y-88137537D01*
X107654003Y-88207543D01*
X107669300Y-88280928D01*
X107685214Y-88357266D01*
X107701654Y-88436129D01*
X107718531Y-88517090D01*
X107735756Y-88599721D01*
X107753241Y-88683597D01*
X107770897Y-88768289D01*
X107788633Y-88853371D01*
X107806362Y-88938415D01*
X107823995Y-89022995D01*
X107841441Y-89106683D01*
X107858613Y-89189052D01*
X107875420Y-89269676D01*
X107891775Y-89348126D01*
X107907588Y-89423977D01*
X107922770Y-89496801D01*
X107930331Y-89533063D01*
X107943526Y-89596314D01*
X107956445Y-89658201D01*
X107969050Y-89718546D01*
X107981305Y-89777175D01*
X107993172Y-89833910D01*
X108004614Y-89888574D01*
X108015594Y-89940991D01*
X108026076Y-89990984D01*
X108036020Y-90038377D01*
X108045392Y-90082994D01*
X108054153Y-90124657D01*
X108062267Y-90163190D01*
X108069696Y-90198417D01*
X108076403Y-90230160D01*
X108082351Y-90258244D01*
X108087503Y-90282492D01*
X108091823Y-90302727D01*
X108095271Y-90318773D01*
X108097813Y-90330453D01*
X108099410Y-90337590D01*
X108100025Y-90340009D01*
X108100216Y-90339573D01*
X108101368Y-90335221D01*
X108103440Y-90326498D01*
X108106353Y-90313767D01*
X108110026Y-90297395D01*
X108114377Y-90277745D01*
X108119327Y-90255183D01*
X108124794Y-90230074D01*
X108130699Y-90202783D01*
X108136961Y-90173675D01*
X108143499Y-90143114D01*
X108146338Y-90129806D01*
X108152859Y-90099255D01*
X108160245Y-90064654D01*
X108168378Y-90026567D01*
X108177135Y-89985558D01*
X108186398Y-89942190D01*
X108196045Y-89897029D01*
X108205956Y-89850637D01*
X108216010Y-89803578D01*
X108226087Y-89756417D01*
X108236067Y-89709718D01*
X108245829Y-89664043D01*
X108255253Y-89619958D01*
X108258780Y-89603456D01*
X108267120Y-89564421D01*
X108275141Y-89526850D01*
X108282782Y-89491027D01*
X108289985Y-89457239D01*
X108296686Y-89425770D01*
X108302827Y-89396907D01*
X108308345Y-89370935D01*
X108313182Y-89348139D01*
X108317275Y-89328805D01*
X108320564Y-89313219D01*
X108322988Y-89301666D01*
X108324487Y-89294431D01*
X108325000Y-89291801D01*
X108326183Y-89291555D01*
X108331819Y-89291218D01*
X108341697Y-89290906D01*
X108355370Y-89290625D01*
X108372390Y-89290382D01*
X108392311Y-89290183D01*
X108414684Y-89290033D01*
X108439063Y-89289938D01*
X108465000Y-89289905D01*
X108483168Y-89289921D01*
X108508070Y-89289999D01*
X108531102Y-89290135D01*
X108551819Y-89290323D01*
X108569771Y-89290557D01*
X108584513Y-89290831D01*
X108595597Y-89291139D01*
X108602575Y-89291474D01*
X108605000Y-89291831D01*
X108605001Y-89291841D01*
X108605535Y-89294658D01*
X108607030Y-89301971D01*
X108609406Y-89313396D01*
X108612580Y-89328549D01*
X108616473Y-89347045D01*
X108621003Y-89368500D01*
X108626089Y-89392530D01*
X108631650Y-89418750D01*
X108637605Y-89446776D01*
X108643874Y-89476224D01*
X108648069Y-89495930D01*
X108654315Y-89525289D01*
X108661398Y-89558614D01*
X108669208Y-89595380D01*
X108677634Y-89635067D01*
X108686565Y-89677150D01*
X108695891Y-89721109D01*
X108705500Y-89766420D01*
X108715283Y-89812560D01*
X108725127Y-89859009D01*
X108734922Y-89905242D01*
X108744557Y-89950738D01*
X108753922Y-89994975D01*
X108759111Y-90019482D01*
X108767473Y-90058933D01*
X108775530Y-90096894D01*
X108783220Y-90133081D01*
X108790484Y-90167211D01*
X108797261Y-90198999D01*
X108803489Y-90228163D01*
X108809110Y-90254419D01*
X108814061Y-90277483D01*
X108818282Y-90297072D01*
X108821712Y-90312903D01*
X108824292Y-90324691D01*
X108825959Y-90332154D01*
X108826655Y-90335008D01*
X108827100Y-90334076D01*
X108828119Y-90328808D01*
X108829593Y-90319430D01*
X108831456Y-90306415D01*
X108833643Y-90290240D01*
X108836089Y-90271379D01*
X108838727Y-90250307D01*
X108841493Y-90227497D01*
X108842830Y-90216283D01*
X108845510Y-90193755D01*
X108848620Y-90167566D01*
X108852132Y-90137948D01*
X108856018Y-90105136D01*
X108860251Y-90069362D01*
X108864804Y-90030859D01*
X108869649Y-89989861D01*
X108874758Y-89946600D01*
X108880105Y-89901311D01*
X108885662Y-89854226D01*
X108891401Y-89805577D01*
X108897295Y-89755600D01*
X108903316Y-89704526D01*
X108909438Y-89652589D01*
X108915631Y-89600021D01*
X108921871Y-89547057D01*
X108928127Y-89493929D01*
X108934374Y-89440871D01*
X108940584Y-89388115D01*
X108946729Y-89335895D01*
X108952782Y-89284444D01*
X108958716Y-89233995D01*
X108964502Y-89184781D01*
X108970115Y-89137036D01*
X108975525Y-89090993D01*
X108980706Y-89046884D01*
X108985630Y-89004943D01*
X108990270Y-88965404D01*
X108994598Y-88928499D01*
X108998587Y-88894461D01*
X109002210Y-88863524D01*
X109005439Y-88835921D01*
X109008246Y-88811885D01*
X109010604Y-88791649D01*
X109012487Y-88775446D01*
X109013865Y-88763510D01*
X109014712Y-88756073D01*
X109015000Y-88753369D01*
X109015093Y-88753037D01*
X109016255Y-88752295D01*
X109019047Y-88751674D01*
X109023844Y-88751164D01*
X109031020Y-88750755D01*
X109040949Y-88750437D01*
X109054006Y-88750200D01*
X109070565Y-88750032D01*
X109091001Y-88749925D01*
X109115688Y-88749869D01*
X109145000Y-88749852D01*
X109172942Y-88749870D01*
X109198174Y-88749932D01*
X109219098Y-88750050D01*
X109236074Y-88750231D01*
X109249457Y-88750484D01*
X109259606Y-88750819D01*
X109266877Y-88751246D01*
X109271628Y-88751772D01*
X109274217Y-88752407D01*
X109275000Y-88753160D01*
X109274981Y-88753410D01*
X109274457Y-88757427D01*
X109273259Y-88765917D01*
X109271443Y-88778497D01*
X109269066Y-88794782D01*
X109266184Y-88814389D01*
X109262855Y-88836933D01*
X109259134Y-88862030D01*
X109255078Y-88889297D01*
X109250744Y-88918350D01*
X109246188Y-88948804D01*
X109243363Y-88967669D01*
X109239147Y-88995833D01*
X109234417Y-89027451D01*
X109229204Y-89062314D01*
X109223539Y-89100210D01*
X109217453Y-89140931D01*
X109210978Y-89184266D01*
X109204144Y-89230005D01*
X109196984Y-89277939D01*
X109189529Y-89327856D01*
X109181810Y-89379548D01*
X109173858Y-89432804D01*
X109165705Y-89487415D01*
X109157382Y-89543169D01*
X109148920Y-89599858D01*
X109140350Y-89657271D01*
X109131705Y-89715198D01*
X109123015Y-89773430D01*
X109114312Y-89831755D01*
X109105626Y-89889965D01*
X109096990Y-89947849D01*
X109088434Y-90005198D01*
X109079991Y-90061801D01*
X109071690Y-90117448D01*
X109063565Y-90171929D01*
X109055645Y-90225035D01*
X109047963Y-90276555D01*
X109040549Y-90326279D01*
X109033435Y-90373997D01*
X109026652Y-90419500D01*
X109020232Y-90462577D01*
X109014205Y-90503018D01*
X109008604Y-90540614D01*
X109003460Y-90575154D01*
X108998804Y-90606428D01*
X108994666Y-90634227D01*
X108991079Y-90658340D01*
X108988075Y-90678557D01*
X108985683Y-90694669D01*
X108983936Y-90706465D01*
X108982865Y-90713735D01*
X108982500Y-90716270D01*
X108982345Y-90716333D01*
X108978746Y-90716579D01*
X108970736Y-90716807D01*
X108958787Y-90717013D01*
X108943371Y-90717192D01*
X108924957Y-90717339D01*
X108904018Y-90717451D01*
X108881026Y-90717521D01*
X108856451Y-90717546D01*
X108730401Y-90717546D01*
X108726287Y-90699419D01*
X108725722Y-90696937D01*
X108724007Y-90689401D01*
X108721280Y-90677419D01*
X108717598Y-90661245D01*
X108713019Y-90641133D01*
X108707601Y-90617336D01*
X108701401Y-90590107D01*
X108694477Y-90559701D01*
X108686888Y-90526371D01*
X108678690Y-90490370D01*
X108669942Y-90451953D01*
X108660701Y-90411373D01*
X108651025Y-90368884D01*
X108640972Y-90324739D01*
X108630600Y-90279193D01*
X108619966Y-90232498D01*
X108616393Y-90216810D01*
X108605393Y-90168504D01*
X108594463Y-90120498D01*
X108583676Y-90073119D01*
X108573108Y-90026694D01*
X108562832Y-89981549D01*
X108552924Y-89938013D01*
X108543456Y-89896410D01*
X108534505Y-89857069D01*
X108526143Y-89820315D01*
X108518446Y-89786477D01*
X108511488Y-89755880D01*
X108505343Y-89728851D01*
X108500085Y-89705717D01*
X108495789Y-89686806D01*
X108492530Y-89672443D01*
X108488268Y-89653698D01*
X108483268Y-89631835D01*
X108478653Y-89611791D01*
X108474541Y-89594077D01*
X108471052Y-89579203D01*
X108468304Y-89567677D01*
X108466417Y-89560010D01*
X108465509Y-89556712D01*
X108465264Y-89556548D01*
X108463903Y-89559286D01*
X108461614Y-89566595D01*
X108458461Y-89578234D01*
X108454507Y-89593962D01*
X108449817Y-89613538D01*
X108444453Y-89636720D01*
X108430792Y-89696621D01*
X108415436Y-89763946D01*
X108400284Y-89830365D01*
X108385376Y-89895706D01*
X108370752Y-89959797D01*
X108356450Y-90022464D01*
X108342510Y-90083536D01*
X108328972Y-90142839D01*
X108315875Y-90200202D01*
X108303258Y-90255450D01*
X108291161Y-90308413D01*
X108279624Y-90358916D01*
X108268685Y-90406788D01*
X108258385Y-90451856D01*
X108248762Y-90493948D01*
X108239857Y-90532890D01*
X108231708Y-90568510D01*
X108224355Y-90600635D01*
X108217837Y-90629094D01*
X108212194Y-90653713D01*
X108207466Y-90674319D01*
X108203691Y-90690741D01*
X108200910Y-90702805D01*
X108199161Y-90710339D01*
X108198484Y-90713170D01*
X108198295Y-90713646D01*
X108197458Y-90714557D01*
X108195704Y-90715314D01*
X108192625Y-90715932D01*
X108187813Y-90716425D01*
X108180859Y-90716807D01*
X108171354Y-90717091D01*
X108158891Y-90717292D01*
X108143062Y-90717424D01*
X108123457Y-90717501D01*
X108099669Y-90717537D01*
X108071289Y-90717546D01*
X107945415Y-90717546D01*
X107942859Y-90705670D01*
X107941484Y-90699283D01*
X107938355Y-90684785D01*
X107934282Y-90665932D01*
X107929297Y-90642876D01*
X107923433Y-90615767D01*
X107916723Y-90584759D01*
X107909199Y-90550002D01*
X107900895Y-90511648D01*
X107891843Y-90469848D01*
X107882076Y-90424753D01*
X107871627Y-90376516D01*
X107860529Y-90325288D01*
X107848815Y-90271220D01*
X107836518Y-90214464D01*
X107823669Y-90155171D01*
X107810304Y-90093493D01*
X107796453Y-90029581D01*
X107782150Y-89963587D01*
X107767429Y-89895663D01*
X107752320Y-89825959D01*
X107736859Y-89754627D01*
X107721077Y-89681820D01*
X107705007Y-89607687D01*
X107688682Y-89532382D01*
X107672135Y-89456054D01*
X107655399Y-89378857D01*
X107638507Y-89300941D01*
X107621491Y-89222458D01*
X107604384Y-89143559D01*
X107587220Y-89064396D01*
X107570031Y-88985120D01*
X107552849Y-88905884D01*
X107535709Y-88826837D01*
X107518642Y-88748133D01*
X107501681Y-88669922D01*
X107484860Y-88592356D01*
X107468211Y-88515586D01*
X107451767Y-88439764D01*
X107435561Y-88365041D01*
X107419626Y-88291570D01*
X107403994Y-88219500D01*
X107388699Y-88148985D01*
X107373773Y-88080175D01*
X107359249Y-88013222D01*
X107345160Y-87948278D01*
X107331539Y-87885493D01*
X107318419Y-87825020D01*
X107305832Y-87767010D01*
X107293812Y-87711614D01*
X107282390Y-87658984D01*
X107271601Y-87609271D01*
X107261477Y-87562628D01*
X107252051Y-87519205D01*
X107243355Y-87479154D01*
X107235423Y-87442626D01*
X107228287Y-87409774D01*
X107221981Y-87380748D01*
X107216536Y-87355700D01*
X107211987Y-87334781D01*
X107208365Y-87318143D01*
X107205704Y-87305938D01*
X107204036Y-87298317D01*
X107203395Y-87295431D01*
X107201958Y-87289708D01*
X107332182Y-87289708D01*
X107462405Y-87289708D01*
X107463714Y-87295334D01*
G37*
D12*
%TO.C,BT1*%
X157160000Y-96661300D02*
X157160000Y-90311300D01*
X157160000Y-90311300D02*
X152790000Y-90311300D01*
X157160000Y-56913700D02*
X157160000Y-50563700D01*
X157160000Y-50563700D02*
X154210000Y-50563700D01*
X154210000Y-99503800D02*
X154210000Y-96661300D01*
X154210000Y-96661300D02*
X157160000Y-96661300D01*
X154210000Y-50563700D02*
X154210000Y-47721200D01*
X154210000Y-47721200D02*
X151735000Y-47721200D01*
X152790000Y-90311300D02*
X152790000Y-90193500D01*
X152790000Y-57031500D02*
X152790000Y-56913700D01*
X152790000Y-56913700D02*
X157160000Y-56913700D01*
X151735000Y-99503800D02*
X154210000Y-99503800D01*
X148765000Y-47721200D02*
X146290000Y-47721200D01*
X147710000Y-90311300D02*
X143340000Y-90311300D01*
X147710000Y-90193500D02*
X147710000Y-90311300D01*
X147710000Y-56913700D02*
X147710000Y-57031500D01*
X146290000Y-99503800D02*
X148765000Y-99503800D01*
X146290000Y-96661300D02*
X146290000Y-99503800D01*
X146290000Y-50563700D02*
X143340000Y-50563700D01*
X146290000Y-47721200D02*
X146290000Y-50563700D01*
X143340000Y-96661300D02*
X146290000Y-96661300D01*
X143340000Y-90311300D02*
X143340000Y-96661300D01*
X143340000Y-56913700D02*
X147710000Y-56913700D01*
X143340000Y-50563700D02*
X143340000Y-56913700D01*
D13*
%TO.C,J1*%
X143035000Y-100555000D02*
X146565000Y-100555000D01*
X143035000Y-100620000D02*
X143035000Y-100555000D01*
X143035000Y-107025000D02*
X143035000Y-106960000D01*
X143035000Y-107025000D02*
X146565000Y-107025000D01*
X146565000Y-100620000D02*
X146565000Y-100555000D01*
X146565000Y-100620000D02*
X147890000Y-100620000D01*
X146565000Y-107025000D02*
X146565000Y-106960000D01*
%TD*%
M02*
