%TF.GenerationSoftware,KiCad,Pcbnew,8.0.1*%
%TF.CreationDate,2024-07-17T16:46:35-04:00*%
%TF.ProjectId,Tiny4FSK,54696e79-3446-4534-9b2e-6b696361645f,rev?*%
%TF.SameCoordinates,Original*%
%TF.FileFunction,Legend,Top*%
%TF.FilePolarity,Positive*%
%FSLAX46Y46*%
G04 Gerber Fmt 4.6, Leading zero omitted, Abs format (unit mm)*
G04 Created by KiCad (PCBNEW 8.0.1) date 2024-07-17 16:46:35*
%MOMM*%
%LPD*%
G01*
G04 APERTURE LIST*
%ADD10C,0.125000*%
%ADD11C,0.100000*%
%ADD12C,0.254000*%
%ADD13C,0.300000*%
%ADD14C,0.120000*%
%ADD15C,0.152500*%
%ADD16C,0.152000*%
%ADD17C,0.000000*%
%ADD18C,0.127000*%
%ADD19C,0.200000*%
%ADD20C,0.500000*%
G04 APERTURE END LIST*
D10*
X151869047Y-50474809D02*
X151869047Y-50879571D01*
X151869047Y-50879571D02*
X151892857Y-50927190D01*
X151892857Y-50927190D02*
X151916666Y-50951000D01*
X151916666Y-50951000D02*
X151964285Y-50974809D01*
X151964285Y-50974809D02*
X152059523Y-50974809D01*
X152059523Y-50974809D02*
X152107142Y-50951000D01*
X152107142Y-50951000D02*
X152130952Y-50927190D01*
X152130952Y-50927190D02*
X152154761Y-50879571D01*
X152154761Y-50879571D02*
X152154761Y-50474809D01*
X152369048Y-50522428D02*
X152392857Y-50498619D01*
X152392857Y-50498619D02*
X152440476Y-50474809D01*
X152440476Y-50474809D02*
X152559524Y-50474809D01*
X152559524Y-50474809D02*
X152607143Y-50498619D01*
X152607143Y-50498619D02*
X152630952Y-50522428D01*
X152630952Y-50522428D02*
X152654762Y-50570047D01*
X152654762Y-50570047D02*
X152654762Y-50617666D01*
X152654762Y-50617666D02*
X152630952Y-50689095D01*
X152630952Y-50689095D02*
X152345238Y-50974809D01*
X152345238Y-50974809D02*
X152654762Y-50974809D01*
X138182246Y-95782891D02*
X138015580Y-95544796D01*
X137896532Y-95782891D02*
X137896532Y-95282891D01*
X137896532Y-95282891D02*
X138087008Y-95282891D01*
X138087008Y-95282891D02*
X138134627Y-95306701D01*
X138134627Y-95306701D02*
X138158437Y-95330510D01*
X138158437Y-95330510D02*
X138182246Y-95378129D01*
X138182246Y-95378129D02*
X138182246Y-95449558D01*
X138182246Y-95449558D02*
X138158437Y-95497177D01*
X138158437Y-95497177D02*
X138134627Y-95520986D01*
X138134627Y-95520986D02*
X138087008Y-95544796D01*
X138087008Y-95544796D02*
X137896532Y-95544796D01*
X138348913Y-95282891D02*
X138658437Y-95282891D01*
X138658437Y-95282891D02*
X138491770Y-95473367D01*
X138491770Y-95473367D02*
X138563199Y-95473367D01*
X138563199Y-95473367D02*
X138610818Y-95497177D01*
X138610818Y-95497177D02*
X138634627Y-95520986D01*
X138634627Y-95520986D02*
X138658437Y-95568605D01*
X138658437Y-95568605D02*
X138658437Y-95687653D01*
X138658437Y-95687653D02*
X138634627Y-95735272D01*
X138634627Y-95735272D02*
X138610818Y-95759082D01*
X138610818Y-95759082D02*
X138563199Y-95782891D01*
X138563199Y-95782891D02*
X138420342Y-95782891D01*
X138420342Y-95782891D02*
X138372723Y-95759082D01*
X138372723Y-95759082D02*
X138348913Y-95735272D01*
X131119979Y-91155678D02*
X131096170Y-91179488D01*
X131096170Y-91179488D02*
X131024741Y-91203297D01*
X131024741Y-91203297D02*
X130977122Y-91203297D01*
X130977122Y-91203297D02*
X130905694Y-91179488D01*
X130905694Y-91179488D02*
X130858075Y-91131868D01*
X130858075Y-91131868D02*
X130834265Y-91084249D01*
X130834265Y-91084249D02*
X130810456Y-90989011D01*
X130810456Y-90989011D02*
X130810456Y-90917583D01*
X130810456Y-90917583D02*
X130834265Y-90822345D01*
X130834265Y-90822345D02*
X130858075Y-90774726D01*
X130858075Y-90774726D02*
X130905694Y-90727107D01*
X130905694Y-90727107D02*
X130977122Y-90703297D01*
X130977122Y-90703297D02*
X131024741Y-90703297D01*
X131024741Y-90703297D02*
X131096170Y-90727107D01*
X131096170Y-90727107D02*
X131119979Y-90750916D01*
X131548551Y-90703297D02*
X131453313Y-90703297D01*
X131453313Y-90703297D02*
X131405694Y-90727107D01*
X131405694Y-90727107D02*
X131381884Y-90750916D01*
X131381884Y-90750916D02*
X131334265Y-90822345D01*
X131334265Y-90822345D02*
X131310456Y-90917583D01*
X131310456Y-90917583D02*
X131310456Y-91108059D01*
X131310456Y-91108059D02*
X131334265Y-91155678D01*
X131334265Y-91155678D02*
X131358075Y-91179488D01*
X131358075Y-91179488D02*
X131405694Y-91203297D01*
X131405694Y-91203297D02*
X131500932Y-91203297D01*
X131500932Y-91203297D02*
X131548551Y-91179488D01*
X131548551Y-91179488D02*
X131572360Y-91155678D01*
X131572360Y-91155678D02*
X131596170Y-91108059D01*
X131596170Y-91108059D02*
X131596170Y-90989011D01*
X131596170Y-90989011D02*
X131572360Y-90941392D01*
X131572360Y-90941392D02*
X131548551Y-90917583D01*
X131548551Y-90917583D02*
X131500932Y-90893773D01*
X131500932Y-90893773D02*
X131405694Y-90893773D01*
X131405694Y-90893773D02*
X131358075Y-90917583D01*
X131358075Y-90917583D02*
X131334265Y-90941392D01*
X131334265Y-90941392D02*
X131310456Y-90989011D01*
X131648933Y-95209341D02*
X131625124Y-95233151D01*
X131625124Y-95233151D02*
X131553695Y-95256960D01*
X131553695Y-95256960D02*
X131506076Y-95256960D01*
X131506076Y-95256960D02*
X131434648Y-95233151D01*
X131434648Y-95233151D02*
X131387029Y-95185531D01*
X131387029Y-95185531D02*
X131363219Y-95137912D01*
X131363219Y-95137912D02*
X131339410Y-95042674D01*
X131339410Y-95042674D02*
X131339410Y-94971246D01*
X131339410Y-94971246D02*
X131363219Y-94876008D01*
X131363219Y-94876008D02*
X131387029Y-94828389D01*
X131387029Y-94828389D02*
X131434648Y-94780770D01*
X131434648Y-94780770D02*
X131506076Y-94756960D01*
X131506076Y-94756960D02*
X131553695Y-94756960D01*
X131553695Y-94756960D02*
X131625124Y-94780770D01*
X131625124Y-94780770D02*
X131648933Y-94804579D01*
X132101314Y-94756960D02*
X131863219Y-94756960D01*
X131863219Y-94756960D02*
X131839410Y-94995055D01*
X131839410Y-94995055D02*
X131863219Y-94971246D01*
X131863219Y-94971246D02*
X131910838Y-94947436D01*
X131910838Y-94947436D02*
X132029886Y-94947436D01*
X132029886Y-94947436D02*
X132077505Y-94971246D01*
X132077505Y-94971246D02*
X132101314Y-94995055D01*
X132101314Y-94995055D02*
X132125124Y-95042674D01*
X132125124Y-95042674D02*
X132125124Y-95161722D01*
X132125124Y-95161722D02*
X132101314Y-95209341D01*
X132101314Y-95209341D02*
X132077505Y-95233151D01*
X132077505Y-95233151D02*
X132029886Y-95256960D01*
X132029886Y-95256960D02*
X131910838Y-95256960D01*
X131910838Y-95256960D02*
X131863219Y-95233151D01*
X131863219Y-95233151D02*
X131839410Y-95209341D01*
X129062682Y-91187427D02*
X129038873Y-91211237D01*
X129038873Y-91211237D02*
X128967444Y-91235046D01*
X128967444Y-91235046D02*
X128919825Y-91235046D01*
X128919825Y-91235046D02*
X128848397Y-91211237D01*
X128848397Y-91211237D02*
X128800778Y-91163617D01*
X128800778Y-91163617D02*
X128776968Y-91115998D01*
X128776968Y-91115998D02*
X128753159Y-91020760D01*
X128753159Y-91020760D02*
X128753159Y-90949332D01*
X128753159Y-90949332D02*
X128776968Y-90854094D01*
X128776968Y-90854094D02*
X128800778Y-90806475D01*
X128800778Y-90806475D02*
X128848397Y-90758856D01*
X128848397Y-90758856D02*
X128919825Y-90735046D01*
X128919825Y-90735046D02*
X128967444Y-90735046D01*
X128967444Y-90735046D02*
X129038873Y-90758856D01*
X129038873Y-90758856D02*
X129062682Y-90782665D01*
X129491254Y-90901713D02*
X129491254Y-91235046D01*
X129372206Y-90711237D02*
X129253159Y-91068379D01*
X129253159Y-91068379D02*
X129562682Y-91068379D01*
X131663758Y-97273236D02*
X131639949Y-97297046D01*
X131639949Y-97297046D02*
X131568520Y-97320855D01*
X131568520Y-97320855D02*
X131520901Y-97320855D01*
X131520901Y-97320855D02*
X131449473Y-97297046D01*
X131449473Y-97297046D02*
X131401854Y-97249426D01*
X131401854Y-97249426D02*
X131378044Y-97201807D01*
X131378044Y-97201807D02*
X131354235Y-97106569D01*
X131354235Y-97106569D02*
X131354235Y-97035141D01*
X131354235Y-97035141D02*
X131378044Y-96939903D01*
X131378044Y-96939903D02*
X131401854Y-96892284D01*
X131401854Y-96892284D02*
X131449473Y-96844665D01*
X131449473Y-96844665D02*
X131520901Y-96820855D01*
X131520901Y-96820855D02*
X131568520Y-96820855D01*
X131568520Y-96820855D02*
X131639949Y-96844665D01*
X131639949Y-96844665D02*
X131663758Y-96868474D01*
X131830425Y-96820855D02*
X132139949Y-96820855D01*
X132139949Y-96820855D02*
X131973282Y-97011331D01*
X131973282Y-97011331D02*
X132044711Y-97011331D01*
X132044711Y-97011331D02*
X132092330Y-97035141D01*
X132092330Y-97035141D02*
X132116139Y-97058950D01*
X132116139Y-97058950D02*
X132139949Y-97106569D01*
X132139949Y-97106569D02*
X132139949Y-97225617D01*
X132139949Y-97225617D02*
X132116139Y-97273236D01*
X132116139Y-97273236D02*
X132092330Y-97297046D01*
X132092330Y-97297046D02*
X132044711Y-97320855D01*
X132044711Y-97320855D02*
X131901854Y-97320855D01*
X131901854Y-97320855D02*
X131854235Y-97297046D01*
X131854235Y-97297046D02*
X131830425Y-97273236D01*
D11*
X137404047Y-89816109D02*
X137404047Y-90220871D01*
X137404047Y-90220871D02*
X137427857Y-90268490D01*
X137427857Y-90268490D02*
X137451666Y-90292300D01*
X137451666Y-90292300D02*
X137499285Y-90316109D01*
X137499285Y-90316109D02*
X137594523Y-90316109D01*
X137594523Y-90316109D02*
X137642142Y-90292300D01*
X137642142Y-90292300D02*
X137665952Y-90268490D01*
X137665952Y-90268490D02*
X137689761Y-90220871D01*
X137689761Y-90220871D02*
X137689761Y-89816109D01*
X137999286Y-90030395D02*
X137951667Y-90006585D01*
X137951667Y-90006585D02*
X137927857Y-89982776D01*
X137927857Y-89982776D02*
X137904048Y-89935157D01*
X137904048Y-89935157D02*
X137904048Y-89911347D01*
X137904048Y-89911347D02*
X137927857Y-89863728D01*
X137927857Y-89863728D02*
X137951667Y-89839919D01*
X137951667Y-89839919D02*
X137999286Y-89816109D01*
X137999286Y-89816109D02*
X138094524Y-89816109D01*
X138094524Y-89816109D02*
X138142143Y-89839919D01*
X138142143Y-89839919D02*
X138165952Y-89863728D01*
X138165952Y-89863728D02*
X138189762Y-89911347D01*
X138189762Y-89911347D02*
X138189762Y-89935157D01*
X138189762Y-89935157D02*
X138165952Y-89982776D01*
X138165952Y-89982776D02*
X138142143Y-90006585D01*
X138142143Y-90006585D02*
X138094524Y-90030395D01*
X138094524Y-90030395D02*
X137999286Y-90030395D01*
X137999286Y-90030395D02*
X137951667Y-90054204D01*
X137951667Y-90054204D02*
X137927857Y-90078014D01*
X137927857Y-90078014D02*
X137904048Y-90125633D01*
X137904048Y-90125633D02*
X137904048Y-90220871D01*
X137904048Y-90220871D02*
X137927857Y-90268490D01*
X137927857Y-90268490D02*
X137951667Y-90292300D01*
X137951667Y-90292300D02*
X137999286Y-90316109D01*
X137999286Y-90316109D02*
X138094524Y-90316109D01*
X138094524Y-90316109D02*
X138142143Y-90292300D01*
X138142143Y-90292300D02*
X138165952Y-90268490D01*
X138165952Y-90268490D02*
X138189762Y-90220871D01*
X138189762Y-90220871D02*
X138189762Y-90125633D01*
X138189762Y-90125633D02*
X138165952Y-90078014D01*
X138165952Y-90078014D02*
X138142143Y-90054204D01*
X138142143Y-90054204D02*
X138094524Y-90030395D01*
D10*
X135460103Y-94942847D02*
X135293437Y-94704752D01*
X135174389Y-94942847D02*
X135174389Y-94442847D01*
X135174389Y-94442847D02*
X135364865Y-94442847D01*
X135364865Y-94442847D02*
X135412484Y-94466657D01*
X135412484Y-94466657D02*
X135436294Y-94490466D01*
X135436294Y-94490466D02*
X135460103Y-94538085D01*
X135460103Y-94538085D02*
X135460103Y-94609514D01*
X135460103Y-94609514D02*
X135436294Y-94657133D01*
X135436294Y-94657133D02*
X135412484Y-94680942D01*
X135412484Y-94680942D02*
X135364865Y-94704752D01*
X135364865Y-94704752D02*
X135174389Y-94704752D01*
X135626770Y-94442847D02*
X135960103Y-94442847D01*
X135960103Y-94442847D02*
X135745818Y-94942847D01*
X133687276Y-97576683D02*
X133449181Y-97743349D01*
X133687276Y-97862397D02*
X133187276Y-97862397D01*
X133187276Y-97862397D02*
X133187276Y-97671921D01*
X133187276Y-97671921D02*
X133211086Y-97624302D01*
X133211086Y-97624302D02*
X133234895Y-97600492D01*
X133234895Y-97600492D02*
X133282514Y-97576683D01*
X133282514Y-97576683D02*
X133353943Y-97576683D01*
X133353943Y-97576683D02*
X133401562Y-97600492D01*
X133401562Y-97600492D02*
X133425371Y-97624302D01*
X133425371Y-97624302D02*
X133449181Y-97671921D01*
X133449181Y-97671921D02*
X133449181Y-97862397D01*
X133187276Y-97124302D02*
X133187276Y-97362397D01*
X133187276Y-97362397D02*
X133425371Y-97386206D01*
X133425371Y-97386206D02*
X133401562Y-97362397D01*
X133401562Y-97362397D02*
X133377752Y-97314778D01*
X133377752Y-97314778D02*
X133377752Y-97195730D01*
X133377752Y-97195730D02*
X133401562Y-97148111D01*
X133401562Y-97148111D02*
X133425371Y-97124302D01*
X133425371Y-97124302D02*
X133472990Y-97100492D01*
X133472990Y-97100492D02*
X133592038Y-97100492D01*
X133592038Y-97100492D02*
X133639657Y-97124302D01*
X133639657Y-97124302D02*
X133663467Y-97148111D01*
X133663467Y-97148111D02*
X133687276Y-97195730D01*
X133687276Y-97195730D02*
X133687276Y-97314778D01*
X133687276Y-97314778D02*
X133663467Y-97362397D01*
X133663467Y-97362397D02*
X133639657Y-97386206D01*
X129363393Y-89107176D02*
X129363393Y-89464319D01*
X129363393Y-89464319D02*
X129339584Y-89535747D01*
X129339584Y-89535747D02*
X129291965Y-89583367D01*
X129291965Y-89583367D02*
X129220536Y-89607176D01*
X129220536Y-89607176D02*
X129172917Y-89607176D01*
X129672917Y-89321462D02*
X129625298Y-89297652D01*
X129625298Y-89297652D02*
X129601488Y-89273843D01*
X129601488Y-89273843D02*
X129577679Y-89226224D01*
X129577679Y-89226224D02*
X129577679Y-89202414D01*
X129577679Y-89202414D02*
X129601488Y-89154795D01*
X129601488Y-89154795D02*
X129625298Y-89130986D01*
X129625298Y-89130986D02*
X129672917Y-89107176D01*
X129672917Y-89107176D02*
X129768155Y-89107176D01*
X129768155Y-89107176D02*
X129815774Y-89130986D01*
X129815774Y-89130986D02*
X129839583Y-89154795D01*
X129839583Y-89154795D02*
X129863393Y-89202414D01*
X129863393Y-89202414D02*
X129863393Y-89226224D01*
X129863393Y-89226224D02*
X129839583Y-89273843D01*
X129839583Y-89273843D02*
X129815774Y-89297652D01*
X129815774Y-89297652D02*
X129768155Y-89321462D01*
X129768155Y-89321462D02*
X129672917Y-89321462D01*
X129672917Y-89321462D02*
X129625298Y-89345271D01*
X129625298Y-89345271D02*
X129601488Y-89369081D01*
X129601488Y-89369081D02*
X129577679Y-89416700D01*
X129577679Y-89416700D02*
X129577679Y-89511938D01*
X129577679Y-89511938D02*
X129601488Y-89559557D01*
X129601488Y-89559557D02*
X129625298Y-89583367D01*
X129625298Y-89583367D02*
X129672917Y-89607176D01*
X129672917Y-89607176D02*
X129768155Y-89607176D01*
X129768155Y-89607176D02*
X129815774Y-89583367D01*
X129815774Y-89583367D02*
X129839583Y-89559557D01*
X129839583Y-89559557D02*
X129863393Y-89511938D01*
X129863393Y-89511938D02*
X129863393Y-89416700D01*
X129863393Y-89416700D02*
X129839583Y-89369081D01*
X129839583Y-89369081D02*
X129815774Y-89345271D01*
X129815774Y-89345271D02*
X129768155Y-89321462D01*
X137615260Y-98397322D02*
X137615260Y-98754465D01*
X137615260Y-98754465D02*
X137591451Y-98825893D01*
X137591451Y-98825893D02*
X137543832Y-98873513D01*
X137543832Y-98873513D02*
X137472403Y-98897322D01*
X137472403Y-98897322D02*
X137424784Y-98897322D01*
X137805736Y-98397322D02*
X138115260Y-98397322D01*
X138115260Y-98397322D02*
X137948593Y-98587798D01*
X137948593Y-98587798D02*
X138020022Y-98587798D01*
X138020022Y-98587798D02*
X138067641Y-98611608D01*
X138067641Y-98611608D02*
X138091450Y-98635417D01*
X138091450Y-98635417D02*
X138115260Y-98683036D01*
X138115260Y-98683036D02*
X138115260Y-98802084D01*
X138115260Y-98802084D02*
X138091450Y-98849703D01*
X138091450Y-98849703D02*
X138067641Y-98873513D01*
X138067641Y-98873513D02*
X138020022Y-98897322D01*
X138020022Y-98897322D02*
X137877165Y-98897322D01*
X137877165Y-98897322D02*
X137829546Y-98873513D01*
X137829546Y-98873513D02*
X137805736Y-98849703D01*
X128698334Y-95027904D02*
X128531667Y-95027904D01*
X128531667Y-95289809D02*
X128531667Y-94789809D01*
X128531667Y-94789809D02*
X128769762Y-94789809D01*
X129126905Y-95027904D02*
X129198333Y-95051714D01*
X129198333Y-95051714D02*
X129222143Y-95075523D01*
X129222143Y-95075523D02*
X129245952Y-95123142D01*
X129245952Y-95123142D02*
X129245952Y-95194571D01*
X129245952Y-95194571D02*
X129222143Y-95242190D01*
X129222143Y-95242190D02*
X129198333Y-95266000D01*
X129198333Y-95266000D02*
X129150714Y-95289809D01*
X129150714Y-95289809D02*
X128960238Y-95289809D01*
X128960238Y-95289809D02*
X128960238Y-94789809D01*
X128960238Y-94789809D02*
X129126905Y-94789809D01*
X129126905Y-94789809D02*
X129174524Y-94813619D01*
X129174524Y-94813619D02*
X129198333Y-94837428D01*
X129198333Y-94837428D02*
X129222143Y-94885047D01*
X129222143Y-94885047D02*
X129222143Y-94932666D01*
X129222143Y-94932666D02*
X129198333Y-94980285D01*
X129198333Y-94980285D02*
X129174524Y-95004095D01*
X129174524Y-95004095D02*
X129126905Y-95027904D01*
X129126905Y-95027904D02*
X128960238Y-95027904D01*
X129722143Y-95289809D02*
X129436429Y-95289809D01*
X129579286Y-95289809D02*
X129579286Y-94789809D01*
X129579286Y-94789809D02*
X129531667Y-94861238D01*
X129531667Y-94861238D02*
X129484048Y-94908857D01*
X129484048Y-94908857D02*
X129436429Y-94932666D01*
X138339571Y-91145433D02*
X138315762Y-91169243D01*
X138315762Y-91169243D02*
X138244333Y-91193052D01*
X138244333Y-91193052D02*
X138196714Y-91193052D01*
X138196714Y-91193052D02*
X138125286Y-91169243D01*
X138125286Y-91169243D02*
X138077667Y-91121623D01*
X138077667Y-91121623D02*
X138053857Y-91074004D01*
X138053857Y-91074004D02*
X138030048Y-90978766D01*
X138030048Y-90978766D02*
X138030048Y-90907338D01*
X138030048Y-90907338D02*
X138053857Y-90812100D01*
X138053857Y-90812100D02*
X138077667Y-90764481D01*
X138077667Y-90764481D02*
X138125286Y-90716862D01*
X138125286Y-90716862D02*
X138196714Y-90693052D01*
X138196714Y-90693052D02*
X138244333Y-90693052D01*
X138244333Y-90693052D02*
X138315762Y-90716862D01*
X138315762Y-90716862D02*
X138339571Y-90740671D01*
X138815762Y-91193052D02*
X138530048Y-91193052D01*
X138672905Y-91193052D02*
X138672905Y-90693052D01*
X138672905Y-90693052D02*
X138625286Y-90764481D01*
X138625286Y-90764481D02*
X138577667Y-90812100D01*
X138577667Y-90812100D02*
X138530048Y-90835909D01*
X157362061Y-96554583D02*
X157362061Y-96792678D01*
X157362061Y-96792678D02*
X156862061Y-96792678D01*
X156862061Y-96149821D02*
X156862061Y-96387916D01*
X156862061Y-96387916D02*
X157100156Y-96411725D01*
X157100156Y-96411725D02*
X157076347Y-96387916D01*
X157076347Y-96387916D02*
X157052537Y-96340297D01*
X157052537Y-96340297D02*
X157052537Y-96221249D01*
X157052537Y-96221249D02*
X157076347Y-96173630D01*
X157076347Y-96173630D02*
X157100156Y-96149821D01*
X157100156Y-96149821D02*
X157147775Y-96126011D01*
X157147775Y-96126011D02*
X157266823Y-96126011D01*
X157266823Y-96126011D02*
X157314442Y-96149821D01*
X157314442Y-96149821D02*
X157338252Y-96173630D01*
X157338252Y-96173630D02*
X157362061Y-96221249D01*
X157362061Y-96221249D02*
X157362061Y-96340297D01*
X157362061Y-96340297D02*
X157338252Y-96387916D01*
X157338252Y-96387916D02*
X157314442Y-96411725D01*
X147435259Y-77335086D02*
X147411450Y-77358896D01*
X147411450Y-77358896D02*
X147340021Y-77382705D01*
X147340021Y-77382705D02*
X147292402Y-77382705D01*
X147292402Y-77382705D02*
X147220974Y-77358896D01*
X147220974Y-77358896D02*
X147173355Y-77311276D01*
X147173355Y-77311276D02*
X147149545Y-77263657D01*
X147149545Y-77263657D02*
X147125736Y-77168419D01*
X147125736Y-77168419D02*
X147125736Y-77096991D01*
X147125736Y-77096991D02*
X147149545Y-77001753D01*
X147149545Y-77001753D02*
X147173355Y-76954134D01*
X147173355Y-76954134D02*
X147220974Y-76906515D01*
X147220974Y-76906515D02*
X147292402Y-76882705D01*
X147292402Y-76882705D02*
X147340021Y-76882705D01*
X147340021Y-76882705D02*
X147411450Y-76906515D01*
X147411450Y-76906515D02*
X147435259Y-76930324D01*
X147911450Y-77382705D02*
X147625736Y-77382705D01*
X147768593Y-77382705D02*
X147768593Y-76882705D01*
X147768593Y-76882705D02*
X147720974Y-76954134D01*
X147720974Y-76954134D02*
X147673355Y-77001753D01*
X147673355Y-77001753D02*
X147625736Y-77025562D01*
X148220973Y-76882705D02*
X148268592Y-76882705D01*
X148268592Y-76882705D02*
X148316211Y-76906515D01*
X148316211Y-76906515D02*
X148340021Y-76930324D01*
X148340021Y-76930324D02*
X148363830Y-76977943D01*
X148363830Y-76977943D02*
X148387640Y-77073181D01*
X148387640Y-77073181D02*
X148387640Y-77192229D01*
X148387640Y-77192229D02*
X148363830Y-77287467D01*
X148363830Y-77287467D02*
X148340021Y-77335086D01*
X148340021Y-77335086D02*
X148316211Y-77358896D01*
X148316211Y-77358896D02*
X148268592Y-77382705D01*
X148268592Y-77382705D02*
X148220973Y-77382705D01*
X148220973Y-77382705D02*
X148173354Y-77358896D01*
X148173354Y-77358896D02*
X148149545Y-77335086D01*
X148149545Y-77335086D02*
X148125735Y-77287467D01*
X148125735Y-77287467D02*
X148101926Y-77192229D01*
X148101926Y-77192229D02*
X148101926Y-77073181D01*
X148101926Y-77073181D02*
X148125735Y-76977943D01*
X148125735Y-76977943D02*
X148149545Y-76930324D01*
X148149545Y-76930324D02*
X148173354Y-76906515D01*
X148173354Y-76906515D02*
X148220973Y-76882705D01*
X141639376Y-75400117D02*
X141639376Y-75804879D01*
X141639376Y-75804879D02*
X141663186Y-75852498D01*
X141663186Y-75852498D02*
X141686995Y-75876308D01*
X141686995Y-75876308D02*
X141734614Y-75900117D01*
X141734614Y-75900117D02*
X141829852Y-75900117D01*
X141829852Y-75900117D02*
X141877471Y-75876308D01*
X141877471Y-75876308D02*
X141901281Y-75852498D01*
X141901281Y-75852498D02*
X141925090Y-75804879D01*
X141925090Y-75804879D02*
X141925090Y-75400117D01*
X142401281Y-75400117D02*
X142163186Y-75400117D01*
X142163186Y-75400117D02*
X142139377Y-75638212D01*
X142139377Y-75638212D02*
X142163186Y-75614403D01*
X142163186Y-75614403D02*
X142210805Y-75590593D01*
X142210805Y-75590593D02*
X142329853Y-75590593D01*
X142329853Y-75590593D02*
X142377472Y-75614403D01*
X142377472Y-75614403D02*
X142401281Y-75638212D01*
X142401281Y-75638212D02*
X142425091Y-75685831D01*
X142425091Y-75685831D02*
X142425091Y-75804879D01*
X142425091Y-75804879D02*
X142401281Y-75852498D01*
X142401281Y-75852498D02*
X142377472Y-75876308D01*
X142377472Y-75876308D02*
X142329853Y-75900117D01*
X142329853Y-75900117D02*
X142210805Y-75900117D01*
X142210805Y-75900117D02*
X142163186Y-75876308D01*
X142163186Y-75876308D02*
X142139377Y-75852498D01*
X145422120Y-74004000D02*
X145255454Y-73765905D01*
X145136406Y-74004000D02*
X145136406Y-73504000D01*
X145136406Y-73504000D02*
X145326882Y-73504000D01*
X145326882Y-73504000D02*
X145374501Y-73527810D01*
X145374501Y-73527810D02*
X145398311Y-73551619D01*
X145398311Y-73551619D02*
X145422120Y-73599238D01*
X145422120Y-73599238D02*
X145422120Y-73670667D01*
X145422120Y-73670667D02*
X145398311Y-73718286D01*
X145398311Y-73718286D02*
X145374501Y-73742095D01*
X145374501Y-73742095D02*
X145326882Y-73765905D01*
X145326882Y-73765905D02*
X145136406Y-73765905D01*
X145898311Y-74004000D02*
X145612597Y-74004000D01*
X145755454Y-74004000D02*
X145755454Y-73504000D01*
X145755454Y-73504000D02*
X145707835Y-73575429D01*
X145707835Y-73575429D02*
X145660216Y-73623048D01*
X145660216Y-73623048D02*
X145612597Y-73646857D01*
X146326882Y-73670667D02*
X146326882Y-74004000D01*
X146207834Y-73480191D02*
X146088787Y-73837333D01*
X146088787Y-73837333D02*
X146398310Y-73837333D01*
X142083333Y-81604809D02*
X142083333Y-81961952D01*
X142083333Y-81961952D02*
X142059524Y-82033380D01*
X142059524Y-82033380D02*
X142011905Y-82081000D01*
X142011905Y-82081000D02*
X141940476Y-82104809D01*
X141940476Y-82104809D02*
X141892857Y-82104809D01*
X142535714Y-81771476D02*
X142535714Y-82104809D01*
X142416666Y-81581000D02*
X142297619Y-81938142D01*
X142297619Y-81938142D02*
X142607142Y-81938142D01*
X158038012Y-91789927D02*
X158061822Y-91813736D01*
X158061822Y-91813736D02*
X158085631Y-91885165D01*
X158085631Y-91885165D02*
X158085631Y-91932784D01*
X158085631Y-91932784D02*
X158061822Y-92004212D01*
X158061822Y-92004212D02*
X158014202Y-92051831D01*
X158014202Y-92051831D02*
X157966583Y-92075641D01*
X157966583Y-92075641D02*
X157871345Y-92099450D01*
X157871345Y-92099450D02*
X157799917Y-92099450D01*
X157799917Y-92099450D02*
X157704679Y-92075641D01*
X157704679Y-92075641D02*
X157657060Y-92051831D01*
X157657060Y-92051831D02*
X157609441Y-92004212D01*
X157609441Y-92004212D02*
X157585631Y-91932784D01*
X157585631Y-91932784D02*
X157585631Y-91885165D01*
X157585631Y-91885165D02*
X157609441Y-91813736D01*
X157609441Y-91813736D02*
X157633250Y-91789927D01*
X157633250Y-91599450D02*
X157609441Y-91575641D01*
X157609441Y-91575641D02*
X157585631Y-91528022D01*
X157585631Y-91528022D02*
X157585631Y-91408974D01*
X157585631Y-91408974D02*
X157609441Y-91361355D01*
X157609441Y-91361355D02*
X157633250Y-91337546D01*
X157633250Y-91337546D02*
X157680869Y-91313736D01*
X157680869Y-91313736D02*
X157728488Y-91313736D01*
X157728488Y-91313736D02*
X157799917Y-91337546D01*
X157799917Y-91337546D02*
X158085631Y-91623260D01*
X158085631Y-91623260D02*
X158085631Y-91313736D01*
X157585631Y-91004213D02*
X157585631Y-90956594D01*
X157585631Y-90956594D02*
X157609441Y-90908975D01*
X157609441Y-90908975D02*
X157633250Y-90885165D01*
X157633250Y-90885165D02*
X157680869Y-90861356D01*
X157680869Y-90861356D02*
X157776107Y-90837546D01*
X157776107Y-90837546D02*
X157895155Y-90837546D01*
X157895155Y-90837546D02*
X157990393Y-90861356D01*
X157990393Y-90861356D02*
X158038012Y-90885165D01*
X158038012Y-90885165D02*
X158061822Y-90908975D01*
X158061822Y-90908975D02*
X158085631Y-90956594D01*
X158085631Y-90956594D02*
X158085631Y-91004213D01*
X158085631Y-91004213D02*
X158061822Y-91051832D01*
X158061822Y-91051832D02*
X158038012Y-91075641D01*
X158038012Y-91075641D02*
X157990393Y-91099451D01*
X157990393Y-91099451D02*
X157895155Y-91123260D01*
X157895155Y-91123260D02*
X157776107Y-91123260D01*
X157776107Y-91123260D02*
X157680869Y-91099451D01*
X157680869Y-91099451D02*
X157633250Y-91075641D01*
X157633250Y-91075641D02*
X157609441Y-91051832D01*
X157609441Y-91051832D02*
X157585631Y-91004213D01*
X144974304Y-61335200D02*
X144974304Y-61692343D01*
X144974304Y-61692343D02*
X144950495Y-61763771D01*
X144950495Y-61763771D02*
X144902876Y-61811391D01*
X144902876Y-61811391D02*
X144831447Y-61835200D01*
X144831447Y-61835200D02*
X144783828Y-61835200D01*
X145212399Y-61835200D02*
X145212399Y-61335200D01*
X145212399Y-61335200D02*
X145402875Y-61335200D01*
X145402875Y-61335200D02*
X145450494Y-61359010D01*
X145450494Y-61359010D02*
X145474304Y-61382819D01*
X145474304Y-61382819D02*
X145498113Y-61430438D01*
X145498113Y-61430438D02*
X145498113Y-61501867D01*
X145498113Y-61501867D02*
X145474304Y-61549486D01*
X145474304Y-61549486D02*
X145450494Y-61573295D01*
X145450494Y-61573295D02*
X145402875Y-61597105D01*
X145402875Y-61597105D02*
X145212399Y-61597105D01*
X145974304Y-61835200D02*
X145688590Y-61835200D01*
X145831447Y-61835200D02*
X145831447Y-61335200D01*
X145831447Y-61335200D02*
X145783828Y-61406629D01*
X145783828Y-61406629D02*
X145736209Y-61454248D01*
X145736209Y-61454248D02*
X145688590Y-61478057D01*
X162083333Y-80594809D02*
X162083333Y-80951952D01*
X162083333Y-80951952D02*
X162059524Y-81023380D01*
X162059524Y-81023380D02*
X162011905Y-81071000D01*
X162011905Y-81071000D02*
X161940476Y-81094809D01*
X161940476Y-81094809D02*
X161892857Y-81094809D01*
X162559523Y-80594809D02*
X162321428Y-80594809D01*
X162321428Y-80594809D02*
X162297619Y-80832904D01*
X162297619Y-80832904D02*
X162321428Y-80809095D01*
X162321428Y-80809095D02*
X162369047Y-80785285D01*
X162369047Y-80785285D02*
X162488095Y-80785285D01*
X162488095Y-80785285D02*
X162535714Y-80809095D01*
X162535714Y-80809095D02*
X162559523Y-80832904D01*
X162559523Y-80832904D02*
X162583333Y-80880523D01*
X162583333Y-80880523D02*
X162583333Y-80999571D01*
X162583333Y-80999571D02*
X162559523Y-81047190D01*
X162559523Y-81047190D02*
X162535714Y-81071000D01*
X162535714Y-81071000D02*
X162488095Y-81094809D01*
X162488095Y-81094809D02*
X162369047Y-81094809D01*
X162369047Y-81094809D02*
X162321428Y-81071000D01*
X162321428Y-81071000D02*
X162297619Y-81047190D01*
X145798265Y-56859494D02*
X145774456Y-56883304D01*
X145774456Y-56883304D02*
X145703027Y-56907113D01*
X145703027Y-56907113D02*
X145655408Y-56907113D01*
X145655408Y-56907113D02*
X145583980Y-56883304D01*
X145583980Y-56883304D02*
X145536361Y-56835684D01*
X145536361Y-56835684D02*
X145512551Y-56788065D01*
X145512551Y-56788065D02*
X145488742Y-56692827D01*
X145488742Y-56692827D02*
X145488742Y-56621399D01*
X145488742Y-56621399D02*
X145512551Y-56526161D01*
X145512551Y-56526161D02*
X145536361Y-56478542D01*
X145536361Y-56478542D02*
X145583980Y-56430923D01*
X145583980Y-56430923D02*
X145655408Y-56407113D01*
X145655408Y-56407113D02*
X145703027Y-56407113D01*
X145703027Y-56407113D02*
X145774456Y-56430923D01*
X145774456Y-56430923D02*
X145798265Y-56454732D01*
X146274456Y-56907113D02*
X145988742Y-56907113D01*
X146131599Y-56907113D02*
X146131599Y-56407113D01*
X146131599Y-56407113D02*
X146083980Y-56478542D01*
X146083980Y-56478542D02*
X146036361Y-56526161D01*
X146036361Y-56526161D02*
X145988742Y-56549970D01*
X146726836Y-56407113D02*
X146488741Y-56407113D01*
X146488741Y-56407113D02*
X146464932Y-56645208D01*
X146464932Y-56645208D02*
X146488741Y-56621399D01*
X146488741Y-56621399D02*
X146536360Y-56597589D01*
X146536360Y-56597589D02*
X146655408Y-56597589D01*
X146655408Y-56597589D02*
X146703027Y-56621399D01*
X146703027Y-56621399D02*
X146726836Y-56645208D01*
X146726836Y-56645208D02*
X146750646Y-56692827D01*
X146750646Y-56692827D02*
X146750646Y-56811875D01*
X146750646Y-56811875D02*
X146726836Y-56859494D01*
X146726836Y-56859494D02*
X146703027Y-56883304D01*
X146703027Y-56883304D02*
X146655408Y-56907113D01*
X146655408Y-56907113D02*
X146536360Y-56907113D01*
X146536360Y-56907113D02*
X146488741Y-56883304D01*
X146488741Y-56883304D02*
X146464932Y-56859494D01*
X154036260Y-96180606D02*
X154012451Y-96204416D01*
X154012451Y-96204416D02*
X153941022Y-96228225D01*
X153941022Y-96228225D02*
X153893403Y-96228225D01*
X153893403Y-96228225D02*
X153821975Y-96204416D01*
X153821975Y-96204416D02*
X153774356Y-96156796D01*
X153774356Y-96156796D02*
X153750546Y-96109177D01*
X153750546Y-96109177D02*
X153726737Y-96013939D01*
X153726737Y-96013939D02*
X153726737Y-95942511D01*
X153726737Y-95942511D02*
X153750546Y-95847273D01*
X153750546Y-95847273D02*
X153774356Y-95799654D01*
X153774356Y-95799654D02*
X153821975Y-95752035D01*
X153821975Y-95752035D02*
X153893403Y-95728225D01*
X153893403Y-95728225D02*
X153941022Y-95728225D01*
X153941022Y-95728225D02*
X154012451Y-95752035D01*
X154012451Y-95752035D02*
X154036260Y-95775844D01*
X154226737Y-95775844D02*
X154250546Y-95752035D01*
X154250546Y-95752035D02*
X154298165Y-95728225D01*
X154298165Y-95728225D02*
X154417213Y-95728225D01*
X154417213Y-95728225D02*
X154464832Y-95752035D01*
X154464832Y-95752035D02*
X154488641Y-95775844D01*
X154488641Y-95775844D02*
X154512451Y-95823463D01*
X154512451Y-95823463D02*
X154512451Y-95871082D01*
X154512451Y-95871082D02*
X154488641Y-95942511D01*
X154488641Y-95942511D02*
X154202927Y-96228225D01*
X154202927Y-96228225D02*
X154512451Y-96228225D01*
X154702927Y-95775844D02*
X154726736Y-95752035D01*
X154726736Y-95752035D02*
X154774355Y-95728225D01*
X154774355Y-95728225D02*
X154893403Y-95728225D01*
X154893403Y-95728225D02*
X154941022Y-95752035D01*
X154941022Y-95752035D02*
X154964831Y-95775844D01*
X154964831Y-95775844D02*
X154988641Y-95823463D01*
X154988641Y-95823463D02*
X154988641Y-95871082D01*
X154988641Y-95871082D02*
X154964831Y-95942511D01*
X154964831Y-95942511D02*
X154679117Y-96228225D01*
X154679117Y-96228225D02*
X154988641Y-96228225D01*
X148252190Y-70076428D02*
X148276000Y-70100237D01*
X148276000Y-70100237D02*
X148299809Y-70171666D01*
X148299809Y-70171666D02*
X148299809Y-70219285D01*
X148299809Y-70219285D02*
X148276000Y-70290713D01*
X148276000Y-70290713D02*
X148228380Y-70338332D01*
X148228380Y-70338332D02*
X148180761Y-70362142D01*
X148180761Y-70362142D02*
X148085523Y-70385951D01*
X148085523Y-70385951D02*
X148014095Y-70385951D01*
X148014095Y-70385951D02*
X147918857Y-70362142D01*
X147918857Y-70362142D02*
X147871238Y-70338332D01*
X147871238Y-70338332D02*
X147823619Y-70290713D01*
X147823619Y-70290713D02*
X147799809Y-70219285D01*
X147799809Y-70219285D02*
X147799809Y-70171666D01*
X147799809Y-70171666D02*
X147823619Y-70100237D01*
X147823619Y-70100237D02*
X147847428Y-70076428D01*
X148299809Y-69600237D02*
X148299809Y-69885951D01*
X148299809Y-69743094D02*
X147799809Y-69743094D01*
X147799809Y-69743094D02*
X147871238Y-69790713D01*
X147871238Y-69790713D02*
X147918857Y-69838332D01*
X147918857Y-69838332D02*
X147942666Y-69885951D01*
X147799809Y-69433571D02*
X147799809Y-69124047D01*
X147799809Y-69124047D02*
X147990285Y-69290714D01*
X147990285Y-69290714D02*
X147990285Y-69219285D01*
X147990285Y-69219285D02*
X148014095Y-69171666D01*
X148014095Y-69171666D02*
X148037904Y-69147857D01*
X148037904Y-69147857D02*
X148085523Y-69124047D01*
X148085523Y-69124047D02*
X148204571Y-69124047D01*
X148204571Y-69124047D02*
X148252190Y-69147857D01*
X148252190Y-69147857D02*
X148276000Y-69171666D01*
X148276000Y-69171666D02*
X148299809Y-69219285D01*
X148299809Y-69219285D02*
X148299809Y-69362142D01*
X148299809Y-69362142D02*
X148276000Y-69409761D01*
X148276000Y-69409761D02*
X148252190Y-69433571D01*
X157362061Y-101554583D02*
X157362061Y-101792678D01*
X157362061Y-101792678D02*
X156862061Y-101792678D01*
X156862061Y-101435535D02*
X156862061Y-101102202D01*
X156862061Y-101102202D02*
X157362061Y-101316487D01*
X154855651Y-48987136D02*
X154617556Y-48987136D01*
X154617556Y-48987136D02*
X154617556Y-48487136D01*
X155284223Y-48987136D02*
X154998509Y-48987136D01*
X155141366Y-48987136D02*
X155141366Y-48487136D01*
X155141366Y-48487136D02*
X155093747Y-48558565D01*
X155093747Y-48558565D02*
X155046128Y-48606184D01*
X155046128Y-48606184D02*
X154998509Y-48629993D01*
X141166941Y-54291479D02*
X141000275Y-54053384D01*
X140881227Y-54291479D02*
X140881227Y-53791479D01*
X140881227Y-53791479D02*
X141071703Y-53791479D01*
X141071703Y-53791479D02*
X141119322Y-53815289D01*
X141119322Y-53815289D02*
X141143132Y-53839098D01*
X141143132Y-53839098D02*
X141166941Y-53886717D01*
X141166941Y-53886717D02*
X141166941Y-53958146D01*
X141166941Y-53958146D02*
X141143132Y-54005765D01*
X141143132Y-54005765D02*
X141119322Y-54029574D01*
X141119322Y-54029574D02*
X141071703Y-54053384D01*
X141071703Y-54053384D02*
X140881227Y-54053384D01*
X141643132Y-54291479D02*
X141357418Y-54291479D01*
X141500275Y-54291479D02*
X141500275Y-53791479D01*
X141500275Y-53791479D02*
X141452656Y-53862908D01*
X141452656Y-53862908D02*
X141405037Y-53910527D01*
X141405037Y-53910527D02*
X141357418Y-53934336D01*
X155928571Y-86607190D02*
X155904762Y-86631000D01*
X155904762Y-86631000D02*
X155833333Y-86654809D01*
X155833333Y-86654809D02*
X155785714Y-86654809D01*
X155785714Y-86654809D02*
X155714286Y-86631000D01*
X155714286Y-86631000D02*
X155666667Y-86583380D01*
X155666667Y-86583380D02*
X155642857Y-86535761D01*
X155642857Y-86535761D02*
X155619048Y-86440523D01*
X155619048Y-86440523D02*
X155619048Y-86369095D01*
X155619048Y-86369095D02*
X155642857Y-86273857D01*
X155642857Y-86273857D02*
X155666667Y-86226238D01*
X155666667Y-86226238D02*
X155714286Y-86178619D01*
X155714286Y-86178619D02*
X155785714Y-86154809D01*
X155785714Y-86154809D02*
X155833333Y-86154809D01*
X155833333Y-86154809D02*
X155904762Y-86178619D01*
X155904762Y-86178619D02*
X155928571Y-86202428D01*
X156404762Y-86654809D02*
X156119048Y-86654809D01*
X156261905Y-86654809D02*
X156261905Y-86154809D01*
X156261905Y-86154809D02*
X156214286Y-86226238D01*
X156214286Y-86226238D02*
X156166667Y-86273857D01*
X156166667Y-86273857D02*
X156119048Y-86297666D01*
X156833333Y-86321476D02*
X156833333Y-86654809D01*
X156714285Y-86131000D02*
X156595238Y-86488142D01*
X156595238Y-86488142D02*
X156904761Y-86488142D01*
X151516214Y-69947232D02*
X151540024Y-69971041D01*
X151540024Y-69971041D02*
X151563833Y-70042470D01*
X151563833Y-70042470D02*
X151563833Y-70090089D01*
X151563833Y-70090089D02*
X151540024Y-70161517D01*
X151540024Y-70161517D02*
X151492404Y-70209136D01*
X151492404Y-70209136D02*
X151444785Y-70232946D01*
X151444785Y-70232946D02*
X151349547Y-70256755D01*
X151349547Y-70256755D02*
X151278119Y-70256755D01*
X151278119Y-70256755D02*
X151182881Y-70232946D01*
X151182881Y-70232946D02*
X151135262Y-70209136D01*
X151135262Y-70209136D02*
X151087643Y-70161517D01*
X151087643Y-70161517D02*
X151063833Y-70090089D01*
X151063833Y-70090089D02*
X151063833Y-70042470D01*
X151063833Y-70042470D02*
X151087643Y-69971041D01*
X151087643Y-69971041D02*
X151111452Y-69947232D01*
X151563833Y-69471041D02*
X151563833Y-69756755D01*
X151563833Y-69613898D02*
X151063833Y-69613898D01*
X151063833Y-69613898D02*
X151135262Y-69661517D01*
X151135262Y-69661517D02*
X151182881Y-69709136D01*
X151182881Y-69709136D02*
X151206690Y-69756755D01*
X151111452Y-69280565D02*
X151087643Y-69256756D01*
X151087643Y-69256756D02*
X151063833Y-69209137D01*
X151063833Y-69209137D02*
X151063833Y-69090089D01*
X151063833Y-69090089D02*
X151087643Y-69042470D01*
X151087643Y-69042470D02*
X151111452Y-69018661D01*
X151111452Y-69018661D02*
X151159071Y-68994851D01*
X151159071Y-68994851D02*
X151206690Y-68994851D01*
X151206690Y-68994851D02*
X151278119Y-69018661D01*
X151278119Y-69018661D02*
X151563833Y-69304375D01*
X151563833Y-69304375D02*
X151563833Y-68994851D01*
X152119047Y-89024809D02*
X152119047Y-89429571D01*
X152119047Y-89429571D02*
X152142857Y-89477190D01*
X152142857Y-89477190D02*
X152166666Y-89501000D01*
X152166666Y-89501000D02*
X152214285Y-89524809D01*
X152214285Y-89524809D02*
X152309523Y-89524809D01*
X152309523Y-89524809D02*
X152357142Y-89501000D01*
X152357142Y-89501000D02*
X152380952Y-89477190D01*
X152380952Y-89477190D02*
X152404761Y-89429571D01*
X152404761Y-89429571D02*
X152404761Y-89024809D01*
X152595238Y-89024809D02*
X152904762Y-89024809D01*
X152904762Y-89024809D02*
X152738095Y-89215285D01*
X152738095Y-89215285D02*
X152809524Y-89215285D01*
X152809524Y-89215285D02*
X152857143Y-89239095D01*
X152857143Y-89239095D02*
X152880952Y-89262904D01*
X152880952Y-89262904D02*
X152904762Y-89310523D01*
X152904762Y-89310523D02*
X152904762Y-89429571D01*
X152904762Y-89429571D02*
X152880952Y-89477190D01*
X152880952Y-89477190D02*
X152857143Y-89501000D01*
X152857143Y-89501000D02*
X152809524Y-89524809D01*
X152809524Y-89524809D02*
X152666667Y-89524809D01*
X152666667Y-89524809D02*
X152619048Y-89501000D01*
X152619048Y-89501000D02*
X152595238Y-89477190D01*
X141134893Y-55210153D02*
X141111084Y-55233963D01*
X141111084Y-55233963D02*
X141039655Y-55257772D01*
X141039655Y-55257772D02*
X140992036Y-55257772D01*
X140992036Y-55257772D02*
X140920608Y-55233963D01*
X140920608Y-55233963D02*
X140872989Y-55186343D01*
X140872989Y-55186343D02*
X140849179Y-55138724D01*
X140849179Y-55138724D02*
X140825370Y-55043486D01*
X140825370Y-55043486D02*
X140825370Y-54972058D01*
X140825370Y-54972058D02*
X140849179Y-54876820D01*
X140849179Y-54876820D02*
X140872989Y-54829201D01*
X140872989Y-54829201D02*
X140920608Y-54781582D01*
X140920608Y-54781582D02*
X140992036Y-54757772D01*
X140992036Y-54757772D02*
X141039655Y-54757772D01*
X141039655Y-54757772D02*
X141111084Y-54781582D01*
X141111084Y-54781582D02*
X141134893Y-54805391D01*
X141325370Y-54805391D02*
X141349179Y-54781582D01*
X141349179Y-54781582D02*
X141396798Y-54757772D01*
X141396798Y-54757772D02*
X141515846Y-54757772D01*
X141515846Y-54757772D02*
X141563465Y-54781582D01*
X141563465Y-54781582D02*
X141587274Y-54805391D01*
X141587274Y-54805391D02*
X141611084Y-54853010D01*
X141611084Y-54853010D02*
X141611084Y-54900629D01*
X141611084Y-54900629D02*
X141587274Y-54972058D01*
X141587274Y-54972058D02*
X141301560Y-55257772D01*
X141301560Y-55257772D02*
X141611084Y-55257772D01*
X158404809Y-84083333D02*
X158166714Y-84249999D01*
X158404809Y-84369047D02*
X157904809Y-84369047D01*
X157904809Y-84369047D02*
X157904809Y-84178571D01*
X157904809Y-84178571D02*
X157928619Y-84130952D01*
X157928619Y-84130952D02*
X157952428Y-84107142D01*
X157952428Y-84107142D02*
X158000047Y-84083333D01*
X158000047Y-84083333D02*
X158071476Y-84083333D01*
X158071476Y-84083333D02*
X158119095Y-84107142D01*
X158119095Y-84107142D02*
X158142904Y-84130952D01*
X158142904Y-84130952D02*
X158166714Y-84178571D01*
X158166714Y-84178571D02*
X158166714Y-84369047D01*
X158119095Y-83797618D02*
X158095285Y-83845237D01*
X158095285Y-83845237D02*
X158071476Y-83869047D01*
X158071476Y-83869047D02*
X158023857Y-83892856D01*
X158023857Y-83892856D02*
X158000047Y-83892856D01*
X158000047Y-83892856D02*
X157952428Y-83869047D01*
X157952428Y-83869047D02*
X157928619Y-83845237D01*
X157928619Y-83845237D02*
X157904809Y-83797618D01*
X157904809Y-83797618D02*
X157904809Y-83702380D01*
X157904809Y-83702380D02*
X157928619Y-83654761D01*
X157928619Y-83654761D02*
X157952428Y-83630952D01*
X157952428Y-83630952D02*
X158000047Y-83607142D01*
X158000047Y-83607142D02*
X158023857Y-83607142D01*
X158023857Y-83607142D02*
X158071476Y-83630952D01*
X158071476Y-83630952D02*
X158095285Y-83654761D01*
X158095285Y-83654761D02*
X158119095Y-83702380D01*
X158119095Y-83702380D02*
X158119095Y-83797618D01*
X158119095Y-83797618D02*
X158142904Y-83845237D01*
X158142904Y-83845237D02*
X158166714Y-83869047D01*
X158166714Y-83869047D02*
X158214333Y-83892856D01*
X158214333Y-83892856D02*
X158309571Y-83892856D01*
X158309571Y-83892856D02*
X158357190Y-83869047D01*
X158357190Y-83869047D02*
X158381000Y-83845237D01*
X158381000Y-83845237D02*
X158404809Y-83797618D01*
X158404809Y-83797618D02*
X158404809Y-83702380D01*
X158404809Y-83702380D02*
X158381000Y-83654761D01*
X158381000Y-83654761D02*
X158357190Y-83630952D01*
X158357190Y-83630952D02*
X158309571Y-83607142D01*
X158309571Y-83607142D02*
X158214333Y-83607142D01*
X158214333Y-83607142D02*
X158166714Y-83630952D01*
X158166714Y-83630952D02*
X158142904Y-83654761D01*
X158142904Y-83654761D02*
X158119095Y-83702380D01*
X152652906Y-73736674D02*
X152486240Y-73498579D01*
X152367192Y-73736674D02*
X152367192Y-73236674D01*
X152367192Y-73236674D02*
X152557668Y-73236674D01*
X152557668Y-73236674D02*
X152605287Y-73260484D01*
X152605287Y-73260484D02*
X152629097Y-73284293D01*
X152629097Y-73284293D02*
X152652906Y-73331912D01*
X152652906Y-73331912D02*
X152652906Y-73403341D01*
X152652906Y-73403341D02*
X152629097Y-73450960D01*
X152629097Y-73450960D02*
X152605287Y-73474769D01*
X152605287Y-73474769D02*
X152557668Y-73498579D01*
X152557668Y-73498579D02*
X152367192Y-73498579D01*
X153129097Y-73736674D02*
X152843383Y-73736674D01*
X152986240Y-73736674D02*
X152986240Y-73236674D01*
X152986240Y-73236674D02*
X152938621Y-73308103D01*
X152938621Y-73308103D02*
X152891002Y-73355722D01*
X152891002Y-73355722D02*
X152843383Y-73379531D01*
X153319573Y-73284293D02*
X153343382Y-73260484D01*
X153343382Y-73260484D02*
X153391001Y-73236674D01*
X153391001Y-73236674D02*
X153510049Y-73236674D01*
X153510049Y-73236674D02*
X153557668Y-73260484D01*
X153557668Y-73260484D02*
X153581477Y-73284293D01*
X153581477Y-73284293D02*
X153605287Y-73331912D01*
X153605287Y-73331912D02*
X153605287Y-73379531D01*
X153605287Y-73379531D02*
X153581477Y-73450960D01*
X153581477Y-73450960D02*
X153295763Y-73736674D01*
X153295763Y-73736674D02*
X153605287Y-73736674D01*
X150671579Y-94831695D02*
X150647770Y-94855505D01*
X150647770Y-94855505D02*
X150576341Y-94879314D01*
X150576341Y-94879314D02*
X150528722Y-94879314D01*
X150528722Y-94879314D02*
X150457294Y-94855505D01*
X150457294Y-94855505D02*
X150409675Y-94807885D01*
X150409675Y-94807885D02*
X150385865Y-94760266D01*
X150385865Y-94760266D02*
X150362056Y-94665028D01*
X150362056Y-94665028D02*
X150362056Y-94593600D01*
X150362056Y-94593600D02*
X150385865Y-94498362D01*
X150385865Y-94498362D02*
X150409675Y-94450743D01*
X150409675Y-94450743D02*
X150457294Y-94403124D01*
X150457294Y-94403124D02*
X150528722Y-94379314D01*
X150528722Y-94379314D02*
X150576341Y-94379314D01*
X150576341Y-94379314D02*
X150647770Y-94403124D01*
X150647770Y-94403124D02*
X150671579Y-94426933D01*
X150862056Y-94426933D02*
X150885865Y-94403124D01*
X150885865Y-94403124D02*
X150933484Y-94379314D01*
X150933484Y-94379314D02*
X151052532Y-94379314D01*
X151052532Y-94379314D02*
X151100151Y-94403124D01*
X151100151Y-94403124D02*
X151123960Y-94426933D01*
X151123960Y-94426933D02*
X151147770Y-94474552D01*
X151147770Y-94474552D02*
X151147770Y-94522171D01*
X151147770Y-94522171D02*
X151123960Y-94593600D01*
X151123960Y-94593600D02*
X150838246Y-94879314D01*
X150838246Y-94879314D02*
X151147770Y-94879314D01*
X151314436Y-94379314D02*
X151623960Y-94379314D01*
X151623960Y-94379314D02*
X151457293Y-94569790D01*
X151457293Y-94569790D02*
X151528722Y-94569790D01*
X151528722Y-94569790D02*
X151576341Y-94593600D01*
X151576341Y-94593600D02*
X151600150Y-94617409D01*
X151600150Y-94617409D02*
X151623960Y-94665028D01*
X151623960Y-94665028D02*
X151623960Y-94784076D01*
X151623960Y-94784076D02*
X151600150Y-94831695D01*
X151600150Y-94831695D02*
X151576341Y-94855505D01*
X151576341Y-94855505D02*
X151528722Y-94879314D01*
X151528722Y-94879314D02*
X151385865Y-94879314D01*
X151385865Y-94879314D02*
X151338246Y-94855505D01*
X151338246Y-94855505D02*
X151314436Y-94831695D01*
X143377169Y-104237949D02*
X143377169Y-103737949D01*
X143377169Y-103737949D02*
X143496217Y-103737949D01*
X143496217Y-103737949D02*
X143567645Y-103761759D01*
X143567645Y-103761759D02*
X143615264Y-103809378D01*
X143615264Y-103809378D02*
X143639074Y-103856997D01*
X143639074Y-103856997D02*
X143662883Y-103952235D01*
X143662883Y-103952235D02*
X143662883Y-104023663D01*
X143662883Y-104023663D02*
X143639074Y-104118901D01*
X143639074Y-104118901D02*
X143615264Y-104166520D01*
X143615264Y-104166520D02*
X143567645Y-104214140D01*
X143567645Y-104214140D02*
X143496217Y-104237949D01*
X143496217Y-104237949D02*
X143377169Y-104237949D01*
X144139074Y-104237949D02*
X143853360Y-104237949D01*
X143996217Y-104237949D02*
X143996217Y-103737949D01*
X143996217Y-103737949D02*
X143948598Y-103809378D01*
X143948598Y-103809378D02*
X143900979Y-103856997D01*
X143900979Y-103856997D02*
X143853360Y-103880806D01*
X142118913Y-56187361D02*
X142118913Y-56544504D01*
X142118913Y-56544504D02*
X142095104Y-56615932D01*
X142095104Y-56615932D02*
X142047485Y-56663552D01*
X142047485Y-56663552D02*
X141976056Y-56687361D01*
X141976056Y-56687361D02*
X141928437Y-56687361D01*
X142571294Y-56187361D02*
X142476056Y-56187361D01*
X142476056Y-56187361D02*
X142428437Y-56211171D01*
X142428437Y-56211171D02*
X142404627Y-56234980D01*
X142404627Y-56234980D02*
X142357008Y-56306409D01*
X142357008Y-56306409D02*
X142333199Y-56401647D01*
X142333199Y-56401647D02*
X142333199Y-56592123D01*
X142333199Y-56592123D02*
X142357008Y-56639742D01*
X142357008Y-56639742D02*
X142380818Y-56663552D01*
X142380818Y-56663552D02*
X142428437Y-56687361D01*
X142428437Y-56687361D02*
X142523675Y-56687361D01*
X142523675Y-56687361D02*
X142571294Y-56663552D01*
X142571294Y-56663552D02*
X142595103Y-56639742D01*
X142595103Y-56639742D02*
X142618913Y-56592123D01*
X142618913Y-56592123D02*
X142618913Y-56473075D01*
X142618913Y-56473075D02*
X142595103Y-56425456D01*
X142595103Y-56425456D02*
X142571294Y-56401647D01*
X142571294Y-56401647D02*
X142523675Y-56377837D01*
X142523675Y-56377837D02*
X142428437Y-56377837D01*
X142428437Y-56377837D02*
X142380818Y-56401647D01*
X142380818Y-56401647D02*
X142357008Y-56425456D01*
X142357008Y-56425456D02*
X142333199Y-56473075D01*
X145703525Y-51680062D02*
X145465430Y-51846728D01*
X145703525Y-51965776D02*
X145203525Y-51965776D01*
X145203525Y-51965776D02*
X145203525Y-51775300D01*
X145203525Y-51775300D02*
X145227335Y-51727681D01*
X145227335Y-51727681D02*
X145251144Y-51703871D01*
X145251144Y-51703871D02*
X145298763Y-51680062D01*
X145298763Y-51680062D02*
X145370192Y-51680062D01*
X145370192Y-51680062D02*
X145417811Y-51703871D01*
X145417811Y-51703871D02*
X145441620Y-51727681D01*
X145441620Y-51727681D02*
X145465430Y-51775300D01*
X145465430Y-51775300D02*
X145465430Y-51965776D01*
X145251144Y-51489585D02*
X145227335Y-51465776D01*
X145227335Y-51465776D02*
X145203525Y-51418157D01*
X145203525Y-51418157D02*
X145203525Y-51299109D01*
X145203525Y-51299109D02*
X145227335Y-51251490D01*
X145227335Y-51251490D02*
X145251144Y-51227681D01*
X145251144Y-51227681D02*
X145298763Y-51203871D01*
X145298763Y-51203871D02*
X145346382Y-51203871D01*
X145346382Y-51203871D02*
X145417811Y-51227681D01*
X145417811Y-51227681D02*
X145703525Y-51513395D01*
X145703525Y-51513395D02*
X145703525Y-51203871D01*
X147382840Y-104237949D02*
X147382840Y-103737949D01*
X147382840Y-103737949D02*
X147501888Y-103737949D01*
X147501888Y-103737949D02*
X147573316Y-103761759D01*
X147573316Y-103761759D02*
X147620935Y-103809378D01*
X147620935Y-103809378D02*
X147644745Y-103856997D01*
X147644745Y-103856997D02*
X147668554Y-103952235D01*
X147668554Y-103952235D02*
X147668554Y-104023663D01*
X147668554Y-104023663D02*
X147644745Y-104118901D01*
X147644745Y-104118901D02*
X147620935Y-104166520D01*
X147620935Y-104166520D02*
X147573316Y-104214140D01*
X147573316Y-104214140D02*
X147501888Y-104237949D01*
X147501888Y-104237949D02*
X147382840Y-104237949D01*
X147835221Y-103737949D02*
X148144745Y-103737949D01*
X148144745Y-103737949D02*
X147978078Y-103928425D01*
X147978078Y-103928425D02*
X148049507Y-103928425D01*
X148049507Y-103928425D02*
X148097126Y-103952235D01*
X148097126Y-103952235D02*
X148120935Y-103976044D01*
X148120935Y-103976044D02*
X148144745Y-104023663D01*
X148144745Y-104023663D02*
X148144745Y-104142711D01*
X148144745Y-104142711D02*
X148120935Y-104190330D01*
X148120935Y-104190330D02*
X148097126Y-104214140D01*
X148097126Y-104214140D02*
X148049507Y-104237949D01*
X148049507Y-104237949D02*
X147906650Y-104237949D01*
X147906650Y-104237949D02*
X147859031Y-104214140D01*
X147859031Y-104214140D02*
X147835221Y-104190330D01*
X152221979Y-67226436D02*
X152221979Y-67631198D01*
X152221979Y-67631198D02*
X152245789Y-67678817D01*
X152245789Y-67678817D02*
X152269598Y-67702627D01*
X152269598Y-67702627D02*
X152317217Y-67726436D01*
X152317217Y-67726436D02*
X152412455Y-67726436D01*
X152412455Y-67726436D02*
X152460074Y-67702627D01*
X152460074Y-67702627D02*
X152483884Y-67678817D01*
X152483884Y-67678817D02*
X152507693Y-67631198D01*
X152507693Y-67631198D02*
X152507693Y-67226436D01*
X152960075Y-67226436D02*
X152864837Y-67226436D01*
X152864837Y-67226436D02*
X152817218Y-67250246D01*
X152817218Y-67250246D02*
X152793408Y-67274055D01*
X152793408Y-67274055D02*
X152745789Y-67345484D01*
X152745789Y-67345484D02*
X152721980Y-67440722D01*
X152721980Y-67440722D02*
X152721980Y-67631198D01*
X152721980Y-67631198D02*
X152745789Y-67678817D01*
X152745789Y-67678817D02*
X152769599Y-67702627D01*
X152769599Y-67702627D02*
X152817218Y-67726436D01*
X152817218Y-67726436D02*
X152912456Y-67726436D01*
X152912456Y-67726436D02*
X152960075Y-67702627D01*
X152960075Y-67702627D02*
X152983884Y-67678817D01*
X152983884Y-67678817D02*
X153007694Y-67631198D01*
X153007694Y-67631198D02*
X153007694Y-67512150D01*
X153007694Y-67512150D02*
X152983884Y-67464531D01*
X152983884Y-67464531D02*
X152960075Y-67440722D01*
X152960075Y-67440722D02*
X152912456Y-67416912D01*
X152912456Y-67416912D02*
X152817218Y-67416912D01*
X152817218Y-67416912D02*
X152769599Y-67440722D01*
X152769599Y-67440722D02*
X152745789Y-67464531D01*
X152745789Y-67464531D02*
X152721980Y-67512150D01*
X158294809Y-80333333D02*
X158056714Y-80499999D01*
X158294809Y-80619047D02*
X157794809Y-80619047D01*
X157794809Y-80619047D02*
X157794809Y-80428571D01*
X157794809Y-80428571D02*
X157818619Y-80380952D01*
X157818619Y-80380952D02*
X157842428Y-80357142D01*
X157842428Y-80357142D02*
X157890047Y-80333333D01*
X157890047Y-80333333D02*
X157961476Y-80333333D01*
X157961476Y-80333333D02*
X158009095Y-80357142D01*
X158009095Y-80357142D02*
X158032904Y-80380952D01*
X158032904Y-80380952D02*
X158056714Y-80428571D01*
X158056714Y-80428571D02*
X158056714Y-80619047D01*
X157794809Y-79904761D02*
X157794809Y-79999999D01*
X157794809Y-79999999D02*
X157818619Y-80047618D01*
X157818619Y-80047618D02*
X157842428Y-80071428D01*
X157842428Y-80071428D02*
X157913857Y-80119047D01*
X157913857Y-80119047D02*
X158009095Y-80142856D01*
X158009095Y-80142856D02*
X158199571Y-80142856D01*
X158199571Y-80142856D02*
X158247190Y-80119047D01*
X158247190Y-80119047D02*
X158271000Y-80095237D01*
X158271000Y-80095237D02*
X158294809Y-80047618D01*
X158294809Y-80047618D02*
X158294809Y-79952380D01*
X158294809Y-79952380D02*
X158271000Y-79904761D01*
X158271000Y-79904761D02*
X158247190Y-79880952D01*
X158247190Y-79880952D02*
X158199571Y-79857142D01*
X158199571Y-79857142D02*
X158080523Y-79857142D01*
X158080523Y-79857142D02*
X158032904Y-79880952D01*
X158032904Y-79880952D02*
X158009095Y-79904761D01*
X158009095Y-79904761D02*
X157985285Y-79952380D01*
X157985285Y-79952380D02*
X157985285Y-80047618D01*
X157985285Y-80047618D02*
X158009095Y-80095237D01*
X158009095Y-80095237D02*
X158032904Y-80119047D01*
X158032904Y-80119047D02*
X158080523Y-80142856D01*
X141682849Y-80341323D02*
X141659040Y-80365133D01*
X141659040Y-80365133D02*
X141587611Y-80388942D01*
X141587611Y-80388942D02*
X141539992Y-80388942D01*
X141539992Y-80388942D02*
X141468564Y-80365133D01*
X141468564Y-80365133D02*
X141420945Y-80317513D01*
X141420945Y-80317513D02*
X141397135Y-80269894D01*
X141397135Y-80269894D02*
X141373326Y-80174656D01*
X141373326Y-80174656D02*
X141373326Y-80103228D01*
X141373326Y-80103228D02*
X141397135Y-80007990D01*
X141397135Y-80007990D02*
X141420945Y-79960371D01*
X141420945Y-79960371D02*
X141468564Y-79912752D01*
X141468564Y-79912752D02*
X141539992Y-79888942D01*
X141539992Y-79888942D02*
X141587611Y-79888942D01*
X141587611Y-79888942D02*
X141659040Y-79912752D01*
X141659040Y-79912752D02*
X141682849Y-79936561D01*
X141849516Y-79888942D02*
X142182849Y-79888942D01*
X142182849Y-79888942D02*
X141968564Y-80388942D01*
X150000877Y-102492975D02*
X150238972Y-102492975D01*
X149953258Y-102635832D02*
X150119924Y-102135832D01*
X150119924Y-102135832D02*
X150286591Y-102635832D01*
X150453257Y-102373927D02*
X150619924Y-102373927D01*
X150691352Y-102635832D02*
X150453257Y-102635832D01*
X150453257Y-102635832D02*
X150453257Y-102135832D01*
X150453257Y-102135832D02*
X150691352Y-102135832D01*
X150881829Y-102183451D02*
X150905638Y-102159642D01*
X150905638Y-102159642D02*
X150953257Y-102135832D01*
X150953257Y-102135832D02*
X151072305Y-102135832D01*
X151072305Y-102135832D02*
X151119924Y-102159642D01*
X151119924Y-102159642D02*
X151143733Y-102183451D01*
X151143733Y-102183451D02*
X151167543Y-102231070D01*
X151167543Y-102231070D02*
X151167543Y-102278689D01*
X151167543Y-102278689D02*
X151143733Y-102350118D01*
X151143733Y-102350118D02*
X150858019Y-102635832D01*
X150858019Y-102635832D02*
X151167543Y-102635832D01*
X156433688Y-89261838D02*
X156195593Y-89261838D01*
X156195593Y-89261838D02*
X156195593Y-88761838D01*
X156552736Y-88761838D02*
X156862260Y-88761838D01*
X156862260Y-88761838D02*
X156695593Y-88952314D01*
X156695593Y-88952314D02*
X156767022Y-88952314D01*
X156767022Y-88952314D02*
X156814641Y-88976124D01*
X156814641Y-88976124D02*
X156838450Y-88999933D01*
X156838450Y-88999933D02*
X156862260Y-89047552D01*
X156862260Y-89047552D02*
X156862260Y-89166600D01*
X156862260Y-89166600D02*
X156838450Y-89214219D01*
X156838450Y-89214219D02*
X156814641Y-89238029D01*
X156814641Y-89238029D02*
X156767022Y-89261838D01*
X156767022Y-89261838D02*
X156624165Y-89261838D01*
X156624165Y-89261838D02*
X156576546Y-89238029D01*
X156576546Y-89238029D02*
X156552736Y-89214219D01*
X145434001Y-100604794D02*
X145267335Y-100366699D01*
X145148287Y-100604794D02*
X145148287Y-100104794D01*
X145148287Y-100104794D02*
X145338763Y-100104794D01*
X145338763Y-100104794D02*
X145386382Y-100128604D01*
X145386382Y-100128604D02*
X145410192Y-100152413D01*
X145410192Y-100152413D02*
X145434001Y-100200032D01*
X145434001Y-100200032D02*
X145434001Y-100271461D01*
X145434001Y-100271461D02*
X145410192Y-100319080D01*
X145410192Y-100319080D02*
X145386382Y-100342889D01*
X145386382Y-100342889D02*
X145338763Y-100366699D01*
X145338763Y-100366699D02*
X145148287Y-100366699D01*
X145910192Y-100604794D02*
X145624478Y-100604794D01*
X145767335Y-100604794D02*
X145767335Y-100104794D01*
X145767335Y-100104794D02*
X145719716Y-100176223D01*
X145719716Y-100176223D02*
X145672097Y-100223842D01*
X145672097Y-100223842D02*
X145624478Y-100247651D01*
X146219715Y-100104794D02*
X146267334Y-100104794D01*
X146267334Y-100104794D02*
X146314953Y-100128604D01*
X146314953Y-100128604D02*
X146338763Y-100152413D01*
X146338763Y-100152413D02*
X146362572Y-100200032D01*
X146362572Y-100200032D02*
X146386382Y-100295270D01*
X146386382Y-100295270D02*
X146386382Y-100414318D01*
X146386382Y-100414318D02*
X146362572Y-100509556D01*
X146362572Y-100509556D02*
X146338763Y-100557175D01*
X146338763Y-100557175D02*
X146314953Y-100580985D01*
X146314953Y-100580985D02*
X146267334Y-100604794D01*
X146267334Y-100604794D02*
X146219715Y-100604794D01*
X146219715Y-100604794D02*
X146172096Y-100580985D01*
X146172096Y-100580985D02*
X146148287Y-100557175D01*
X146148287Y-100557175D02*
X146124477Y-100509556D01*
X146124477Y-100509556D02*
X146100668Y-100414318D01*
X146100668Y-100414318D02*
X146100668Y-100295270D01*
X146100668Y-100295270D02*
X146124477Y-100200032D01*
X146124477Y-100200032D02*
X146148287Y-100152413D01*
X146148287Y-100152413D02*
X146172096Y-100128604D01*
X146172096Y-100128604D02*
X146219715Y-100104794D01*
X146928571Y-96837190D02*
X146904762Y-96861000D01*
X146904762Y-96861000D02*
X146833333Y-96884809D01*
X146833333Y-96884809D02*
X146785714Y-96884809D01*
X146785714Y-96884809D02*
X146714286Y-96861000D01*
X146714286Y-96861000D02*
X146666667Y-96813380D01*
X146666667Y-96813380D02*
X146642857Y-96765761D01*
X146642857Y-96765761D02*
X146619048Y-96670523D01*
X146619048Y-96670523D02*
X146619048Y-96599095D01*
X146619048Y-96599095D02*
X146642857Y-96503857D01*
X146642857Y-96503857D02*
X146666667Y-96456238D01*
X146666667Y-96456238D02*
X146714286Y-96408619D01*
X146714286Y-96408619D02*
X146785714Y-96384809D01*
X146785714Y-96384809D02*
X146833333Y-96384809D01*
X146833333Y-96384809D02*
X146904762Y-96408619D01*
X146904762Y-96408619D02*
X146928571Y-96432428D01*
X147404762Y-96884809D02*
X147119048Y-96884809D01*
X147261905Y-96884809D02*
X147261905Y-96384809D01*
X147261905Y-96384809D02*
X147214286Y-96456238D01*
X147214286Y-96456238D02*
X147166667Y-96503857D01*
X147166667Y-96503857D02*
X147119048Y-96527666D01*
X147690476Y-96599095D02*
X147642857Y-96575285D01*
X147642857Y-96575285D02*
X147619047Y-96551476D01*
X147619047Y-96551476D02*
X147595238Y-96503857D01*
X147595238Y-96503857D02*
X147595238Y-96480047D01*
X147595238Y-96480047D02*
X147619047Y-96432428D01*
X147619047Y-96432428D02*
X147642857Y-96408619D01*
X147642857Y-96408619D02*
X147690476Y-96384809D01*
X147690476Y-96384809D02*
X147785714Y-96384809D01*
X147785714Y-96384809D02*
X147833333Y-96408619D01*
X147833333Y-96408619D02*
X147857142Y-96432428D01*
X147857142Y-96432428D02*
X147880952Y-96480047D01*
X147880952Y-96480047D02*
X147880952Y-96503857D01*
X147880952Y-96503857D02*
X147857142Y-96551476D01*
X147857142Y-96551476D02*
X147833333Y-96575285D01*
X147833333Y-96575285D02*
X147785714Y-96599095D01*
X147785714Y-96599095D02*
X147690476Y-96599095D01*
X147690476Y-96599095D02*
X147642857Y-96622904D01*
X147642857Y-96622904D02*
X147619047Y-96646714D01*
X147619047Y-96646714D02*
X147595238Y-96694333D01*
X147595238Y-96694333D02*
X147595238Y-96789571D01*
X147595238Y-96789571D02*
X147619047Y-96837190D01*
X147619047Y-96837190D02*
X147642857Y-96861000D01*
X147642857Y-96861000D02*
X147690476Y-96884809D01*
X147690476Y-96884809D02*
X147785714Y-96884809D01*
X147785714Y-96884809D02*
X147833333Y-96861000D01*
X147833333Y-96861000D02*
X147857142Y-96837190D01*
X147857142Y-96837190D02*
X147880952Y-96789571D01*
X147880952Y-96789571D02*
X147880952Y-96694333D01*
X147880952Y-96694333D02*
X147857142Y-96646714D01*
X147857142Y-96646714D02*
X147833333Y-96622904D01*
X147833333Y-96622904D02*
X147785714Y-96599095D01*
X141003821Y-106215263D02*
X140765726Y-106381929D01*
X141003821Y-106500977D02*
X140503821Y-106500977D01*
X140503821Y-106500977D02*
X140503821Y-106310501D01*
X140503821Y-106310501D02*
X140527631Y-106262882D01*
X140527631Y-106262882D02*
X140551440Y-106239072D01*
X140551440Y-106239072D02*
X140599059Y-106215263D01*
X140599059Y-106215263D02*
X140670488Y-106215263D01*
X140670488Y-106215263D02*
X140718107Y-106239072D01*
X140718107Y-106239072D02*
X140741916Y-106262882D01*
X140741916Y-106262882D02*
X140765726Y-106310501D01*
X140765726Y-106310501D02*
X140765726Y-106500977D01*
X141003821Y-105977167D02*
X141003821Y-105881929D01*
X141003821Y-105881929D02*
X140980012Y-105834310D01*
X140980012Y-105834310D02*
X140956202Y-105810501D01*
X140956202Y-105810501D02*
X140884773Y-105762882D01*
X140884773Y-105762882D02*
X140789535Y-105739072D01*
X140789535Y-105739072D02*
X140599059Y-105739072D01*
X140599059Y-105739072D02*
X140551440Y-105762882D01*
X140551440Y-105762882D02*
X140527631Y-105786691D01*
X140527631Y-105786691D02*
X140503821Y-105834310D01*
X140503821Y-105834310D02*
X140503821Y-105929548D01*
X140503821Y-105929548D02*
X140527631Y-105977167D01*
X140527631Y-105977167D02*
X140551440Y-106000977D01*
X140551440Y-106000977D02*
X140599059Y-106024786D01*
X140599059Y-106024786D02*
X140718107Y-106024786D01*
X140718107Y-106024786D02*
X140765726Y-106000977D01*
X140765726Y-106000977D02*
X140789535Y-105977167D01*
X140789535Y-105977167D02*
X140813345Y-105929548D01*
X140813345Y-105929548D02*
X140813345Y-105834310D01*
X140813345Y-105834310D02*
X140789535Y-105786691D01*
X140789535Y-105786691D02*
X140765726Y-105762882D01*
X140765726Y-105762882D02*
X140718107Y-105739072D01*
X162083333Y-69144809D02*
X162083333Y-69501952D01*
X162083333Y-69501952D02*
X162059524Y-69573380D01*
X162059524Y-69573380D02*
X162011905Y-69621000D01*
X162011905Y-69621000D02*
X161940476Y-69644809D01*
X161940476Y-69644809D02*
X161892857Y-69644809D01*
X162297619Y-69192428D02*
X162321428Y-69168619D01*
X162321428Y-69168619D02*
X162369047Y-69144809D01*
X162369047Y-69144809D02*
X162488095Y-69144809D01*
X162488095Y-69144809D02*
X162535714Y-69168619D01*
X162535714Y-69168619D02*
X162559523Y-69192428D01*
X162559523Y-69192428D02*
X162583333Y-69240047D01*
X162583333Y-69240047D02*
X162583333Y-69287666D01*
X162583333Y-69287666D02*
X162559523Y-69359095D01*
X162559523Y-69359095D02*
X162273809Y-69644809D01*
X162273809Y-69644809D02*
X162583333Y-69644809D01*
X146089767Y-54681925D02*
X146113577Y-54705734D01*
X146113577Y-54705734D02*
X146137386Y-54777163D01*
X146137386Y-54777163D02*
X146137386Y-54824782D01*
X146137386Y-54824782D02*
X146113577Y-54896210D01*
X146113577Y-54896210D02*
X146065957Y-54943829D01*
X146065957Y-54943829D02*
X146018338Y-54967639D01*
X146018338Y-54967639D02*
X145923100Y-54991448D01*
X145923100Y-54991448D02*
X145851672Y-54991448D01*
X145851672Y-54991448D02*
X145756434Y-54967639D01*
X145756434Y-54967639D02*
X145708815Y-54943829D01*
X145708815Y-54943829D02*
X145661196Y-54896210D01*
X145661196Y-54896210D02*
X145637386Y-54824782D01*
X145637386Y-54824782D02*
X145637386Y-54777163D01*
X145637386Y-54777163D02*
X145661196Y-54705734D01*
X145661196Y-54705734D02*
X145685005Y-54681925D01*
X145685005Y-54491448D02*
X145661196Y-54467639D01*
X145661196Y-54467639D02*
X145637386Y-54420020D01*
X145637386Y-54420020D02*
X145637386Y-54300972D01*
X145637386Y-54300972D02*
X145661196Y-54253353D01*
X145661196Y-54253353D02*
X145685005Y-54229544D01*
X145685005Y-54229544D02*
X145732624Y-54205734D01*
X145732624Y-54205734D02*
X145780243Y-54205734D01*
X145780243Y-54205734D02*
X145851672Y-54229544D01*
X145851672Y-54229544D02*
X146137386Y-54515258D01*
X146137386Y-54515258D02*
X146137386Y-54205734D01*
X145851672Y-53920020D02*
X145827862Y-53967639D01*
X145827862Y-53967639D02*
X145804053Y-53991449D01*
X145804053Y-53991449D02*
X145756434Y-54015258D01*
X145756434Y-54015258D02*
X145732624Y-54015258D01*
X145732624Y-54015258D02*
X145685005Y-53991449D01*
X145685005Y-53991449D02*
X145661196Y-53967639D01*
X145661196Y-53967639D02*
X145637386Y-53920020D01*
X145637386Y-53920020D02*
X145637386Y-53824782D01*
X145637386Y-53824782D02*
X145661196Y-53777163D01*
X145661196Y-53777163D02*
X145685005Y-53753354D01*
X145685005Y-53753354D02*
X145732624Y-53729544D01*
X145732624Y-53729544D02*
X145756434Y-53729544D01*
X145756434Y-53729544D02*
X145804053Y-53753354D01*
X145804053Y-53753354D02*
X145827862Y-53777163D01*
X145827862Y-53777163D02*
X145851672Y-53824782D01*
X145851672Y-53824782D02*
X145851672Y-53920020D01*
X145851672Y-53920020D02*
X145875481Y-53967639D01*
X145875481Y-53967639D02*
X145899291Y-53991449D01*
X145899291Y-53991449D02*
X145946910Y-54015258D01*
X145946910Y-54015258D02*
X146042148Y-54015258D01*
X146042148Y-54015258D02*
X146089767Y-53991449D01*
X146089767Y-53991449D02*
X146113577Y-53967639D01*
X146113577Y-53967639D02*
X146137386Y-53920020D01*
X146137386Y-53920020D02*
X146137386Y-53824782D01*
X146137386Y-53824782D02*
X146113577Y-53777163D01*
X146113577Y-53777163D02*
X146089767Y-53753354D01*
X146089767Y-53753354D02*
X146042148Y-53729544D01*
X146042148Y-53729544D02*
X145946910Y-53729544D01*
X145946910Y-53729544D02*
X145899291Y-53753354D01*
X145899291Y-53753354D02*
X145875481Y-53777163D01*
X145875481Y-53777163D02*
X145851672Y-53824782D01*
X146763997Y-98903748D02*
X146740188Y-98927558D01*
X146740188Y-98927558D02*
X146668759Y-98951367D01*
X146668759Y-98951367D02*
X146621140Y-98951367D01*
X146621140Y-98951367D02*
X146549712Y-98927558D01*
X146549712Y-98927558D02*
X146502093Y-98879938D01*
X146502093Y-98879938D02*
X146478283Y-98832319D01*
X146478283Y-98832319D02*
X146454474Y-98737081D01*
X146454474Y-98737081D02*
X146454474Y-98665653D01*
X146454474Y-98665653D02*
X146478283Y-98570415D01*
X146478283Y-98570415D02*
X146502093Y-98522796D01*
X146502093Y-98522796D02*
X146549712Y-98475177D01*
X146549712Y-98475177D02*
X146621140Y-98451367D01*
X146621140Y-98451367D02*
X146668759Y-98451367D01*
X146668759Y-98451367D02*
X146740188Y-98475177D01*
X146740188Y-98475177D02*
X146763997Y-98498986D01*
X146954474Y-98498986D02*
X146978283Y-98475177D01*
X146978283Y-98475177D02*
X147025902Y-98451367D01*
X147025902Y-98451367D02*
X147144950Y-98451367D01*
X147144950Y-98451367D02*
X147192569Y-98475177D01*
X147192569Y-98475177D02*
X147216378Y-98498986D01*
X147216378Y-98498986D02*
X147240188Y-98546605D01*
X147240188Y-98546605D02*
X147240188Y-98594224D01*
X147240188Y-98594224D02*
X147216378Y-98665653D01*
X147216378Y-98665653D02*
X146930664Y-98951367D01*
X146930664Y-98951367D02*
X147240188Y-98951367D01*
X147668759Y-98618034D02*
X147668759Y-98951367D01*
X147549711Y-98427558D02*
X147430664Y-98784700D01*
X147430664Y-98784700D02*
X147740187Y-98784700D01*
X142034144Y-50001110D02*
X142034144Y-50405872D01*
X142034144Y-50405872D02*
X142057954Y-50453491D01*
X142057954Y-50453491D02*
X142081763Y-50477301D01*
X142081763Y-50477301D02*
X142129382Y-50501110D01*
X142129382Y-50501110D02*
X142224620Y-50501110D01*
X142224620Y-50501110D02*
X142272239Y-50477301D01*
X142272239Y-50477301D02*
X142296049Y-50453491D01*
X142296049Y-50453491D02*
X142319858Y-50405872D01*
X142319858Y-50405872D02*
X142319858Y-50001110D01*
X142819859Y-50501110D02*
X142534145Y-50501110D01*
X142677002Y-50501110D02*
X142677002Y-50001110D01*
X142677002Y-50001110D02*
X142629383Y-50072539D01*
X142629383Y-50072539D02*
X142581764Y-50120158D01*
X142581764Y-50120158D02*
X142534145Y-50143967D01*
X162083333Y-92069809D02*
X162083333Y-92426952D01*
X162083333Y-92426952D02*
X162059524Y-92498380D01*
X162059524Y-92498380D02*
X162011905Y-92546000D01*
X162011905Y-92546000D02*
X161940476Y-92569809D01*
X161940476Y-92569809D02*
X161892857Y-92569809D01*
X162273809Y-92069809D02*
X162607142Y-92069809D01*
X162607142Y-92069809D02*
X162392857Y-92569809D01*
X145380004Y-104237949D02*
X145380004Y-103737949D01*
X145380004Y-103737949D02*
X145499052Y-103737949D01*
X145499052Y-103737949D02*
X145570480Y-103761759D01*
X145570480Y-103761759D02*
X145618099Y-103809378D01*
X145618099Y-103809378D02*
X145641909Y-103856997D01*
X145641909Y-103856997D02*
X145665718Y-103952235D01*
X145665718Y-103952235D02*
X145665718Y-104023663D01*
X145665718Y-104023663D02*
X145641909Y-104118901D01*
X145641909Y-104118901D02*
X145618099Y-104166520D01*
X145618099Y-104166520D02*
X145570480Y-104214140D01*
X145570480Y-104214140D02*
X145499052Y-104237949D01*
X145499052Y-104237949D02*
X145380004Y-104237949D01*
X145856195Y-103785568D02*
X145880004Y-103761759D01*
X145880004Y-103761759D02*
X145927623Y-103737949D01*
X145927623Y-103737949D02*
X146046671Y-103737949D01*
X146046671Y-103737949D02*
X146094290Y-103761759D01*
X146094290Y-103761759D02*
X146118099Y-103785568D01*
X146118099Y-103785568D02*
X146141909Y-103833187D01*
X146141909Y-103833187D02*
X146141909Y-103880806D01*
X146141909Y-103880806D02*
X146118099Y-103952235D01*
X146118099Y-103952235D02*
X145832385Y-104237949D01*
X145832385Y-104237949D02*
X146141909Y-104237949D01*
X155073571Y-64252190D02*
X155049762Y-64276000D01*
X155049762Y-64276000D02*
X154978333Y-64299809D01*
X154978333Y-64299809D02*
X154930714Y-64299809D01*
X154930714Y-64299809D02*
X154859286Y-64276000D01*
X154859286Y-64276000D02*
X154811667Y-64228380D01*
X154811667Y-64228380D02*
X154787857Y-64180761D01*
X154787857Y-64180761D02*
X154764048Y-64085523D01*
X154764048Y-64085523D02*
X154764048Y-64014095D01*
X154764048Y-64014095D02*
X154787857Y-63918857D01*
X154787857Y-63918857D02*
X154811667Y-63871238D01*
X154811667Y-63871238D02*
X154859286Y-63823619D01*
X154859286Y-63823619D02*
X154930714Y-63799809D01*
X154930714Y-63799809D02*
X154978333Y-63799809D01*
X154978333Y-63799809D02*
X155049762Y-63823619D01*
X155049762Y-63823619D02*
X155073571Y-63847428D01*
X155549762Y-64299809D02*
X155264048Y-64299809D01*
X155406905Y-64299809D02*
X155406905Y-63799809D01*
X155406905Y-63799809D02*
X155359286Y-63871238D01*
X155359286Y-63871238D02*
X155311667Y-63918857D01*
X155311667Y-63918857D02*
X155264048Y-63942666D01*
X155716428Y-63799809D02*
X156049761Y-63799809D01*
X156049761Y-63799809D02*
X155835476Y-64299809D01*
X153944080Y-97050507D02*
X153920271Y-97074317D01*
X153920271Y-97074317D02*
X153848842Y-97098126D01*
X153848842Y-97098126D02*
X153801223Y-97098126D01*
X153801223Y-97098126D02*
X153729795Y-97074317D01*
X153729795Y-97074317D02*
X153682176Y-97026697D01*
X153682176Y-97026697D02*
X153658366Y-96979078D01*
X153658366Y-96979078D02*
X153634557Y-96883840D01*
X153634557Y-96883840D02*
X153634557Y-96812412D01*
X153634557Y-96812412D02*
X153658366Y-96717174D01*
X153658366Y-96717174D02*
X153682176Y-96669555D01*
X153682176Y-96669555D02*
X153729795Y-96621936D01*
X153729795Y-96621936D02*
X153801223Y-96598126D01*
X153801223Y-96598126D02*
X153848842Y-96598126D01*
X153848842Y-96598126D02*
X153920271Y-96621936D01*
X153920271Y-96621936D02*
X153944080Y-96645745D01*
X154134557Y-96645745D02*
X154158366Y-96621936D01*
X154158366Y-96621936D02*
X154205985Y-96598126D01*
X154205985Y-96598126D02*
X154325033Y-96598126D01*
X154325033Y-96598126D02*
X154372652Y-96621936D01*
X154372652Y-96621936D02*
X154396461Y-96645745D01*
X154396461Y-96645745D02*
X154420271Y-96693364D01*
X154420271Y-96693364D02*
X154420271Y-96740983D01*
X154420271Y-96740983D02*
X154396461Y-96812412D01*
X154396461Y-96812412D02*
X154110747Y-97098126D01*
X154110747Y-97098126D02*
X154420271Y-97098126D01*
X154872651Y-96598126D02*
X154634556Y-96598126D01*
X154634556Y-96598126D02*
X154610747Y-96836221D01*
X154610747Y-96836221D02*
X154634556Y-96812412D01*
X154634556Y-96812412D02*
X154682175Y-96788602D01*
X154682175Y-96788602D02*
X154801223Y-96788602D01*
X154801223Y-96788602D02*
X154848842Y-96812412D01*
X154848842Y-96812412D02*
X154872651Y-96836221D01*
X154872651Y-96836221D02*
X154896461Y-96883840D01*
X154896461Y-96883840D02*
X154896461Y-97002888D01*
X154896461Y-97002888D02*
X154872651Y-97050507D01*
X154872651Y-97050507D02*
X154848842Y-97074317D01*
X154848842Y-97074317D02*
X154801223Y-97098126D01*
X154801223Y-97098126D02*
X154682175Y-97098126D01*
X154682175Y-97098126D02*
X154634556Y-97074317D01*
X154634556Y-97074317D02*
X154610747Y-97050507D01*
X150706666Y-62929809D02*
X150468571Y-62929809D01*
X150468571Y-62929809D02*
X150468571Y-62429809D01*
X150849524Y-62477428D02*
X150873333Y-62453619D01*
X150873333Y-62453619D02*
X150920952Y-62429809D01*
X150920952Y-62429809D02*
X151040000Y-62429809D01*
X151040000Y-62429809D02*
X151087619Y-62453619D01*
X151087619Y-62453619D02*
X151111428Y-62477428D01*
X151111428Y-62477428D02*
X151135238Y-62525047D01*
X151135238Y-62525047D02*
X151135238Y-62572666D01*
X151135238Y-62572666D02*
X151111428Y-62644095D01*
X151111428Y-62644095D02*
X150825714Y-62929809D01*
X150825714Y-62929809D02*
X151135238Y-62929809D01*
X151162023Y-75470944D02*
X151138214Y-75494754D01*
X151138214Y-75494754D02*
X151066785Y-75518563D01*
X151066785Y-75518563D02*
X151019166Y-75518563D01*
X151019166Y-75518563D02*
X150947738Y-75494754D01*
X150947738Y-75494754D02*
X150900119Y-75447134D01*
X150900119Y-75447134D02*
X150876309Y-75399515D01*
X150876309Y-75399515D02*
X150852500Y-75304277D01*
X150852500Y-75304277D02*
X150852500Y-75232849D01*
X150852500Y-75232849D02*
X150876309Y-75137611D01*
X150876309Y-75137611D02*
X150900119Y-75089992D01*
X150900119Y-75089992D02*
X150947738Y-75042373D01*
X150947738Y-75042373D02*
X151019166Y-75018563D01*
X151019166Y-75018563D02*
X151066785Y-75018563D01*
X151066785Y-75018563D02*
X151138214Y-75042373D01*
X151138214Y-75042373D02*
X151162023Y-75066182D01*
X151400119Y-75518563D02*
X151495357Y-75518563D01*
X151495357Y-75518563D02*
X151542976Y-75494754D01*
X151542976Y-75494754D02*
X151566785Y-75470944D01*
X151566785Y-75470944D02*
X151614404Y-75399515D01*
X151614404Y-75399515D02*
X151638214Y-75304277D01*
X151638214Y-75304277D02*
X151638214Y-75113801D01*
X151638214Y-75113801D02*
X151614404Y-75066182D01*
X151614404Y-75066182D02*
X151590595Y-75042373D01*
X151590595Y-75042373D02*
X151542976Y-75018563D01*
X151542976Y-75018563D02*
X151447738Y-75018563D01*
X151447738Y-75018563D02*
X151400119Y-75042373D01*
X151400119Y-75042373D02*
X151376309Y-75066182D01*
X151376309Y-75066182D02*
X151352500Y-75113801D01*
X151352500Y-75113801D02*
X151352500Y-75232849D01*
X151352500Y-75232849D02*
X151376309Y-75280468D01*
X151376309Y-75280468D02*
X151400119Y-75304277D01*
X151400119Y-75304277D02*
X151447738Y-75328087D01*
X151447738Y-75328087D02*
X151542976Y-75328087D01*
X151542976Y-75328087D02*
X151590595Y-75304277D01*
X151590595Y-75304277D02*
X151614404Y-75280468D01*
X151614404Y-75280468D02*
X151638214Y-75232849D01*
X157362061Y-99054583D02*
X157362061Y-99292678D01*
X157362061Y-99292678D02*
X156862061Y-99292678D01*
X156862061Y-98673630D02*
X156862061Y-98768868D01*
X156862061Y-98768868D02*
X156885871Y-98816487D01*
X156885871Y-98816487D02*
X156909680Y-98840297D01*
X156909680Y-98840297D02*
X156981109Y-98887916D01*
X156981109Y-98887916D02*
X157076347Y-98911725D01*
X157076347Y-98911725D02*
X157266823Y-98911725D01*
X157266823Y-98911725D02*
X157314442Y-98887916D01*
X157314442Y-98887916D02*
X157338252Y-98864106D01*
X157338252Y-98864106D02*
X157362061Y-98816487D01*
X157362061Y-98816487D02*
X157362061Y-98721249D01*
X157362061Y-98721249D02*
X157338252Y-98673630D01*
X157338252Y-98673630D02*
X157314442Y-98649821D01*
X157314442Y-98649821D02*
X157266823Y-98626011D01*
X157266823Y-98626011D02*
X157147775Y-98626011D01*
X157147775Y-98626011D02*
X157100156Y-98649821D01*
X157100156Y-98649821D02*
X157076347Y-98673630D01*
X157076347Y-98673630D02*
X157052537Y-98721249D01*
X157052537Y-98721249D02*
X157052537Y-98816487D01*
X157052537Y-98816487D02*
X157076347Y-98864106D01*
X157076347Y-98864106D02*
X157100156Y-98887916D01*
X157100156Y-98887916D02*
X157147775Y-98911725D01*
X144164030Y-81328066D02*
X144140221Y-81351876D01*
X144140221Y-81351876D02*
X144068792Y-81375685D01*
X144068792Y-81375685D02*
X144021173Y-81375685D01*
X144021173Y-81375685D02*
X143949745Y-81351876D01*
X143949745Y-81351876D02*
X143902126Y-81304256D01*
X143902126Y-81304256D02*
X143878316Y-81256637D01*
X143878316Y-81256637D02*
X143854507Y-81161399D01*
X143854507Y-81161399D02*
X143854507Y-81089971D01*
X143854507Y-81089971D02*
X143878316Y-80994733D01*
X143878316Y-80994733D02*
X143902126Y-80947114D01*
X143902126Y-80947114D02*
X143949745Y-80899495D01*
X143949745Y-80899495D02*
X144021173Y-80875685D01*
X144021173Y-80875685D02*
X144068792Y-80875685D01*
X144068792Y-80875685D02*
X144140221Y-80899495D01*
X144140221Y-80899495D02*
X144164030Y-80923304D01*
X144640221Y-81375685D02*
X144354507Y-81375685D01*
X144497364Y-81375685D02*
X144497364Y-80875685D01*
X144497364Y-80875685D02*
X144449745Y-80947114D01*
X144449745Y-80947114D02*
X144402126Y-80994733D01*
X144402126Y-80994733D02*
X144354507Y-81018542D01*
X145116411Y-81375685D02*
X144830697Y-81375685D01*
X144973554Y-81375685D02*
X144973554Y-80875685D01*
X144973554Y-80875685D02*
X144925935Y-80947114D01*
X144925935Y-80947114D02*
X144878316Y-80994733D01*
X144878316Y-80994733D02*
X144830697Y-81018542D01*
X145918839Y-91750257D02*
X145918839Y-92155019D01*
X145918839Y-92155019D02*
X145942649Y-92202638D01*
X145942649Y-92202638D02*
X145966458Y-92226448D01*
X145966458Y-92226448D02*
X146014077Y-92250257D01*
X146014077Y-92250257D02*
X146109315Y-92250257D01*
X146109315Y-92250257D02*
X146156934Y-92226448D01*
X146156934Y-92226448D02*
X146180744Y-92202638D01*
X146180744Y-92202638D02*
X146204553Y-92155019D01*
X146204553Y-92155019D02*
X146204553Y-91750257D01*
X146395030Y-91750257D02*
X146728363Y-91750257D01*
X146728363Y-91750257D02*
X146514078Y-92250257D01*
X143437384Y-75904919D02*
X143270718Y-75666824D01*
X143151670Y-75904919D02*
X143151670Y-75404919D01*
X143151670Y-75404919D02*
X143342146Y-75404919D01*
X143342146Y-75404919D02*
X143389765Y-75428729D01*
X143389765Y-75428729D02*
X143413575Y-75452538D01*
X143413575Y-75452538D02*
X143437384Y-75500157D01*
X143437384Y-75500157D02*
X143437384Y-75571586D01*
X143437384Y-75571586D02*
X143413575Y-75619205D01*
X143413575Y-75619205D02*
X143389765Y-75643014D01*
X143389765Y-75643014D02*
X143342146Y-75666824D01*
X143342146Y-75666824D02*
X143151670Y-75666824D01*
X143913575Y-75904919D02*
X143627861Y-75904919D01*
X143770718Y-75904919D02*
X143770718Y-75404919D01*
X143770718Y-75404919D02*
X143723099Y-75476348D01*
X143723099Y-75476348D02*
X143675480Y-75523967D01*
X143675480Y-75523967D02*
X143627861Y-75547776D01*
X144365955Y-75404919D02*
X144127860Y-75404919D01*
X144127860Y-75404919D02*
X144104051Y-75643014D01*
X144104051Y-75643014D02*
X144127860Y-75619205D01*
X144127860Y-75619205D02*
X144175479Y-75595395D01*
X144175479Y-75595395D02*
X144294527Y-75595395D01*
X144294527Y-75595395D02*
X144342146Y-75619205D01*
X144342146Y-75619205D02*
X144365955Y-75643014D01*
X144365955Y-75643014D02*
X144389765Y-75690633D01*
X144389765Y-75690633D02*
X144389765Y-75809681D01*
X144389765Y-75809681D02*
X144365955Y-75857300D01*
X144365955Y-75857300D02*
X144342146Y-75881110D01*
X144342146Y-75881110D02*
X144294527Y-75904919D01*
X144294527Y-75904919D02*
X144175479Y-75904919D01*
X144175479Y-75904919D02*
X144127860Y-75881110D01*
X144127860Y-75881110D02*
X144104051Y-75857300D01*
X152829484Y-76691984D02*
X152662818Y-76453889D01*
X152543770Y-76691984D02*
X152543770Y-76191984D01*
X152543770Y-76191984D02*
X152734246Y-76191984D01*
X152734246Y-76191984D02*
X152781865Y-76215794D01*
X152781865Y-76215794D02*
X152805675Y-76239603D01*
X152805675Y-76239603D02*
X152829484Y-76287222D01*
X152829484Y-76287222D02*
X152829484Y-76358651D01*
X152829484Y-76358651D02*
X152805675Y-76406270D01*
X152805675Y-76406270D02*
X152781865Y-76430079D01*
X152781865Y-76430079D02*
X152734246Y-76453889D01*
X152734246Y-76453889D02*
X152543770Y-76453889D01*
X153258056Y-76358651D02*
X153258056Y-76691984D01*
X153139008Y-76168175D02*
X153019961Y-76525317D01*
X153019961Y-76525317D02*
X153329484Y-76525317D01*
X157482190Y-70076428D02*
X157506000Y-70100237D01*
X157506000Y-70100237D02*
X157529809Y-70171666D01*
X157529809Y-70171666D02*
X157529809Y-70219285D01*
X157529809Y-70219285D02*
X157506000Y-70290713D01*
X157506000Y-70290713D02*
X157458380Y-70338332D01*
X157458380Y-70338332D02*
X157410761Y-70362142D01*
X157410761Y-70362142D02*
X157315523Y-70385951D01*
X157315523Y-70385951D02*
X157244095Y-70385951D01*
X157244095Y-70385951D02*
X157148857Y-70362142D01*
X157148857Y-70362142D02*
X157101238Y-70338332D01*
X157101238Y-70338332D02*
X157053619Y-70290713D01*
X157053619Y-70290713D02*
X157029809Y-70219285D01*
X157029809Y-70219285D02*
X157029809Y-70171666D01*
X157029809Y-70171666D02*
X157053619Y-70100237D01*
X157053619Y-70100237D02*
X157077428Y-70076428D01*
X157529809Y-69600237D02*
X157529809Y-69885951D01*
X157529809Y-69743094D02*
X157029809Y-69743094D01*
X157029809Y-69743094D02*
X157101238Y-69790713D01*
X157101238Y-69790713D02*
X157148857Y-69838332D01*
X157148857Y-69838332D02*
X157172666Y-69885951D01*
X157029809Y-69171666D02*
X157029809Y-69266904D01*
X157029809Y-69266904D02*
X157053619Y-69314523D01*
X157053619Y-69314523D02*
X157077428Y-69338333D01*
X157077428Y-69338333D02*
X157148857Y-69385952D01*
X157148857Y-69385952D02*
X157244095Y-69409761D01*
X157244095Y-69409761D02*
X157434571Y-69409761D01*
X157434571Y-69409761D02*
X157482190Y-69385952D01*
X157482190Y-69385952D02*
X157506000Y-69362142D01*
X157506000Y-69362142D02*
X157529809Y-69314523D01*
X157529809Y-69314523D02*
X157529809Y-69219285D01*
X157529809Y-69219285D02*
X157506000Y-69171666D01*
X157506000Y-69171666D02*
X157482190Y-69147857D01*
X157482190Y-69147857D02*
X157434571Y-69124047D01*
X157434571Y-69124047D02*
X157315523Y-69124047D01*
X157315523Y-69124047D02*
X157267904Y-69147857D01*
X157267904Y-69147857D02*
X157244095Y-69171666D01*
X157244095Y-69171666D02*
X157220285Y-69219285D01*
X157220285Y-69219285D02*
X157220285Y-69314523D01*
X157220285Y-69314523D02*
X157244095Y-69362142D01*
X157244095Y-69362142D02*
X157267904Y-69385952D01*
X157267904Y-69385952D02*
X157315523Y-69409761D01*
X147434001Y-100604794D02*
X147267335Y-100366699D01*
X147148287Y-100604794D02*
X147148287Y-100104794D01*
X147148287Y-100104794D02*
X147338763Y-100104794D01*
X147338763Y-100104794D02*
X147386382Y-100128604D01*
X147386382Y-100128604D02*
X147410192Y-100152413D01*
X147410192Y-100152413D02*
X147434001Y-100200032D01*
X147434001Y-100200032D02*
X147434001Y-100271461D01*
X147434001Y-100271461D02*
X147410192Y-100319080D01*
X147410192Y-100319080D02*
X147386382Y-100342889D01*
X147386382Y-100342889D02*
X147338763Y-100366699D01*
X147338763Y-100366699D02*
X147148287Y-100366699D01*
X147910192Y-100604794D02*
X147624478Y-100604794D01*
X147767335Y-100604794D02*
X147767335Y-100104794D01*
X147767335Y-100104794D02*
X147719716Y-100176223D01*
X147719716Y-100176223D02*
X147672097Y-100223842D01*
X147672097Y-100223842D02*
X147624478Y-100247651D01*
X148076858Y-100104794D02*
X148386382Y-100104794D01*
X148386382Y-100104794D02*
X148219715Y-100295270D01*
X148219715Y-100295270D02*
X148291144Y-100295270D01*
X148291144Y-100295270D02*
X148338763Y-100319080D01*
X148338763Y-100319080D02*
X148362572Y-100342889D01*
X148362572Y-100342889D02*
X148386382Y-100390508D01*
X148386382Y-100390508D02*
X148386382Y-100509556D01*
X148386382Y-100509556D02*
X148362572Y-100557175D01*
X148362572Y-100557175D02*
X148338763Y-100580985D01*
X148338763Y-100580985D02*
X148291144Y-100604794D01*
X148291144Y-100604794D02*
X148148287Y-100604794D01*
X148148287Y-100604794D02*
X148100668Y-100580985D01*
X148100668Y-100580985D02*
X148076858Y-100557175D01*
X150244047Y-82699809D02*
X150244047Y-83104571D01*
X150244047Y-83104571D02*
X150267857Y-83152190D01*
X150267857Y-83152190D02*
X150291666Y-83176000D01*
X150291666Y-83176000D02*
X150339285Y-83199809D01*
X150339285Y-83199809D02*
X150434523Y-83199809D01*
X150434523Y-83199809D02*
X150482142Y-83176000D01*
X150482142Y-83176000D02*
X150505952Y-83152190D01*
X150505952Y-83152190D02*
X150529761Y-83104571D01*
X150529761Y-83104571D02*
X150529761Y-82699809D01*
X150982143Y-82866476D02*
X150982143Y-83199809D01*
X150863095Y-82676000D02*
X150744048Y-83033142D01*
X150744048Y-83033142D02*
X151053571Y-83033142D01*
X149529667Y-47751952D02*
X149767762Y-47751952D01*
X149482048Y-47894809D02*
X149648714Y-47394809D01*
X149648714Y-47394809D02*
X149815381Y-47894809D01*
X149982047Y-47632904D02*
X150148714Y-47632904D01*
X150220142Y-47894809D02*
X149982047Y-47894809D01*
X149982047Y-47894809D02*
X149982047Y-47394809D01*
X149982047Y-47394809D02*
X150220142Y-47394809D01*
X150696333Y-47894809D02*
X150410619Y-47894809D01*
X150553476Y-47894809D02*
X150553476Y-47394809D01*
X150553476Y-47394809D02*
X150505857Y-47466238D01*
X150505857Y-47466238D02*
X150458238Y-47513857D01*
X150458238Y-47513857D02*
X150410619Y-47537666D01*
X145420224Y-69916750D02*
X145444033Y-69845322D01*
X145444033Y-69845322D02*
X145444033Y-69726274D01*
X145444033Y-69726274D02*
X145420224Y-69678655D01*
X145420224Y-69678655D02*
X145396414Y-69654846D01*
X145396414Y-69654846D02*
X145348795Y-69631036D01*
X145348795Y-69631036D02*
X145301176Y-69631036D01*
X145301176Y-69631036D02*
X145253557Y-69654846D01*
X145253557Y-69654846D02*
X145229747Y-69678655D01*
X145229747Y-69678655D02*
X145205938Y-69726274D01*
X145205938Y-69726274D02*
X145182128Y-69821512D01*
X145182128Y-69821512D02*
X145158319Y-69869131D01*
X145158319Y-69869131D02*
X145134509Y-69892941D01*
X145134509Y-69892941D02*
X145086890Y-69916750D01*
X145086890Y-69916750D02*
X145039271Y-69916750D01*
X145039271Y-69916750D02*
X144991652Y-69892941D01*
X144991652Y-69892941D02*
X144967843Y-69869131D01*
X144967843Y-69869131D02*
X144944033Y-69821512D01*
X144944033Y-69821512D02*
X144944033Y-69702465D01*
X144944033Y-69702465D02*
X144967843Y-69631036D01*
X144944033Y-69464370D02*
X145444033Y-69345322D01*
X145444033Y-69345322D02*
X145086890Y-69250084D01*
X145086890Y-69250084D02*
X145444033Y-69154846D01*
X145444033Y-69154846D02*
X144944033Y-69035799D01*
X144991652Y-68869131D02*
X144967843Y-68845322D01*
X144967843Y-68845322D02*
X144944033Y-68797703D01*
X144944033Y-68797703D02*
X144944033Y-68678655D01*
X144944033Y-68678655D02*
X144967843Y-68631036D01*
X144967843Y-68631036D02*
X144991652Y-68607227D01*
X144991652Y-68607227D02*
X145039271Y-68583417D01*
X145039271Y-68583417D02*
X145086890Y-68583417D01*
X145086890Y-68583417D02*
X145158319Y-68607227D01*
X145158319Y-68607227D02*
X145444033Y-68892941D01*
X145444033Y-68892941D02*
X145444033Y-68583417D01*
X149563398Y-75469520D02*
X149539589Y-75493330D01*
X149539589Y-75493330D02*
X149468160Y-75517139D01*
X149468160Y-75517139D02*
X149420541Y-75517139D01*
X149420541Y-75517139D02*
X149349113Y-75493330D01*
X149349113Y-75493330D02*
X149301494Y-75445710D01*
X149301494Y-75445710D02*
X149277684Y-75398091D01*
X149277684Y-75398091D02*
X149253875Y-75302853D01*
X149253875Y-75302853D02*
X149253875Y-75231425D01*
X149253875Y-75231425D02*
X149277684Y-75136187D01*
X149277684Y-75136187D02*
X149301494Y-75088568D01*
X149301494Y-75088568D02*
X149349113Y-75040949D01*
X149349113Y-75040949D02*
X149420541Y-75017139D01*
X149420541Y-75017139D02*
X149468160Y-75017139D01*
X149468160Y-75017139D02*
X149539589Y-75040949D01*
X149539589Y-75040949D02*
X149563398Y-75064758D01*
X149849113Y-75231425D02*
X149801494Y-75207615D01*
X149801494Y-75207615D02*
X149777684Y-75183806D01*
X149777684Y-75183806D02*
X149753875Y-75136187D01*
X149753875Y-75136187D02*
X149753875Y-75112377D01*
X149753875Y-75112377D02*
X149777684Y-75064758D01*
X149777684Y-75064758D02*
X149801494Y-75040949D01*
X149801494Y-75040949D02*
X149849113Y-75017139D01*
X149849113Y-75017139D02*
X149944351Y-75017139D01*
X149944351Y-75017139D02*
X149991970Y-75040949D01*
X149991970Y-75040949D02*
X150015779Y-75064758D01*
X150015779Y-75064758D02*
X150039589Y-75112377D01*
X150039589Y-75112377D02*
X150039589Y-75136187D01*
X150039589Y-75136187D02*
X150015779Y-75183806D01*
X150015779Y-75183806D02*
X149991970Y-75207615D01*
X149991970Y-75207615D02*
X149944351Y-75231425D01*
X149944351Y-75231425D02*
X149849113Y-75231425D01*
X149849113Y-75231425D02*
X149801494Y-75255234D01*
X149801494Y-75255234D02*
X149777684Y-75279044D01*
X149777684Y-75279044D02*
X149753875Y-75326663D01*
X149753875Y-75326663D02*
X149753875Y-75421901D01*
X149753875Y-75421901D02*
X149777684Y-75469520D01*
X149777684Y-75469520D02*
X149801494Y-75493330D01*
X149801494Y-75493330D02*
X149849113Y-75517139D01*
X149849113Y-75517139D02*
X149944351Y-75517139D01*
X149944351Y-75517139D02*
X149991970Y-75493330D01*
X149991970Y-75493330D02*
X150015779Y-75469520D01*
X150015779Y-75469520D02*
X150039589Y-75421901D01*
X150039589Y-75421901D02*
X150039589Y-75326663D01*
X150039589Y-75326663D02*
X150015779Y-75279044D01*
X150015779Y-75279044D02*
X149991970Y-75255234D01*
X149991970Y-75255234D02*
X149944351Y-75231425D01*
X155559942Y-67602690D02*
X155536133Y-67626500D01*
X155536133Y-67626500D02*
X155464704Y-67650309D01*
X155464704Y-67650309D02*
X155417085Y-67650309D01*
X155417085Y-67650309D02*
X155345657Y-67626500D01*
X155345657Y-67626500D02*
X155298038Y-67578880D01*
X155298038Y-67578880D02*
X155274228Y-67531261D01*
X155274228Y-67531261D02*
X155250419Y-67436023D01*
X155250419Y-67436023D02*
X155250419Y-67364595D01*
X155250419Y-67364595D02*
X155274228Y-67269357D01*
X155274228Y-67269357D02*
X155298038Y-67221738D01*
X155298038Y-67221738D02*
X155345657Y-67174119D01*
X155345657Y-67174119D02*
X155417085Y-67150309D01*
X155417085Y-67150309D02*
X155464704Y-67150309D01*
X155464704Y-67150309D02*
X155536133Y-67174119D01*
X155536133Y-67174119D02*
X155559942Y-67197928D01*
X155750419Y-67197928D02*
X155774228Y-67174119D01*
X155774228Y-67174119D02*
X155821847Y-67150309D01*
X155821847Y-67150309D02*
X155940895Y-67150309D01*
X155940895Y-67150309D02*
X155988514Y-67174119D01*
X155988514Y-67174119D02*
X156012323Y-67197928D01*
X156012323Y-67197928D02*
X156036133Y-67245547D01*
X156036133Y-67245547D02*
X156036133Y-67293166D01*
X156036133Y-67293166D02*
X156012323Y-67364595D01*
X156012323Y-67364595D02*
X155726609Y-67650309D01*
X155726609Y-67650309D02*
X156036133Y-67650309D01*
X156512323Y-67650309D02*
X156226609Y-67650309D01*
X156369466Y-67650309D02*
X156369466Y-67150309D01*
X156369466Y-67150309D02*
X156321847Y-67221738D01*
X156321847Y-67221738D02*
X156274228Y-67269357D01*
X156274228Y-67269357D02*
X156226609Y-67293166D01*
X154913719Y-73744100D02*
X154747053Y-73506005D01*
X154628005Y-73744100D02*
X154628005Y-73244100D01*
X154628005Y-73244100D02*
X154818481Y-73244100D01*
X154818481Y-73244100D02*
X154866100Y-73267910D01*
X154866100Y-73267910D02*
X154889910Y-73291719D01*
X154889910Y-73291719D02*
X154913719Y-73339338D01*
X154913719Y-73339338D02*
X154913719Y-73410767D01*
X154913719Y-73410767D02*
X154889910Y-73458386D01*
X154889910Y-73458386D02*
X154866100Y-73482195D01*
X154866100Y-73482195D02*
X154818481Y-73506005D01*
X154818481Y-73506005D02*
X154628005Y-73506005D01*
X155389910Y-73744100D02*
X155104196Y-73744100D01*
X155247053Y-73744100D02*
X155247053Y-73244100D01*
X155247053Y-73244100D02*
X155199434Y-73315529D01*
X155199434Y-73315529D02*
X155151815Y-73363148D01*
X155151815Y-73363148D02*
X155104196Y-73386957D01*
X155866100Y-73744100D02*
X155580386Y-73744100D01*
X155723243Y-73744100D02*
X155723243Y-73244100D01*
X155723243Y-73244100D02*
X155675624Y-73315529D01*
X155675624Y-73315529D02*
X155628005Y-73363148D01*
X155628005Y-73363148D02*
X155580386Y-73386957D01*
X141833334Y-94551000D02*
X141904762Y-94574809D01*
X141904762Y-94574809D02*
X142023810Y-94574809D01*
X142023810Y-94574809D02*
X142071429Y-94551000D01*
X142071429Y-94551000D02*
X142095238Y-94527190D01*
X142095238Y-94527190D02*
X142119048Y-94479571D01*
X142119048Y-94479571D02*
X142119048Y-94431952D01*
X142119048Y-94431952D02*
X142095238Y-94384333D01*
X142095238Y-94384333D02*
X142071429Y-94360523D01*
X142071429Y-94360523D02*
X142023810Y-94336714D01*
X142023810Y-94336714D02*
X141928572Y-94312904D01*
X141928572Y-94312904D02*
X141880953Y-94289095D01*
X141880953Y-94289095D02*
X141857143Y-94265285D01*
X141857143Y-94265285D02*
X141833334Y-94217666D01*
X141833334Y-94217666D02*
X141833334Y-94170047D01*
X141833334Y-94170047D02*
X141857143Y-94122428D01*
X141857143Y-94122428D02*
X141880953Y-94098619D01*
X141880953Y-94098619D02*
X141928572Y-94074809D01*
X141928572Y-94074809D02*
X142047619Y-94074809D01*
X142047619Y-94074809D02*
X142119048Y-94098619D01*
X142285714Y-94074809D02*
X142404762Y-94574809D01*
X142404762Y-94574809D02*
X142500000Y-94217666D01*
X142500000Y-94217666D02*
X142595238Y-94574809D01*
X142595238Y-94574809D02*
X142714286Y-94074809D01*
X143166667Y-94574809D02*
X142880953Y-94574809D01*
X143023810Y-94574809D02*
X143023810Y-94074809D01*
X143023810Y-94074809D02*
X142976191Y-94146238D01*
X142976191Y-94146238D02*
X142928572Y-94193857D01*
X142928572Y-94193857D02*
X142880953Y-94217666D01*
X157362061Y-94659583D02*
X157362061Y-94897678D01*
X157362061Y-94897678D02*
X156862061Y-94897678D01*
X157028728Y-94278630D02*
X157362061Y-94278630D01*
X156838252Y-94397678D02*
X157195394Y-94516725D01*
X157195394Y-94516725D02*
X157195394Y-94207202D01*
X153991981Y-99573153D02*
X153968172Y-99596963D01*
X153968172Y-99596963D02*
X153896743Y-99620772D01*
X153896743Y-99620772D02*
X153849124Y-99620772D01*
X153849124Y-99620772D02*
X153777696Y-99596963D01*
X153777696Y-99596963D02*
X153730077Y-99549343D01*
X153730077Y-99549343D02*
X153706267Y-99501724D01*
X153706267Y-99501724D02*
X153682458Y-99406486D01*
X153682458Y-99406486D02*
X153682458Y-99335058D01*
X153682458Y-99335058D02*
X153706267Y-99239820D01*
X153706267Y-99239820D02*
X153730077Y-99192201D01*
X153730077Y-99192201D02*
X153777696Y-99144582D01*
X153777696Y-99144582D02*
X153849124Y-99120772D01*
X153849124Y-99120772D02*
X153896743Y-99120772D01*
X153896743Y-99120772D02*
X153968172Y-99144582D01*
X153968172Y-99144582D02*
X153991981Y-99168391D01*
X154182458Y-99168391D02*
X154206267Y-99144582D01*
X154206267Y-99144582D02*
X154253886Y-99120772D01*
X154253886Y-99120772D02*
X154372934Y-99120772D01*
X154372934Y-99120772D02*
X154420553Y-99144582D01*
X154420553Y-99144582D02*
X154444362Y-99168391D01*
X154444362Y-99168391D02*
X154468172Y-99216010D01*
X154468172Y-99216010D02*
X154468172Y-99263629D01*
X154468172Y-99263629D02*
X154444362Y-99335058D01*
X154444362Y-99335058D02*
X154158648Y-99620772D01*
X154158648Y-99620772D02*
X154468172Y-99620772D01*
X154634838Y-99120772D02*
X154968171Y-99120772D01*
X154968171Y-99120772D02*
X154753886Y-99620772D01*
X155350749Y-91754593D02*
X155374559Y-91778402D01*
X155374559Y-91778402D02*
X155398368Y-91849831D01*
X155398368Y-91849831D02*
X155398368Y-91897450D01*
X155398368Y-91897450D02*
X155374559Y-91968878D01*
X155374559Y-91968878D02*
X155326939Y-92016497D01*
X155326939Y-92016497D02*
X155279320Y-92040307D01*
X155279320Y-92040307D02*
X155184082Y-92064116D01*
X155184082Y-92064116D02*
X155112654Y-92064116D01*
X155112654Y-92064116D02*
X155017416Y-92040307D01*
X155017416Y-92040307D02*
X154969797Y-92016497D01*
X154969797Y-92016497D02*
X154922178Y-91968878D01*
X154922178Y-91968878D02*
X154898368Y-91897450D01*
X154898368Y-91897450D02*
X154898368Y-91849831D01*
X154898368Y-91849831D02*
X154922178Y-91778402D01*
X154922178Y-91778402D02*
X154945987Y-91754593D01*
X155398368Y-91278402D02*
X155398368Y-91564116D01*
X155398368Y-91421259D02*
X154898368Y-91421259D01*
X154898368Y-91421259D02*
X154969797Y-91468878D01*
X154969797Y-91468878D02*
X155017416Y-91516497D01*
X155017416Y-91516497D02*
X155041225Y-91564116D01*
X155398368Y-91040307D02*
X155398368Y-90945069D01*
X155398368Y-90945069D02*
X155374559Y-90897450D01*
X155374559Y-90897450D02*
X155350749Y-90873641D01*
X155350749Y-90873641D02*
X155279320Y-90826022D01*
X155279320Y-90826022D02*
X155184082Y-90802212D01*
X155184082Y-90802212D02*
X154993606Y-90802212D01*
X154993606Y-90802212D02*
X154945987Y-90826022D01*
X154945987Y-90826022D02*
X154922178Y-90849831D01*
X154922178Y-90849831D02*
X154898368Y-90897450D01*
X154898368Y-90897450D02*
X154898368Y-90992688D01*
X154898368Y-90992688D02*
X154922178Y-91040307D01*
X154922178Y-91040307D02*
X154945987Y-91064117D01*
X154945987Y-91064117D02*
X154993606Y-91087926D01*
X154993606Y-91087926D02*
X155112654Y-91087926D01*
X155112654Y-91087926D02*
X155160273Y-91064117D01*
X155160273Y-91064117D02*
X155184082Y-91040307D01*
X155184082Y-91040307D02*
X155207892Y-90992688D01*
X155207892Y-90992688D02*
X155207892Y-90897450D01*
X155207892Y-90897450D02*
X155184082Y-90849831D01*
X155184082Y-90849831D02*
X155160273Y-90826022D01*
X155160273Y-90826022D02*
X155112654Y-90802212D01*
D12*
%TO.C,U2*%
X157130000Y-51370000D02*
X157130000Y-61530000D01*
D13*
X146900000Y-62350000D02*
G75*
G02*
X146600000Y-62350000I-150000J0D01*
G01*
X146600000Y-62350000D02*
G75*
G02*
X146900000Y-62350000I150000J0D01*
G01*
D12*
X157130000Y-61530000D02*
X157081000Y-61530000D01*
X157081000Y-51370000D02*
X157130000Y-51370000D01*
X147019000Y-61530000D02*
X146716000Y-61530000D01*
X146716000Y-61530000D02*
X146716000Y-51370000D01*
X146716000Y-51370000D02*
X147019000Y-51370000D01*
D14*
%TO.C,R3*%
X137981918Y-97183201D02*
X137981918Y-96847959D01*
X138741918Y-97183201D02*
X138741918Y-96847959D01*
%TO.C,C6*%
X130821512Y-92569148D02*
X130821512Y-92337478D01*
X131541512Y-92569148D02*
X131541512Y-92337478D01*
%TO.C,C5*%
X131616432Y-95582151D02*
X131848102Y-95582151D01*
X131616432Y-96302151D02*
X131848102Y-96302151D01*
%TO.C,C4*%
X128810231Y-92562973D02*
X128810231Y-92331303D01*
X129530231Y-92562973D02*
X129530231Y-92331303D01*
%TO.C,C3*%
X131862927Y-98296046D02*
X131631257Y-98296046D01*
X131862927Y-97576046D02*
X131631257Y-97576046D01*
%TO.C,U8*%
X133315000Y-89630000D02*
X133075000Y-89300000D01*
X133555000Y-89300000D01*
X133315000Y-89630000D01*
G36*
X133315000Y-89630000D02*
G01*
X133075000Y-89300000D01*
X133555000Y-89300000D01*
X133315000Y-89630000D01*
G37*
X136445000Y-94200000D02*
X133725000Y-94200000D01*
X136445000Y-93220000D02*
X136445000Y-94200000D01*
X136445000Y-90460000D02*
X136445000Y-89480000D01*
X133865000Y-89480000D02*
X136445000Y-89480000D01*
%TO.C,R7*%
X135749393Y-95232676D02*
X135295265Y-95232676D01*
X135749393Y-96702676D02*
X135295265Y-96702676D01*
%TO.C,R5*%
X135762922Y-97182619D02*
X135308794Y-97182619D01*
X135762922Y-98652619D02*
X135308794Y-98652619D01*
%TO.C,J8*%
X138821300Y-86166215D02*
X138821300Y-87496215D01*
X137491300Y-86166215D02*
X138821300Y-86166215D01*
X136221300Y-86166215D02*
X128541300Y-86166215D01*
X136221300Y-86166215D02*
X136221300Y-88826215D01*
X128541300Y-86166215D02*
X128541300Y-88826215D01*
X136221300Y-88826215D02*
X128541300Y-88826215D01*
%TO.C,J3*%
X129256776Y-103660139D02*
X129256776Y-101960139D01*
X138596776Y-103660139D02*
X138596776Y-101960139D01*
%TO.C,FB1*%
X129637500Y-97369724D02*
X129637500Y-96860276D01*
X128592500Y-97369724D02*
X128592500Y-96860276D01*
%TO.C,C1*%
X137646627Y-92981364D02*
X137646627Y-93503868D01*
X139116627Y-92981364D02*
X139116627Y-93503868D01*
%TO.C,L5*%
X155640000Y-96298550D02*
X155640000Y-96498950D01*
X156360000Y-96298550D02*
X156360000Y-96498950D01*
%TO.C,C10*%
X149797756Y-76734782D02*
X149566086Y-76734782D01*
X149797756Y-77454782D02*
X149566086Y-77454782D01*
D15*
%TO.C,U5*%
X142718000Y-76349000D02*
X146779500Y-76321500D01*
X142718000Y-78000000D02*
X142718000Y-76349000D01*
X142718000Y-79651000D02*
X142718000Y-78000000D01*
X146779500Y-76321500D02*
X146779500Y-79651500D01*
X146779500Y-79651500D02*
X142718000Y-79651000D01*
D16*
X147036000Y-76095000D02*
X146528000Y-76095000D01*
X147036000Y-76603000D02*
X147036000Y-76095000D01*
D14*
%TO.C,R14*%
X145575928Y-74319191D02*
X145911170Y-74319191D01*
X145575928Y-75079191D02*
X145911170Y-75079191D01*
%TO.C,J4*%
X140920000Y-82880000D02*
X142250000Y-82880000D01*
X140920000Y-84210000D02*
X140920000Y-82880000D01*
X140920000Y-85480000D02*
X140920000Y-93160000D01*
X140920000Y-85480000D02*
X143580000Y-85480000D01*
X140920000Y-93160000D02*
X143580000Y-93160000D01*
X143580000Y-85480000D02*
X143580000Y-93160000D01*
%TO.C,C20*%
X156660822Y-91584334D02*
X156660822Y-91352664D01*
X157380822Y-91584334D02*
X157380822Y-91352664D01*
%TO.C,JP1*%
X144415249Y-62203719D02*
X146415249Y-62203719D01*
X144415249Y-65003719D02*
X144415249Y-62203719D01*
X146415249Y-62203719D02*
X146415249Y-65003719D01*
X146415249Y-65003719D02*
X144415249Y-65003719D01*
%TO.C,J5*%
X160920000Y-81370000D02*
X162250000Y-81370000D01*
X160920000Y-82700000D02*
X160920000Y-81370000D01*
X160920000Y-83970000D02*
X160920000Y-91650000D01*
X160920000Y-83970000D02*
X163580000Y-83970000D01*
X160920000Y-91650000D02*
X163580000Y-91650000D01*
X163580000Y-83970000D02*
X163580000Y-91650000D01*
%TO.C,C15*%
X145890000Y-58365835D02*
X145890000Y-58134165D01*
X146610000Y-58365835D02*
X146610000Y-58134165D01*
%TO.C,C22*%
X154503990Y-94856644D02*
X154272320Y-94856644D01*
X154503990Y-95576644D02*
X154272320Y-95576644D01*
%TO.C,C13*%
X148635000Y-69608733D02*
X148635000Y-69901267D01*
X149655000Y-69608733D02*
X149655000Y-69901267D01*
D17*
%TO.C,G\u002A\u002A\u002A*%
G36*
X110922528Y-74900720D02*
G01*
X110936666Y-74954115D01*
X110972119Y-75008599D01*
X111018449Y-75051988D01*
X111065216Y-75072101D01*
X111069620Y-75072365D01*
X111164395Y-75079507D01*
X111271634Y-75096114D01*
X111376393Y-75119191D01*
X111463731Y-75145747D01*
X111490413Y-75156659D01*
X111617149Y-75234974D01*
X111727210Y-75343572D01*
X111816030Y-75476359D01*
X111879040Y-75627240D01*
X111897992Y-75700528D01*
X111910680Y-75780173D01*
X111917733Y-75865352D01*
X111919228Y-75946981D01*
X111915246Y-76015977D01*
X111905865Y-76063254D01*
X111894692Y-76079272D01*
X111868097Y-76082107D01*
X111810047Y-76083975D01*
X111727416Y-76084794D01*
X111627079Y-76084481D01*
X111544843Y-76083463D01*
X111219660Y-76078188D01*
X111206835Y-75973100D01*
X111184434Y-75882625D01*
X111140185Y-75821609D01*
X111069436Y-75785453D01*
X111004359Y-75772782D01*
X110844389Y-75751827D01*
X110716732Y-75729355D01*
X110615367Y-75703221D01*
X110534271Y-75671284D01*
X110467425Y-75631399D01*
X110408805Y-75581423D01*
X110379124Y-75550234D01*
X110318714Y-75472246D01*
X110276300Y-75388929D01*
X110249432Y-75291933D01*
X110235659Y-75172908D01*
X110232415Y-75050402D01*
X110232415Y-74841736D01*
X110577472Y-74841736D01*
X110922528Y-74841736D01*
X110922528Y-74900720D01*
G37*
G36*
X111909774Y-82816377D02*
G01*
X111909774Y-83171019D01*
X111121943Y-83180604D01*
X110918425Y-83183104D01*
X110749973Y-83185540D01*
X110613320Y-83188424D01*
X110505196Y-83192266D01*
X110422333Y-83197578D01*
X110361463Y-83204871D01*
X110319316Y-83214657D01*
X110292625Y-83227446D01*
X110278120Y-83243750D01*
X110272534Y-83264081D01*
X110272597Y-83288949D01*
X110274578Y-83313151D01*
X110277995Y-83339936D01*
X110285546Y-83362182D01*
X110300527Y-83380318D01*
X110326230Y-83394769D01*
X110365949Y-83405962D01*
X110422979Y-83414323D01*
X110500612Y-83420280D01*
X110602144Y-83424259D01*
X110730867Y-83426686D01*
X110890075Y-83427988D01*
X111083063Y-83428592D01*
X111166943Y-83428729D01*
X111919359Y-83429811D01*
X111919359Y-83785729D01*
X111919359Y-84141647D01*
X111090264Y-84134549D01*
X110886607Y-84132667D01*
X110717500Y-84130713D01*
X110579157Y-84128518D01*
X110467787Y-84125913D01*
X110379604Y-84122728D01*
X110310819Y-84118794D01*
X110257643Y-84113942D01*
X110216288Y-84108002D01*
X110182966Y-84100806D01*
X110155736Y-84092795D01*
X109979314Y-84020891D01*
X109834258Y-83930313D01*
X109716987Y-83818148D01*
X109623918Y-83681481D01*
X109604908Y-83644963D01*
X109572503Y-83577491D01*
X109551606Y-83524780D01*
X109539698Y-83474658D01*
X109534260Y-83414956D01*
X109532771Y-83333502D01*
X109532717Y-83296213D01*
X109533512Y-83202880D01*
X109537408Y-83136061D01*
X109546668Y-83083940D01*
X109563559Y-83034699D01*
X109590346Y-82976522D01*
X109596336Y-82964305D01*
X109690297Y-82815966D01*
X109813647Y-82690277D01*
X109963186Y-82589691D01*
X110135713Y-82516666D01*
X110205635Y-82496900D01*
X110243861Y-82488571D01*
X110287409Y-82481731D01*
X110340304Y-82476231D01*
X110406567Y-82471922D01*
X110490223Y-82468657D01*
X110595293Y-82466286D01*
X110725801Y-82464661D01*
X110885770Y-82463633D01*
X111079221Y-82463053D01*
X111123811Y-82462976D01*
X111909774Y-82461736D01*
X111909774Y-82816377D01*
G37*
G36*
X110270755Y-81144545D02*
G01*
X110275596Y-81260278D01*
X110281902Y-81343122D01*
X110291416Y-81398527D01*
X110305881Y-81431942D01*
X110327038Y-81448819D01*
X110356631Y-81454606D01*
X110370027Y-81455027D01*
X110405123Y-81450054D01*
X110430300Y-81431002D01*
X110447086Y-81392784D01*
X110457008Y-81330312D01*
X110461595Y-81238501D01*
X110462453Y-81147234D01*
X110462453Y-80899396D01*
X110740415Y-80899396D01*
X111018377Y-80899396D01*
X111018377Y-81183109D01*
X111019222Y-81303398D01*
X111022652Y-81390570D01*
X111030016Y-81449827D01*
X111042661Y-81486372D01*
X111061934Y-81505406D01*
X111089182Y-81512133D01*
X111103683Y-81512536D01*
X111138078Y-81510227D01*
X111163358Y-81500390D01*
X111181169Y-81477774D01*
X111193159Y-81437129D01*
X111200974Y-81373206D01*
X111206261Y-81280754D01*
X111210076Y-81173312D01*
X111219660Y-80870641D01*
X111564717Y-80870641D01*
X111909774Y-80870641D01*
X111913514Y-81225283D01*
X111913926Y-81376552D01*
X111911411Y-81494654D01*
X111905706Y-81584669D01*
X111896548Y-81651676D01*
X111889948Y-81680553D01*
X111831641Y-81834778D01*
X111747947Y-81967349D01*
X111642530Y-82073891D01*
X111519056Y-82150026D01*
X111485076Y-82164065D01*
X111454252Y-82175025D01*
X111423684Y-82183768D01*
X111388914Y-82190498D01*
X111345481Y-82195420D01*
X111288926Y-82198739D01*
X111214790Y-82200660D01*
X111118614Y-82201388D01*
X110995938Y-82201127D01*
X110842303Y-82200082D01*
X110722855Y-82199073D01*
X110546937Y-82197454D01*
X110404976Y-82195803D01*
X110292591Y-82193829D01*
X110205401Y-82191241D01*
X110139025Y-82187747D01*
X110089080Y-82183057D01*
X110051186Y-82176878D01*
X110020962Y-82168921D01*
X109994026Y-82158894D01*
X109971861Y-82149169D01*
X109878950Y-82092939D01*
X109785936Y-82012613D01*
X109705348Y-81920295D01*
X109658478Y-81846401D01*
X109619974Y-81754008D01*
X109592228Y-81645134D01*
X109574493Y-81514416D01*
X109566022Y-81356495D01*
X109565794Y-81181123D01*
X109571057Y-80870641D01*
X109916113Y-80870641D01*
X110261170Y-80870641D01*
X110270755Y-81144545D01*
G37*
G36*
X111213630Y-76161099D02*
G01*
X111392895Y-76210355D01*
X111554638Y-76292228D01*
X111695219Y-76403983D01*
X111810996Y-76542883D01*
X111878109Y-76660581D01*
X111910089Y-76730686D01*
X111930792Y-76787589D01*
X111943002Y-76844175D01*
X111949497Y-76913330D01*
X111953058Y-77007924D01*
X111953929Y-77116266D01*
X111949037Y-77197538D01*
X111937316Y-77262718D01*
X111924246Y-77305307D01*
X111846050Y-77473742D01*
X111740774Y-77615549D01*
X111607813Y-77731262D01*
X111446558Y-77821415D01*
X111267585Y-77883614D01*
X111231951Y-77892024D01*
X111191554Y-77898926D01*
X111142393Y-77904467D01*
X111080466Y-77908799D01*
X111001771Y-77912070D01*
X110902306Y-77914430D01*
X110778070Y-77916028D01*
X110625060Y-77917015D01*
X110439274Y-77917540D01*
X110357019Y-77917652D01*
X109571057Y-77918490D01*
X109571057Y-77592604D01*
X109571057Y-77266717D01*
X110357019Y-77257132D01*
X110564153Y-77254510D01*
X110736368Y-77251800D01*
X110877082Y-77248473D01*
X110989714Y-77244002D01*
X111077680Y-77237859D01*
X111144399Y-77229517D01*
X111193289Y-77218448D01*
X111227769Y-77204124D01*
X111251255Y-77186017D01*
X111267167Y-77163601D01*
X111278922Y-77136347D01*
X111286667Y-77113625D01*
X111299796Y-77024199D01*
X111276148Y-76944440D01*
X111217647Y-76874539D01*
X111138030Y-76827019D01*
X111051706Y-76816962D01*
X110961449Y-76844684D01*
X110960240Y-76845305D01*
X110894624Y-76898345D01*
X110859017Y-76974368D01*
X110853270Y-77073880D01*
X110867760Y-77161283D01*
X110865516Y-77171868D01*
X110849786Y-77179796D01*
X110815697Y-77185575D01*
X110758377Y-77189709D01*
X110672955Y-77192706D01*
X110554558Y-77195073D01*
X110540552Y-77195297D01*
X110411568Y-77196619D01*
X110316571Y-77195786D01*
X110251258Y-77192561D01*
X110211326Y-77186709D01*
X110192469Y-77177993D01*
X110190997Y-77176127D01*
X110179222Y-77133836D01*
X110175730Y-77064188D01*
X110180133Y-76977176D01*
X110192043Y-76882788D01*
X110204988Y-76816136D01*
X110259768Y-76658174D01*
X110345917Y-76515795D01*
X110458521Y-76392189D01*
X110592668Y-76290546D01*
X110743445Y-76214057D01*
X110905939Y-76165913D01*
X111075236Y-76149305D01*
X111213630Y-76161099D01*
G37*
G36*
X110767997Y-78123471D02*
G01*
X110957621Y-78126320D01*
X111118602Y-78131880D01*
X111254165Y-78140597D01*
X111367532Y-78152915D01*
X111461929Y-78169279D01*
X111540578Y-78190135D01*
X111606706Y-78215928D01*
X111663534Y-78247101D01*
X111714287Y-78284101D01*
X111762126Y-78327309D01*
X111846425Y-78423112D01*
X111903395Y-78522848D01*
X111937451Y-78636996D01*
X111953005Y-78776035D01*
X111953252Y-78781132D01*
X111951481Y-78924693D01*
X111928788Y-79044016D01*
X111881448Y-79149127D01*
X111805741Y-79250052D01*
X111762027Y-79296172D01*
X111649271Y-79408928D01*
X111693258Y-79439584D01*
X111783483Y-79520566D01*
X111864722Y-79628237D01*
X111895664Y-79682113D01*
X111920876Y-79736563D01*
X111936816Y-79790809D01*
X111945956Y-79857242D01*
X111950769Y-79948252D01*
X111951134Y-79960075D01*
X111951885Y-80045408D01*
X111949382Y-80120916D01*
X111944140Y-80175109D01*
X111940823Y-80190113D01*
X111873717Y-80335969D01*
X111776976Y-80460020D01*
X111654832Y-80558430D01*
X111511518Y-80627364D01*
X111433949Y-80649422D01*
X111395205Y-80653777D01*
X111321612Y-80657761D01*
X111216659Y-80661300D01*
X111083835Y-80664321D01*
X110926631Y-80666752D01*
X110748534Y-80668520D01*
X110553035Y-80669552D01*
X110459651Y-80669758D01*
X109571057Y-80670888D01*
X109565826Y-80335606D01*
X109560595Y-80000325D01*
X110382413Y-79994577D01*
X110589448Y-79993106D01*
X110761400Y-79991551D01*
X110901525Y-79989462D01*
X111013078Y-79986390D01*
X111099316Y-79981888D01*
X111163492Y-79975505D01*
X111208864Y-79966794D01*
X111238686Y-79955306D01*
X111256213Y-79940591D01*
X111264702Y-79922202D01*
X111267407Y-79899688D01*
X111267585Y-79872602D01*
X111267585Y-79872551D01*
X111267225Y-79843860D01*
X111263988Y-79820004D01*
X111254636Y-79800536D01*
X111235930Y-79785009D01*
X111204633Y-79772979D01*
X111157507Y-79763999D01*
X111091313Y-79757624D01*
X111002815Y-79753407D01*
X110888774Y-79750903D01*
X110745951Y-79749666D01*
X110571110Y-79749249D01*
X110371923Y-79749207D01*
X109561472Y-79749207D01*
X109561472Y-79404151D01*
X109561472Y-79059094D01*
X110371923Y-79059094D01*
X110580259Y-79059045D01*
X110753493Y-79058599D01*
X110894864Y-79057311D01*
X111007609Y-79054735D01*
X111094965Y-79050425D01*
X111160172Y-79043935D01*
X111206467Y-79034819D01*
X111237087Y-79022632D01*
X111255271Y-79006927D01*
X111264257Y-78987259D01*
X111267282Y-78963181D01*
X111267585Y-78935751D01*
X111267410Y-78908653D01*
X111264714Y-78886130D01*
X111256241Y-78867733D01*
X111238738Y-78853015D01*
X111208947Y-78841526D01*
X111163613Y-78832820D01*
X111099481Y-78826447D01*
X111013296Y-78821960D01*
X110901802Y-78818910D01*
X110761744Y-78816850D01*
X110589866Y-78815331D01*
X110382912Y-78813905D01*
X110382411Y-78813902D01*
X109560593Y-78808332D01*
X109565825Y-78468845D01*
X109571057Y-78129358D01*
X110289925Y-78124129D01*
X110546506Y-78122889D01*
X110767997Y-78123471D01*
G37*
D14*
%TO.C,L7*%
X155640000Y-101371050D02*
X155640000Y-101571450D01*
X156360000Y-101371050D02*
X156360000Y-101571450D01*
%TO.C,L1*%
X154838785Y-50072967D02*
X155039185Y-50072967D01*
X154838785Y-49352967D02*
X155039185Y-49352967D01*
%TO.C,R1*%
X143039693Y-53661843D02*
X142704451Y-53661843D01*
X143039693Y-54421843D02*
X142704451Y-54421843D01*
%TO.C,C14*%
X156396267Y-86990000D02*
X156103733Y-86990000D01*
X156396267Y-88010000D02*
X156103733Y-88010000D01*
%TO.C,C12*%
X150035000Y-69389165D02*
X150035000Y-69620835D01*
X150755000Y-69389165D02*
X150755000Y-69620835D01*
D17*
%TO.C,G\u002A\u002A\u002A*%
G36*
X119326896Y-85470149D02*
G01*
X119324333Y-85494633D01*
X119308757Y-85531658D01*
X119292199Y-85545671D01*
X119282822Y-85532920D01*
X119283657Y-85513322D01*
X119297300Y-85476199D01*
X119312342Y-85462483D01*
X119326896Y-85470149D01*
G37*
G36*
X120086054Y-85313447D02*
G01*
X120097147Y-85351314D01*
X120099850Y-85398562D01*
X120097065Y-85458449D01*
X120087152Y-85488164D01*
X120070224Y-85495424D01*
X120052111Y-85487247D01*
X120045131Y-85457176D01*
X120046406Y-85406403D01*
X120055929Y-85341689D01*
X120070729Y-85310471D01*
X120086054Y-85313447D01*
G37*
G36*
X118738777Y-85322014D02*
G01*
X118745676Y-85365831D01*
X118746962Y-85400150D01*
X118743535Y-85454498D01*
X118734771Y-85488994D01*
X118727907Y-85495424D01*
X118717038Y-85478287D01*
X118710139Y-85434469D01*
X118708853Y-85400150D01*
X118712280Y-85345802D01*
X118721044Y-85311306D01*
X118727907Y-85304876D01*
X118738777Y-85322014D01*
G37*
G36*
X120630972Y-85313709D02*
G01*
X120644969Y-85352095D01*
X120649162Y-85381550D01*
X120662515Y-85433031D01*
X120686200Y-85469138D01*
X120687271Y-85469986D01*
X120704139Y-85486404D01*
X120692081Y-85493324D01*
X120657202Y-85494818D01*
X120620771Y-85493516D01*
X120602465Y-85482215D01*
X120596045Y-85451217D01*
X120595274Y-85398562D01*
X120600962Y-85338573D01*
X120614582Y-85309745D01*
X120630972Y-85313709D01*
G37*
G36*
X118365867Y-84504576D02*
G01*
X118365867Y-84599850D01*
X118251538Y-84599850D01*
X118137210Y-84599850D01*
X118137210Y-84904726D01*
X118137210Y-85209603D01*
X118032409Y-85209603D01*
X117927607Y-85209603D01*
X117927607Y-84904726D01*
X117927607Y-84599850D01*
X117813279Y-84599850D01*
X117698950Y-84599850D01*
X117698950Y-84504576D01*
X117698950Y-84409302D01*
X118032409Y-84409302D01*
X118365867Y-84409302D01*
X118365867Y-84504576D01*
G37*
G36*
X119921235Y-85321781D02*
G01*
X119927872Y-85364010D01*
X119928357Y-85381095D01*
X119933077Y-85434093D01*
X119948722Y-85455931D01*
X119956940Y-85457314D01*
X119982297Y-85467603D01*
X119985522Y-85476369D01*
X119969215Y-85490693D01*
X119937885Y-85495424D01*
X119909613Y-85492335D01*
X119895509Y-85476571D01*
X119890699Y-85438386D01*
X119890248Y-85400150D01*
X119893675Y-85345802D01*
X119902439Y-85311306D01*
X119909303Y-85304876D01*
X119921235Y-85321781D01*
G37*
G36*
X119209908Y-85311779D02*
G01*
X119202908Y-85344731D01*
X119195238Y-85361094D01*
X119174603Y-85412611D01*
X119166167Y-85456368D01*
X119158361Y-85487842D01*
X119147112Y-85495424D01*
X119131720Y-85479436D01*
X119128057Y-85456644D01*
X119117794Y-85412277D01*
X119096894Y-85370303D01*
X119079427Y-85331959D01*
X119080839Y-85308528D01*
X119097101Y-85308065D01*
X119117579Y-85328936D01*
X119139414Y-85351410D01*
X119158632Y-85342104D01*
X119165992Y-85333670D01*
X119196123Y-85306705D01*
X119209908Y-85311779D01*
G37*
G36*
X117946438Y-85310680D02*
G01*
X117965451Y-85324929D01*
X117952050Y-85342881D01*
X117937135Y-85349877D01*
X117915517Y-85377445D01*
X117908553Y-85428134D01*
X117903806Y-85472452D01*
X117892122Y-85494783D01*
X117889498Y-85495424D01*
X117877566Y-85478520D01*
X117870929Y-85436290D01*
X117870443Y-85419205D01*
X117866217Y-85371476D01*
X117855660Y-85344929D01*
X117851388Y-85342986D01*
X117832887Y-85328486D01*
X117832333Y-85323931D01*
X117849084Y-85311337D01*
X117890273Y-85305041D01*
X117899025Y-85304876D01*
X117946438Y-85310680D01*
G37*
G36*
X118629078Y-85309662D02*
G01*
X118651112Y-85321430D01*
X118651688Y-85323931D01*
X118637188Y-85342432D01*
X118632634Y-85342986D01*
X118620701Y-85359890D01*
X118614065Y-85402120D01*
X118613579Y-85419205D01*
X118609353Y-85466934D01*
X118598795Y-85493480D01*
X118594524Y-85495424D01*
X118581974Y-85478663D01*
X118575651Y-85437402D01*
X118575469Y-85428134D01*
X118567283Y-85374099D01*
X118546887Y-85349877D01*
X118519727Y-85331765D01*
X118526552Y-85315504D01*
X118563344Y-85305836D01*
X118584997Y-85304876D01*
X118629078Y-85309662D01*
G37*
G36*
X119699700Y-84809453D02*
G01*
X119699700Y-85209603D01*
X119599663Y-85209254D01*
X119499625Y-85208905D01*
X119356715Y-84991450D01*
X119213804Y-84773995D01*
X119204276Y-84987035D01*
X119194749Y-85200075D01*
X119094712Y-85205835D01*
X118994674Y-85211594D01*
X118994674Y-84810448D01*
X118994674Y-84409302D01*
X119094712Y-84409667D01*
X119194749Y-84410032D01*
X119347187Y-84641638D01*
X119499625Y-84873245D01*
X119504975Y-84641274D01*
X119510326Y-84409302D01*
X119605013Y-84409302D01*
X119699700Y-84409302D01*
X119699700Y-84809453D01*
G37*
G36*
X121871943Y-84504576D02*
G01*
X121871943Y-84599850D01*
X121671868Y-84599850D01*
X121471793Y-84599850D01*
X121471793Y-84657014D01*
X121471793Y-84714179D01*
X121633759Y-84714179D01*
X121795724Y-84714179D01*
X121795724Y-84809453D01*
X121795724Y-84904726D01*
X121633759Y-84904726D01*
X121471793Y-84904726D01*
X121471793Y-85057164D01*
X121471793Y-85209603D01*
X121376520Y-85209603D01*
X121281246Y-85209603D01*
X121281246Y-84809453D01*
X121281246Y-84409302D01*
X121576595Y-84409302D01*
X121871943Y-84409302D01*
X121871943Y-84504576D01*
G37*
G36*
X121906497Y-85309662D02*
G01*
X121928532Y-85321430D01*
X121929108Y-85323931D01*
X121914607Y-85342432D01*
X121910053Y-85342986D01*
X121898121Y-85359890D01*
X121891484Y-85402120D01*
X121890998Y-85419205D01*
X121886278Y-85472202D01*
X121870633Y-85494041D01*
X121862416Y-85495424D01*
X121842542Y-85482838D01*
X121834353Y-85441117D01*
X121833834Y-85419205D01*
X121829608Y-85371476D01*
X121819050Y-85344929D01*
X121814779Y-85342986D01*
X121796278Y-85328486D01*
X121795724Y-85323931D01*
X121812475Y-85311337D01*
X121853664Y-85305041D01*
X121862416Y-85304876D01*
X121906497Y-85309662D01*
G37*
G36*
X118986489Y-85322014D02*
G01*
X118993388Y-85365831D01*
X118994674Y-85400150D01*
X118988791Y-85464112D01*
X118972734Y-85494145D01*
X118948891Y-85488919D01*
X118919651Y-85447107D01*
X118917587Y-85443023D01*
X118891546Y-85390623D01*
X118884680Y-85443023D01*
X118870292Y-85482801D01*
X118849454Y-85495424D01*
X118832136Y-85486399D01*
X118825592Y-85454129D01*
X118826901Y-85404914D01*
X118836609Y-85342377D01*
X118855484Y-85316804D01*
X118883758Y-85328109D01*
X118918635Y-85371568D01*
X118956313Y-85428732D01*
X118956439Y-85366804D01*
X118961651Y-85324651D01*
X118974178Y-85305053D01*
X118975619Y-85304876D01*
X118986489Y-85322014D01*
G37*
G36*
X122702220Y-85333815D02*
G01*
X122704707Y-85342507D01*
X122713425Y-85367159D01*
X122726432Y-85363838D01*
X122748919Y-85337743D01*
X122777670Y-85311795D01*
X122797518Y-85309523D01*
X122796865Y-85332103D01*
X122777150Y-85361924D01*
X122753936Y-85391919D01*
X122757301Y-85414489D01*
X122777150Y-85438377D01*
X122800085Y-85474425D01*
X122793889Y-85490520D01*
X122765101Y-85480122D01*
X122748579Y-85466948D01*
X122721030Y-85444659D01*
X122711331Y-85448740D01*
X122710353Y-85463889D01*
X122696330Y-85490996D01*
X122681771Y-85495424D01*
X122663797Y-85485225D01*
X122655018Y-85449911D01*
X122653189Y-85400150D01*
X122658111Y-85342429D01*
X122670401Y-85309361D01*
X122686343Y-85305104D01*
X122702220Y-85333815D01*
G37*
G36*
X118167134Y-85322014D02*
G01*
X118174033Y-85365831D01*
X118175319Y-85400150D01*
X118171892Y-85454498D01*
X118163128Y-85488994D01*
X118156264Y-85495424D01*
X118140783Y-85479465D01*
X118137210Y-85457314D01*
X118123736Y-85425468D01*
X118099100Y-85419205D01*
X118067254Y-85432679D01*
X118060991Y-85457314D01*
X118053011Y-85488278D01*
X118041936Y-85495424D01*
X118031066Y-85478287D01*
X118024167Y-85434469D01*
X118022881Y-85400150D01*
X118026309Y-85345802D01*
X118035072Y-85311306D01*
X118041936Y-85304876D01*
X118057418Y-85320836D01*
X118060991Y-85342986D01*
X118074464Y-85374832D01*
X118099100Y-85381095D01*
X118130947Y-85367622D01*
X118137210Y-85342986D01*
X118145189Y-85312023D01*
X118156264Y-85304876D01*
X118167134Y-85322014D01*
G37*
G36*
X121196842Y-85322014D02*
G01*
X121203741Y-85365831D01*
X121205027Y-85400150D01*
X121201599Y-85454498D01*
X121192836Y-85488994D01*
X121185972Y-85495424D01*
X121170490Y-85479465D01*
X121166917Y-85457314D01*
X121153443Y-85425468D01*
X121128808Y-85419205D01*
X121096961Y-85432679D01*
X121090698Y-85457314D01*
X121082718Y-85488278D01*
X121071643Y-85495424D01*
X121060774Y-85478287D01*
X121053874Y-85434469D01*
X121052589Y-85400150D01*
X121056016Y-85345802D01*
X121064779Y-85311306D01*
X121071643Y-85304876D01*
X121087125Y-85320836D01*
X121090698Y-85342986D01*
X121104172Y-85374832D01*
X121128808Y-85381095D01*
X121160654Y-85367622D01*
X121166917Y-85342986D01*
X121174897Y-85312023D01*
X121185972Y-85304876D01*
X121196842Y-85322014D01*
G37*
G36*
X122538131Y-85314077D02*
G01*
X122572040Y-85335297D01*
X122592638Y-85358963D01*
X122591691Y-85372725D01*
X122567999Y-85373775D01*
X122549091Y-85362624D01*
X122508962Y-85346811D01*
X122476890Y-85363539D01*
X122462710Y-85407285D01*
X122462641Y-85411200D01*
X122465554Y-85443557D01*
X122481604Y-85454700D01*
X122521760Y-85450428D01*
X122532945Y-85448367D01*
X122576980Y-85441595D01*
X122590338Y-85445961D01*
X122579437Y-85463861D01*
X122578249Y-85465301D01*
X122537457Y-85490357D01*
X122486154Y-85493958D01*
X122441234Y-85476848D01*
X122425202Y-85458567D01*
X122408932Y-85416438D01*
X122405477Y-85394829D01*
X122420807Y-85358740D01*
X122456374Y-85324158D01*
X122496539Y-85305450D01*
X122503373Y-85304876D01*
X122538131Y-85314077D01*
G37*
G36*
X119799418Y-85310305D02*
G01*
X119814029Y-85322665D01*
X119798616Y-85340686D01*
X119785447Y-85342986D01*
X119760089Y-85353275D01*
X119756865Y-85362041D01*
X119772298Y-85378946D01*
X119785447Y-85381095D01*
X119810804Y-85391384D01*
X119814029Y-85400150D01*
X119798595Y-85417055D01*
X119785447Y-85419205D01*
X119760089Y-85429494D01*
X119756865Y-85438260D01*
X119772298Y-85455165D01*
X119785447Y-85457314D01*
X119810804Y-85467603D01*
X119814029Y-85476369D01*
X119797447Y-85489655D01*
X119757395Y-85495417D01*
X119755821Y-85495424D01*
X119720884Y-85493529D01*
X119704601Y-85481143D01*
X119701150Y-85448208D01*
X119703420Y-85404914D01*
X119709042Y-85349701D01*
X119720916Y-85321876D01*
X119745506Y-85310720D01*
X119761628Y-85308374D01*
X119799418Y-85310305D01*
G37*
G36*
X118348839Y-85310396D02*
G01*
X118365862Y-85323694D01*
X118365867Y-85323931D01*
X118350433Y-85340836D01*
X118337285Y-85342986D01*
X118311927Y-85353275D01*
X118308703Y-85362041D01*
X118324136Y-85378946D01*
X118337285Y-85381095D01*
X118362642Y-85391384D01*
X118365867Y-85400150D01*
X118350433Y-85417055D01*
X118337285Y-85419205D01*
X118311927Y-85429494D01*
X118308703Y-85438260D01*
X118324136Y-85455165D01*
X118337285Y-85457314D01*
X118362642Y-85467603D01*
X118365867Y-85476369D01*
X118349309Y-85489748D01*
X118309414Y-85495423D01*
X118308703Y-85495424D01*
X118274863Y-85493342D01*
X118257988Y-85480544D01*
X118252180Y-85447199D01*
X118251538Y-85400150D01*
X118252787Y-85343750D01*
X118260466Y-85315626D01*
X118280473Y-85305946D01*
X118308703Y-85304876D01*
X118348839Y-85310396D01*
G37*
G36*
X120864068Y-85310396D02*
G01*
X120881091Y-85323694D01*
X120881096Y-85323931D01*
X120865136Y-85339413D01*
X120842986Y-85342986D01*
X120812023Y-85350966D01*
X120804877Y-85362041D01*
X120820310Y-85378946D01*
X120833459Y-85381095D01*
X120858816Y-85391384D01*
X120862041Y-85400150D01*
X120846607Y-85417055D01*
X120833459Y-85419205D01*
X120808101Y-85429494D01*
X120804877Y-85438260D01*
X120820229Y-85455350D01*
X120832334Y-85457314D01*
X120864776Y-85468927D01*
X120871568Y-85476369D01*
X120864122Y-85489864D01*
X120827050Y-85495415D01*
X120825056Y-85495424D01*
X120790554Y-85493431D01*
X120773349Y-85480894D01*
X120767426Y-85447982D01*
X120766767Y-85400150D01*
X120768016Y-85343750D01*
X120775695Y-85315626D01*
X120795702Y-85305946D01*
X120823931Y-85304876D01*
X120864068Y-85310396D01*
G37*
G36*
X122979147Y-85310396D02*
G01*
X122996170Y-85323694D01*
X122996174Y-85323931D01*
X122980215Y-85339413D01*
X122958065Y-85342986D01*
X122927102Y-85350966D01*
X122919955Y-85362041D01*
X122935389Y-85378946D01*
X122948538Y-85381095D01*
X122973895Y-85391384D01*
X122977120Y-85400150D01*
X122961686Y-85417055D01*
X122948538Y-85419205D01*
X122923180Y-85429494D01*
X122919955Y-85438260D01*
X122935915Y-85453741D01*
X122958065Y-85457314D01*
X122989028Y-85465294D01*
X122996174Y-85476369D01*
X122979616Y-85489748D01*
X122939721Y-85495423D01*
X122939010Y-85495424D01*
X122905170Y-85493342D01*
X122888296Y-85480544D01*
X122882488Y-85447199D01*
X122881846Y-85400150D01*
X122883095Y-85343750D01*
X122890774Y-85315626D01*
X122910781Y-85305946D01*
X122939010Y-85304876D01*
X122979147Y-85310396D01*
G37*
G36*
X120249997Y-85309023D02*
G01*
X120271281Y-85328495D01*
X120293923Y-85370355D01*
X120312751Y-85420770D01*
X120322592Y-85465906D01*
X120318356Y-85491851D01*
X120300790Y-85490120D01*
X120295729Y-85481133D01*
X120272033Y-85461492D01*
X120234970Y-85458990D01*
X120205746Y-85474734D01*
X120204652Y-85476369D01*
X120182725Y-85493926D01*
X120163423Y-85490525D01*
X120161810Y-85471606D01*
X120173668Y-85439105D01*
X120191136Y-85390623D01*
X120233234Y-85390623D01*
X120243206Y-85415985D01*
X120251690Y-85419205D01*
X120262175Y-85405238D01*
X120259179Y-85390623D01*
X120245654Y-85365551D01*
X120240722Y-85362041D01*
X120234061Y-85377600D01*
X120233234Y-85390623D01*
X120191136Y-85390623D01*
X120191866Y-85388597D01*
X120196482Y-85375715D01*
X120221044Y-85326659D01*
X120246708Y-85308734D01*
X120249997Y-85309023D01*
G37*
G36*
X119602373Y-85316096D02*
G01*
X119630717Y-85343527D01*
X119631749Y-85377826D01*
X119624492Y-85389405D01*
X119611575Y-85423436D01*
X119622829Y-85456096D01*
X119634246Y-85486280D01*
X119620932Y-85495337D01*
X119617536Y-85495424D01*
X119589922Y-85480020D01*
X119570518Y-85452551D01*
X119549841Y-85409678D01*
X119548552Y-85452551D01*
X119542937Y-85490975D01*
X119532169Y-85497824D01*
X119520312Y-85478500D01*
X119511428Y-85438406D01*
X119509153Y-85400150D01*
X119510253Y-85362041D01*
X119547262Y-85362041D01*
X119561762Y-85380542D01*
X119566317Y-85381095D01*
X119584818Y-85366595D01*
X119585372Y-85362041D01*
X119570872Y-85343540D01*
X119566317Y-85342986D01*
X119547816Y-85357486D01*
X119547262Y-85362041D01*
X119510253Y-85362041D01*
X119510788Y-85343525D01*
X119518769Y-85315273D01*
X119537707Y-85305696D01*
X119554456Y-85304876D01*
X119602373Y-85316096D01*
G37*
G36*
X122081613Y-85317404D02*
G01*
X122110539Y-85348604D01*
X122110845Y-85388901D01*
X122105583Y-85399252D01*
X122094144Y-85434725D01*
X122105460Y-85454552D01*
X122116583Y-85480506D01*
X122112318Y-85490058D01*
X122092438Y-85486855D01*
X122063643Y-85459624D01*
X122061612Y-85457030D01*
X122025229Y-85409678D01*
X122024805Y-85452551D01*
X122017291Y-85486025D01*
X122005327Y-85495424D01*
X121994457Y-85478287D01*
X121987558Y-85434469D01*
X121986272Y-85400150D01*
X121987373Y-85362041D01*
X122024381Y-85362041D01*
X122039891Y-85378763D01*
X122054088Y-85381095D01*
X122073811Y-85371858D01*
X122072018Y-85362041D01*
X122047658Y-85343713D01*
X122042312Y-85342986D01*
X122024895Y-85357520D01*
X122024381Y-85362041D01*
X121987373Y-85362041D01*
X121987908Y-85343525D01*
X121995889Y-85315273D01*
X122014826Y-85305696D01*
X122031576Y-85304876D01*
X122081613Y-85317404D01*
G37*
G36*
X122274672Y-85308912D02*
G01*
X122293610Y-85329553D01*
X122317948Y-85374220D01*
X122331515Y-85405772D01*
X122350876Y-85459166D01*
X122354921Y-85486186D01*
X122344289Y-85495066D01*
X122338467Y-85495424D01*
X122313314Y-85485034D01*
X122310203Y-85476369D01*
X122294294Y-85460734D01*
X122273218Y-85457314D01*
X122236741Y-85466064D01*
X122224457Y-85476369D01*
X122203909Y-85492407D01*
X122182083Y-85494853D01*
X122176820Y-85487476D01*
X122185018Y-85455316D01*
X122205278Y-85409503D01*
X122210961Y-85399026D01*
X122253039Y-85399026D01*
X122266871Y-85418429D01*
X122272093Y-85419205D01*
X122290653Y-85412704D01*
X122291148Y-85410802D01*
X122277796Y-85394534D01*
X122272093Y-85390623D01*
X122254535Y-85392134D01*
X122253039Y-85399026D01*
X122210961Y-85399026D01*
X122231100Y-85361899D01*
X122255985Y-85324364D01*
X122273431Y-85308762D01*
X122274672Y-85308912D01*
G37*
G36*
X123158437Y-85318122D02*
G01*
X123174190Y-85336979D01*
X123177195Y-85381095D01*
X123181378Y-85433120D01*
X123191555Y-85469819D01*
X123192610Y-85471606D01*
X123197708Y-85492022D01*
X123181605Y-85494436D01*
X123155580Y-85480780D01*
X123137028Y-85462078D01*
X123117577Y-85439159D01*
X123111683Y-85447163D01*
X123111109Y-85462078D01*
X123096721Y-85490286D01*
X123080877Y-85495424D01*
X123062872Y-85487348D01*
X123055817Y-85457588D01*
X123057058Y-85404914D01*
X123061090Y-85362041D01*
X123110503Y-85362041D01*
X123125003Y-85380542D01*
X123129558Y-85381095D01*
X123148059Y-85366595D01*
X123148613Y-85362041D01*
X123134112Y-85343540D01*
X123129558Y-85342986D01*
X123111057Y-85357486D01*
X123110503Y-85362041D01*
X123061090Y-85362041D01*
X123062194Y-85350298D01*
X123073027Y-85323717D01*
X123096551Y-85315116D01*
X123120030Y-85314404D01*
X123158437Y-85318122D01*
G37*
G36*
X121373947Y-85320643D02*
G01*
X121399145Y-85358534D01*
X121414626Y-85390616D01*
X121439162Y-85448735D01*
X121449588Y-85480050D01*
X121446658Y-85492846D01*
X121431125Y-85495411D01*
X121424156Y-85495424D01*
X121398799Y-85485135D01*
X121395574Y-85476369D01*
X121379615Y-85460888D01*
X121357465Y-85457314D01*
X121326501Y-85465294D01*
X121319355Y-85476369D01*
X121303944Y-85493326D01*
X121291091Y-85495424D01*
X121276267Y-85490309D01*
X121275933Y-85469475D01*
X121290727Y-85424686D01*
X121298043Y-85405772D01*
X121300618Y-85400150D01*
X121338410Y-85400150D01*
X121352910Y-85418651D01*
X121357465Y-85419205D01*
X121375966Y-85404705D01*
X121376520Y-85400150D01*
X121362019Y-85381649D01*
X121357465Y-85381095D01*
X121338964Y-85395596D01*
X121338410Y-85400150D01*
X121300618Y-85400150D01*
X121322311Y-85352792D01*
X121345184Y-85317009D01*
X121354886Y-85308912D01*
X121373947Y-85320643D01*
G37*
G36*
X121601444Y-85315565D02*
G01*
X121628477Y-85351304D01*
X121640257Y-85417606D01*
X121640636Y-85423969D01*
X121640943Y-85470689D01*
X121628304Y-85490714D01*
X121592685Y-85495346D01*
X121577191Y-85495424D01*
X121509903Y-85495424D01*
X121509903Y-85438260D01*
X121548012Y-85438260D01*
X121563446Y-85455165D01*
X121576595Y-85457314D01*
X121601952Y-85447025D01*
X121605177Y-85438260D01*
X121589743Y-85421355D01*
X121576595Y-85419205D01*
X121551237Y-85429494D01*
X121548012Y-85438260D01*
X121509903Y-85438260D01*
X121509903Y-85400150D01*
X121511004Y-85362041D01*
X121548012Y-85362041D01*
X121562513Y-85380542D01*
X121567067Y-85381095D01*
X121585568Y-85366595D01*
X121586122Y-85362041D01*
X121571622Y-85343540D01*
X121567067Y-85342986D01*
X121548566Y-85357486D01*
X121548012Y-85362041D01*
X121511004Y-85362041D01*
X121511539Y-85343525D01*
X121519520Y-85315273D01*
X121538457Y-85305696D01*
X121555207Y-85304876D01*
X121601444Y-85315565D01*
G37*
G36*
X120456449Y-85308374D02*
G01*
X120494299Y-85320433D01*
X120515030Y-85352800D01*
X120522491Y-85381095D01*
X120530966Y-85444489D01*
X120519899Y-85479970D01*
X120485798Y-85494189D01*
X120462489Y-85495424D01*
X120428461Y-85493436D01*
X120411388Y-85480961D01*
X120405425Y-85448229D01*
X120405284Y-85438260D01*
X120442836Y-85438260D01*
X120458346Y-85454982D01*
X120472543Y-85457314D01*
X120492266Y-85448077D01*
X120490473Y-85438260D01*
X120466112Y-85419932D01*
X120460766Y-85419205D01*
X120443349Y-85433739D01*
X120442836Y-85438260D01*
X120405284Y-85438260D01*
X120404727Y-85398885D01*
X120405492Y-85362041D01*
X120442836Y-85362041D01*
X120457336Y-85380542D01*
X120461891Y-85381095D01*
X120480392Y-85366595D01*
X120480946Y-85362041D01*
X120466445Y-85343540D01*
X120461891Y-85342986D01*
X120443390Y-85357486D01*
X120442836Y-85362041D01*
X120405492Y-85362041D01*
X120405904Y-85342172D01*
X120412911Y-85314439D01*
X120430964Y-85306561D01*
X120456449Y-85308374D01*
G37*
G36*
X120492948Y-83754830D02*
G01*
X120560142Y-83802749D01*
X120561455Y-83804143D01*
X120590970Y-83837757D01*
X120607263Y-83867212D01*
X120613021Y-83904324D01*
X120610935Y-83960910D01*
X120607327Y-84005699D01*
X120598988Y-84093334D01*
X120588201Y-84148111D01*
X120569487Y-84175160D01*
X120537366Y-84179611D01*
X120486359Y-84166596D01*
X120448881Y-84154060D01*
X120349379Y-84113344D01*
X120283369Y-84068303D01*
X120246237Y-84014308D01*
X120233367Y-83946726D01*
X120233234Y-83937673D01*
X120236228Y-83921905D01*
X120349025Y-83921905D01*
X120358202Y-83967720D01*
X120367487Y-83981619D01*
X120407079Y-84007215D01*
X120450974Y-83995230D01*
X120470057Y-83979209D01*
X120495490Y-83934510D01*
X120488764Y-83893423D01*
X120455378Y-83865438D01*
X120401012Y-83860015D01*
X120364636Y-83881139D01*
X120349025Y-83921905D01*
X120236228Y-83921905D01*
X120248853Y-83855420D01*
X120290481Y-83792817D01*
X120350271Y-83753056D01*
X120420375Y-83739329D01*
X120492948Y-83754830D01*
G37*
G36*
X118733911Y-84439079D02*
G01*
X118782929Y-84477095D01*
X118805512Y-84530224D01*
X118798902Y-84590095D01*
X118760341Y-84648338D01*
X118740581Y-84665434D01*
X118677037Y-84713902D01*
X118673966Y-84904588D01*
X118674326Y-84994575D01*
X118678394Y-85058618D01*
X118685756Y-85091759D01*
X118689874Y-85095274D01*
X118704141Y-85111581D01*
X118708853Y-85142911D01*
X118700983Y-85179172D01*
X118669994Y-85190347D01*
X118661216Y-85190548D01*
X118624873Y-85182598D01*
X118613743Y-85151697D01*
X118613579Y-85144035D01*
X118620589Y-85103700D01*
X118632594Y-85085771D01*
X118640898Y-85062086D01*
X118646209Y-85007975D01*
X118647943Y-84931045D01*
X118647435Y-84892514D01*
X118644232Y-84804459D01*
X118638596Y-84747208D01*
X118629188Y-84713471D01*
X118614667Y-84695958D01*
X118610851Y-84693664D01*
X118548423Y-84644459D01*
X118520367Y-84580787D01*
X118518305Y-84553805D01*
X118534073Y-84487001D01*
X118579019Y-84442942D01*
X118649603Y-84424829D01*
X118661216Y-84424546D01*
X118733911Y-84439079D01*
G37*
G36*
X122824682Y-84592910D02*
G01*
X122824682Y-84778510D01*
X122951433Y-84593906D01*
X123078185Y-84409302D01*
X123200277Y-84409302D01*
X123322369Y-84409302D01*
X123185880Y-84608003D01*
X123122190Y-84704553D01*
X123081217Y-84775498D01*
X123063701Y-84819478D01*
X123064457Y-84831897D01*
X123081486Y-84857093D01*
X123115656Y-84905372D01*
X123161531Y-84969111D01*
X123199815Y-85021742D01*
X123249018Y-85090191D01*
X123288492Y-85147203D01*
X123313561Y-85185887D01*
X123320105Y-85198907D01*
X123302800Y-85204576D01*
X123257688Y-85206935D01*
X123201944Y-85205748D01*
X123083782Y-85200075D01*
X122958996Y-85025627D01*
X122834209Y-84851179D01*
X122828755Y-85030391D01*
X122823302Y-85209603D01*
X122728120Y-85209603D01*
X122663038Y-85204694D01*
X122627561Y-85190906D01*
X122623582Y-85185222D01*
X122620939Y-85159318D01*
X122619120Y-85101608D01*
X122618191Y-85018389D01*
X122618219Y-84915960D01*
X122619270Y-84800616D01*
X122619417Y-84789836D01*
X122624607Y-84418830D01*
X122724644Y-84413070D01*
X122824682Y-84407311D01*
X122824682Y-84592910D01*
G37*
G36*
X119985522Y-84532163D02*
G01*
X119992342Y-84624851D01*
X120015089Y-84686149D01*
X120057189Y-84720664D01*
X120122070Y-84733008D01*
X120135007Y-84733233D01*
X120197957Y-84725495D01*
X120239092Y-84698663D01*
X120262167Y-84647317D01*
X120270939Y-84566035D01*
X120271343Y-84536422D01*
X120271343Y-84409302D01*
X120376144Y-84409302D01*
X120480946Y-84409302D01*
X120480946Y-84516657D01*
X120476755Y-84593124D01*
X120466091Y-84667427D01*
X120458666Y-84698373D01*
X120432882Y-84751624D01*
X120390566Y-84808473D01*
X120340920Y-84859277D01*
X120293143Y-84894395D01*
X120261761Y-84904726D01*
X120247118Y-84911948D01*
X120238331Y-84938113D01*
X120234135Y-84989977D01*
X120233234Y-85057164D01*
X120233234Y-85209603D01*
X120128433Y-85209603D01*
X120023631Y-85209603D01*
X120023631Y-85057164D01*
X120022132Y-84978014D01*
X120016885Y-84930559D01*
X120006765Y-84908476D01*
X119996511Y-84904726D01*
X119958812Y-84890516D01*
X119910506Y-84854283D01*
X119862260Y-84805622D01*
X119824740Y-84754132D01*
X119820498Y-84746375D01*
X119801846Y-84688109D01*
X119790332Y-84605114D01*
X119787837Y-84553333D01*
X119785447Y-84418830D01*
X119885484Y-84413070D01*
X119985522Y-84407311D01*
X119985522Y-84532163D01*
G37*
G36*
X122381156Y-85639323D02*
G01*
X122447491Y-85641796D01*
X122512146Y-85646045D01*
X122564352Y-85651456D01*
X122593338Y-85657420D01*
X122596024Y-85659718D01*
X122588931Y-85685510D01*
X122570243Y-85736569D01*
X122543849Y-85803340D01*
X122513637Y-85876268D01*
X122483496Y-85945796D01*
X122457313Y-86002370D01*
X122453252Y-86010578D01*
X122316825Y-86241827D01*
X122148564Y-86458965D01*
X121953740Y-86656585D01*
X121737619Y-86829279D01*
X121528958Y-86959087D01*
X121462136Y-86992191D01*
X121378478Y-87029017D01*
X121286731Y-87066255D01*
X121195643Y-87100593D01*
X121113960Y-87128719D01*
X121050431Y-87147323D01*
X121016237Y-87153188D01*
X121014894Y-87139007D01*
X121031915Y-87101879D01*
X121062646Y-87051358D01*
X121105994Y-86994631D01*
X121161535Y-86939772D01*
X121236820Y-86880077D01*
X121324844Y-86818596D01*
X121412231Y-86756455D01*
X121498272Y-86689516D01*
X121571919Y-86626678D01*
X121614704Y-86585111D01*
X121675084Y-86520795D01*
X121748025Y-86444076D01*
X121819423Y-86369772D01*
X121831171Y-86357644D01*
X121939388Y-86232919D01*
X122038878Y-86093334D01*
X122123455Y-85949042D01*
X122186935Y-85810194D01*
X122213185Y-85730558D01*
X122232653Y-85677268D01*
X122259384Y-85650713D01*
X122286528Y-85642147D01*
X122323912Y-85639236D01*
X122381156Y-85639323D01*
G37*
G36*
X120967501Y-84487968D02*
G01*
X121005344Y-84494277D01*
X121014479Y-84500319D01*
X121004197Y-84521354D01*
X120976544Y-84565875D01*
X120936312Y-84626364D01*
X120908230Y-84667048D01*
X120848088Y-84753403D01*
X120807752Y-84813370D01*
X120785142Y-84851761D01*
X120778180Y-84873386D01*
X120784785Y-84883056D01*
X120802878Y-84885583D01*
X120813734Y-84885672D01*
X120846379Y-84880804D01*
X120859747Y-84858702D01*
X120862041Y-84818980D01*
X120862041Y-84752288D01*
X120956107Y-84752288D01*
X121012201Y-84753636D01*
X121040733Y-84762030D01*
X121052247Y-84783999D01*
X121056145Y-84814216D01*
X121065383Y-84857869D01*
X121090226Y-84876672D01*
X121124044Y-84882115D01*
X121162350Y-84888305D01*
X121180336Y-84904501D01*
X121185662Y-84941901D01*
X121185972Y-84972625D01*
X121184486Y-85024830D01*
X121174534Y-85049371D01*
X121147876Y-85056692D01*
X121119280Y-85057164D01*
X121076580Y-85059472D01*
X121057604Y-85073719D01*
X121052738Y-85110893D01*
X121052589Y-85133383D01*
X121052589Y-85209603D01*
X120957315Y-85209603D01*
X120862041Y-85209603D01*
X120862041Y-85133383D01*
X120862041Y-85057164D01*
X120700075Y-85057164D01*
X120538110Y-85057164D01*
X120538110Y-84964997D01*
X120540111Y-84922839D01*
X120548580Y-84884308D01*
X120567221Y-84841508D01*
X120599734Y-84786543D01*
X120649820Y-84711519D01*
X120672107Y-84679175D01*
X120806105Y-84485522D01*
X120910292Y-84485522D01*
X120967501Y-84487968D01*
G37*
G36*
X122388002Y-84412508D02*
G01*
X122457559Y-84420685D01*
X122460259Y-84421212D01*
X122496493Y-84431251D01*
X122513936Y-84449935D01*
X122519416Y-84488858D01*
X122519805Y-84522307D01*
X122519805Y-84611493D01*
X122324956Y-84610435D01*
X122235934Y-84610688D01*
X122178106Y-84613339D01*
X122144577Y-84619487D01*
X122128454Y-84630229D01*
X122123525Y-84642514D01*
X122125093Y-84663948D01*
X122142988Y-84682711D01*
X122182849Y-84701722D01*
X122250313Y-84723898D01*
X122317784Y-84743090D01*
X122422488Y-84782919D01*
X122492791Y-84836203D01*
X122530627Y-84904904D01*
X122538860Y-84967383D01*
X122521911Y-85059515D01*
X122472395Y-85132630D01*
X122393362Y-85183329D01*
X122347974Y-85194442D01*
X122278465Y-85202672D01*
X122195209Y-85207798D01*
X122108582Y-85209601D01*
X122028958Y-85207858D01*
X121966710Y-85202350D01*
X121932635Y-85193131D01*
X121915831Y-85161161D01*
X121913368Y-85098710D01*
X121913581Y-85095672D01*
X121919580Y-85014101D01*
X122133946Y-85017611D01*
X122229432Y-85018346D01*
X122292700Y-85016402D01*
X122329588Y-85011131D01*
X122345934Y-85001885D01*
X122348312Y-84993839D01*
X122336815Y-84960536D01*
X122298886Y-84933541D01*
X122229373Y-84909601D01*
X122205148Y-84903391D01*
X122121628Y-84880185D01*
X122061782Y-84854845D01*
X122011476Y-84820461D01*
X121981508Y-84794032D01*
X121948755Y-84756644D01*
X121933206Y-84714482D01*
X121929115Y-84651474D01*
X121929108Y-84647487D01*
X121932868Y-84582664D01*
X121947999Y-84539262D01*
X121980278Y-84501004D01*
X121981508Y-84499826D01*
X122032136Y-84459992D01*
X122084195Y-84430893D01*
X122087550Y-84429569D01*
X122139255Y-84418439D01*
X122215479Y-84411685D01*
X122302852Y-84409608D01*
X122388002Y-84412508D01*
G37*
G36*
X119929457Y-85610980D02*
G01*
X120044568Y-85615069D01*
X120163909Y-85621489D01*
X120287573Y-85629776D01*
X120419633Y-85639128D01*
X120518439Y-85646659D01*
X120588698Y-85653919D01*
X120635116Y-85662457D01*
X120662401Y-85673822D01*
X120675258Y-85689563D01*
X120678395Y-85711230D01*
X120676517Y-85740372D01*
X120675223Y-85757385D01*
X120674344Y-85804853D01*
X120681707Y-85844234D01*
X120701720Y-85886327D01*
X120738793Y-85941932D01*
X120765733Y-85979029D01*
X120809495Y-86040224D01*
X120842863Y-86089978D01*
X120860539Y-86120269D01*
X120862041Y-86124916D01*
X120876346Y-86142943D01*
X120913579Y-86175048D01*
X120957947Y-86208613D01*
X121013057Y-86254201D01*
X121056240Y-86300730D01*
X121074049Y-86329492D01*
X121083438Y-86401843D01*
X121065825Y-86500966D01*
X121021233Y-86626763D01*
X120982806Y-86712350D01*
X120929176Y-86847063D01*
X120903900Y-86965691D01*
X120907569Y-87064905D01*
X120915247Y-87092859D01*
X120925847Y-87132733D01*
X120915063Y-87151272D01*
X120884204Y-87160496D01*
X120828096Y-87168231D01*
X120743900Y-87174353D01*
X120641610Y-87178691D01*
X120531218Y-87181072D01*
X120422719Y-87181326D01*
X120326106Y-87179280D01*
X120251374Y-87174764D01*
X120226848Y-87171771D01*
X119940830Y-87108176D01*
X119670758Y-87011460D01*
X119418957Y-86883353D01*
X119187751Y-86725583D01*
X118979463Y-86539879D01*
X118796417Y-86327970D01*
X118640936Y-86091583D01*
X118557815Y-85930078D01*
X118513343Y-85834329D01*
X118484718Y-85767951D01*
X118472862Y-85725250D01*
X118478696Y-85700532D01*
X118503142Y-85688102D01*
X118547120Y-85682266D01*
X118598542Y-85678397D01*
X118848507Y-85658977D01*
X119065214Y-85642967D01*
X119253350Y-85630233D01*
X119417599Y-85620640D01*
X119562648Y-85614053D01*
X119693183Y-85610338D01*
X119813891Y-85609358D01*
X119929457Y-85610980D01*
G37*
G36*
X120918896Y-82945150D02*
G01*
X121187959Y-83016028D01*
X121449977Y-83122574D01*
X121702058Y-83264775D01*
X121723826Y-83279100D01*
X121851338Y-83375234D01*
X121985103Y-83495595D01*
X122115064Y-83629969D01*
X122231165Y-83768139D01*
X122301859Y-83866242D01*
X122361665Y-83960074D01*
X122412482Y-84046487D01*
X122451355Y-84119816D01*
X122475330Y-84174396D01*
X122481452Y-84204566D01*
X122479914Y-84207566D01*
X122455144Y-84214270D01*
X122397839Y-84221355D01*
X122313566Y-84228533D01*
X122207894Y-84235514D01*
X122086390Y-84242010D01*
X121954623Y-84247730D01*
X121818161Y-84252388D01*
X121682571Y-84255692D01*
X121553421Y-84257355D01*
X121518352Y-84257488D01*
X121340224Y-84258708D01*
X121193068Y-84262087D01*
X121069788Y-84268076D01*
X120963285Y-84277129D01*
X120866461Y-84289699D01*
X120781058Y-84304521D01*
X120709603Y-84318270D01*
X120709603Y-84252301D01*
X120720695Y-84160596D01*
X120751701Y-84088888D01*
X120796261Y-84046774D01*
X120830600Y-84021144D01*
X120842986Y-83999358D01*
X120856191Y-83968887D01*
X120886396Y-83939036D01*
X120919492Y-83921396D01*
X120936665Y-83922421D01*
X120969613Y-83924046D01*
X121007244Y-83905418D01*
X121031524Y-83876883D01*
X121033534Y-83866855D01*
X121017673Y-83840237D01*
X120995424Y-83828132D01*
X120963272Y-83803914D01*
X120962049Y-83766794D01*
X120990544Y-83724354D01*
X121015269Y-83703714D01*
X121046160Y-83678756D01*
X121057469Y-83656526D01*
X121046318Y-83631140D01*
X121009828Y-83596713D01*
X120945118Y-83547358D01*
X120935208Y-83540070D01*
X120843646Y-83486113D01*
X120771003Y-83467681D01*
X120711347Y-83458878D01*
X120661584Y-83442725D01*
X120658455Y-83441109D01*
X120609962Y-83422994D01*
X120578925Y-83418455D01*
X120558189Y-83422255D01*
X120547240Y-83439391D01*
X120543565Y-83478468D01*
X120544326Y-83536907D01*
X120544427Y-83603922D01*
X120538660Y-83641636D01*
X120525014Y-83658659D01*
X120515080Y-83662008D01*
X120487710Y-83654789D01*
X120438734Y-83631408D01*
X120377844Y-83597446D01*
X120314730Y-83558488D01*
X120259083Y-83520115D01*
X120233234Y-83499630D01*
X120240140Y-83483826D01*
X120269220Y-83454198D01*
X120311548Y-83418953D01*
X120352569Y-83389873D01*
X120381596Y-83356857D01*
X120394705Y-83327945D01*
X120398988Y-83299050D01*
X120382410Y-83287215D01*
X120342186Y-83285071D01*
X120272792Y-83270274D01*
X120194627Y-83229198D01*
X120193228Y-83228254D01*
X120140038Y-83201365D01*
X120357922Y-83201365D01*
X120375023Y-83217086D01*
X120423257Y-83240577D01*
X120461891Y-83246962D01*
X120515365Y-83257509D01*
X120548759Y-83274384D01*
X120573811Y-83300890D01*
X120567838Y-83330669D01*
X120562563Y-83339800D01*
X120552905Y-83369834D01*
X120571295Y-83387235D01*
X120621205Y-83393696D01*
X120671493Y-83392862D01*
X120718003Y-83385981D01*
X120736470Y-83367197D01*
X120738185Y-83352578D01*
X120720794Y-83314143D01*
X120674408Y-83274652D01*
X120607702Y-83238794D01*
X120529355Y-83211261D01*
X120450251Y-83196928D01*
X120389217Y-83192347D01*
X120360351Y-83193314D01*
X120357922Y-83201365D01*
X120140038Y-83201365D01*
X120101175Y-83181719D01*
X120037252Y-83171090D01*
X119991451Y-83172756D01*
X119976037Y-83182099D01*
X119983340Y-83204714D01*
X119985522Y-83208852D01*
X119995586Y-83231987D01*
X119991464Y-83243433D01*
X119968013Y-83242831D01*
X119920093Y-83229820D01*
X119842564Y-83204040D01*
X119823593Y-83197507D01*
X119744132Y-83172090D01*
X119689173Y-83160519D01*
X119648363Y-83161225D01*
X119624893Y-83167395D01*
X119583546Y-83187258D01*
X119521423Y-83223411D01*
X119447308Y-83270022D01*
X119369985Y-83321253D01*
X119298239Y-83371271D01*
X119240855Y-83414241D01*
X119206617Y-83444326D01*
X119204736Y-83446483D01*
X119190511Y-83465646D01*
X119196639Y-83469007D01*
X119228979Y-83456518D01*
X119252780Y-83446097D01*
X119331316Y-83417100D01*
X119397138Y-83403528D01*
X119442814Y-83406274D01*
X119459968Y-83421156D01*
X119466103Y-83455329D01*
X119471154Y-83510495D01*
X119474815Y-83576639D01*
X119476778Y-83643744D01*
X119476736Y-83701797D01*
X119474383Y-83740782D01*
X119470093Y-83751326D01*
X119457098Y-83762092D01*
X119441396Y-83799246D01*
X119436958Y-83814107D01*
X119419160Y-83872729D01*
X119394426Y-83946830D01*
X119377544Y-83994385D01*
X119355529Y-84064954D01*
X119340987Y-84131402D01*
X119337528Y-84165878D01*
X119337396Y-84228282D01*
X118926665Y-84234981D01*
X118515934Y-84241680D01*
X118591422Y-84091542D01*
X118696931Y-83910847D01*
X118829631Y-83729639D01*
X118981237Y-83557282D01*
X119143465Y-83403141D01*
X119308029Y-83276580D01*
X119318605Y-83269534D01*
X119569178Y-83126168D01*
X119577310Y-83122813D01*
X120331578Y-83122813D01*
X120344390Y-83131991D01*
X120385089Y-83126080D01*
X120387007Y-83125697D01*
X120442039Y-83107406D01*
X120483313Y-83082508D01*
X120543749Y-83082508D01*
X120569648Y-83107104D01*
X120620217Y-83113892D01*
X120658547Y-83118324D01*
X120702284Y-83133344D01*
X120757427Y-83162122D01*
X120829975Y-83207828D01*
X120925927Y-83273631D01*
X120936143Y-83280807D01*
X121029771Y-83342914D01*
X121096949Y-83378481D01*
X121138565Y-83387520D01*
X121155509Y-83370040D01*
X121148670Y-83326052D01*
X121131799Y-83283039D01*
X121104535Y-83220473D01*
X121080631Y-83163435D01*
X121074423Y-83147932D01*
X121047751Y-83102201D01*
X121004039Y-83066597D01*
X120936757Y-83037576D01*
X120839379Y-83011591D01*
X120812791Y-83005829D01*
X120702056Y-82987681D01*
X120622662Y-82986980D01*
X120571906Y-83004045D01*
X120547677Y-83037233D01*
X120543749Y-83082508D01*
X120483313Y-83082508D01*
X120484459Y-83081817D01*
X120515344Y-83041990D01*
X120512212Y-83013016D01*
X120476150Y-82999637D01*
X120465533Y-82999250D01*
X120396908Y-83014958D01*
X120350919Y-83061015D01*
X120337781Y-83092578D01*
X120331578Y-83122813D01*
X119577310Y-83122813D01*
X119830065Y-83018538D01*
X120098374Y-82946633D01*
X120371210Y-82910441D01*
X120645682Y-82909950D01*
X120918896Y-82945150D01*
G37*
D14*
%TO.C,U3*%
X154850000Y-94440000D02*
X154370000Y-94440000D01*
X154610000Y-94110000D01*
X154850000Y-94440000D01*
G36*
X154850000Y-94440000D02*
G01*
X154370000Y-94440000D01*
X154610000Y-94110000D01*
X154850000Y-94440000D01*
G37*
X154610000Y-93385000D02*
X154610000Y-93870000D01*
X154610000Y-89890000D02*
X154610000Y-90615000D01*
X153885000Y-94110000D02*
X154310000Y-94110000D01*
X153885000Y-89890000D02*
X154610000Y-89890000D01*
X151115000Y-94110000D02*
X150390000Y-94110000D01*
X151115000Y-89890000D02*
X150390000Y-89890000D01*
X150390000Y-94110000D02*
X150390000Y-93385000D01*
X150390000Y-89890000D02*
X150390000Y-90615000D01*
%TO.C,C2*%
X143010396Y-54658579D02*
X142778726Y-54658579D01*
X143010396Y-55378579D02*
X142778726Y-55378579D01*
%TO.C,R8*%
X156477500Y-83745276D02*
X156477500Y-84254724D01*
X157522500Y-83745276D02*
X157522500Y-84254724D01*
%TO.C,R12*%
X152806714Y-72051865D02*
X153141956Y-72051865D01*
X152806714Y-72811865D02*
X153141956Y-72811865D01*
%TO.C,C23*%
X150877173Y-95204505D02*
X151108843Y-95204505D01*
X150877173Y-95924505D02*
X151108843Y-95924505D01*
%TO.C,D1*%
X142790000Y-104390000D02*
X142790000Y-107250000D01*
X144710000Y-104390000D02*
X142790000Y-104390000D01*
X144710000Y-107250000D02*
X144710000Y-104390000D01*
%TO.C,J6*%
X140964431Y-62182157D02*
X140964431Y-57042157D01*
X143624431Y-57042157D02*
X140964431Y-57042157D01*
X143624431Y-62182157D02*
X140964431Y-62182157D01*
X143624431Y-62182157D02*
X143624431Y-57042157D01*
X143624431Y-63452157D02*
X143624431Y-64782157D01*
X143624431Y-64782157D02*
X142294431Y-64782157D01*
%TO.C,R2*%
X144129334Y-51421728D02*
X144129334Y-51756970D01*
X144889334Y-51421728D02*
X144889334Y-51756970D01*
%TO.C,D3*%
X146790000Y-104390000D02*
X146790000Y-107250000D01*
X148710000Y-104390000D02*
X146790000Y-104390000D01*
X148710000Y-107250000D02*
X148710000Y-104390000D01*
%TO.C,U6*%
X152010000Y-68130000D02*
X152010000Y-69105000D01*
X152010000Y-68130000D02*
X152235000Y-68130000D01*
X152010000Y-70405000D02*
X152010000Y-71380000D01*
X152235000Y-71380000D02*
X152010000Y-71380000D01*
X155035000Y-71380000D02*
X155260000Y-71380000D01*
X155260000Y-68130000D02*
X155260000Y-69105000D01*
X155260000Y-70405000D02*
X155260000Y-71380000D01*
D17*
%TO.C,G\u002A\u002A\u002A*%
G36*
X117299808Y-83587518D02*
G01*
X117308253Y-83603307D01*
X117315166Y-83622079D01*
X117313212Y-83637048D01*
X117299463Y-83654481D01*
X117272959Y-83678903D01*
X117244968Y-83702661D01*
X117223782Y-83718661D01*
X117215622Y-83722971D01*
X117207334Y-83713368D01*
X117194093Y-83688629D01*
X117183601Y-83665353D01*
X117159258Y-83607735D01*
X117189894Y-83595888D01*
X117224515Y-83585135D01*
X117257209Y-83577910D01*
X117284273Y-83576459D01*
X117299808Y-83587518D01*
G37*
G36*
X114277870Y-83493929D02*
G01*
X114281369Y-83522772D01*
X114281585Y-83565528D01*
X114278422Y-83617849D01*
X114274906Y-83651655D01*
X114268898Y-83687896D01*
X114258266Y-83706335D01*
X114237383Y-83710747D01*
X114200618Y-83704906D01*
X114196721Y-83704087D01*
X114163467Y-83697297D01*
X114142990Y-83691121D01*
X114135108Y-83681664D01*
X114139639Y-83665031D01*
X114156400Y-83637327D01*
X114185209Y-83594656D01*
X114191183Y-83585795D01*
X114220187Y-83544100D01*
X114245347Y-83510579D01*
X114263603Y-83489151D01*
X114271184Y-83483349D01*
X114277870Y-83493929D01*
G37*
G36*
X117357330Y-83782224D02*
G01*
X117381644Y-83791855D01*
X117383702Y-83793717D01*
X117394347Y-83816788D01*
X117396774Y-83848187D01*
X117390195Y-83874660D01*
X117388662Y-83877014D01*
X117368935Y-83895954D01*
X117339917Y-83915354D01*
X117307920Y-83932081D01*
X117279256Y-83943002D01*
X117260236Y-83944982D01*
X117256714Y-83942523D01*
X117251332Y-83926498D01*
X117244703Y-83898396D01*
X117243841Y-83894130D01*
X117236825Y-83861034D01*
X117230554Y-83835100D01*
X117230247Y-83833994D01*
X117235324Y-83815848D01*
X117256893Y-83799939D01*
X117288632Y-83787925D01*
X117324218Y-83781467D01*
X117357330Y-83782224D01*
G37*
G36*
X113687105Y-82803216D02*
G01*
X113854491Y-82816523D01*
X114027440Y-82843097D01*
X114207742Y-82883395D01*
X114397182Y-82937874D01*
X114597548Y-83006992D01*
X114810628Y-83091206D01*
X115035400Y-83189689D01*
X115111028Y-83223152D01*
X115192343Y-83257270D01*
X115272213Y-83289171D01*
X115343505Y-83315984D01*
X115383423Y-83329837D01*
X115608658Y-83392221D01*
X115841895Y-83433945D01*
X116081748Y-83455152D01*
X116326833Y-83455983D01*
X116575763Y-83436579D01*
X116827154Y-83397084D01*
X117079621Y-83337638D01*
X117331777Y-83258383D01*
X117582238Y-83159461D01*
X117734007Y-83089320D01*
X117796007Y-83058750D01*
X117855140Y-83029067D01*
X117906451Y-83002796D01*
X117944985Y-82982460D01*
X117959356Y-82974480D01*
X117990643Y-82958691D01*
X118014003Y-82951031D01*
X118022114Y-82951826D01*
X118019521Y-82963953D01*
X118007609Y-82993331D01*
X117987731Y-83037040D01*
X117961243Y-83092161D01*
X117929499Y-83155774D01*
X117908019Y-83197722D01*
X117873337Y-83265105D01*
X117842456Y-83325653D01*
X117816840Y-83376457D01*
X117797948Y-83414604D01*
X117787242Y-83437186D01*
X117785355Y-83442067D01*
X117796245Y-83444034D01*
X117826834Y-83445790D01*
X117873999Y-83447254D01*
X117934619Y-83448345D01*
X118005572Y-83448983D01*
X118058536Y-83449117D01*
X118138997Y-83449545D01*
X118209639Y-83450756D01*
X118267597Y-83452641D01*
X118310002Y-83455093D01*
X118333988Y-83458002D01*
X118338264Y-83459709D01*
X118332196Y-83470994D01*
X118309380Y-83495644D01*
X118270844Y-83532712D01*
X118217615Y-83581253D01*
X118150721Y-83640321D01*
X118071192Y-83708971D01*
X118019272Y-83753150D01*
X117934738Y-83822098D01*
X117835461Y-83898678D01*
X117725900Y-83979765D01*
X117610515Y-84062234D01*
X117493765Y-84142962D01*
X117380108Y-84218822D01*
X117274003Y-84286690D01*
X117179910Y-84343442D01*
X117163477Y-84352870D01*
X116960329Y-84460660D01*
X116762865Y-84550157D01*
X116572325Y-84620904D01*
X116389948Y-84672444D01*
X116216975Y-84704319D01*
X116207273Y-84705553D01*
X116146647Y-84710450D01*
X116067674Y-84712825D01*
X115974674Y-84712795D01*
X115871968Y-84710476D01*
X115763877Y-84705985D01*
X115654721Y-84699439D01*
X115548821Y-84690955D01*
X115503235Y-84686521D01*
X115368688Y-84671048D01*
X115237543Y-84652523D01*
X115106425Y-84630211D01*
X114971956Y-84603376D01*
X114830761Y-84571284D01*
X114679463Y-84533199D01*
X114514685Y-84488385D01*
X114333050Y-84436108D01*
X114276595Y-84419404D01*
X114075925Y-84360379D01*
X113895030Y-84308676D01*
X113809612Y-84285201D01*
X114911749Y-84285201D01*
X114918067Y-84304438D01*
X114932837Y-84316394D01*
X114964275Y-84321138D01*
X115000698Y-84307399D01*
X115039015Y-84278040D01*
X115076131Y-84235920D01*
X115108957Y-84183902D01*
X115131803Y-84132303D01*
X115146329Y-84097964D01*
X115160458Y-84081075D01*
X115177590Y-84076700D01*
X115188435Y-84078197D01*
X115196934Y-84085071D01*
X115204388Y-84100900D01*
X115212101Y-84129260D01*
X115221375Y-84173727D01*
X115230585Y-84222185D01*
X115243899Y-84288752D01*
X115255682Y-84336306D01*
X115267054Y-84368502D01*
X115279134Y-84388995D01*
X115283003Y-84393344D01*
X115316320Y-84414674D01*
X115351218Y-84416376D01*
X115381617Y-84398186D01*
X115382143Y-84397612D01*
X115400634Y-84366734D01*
X115407260Y-84325979D01*
X115402050Y-84272173D01*
X115385033Y-84202138D01*
X115383985Y-84198538D01*
X115368038Y-84147641D01*
X115353309Y-84105692D01*
X115800806Y-84105692D01*
X115807194Y-84190174D01*
X115822809Y-84267676D01*
X115845522Y-84327452D01*
X115885245Y-84383205D01*
X115936341Y-84421449D01*
X115995209Y-84440698D01*
X116058248Y-84439464D01*
X116092990Y-84429668D01*
X116135748Y-84405918D01*
X116165085Y-84374316D01*
X116176444Y-84339839D01*
X116176460Y-84338552D01*
X116171863Y-84309128D01*
X116155868Y-84293856D01*
X116125168Y-84291172D01*
X116088467Y-84296896D01*
X116039154Y-84302540D01*
X116001965Y-84294013D01*
X115971972Y-84268627D01*
X115944244Y-84223696D01*
X115940553Y-84216286D01*
X115922214Y-84172229D01*
X115912803Y-84128982D01*
X115909875Y-84075108D01*
X115909859Y-84072804D01*
X115913986Y-84004945D01*
X115927987Y-83955218D01*
X115952976Y-83920678D01*
X115972908Y-83906465D01*
X115995161Y-83896466D01*
X116014563Y-83897526D01*
X116042009Y-83910306D01*
X116042735Y-83910696D01*
X116081002Y-83924625D01*
X116106857Y-83920507D01*
X116118620Y-83900433D01*
X116114614Y-83866495D01*
X116102098Y-83836704D01*
X116089775Y-83821032D01*
X116234807Y-83821032D01*
X116235704Y-83859952D01*
X116240512Y-83912974D01*
X116249226Y-83983426D01*
X116255300Y-84028048D01*
X116264177Y-84093707D01*
X116272612Y-84159071D01*
X116279698Y-84216918D01*
X116284528Y-84260028D01*
X116284813Y-84262855D01*
X116289832Y-84301000D01*
X116298136Y-84328681D01*
X116312603Y-84346618D01*
X116336108Y-84355533D01*
X116371526Y-84356146D01*
X116421734Y-84349178D01*
X116489608Y-84335348D01*
X116534284Y-84325356D01*
X116601641Y-84306782D01*
X116647330Y-84286272D01*
X116672466Y-84263185D01*
X116678527Y-84242371D01*
X116668299Y-84226077D01*
X116640176Y-84217328D01*
X116597996Y-84216707D01*
X116552890Y-84223227D01*
X116507130Y-84230879D01*
X116461818Y-84235653D01*
X116441978Y-84236448D01*
X116395078Y-84236448D01*
X116388617Y-84159427D01*
X116377478Y-84041189D01*
X116365581Y-83944436D01*
X116352639Y-83867837D01*
X116338366Y-83810061D01*
X116322473Y-83769777D01*
X116314493Y-83758961D01*
X116602095Y-83758961D01*
X116602714Y-83763824D01*
X116611377Y-83810052D01*
X116625594Y-83867909D01*
X116643475Y-83931226D01*
X116663134Y-83993832D01*
X116682680Y-84049558D01*
X116700227Y-84092231D01*
X116707654Y-84106735D01*
X116745453Y-84151625D01*
X116796020Y-84183451D01*
X116853260Y-84200130D01*
X116911078Y-84199580D01*
X116947054Y-84188557D01*
X116983318Y-84159812D01*
X117009163Y-84112619D01*
X117024170Y-84049046D01*
X117027917Y-83971159D01*
X117019987Y-83881025D01*
X117015324Y-83852219D01*
X116997087Y-83764627D01*
X116977171Y-83698734D01*
X116955057Y-83653450D01*
X116930223Y-83627683D01*
X116904726Y-83620276D01*
X116883114Y-83626412D01*
X116870578Y-83646154D01*
X116866866Y-83681506D01*
X116871723Y-83734471D01*
X116882542Y-83795547D01*
X116896279Y-83875552D01*
X116904206Y-83948164D01*
X116906150Y-84009493D01*
X116901943Y-84055647D01*
X116894927Y-84077450D01*
X116874270Y-84094818D01*
X116844273Y-84098918D01*
X116818749Y-84090389D01*
X116805243Y-84075380D01*
X116790636Y-84045779D01*
X116774198Y-83999564D01*
X116755201Y-83934709D01*
X116735378Y-83858991D01*
X116716415Y-83788419D01*
X116699687Y-83737691D01*
X116683837Y-83704115D01*
X116667511Y-83684997D01*
X116649352Y-83677646D01*
X116643924Y-83677329D01*
X116616818Y-83686695D01*
X116602734Y-83714202D01*
X116602095Y-83758961D01*
X116314493Y-83758961D01*
X116304676Y-83745655D01*
X116298409Y-83741058D01*
X116280406Y-83735693D01*
X116263295Y-83746840D01*
X116255620Y-83755615D01*
X116244761Y-83772190D01*
X116237825Y-83792886D01*
X116234807Y-83821032D01*
X116089775Y-83821032D01*
X116070754Y-83796841D01*
X116030070Y-83774877D01*
X115984011Y-83770168D01*
X115936545Y-83782071D01*
X115891637Y-83809944D01*
X115853252Y-83853144D01*
X115838142Y-83879478D01*
X115816166Y-83943433D01*
X115803759Y-84021141D01*
X115800806Y-84105692D01*
X115353309Y-84105692D01*
X115351241Y-84099803D01*
X115336497Y-84063130D01*
X115332462Y-84054636D01*
X115310406Y-84011403D01*
X115345602Y-83978440D01*
X115383744Y-83938577D01*
X115419754Y-83893693D01*
X115450167Y-83848926D01*
X115471520Y-83809415D01*
X115480351Y-83780298D01*
X115480413Y-83778411D01*
X115474002Y-83747692D01*
X115454893Y-83735747D01*
X115423270Y-83742512D01*
X115379319Y-83767923D01*
X115323227Y-83811919D01*
X115287105Y-83844166D01*
X115253137Y-83874285D01*
X115227398Y-83894613D01*
X115212849Y-83902978D01*
X115211160Y-83899836D01*
X115215592Y-83878994D01*
X115220205Y-83841540D01*
X115224320Y-83793664D01*
X115226255Y-83762717D01*
X115228782Y-83710444D01*
X115229024Y-83675403D01*
X115226065Y-83652045D01*
X115218992Y-83634822D01*
X115206891Y-83618185D01*
X115201342Y-83611527D01*
X115183360Y-83595363D01*
X117067322Y-83595363D01*
X117070905Y-83619513D01*
X117079409Y-83652375D01*
X117087881Y-83682800D01*
X117100656Y-83728043D01*
X117116275Y-83783003D01*
X117133279Y-83842579D01*
X117150207Y-83901670D01*
X117165602Y-83955174D01*
X117178004Y-83997991D01*
X117185953Y-84025019D01*
X117186918Y-84028205D01*
X117201549Y-84039665D01*
X117232777Y-84041314D01*
X117276722Y-84033426D01*
X117323426Y-84018592D01*
X117375576Y-83993043D01*
X117422971Y-83959002D01*
X117460205Y-83921193D01*
X117481871Y-83884342D01*
X117483602Y-83878573D01*
X117484877Y-83835629D01*
X117471939Y-83787819D01*
X117448368Y-83742241D01*
X117417744Y-83705993D01*
X117387091Y-83687207D01*
X117377265Y-83678757D01*
X117382780Y-83660559D01*
X117384348Y-83657565D01*
X117396270Y-83616522D01*
X117396321Y-83568152D01*
X117385284Y-83523036D01*
X117372753Y-83500741D01*
X117355840Y-83482340D01*
X117337668Y-83473931D01*
X117309789Y-83472870D01*
X117288481Y-83474359D01*
X117240927Y-83483659D01*
X117187484Y-83502221D01*
X117136275Y-83526461D01*
X117095427Y-83552796D01*
X117081330Y-83565734D01*
X117070745Y-83579811D01*
X117067322Y-83595363D01*
X115183360Y-83595363D01*
X115171533Y-83584732D01*
X115143397Y-83574635D01*
X115143049Y-83574633D01*
X115120275Y-83579446D01*
X115102727Y-83595634D01*
X115089392Y-83625823D01*
X115079257Y-83672642D01*
X115071311Y-83738714D01*
X115068843Y-83767074D01*
X115056933Y-83871581D01*
X115038090Y-83962415D01*
X115009889Y-84048276D01*
X114969906Y-84137862D01*
X114959993Y-84157557D01*
X114932167Y-84214956D01*
X114916267Y-84256439D01*
X114911749Y-84285201D01*
X113809612Y-84285201D01*
X113732200Y-84263926D01*
X113585723Y-84225760D01*
X113453889Y-84193810D01*
X113334986Y-84167706D01*
X113227304Y-84147080D01*
X113129131Y-84131562D01*
X113038757Y-84120785D01*
X112954470Y-84114380D01*
X112874560Y-84111977D01*
X112850270Y-84111988D01*
X112786221Y-84113476D01*
X112725155Y-84116687D01*
X112671539Y-84121208D01*
X112629838Y-84126627D01*
X112604519Y-84132528D01*
X112599710Y-84135181D01*
X112592212Y-84152855D01*
X112583681Y-84189948D01*
X112574523Y-84243104D01*
X112565147Y-84308967D01*
X112555958Y-84384180D01*
X112547365Y-84465387D01*
X112539775Y-84549232D01*
X112533594Y-84632359D01*
X112529231Y-84711411D01*
X112528927Y-84718546D01*
X112521499Y-84898263D01*
X112437704Y-84898263D01*
X112353909Y-84898263D01*
X112353909Y-84855133D01*
X112355766Y-84817397D01*
X112360924Y-84762035D01*
X112368759Y-84693903D01*
X112378647Y-84617856D01*
X112389966Y-84538751D01*
X112402093Y-84461442D01*
X112411335Y-84407607D01*
X112454472Y-84199566D01*
X112509407Y-83992368D01*
X112577281Y-83782716D01*
X112591726Y-83744749D01*
X113165934Y-83744749D01*
X113168098Y-83787446D01*
X113182730Y-83813895D01*
X113209928Y-83825115D01*
X113219828Y-83825667D01*
X113265302Y-83814474D01*
X113310383Y-83780805D01*
X113355230Y-83724520D01*
X113377222Y-83688548D01*
X113399629Y-83648738D01*
X113417462Y-83616396D01*
X113427865Y-83596727D01*
X113429259Y-83593705D01*
X113440110Y-83594290D01*
X113466221Y-83601344D01*
X113501691Y-83612785D01*
X113540621Y-83626536D01*
X113577109Y-83640517D01*
X113605256Y-83652648D01*
X113618859Y-83660529D01*
X113618329Y-83672652D01*
X113613655Y-83702150D01*
X113605680Y-83744127D01*
X113598655Y-83777986D01*
X113586769Y-83839509D01*
X113581629Y-83882857D01*
X113582904Y-83911549D01*
X113585280Y-83920097D01*
X113604080Y-83950460D01*
X113630687Y-83960499D01*
X113665033Y-83951023D01*
X113871519Y-83951023D01*
X113878469Y-83987602D01*
X113897444Y-84006493D01*
X113925633Y-84007346D01*
X113960223Y-83989812D01*
X113987665Y-83965447D01*
X114014511Y-83934926D01*
X114036070Y-83906190D01*
X114042533Y-83895483D01*
X114051981Y-83880608D01*
X114064876Y-83873374D01*
X114087653Y-83872237D01*
X114125684Y-83875541D01*
X114162881Y-83880051D01*
X114189758Y-83884478D01*
X114199458Y-83887359D01*
X114198680Y-83899700D01*
X114192373Y-83927990D01*
X114181856Y-83966407D01*
X114180414Y-83971289D01*
X114165397Y-84025650D01*
X114158406Y-84063149D01*
X114159125Y-84088165D01*
X114167235Y-84105078D01*
X114170476Y-84108650D01*
X114198175Y-84121548D01*
X114233397Y-84115079D01*
X114272754Y-84089918D01*
X114275296Y-84087721D01*
X114293609Y-84069728D01*
X114307461Y-84049687D01*
X114319111Y-84022403D01*
X114330818Y-83982685D01*
X114336960Y-83957670D01*
X114487860Y-83957670D01*
X114494790Y-84049748D01*
X114515692Y-84125897D01*
X114550107Y-84185200D01*
X114597575Y-84226742D01*
X114630324Y-84242131D01*
X114681194Y-84256030D01*
X114721350Y-84256086D01*
X114758339Y-84242146D01*
X114763107Y-84239416D01*
X114795098Y-84209151D01*
X114806983Y-84169648D01*
X114805306Y-84149523D01*
X114792293Y-84133267D01*
X114759025Y-84120422D01*
X114745568Y-84117241D01*
X114699124Y-84102062D01*
X114668080Y-84077730D01*
X114650050Y-84040593D01*
X114642646Y-83986995D01*
X114642130Y-83958863D01*
X114652425Y-83863385D01*
X114680650Y-83766969D01*
X114724146Y-83678526D01*
X114727244Y-83673571D01*
X114759059Y-83632716D01*
X114789909Y-83613835D01*
X114821936Y-83616296D01*
X114853502Y-83636206D01*
X114886044Y-83659192D01*
X114910771Y-83664302D01*
X114933051Y-83652288D01*
X114937595Y-83647987D01*
X114953482Y-83617413D01*
X114954106Y-83578380D01*
X114941397Y-83537437D01*
X114917285Y-83501132D01*
X114887436Y-83477836D01*
X114842375Y-83464256D01*
X114787883Y-83461549D01*
X114734563Y-83469655D01*
X114709338Y-83478816D01*
X114656486Y-83515314D01*
X114607806Y-83570673D01*
X114565071Y-83641059D01*
X114530055Y-83722639D01*
X114504530Y-83811578D01*
X114490270Y-83904043D01*
X114487860Y-83957670D01*
X114336960Y-83957670D01*
X114343551Y-83930825D01*
X114370663Y-83802136D01*
X114387676Y-83687043D01*
X114395436Y-83579113D01*
X114396134Y-83531018D01*
X114392082Y-83441009D01*
X114380258Y-83371739D01*
X114360333Y-83322373D01*
X114331976Y-83292076D01*
X114297029Y-83280206D01*
X114259835Y-83286006D01*
X114222983Y-83311647D01*
X114185429Y-83358106D01*
X114150744Y-83417424D01*
X114131732Y-83453260D01*
X114104179Y-83504500D01*
X114070567Y-83566566D01*
X114033376Y-83634878D01*
X113995087Y-83704857D01*
X113989417Y-83715186D01*
X113954488Y-83779753D01*
X113923669Y-83838543D01*
X113898587Y-83888301D01*
X113880870Y-83925772D01*
X113872147Y-83947699D01*
X113871519Y-83951023D01*
X113665033Y-83951023D01*
X113666758Y-83950547D01*
X113685476Y-83940275D01*
X113715074Y-83917889D01*
X113737727Y-83893529D01*
X113738874Y-83891822D01*
X113748620Y-83870787D01*
X113763249Y-83831613D01*
X113781544Y-83778150D01*
X113802288Y-83714249D01*
X113824265Y-83643763D01*
X113846256Y-83570543D01*
X113867046Y-83498439D01*
X113885416Y-83431303D01*
X113890243Y-83412824D01*
X113906290Y-83344105D01*
X113913721Y-83292896D01*
X113912359Y-83255507D01*
X113902022Y-83228243D01*
X113882532Y-83207411D01*
X113880170Y-83205612D01*
X113858200Y-83191164D01*
X113840639Y-83188811D01*
X113816394Y-83197885D01*
X113809105Y-83201326D01*
X113790195Y-83212621D01*
X113773244Y-83229335D01*
X113755443Y-83255509D01*
X113733982Y-83295182D01*
X113710416Y-83343264D01*
X113687354Y-83391232D01*
X113668074Y-83431013D01*
X113654588Y-83458473D01*
X113648910Y-83469482D01*
X113648907Y-83469487D01*
X113637612Y-83467820D01*
X113611982Y-83459720D01*
X113578674Y-83447697D01*
X113544351Y-83434259D01*
X113515670Y-83421917D01*
X113499292Y-83413181D01*
X113499108Y-83413038D01*
X113491871Y-83396505D01*
X113494964Y-83364032D01*
X113496853Y-83355101D01*
X113501614Y-83304980D01*
X113496595Y-83249811D01*
X113483527Y-83195837D01*
X113464137Y-83149298D01*
X113440155Y-83116436D01*
X113428329Y-83107775D01*
X113389825Y-83095498D01*
X113357443Y-83103697D01*
X113330648Y-83132895D01*
X113308907Y-83183613D01*
X113295200Y-83238024D01*
X113253062Y-83420841D01*
X113202073Y-83595859D01*
X113198614Y-83606538D01*
X113176139Y-83684786D01*
X113165934Y-83744749D01*
X112591726Y-83744749D01*
X112659236Y-83567314D01*
X112756413Y-83342867D01*
X112844129Y-83158146D01*
X112888049Y-83069660D01*
X112923759Y-83000068D01*
X112952539Y-82947512D01*
X112975670Y-82910131D01*
X112994431Y-82886067D01*
X113010102Y-82873460D01*
X113023965Y-82870451D01*
X113037298Y-82875179D01*
X113038449Y-82875879D01*
X113055784Y-82882080D01*
X113079877Y-82880144D01*
X113117075Y-82869372D01*
X113126242Y-82866237D01*
X113197620Y-82843746D01*
X113267552Y-82827106D01*
X113342175Y-82815337D01*
X113427620Y-82807459D01*
X113523495Y-82802717D01*
X113687105Y-82803216D01*
G37*
D14*
%TO.C,R6*%
X156477500Y-80504724D02*
X156477500Y-79995276D01*
X157522500Y-80504724D02*
X157522500Y-79995276D01*
%TO.C,C7*%
X141288491Y-78284866D02*
X141288491Y-77992332D01*
X142308491Y-78284866D02*
X142308491Y-77992332D01*
%TO.C,L3*%
X156617222Y-89507029D02*
X156416822Y-89507029D01*
X156617222Y-90227029D02*
X156416822Y-90227029D01*
%TO.C,R10*%
X146281962Y-102359739D02*
X146281962Y-101850291D01*
X145236962Y-102359739D02*
X145236962Y-101850291D01*
%TO.C,C18*%
X147365835Y-97140000D02*
X147134165Y-97140000D01*
X147365835Y-97860000D02*
X147134165Y-97860000D01*
%TO.C,R9*%
X141227500Y-105995276D02*
X141227500Y-106504724D01*
X142272500Y-105995276D02*
X142272500Y-106504724D01*
%TO.C,J2*%
X160920000Y-69920000D02*
X162250000Y-69920000D01*
X160920000Y-71250000D02*
X160920000Y-69920000D01*
X160920000Y-72520000D02*
X160920000Y-80200000D01*
X160920000Y-72520000D02*
X163580000Y-72520000D01*
X160920000Y-80200000D02*
X163580000Y-80200000D01*
X163580000Y-72520000D02*
X163580000Y-80200000D01*
%TO.C,C28*%
X144257423Y-54535770D02*
X144257423Y-54243236D01*
X145277423Y-54535770D02*
X145277423Y-54243236D01*
%TO.C,C24*%
X147134165Y-99140000D02*
X147365835Y-99140000D01*
X147134165Y-99860000D02*
X147365835Y-99860000D01*
D11*
%TO.C,U1*%
X141060220Y-50754470D02*
X141210220Y-50754470D01*
X141060220Y-50904470D02*
X141060220Y-50754470D01*
X141210220Y-53454470D02*
X140960220Y-53454470D01*
X143760220Y-50754470D02*
X143610220Y-50754470D01*
X143760220Y-50754470D02*
X143760220Y-50904470D01*
X143760220Y-53454470D02*
X143610220Y-53454470D01*
X143770220Y-53454470D02*
X143770220Y-53304470D01*
D14*
%TO.C,J7*%
X160920000Y-92845000D02*
X162250000Y-92845000D01*
X160920000Y-94175000D02*
X160920000Y-92845000D01*
X160920000Y-95445000D02*
X160920000Y-105665000D01*
X160920000Y-95445000D02*
X163580000Y-95445000D01*
X160920000Y-105665000D02*
X163580000Y-105665000D01*
X163580000Y-95445000D02*
X163580000Y-105665000D01*
%TO.C,D2*%
X144790000Y-104390000D02*
X144790000Y-107250000D01*
X146710000Y-104390000D02*
X144790000Y-104390000D01*
X146710000Y-107250000D02*
X146710000Y-104390000D01*
%TO.C,C17*%
X155248733Y-64745000D02*
X155541267Y-64745000D01*
X155248733Y-65765000D02*
X155541267Y-65765000D01*
%TO.C,C25*%
X154365835Y-97361250D02*
X154134165Y-97361250D01*
X154365835Y-98081250D02*
X154134165Y-98081250D01*
D11*
%TO.C,L2*%
X152915000Y-65005000D02*
X152915000Y-65005000D01*
X153015000Y-65005000D02*
X153015000Y-65005000D01*
X152915000Y-65005000D02*
G75*
G02*
X153015000Y-65005000I50000J0D01*
G01*
X153015000Y-65005000D02*
G75*
G02*
X152915000Y-65005000I-50000J0D01*
G01*
D14*
%TO.C,C9*%
X150890000Y-76634165D02*
X150890000Y-76865835D01*
X151610000Y-76634165D02*
X151610000Y-76865835D01*
%TO.C,L6*%
X155640000Y-98798550D02*
X155640000Y-98998950D01*
X156360000Y-98798550D02*
X156360000Y-98998950D01*
%TO.C,C11*%
X144597857Y-79926216D02*
X144366187Y-79926216D01*
X144597857Y-80646216D02*
X144366187Y-80646216D01*
D18*
%TO.C,U7*%
X145075696Y-94196174D02*
X145075696Y-94696174D01*
X147575696Y-94196174D02*
X147575696Y-94696174D01*
D19*
X145431696Y-92171174D02*
G75*
G02*
X145231696Y-92171174I-100000J0D01*
G01*
X145231696Y-92171174D02*
G75*
G02*
X145431696Y-92171174I100000J0D01*
G01*
D14*
%TO.C,R15*%
X145912278Y-75274572D02*
X145577036Y-75274572D01*
X145912278Y-76034572D02*
X145577036Y-76034572D01*
%TO.C,R4*%
X152707050Y-76916768D02*
X153042292Y-76916768D01*
X152707050Y-77676768D02*
X153042292Y-77676768D01*
%TO.C,C16*%
X156035000Y-69639165D02*
X156035000Y-69870835D01*
X156755000Y-69639165D02*
X156755000Y-69870835D01*
%TO.C,R13*%
X148281962Y-102359739D02*
X148281962Y-101850291D01*
X147236962Y-102359739D02*
X147236962Y-101850291D01*
%TO.C,U4*%
X147140000Y-79390000D02*
X147140000Y-79840000D01*
X147140000Y-79840000D02*
X145850000Y-79840000D01*
X147140000Y-86610000D02*
X147140000Y-86160000D01*
X147590000Y-79390000D02*
X147140000Y-79390000D01*
X147590000Y-86610000D02*
X147140000Y-86610000D01*
X153910000Y-79390000D02*
X154360000Y-79390000D01*
X153910000Y-86610000D02*
X154360000Y-86610000D01*
X154360000Y-79390000D02*
X154360000Y-79840000D01*
X154360000Y-86610000D02*
X154360000Y-86160000D01*
%TO.C,AE1*%
D20*
X153270000Y-45433000D02*
G75*
G02*
X152770000Y-45433000I-250000J0D01*
G01*
X152770000Y-45433000D02*
G75*
G02*
X153270000Y-45433000I250000J0D01*
G01*
D18*
X155020000Y-46933000D02*
X154520000Y-46933000D01*
X155020000Y-43933000D02*
X155020000Y-46933000D01*
X154520000Y-46933000D02*
X145520000Y-46933000D01*
X154520000Y-43933000D02*
X155020000Y-43933000D01*
X154520000Y-43933000D02*
X154520000Y-46933000D01*
X145520000Y-46933000D02*
X145020000Y-46933000D01*
X145520000Y-43933000D02*
X154520000Y-43933000D01*
X145520000Y-43933000D02*
X145520000Y-46933000D01*
X145020000Y-46933000D02*
X145020000Y-43933000D01*
X145020000Y-43933000D02*
X145520000Y-43933000D01*
D14*
%TO.C,SW2*%
X143639224Y-71150085D02*
X143639224Y-71350085D01*
X143639224Y-68150085D02*
X143639224Y-69850085D01*
X142589224Y-66300085D02*
X141799224Y-66300085D01*
X141799224Y-73200085D02*
X142589224Y-73200085D01*
X140789224Y-68350085D02*
X139499224Y-68350085D01*
X140789224Y-66900085D02*
X140789224Y-72600085D01*
X139499224Y-69650085D02*
X140789224Y-69650085D01*
X139499224Y-69650085D02*
X139289224Y-69450085D01*
X139499224Y-68350085D02*
X139289224Y-68550085D01*
X139289224Y-68550085D02*
X139289224Y-69450085D01*
%TO.C,C8*%
X149566086Y-75773145D02*
X149797756Y-75773145D01*
X149566086Y-76493145D02*
X149797756Y-76493145D01*
%TO.C,C21*%
X155779165Y-66145000D02*
X156010835Y-66145000D01*
X155779165Y-66865000D02*
X156010835Y-66865000D01*
%TO.C,R11*%
X155067527Y-72059291D02*
X155402769Y-72059291D01*
X155067527Y-72819291D02*
X155402769Y-72819291D01*
%TO.C,SW1*%
X140650000Y-96440000D02*
X144350000Y-96440000D01*
X140650000Y-102560000D02*
X140650000Y-96440000D01*
X144350000Y-96440000D02*
X144350000Y-102560000D01*
X144350000Y-102560000D02*
X140650000Y-102560000D01*
%TO.C,L4*%
X155640000Y-93798550D02*
X155640000Y-93998950D01*
X156360000Y-93798550D02*
X156360000Y-93998950D01*
%TO.C,C27*%
X154429245Y-99875963D02*
X154197575Y-99875963D01*
X154429245Y-100595963D02*
X154197575Y-100595963D01*
%TO.C,C19*%
X155640000Y-91355415D02*
X155640000Y-91587085D01*
X156360000Y-91355415D02*
X156360000Y-91587085D01*
%TD*%
M02*
