<?xml version="1.0" standalone="no"?>
 <!DOCTYPE svg PUBLIC "-//W3C//DTD SVG 1.1//EN" 
 "http://www.w3.org/Graphics/SVG/1.1/DTD/svg11.dtd"> 
<svg
  xmlns:svg="http://www.w3.org/2000/svg"
  xmlns="http://www.w3.org/2000/svg"
  xmlns:xlink="http://www.w3.org/1999/xlink"
  version="1.1"
  width="45.7708mm" height="83.2866mm" viewBox="0.0000 0.0000 45.7708 83.2866">
<title>SVG Image created as Tiny4FSK-F_Paste.svg date 2024/06/18 18:42:30 </title>
  <desc>Image generated by PCBNEW </desc>
<g style="fill:#000000; fill-opacity:1.0000;stroke:#000000; stroke-opacity:1.0000;
stroke-linecap:round; stroke-linejoin:round;"
 transform="translate(0 0) scale(1 1)">
<path style="fill:#000000; fill-opacity:1.0000; stroke:none;fill-rule:evenodd;"
d="M 17.6500,30.5500
17.6690,30.4543
17.7232,30.3732
17.8043,30.3190
17.9000,30.3000
18.5750,30.3000
18.6707,30.3190
18.7518,30.3732
18.8060,30.4543
18.8250,30.5500
18.8250,31.5000
18.8060,31.5957
18.7518,31.6768
18.6707,31.7310
18.5750,31.7500
17.9000,31.7500
17.8043,31.7310
17.7232,31.6768
17.6690,31.5957
17.6500,31.5000
Z" /> 
<path style="fill:#000000; fill-opacity:1.0000; stroke:none;fill-rule:evenodd;"
d="M 19.7250,30.5500
19.7440,30.4543
19.7982,30.3732
19.8793,30.3190
19.9750,30.3000
20.6500,30.3000
20.7457,30.3190
20.8268,30.3732
20.8810,30.4543
20.9000,30.5500
20.9000,31.5000
20.8810,31.5957
20.8268,31.6768
20.7457,31.7310
20.6500,31.7500
19.9750,31.7500
19.8793,31.7310
19.7982,31.6768
19.7440,31.5957
19.7250,31.5000
Z" /> 
<path style="fill:#000000; fill-opacity:1.0000; stroke:none;fill-rule:evenodd;"
d="M 32.0477,61.3200
32.1090,61.3322
32.1609,61.3669
32.1956,61.4188
32.2077,61.4800
32.2077,61.9250
32.1956,61.9862
32.1609,62.0381
32.1090,62.0728
32.0477,62.0850
31.7277,62.0850
31.6665,62.0728
31.6146,62.0381
31.5799,61.9862
31.5677,61.9250
31.5677,61.4800
31.5799,61.4188
31.6146,61.3669
31.6665,61.3322
31.7277,61.3200
Z" /> 
<path style="fill:#000000; fill-opacity:1.0000; stroke:none;fill-rule:evenodd;"
d="M 32.0477,62.4650
32.1090,62.4772
32.1609,62.5119
32.1956,62.5638
32.2077,62.6250
32.2077,63.0700
32.1956,63.1312
32.1609,63.1831
32.1090,63.2178
32.0477,63.2300
31.7277,63.2300
31.6665,63.2178
31.6146,63.1831
31.5799,63.1312
31.5677,63.0700
31.5677,62.6250
31.5799,62.5638
31.6146,62.5119
31.6665,62.4772
31.7277,62.4650
Z" /> 
<path style="fill:#000000; fill-opacity:1.0000; stroke:none;fill-rule:evenodd;"
d="M 26.2500,39.9250
26.2690,39.8293
26.3232,39.7482
26.4043,39.6940
26.5000,39.6750
27.1750,39.6750
27.2707,39.6940
27.3518,39.7482
27.4060,39.8293
27.4250,39.9250
27.4250,40.8750
27.4060,40.9707
27.3518,41.0518
27.2707,41.1060
27.1750,41.1250
26.5000,41.1250
26.4043,41.1060
26.3232,41.0518
26.2690,40.9707
26.2500,40.8750
Z" /> 
<path style="fill:#000000; fill-opacity:1.0000; stroke:none;fill-rule:evenodd;"
d="M 28.3250,39.9250
28.3440,39.8293
28.3982,39.7482
28.4793,39.6940
28.5750,39.6750
29.2500,39.6750
29.3457,39.6940
29.4268,39.7482
29.4810,39.8293
29.5000,39.9250
29.5000,40.8750
29.4810,40.9707
29.4268,41.0518
29.3457,41.1060
29.2500,41.1250
28.5750,41.1250
28.4793,41.1060
28.3982,41.0518
28.3440,40.9707
28.3250,40.8750
Z" /> 
<path style="fill:#000000; fill-opacity:1.0000; stroke:none;fill-rule:evenodd;"
d="M 17.2377,47.2744
17.2377,46.0744
18.6377,46.0744
18.6377,47.2744
Z" /> 
<path style="fill:#000000; fill-opacity:1.0000; stroke:none;fill-rule:evenodd;"
d="M 19.4377,47.2744
19.4377,46.0744
20.8377,46.0744
20.8377,47.2744
Z" /> 
<path style="fill:#000000; fill-opacity:1.0000; stroke:none;fill-rule:evenodd;"
d="M 19.4377,45.6744
19.4377,44.4744
20.8377,44.4744
20.8377,45.6744
Z" /> 
<path style="fill:#000000; fill-opacity:1.0000; stroke:none;fill-rule:evenodd;"
d="M 17.2377,45.6744
17.2377,44.4744
18.6377,44.4744
18.6377,45.6744
Z" /> 
<path style="fill:#000000; fill-opacity:1.0000; stroke:none;fill-rule:evenodd;"
d="M 11.8000,67.2494
11.7043,67.2303
11.6232,67.1761
11.5690,67.0950
11.5500,66.9994
11.5500,66.3244
11.5690,66.2287
11.6232,66.1476
11.7043,66.0934
11.8000,66.0744
12.7500,66.0744
12.8457,66.0934
12.9268,66.1476
12.9810,66.2287
13.0000,66.3244
13.0000,66.9994
12.9810,67.0950
12.9268,67.1761
12.8457,67.2303
12.7500,67.2494
Z" /> 
<path style="fill:#000000; fill-opacity:1.0000; stroke:none;fill-rule:evenodd;"
d="M 11.8000,65.1744
11.7043,65.1553
11.6232,65.1011
11.5690,65.0200
11.5500,64.9244
11.5500,64.2494
11.5690,64.1537
11.6232,64.0726
11.7043,64.0184
11.8000,63.9994
12.7500,63.9994
12.8457,64.0184
12.9268,64.0726
12.9810,64.1537
13.0000,64.2494
13.0000,64.9244
12.9810,65.0200
12.9268,65.1011
12.8457,65.1553
12.7500,65.1744
Z" /> 
<path style="fill:#000000; fill-opacity:1.0000; stroke:none;fill-rule:evenodd;"
d="M 32.9776,59.9074
32.8867,59.8894
32.8097,59.8379
32.7582,59.7608
32.7401,59.6699
32.7401,59.0699
32.7582,58.9791
32.8097,58.9020
32.8867,58.8505
32.9776,58.8324
33.4526,58.8324
33.5435,58.8505
33.6205,58.9020
33.6720,58.9791
33.6901,59.0699
33.6901,59.6699
33.6720,59.7608
33.6205,59.8379
33.5435,59.8894
33.4526,59.9074
Z" /> 
<path style="fill:#000000; fill-opacity:1.0000; stroke:none;fill-rule:evenodd;"
d="M 32.9776,58.1824
32.8867,58.1644
32.8097,58.1129
32.7582,58.0358
32.7401,57.9449
32.7401,57.3449
32.7582,57.2541
32.8097,57.1770
32.8867,57.1255
32.9776,57.1074
33.4526,57.1074
33.5435,57.1255
33.6205,57.1770
33.6720,57.2541
33.6901,57.3449
33.6901,57.9449
33.6720,58.0358
33.6205,58.1129
33.5435,58.1644
33.4526,58.1824
Z" /> 
<path style="fill:#000000; fill-opacity:1.0000; stroke:none;fill-rule:evenodd;"
d="M 17.6500,32.6000
17.6690,32.5043
17.7232,32.4232
17.8043,32.3690
17.9000,32.3500
18.5750,32.3500
18.6707,32.3690
18.7518,32.4232
18.8060,32.5043
18.8250,32.6000
18.8250,33.5500
18.8060,33.6457
18.7518,33.7268
18.6707,33.7810
18.5750,33.8000
17.9000,33.8000
17.8043,33.7810
17.7232,33.7268
17.6690,33.6457
17.6500,33.5500
Z" /> 
<path style="fill:#000000; fill-opacity:1.0000; stroke:none;fill-rule:evenodd;"
d="M 19.7250,32.6000
19.7440,32.5043
19.7982,32.4232
19.8793,32.3690
19.9750,32.3500
20.6500,32.3500
20.7457,32.3690
20.8268,32.4232
20.8810,32.5043
20.9000,32.6000
20.9000,33.5500
20.8810,33.6457
20.8268,33.7268
20.7457,33.7810
20.6500,33.8000
19.9750,33.8000
19.8793,33.7810
19.7982,33.7268
19.7440,33.6457
19.7250,33.5500
Z" /> 
<path style="fill:#000000; fill-opacity:1.0000; stroke:none;fill-rule:evenodd;"
d="M 31.0917,61.2000
31.0849,61.2344
31.0654,61.2636
31.0362,61.2831
31.0017,61.2900
30.7237,61.2900
30.6893,61.2831
30.6601,61.2636
30.6406,61.2344
30.6337,61.2000
30.6337,61.0200
30.6406,60.9856
30.6601,60.9564
30.6893,60.9369
30.7237,60.9300
31.0017,60.9300
31.0362,60.9369
31.0654,60.9564
31.0849,60.9856
31.0917,61.0200
Z" /> 
<path style="fill:#000000; fill-opacity:1.0000; stroke:none;fill-rule:evenodd;"
d="M 30.2267,61.2000
30.2199,61.2344
30.2004,61.2636
30.1712,61.2831
30.1367,61.2900
29.8587,61.2900
29.8243,61.2831
29.7951,61.2636
29.7756,61.2344
29.7687,61.2000
29.7687,61.0200
29.7756,60.9856
29.7951,60.9564
29.8243,60.9369
29.8587,60.9300
30.1367,60.9300
30.1712,60.9369
30.2004,60.9564
30.2199,60.9856
30.2267,61.0200
Z" /> 
<path style="fill:#000000; fill-opacity:1.0000; stroke:none;fill-rule:evenodd;"
d="M 11.1127,49.2494
11.0937,49.3450
11.0395,49.4261
10.9584,49.4803
10.8627,49.4994
10.1877,49.4994
10.0921,49.4803
10.0110,49.4261
9.9568,49.3450
9.9377,49.2494
9.9377,48.2994
9.9568,48.2037
10.0110,48.1226
10.0921,48.0684
10.1877,48.0494
10.8627,48.0494
10.9584,48.0684
11.0395,48.1226
11.0937,48.2037
11.1127,48.2994
Z" /> 
<path style="fill:#000000; fill-opacity:1.0000; stroke:none;fill-rule:evenodd;"
d="M 9.0377,49.2494
9.0187,49.3450
8.9645,49.4261
8.8834,49.4803
8.7877,49.4994
8.1127,49.4994
8.0171,49.4803
7.9360,49.4261
7.8818,49.3450
7.8627,49.2494
7.8627,48.2994
7.8818,48.2037
7.9360,48.1226
8.0171,48.0684
8.1127,48.0494
8.7877,48.0494
8.8834,48.0684
8.9645,48.1226
9.0187,48.2037
9.0377,48.2994
Z" /> 
<path style="fill:#000000; fill-opacity:1.0000; stroke:none;fill-rule:evenodd;"
d="M 32.0477,65.9800
32.1090,65.9922
32.1609,66.0269
32.1956,66.0788
32.2077,66.1400
32.2077,66.5850
32.1956,66.6462
32.1609,66.6981
32.1090,66.7328
32.0477,66.7450
31.7277,66.7450
31.6665,66.7328
31.6146,66.6981
31.5799,66.6462
31.5677,66.5850
31.5677,66.1400
31.5799,66.0788
31.6146,66.0269
31.6665,65.9922
31.7277,65.9800
Z" /> 
<path style="fill:#000000; fill-opacity:1.0000; stroke:none;fill-rule:evenodd;"
d="M 32.0477,67.1250
32.1090,67.1372
32.1609,67.1719
32.1956,67.2238
32.2077,67.2850
32.2077,67.7300
32.1956,67.7912
32.1609,67.8431
32.1090,67.8778
32.0477,67.8900
31.7277,67.8900
31.6665,67.8778
31.6146,67.8431
31.5799,67.7912
31.5677,67.7300
31.5677,67.2850
31.5799,67.2238
31.6146,67.1719
31.6665,67.1372
31.7277,67.1250
Z" /> 
<path style="fill:#000000; fill-opacity:1.0000; stroke:none;fill-rule:evenodd;"
d="M 30.6827,20.4150
30.6949,20.3538
30.7296,20.3019
30.7815,20.2672
30.8427,20.2550
31.2877,20.2550
31.3490,20.2672
31.4009,20.3019
31.4356,20.3538
31.4477,20.4150
31.4477,20.7350
31.4356,20.7962
31.4009,20.8481
31.3490,20.8828
31.2877,20.8950
30.8427,20.8950
30.7815,20.8828
30.7296,20.8481
30.6949,20.7962
30.6827,20.7350
Z" /> 
<path style="fill:#000000; fill-opacity:1.0000; stroke:none;fill-rule:evenodd;"
d="M 31.8277,20.4150
31.8399,20.3538
31.8746,20.3019
31.9265,20.2672
31.9877,20.2550
32.4327,20.2550
32.4940,20.2672
32.5459,20.3019
32.5806,20.3538
32.5927,20.4150
32.5927,20.7350
32.5806,20.7962
32.5459,20.8481
32.4940,20.8828
32.4327,20.8950
31.9877,20.8950
31.9265,20.8828
31.8746,20.8481
31.8399,20.7962
31.8277,20.7350
Z" /> 
<path style="fill:#000000; fill-opacity:1.0000; stroke:none;fill-rule:evenodd;"
d="M 17.7750,25.4000
17.6793,25.3810
17.5982,25.3268
17.5440,25.2457
17.5250,25.1500
17.5250,24.4500
17.5440,24.3543
17.5982,24.2732
17.6793,24.2190
17.7750,24.2000
18.6750,24.2000
18.7707,24.2190
18.8518,24.2732
18.9060,24.3543
18.9250,24.4500
18.9250,25.1500
18.9060,25.2457
18.8518,25.3268
18.7707,25.3810
18.6750,25.4000
Z" /> 
<path style="fill:#000000; fill-opacity:1.0000; stroke:none;fill-rule:evenodd;"
d="M 17.7750,23.4000
17.6793,23.3810
17.5982,23.3268
17.5440,23.2457
17.5250,23.1500
17.5250,22.4500
17.5440,22.3543
17.5982,22.2732
17.6793,22.2190
17.7750,22.2000
18.6750,22.2000
18.7707,22.2190
18.8518,22.2732
18.9060,22.3543
18.9250,22.4500
18.9250,23.1500
18.9060,23.2457
18.8518,23.3268
18.7707,23.3810
18.6750,23.4000
Z" /> 
<path style="fill:#000000; fill-opacity:1.0000; stroke:none;fill-rule:evenodd;"
d="M 28.0375,53.5000
28.0185,53.5957
27.9643,53.6768
27.8832,53.7310
27.7875,53.7500
27.1125,53.7500
27.0168,53.7310
26.9357,53.6768
26.8815,53.5957
26.8625,53.5000
26.8625,52.5500
26.8815,52.4543
26.9357,52.3732
27.0168,52.3190
27.1125,52.3000
27.7875,52.3000
27.8832,52.3190
27.9643,52.3732
28.0185,52.4543
28.0375,52.5500
Z" /> 
<path style="fill:#000000; fill-opacity:1.0000; stroke:none;fill-rule:evenodd;"
d="M 25.9625,53.5000
25.9435,53.5957
25.8893,53.6768
25.8082,53.7310
25.7125,53.7500
25.0375,53.7500
24.9418,53.7310
24.8607,53.6768
24.8065,53.5957
24.7875,53.5000
24.7875,52.5500
24.8065,52.4543
24.8607,52.3732
24.9418,52.3190
25.0375,52.3000
25.7125,52.3000
25.8082,52.3190
25.8893,52.3732
25.9435,52.4543
25.9625,52.5500
Z" /> 
<path style="fill:#000000; fill-opacity:1.0000; stroke:none;fill-rule:evenodd;"
d="M 11.1127,47.1744
11.0937,47.2700
11.0395,47.3511
10.9584,47.4053
10.8627,47.4244
10.1877,47.4244
10.0921,47.4053
10.0110,47.3511
9.9568,47.2700
9.9377,47.1744
9.9377,46.2244
9.9568,46.1287
10.0110,46.0476
10.0921,45.9934
10.1877,45.9744
10.8627,45.9744
10.9584,45.9934
11.0395,46.0476
11.0937,46.1287
11.1127,46.2244
Z" /> 
<path style="fill:#000000; fill-opacity:1.0000; stroke:none;fill-rule:evenodd;"
d="M 9.0377,47.1744
9.0187,47.2700
8.9645,47.3511
8.8834,47.4053
8.7877,47.4244
8.1127,47.4244
8.0171,47.4053
7.9360,47.3511
7.8818,47.2700
7.8627,47.1744
7.8627,46.2244
7.8818,46.1287
7.9360,46.0476
8.0171,45.9934
8.1127,45.9744
8.7877,45.9744
8.8834,45.9934
8.9645,46.0476
9.0187,46.1287
9.0377,46.2244
Z" /> 
<path style="fill:#000000; fill-opacity:1.0000; stroke:none;fill-rule:evenodd;"
d="M 15.8250,56.2250
15.7293,56.2060
15.6482,56.1518
15.5940,56.0707
15.5750,55.9750
15.5750,55.3000
15.5940,55.2043
15.6482,55.1232
15.7293,55.0690
15.8250,55.0500
16.7750,55.0500
16.8707,55.0690
16.9518,55.1232
17.0060,55.2043
17.0250,55.3000
17.0250,55.9750
17.0060,56.0707
16.9518,56.1518
16.8707,56.2060
16.7750,56.2250
Z" /> 
<path style="fill:#000000; fill-opacity:1.0000; stroke:none;fill-rule:evenodd;"
d="M 15.8250,54.1500
15.7293,54.1310
15.6482,54.0768
15.5940,53.9957
15.5750,53.9000
15.5750,53.2250
15.5940,53.1293
15.6482,53.0482
15.7293,52.9940
15.8250,52.9750
16.7750,52.9750
16.8707,52.9940
16.9518,53.0482
17.0060,53.1293
17.0250,53.2250
17.0250,53.9000
17.0060,53.9957
16.9518,54.0768
16.8707,54.1310
16.7750,54.1500
Z" /> 
<path style="fill:#000000; fill-opacity:1.0000; stroke:none;fill-rule:evenodd;"
d="M 28.8400,58.5250
28.8210,58.6207
28.7668,58.7018
28.6857,58.7560
28.5900,58.7750
28.0100,58.7750
27.9143,58.7560
27.8332,58.7018
27.7790,58.6207
27.7600,58.5250
27.7600,57.9450
27.7790,57.8493
27.8332,57.7682
27.9143,57.7140
28.0100,57.6950
28.5900,57.6950
28.6857,57.7140
28.7668,57.7682
28.8210,57.8493
28.8400,57.9450
Z" /> 
<path style="fill:#000000; fill-opacity:1.0000; stroke:none;fill-rule:evenodd;"
d="M 28.8400,57.2750
28.8210,57.3707
28.7668,57.4518
28.6857,57.5060
28.5900,57.5250
28.0100,57.5250
27.9143,57.5060
27.8332,57.4518
27.7790,57.3707
27.7600,57.2750
27.7600,56.6950
27.7790,56.5993
27.8332,56.5182
27.9143,56.4640
28.0100,56.4450
28.5900,56.4450
28.6857,56.4640
28.7668,56.5182
28.8210,56.5993
28.8400,56.6950
Z" /> 
<path style="fill:#000000; fill-opacity:1.0000; stroke:none;fill-rule:evenodd;"
d="M 27.5900,58.5250
27.5710,58.6207
27.5168,58.7018
27.4357,58.7560
27.3400,58.7750
26.7600,58.7750
26.6643,58.7560
26.5832,58.7018
26.5290,58.6207
26.5100,58.5250
26.5100,57.9450
26.5290,57.8493
26.5832,57.7682
26.6643,57.7140
26.7600,57.6950
27.3400,57.6950
27.4357,57.7140
27.5168,57.7682
27.5710,57.8493
27.5900,57.9450
Z" /> 
<path style="fill:#000000; fill-opacity:1.0000; stroke:none;fill-rule:evenodd;"
d="M 27.5900,57.2750
27.5710,57.3707
27.5168,57.4518
27.4357,57.5060
27.3400,57.5250
26.7600,57.5250
26.6643,57.5060
26.5832,57.4518
26.5290,57.3707
26.5100,57.2750
26.5100,56.6950
26.5290,56.5993
26.5832,56.5182
26.6643,56.4640
26.7600,56.4450
27.3400,56.4450
27.4357,56.4640
27.5168,56.5182
27.5710,56.5993
27.5900,56.6950
Z" /> 
<path style="fill:#000000; fill-opacity:1.0000; stroke:none;fill-rule:evenodd;"
d="M 30.0250,58.6725
30.0202,58.6964
30.0067,58.7167
29.9864,58.7302
29.9625,58.7350
29.2625,58.7350
29.2386,58.7302
29.2183,58.7167
29.2048,58.6964
29.2000,58.6725
29.2000,58.5475
29.2048,58.5236
29.2183,58.5033
29.2386,58.4898
29.2625,58.4850
29.9625,58.4850
29.9864,58.4898
30.0067,58.5033
30.0202,58.5236
30.0250,58.5475
Z" /> 
<path style="fill:#000000; fill-opacity:1.0000; stroke:none;fill-rule:evenodd;"
d="M 30.0250,58.1725
30.0202,58.1964
30.0067,58.2167
29.9864,58.2302
29.9625,58.2350
29.2625,58.2350
29.2386,58.2302
29.2183,58.2167
29.2048,58.1964
29.2000,58.1725
29.2000,58.0475
29.2048,58.0236
29.2183,58.0033
29.2386,57.9898
29.2625,57.9850
29.9625,57.9850
29.9864,57.9898
30.0067,58.0033
30.0202,58.0236
30.0250,58.0475
Z" /> 
<path style="fill:#000000; fill-opacity:1.0000; stroke:none;fill-rule:evenodd;"
d="M 30.0250,57.6725
30.0202,57.6964
30.0067,57.7167
29.9864,57.7302
29.9625,57.7350
29.2625,57.7350
29.2386,57.7302
29.2183,57.7167
29.2048,57.6964
29.2000,57.6725
29.2000,57.5475
29.2048,57.5236
29.2183,57.5033
29.2386,57.4898
29.2625,57.4850
29.9625,57.4850
29.9864,57.4898
30.0067,57.5033
30.0202,57.5236
30.0250,57.5475
Z" /> 
<path style="fill:#000000; fill-opacity:1.0000; stroke:none;fill-rule:evenodd;"
d="M 30.0250,57.1725
30.0202,57.1964
30.0067,57.2167
29.9864,57.2302
29.9625,57.2350
29.2625,57.2350
29.2386,57.2302
29.2183,57.2167
29.2048,57.1964
29.2000,57.1725
29.2000,57.0475
29.2048,57.0236
29.2183,57.0033
29.2386,56.9898
29.2625,56.9850
29.9625,56.9850
29.9864,56.9898
30.0067,57.0033
30.0202,57.0236
30.0250,57.0475
Z" /> 
<path style="fill:#000000; fill-opacity:1.0000; stroke:none;fill-rule:evenodd;"
d="M 30.0250,56.6725
30.0202,56.6964
30.0067,56.7167
29.9864,56.7302
29.9625,56.7350
29.2625,56.7350
29.2386,56.7302
29.2183,56.7167
29.2048,56.6964
29.2000,56.6725
29.2000,56.5475
29.2048,56.5236
29.2183,56.5033
29.2386,56.4898
29.2625,56.4850
29.9625,56.4850
29.9864,56.4898
30.0067,56.5033
30.0202,56.5236
30.0250,56.5475
Z" /> 
<path style="fill:#000000; fill-opacity:1.0000; stroke:none;fill-rule:evenodd;"
d="M 28.8000,56.0225
28.7952,56.0464
28.7817,56.0667
28.7614,56.0802
28.7375,56.0850
28.6125,56.0850
28.5886,56.0802
28.5683,56.0667
28.5548,56.0464
28.5500,56.0225
28.5500,55.3225
28.5548,55.2986
28.5683,55.2783
28.5886,55.2648
28.6125,55.2600
28.7375,55.2600
28.7614,55.2648
28.7817,55.2783
28.7952,55.2986
28.8000,55.3225
Z" /> 
<path style="fill:#000000; fill-opacity:1.0000; stroke:none;fill-rule:evenodd;"
d="M 28.3000,56.0225
28.2952,56.0464
28.2817,56.0667
28.2614,56.0802
28.2375,56.0850
28.1125,56.0850
28.0886,56.0802
28.0683,56.0667
28.0548,56.0464
28.0500,56.0225
28.0500,55.3225
28.0548,55.2986
28.0683,55.2783
28.0886,55.2648
28.1125,55.2600
28.2375,55.2600
28.2614,55.2648
28.2817,55.2783
28.2952,55.2986
28.3000,55.3225
Z" /> 
<path style="fill:#000000; fill-opacity:1.0000; stroke:none;fill-rule:evenodd;"
d="M 27.8000,56.0225
27.7952,56.0464
27.7817,56.0667
27.7614,56.0802
27.7375,56.0850
27.6125,56.0850
27.5886,56.0802
27.5683,56.0667
27.5548,56.0464
27.5500,56.0225
27.5500,55.3225
27.5548,55.2986
27.5683,55.2783
27.5886,55.2648
27.6125,55.2600
27.7375,55.2600
27.7614,55.2648
27.7817,55.2783
27.7952,55.2986
27.8000,55.3225
Z" /> 
<path style="fill:#000000; fill-opacity:1.0000; stroke:none;fill-rule:evenodd;"
d="M 27.3000,56.0225
27.2952,56.0464
27.2817,56.0667
27.2614,56.0802
27.2375,56.0850
27.1125,56.0850
27.0886,56.0802
27.0683,56.0667
27.0548,56.0464
27.0500,56.0225
27.0500,55.3225
27.0548,55.2986
27.0683,55.2783
27.0886,55.2648
27.1125,55.2600
27.2375,55.2600
27.2614,55.2648
27.2817,55.2783
27.2952,55.2986
27.3000,55.3225
Z" /> 
<path style="fill:#000000; fill-opacity:1.0000; stroke:none;fill-rule:evenodd;"
d="M 26.8000,56.0225
26.7952,56.0464
26.7817,56.0667
26.7614,56.0802
26.7375,56.0850
26.6125,56.0850
26.5886,56.0802
26.5683,56.0667
26.5548,56.0464
26.5500,56.0225
26.5500,55.3225
26.5548,55.2986
26.5683,55.2783
26.5886,55.2648
26.6125,55.2600
26.7375,55.2600
26.7614,55.2648
26.7817,55.2783
26.7952,55.2986
26.8000,55.3225
Z" /> 
<path style="fill:#000000; fill-opacity:1.0000; stroke:none;fill-rule:evenodd;"
d="M 26.1500,56.6725
26.1452,56.6964
26.1317,56.7167
26.1114,56.7302
26.0875,56.7350
25.3875,56.7350
25.3636,56.7302
25.3433,56.7167
25.3298,56.6964
25.3250,56.6725
25.3250,56.5475
25.3298,56.5236
25.3433,56.5033
25.3636,56.4898
25.3875,56.4850
26.0875,56.4850
26.1114,56.4898
26.1317,56.5033
26.1452,56.5236
26.1500,56.5475
Z" /> 
<path style="fill:#000000; fill-opacity:1.0000; stroke:none;fill-rule:evenodd;"
d="M 26.1500,57.1725
26.1452,57.1964
26.1317,57.2167
26.1114,57.2302
26.0875,57.2350
25.3875,57.2350
25.3636,57.2302
25.3433,57.2167
25.3298,57.1964
25.3250,57.1725
25.3250,57.0475
25.3298,57.0236
25.3433,57.0033
25.3636,56.9898
25.3875,56.9850
26.0875,56.9850
26.1114,56.9898
26.1317,57.0033
26.1452,57.0236
26.1500,57.0475
Z" /> 
<path style="fill:#000000; fill-opacity:1.0000; stroke:none;fill-rule:evenodd;"
d="M 26.1500,57.6725
26.1452,57.6964
26.1317,57.7167
26.1114,57.7302
26.0875,57.7350
25.3875,57.7350
25.3636,57.7302
25.3433,57.7167
25.3298,57.6964
25.3250,57.6725
25.3250,57.5475
25.3298,57.5236
25.3433,57.5033
25.3636,57.4898
25.3875,57.4850
26.0875,57.4850
26.1114,57.4898
26.1317,57.5033
26.1452,57.5236
26.1500,57.5475
Z" /> 
<path style="fill:#000000; fill-opacity:1.0000; stroke:none;fill-rule:evenodd;"
d="M 26.1500,58.1725
26.1452,58.1964
26.1317,58.2167
26.1114,58.2302
26.0875,58.2350
25.3875,58.2350
25.3636,58.2302
25.3433,58.2167
25.3298,58.1964
25.3250,58.1725
25.3250,58.0475
25.3298,58.0236
25.3433,58.0033
25.3636,57.9898
25.3875,57.9850
26.0875,57.9850
26.1114,57.9898
26.1317,58.0033
26.1452,58.0236
26.1500,58.0475
Z" /> 
<path style="fill:#000000; fill-opacity:1.0000; stroke:none;fill-rule:evenodd;"
d="M 26.1500,58.6725
26.1452,58.6964
26.1317,58.7167
26.1114,58.7302
26.0875,58.7350
25.3875,58.7350
25.3636,58.7302
25.3433,58.7167
25.3298,58.6964
25.3250,58.6725
25.3250,58.5475
25.3298,58.5236
25.3433,58.5033
25.3636,58.4898
25.3875,58.4850
26.0875,58.4850
26.1114,58.4898
26.1317,58.5033
26.1452,58.5236
26.1500,58.5475
Z" /> 
<path style="fill:#000000; fill-opacity:1.0000; stroke:none;fill-rule:evenodd;"
d="M 26.8000,59.8975
26.7952,59.9214
26.7817,59.9417
26.7614,59.9552
26.7375,59.9600
26.6125,59.9600
26.5886,59.9552
26.5683,59.9417
26.5548,59.9214
26.5500,59.8975
26.5500,59.1975
26.5548,59.1736
26.5683,59.1533
26.5886,59.1398
26.6125,59.1350
26.7375,59.1350
26.7614,59.1398
26.7817,59.1533
26.7952,59.1736
26.8000,59.1975
Z" /> 
<path style="fill:#000000; fill-opacity:1.0000; stroke:none;fill-rule:evenodd;"
d="M 27.3000,59.8975
27.2952,59.9214
27.2817,59.9417
27.2614,59.9552
27.2375,59.9600
27.1125,59.9600
27.0886,59.9552
27.0683,59.9417
27.0548,59.9214
27.0500,59.8975
27.0500,59.1975
27.0548,59.1736
27.0683,59.1533
27.0886,59.1398
27.1125,59.1350
27.2375,59.1350
27.2614,59.1398
27.2817,59.1533
27.2952,59.1736
27.3000,59.1975
Z" /> 
<path style="fill:#000000; fill-opacity:1.0000; stroke:none;fill-rule:evenodd;"
d="M 27.8000,59.8975
27.7952,59.9214
27.7817,59.9417
27.7614,59.9552
27.7375,59.9600
27.6125,59.9600
27.5886,59.9552
27.5683,59.9417
27.5548,59.9214
27.5500,59.8975
27.5500,59.1975
27.5548,59.1736
27.5683,59.1533
27.5886,59.1398
27.6125,59.1350
27.7375,59.1350
27.7614,59.1398
27.7817,59.1533
27.7952,59.1736
27.8000,59.1975
Z" /> 
<path style="fill:#000000; fill-opacity:1.0000; stroke:none;fill-rule:evenodd;"
d="M 28.3000,59.8975
28.2952,59.9214
28.2817,59.9417
28.2614,59.9552
28.2375,59.9600
28.1125,59.9600
28.0886,59.9552
28.0683,59.9417
28.0548,59.9214
28.0500,59.8975
28.0500,59.1975
28.0548,59.1736
28.0683,59.1533
28.0886,59.1398
28.1125,59.1350
28.2375,59.1350
28.2614,59.1398
28.2817,59.1533
28.2952,59.1736
28.3000,59.1975
Z" /> 
<path style="fill:#000000; fill-opacity:1.0000; stroke:none;fill-rule:evenodd;"
d="M 28.8000,59.8975
28.7952,59.9214
28.7817,59.9417
28.7614,59.9552
28.7375,59.9600
28.6125,59.9600
28.5886,59.9552
28.5683,59.9417
28.5548,59.9214
28.5500,59.8975
28.5500,59.1975
28.5548,59.1736
28.5683,59.1533
28.5886,59.1398
28.6125,59.1350
28.7375,59.1350
28.7614,59.1398
28.7817,59.1533
28.7952,59.1736
28.8000,59.1975
Z" /> 
<path style="fill:#000000; fill-opacity:1.0000; stroke:none;fill-rule:evenodd;"
d="M 8.4500,29.7000
8.4500,28.8000
10.7500,28.8000
10.7500,29.7000
Z" /> 
<path style="fill:#000000; fill-opacity:1.0000; stroke:none;fill-rule:evenodd;"
d="M 8.4500,32.7000
8.4500,31.8000
10.7500,31.8000
10.7500,32.7000
Z" /> 
<path style="fill:#000000; fill-opacity:1.0000; stroke:none;fill-rule:evenodd;"
d="M 15.0500,31.6165
10.9250,31.6165
10.9250,31.2000
8.4500,31.2000
8.4500,30.3000
10.9250,30.3000
10.9250,29.8835
15.0500,29.8835
Z" /> 
<path style="fill:#000000; fill-opacity:1.0000; stroke:none;fill-rule:evenodd;"
d="M 19.1500,26.0750
19.2457,26.0940
19.3268,26.1482
19.3810,26.2293
19.4000,26.3250
19.4000,27.0000
19.3810,27.0957
19.3268,27.1768
19.2457,27.2310
19.1500,27.2500
18.2000,27.2500
18.1043,27.2310
18.0232,27.1768
17.9690,27.0957
17.9500,27.0000
17.9500,26.3250
17.9690,26.2293
18.0232,26.1482
18.1043,26.0940
18.2000,26.0750
Z" /> 
<path style="fill:#000000; fill-opacity:1.0000; stroke:none;fill-rule:evenodd;"
d="M 19.1500,28.1500
19.2457,28.1690
19.3268,28.2232
19.3810,28.3043
19.4000,28.4000
19.4000,29.0750
19.3810,29.1707
19.3268,29.2518
19.2457,29.3060
19.1500,29.3250
18.2000,29.3250
18.1043,29.3060
18.0232,29.2518
17.9690,29.1707
17.9500,29.0750
17.9500,28.4000
17.9690,28.3043
18.0232,28.2232
18.1043,28.1690
18.2000,28.1500
Z" /> 
<path style="fill:#000000; fill-opacity:1.0000; stroke:none;fill-rule:evenodd;"
d="M 13.1300,35.1950
14.2800,35.1950
14.2800,35.7950
13.1300,35.7950
Z" /> 
<path style="fill:#000000; fill-opacity:1.0000; stroke:none;fill-rule:evenodd;"
d="M 13.1300,35.9950
14.2800,35.9950
14.2800,36.5950
13.1300,36.5950
Z" /> 
<path style="fill:#000000; fill-opacity:1.0000; stroke:none;fill-rule:evenodd;"
d="M 13.1300,37.2950
14.2800,37.2950
14.2800,37.5950
13.1300,37.5950
Z" /> 
<path style="fill:#000000; fill-opacity:1.0000; stroke:none;fill-rule:evenodd;"
d="M 13.1300,38.2950
14.2800,38.2950
14.2800,38.5950
13.1300,38.5950
Z" /> 
<path style="fill:#000000; fill-opacity:1.0000; stroke:none;fill-rule:evenodd;"
d="M 13.1300,38.7950
14.2800,38.7950
14.2800,39.0950
13.1300,39.0950
Z" /> 
<path style="fill:#000000; fill-opacity:1.0000; stroke:none;fill-rule:evenodd;"
d="M 13.1300,39.7950
14.2800,39.7950
14.2800,40.0950
13.1300,40.0950
Z" /> 
<path style="fill:#000000; fill-opacity:1.0000; stroke:none;fill-rule:evenodd;"
d="M 13.1300,40.7950
14.2800,40.7950
14.2800,41.3950
13.1300,41.3950
Z" /> 
<path style="fill:#000000; fill-opacity:1.0000; stroke:none;fill-rule:evenodd;"
d="M 13.1300,41.5950
14.2800,41.5950
14.2800,42.1950
13.1300,42.1950
Z" /> 
<path style="fill:#000000; fill-opacity:1.0000; stroke:none;fill-rule:evenodd;"
d="M 13.1300,41.5950
14.2800,41.5950
14.2800,42.1950
13.1300,42.1950
Z" /> 
<path style="fill:#000000; fill-opacity:1.0000; stroke:none;fill-rule:evenodd;"
d="M 13.1300,40.7950
14.2800,40.7950
14.2800,41.3950
13.1300,41.3950
Z" /> 
<path style="fill:#000000; fill-opacity:1.0000; stroke:none;fill-rule:evenodd;"
d="M 13.1300,40.2950
14.2800,40.2950
14.2800,40.5950
13.1300,40.5950
Z" /> 
<path style="fill:#000000; fill-opacity:1.0000; stroke:none;fill-rule:evenodd;"
d="M 13.1300,39.2950
14.2800,39.2950
14.2800,39.5950
13.1300,39.5950
Z" /> 
<path style="fill:#000000; fill-opacity:1.0000; stroke:none;fill-rule:evenodd;"
d="M 13.1300,37.7950
14.2800,37.7950
14.2800,38.0950
13.1300,38.0950
Z" /> 
<path style="fill:#000000; fill-opacity:1.0000; stroke:none;fill-rule:evenodd;"
d="M 13.1300,36.7950
14.2800,36.7950
14.2800,37.0950
13.1300,37.0950
Z" /> 
<path style="fill:#000000; fill-opacity:1.0000; stroke:none;fill-rule:evenodd;"
d="M 13.1300,35.9950
14.2800,35.9950
14.2800,36.5950
13.1300,36.5950
Z" /> 
<path style="fill:#000000; fill-opacity:1.0000; stroke:none;fill-rule:evenodd;"
d="M 13.1300,35.1950
14.2800,35.1950
14.2800,35.7950
13.1300,35.7950
Z" /> 
<path style="fill:#000000; fill-opacity:1.0000; stroke:none;fill-rule:evenodd;"
d="M 24.0627,33.7744
23.9958,33.7610
23.9390,33.7231
23.9011,33.6663
23.8877,33.5994
23.8877,32.1494
23.9011,32.0824
23.9390,32.0256
23.9958,31.9877
24.0627,31.9744
24.4127,31.9744
24.4797,31.9877
24.5365,32.0256
24.5744,32.0824
24.5877,32.1494
24.5877,33.5994
24.5744,33.6663
24.5365,33.7231
24.4797,33.7610
24.4127,33.7744
Z" /> 
<path style="fill:#000000; fill-opacity:1.0000; stroke:none;fill-rule:evenodd;"
d="M 25.1377,33.7744
25.0612,33.7591
24.9963,33.7158
24.9530,33.6509
24.9377,33.5744
24.9377,32.1744
24.9530,32.0978
24.9963,32.0329
25.0612,31.9896
25.1377,31.9744
25.5377,31.9744
25.6143,31.9896
25.6792,32.0329
25.7225,32.0978
25.7377,32.1744
25.7377,33.5744
25.7225,33.6509
25.6792,33.7158
25.6143,33.7591
25.5377,33.7744
Z" /> 
<path style="fill:#000000; fill-opacity:1.0000; stroke:none;fill-rule:evenodd;"
d="M 26.2377,33.7744
26.1612,33.7591
26.0963,33.7158
26.0530,33.6509
26.0377,33.5744
26.0377,32.1744
26.0530,32.0978
26.0963,32.0329
26.1612,31.9896
26.2377,31.9744
26.6377,31.9744
26.7143,31.9896
26.7792,32.0329
26.8225,32.0978
26.8377,32.1744
26.8377,33.5744
26.8225,33.6509
26.7792,33.7158
26.7143,33.7591
26.6377,33.7744
Z" /> 
<path style="fill:#000000; fill-opacity:1.0000; stroke:none;fill-rule:evenodd;"
d="M 27.3377,33.7744
27.2612,33.7591
27.1963,33.7158
27.1530,33.6509
27.1377,33.5744
27.1377,32.1744
27.1530,32.0978
27.1963,32.0329
27.2612,31.9896
27.3377,31.9744
27.7377,31.9744
27.8143,31.9896
27.8792,32.0329
27.9225,32.0978
27.9377,32.1744
27.9377,33.5744
27.9225,33.6509
27.8792,33.7158
27.8143,33.7591
27.7377,33.7744
Z" /> 
<path style="fill:#000000; fill-opacity:1.0000; stroke:none;fill-rule:evenodd;"
d="M 28.4377,33.7744
28.3612,33.7591
28.2963,33.7158
28.2530,33.6509
28.2377,33.5744
28.2377,32.1744
28.2530,32.0978
28.2963,32.0329
28.3612,31.9896
28.4377,31.9744
28.8377,31.9744
28.9143,31.9896
28.9792,32.0329
29.0225,32.0978
29.0377,32.1744
29.0377,33.5744
29.0225,33.6509
28.9792,33.7158
28.9143,33.7591
28.8377,33.7744
Z" /> 
<path style="fill:#000000; fill-opacity:1.0000; stroke:none;fill-rule:evenodd;"
d="M 29.5377,33.7744
29.4612,33.7591
29.3963,33.7158
29.3530,33.6509
29.3377,33.5744
29.3377,32.1744
29.3530,32.0978
29.3963,32.0329
29.4612,31.9896
29.5377,31.9744
29.9377,31.9744
30.0143,31.9896
30.0792,32.0329
30.1225,32.0978
30.1377,32.1744
30.1377,33.5744
30.1225,33.6509
30.0792,33.7158
30.0143,33.7591
29.9377,33.7744
Z" /> 
<path style="fill:#000000; fill-opacity:1.0000; stroke:none;fill-rule:evenodd;"
d="M 30.6377,33.7744
30.5612,33.7591
30.4963,33.7158
30.4530,33.6509
30.4377,33.5744
30.4377,32.1744
30.4530,32.0978
30.4963,32.0329
30.5612,31.9896
30.6377,31.9744
31.0377,31.9744
31.1143,31.9896
31.1792,32.0329
31.2225,32.0978
31.2377,32.1744
31.2377,33.5744
31.2225,33.6509
31.1792,33.7158
31.1143,33.7591
31.0377,33.7744
Z" /> 
<path style="fill:#000000; fill-opacity:1.0000; stroke:none;fill-rule:evenodd;"
d="M 31.7377,33.7744
31.6612,33.7591
31.5963,33.7158
31.5530,33.6509
31.5377,33.5744
31.5377,32.1744
31.5530,32.0978
31.5963,32.0329
31.6612,31.9896
31.7377,31.9744
32.1377,31.9744
32.2143,31.9896
32.2792,32.0329
32.3225,32.0978
32.3377,32.1744
32.3377,33.5744
32.3225,33.6509
32.2792,33.7158
32.2143,33.7591
32.1377,33.7744
Z" /> 
<path style="fill:#000000; fill-opacity:1.0000; stroke:none;fill-rule:evenodd;"
d="M 32.8627,33.7744
32.7958,33.7610
32.7390,33.7231
32.7011,33.6663
32.6877,33.5994
32.6877,32.1494
32.7011,32.0824
32.7390,32.0256
32.7958,31.9877
32.8627,31.9744
33.2127,31.9744
33.2797,31.9877
33.3365,32.0256
33.3744,32.0824
33.3877,32.1494
33.3877,33.5994
33.3744,33.6663
33.3365,33.7231
33.2797,33.7610
33.2127,33.7744
Z" /> 
<path style="fill:#000000; fill-opacity:1.0000; stroke:none;fill-rule:evenodd;"
d="M 32.8627,24.2744
32.7958,24.2610
32.7390,24.2231
32.7011,24.1663
32.6877,24.0994
32.6877,22.6494
32.7011,22.5824
32.7390,22.5256
32.7958,22.4877
32.8627,22.4744
33.2127,22.4744
33.2797,22.4877
33.3365,22.5256
33.3744,22.5824
33.3877,22.6494
33.3877,24.0994
33.3744,24.1663
33.3365,24.2231
33.2797,24.2610
33.2127,24.2744
Z" /> 
<path style="fill:#000000; fill-opacity:1.0000; stroke:none;fill-rule:evenodd;"
d="M 31.7377,24.2744
31.6612,24.2591
31.5963,24.2158
31.5530,24.1509
31.5377,24.0744
31.5377,22.6744
31.5530,22.5978
31.5963,22.5329
31.6612,22.4896
31.7377,22.4744
32.1377,22.4744
32.2143,22.4896
32.2792,22.5329
32.3225,22.5978
32.3377,22.6744
32.3377,24.0744
32.3225,24.1509
32.2792,24.2158
32.2143,24.2591
32.1377,24.2744
Z" /> 
<path style="fill:#000000; fill-opacity:1.0000; stroke:none;fill-rule:evenodd;"
d="M 30.6377,24.2744
30.5612,24.2591
30.4963,24.2158
30.4530,24.1509
30.4377,24.0744
30.4377,22.6744
30.4530,22.5978
30.4963,22.5329
30.5612,22.4896
30.6377,22.4744
31.0377,22.4744
31.1143,22.4896
31.1792,22.5329
31.2225,22.5978
31.2377,22.6744
31.2377,24.0744
31.2225,24.1509
31.1792,24.2158
31.1143,24.2591
31.0377,24.2744
Z" /> 
<path style="fill:#000000; fill-opacity:1.0000; stroke:none;fill-rule:evenodd;"
d="M 29.5377,24.2744
29.4612,24.2591
29.3963,24.2158
29.3530,24.1509
29.3377,24.0744
29.3377,22.6744
29.3530,22.5978
29.3963,22.5329
29.4612,22.4896
29.5377,22.4744
29.9377,22.4744
30.0143,22.4896
30.0792,22.5329
30.1225,22.5978
30.1377,22.6744
30.1377,24.0744
30.1225,24.1509
30.0792,24.2158
30.0143,24.2591
29.9377,24.2744
Z" /> 
<path style="fill:#000000; fill-opacity:1.0000; stroke:none;fill-rule:evenodd;"
d="M 28.4377,24.2744
28.3612,24.2591
28.2963,24.2158
28.2530,24.1509
28.2377,24.0744
28.2377,22.6744
28.2530,22.5978
28.2963,22.5329
28.3612,22.4896
28.4377,22.4744
28.8377,22.4744
28.9143,22.4896
28.9792,22.5329
29.0225,22.5978
29.0377,22.6744
29.0377,24.0744
29.0225,24.1509
28.9792,24.2158
28.9143,24.2591
28.8377,24.2744
Z" /> 
<path style="fill:#000000; fill-opacity:1.0000; stroke:none;fill-rule:evenodd;"
d="M 27.3377,24.2744
27.2612,24.2591
27.1963,24.2158
27.1530,24.1509
27.1377,24.0744
27.1377,22.6744
27.1530,22.5978
27.1963,22.5329
27.2612,22.4896
27.3377,22.4744
27.7377,22.4744
27.8143,22.4896
27.8792,22.5329
27.9225,22.5978
27.9377,22.6744
27.9377,24.0744
27.9225,24.1509
27.8792,24.2158
27.8143,24.2591
27.7377,24.2744
Z" /> 
<path style="fill:#000000; fill-opacity:1.0000; stroke:none;fill-rule:evenodd;"
d="M 26.2377,24.2744
26.1612,24.2591
26.0963,24.2158
26.0530,24.1509
26.0377,24.0744
26.0377,22.6744
26.0530,22.5978
26.0963,22.5329
26.1612,22.4896
26.2377,22.4744
26.6377,22.4744
26.7143,22.4896
26.7792,22.5329
26.8225,22.5978
26.8377,22.6744
26.8377,24.0744
26.8225,24.1509
26.7792,24.2158
26.7143,24.2591
26.6377,24.2744
Z" /> 
<path style="fill:#000000; fill-opacity:1.0000; stroke:none;fill-rule:evenodd;"
d="M 25.1377,24.2744
25.0612,24.2591
24.9963,24.2158
24.9530,24.1509
24.9377,24.0744
24.9377,22.6744
24.9530,22.5978
24.9963,22.5329
25.0612,22.4896
25.1377,22.4744
25.5377,22.4744
25.6143,22.4896
25.6792,22.5329
25.7225,22.5978
25.7377,22.6744
25.7377,24.0744
25.7225,24.1509
25.6792,24.2158
25.6143,24.2591
25.5377,24.2744
Z" /> 
<path style="fill:#000000; fill-opacity:1.0000; stroke:none;fill-rule:evenodd;"
d="M 24.0627,24.2744
23.9958,24.2610
23.9390,24.2231
23.9011,24.1663
23.8877,24.0994
23.8877,22.6494
23.9011,22.5824
23.9390,22.5256
23.9958,22.4877
24.0627,22.4744
24.4127,22.4744
24.4797,22.4877
24.5365,22.5256
24.5744,22.5824
24.5877,22.6494
24.5877,24.0994
24.5744,24.1663
24.5365,24.2231
24.4797,24.2610
24.4127,24.2744
Z" /> 
<path style="fill:#000000; fill-opacity:1.0000; stroke:none;fill-rule:evenodd;"
d="M 32.4377,46.8500
32.3421,46.8310
32.2610,46.7768
32.2068,46.6957
32.1877,46.6000
32.1877,45.9000
32.2068,45.8043
32.2610,45.7232
32.3421,45.6690
32.4377,45.6500
33.3377,45.6500
33.4334,45.6690
33.5145,45.7232
33.5687,45.8043
33.5877,45.9000
33.5877,46.6000
33.5687,46.6957
33.5145,46.7768
33.4334,46.8310
33.3377,46.8500
Z" /> 
<path style="fill:#000000; fill-opacity:1.0000; stroke:none;fill-rule:evenodd;"
d="M 32.4377,44.8500
32.3421,44.8310
32.2610,44.7768
32.2068,44.6957
32.1877,44.6000
32.1877,43.9000
32.2068,43.8043
32.2610,43.7232
32.3421,43.6690
32.4377,43.6500
33.3377,43.6500
33.4334,43.6690
33.5145,43.7232
33.5687,43.8043
33.5877,43.9000
33.5877,44.6000
33.5687,44.6957
33.5145,44.7768
33.4334,44.8310
33.3377,44.8500
Z" /> 
<path style="fill:#000000; fill-opacity:1.0000; stroke:none;fill-rule:evenodd;"
d="M 12.5377,61.8244
12.5187,61.9200
12.4645,62.0011
12.3834,62.0553
12.2877,62.0744
11.5877,62.0744
11.4921,62.0553
11.4110,62.0011
11.3568,61.9200
11.3377,61.8244
11.3377,60.9244
11.3568,60.8287
11.4110,60.7476
11.4921,60.6934
11.5877,60.6744
12.2877,60.6744
12.3834,60.6934
12.4645,60.7476
12.5187,60.8287
12.5377,60.9244
Z" /> 
<path style="fill:#000000; fill-opacity:1.0000; stroke:none;fill-rule:evenodd;"
d="M 10.5377,61.8244
10.5187,61.9200
10.4645,62.0011
10.3834,62.0553
10.2877,62.0744
9.5877,62.0744
9.4921,62.0553
9.4110,62.0011
9.3568,61.9200
9.3377,61.8244
9.3377,60.9244
9.3568,60.8287
9.4110,60.7476
9.4921,60.6934
9.5877,60.6744
10.2877,60.6744
10.3834,60.6934
10.4645,60.7476
10.5187,60.8287
10.5377,60.9244
Z" /> 
<path style="fill:#000000; fill-opacity:1.0000; stroke:none;fill-rule:evenodd;"
d="M 26.7127,63.9244
26.6171,63.9053
26.5360,63.8511
26.4818,63.7700
26.4627,63.6744
26.4627,62.9994
26.4818,62.9037
26.5360,62.8226
26.6171,62.7684
26.7127,62.7494
27.6627,62.7494
27.7584,62.7684
27.8395,62.8226
27.8937,62.9037
27.9127,62.9994
27.9127,63.6744
27.8937,63.7700
27.8395,63.8511
27.7584,63.9053
27.6627,63.9244
Z" /> 
<path style="fill:#000000; fill-opacity:1.0000; stroke:none;fill-rule:evenodd;"
d="M 26.7127,61.8494
26.6171,61.8303
26.5360,61.7761
26.4818,61.6950
26.4627,61.5994
26.4627,60.9244
26.4818,60.8287
26.5360,60.7476
26.6171,60.6934
26.7127,60.6744
27.6627,60.6744
27.7584,60.6934
27.8395,60.7476
27.8937,60.8287
27.9127,60.9244
27.9127,61.5994
27.8937,61.6950
27.8395,61.7761
27.7584,61.8303
27.6627,61.8494
Z" /> 
<path style="fill:#000000; fill-opacity:1.0000; stroke:none;fill-rule:evenodd;"
d="M 20.0750,50.4250
20.1707,50.4440
20.2518,50.4982
20.3060,50.5793
20.3250,50.6750
20.3250,51.3250
20.3060,51.4207
20.2518,51.5018
20.1707,51.5560
20.0750,51.5750
19.1750,51.5750
19.0793,51.5560
18.9982,51.5018
18.9440,51.4207
18.9250,51.3250
18.9250,50.6750
18.9440,50.5793
18.9982,50.4982
19.0793,50.4440
19.1750,50.4250
Z" /> 
<path style="fill:#000000; fill-opacity:1.0000; stroke:none;fill-rule:evenodd;"
d="M 20.0750,52.4750
20.1707,52.4940
20.2518,52.5482
20.3060,52.6293
20.3250,52.7250
20.3250,53.3750
20.3060,53.4707
20.2518,53.5518
20.1707,53.6060
20.0750,53.6250
19.1750,53.6250
19.0793,53.6060
18.9982,53.5518
18.9440,53.4707
18.9250,53.3750
18.9250,52.7250
18.9440,52.6293
18.9982,52.5482
19.0793,52.4940
19.1750,52.4750
Z" /> 
<path style="fill:#000000; fill-opacity:1.0000; stroke:none;fill-rule:evenodd;"
d="M 6.6500,32.3250
6.5543,32.3060
6.4732,32.2518
6.4190,32.1707
6.4000,32.0750
6.4000,31.4000
6.4190,31.3043
6.4732,31.2232
6.5543,31.1690
6.6500,31.1500
7.6000,31.1500
7.6957,31.1690
7.7768,31.2232
7.8310,31.3043
7.8500,31.4000
7.8500,32.0750
7.8310,32.1707
7.7768,32.2518
7.6957,32.3060
7.6000,32.3250
Z" /> 
<path style="fill:#000000; fill-opacity:1.0000; stroke:none;fill-rule:evenodd;"
d="M 6.6500,30.2500
6.5543,30.2310
6.4732,30.1768
6.4190,30.0957
6.4000,30.0000
6.4000,29.3250
6.4190,29.2293
6.4732,29.1482
6.5543,29.0940
6.6500,29.0750
7.6000,29.0750
7.6957,29.0940
7.7768,29.1482
7.8310,29.2293
7.8500,29.3250
7.8500,30.0000
7.8310,30.0957
7.7768,30.1768
7.6957,30.2310
7.6000,30.2500
Z" /> 
<path style="fill:#000000; fill-opacity:1.0000; stroke:none;fill-rule:evenodd;"
d="M 22.5877,26.0244
22.6834,26.0434
22.7645,26.0976
22.8187,26.1787
22.8377,26.2744
22.8377,26.9744
22.8187,27.0700
22.7645,27.1511
22.6834,27.2053
22.5877,27.2244
21.6877,27.2244
21.5921,27.2053
21.5110,27.1511
21.4568,27.0700
21.4377,26.9744
21.4377,26.2744
21.4568,26.1787
21.5110,26.0976
21.5921,26.0434
21.6877,26.0244
Z" /> 
<path style="fill:#000000; fill-opacity:1.0000; stroke:none;fill-rule:evenodd;"
d="M 22.5877,28.0244
22.6834,28.0434
22.7645,28.0976
22.8187,28.1787
22.8377,28.2744
22.8377,28.9744
22.8187,29.0700
22.7645,29.1511
22.6834,29.2053
22.5877,29.2244
21.6877,29.2244
21.5921,29.2053
21.5110,29.1511
21.4568,29.0700
21.4377,28.9744
21.4377,28.2744
21.4568,28.1787
21.5110,28.0976
21.5921,28.0434
21.6877,28.0244
Z" /> 
<path style="fill:#000000; fill-opacity:1.0000; stroke:none;fill-rule:evenodd;"
d="M 7.1877,72.9744
7.0921,72.9553
7.0110,72.9011
6.9568,72.8200
6.9377,72.7244
6.9377,72.0744
6.9568,71.9787
7.0110,71.8976
7.0921,71.8434
7.1877,71.8244
8.0877,71.8244
8.1834,71.8434
8.2645,71.8976
8.3187,71.9787
8.3377,72.0744
8.3377,72.7244
8.3187,72.8200
8.2645,72.9011
8.1834,72.9553
8.0877,72.9744
Z" /> 
<path style="fill:#000000; fill-opacity:1.0000; stroke:none;fill-rule:evenodd;"
d="M 7.1877,70.9244
7.0921,70.9053
7.0110,70.8511
6.9568,70.7700
6.9377,70.6744
6.9377,70.0244
6.9568,69.9287
7.0110,69.8476
7.0921,69.7934
7.1877,69.7744
8.0877,69.7744
8.1834,69.7934
8.2645,69.8476
8.3187,69.9287
8.3377,70.0244
8.3377,70.6744
8.3187,70.7700
8.2645,70.8511
8.1834,70.9053
8.0877,70.9244
Z" /> 
<path style="fill:#000000; fill-opacity:1.0000; stroke:none;fill-rule:evenodd;"
d="M 11.0877,52.8594
11.0877,53.0894
10.8577,53.0894
10.8577,52.8594
Z" /> 
</g>
<g style="fill:none; 
stroke:#000000; stroke-width:0.2300; stroke-opacity:1; 
stroke-linecap:round; stroke-linejoin:round;">
<path d="M10.9727 52.9744
L10.4027 52.9744
" />
<path style="fill:#000000; fill-opacity:1.0000; stroke:none;fill-rule:evenodd;"
d="M 11.0877,52.3594
11.0877,52.5894
10.8577,52.5894
10.8577,52.3594
Z" /> 
</g>
<g style="fill:none; 
stroke:#000000; stroke-width:0.2300; stroke-opacity:1; 
stroke-linecap:round; stroke-linejoin:round;">
<path d="M10.9727 52.4744
L10.4027 52.4744
" />
<path style="fill:#000000; fill-opacity:1.0000; stroke:none;fill-rule:evenodd;"
d="M 11.0877,51.8594
11.0877,52.0894
10.8577,52.0894
10.8577,51.8594
Z" /> 
</g>
<g style="fill:none; 
stroke:#000000; stroke-width:0.2300; stroke-opacity:1; 
stroke-linecap:round; stroke-linejoin:round;">
<path d="M10.9727 51.9744
L10.4027 51.9744
" />
<path style="fill:#000000; fill-opacity:1.0000; stroke:none;fill-rule:evenodd;"
d="M 11.0877,51.3594
11.0877,51.5894
10.8577,51.5894
10.8577,51.3594
Z" /> 
</g>
<g style="fill:none; 
stroke:#000000; stroke-width:0.2300; stroke-opacity:1; 
stroke-linecap:round; stroke-linejoin:round;">
<path d="M10.9727 51.4744
L10.4027 51.4744
" />
<path style="fill:#000000; fill-opacity:1.0000; stroke:none;fill-rule:evenodd;"
d="M 11.0877,50.8594
11.0877,51.0894
10.8577,51.0894
10.8577,50.8594
Z" /> 
</g>
<g style="fill:none; 
stroke:#000000; stroke-width:0.2300; stroke-opacity:1; 
stroke-linecap:round; stroke-linejoin:round;">
<path d="M10.9727 50.9744
L10.4027 50.9744
" />
<path d="M8.0227 50.9744
L7.4527 50.9744
" />
<path style="fill:#000000; fill-opacity:1.0000; stroke:none;fill-rule:evenodd;"
d="M 7.5677,50.8594
7.5677,51.0894
7.3377,51.0894
7.3377,50.8594
Z" /> 
</g>
<g style="fill:none; 
stroke:#000000; stroke-width:0.2300; stroke-opacity:1; 
stroke-linecap:round; stroke-linejoin:round;">
<path d="M8.0227 51.4744
L7.4527 51.4744
" />
<path style="fill:#000000; fill-opacity:1.0000; stroke:none;fill-rule:evenodd;"
d="M 7.5677,51.3594
7.5677,51.5894
7.3377,51.5894
7.3377,51.3594
Z" /> 
</g>
<g style="fill:none; 
stroke:#000000; stroke-width:0.2300; stroke-opacity:1; 
stroke-linecap:round; stroke-linejoin:round;">
<path d="M8.0227 51.9744
L7.4527 51.9744
" />
<path style="fill:#000000; fill-opacity:1.0000; stroke:none;fill-rule:evenodd;"
d="M 7.5677,51.8594
7.5677,52.0894
7.3377,52.0894
7.3377,51.8594
Z" /> 
</g>
<g style="fill:none; 
stroke:#000000; stroke-width:0.2300; stroke-opacity:1; 
stroke-linecap:round; stroke-linejoin:round;">
<path d="M8.0227 52.4744
L7.4527 52.4744
" />
<path style="fill:#000000; fill-opacity:1.0000; stroke:none;fill-rule:evenodd;"
d="M 7.5677,52.3594
7.5677,52.5894
7.3377,52.5894
7.3377,52.3594
Z" /> 
</g>
<g style="fill:none; 
stroke:#000000; stroke-width:0.2300; stroke-opacity:1; 
stroke-linecap:round; stroke-linejoin:round;">
<path d="M8.0227 52.9744
L7.4527 52.9744
" />
<path style="fill:#000000; fill-opacity:1.0000; stroke:none;fill-rule:evenodd;"
d="M 7.5677,52.8594
7.5677,53.0894
7.3377,53.0894
7.3377,52.8594
Z" /> 
<path style="fill:#000000; fill-opacity:1.0000; stroke:none;fill-rule:evenodd;"
d="M 10.0027,52.0844
10.0027,53.1344
9.3227,53.1344
9.3227,52.0844
Z" /> 
<path style="fill:#000000; fill-opacity:1.0000; stroke:none;fill-rule:evenodd;"
d="M 10.0027,50.8144
10.0027,51.8644
9.3227,51.8644
9.3227,50.8144
Z" /> 
<path style="fill:#000000; fill-opacity:1.0000; stroke:none;fill-rule:evenodd;"
d="M 9.5927,53.3544
9.5927,53.8544
9.3327,53.8544
9.3327,53.3544
Z" /> 
<path style="fill:#000000; fill-opacity:1.0000; stroke:none;fill-rule:evenodd;"
d="M 9.5927,50.0944
9.5927,50.5944
9.3327,50.5944
9.3327,50.0944
Z" /> 
<path style="fill:#000000; fill-opacity:1.0000; stroke:none;fill-rule:evenodd;"
d="M 9.0927,53.3544
9.0927,53.8544
8.8327,53.8544
8.8327,53.3544
Z" /> 
<path style="fill:#000000; fill-opacity:1.0000; stroke:none;fill-rule:evenodd;"
d="M 9.0927,50.0944
9.0927,50.5944
8.8327,50.5944
8.8327,50.0944
Z" /> 
<path style="fill:#000000; fill-opacity:1.0000; stroke:none;fill-rule:evenodd;"
d="M 9.1027,52.0844
9.1027,53.1344
8.4227,53.1344
8.4227,52.0844
Z" /> 
<path style="fill:#000000; fill-opacity:1.0000; stroke:none;fill-rule:evenodd;"
d="M 9.1027,50.8144
9.1027,51.8644
8.4227,51.8644
8.4227,50.8144
Z" /> 
<path style="fill:#000000; fill-opacity:1.0000; stroke:none;fill-rule:evenodd;"
d="M 30.5377,41.9244
30.5568,41.8287
30.6110,41.7476
30.6921,41.6934
30.7877,41.6744
31.4877,41.6744
31.5834,41.6934
31.6645,41.7476
31.7187,41.8287
31.7377,41.9244
31.7377,42.8244
31.7187,42.9200
31.6645,43.0011
31.5834,43.0553
31.4877,43.0744
30.7877,43.0744
30.6921,43.0553
30.6110,43.0011
30.5568,42.9200
30.5377,42.8244
Z" /> 
<path style="fill:#000000; fill-opacity:1.0000; stroke:none;fill-rule:evenodd;"
d="M 32.5377,41.9244
32.5568,41.8287
32.6110,41.7476
32.6921,41.6934
32.7877,41.6744
33.4877,41.6744
33.5834,41.6934
33.6645,41.7476
33.7187,41.8287
33.7377,41.9244
33.7377,42.8244
33.7187,42.9200
33.6645,43.0011
33.5834,43.0553
33.4877,43.0744
32.7877,43.0744
32.6921,43.0553
32.6110,43.0011
32.5568,42.9200
32.5377,42.8244
Z" /> 
<path style="fill:#000000; fill-opacity:1.0000; stroke:none;fill-rule:evenodd;"
d="M 22.2500,41.1250
22.1543,41.1060
22.0732,41.0518
22.0190,40.9707
22.0000,40.8750
22.0000,40.2000
22.0190,40.1043
22.0732,40.0232
22.1543,39.9690
22.2500,39.9500
23.2000,39.9500
23.2957,39.9690
23.3768,40.0232
23.4310,40.1043
23.4500,40.2000
23.4500,40.8750
23.4310,40.9707
23.3768,41.0518
23.2957,41.1060
23.2000,41.1250
Z" /> 
<path style="fill:#000000; fill-opacity:1.0000; stroke:none;fill-rule:evenodd;"
d="M 22.2500,39.0500
22.1543,39.0310
22.0732,38.9768
22.0190,38.8957
22.0000,38.8000
22.0000,38.1250
22.0190,38.0293
22.0732,37.9482
22.1543,37.8940
22.2500,37.8750
23.2000,37.8750
23.2957,37.8940
23.3768,37.9482
23.4310,38.0293
23.4500,38.1250
23.4500,38.8000
23.4310,38.8957
23.3768,38.9768
23.2957,39.0310
23.2000,39.0500
Z" /> 
<path style="fill:#000000; fill-opacity:1.0000; stroke:none;fill-rule:evenodd;"
d="M 33.7877,55.3619
33.7697,55.4527
33.7182,55.5298
33.6411,55.5813
33.5502,55.5994
32.9752,55.5994
32.8844,55.5813
32.8073,55.5298
32.7558,55.4527
32.7377,55.3619
32.7377,54.8869
32.7558,54.7960
32.8073,54.7189
32.8844,54.6674
32.9752,54.6494
33.5502,54.6494
33.6411,54.6674
33.7182,54.7189
33.7697,54.7960
33.7877,54.8869
Z" /> 
<path style="fill:#000000; fill-opacity:1.0000; stroke:none;fill-rule:evenodd;"
d="M 32.0377,55.3619
32.0197,55.4527
31.9682,55.5298
31.8911,55.5813
31.8002,55.5994
31.2252,55.5994
31.1344,55.5813
31.0573,55.5298
31.0058,55.4527
30.9877,55.3619
30.9877,54.8869
31.0058,54.7960
31.0573,54.7189
31.1344,54.6674
31.2252,54.6494
31.8002,54.6494
31.8911,54.6674
31.9682,54.7189
32.0197,54.7960
32.0377,54.8869
Z" /> 
<path style="fill:#000000; fill-opacity:1.0000; stroke:none;fill-rule:evenodd;"
d="M 28.5750,52.5500
28.5940,52.4543
28.6482,52.3732
28.7293,52.3190
28.8250,52.3000
29.5250,52.3000
29.6207,52.3190
29.7018,52.3732
29.7560,52.4543
29.7750,52.5500
29.7750,53.4500
29.7560,53.5457
29.7018,53.6268
29.6207,53.6810
29.5250,53.7000
28.8250,53.7000
28.7293,53.6810
28.6482,53.6268
28.5940,53.5457
28.5750,53.4500
Z" /> 
<path style="fill:#000000; fill-opacity:1.0000; stroke:none;fill-rule:evenodd;"
d="M 30.5750,52.5500
30.5940,52.4543
30.6482,52.3732
30.7293,52.3190
30.8250,52.3000
31.5250,52.3000
31.6207,52.3190
31.7018,52.3732
31.7560,52.4543
31.7750,52.5500
31.7750,53.4500
31.7560,53.5457
31.7018,53.6268
31.6207,53.6810
31.5250,53.7000
30.8250,53.7000
30.7293,53.6810
30.6482,53.6268
30.5940,53.5457
30.5750,53.4500
Z" /> 
<path style="fill:#000000; fill-opacity:1.0000; stroke:none;fill-rule:evenodd;"
d="M 20.9377,55.7744
21.0334,55.7934
21.1145,55.8476
21.1687,55.9287
21.1877,56.0244
21.1877,56.6994
21.1687,56.7950
21.1145,56.8761
21.0334,56.9303
20.9377,56.9494
19.9877,56.9494
19.8921,56.9303
19.8110,56.8761
19.7568,56.7950
19.7377,56.6994
19.7377,56.0244
19.7568,55.9287
19.8110,55.8476
19.8921,55.7934
19.9877,55.7744
Z" /> 
<path style="fill:#000000; fill-opacity:1.0000; stroke:none;fill-rule:evenodd;"
d="M 20.9377,57.8494
21.0334,57.8684
21.1145,57.9226
21.1687,58.0037
21.1877,58.0994
21.1877,58.7744
21.1687,58.8700
21.1145,58.9511
21.0334,59.0053
20.9377,59.0244
19.9877,59.0244
19.8921,59.0053
19.8110,58.9511
19.7568,58.8700
19.7377,58.7744
19.7377,58.0994
19.7568,58.0037
19.8110,57.9226
19.8921,57.8684
19.9877,57.8494
Z" /> 
<path style="fill:#000000; fill-opacity:1.0000; stroke:none;fill-rule:evenodd;"
d="M 20.8500,52.6000
20.8690,52.5043
20.9232,52.4232
21.0043,52.3690
21.1000,52.3500
21.8000,52.3500
21.8957,52.3690
21.9768,52.4232
22.0310,52.5043
22.0500,52.6000
22.0500,53.5000
22.0310,53.5957
21.9768,53.6768
21.8957,53.7310
21.8000,53.7500
21.1000,53.7500
21.0043,53.7310
20.9232,53.6768
20.8690,53.5957
20.8500,53.5000
Z" /> 
<path style="fill:#000000; fill-opacity:1.0000; stroke:none;fill-rule:evenodd;"
d="M 22.8500,52.6000
22.8690,52.5043
22.9232,52.4232
23.0043,52.3690
23.1000,52.3500
23.8000,52.3500
23.8957,52.3690
23.9768,52.4232
24.0310,52.5043
24.0500,52.6000
24.0500,53.5000
24.0310,53.5957
23.9768,53.6768
23.8957,53.7310
23.8000,53.7500
23.1000,53.7500
23.0043,53.7310
22.9232,53.6768
22.8690,53.5957
22.8500,53.5000
Z" /> 
<path style="fill:#000000; fill-opacity:1.0000; stroke:none;fill-rule:evenodd;"
d="M 15.8250,37.4500
15.7293,37.4310
15.6482,37.3768
15.5940,37.2957
15.5750,37.2000
15.5750,36.5250
15.5940,36.4293
15.6482,36.3482
15.7293,36.2940
15.8250,36.2750
16.7750,36.2750
16.8707,36.2940
16.9518,36.3482
17.0060,36.4293
17.0250,36.5250
17.0250,37.2000
17.0060,37.2957
16.9518,37.3768
16.8707,37.4310
16.7750,37.4500
Z" /> 
<path style="fill:#000000; fill-opacity:1.0000; stroke:none;fill-rule:evenodd;"
d="M 15.8250,35.3750
15.7293,35.3560
15.6482,35.3018
15.5940,35.2207
15.5750,35.1250
15.5750,34.4500
15.5940,34.3543
15.6482,34.2732
15.7293,34.2190
15.8250,34.2000
16.7750,34.2000
16.8707,34.2190
16.9518,34.2732
17.0060,34.3543
17.0250,34.4500
17.0250,35.1250
17.0060,35.2207
16.9518,35.3018
16.8707,35.3560
16.7750,35.3750
Z" /> 
<path style="fill:#000000; fill-opacity:1.0000; stroke:none;fill-rule:evenodd;"
d="M 20.6127,60.9994
20.7084,61.0184
20.7895,61.0726
20.8437,61.1537
20.8627,61.2494
20.8627,61.9244
20.8437,62.0200
20.7895,62.1011
20.7084,62.1553
20.6127,62.1744
19.6627,62.1744
19.5671,62.1553
19.4860,62.1011
19.4318,62.0200
19.4127,61.9244
19.4127,61.2494
19.4318,61.1537
19.4860,61.0726
19.5671,61.0184
19.6627,60.9994
Z" /> 
<path style="fill:#000000; fill-opacity:1.0000; stroke:none;fill-rule:evenodd;"
d="M 20.6127,63.0744
20.7084,63.0934
20.7895,63.1476
20.8437,63.2287
20.8627,63.3244
20.8627,63.9994
20.8437,64.0950
20.7895,64.1761
20.7084,64.2303
20.6127,64.2494
19.6627,64.2494
19.5671,64.2303
19.4860,64.1761
19.4318,64.0950
19.4127,63.9994
19.4127,63.3244
19.4318,63.2287
19.4860,63.1476
19.5671,63.0934
19.6627,63.0744
Z" /> 
<path style="fill:#000000; fill-opacity:1.0000; stroke:none;fill-rule:evenodd;"
d="M 20.1000,23.0250
19.7500,23.0250
19.7500,22.5250
20.1000,22.5250
Z" /> 
<path style="fill:#000000; fill-opacity:1.0000; stroke:none;fill-rule:evenodd;"
d="M 20.7500,23.0250
20.4000,23.0250
20.4000,22.5250
20.7500,22.5250
Z" /> 
<path style="fill:#000000; fill-opacity:1.0000; stroke:none;fill-rule:evenodd;"
d="M 21.4000,23.0250
21.0500,23.0250
21.0500,22.5250
21.4000,22.5250
Z" /> 
<path style="fill:#000000; fill-opacity:1.0000; stroke:none;fill-rule:evenodd;"
d="M 22.0500,23.0250
21.7000,23.0250
21.7000,22.5250
22.0500,22.5250
Z" /> 
<path style="fill:#000000; fill-opacity:1.0000; stroke:none;fill-rule:evenodd;"
d="M 22.0500,25.0750
21.7000,25.0750
21.7000,24.5750
22.0500,24.5750
Z" /> 
<path style="fill:#000000; fill-opacity:1.0000; stroke:none;fill-rule:evenodd;"
d="M 21.4000,25.0750
21.0500,25.0750
21.0500,24.5750
21.4000,24.5750
Z" /> 
<path style="fill:#000000; fill-opacity:1.0000; stroke:none;fill-rule:evenodd;"
d="M 20.7500,25.0750
20.4000,25.0750
20.4000,24.5750
20.7500,24.5750
Z" /> 
<path style="fill:#000000; fill-opacity:1.0000; stroke:none;fill-rule:evenodd;"
d="M 20.1000,25.0750
19.7500,25.0750
19.7500,24.5750
20.1000,24.5750
Z" /> 
<path style="fill:#000000; fill-opacity:1.0000; stroke:none;fill-rule:evenodd;"
d="M 33.5250,50.5000
33.6207,50.5190
33.7018,50.5732
33.7560,50.6543
33.7750,50.7500
33.7750,51.4000
33.7560,51.4957
33.7018,51.5768
33.6207,51.6310
33.5250,51.6500
32.6250,51.6500
32.5293,51.6310
32.4482,51.5768
32.3940,51.4957
32.3750,51.4000
32.3750,50.7500
32.3940,50.6543
32.4482,50.5732
32.5293,50.5190
32.6250,50.5000
Z" /> 
<path style="fill:#000000; fill-opacity:1.0000; stroke:none;fill-rule:evenodd;"
d="M 33.5250,52.5500
33.6207,52.5690
33.7018,52.6232
33.7560,52.7043
33.7750,52.8000
33.7750,53.4500
33.7560,53.5457
33.7018,53.6268
33.6207,53.6810
33.5250,53.7000
32.6250,53.7000
32.5293,53.6810
32.4482,53.6268
32.3940,53.5457
32.3750,53.4500
32.3750,52.8000
32.3940,52.7043
32.4482,52.6232
32.5293,52.5690
32.6250,52.5500
Z" /> 
<path style="fill:#000000; fill-opacity:1.0000; stroke:none;fill-rule:evenodd;"
d="M 12.7627,57.8494
12.7437,57.9450
12.6895,58.0261
12.6084,58.0803
12.5127,58.0994
11.8377,58.0994
11.7421,58.0803
11.6610,58.0261
11.6068,57.9450
11.5877,57.8494
11.5877,56.8994
11.6068,56.8037
11.6610,56.7226
11.7421,56.6684
11.8377,56.6494
12.5127,56.6494
12.6084,56.6684
12.6895,56.7226
12.7437,56.8037
12.7627,56.8994
Z" /> 
<path style="fill:#000000; fill-opacity:1.0000; stroke:none;fill-rule:evenodd;"
d="M 10.6877,57.8494
10.6687,57.9450
10.6145,58.0261
10.5334,58.0803
10.4377,58.0994
9.7627,58.0994
9.6671,58.0803
9.5860,58.0261
9.5318,57.9450
9.5127,57.8494
9.5127,56.8994
9.5318,56.8037
9.5860,56.7226
9.6671,56.6684
9.7627,56.6494
10.4377,56.6494
10.5334,56.6684
10.6145,56.7226
10.6687,56.8037
10.6877,56.8994
Z" /> 
<path style="fill:#000000; fill-opacity:1.0000; stroke:none;fill-rule:evenodd;"
d="M 31.1652,63.5900
31.1534,63.6493
31.1198,63.6996
31.0696,63.7332
31.0102,63.7450
30.5852,63.7450
30.5259,63.7332
30.4756,63.6996
30.4420,63.6493
30.4302,63.5900
30.4302,63.2800
30.4420,63.2207
30.4756,63.1704
30.5259,63.1368
30.5852,63.1250
31.0102,63.1250
31.0696,63.1368
31.1198,63.1704
31.1534,63.2207
31.1652,63.2800
Z" /> 
<path style="fill:#000000; fill-opacity:1.0000; stroke:none;fill-rule:evenodd;"
d="M 30.0302,63.5900
30.0184,63.6493
29.9848,63.6996
29.9346,63.7332
29.8752,63.7450
29.4502,63.7450
29.3909,63.7332
29.3406,63.6996
29.3070,63.6493
29.2952,63.5900
29.2952,63.2800
29.3070,63.2207
29.3406,63.1704
29.3909,63.1368
29.4502,63.1250
29.8752,63.1250
29.9346,63.1368
29.9848,63.1704
30.0184,63.2207
30.0302,63.2800
Z" /> 
<path style="fill:#000000; fill-opacity:1.0000; stroke:none;fill-rule:evenodd;"
d="M 9.4250,26.6750
9.4440,26.5793
9.4982,26.4982
9.5793,26.4440
9.6750,26.4250
10.3500,26.4250
10.4457,26.4440
10.5268,26.4982
10.5810,26.5793
10.6000,26.6750
10.6000,27.6250
10.5810,27.7207
10.5268,27.8018
10.4457,27.8560
10.3500,27.8750
9.6750,27.8750
9.5793,27.8560
9.4982,27.8018
9.4440,27.7207
9.4250,27.6250
Z" /> 
<path style="fill:#000000; fill-opacity:1.0000; stroke:none;fill-rule:evenodd;"
d="M 11.5000,26.6750
11.5190,26.5793
11.5732,26.4982
11.6543,26.4440
11.7500,26.4250
12.4250,26.4250
12.5207,26.4440
12.6018,26.4982
12.6560,26.5793
12.6750,26.6750
12.6750,27.6250
12.6560,27.7207
12.6018,27.8018
12.5207,27.8560
12.4250,27.8750
11.7500,27.8750
11.6543,27.8560
11.5732,27.8018
11.5190,27.7207
11.5000,27.6250
Z" /> 
<path style="fill:#000000; fill-opacity:1.0000; stroke:none;fill-rule:evenodd;"
d="M 15.6627,51.3244
12.6127,51.3244
12.6127,50.1844
15.6627,50.1844
Z" /> 
<path style="fill:#000000; fill-opacity:1.0000; stroke:none;fill-rule:evenodd;"
d="M 15.6627,49.1644
12.6127,49.1644
12.6127,48.0244
15.6627,48.0244
Z" /> 
<path style="fill:#000000; fill-opacity:1.0000; stroke:none;fill-rule:evenodd;"
d="M 33.5127,40.5994
33.4937,40.6950
33.4395,40.7761
33.3584,40.8303
33.2627,40.8494
32.5877,40.8494
32.4921,40.8303
32.4110,40.7761
32.3568,40.6950
32.3377,40.5994
32.3377,39.6494
32.3568,39.5537
32.4110,39.4726
32.4921,39.4184
32.5877,39.3994
33.2627,39.3994
33.3584,39.4184
33.4395,39.4726
33.4937,39.5537
33.5127,39.6494
Z" /> 
<path style="fill:#000000; fill-opacity:1.0000; stroke:none;fill-rule:evenodd;"
d="M 31.4377,40.5994
31.4187,40.6950
31.3645,40.7761
31.2834,40.8303
31.1877,40.8494
30.5127,40.8494
30.4171,40.8303
30.3360,40.7761
30.2818,40.6950
30.2627,40.5994
30.2627,39.6494
30.2818,39.5537
30.3360,39.4726
30.4171,39.4184
30.5127,39.3994
31.1877,39.3994
31.2834,39.4184
31.3645,39.4726
31.4187,39.5537
31.4377,39.6494
Z" /> 
<path style="fill:#000000; fill-opacity:1.0000; stroke:none;fill-rule:evenodd;"
d="M 32.0477,63.6500
32.1090,63.6622
32.1609,63.6969
32.1956,63.7488
32.2077,63.8100
32.2077,64.2550
32.1956,64.3162
32.1609,64.3681
32.1090,64.4028
32.0477,64.4150
31.7277,64.4150
31.6665,64.4028
31.6146,64.3681
31.5799,64.3162
31.5677,64.2550
31.5677,63.8100
31.5799,63.7488
31.6146,63.6969
31.6665,63.6622
31.7277,63.6500
Z" /> 
<path style="fill:#000000; fill-opacity:1.0000; stroke:none;fill-rule:evenodd;"
d="M 32.0477,64.7950
32.1090,64.8072
32.1609,64.8419
32.1956,64.8938
32.2077,64.9550
32.2077,65.4000
32.1956,65.4612
32.1609,65.5131
32.1090,65.5478
32.0477,65.5600
31.7277,65.5600
31.6665,65.5478
31.6146,65.5131
31.5799,65.4612
31.5677,65.4000
31.5677,64.9550
31.5799,64.8938
31.6146,64.8419
31.6665,64.8072
31.7277,64.7950
Z" /> 
<path style="fill:#000000; fill-opacity:1.0000; stroke:none;fill-rule:evenodd;"
d="M 20.7627,42.8494
20.7437,42.9450
20.6895,43.0261
20.6084,43.0803
20.5127,43.0994
19.8377,43.0994
19.7421,43.0803
19.6610,43.0261
19.6068,42.9450
19.5877,42.8494
19.5877,41.8994
19.6068,41.8037
19.6610,41.7226
19.7421,41.6684
19.8377,41.6494
20.5127,41.6494
20.6084,41.6684
20.6895,41.7226
20.7437,41.8037
20.7627,41.8994
Z" /> 
<path style="fill:#000000; fill-opacity:1.0000; stroke:none;fill-rule:evenodd;"
d="M 18.6877,42.8494
18.6687,42.9450
18.6145,43.0261
18.5334,43.0803
18.4377,43.0994
17.7627,43.0994
17.6671,43.0803
17.5860,43.0261
17.5318,42.9450
17.5127,42.8494
17.5127,41.8994
17.5318,41.8037
17.5860,41.7226
17.6671,41.6684
17.7627,41.6494
18.4377,41.6494
18.5334,41.6684
18.6145,41.7226
18.6687,41.8037
18.6877,41.8994
Z" /> 
<path style="fill:#000000; fill-opacity:1.0000; stroke:none;fill-rule:evenodd;"
d="M 22.9377,62.0994
22.9377,60.7994
24.0377,60.7994
24.0377,62.0994
Z" /> 
<path style="fill:#000000; fill-opacity:1.0000; stroke:none;fill-rule:evenodd;"
d="M 22.9377,64.3994
22.9377,63.0994
24.0377,63.0994
24.0377,64.3994
Z" /> 
<path style="fill:#000000; fill-opacity:1.0000; stroke:none;fill-rule:evenodd;"
d="M 24.8377,64.3994
24.8377,63.0994
25.9377,63.0994
25.9377,64.3994
Z" /> 
<path style="fill:#000000; fill-opacity:1.0000; stroke:none;fill-rule:evenodd;"
d="M 24.8377,62.0994
24.8377,60.7994
25.9377,60.7994
25.9377,62.0994
Z" /> 
<path style="fill:#000000; fill-opacity:1.0000; stroke:none;fill-rule:evenodd;"
d="M 15.8000,41.2250
15.7043,41.2060
15.6232,41.1518
15.5690,41.0707
15.5500,40.9750
15.5500,40.2750
15.5690,40.1793
15.6232,40.0982
15.7043,40.0440
15.8000,40.0250
16.7000,40.0250
16.7957,40.0440
16.8768,40.0982
16.9310,40.1793
16.9500,40.2750
16.9500,40.9750
16.9310,41.0707
16.8768,41.1518
16.7957,41.2060
16.7000,41.2250
Z" /> 
<path style="fill:#000000; fill-opacity:1.0000; stroke:none;fill-rule:evenodd;"
d="M 15.8000,39.2250
15.7043,39.2060
15.6232,39.1518
15.5690,39.0707
15.5500,38.9750
15.5500,38.2750
15.5690,38.1793
15.6232,38.0982
15.7043,38.0440
15.8000,38.0250
16.7000,38.0250
16.7957,38.0440
16.8768,38.0982
16.9310,38.1793
16.9500,38.2750
16.9500,38.9750
16.9310,39.0707
16.8768,39.1518
16.7957,39.2060
16.7000,39.2250
Z" /> 
<path style="fill:#000000; fill-opacity:1.0000; stroke:none;fill-rule:evenodd;"
d="M 27.3377,35.7744
27.4334,35.7934
27.5145,35.8476
27.5687,35.9287
27.5877,36.0244
27.5877,36.7244
27.5687,36.8200
27.5145,36.9011
27.4334,36.9553
27.3377,36.9744
26.4377,36.9744
26.3421,36.9553
26.2610,36.9011
26.2068,36.8200
26.1877,36.7244
26.1877,36.0244
26.2068,35.9287
26.2610,35.8476
26.3421,35.7934
26.4377,35.7744
Z" /> 
<path style="fill:#000000; fill-opacity:1.0000; stroke:none;fill-rule:evenodd;"
d="M 27.3377,37.7744
27.4334,37.7934
27.5145,37.8476
27.5687,37.9287
27.5877,38.0244
27.5877,38.7244
27.5687,38.8200
27.5145,38.9011
27.4334,38.9553
27.3377,38.9744
26.4377,38.9744
26.3421,38.9553
26.2610,38.9011
26.2068,38.8200
26.1877,38.7244
26.1877,38.0244
26.2068,37.9287
26.2610,37.8476
26.3421,37.7934
26.4377,37.7744
Z" /> 
<path style="fill:#000000; fill-opacity:1.0000; stroke:none;fill-rule:evenodd;"
d="M 11.1127,55.7494
11.0937,55.8450
11.0395,55.9261
10.9584,55.9803
10.8627,55.9994
10.1877,55.9994
10.0921,55.9803
10.0110,55.9261
9.9568,55.8450
9.9377,55.7494
9.9377,54.7994
9.9568,54.7037
10.0110,54.6226
10.0921,54.5684
10.1877,54.5494
10.8627,54.5494
10.9584,54.5684
11.0395,54.6226
11.0937,54.7037
11.1127,54.7994
Z" /> 
<path style="fill:#000000; fill-opacity:1.0000; stroke:none;fill-rule:evenodd;"
d="M 9.0377,55.7494
9.0187,55.8450
8.9645,55.9261
8.8834,55.9803
8.7877,55.9994
8.1127,55.9994
8.0171,55.9803
7.9360,55.9261
7.8818,55.8450
7.8627,55.7494
7.8627,54.7994
7.8818,54.7037
7.9360,54.6226
8.0171,54.5684
8.1127,54.5494
8.7877,54.5494
8.8834,54.5684
8.9645,54.6226
9.0187,54.7037
9.0377,54.7994
Z" /> 
<path style="fill:#000000; fill-opacity:1.0000; stroke:none;fill-rule:evenodd;"
d="M 9.1329,72.9499
9.0372,72.9309
8.9561,72.8767
8.9019,72.7956
8.8829,72.6999
8.8829,71.9999
8.9019,71.9043
8.9561,71.8232
9.0372,71.7690
9.1329,71.7499
10.0329,71.7499
10.1285,71.7690
10.2096,71.8232
10.2638,71.9043
10.2829,71.9999
10.2829,72.6999
10.2638,72.7956
10.2096,72.8767
10.1285,72.9309
10.0329,72.9499
Z" /> 
<path style="fill:#000000; fill-opacity:1.0000; stroke:none;fill-rule:evenodd;"
d="M 9.1329,70.9499
9.0372,70.9309
8.9561,70.8767
8.9019,70.7956
8.8829,70.6999
8.8829,69.9999
8.9019,69.9043
8.9561,69.8232
9.0372,69.7690
9.1329,69.7499
10.0329,69.7499
10.1285,69.7690
10.2096,69.8232
10.2638,69.9043
10.2829,69.9999
10.2829,70.6999
10.2638,70.7956
10.2096,70.8767
10.1285,70.9309
10.0329,70.9499
Z" /> 
<path style="fill:#000000; fill-opacity:1.0000; stroke:none;fill-rule:evenodd;"
d="M 21.5250,43.8750
21.5307,43.8463
21.5470,43.8220
21.5713,43.8057
21.6000,43.8000
22.9250,43.8000
22.9537,43.8057
22.9780,43.8220
22.9943,43.8463
23.0000,43.8750
23.0000,44.0250
22.9943,44.0537
22.9780,44.0780
22.9537,44.0943
22.9250,44.1000
21.6000,44.1000
21.5713,44.0943
21.5470,44.0780
21.5307,44.0537
21.5250,44.0250
Z" /> 
<path style="fill:#000000; fill-opacity:1.0000; stroke:none;fill-rule:evenodd;"
d="M 21.5250,44.3750
21.5307,44.3463
21.5470,44.3220
21.5713,44.3057
21.6000,44.3000
22.9250,44.3000
22.9537,44.3057
22.9780,44.3220
22.9943,44.3463
23.0000,44.3750
23.0000,44.5250
22.9943,44.5537
22.9780,44.5780
22.9537,44.5943
22.9250,44.6000
21.6000,44.6000
21.5713,44.5943
21.5470,44.5780
21.5307,44.5537
21.5250,44.5250
Z" /> 
<path style="fill:#000000; fill-opacity:1.0000; stroke:none;fill-rule:evenodd;"
d="M 21.5250,44.8750
21.5307,44.8463
21.5470,44.8220
21.5713,44.8057
21.6000,44.8000
22.9250,44.8000
22.9537,44.8057
22.9780,44.8220
22.9943,44.8463
23.0000,44.8750
23.0000,45.0250
22.9943,45.0537
22.9780,45.0780
22.9537,45.0943
22.9250,45.1000
21.6000,45.1000
21.5713,45.0943
21.5470,45.0780
21.5307,45.0537
21.5250,45.0250
Z" /> 
<path style="fill:#000000; fill-opacity:1.0000; stroke:none;fill-rule:evenodd;"
d="M 21.5250,45.3750
21.5307,45.3463
21.5470,45.3220
21.5713,45.3057
21.6000,45.3000
22.9250,45.3000
22.9537,45.3057
22.9780,45.3220
22.9943,45.3463
23.0000,45.3750
23.0000,45.5250
22.9943,45.5537
22.9780,45.5780
22.9537,45.5943
22.9250,45.6000
21.6000,45.6000
21.5713,45.5943
21.5470,45.5780
21.5307,45.5537
21.5250,45.5250
Z" /> 
<path style="fill:#000000; fill-opacity:1.0000; stroke:none;fill-rule:evenodd;"
d="M 21.5250,45.8750
21.5307,45.8463
21.5470,45.8220
21.5713,45.8057
21.6000,45.8000
22.9250,45.8000
22.9537,45.8057
22.9780,45.8220
22.9943,45.8463
23.0000,45.8750
23.0000,46.0250
22.9943,46.0537
22.9780,46.0780
22.9537,46.0943
22.9250,46.1000
21.6000,46.1000
21.5713,46.0943
21.5470,46.0780
21.5307,46.0537
21.5250,46.0250
Z" /> 
<path style="fill:#000000; fill-opacity:1.0000; stroke:none;fill-rule:evenodd;"
d="M 21.5250,46.3750
21.5307,46.3463
21.5470,46.3220
21.5713,46.3057
21.6000,46.3000
22.9250,46.3000
22.9537,46.3057
22.9780,46.3220
22.9943,46.3463
23.0000,46.3750
23.0000,46.5250
22.9943,46.5537
22.9780,46.5780
22.9537,46.5943
22.9250,46.6000
21.6000,46.6000
21.5713,46.5943
21.5470,46.5780
21.5307,46.5537
21.5250,46.5250
Z" /> 
<path style="fill:#000000; fill-opacity:1.0000; stroke:none;fill-rule:evenodd;"
d="M 21.5250,46.8750
21.5307,46.8463
21.5470,46.8220
21.5713,46.8057
21.6000,46.8000
22.9250,46.8000
22.9537,46.8057
22.9780,46.8220
22.9943,46.8463
23.0000,46.8750
23.0000,47.0250
22.9943,47.0537
22.9780,47.0780
22.9537,47.0943
22.9250,47.1000
21.6000,47.1000
21.5713,47.0943
21.5470,47.0780
21.5307,47.0537
21.5250,47.0250
Z" /> 
<path style="fill:#000000; fill-opacity:1.0000; stroke:none;fill-rule:evenodd;"
d="M 21.5250,47.3750
21.5307,47.3463
21.5470,47.3220
21.5713,47.3057
21.6000,47.3000
22.9250,47.3000
22.9537,47.3057
22.9780,47.3220
22.9943,47.3463
23.0000,47.3750
23.0000,47.5250
22.9943,47.5537
22.9780,47.5780
22.9537,47.5943
22.9250,47.6000
21.6000,47.6000
21.5713,47.5943
21.5470,47.5780
21.5307,47.5537
21.5250,47.5250
Z" /> 
<path style="fill:#000000; fill-opacity:1.0000; stroke:none;fill-rule:evenodd;"
d="M 21.5250,47.8750
21.5307,47.8463
21.5470,47.8220
21.5713,47.8057
21.6000,47.8000
22.9250,47.8000
22.9537,47.8057
22.9780,47.8220
22.9943,47.8463
23.0000,47.8750
23.0000,48.0250
22.9943,48.0537
22.9780,48.0780
22.9537,48.0943
22.9250,48.1000
21.6000,48.1000
21.5713,48.0943
21.5470,48.0780
21.5307,48.0537
21.5250,48.0250
Z" /> 
<path style="fill:#000000; fill-opacity:1.0000; stroke:none;fill-rule:evenodd;"
d="M 21.5250,48.3750
21.5307,48.3463
21.5470,48.3220
21.5713,48.3057
21.6000,48.3000
22.9250,48.3000
22.9537,48.3057
22.9780,48.3220
22.9943,48.3463
23.0000,48.3750
23.0000,48.5250
22.9943,48.5537
22.9780,48.5780
22.9537,48.5943
22.9250,48.6000
21.6000,48.6000
21.5713,48.5943
21.5470,48.5780
21.5307,48.5537
21.5250,48.5250
Z" /> 
<path style="fill:#000000; fill-opacity:1.0000; stroke:none;fill-rule:evenodd;"
d="M 21.5250,48.8750
21.5307,48.8463
21.5470,48.8220
21.5713,48.8057
21.6000,48.8000
22.9250,48.8000
22.9537,48.8057
22.9780,48.8220
22.9943,48.8463
23.0000,48.8750
23.0000,49.0250
22.9943,49.0537
22.9780,49.0780
22.9537,49.0943
22.9250,49.1000
21.6000,49.1000
21.5713,49.0943
21.5470,49.0780
21.5307,49.0537
21.5250,49.0250
Z" /> 
<path style="fill:#000000; fill-opacity:1.0000; stroke:none;fill-rule:evenodd;"
d="M 21.5250,49.3750
21.5307,49.3463
21.5470,49.3220
21.5713,49.3057
21.6000,49.3000
22.9250,49.3000
22.9537,49.3057
22.9780,49.3220
22.9943,49.3463
23.0000,49.3750
23.0000,49.5250
22.9943,49.5537
22.9780,49.5780
22.9537,49.5943
22.9250,49.6000
21.6000,49.6000
21.5713,49.5943
21.5470,49.5780
21.5307,49.5537
21.5250,49.5250
Z" /> 
<path style="fill:#000000; fill-opacity:1.0000; stroke:none;fill-rule:evenodd;"
d="M 23.5250,50.2000
23.5307,50.1713
23.5470,50.1470
23.5713,50.1307
23.6000,50.1250
23.7500,50.1250
23.7787,50.1307
23.8030,50.1470
23.8193,50.1713
23.8250,50.2000
23.8250,51.5250
23.8193,51.5537
23.8030,51.5780
23.7787,51.5943
23.7500,51.6000
23.6000,51.6000
23.5713,51.5943
23.5470,51.5780
23.5307,51.5537
23.5250,51.5250
Z" /> 
<path style="fill:#000000; fill-opacity:1.0000; stroke:none;fill-rule:evenodd;"
d="M 24.0250,50.2000
24.0307,50.1713
24.0470,50.1470
24.0713,50.1307
24.1000,50.1250
24.2500,50.1250
24.2787,50.1307
24.3030,50.1470
24.3193,50.1713
24.3250,50.2000
24.3250,51.5250
24.3193,51.5537
24.3030,51.5780
24.2787,51.5943
24.2500,51.6000
24.1000,51.6000
24.0713,51.5943
24.0470,51.5780
24.0307,51.5537
24.0250,51.5250
Z" /> 
<path style="fill:#000000; fill-opacity:1.0000; stroke:none;fill-rule:evenodd;"
d="M 24.5250,50.2000
24.5307,50.1713
24.5470,50.1470
24.5713,50.1307
24.6000,50.1250
24.7500,50.1250
24.7787,50.1307
24.8030,50.1470
24.8193,50.1713
24.8250,50.2000
24.8250,51.5250
24.8193,51.5537
24.8030,51.5780
24.7787,51.5943
24.7500,51.6000
24.6000,51.6000
24.5713,51.5943
24.5470,51.5780
24.5307,51.5537
24.5250,51.5250
Z" /> 
<path style="fill:#000000; fill-opacity:1.0000; stroke:none;fill-rule:evenodd;"
d="M 25.0250,50.2000
25.0307,50.1713
25.0470,50.1470
25.0713,50.1307
25.1000,50.1250
25.2500,50.1250
25.2787,50.1307
25.3030,50.1470
25.3193,50.1713
25.3250,50.2000
25.3250,51.5250
25.3193,51.5537
25.3030,51.5780
25.2787,51.5943
25.2500,51.6000
25.1000,51.6000
25.0713,51.5943
25.0470,51.5780
25.0307,51.5537
25.0250,51.5250
Z" /> 
<path style="fill:#000000; fill-opacity:1.0000; stroke:none;fill-rule:evenodd;"
d="M 25.5250,50.2000
25.5307,50.1713
25.5470,50.1470
25.5713,50.1307
25.6000,50.1250
25.7500,50.1250
25.7787,50.1307
25.8030,50.1470
25.8193,50.1713
25.8250,50.2000
25.8250,51.5250
25.8193,51.5537
25.8030,51.5780
25.7787,51.5943
25.7500,51.6000
25.6000,51.6000
25.5713,51.5943
25.5470,51.5780
25.5307,51.5537
25.5250,51.5250
Z" /> 
<path style="fill:#000000; fill-opacity:1.0000; stroke:none;fill-rule:evenodd;"
d="M 26.0250,50.2000
26.0307,50.1713
26.0470,50.1470
26.0713,50.1307
26.1000,50.1250
26.2500,50.1250
26.2787,50.1307
26.3030,50.1470
26.3193,50.1713
26.3250,50.2000
26.3250,51.5250
26.3193,51.5537
26.3030,51.5780
26.2787,51.5943
26.2500,51.6000
26.1000,51.6000
26.0713,51.5943
26.0470,51.5780
26.0307,51.5537
26.0250,51.5250
Z" /> 
<path style="fill:#000000; fill-opacity:1.0000; stroke:none;fill-rule:evenodd;"
d="M 26.5250,50.2000
26.5307,50.1713
26.5470,50.1470
26.5713,50.1307
26.6000,50.1250
26.7500,50.1250
26.7787,50.1307
26.8030,50.1470
26.8193,50.1713
26.8250,50.2000
26.8250,51.5250
26.8193,51.5537
26.8030,51.5780
26.7787,51.5943
26.7500,51.6000
26.6000,51.6000
26.5713,51.5943
26.5470,51.5780
26.5307,51.5537
26.5250,51.5250
Z" /> 
<path style="fill:#000000; fill-opacity:1.0000; stroke:none;fill-rule:evenodd;"
d="M 27.0250,50.2000
27.0307,50.1713
27.0470,50.1470
27.0713,50.1307
27.1000,50.1250
27.2500,50.1250
27.2787,50.1307
27.3030,50.1470
27.3193,50.1713
27.3250,50.2000
27.3250,51.5250
27.3193,51.5537
27.3030,51.5780
27.2787,51.5943
27.2500,51.6000
27.1000,51.6000
27.0713,51.5943
27.0470,51.5780
27.0307,51.5537
27.0250,51.5250
Z" /> 
<path style="fill:#000000; fill-opacity:1.0000; stroke:none;fill-rule:evenodd;"
d="M 27.5250,50.2000
27.5307,50.1713
27.5470,50.1470
27.5713,50.1307
27.6000,50.1250
27.7500,50.1250
27.7787,50.1307
27.8030,50.1470
27.8193,50.1713
27.8250,50.2000
27.8250,51.5250
27.8193,51.5537
27.8030,51.5780
27.7787,51.5943
27.7500,51.6000
27.6000,51.6000
27.5713,51.5943
27.5470,51.5780
27.5307,51.5537
27.5250,51.5250
Z" /> 
<path style="fill:#000000; fill-opacity:1.0000; stroke:none;fill-rule:evenodd;"
d="M 28.0250,50.2000
28.0307,50.1713
28.0470,50.1470
28.0713,50.1307
28.1000,50.1250
28.2500,50.1250
28.2787,50.1307
28.3030,50.1470
28.3193,50.1713
28.3250,50.2000
28.3250,51.5250
28.3193,51.5537
28.3030,51.5780
28.2787,51.5943
28.2500,51.6000
28.1000,51.6000
28.0713,51.5943
28.0470,51.5780
28.0307,51.5537
28.0250,51.5250
Z" /> 
<path style="fill:#000000; fill-opacity:1.0000; stroke:none;fill-rule:evenodd;"
d="M 28.5250,50.2000
28.5307,50.1713
28.5470,50.1470
28.5713,50.1307
28.6000,50.1250
28.7500,50.1250
28.7787,50.1307
28.8030,50.1470
28.8193,50.1713
28.8250,50.2000
28.8250,51.5250
28.8193,51.5537
28.8030,51.5780
28.7787,51.5943
28.7500,51.6000
28.6000,51.6000
28.5713,51.5943
28.5470,51.5780
28.5307,51.5537
28.5250,51.5250
Z" /> 
<path style="fill:#000000; fill-opacity:1.0000; stroke:none;fill-rule:evenodd;"
d="M 29.0250,50.2000
29.0307,50.1713
29.0470,50.1470
29.0713,50.1307
29.1000,50.1250
29.2500,50.1250
29.2787,50.1307
29.3030,50.1470
29.3193,50.1713
29.3250,50.2000
29.3250,51.5250
29.3193,51.5537
29.3030,51.5780
29.2787,51.5943
29.2500,51.6000
29.1000,51.6000
29.0713,51.5943
29.0470,51.5780
29.0307,51.5537
29.0250,51.5250
Z" /> 
<path style="fill:#000000; fill-opacity:1.0000; stroke:none;fill-rule:evenodd;"
d="M 29.8500,49.3750
29.8557,49.3463
29.8720,49.3220
29.8963,49.3057
29.9250,49.3000
31.2500,49.3000
31.2787,49.3057
31.3030,49.3220
31.3193,49.3463
31.3250,49.3750
31.3250,49.5250
31.3193,49.5537
31.3030,49.5780
31.2787,49.5943
31.2500,49.6000
29.9250,49.6000
29.8963,49.5943
29.8720,49.5780
29.8557,49.5537
29.8500,49.5250
Z" /> 
<path style="fill:#000000; fill-opacity:1.0000; stroke:none;fill-rule:evenodd;"
d="M 29.8500,48.8750
29.8557,48.8463
29.8720,48.8220
29.8963,48.8057
29.9250,48.8000
31.2500,48.8000
31.2787,48.8057
31.3030,48.8220
31.3193,48.8463
31.3250,48.8750
31.3250,49.0250
31.3193,49.0537
31.3030,49.0780
31.2787,49.0943
31.2500,49.1000
29.9250,49.1000
29.8963,49.0943
29.8720,49.0780
29.8557,49.0537
29.8500,49.0250
Z" /> 
<path style="fill:#000000; fill-opacity:1.0000; stroke:none;fill-rule:evenodd;"
d="M 29.8500,48.3750
29.8557,48.3463
29.8720,48.3220
29.8963,48.3057
29.9250,48.3000
31.2500,48.3000
31.2787,48.3057
31.3030,48.3220
31.3193,48.3463
31.3250,48.3750
31.3250,48.5250
31.3193,48.5537
31.3030,48.5780
31.2787,48.5943
31.2500,48.6000
29.9250,48.6000
29.8963,48.5943
29.8720,48.5780
29.8557,48.5537
29.8500,48.5250
Z" /> 
<path style="fill:#000000; fill-opacity:1.0000; stroke:none;fill-rule:evenodd;"
d="M 29.8500,47.8750
29.8557,47.8463
29.8720,47.8220
29.8963,47.8057
29.9250,47.8000
31.2500,47.8000
31.2787,47.8057
31.3030,47.8220
31.3193,47.8463
31.3250,47.8750
31.3250,48.0250
31.3193,48.0537
31.3030,48.0780
31.2787,48.0943
31.2500,48.1000
29.9250,48.1000
29.8963,48.0943
29.8720,48.0780
29.8557,48.0537
29.8500,48.0250
Z" /> 
<path style="fill:#000000; fill-opacity:1.0000; stroke:none;fill-rule:evenodd;"
d="M 29.8500,47.3750
29.8557,47.3463
29.8720,47.3220
29.8963,47.3057
29.9250,47.3000
31.2500,47.3000
31.2787,47.3057
31.3030,47.3220
31.3193,47.3463
31.3250,47.3750
31.3250,47.5250
31.3193,47.5537
31.3030,47.5780
31.2787,47.5943
31.2500,47.6000
29.9250,47.6000
29.8963,47.5943
29.8720,47.5780
29.8557,47.5537
29.8500,47.5250
Z" /> 
<path style="fill:#000000; fill-opacity:1.0000; stroke:none;fill-rule:evenodd;"
d="M 29.8500,46.8750
29.8557,46.8463
29.8720,46.8220
29.8963,46.8057
29.9250,46.8000
31.2500,46.8000
31.2787,46.8057
31.3030,46.8220
31.3193,46.8463
31.3250,46.8750
31.3250,47.0250
31.3193,47.0537
31.3030,47.0780
31.2787,47.0943
31.2500,47.1000
29.9250,47.1000
29.8963,47.0943
29.8720,47.0780
29.8557,47.0537
29.8500,47.0250
Z" /> 
<path style="fill:#000000; fill-opacity:1.0000; stroke:none;fill-rule:evenodd;"
d="M 29.8500,46.3750
29.8557,46.3463
29.8720,46.3220
29.8963,46.3057
29.9250,46.3000
31.2500,46.3000
31.2787,46.3057
31.3030,46.3220
31.3193,46.3463
31.3250,46.3750
31.3250,46.5250
31.3193,46.5537
31.3030,46.5780
31.2787,46.5943
31.2500,46.6000
29.9250,46.6000
29.8963,46.5943
29.8720,46.5780
29.8557,46.5537
29.8500,46.5250
Z" /> 
<path style="fill:#000000; fill-opacity:1.0000; stroke:none;fill-rule:evenodd;"
d="M 29.8500,45.8750
29.8557,45.8463
29.8720,45.8220
29.8963,45.8057
29.9250,45.8000
31.2500,45.8000
31.2787,45.8057
31.3030,45.8220
31.3193,45.8463
31.3250,45.8750
31.3250,46.0250
31.3193,46.0537
31.3030,46.0780
31.2787,46.0943
31.2500,46.1000
29.9250,46.1000
29.8963,46.0943
29.8720,46.0780
29.8557,46.0537
29.8500,46.0250
Z" /> 
<path style="fill:#000000; fill-opacity:1.0000; stroke:none;fill-rule:evenodd;"
d="M 29.8500,45.3750
29.8557,45.3463
29.8720,45.3220
29.8963,45.3057
29.9250,45.3000
31.2500,45.3000
31.2787,45.3057
31.3030,45.3220
31.3193,45.3463
31.3250,45.3750
31.3250,45.5250
31.3193,45.5537
31.3030,45.5780
31.2787,45.5943
31.2500,45.6000
29.9250,45.6000
29.8963,45.5943
29.8720,45.5780
29.8557,45.5537
29.8500,45.5250
Z" /> 
<path style="fill:#000000; fill-opacity:1.0000; stroke:none;fill-rule:evenodd;"
d="M 29.8500,44.8750
29.8557,44.8463
29.8720,44.8220
29.8963,44.8057
29.9250,44.8000
31.2500,44.8000
31.2787,44.8057
31.3030,44.8220
31.3193,44.8463
31.3250,44.8750
31.3250,45.0250
31.3193,45.0537
31.3030,45.0780
31.2787,45.0943
31.2500,45.1000
29.9250,45.1000
29.8963,45.0943
29.8720,45.0780
29.8557,45.0537
29.8500,45.0250
Z" /> 
<path style="fill:#000000; fill-opacity:1.0000; stroke:none;fill-rule:evenodd;"
d="M 29.8500,44.3750
29.8557,44.3463
29.8720,44.3220
29.8963,44.3057
29.9250,44.3000
31.2500,44.3000
31.2787,44.3057
31.3030,44.3220
31.3193,44.3463
31.3250,44.3750
31.3250,44.5250
31.3193,44.5537
31.3030,44.5780
31.2787,44.5943
31.2500,44.6000
29.9250,44.6000
29.8963,44.5943
29.8720,44.5780
29.8557,44.5537
29.8500,44.5250
Z" /> 
<path style="fill:#000000; fill-opacity:1.0000; stroke:none;fill-rule:evenodd;"
d="M 29.8500,43.8750
29.8557,43.8463
29.8720,43.8220
29.8963,43.8057
29.9250,43.8000
31.2500,43.8000
31.2787,43.8057
31.3030,43.8220
31.3193,43.8463
31.3250,43.8750
31.3250,44.0250
31.3193,44.0537
31.3030,44.0780
31.2787,44.0943
31.2500,44.1000
29.9250,44.1000
29.8963,44.0943
29.8720,44.0780
29.8557,44.0537
29.8500,44.0250
Z" /> 
<path style="fill:#000000; fill-opacity:1.0000; stroke:none;fill-rule:evenodd;"
d="M 29.0250,41.8750
29.0307,41.8463
29.0470,41.8220
29.0713,41.8057
29.1000,41.8000
29.2500,41.8000
29.2787,41.8057
29.3030,41.8220
29.3193,41.8463
29.3250,41.8750
29.3250,43.2000
29.3193,43.2287
29.3030,43.2530
29.2787,43.2693
29.2500,43.2750
29.1000,43.2750
29.0713,43.2693
29.0470,43.2530
29.0307,43.2287
29.0250,43.2000
Z" /> 
<path style="fill:#000000; fill-opacity:1.0000; stroke:none;fill-rule:evenodd;"
d="M 28.5250,41.8750
28.5307,41.8463
28.5470,41.8220
28.5713,41.8057
28.6000,41.8000
28.7500,41.8000
28.7787,41.8057
28.8030,41.8220
28.8193,41.8463
28.8250,41.8750
28.8250,43.2000
28.8193,43.2287
28.8030,43.2530
28.7787,43.2693
28.7500,43.2750
28.6000,43.2750
28.5713,43.2693
28.5470,43.2530
28.5307,43.2287
28.5250,43.2000
Z" /> 
<path style="fill:#000000; fill-opacity:1.0000; stroke:none;fill-rule:evenodd;"
d="M 28.0250,41.8750
28.0307,41.8463
28.0470,41.8220
28.0713,41.8057
28.1000,41.8000
28.2500,41.8000
28.2787,41.8057
28.3030,41.8220
28.3193,41.8463
28.3250,41.8750
28.3250,43.2000
28.3193,43.2287
28.3030,43.2530
28.2787,43.2693
28.2500,43.2750
28.1000,43.2750
28.0713,43.2693
28.0470,43.2530
28.0307,43.2287
28.0250,43.2000
Z" /> 
<path style="fill:#000000; fill-opacity:1.0000; stroke:none;fill-rule:evenodd;"
d="M 27.5250,41.8750
27.5307,41.8463
27.5470,41.8220
27.5713,41.8057
27.6000,41.8000
27.7500,41.8000
27.7787,41.8057
27.8030,41.8220
27.8193,41.8463
27.8250,41.8750
27.8250,43.2000
27.8193,43.2287
27.8030,43.2530
27.7787,43.2693
27.7500,43.2750
27.6000,43.2750
27.5713,43.2693
27.5470,43.2530
27.5307,43.2287
27.5250,43.2000
Z" /> 
<path style="fill:#000000; fill-opacity:1.0000; stroke:none;fill-rule:evenodd;"
d="M 27.0250,41.8750
27.0307,41.8463
27.0470,41.8220
27.0713,41.8057
27.1000,41.8000
27.2500,41.8000
27.2787,41.8057
27.3030,41.8220
27.3193,41.8463
27.3250,41.8750
27.3250,43.2000
27.3193,43.2287
27.3030,43.2530
27.2787,43.2693
27.2500,43.2750
27.1000,43.2750
27.0713,43.2693
27.0470,43.2530
27.0307,43.2287
27.0250,43.2000
Z" /> 
<path style="fill:#000000; fill-opacity:1.0000; stroke:none;fill-rule:evenodd;"
d="M 26.5250,41.8750
26.5307,41.8463
26.5470,41.8220
26.5713,41.8057
26.6000,41.8000
26.7500,41.8000
26.7787,41.8057
26.8030,41.8220
26.8193,41.8463
26.8250,41.8750
26.8250,43.2000
26.8193,43.2287
26.8030,43.2530
26.7787,43.2693
26.7500,43.2750
26.6000,43.2750
26.5713,43.2693
26.5470,43.2530
26.5307,43.2287
26.5250,43.2000
Z" /> 
<path style="fill:#000000; fill-opacity:1.0000; stroke:none;fill-rule:evenodd;"
d="M 26.0250,41.8750
26.0307,41.8463
26.0470,41.8220
26.0713,41.8057
26.1000,41.8000
26.2500,41.8000
26.2787,41.8057
26.3030,41.8220
26.3193,41.8463
26.3250,41.8750
26.3250,43.2000
26.3193,43.2287
26.3030,43.2530
26.2787,43.2693
26.2500,43.2750
26.1000,43.2750
26.0713,43.2693
26.0470,43.2530
26.0307,43.2287
26.0250,43.2000
Z" /> 
<path style="fill:#000000; fill-opacity:1.0000; stroke:none;fill-rule:evenodd;"
d="M 25.5250,41.8750
25.5307,41.8463
25.5470,41.8220
25.5713,41.8057
25.6000,41.8000
25.7500,41.8000
25.7787,41.8057
25.8030,41.8220
25.8193,41.8463
25.8250,41.8750
25.8250,43.2000
25.8193,43.2287
25.8030,43.2530
25.7787,43.2693
25.7500,43.2750
25.6000,43.2750
25.5713,43.2693
25.5470,43.2530
25.5307,43.2287
25.5250,43.2000
Z" /> 
<path style="fill:#000000; fill-opacity:1.0000; stroke:none;fill-rule:evenodd;"
d="M 25.0250,41.8750
25.0307,41.8463
25.0470,41.8220
25.0713,41.8057
25.1000,41.8000
25.2500,41.8000
25.2787,41.8057
25.3030,41.8220
25.3193,41.8463
25.3250,41.8750
25.3250,43.2000
25.3193,43.2287
25.3030,43.2530
25.2787,43.2693
25.2500,43.2750
25.1000,43.2750
25.0713,43.2693
25.0470,43.2530
25.0307,43.2287
25.0250,43.2000
Z" /> 
<path style="fill:#000000; fill-opacity:1.0000; stroke:none;fill-rule:evenodd;"
d="M 24.5250,41.8750
24.5307,41.8463
24.5470,41.8220
24.5713,41.8057
24.6000,41.8000
24.7500,41.8000
24.7787,41.8057
24.8030,41.8220
24.8193,41.8463
24.8250,41.8750
24.8250,43.2000
24.8193,43.2287
24.8030,43.2530
24.7787,43.2693
24.7500,43.2750
24.6000,43.2750
24.5713,43.2693
24.5470,43.2530
24.5307,43.2287
24.5250,43.2000
Z" /> 
<path style="fill:#000000; fill-opacity:1.0000; stroke:none;fill-rule:evenodd;"
d="M 24.0250,41.8750
24.0307,41.8463
24.0470,41.8220
24.0713,41.8057
24.1000,41.8000
24.2500,41.8000
24.2787,41.8057
24.3030,41.8220
24.3193,41.8463
24.3250,41.8750
24.3250,43.2000
24.3193,43.2287
24.3030,43.2530
24.2787,43.2693
24.2500,43.2750
24.1000,43.2750
24.0713,43.2693
24.0470,43.2530
24.0307,43.2287
24.0250,43.2000
Z" /> 
<path style="fill:#000000; fill-opacity:1.0000; stroke:none;fill-rule:evenodd;"
d="M 23.5250,41.8750
23.5307,41.8463
23.5470,41.8220
23.5713,41.8057
23.6000,41.8000
23.7500,41.8000
23.7787,41.8057
23.8030,41.8220
23.8193,41.8463
23.8250,41.8750
23.8250,43.2000
23.8193,43.2287
23.8030,43.2530
23.7787,43.2693
23.7500,43.2750
23.6000,43.2750
23.5713,43.2693
23.5470,43.2530
23.5307,43.2287
23.5250,43.2000
Z" /> 
<path style="fill:#000000; fill-opacity:1.0000; stroke:none;fill-rule:evenodd;"
d="M 33.4926,16.3241
31.2828,16.3241
31.2828,15.1557
33.4926,15.1557
Z" /> 
<path style="fill:#000000; fill-opacity:1.0000; stroke:none;fill-rule:evenodd;"
d="M 33.4926,9.5931
31.2828,9.5931
31.2828,8.4247
33.4926,8.4247
Z" /> 
<path style="fill:#000000; fill-opacity:1.0000; stroke:none;fill-rule:evenodd;"
d="M 18.4933,69.2748
18.4933,70.3748
17.7821,70.3748
17.7821,69.2748
Z" /> 
<path style="fill:#000000; fill-opacity:1.0000; stroke:none;fill-rule:evenodd;"
d="M 21.4933,69.2748
21.4933,70.3748
20.7821,70.3748
20.7821,69.2748
Z" /> 
<path style="fill:#000000; fill-opacity:1.0000; stroke:none;fill-rule:evenodd;"
d="M 22.9933,69.2748
22.9933,70.3748
22.2821,70.3748
22.2821,69.2748
Z" /> 
<path style="fill:#000000; fill-opacity:1.0000; stroke:none;fill-rule:evenodd;"
d="M 24.6330,72.6181
24.6330,73.4309
23.6424,73.4309
23.6424,72.6181
Z" /> 
<path style="fill:#000000; fill-opacity:1.0000; stroke:none;fill-rule:evenodd;"
d="M 24.6331,70.3181
24.6331,71.1309
23.6425,71.1309
23.6425,70.3181
Z" /> 
<path style="fill:#000000; fill-opacity:1.0000; stroke:none;fill-rule:evenodd;"
d="M 17.1330,70.3181
17.1330,71.1309
16.1424,71.1309
16.1424,70.3181
Z" /> 
<path style="fill:#000000; fill-opacity:1.0000; stroke:none;fill-rule:evenodd;"
d="M 17.1330,72.6181
17.1330,73.4309
16.1424,73.4309
16.1424,72.6181
Z" /> 
<path style="fill:#000000; fill-opacity:1.0000; stroke:none;fill-rule:evenodd;"
d="M 15.3724,44.9349
15.2767,44.9159
15.1956,44.8617
15.1414,44.7806
15.1224,44.6849
15.1224,43.9849
15.1414,43.8893
15.1956,43.8082
15.2767,43.7540
15.3724,43.7349
16.2724,43.7349
16.3680,43.7540
16.4492,43.8082
16.5033,43.8893
16.5224,43.9849
16.5224,44.6849
16.5033,44.7806
16.4492,44.8617
16.3680,44.9159
16.2724,44.9349
Z" /> 
<path style="fill:#000000; fill-opacity:1.0000; stroke:none;fill-rule:evenodd;"
d="M 15.3724,42.9349
15.2767,42.9159
15.1956,42.8617
15.1414,42.7806
15.1224,42.6849
15.1224,41.9849
15.1414,41.8893
15.1956,41.8082
15.2767,41.7540
15.3724,41.7349
16.2724,41.7349
16.3680,41.7540
16.4492,41.8082
16.5033,41.8893
16.5224,41.9849
16.5224,42.6849
16.5033,42.7806
16.4492,42.8617
16.3680,42.9159
16.2724,42.9349
Z" /> 
<path style="fill:#000000; fill-opacity:1.0000; stroke:none;fill-rule:evenodd;"
d="M 25.3500,37.8750
25.4457,37.8940
25.5268,37.9482
25.5810,38.0293
25.6000,38.1250
25.6000,38.8000
25.5810,38.8957
25.5268,38.9768
25.4457,39.0310
25.3500,39.0500
24.4000,39.0500
24.3043,39.0310
24.2232,38.9768
24.1690,38.8957
24.1500,38.8000
24.1500,38.1250
24.1690,38.0293
24.2232,37.9482
24.3043,37.8940
24.4000,37.8750
Z" /> 
<path style="fill:#000000; fill-opacity:1.0000; stroke:none;fill-rule:evenodd;"
d="M 25.3500,39.9500
25.4457,39.9690
25.5268,40.0232
25.5810,40.1043
25.6000,40.2000
25.6000,40.8750
25.5810,40.9707
25.5268,41.0518
25.4457,41.1060
25.3500,41.1250
24.4000,41.1250
24.3043,41.1060
24.2232,41.0518
24.1690,40.9707
24.1500,40.8750
24.1500,40.2000
24.1690,40.1043
24.2232,40.0232
24.3043,39.9690
24.4000,39.9500
Z" /> 
<path style="fill:#000000; fill-opacity:1.0000; stroke:none;fill-rule:evenodd;"
d="M 12.7627,59.8744
12.7437,59.9700
12.6895,60.0511
12.6084,60.1053
12.5127,60.1244
11.8377,60.1244
11.7421,60.1053
11.6610,60.0511
11.6068,59.9700
11.5877,59.8744
11.5877,58.9244
11.6068,58.8287
11.6610,58.7476
11.7421,58.6934
11.8377,58.6744
12.5127,58.6744
12.6084,58.6934
12.6895,58.7476
12.7437,58.8287
12.7627,58.9244
Z" /> 
<path style="fill:#000000; fill-opacity:1.0000; stroke:none;fill-rule:evenodd;"
d="M 10.6877,59.8744
10.6687,59.9700
10.6145,60.0511
10.5334,60.1053
10.4377,60.1244
9.7627,60.1244
9.6671,60.1053
9.5860,60.0511
9.5318,59.9700
9.5127,59.8744
9.5127,58.9244
9.5318,58.8287
9.5860,58.7476
9.6671,58.6934
9.7627,58.6744
10.4377,58.6744
10.5334,58.6934
10.6145,58.7476
10.6687,58.8287
10.6877,58.9244
Z" /> 
<path style="fill:#000000; fill-opacity:1.0000; stroke:none;fill-rule:evenodd;"
d="M 7.4377,61.9994
7.3421,61.9803
7.2610,61.9261
7.2068,61.8450
7.1877,61.7494
7.1877,61.0494
7.2068,60.9537
7.2610,60.8726
7.3421,60.8184
7.4377,60.7994
8.3377,60.7994
8.4334,60.8184
8.5145,60.8726
8.5687,60.9537
8.5877,61.0494
8.5877,61.7494
8.5687,61.8450
8.5145,61.9261
8.4334,61.9803
8.3377,61.9994
Z" /> 
<path style="fill:#000000; fill-opacity:1.0000; stroke:none;fill-rule:evenodd;"
d="M 7.4377,59.9994
7.3421,59.9803
7.2610,59.9261
7.2068,59.8450
7.1877,59.7494
7.1877,59.0494
7.2068,58.9537
7.2610,58.8726
7.3421,58.8184
7.4377,58.7994
8.3377,58.7994
8.4334,58.8184
8.5145,58.8726
8.5687,58.9537
8.5877,59.0494
8.5877,59.7494
8.5687,59.8450
8.5145,59.9261
8.4334,59.9803
8.3377,59.9994
Z" /> 
<path style="fill:#000000; fill-opacity:1.0000; stroke:none;fill-rule:evenodd;"
d="M 6.6250,24.0250
6.6250,23.0250
7.8750,23.0250
7.8750,24.0250
Z" /> 
<path style="fill:#000000; fill-opacity:1.0000; stroke:none;fill-rule:evenodd;"
d="M 14.3750,24.0250
14.3750,23.0250
15.6250,23.0250
15.6250,24.0250
Z" /> 
<path style="fill:#000000; fill-opacity:1.0000; stroke:none;fill-rule:evenodd;"
d="M 16.0625,33.6000
15.9716,33.5819
15.8946,33.5304
15.8431,33.4534
15.8250,33.3625
15.8250,32.8625
15.8431,32.7716
15.8946,32.6946
15.9716,32.6431
16.0625,32.6250
16.5375,32.6250
16.6284,32.6431
16.7054,32.6946
16.7569,32.7716
16.7750,32.8625
16.7750,33.3625
16.7569,33.4534
16.7054,33.5304
16.6284,33.5819
16.5375,33.6000
Z" /> 
<path style="fill:#000000; fill-opacity:1.0000; stroke:none;fill-rule:evenodd;"
d="M 16.0625,31.7750
15.9716,31.7569
15.8946,31.7054
15.8431,31.6284
15.8250,31.5375
15.8250,31.0375
15.8431,30.9466
15.8946,30.8696
15.9716,30.8181
16.0625,30.8000
16.5375,30.8000
16.6284,30.8181
16.7054,30.8696
16.7569,30.9466
16.7750,31.0375
16.7750,31.5375
16.7569,31.6284
16.7054,31.7054
16.6284,31.7569
16.5375,31.7750
Z" /> 
<path style="fill:#000000; fill-opacity:1.0000; stroke:none;fill-rule:evenodd;"
d="M 32.0477,58.9900
32.1090,59.0022
32.1609,59.0369
32.1956,59.0888
32.2077,59.1500
32.2077,59.5950
32.1956,59.6562
32.1609,59.7081
32.1090,59.7428
32.0477,59.7550
31.7277,59.7550
31.6665,59.7428
31.6146,59.7081
31.5799,59.6562
31.5677,59.5950
31.5677,59.1500
31.5799,59.0888
31.6146,59.0369
31.6665,59.0022
31.7277,58.9900
Z" /> 
<path style="fill:#000000; fill-opacity:1.0000; stroke:none;fill-rule:evenodd;"
d="M 32.0477,60.1350
32.1090,60.1472
32.1609,60.1819
32.1956,60.2338
32.2077,60.2950
32.2077,60.7400
32.1956,60.8012
32.1609,60.8531
32.1090,60.8878
32.0477,60.9000
31.7277,60.9000
31.6665,60.8878
31.6146,60.8531
31.5799,60.8012
31.5677,60.7400
31.5677,60.2950
31.5799,60.2338
31.6146,60.1819
31.6665,60.1472
31.7277,60.1350
Z" /> 
<path style="fill:#000000; fill-opacity:1.0000; stroke:none;fill-rule:evenodd;"
d="M 31.0917,65.8500
31.0849,65.8844
31.0654,65.9136
31.0362,65.9331
31.0017,65.9400
30.7237,65.9400
30.6893,65.9331
30.6601,65.9136
30.6406,65.8844
30.6337,65.8500
30.6337,65.6700
30.6406,65.6356
30.6601,65.6064
30.6893,65.5869
30.7237,65.5800
31.0017,65.5800
31.0362,65.5869
31.0654,65.6064
31.0849,65.6356
31.0917,65.6700
Z" /> 
<path style="fill:#000000; fill-opacity:1.0000; stroke:none;fill-rule:evenodd;"
d="M 30.2267,65.8500
30.2199,65.8844
30.2004,65.9136
30.1712,65.9331
30.1367,65.9400
29.8587,65.9400
29.8243,65.9331
29.7951,65.9136
29.7756,65.8844
29.7687,65.8500
29.7687,65.6700
29.7756,65.6356
29.7951,65.6064
29.8243,65.5869
29.8587,65.5800
30.1367,65.5800
30.1712,65.5869
30.2004,65.6064
30.2199,65.6356
30.2267,65.6700
Z" /> 
<path style="fill:#000000; fill-opacity:1.0000; stroke:none;fill-rule:evenodd;"
d="M 17.6750,34.7500
17.6940,34.6543
17.7482,34.5732
17.8293,34.5190
17.9250,34.5000
18.6250,34.5000
18.7207,34.5190
18.8018,34.5732
18.8560,34.6543
18.8750,34.7500
18.8750,35.6500
18.8560,35.7457
18.8018,35.8268
18.7207,35.8810
18.6250,35.9000
17.9250,35.9000
17.8293,35.8810
17.7482,35.8268
17.6940,35.7457
17.6750,35.6500
Z" /> 
<path style="fill:#000000; fill-opacity:1.0000; stroke:none;fill-rule:evenodd;"
d="M 19.6750,34.7500
19.6940,34.6543
19.7482,34.5732
19.8293,34.5190
19.9250,34.5000
20.6250,34.5000
20.7207,34.5190
20.8018,34.5732
20.8560,34.6543
20.8750,34.7500
20.8750,35.6500
20.8560,35.7457
20.8018,35.8268
20.7207,35.8810
20.6250,35.9000
19.9250,35.9000
19.8293,35.8810
19.7482,35.8268
19.6940,35.7457
19.6750,35.6500
Z" /> 
<path style="fill:#000000; fill-opacity:1.0000; stroke:none;fill-rule:evenodd;"
d="M 32.0527,56.7000
32.1121,56.7118
32.1623,56.7454
32.1959,56.7957
32.2077,56.8550
32.2077,57.2800
32.1959,57.3393
32.1623,57.3896
32.1121,57.4232
32.0527,57.4350
31.7427,57.4350
31.6834,57.4232
31.6331,57.3896
31.5995,57.3393
31.5877,57.2800
31.5877,56.8550
31.5995,56.7957
31.6331,56.7454
31.6834,56.7118
31.7427,56.7000
Z" /> 
<path style="fill:#000000; fill-opacity:1.0000; stroke:none;fill-rule:evenodd;"
d="M 32.0527,57.8350
32.1121,57.8468
32.1623,57.8804
32.1959,57.9307
32.2077,57.9900
32.2077,58.4150
32.1959,58.4743
32.1623,58.5246
32.1121,58.5582
32.0527,58.5700
31.7427,58.5700
31.6834,58.5582
31.6331,58.5246
31.5995,58.4743
31.5877,58.4150
31.5877,57.9900
31.5995,57.9307
31.6331,57.8804
31.6834,57.8468
31.7427,57.8350
Z" /> 
</g> 
</svg>
